<?xml version="1.0" encoding="UTF-8" standalone="no"?>
<!DOCTYPE svg PUBLIC "-//W3C//DTD SVG 1.1//EN"
 "http://www.w3.org/Graphics/SVG/1.1/DTD/svg11.dtd">
<!-- Generated by graphviz version 14.0.2 (20251019.1705)
 -->
<!-- Title: duvc_log_message Pages: 1 -->
<svg width="238pt" height="180pt"
 viewBox="0.00 0.00 238.00 180.00" xmlns="http://www.w3.org/2000/svg" xmlns:xlink="http://www.w3.org/1999/xlink">
<g id="graph0" class="graph" transform="scale(1 1) rotate(0) translate(4 176)">
<title>duvc_log_message</title>
<!-- Node1 -->
<g id="Node000001" class="node">
<title>Node1</title>
<g id="a_Node000001"><a xlink:title="Log message at specific level.">
<polygon fill="#999999" stroke="#666666" points="230,-96 130,-96 130,-76 230,-76 230,-96"/>
<text xml:space="preserve" text-anchor="middle" x="180" y="-82.5" font-family="Helvetica,sans-Serif" font-size="10.00">duvc_log_message</text>
</a>
</g>
</g>
<!-- Node2 -->
<g id="Node000002" class="node">
<title>Node2</title>
<g id="a_Node000002"><a xlink:href="api_8cpp.html#ad59f4c0cac89a553a88e826f63aad25e" target="_top" xlink:title="Log critical message.">
<polygon fill="white" stroke="#666666" points="91.38,-172 2.63,-172 2.63,-152 91.38,-152 91.38,-172"/>
<text xml:space="preserve" text-anchor="middle" x="47" y="-158.5" font-family="Helvetica,sans-Serif" font-size="10.00">duvc_log_critical</text>
</a>
</g>
</g>
<!-- Node1&#45;&gt;Node2 -->
<g id="edge1_Node000001_Node000002" class="edge">
<title>Node1&#45;&gt;Node2</title>
<g id="a_edge1_Node000001_Node000002"><a xlink:title=" ">
<path fill="none" stroke="#63b8ff" d="M156.42,-102.95C139.72,-115.03 116.13,-131.16 94,-143 88.21,-146.1 81.8,-149.03 75.66,-151.62"/>
<polygon fill="#63b8ff" stroke="#63b8ff" points="158.18,-106 164.18,-97.26 154.04,-100.36 158.18,-106"/>
</a>
</g>
</g>
<!-- Node3 -->
<g id="Node000003" class="node">
<title>Node3</title>
<g id="a_Node000003"><a xlink:href="api_8cpp.html#a8eb2a7c27c88acb2ad87386c3d703493" target="_top" xlink:title="Log debug message.">
<polygon fill="white" stroke="#666666" points="90.25,-134 3.75,-134 3.75,-114 90.25,-114 90.25,-134"/>
<text xml:space="preserve" text-anchor="middle" x="47" y="-120.5" font-family="Helvetica,sans-Serif" font-size="10.00">duvc_log_debug</text>
</a>
</g>
</g>
<!-- Node1&#45;&gt;Node3 -->
<g id="edge2_Node000001_Node000003" class="edge">
<title>Node1&#45;&gt;Node3</title>
<g id="a_edge2_Node000001_Node000003"><a xlink:title=" ">
<path fill="none" stroke="#63b8ff" d="M132.19,-99.58C116.34,-104.18 98.9,-109.23 84.03,-113.55"/>
<polygon fill="#63b8ff" stroke="#63b8ff" points="132.77,-103.05 141.4,-96.91 130.82,-96.33 132.77,-103.05"/>
</a>
</g>
</g>
<!-- Node4 -->
<g id="Node000004" class="node">
<title>Node4</title>
<g id="a_Node000004"><a xlink:href="api_8cpp.html#a55a558025dd21137648e66f746bf1863" target="_top" xlink:title="Log error message.">
<polygon fill="white" stroke="#666666" points="86.88,-96 7.13,-96 7.13,-76 86.88,-76 86.88,-96"/>
<text xml:space="preserve" text-anchor="middle" x="47" y="-82.5" font-family="Helvetica,sans-Serif" font-size="10.00">duvc_log_error</text>
</a>
</g>
</g>
<!-- Node1&#45;&gt;Node4 -->
<g id="edge3_Node000001_Node000004" class="edge">
<title>Node1&#45;&gt;Node4</title>
<g id="a_edge3_Node000001_Node000004"><a xlink:title=" ">
<path fill="none" stroke="#63b8ff" d="M118.45,-86C107.83,-86 97.04,-86 87.2,-86"/>
<polygon fill="#63b8ff" stroke="#63b8ff" points="118.33,-89.5 128.33,-86 118.33,-82.5 118.33,-89.5"/>
</a>
</g>
</g>
<!-- Node5 -->
<g id="Node000005" class="node">
<title>Node5</title>
<g id="a_Node000005"><a xlink:href="api_8cpp.html#a69eb1c2eff849b8249b84ed3c7e820a1" target="_top" xlink:title="Log info message.">
<polygon fill="white" stroke="#666666" points="85,-58 9,-58 9,-38 85,-38 85,-58"/>
<text xml:space="preserve" text-anchor="middle" x="47" y="-44.5" font-family="Helvetica,sans-Serif" font-size="10.00">duvc_log_info</text>
</a>
</g>
</g>
<!-- Node1&#45;&gt;Node5 -->
<g id="edge4_Node000001_Node000005" class="edge">
<title>Node1&#45;&gt;Node5</title>
<g id="a_edge4_Node000001_Node000005"><a xlink:title=" ">
<path fill="none" stroke="#63b8ff" d="M132.19,-72.42C116.34,-67.82 98.9,-62.77 84.03,-58.45"/>
<polygon fill="#63b8ff" stroke="#63b8ff" points="130.82,-75.67 141.4,-75.09 132.77,-68.95 130.82,-75.67"/>
</a>
</g>
</g>
<!-- Node6 -->
<g id="Node000006" class="node">
<title>Node6</title>
<g id="a_Node000006"><a xlink:href="api_8cpp.html#ac25cfc7d64eaa972aabc2040a2be8c14" target="_top" xlink:title="Log warning message.">
<polygon fill="white" stroke="#666666" points="94,-20 0,-20 0,0 94,0 94,-20"/>
<text xml:space="preserve" text-anchor="middle" x="47" y="-6.5" font-family="Helvetica,sans-Serif" font-size="10.00">duvc_log_warning</text>
</a>
</g>
</g>
<!-- Node1&#45;&gt;Node6 -->
<g id="edge5_Node000001_Node000006" class="edge">
<title>Node1&#45;&gt;Node6</title>
<g id="a_edge5_Node000001_Node000006"><a xlink:title=" ">
<path fill="none" stroke="#63b8ff" d="M156.42,-69.05C139.72,-56.97 116.13,-40.84 94,-29 88.21,-25.9 81.8,-22.97 75.66,-20.38"/>
<polygon fill="#63b8ff" stroke="#63b8ff" points="154.04,-71.64 164.18,-74.74 158.18,-66 154.04,-71.64"/>
</a>
</g>
</g>
</g>
</svg>
