<?xml version="1.0" encoding="UTF-8" standalone="no"?>
<!DOCTYPE svg PUBLIC "-//W3C//DTD SVG 1.1//EN"
 "http://www.w3.org/Graphics/SVG/1.1/DTD/svg11.dtd">
<!-- Generated by graphviz version 14.0.2 (20251019.1705)
 -->
<!-- Title: duvc_initialize Pages: 1 -->
<svg width="669pt" height="85pt"
 viewBox="0.00 0.00 669.00 85.00" xmlns="http://www.w3.org/2000/svg" xmlns:xlink="http://www.w3.org/1999/xlink">
<g id="graph0" class="graph" transform="scale(1 1) rotate(0) translate(4 81)">
<title>duvc_initialize</title>
<!-- Node1 -->
<g id="Node000001" class="node">
<title>Node1</title>
<g id="a_Node000001"><a xlink:title="Initialize library.">
<polygon fill="#999999" stroke="#666666" points="77.5,-39 0,-39 0,-19 77.5,-19 77.5,-39"/>
<text xml:space="preserve" text-anchor="middle" x="38.75" y="-25.5" font-family="Helvetica,sans-Serif" font-size="10.00">duvc_initialize</text>
</a>
</g>
</g>
<!-- Node2 -->
<g id="Node000002" class="node">
<title>Node2</title>
<g id="a_Node000002"><a xlink:href="namespaceduvc.html#a03a6e81316de0517ea31cd6dcca560d4" target="_top" xlink:title="Log info message.">
<polygon fill="white" stroke="#666666" points="201.88,-58 125.12,-58 125.12,-38 201.88,-38 201.88,-58"/>
<text xml:space="preserve" text-anchor="middle" x="163.5" y="-44.5" font-family="Helvetica,sans-Serif" font-size="10.00">duvc::log_info</text>
</a>
</g>
</g>
<!-- Node1&#45;&gt;Node2 -->
<g id="edge1_Node000001_Node000002" class="edge">
<title>Node1&#45;&gt;Node2</title>
<g id="a_edge1_Node000001_Node000002"><a xlink:title=" ">
<path fill="none" stroke="#63b8ff" d="M77.92,-34.91C89.22,-36.66 101.76,-38.6 113.65,-40.44"/>
<polygon fill="#63b8ff" stroke="#63b8ff" points="112.87,-43.86 123.28,-41.93 113.94,-36.94 112.87,-43.86"/>
</a>
</g>
</g>
<!-- Node7 -->
<g id="Node000007" class="node">
<title>Node7</title>
<g id="a_Node000007"><a xlink:href="namespaceduvc.html#accb113d492197fac14a4ac8f9da0c53f" target="_top" xlink:title="Set minimum log level.">
<polygon fill="white" stroke="#666666" points="213.5,-20 113.5,-20 113.5,0 213.5,0 213.5,-20"/>
<text xml:space="preserve" text-anchor="middle" x="163.5" y="-6.5" font-family="Helvetica,sans-Serif" font-size="10.00">duvc::set_log_level</text>
</a>
</g>
</g>
<!-- Node1&#45;&gt;Node7 -->
<g id="edge6_Node000001_Node000007" class="edge">
<title>Node1&#45;&gt;Node7</title>
<g id="a_edge6_Node000001_Node000007"><a xlink:title=" ">
<path fill="none" stroke="#63b8ff" d="M77.92,-23.09C85.56,-21.91 93.77,-20.64 101.96,-19.37"/>
<polygon fill="#63b8ff" stroke="#63b8ff" points="102.21,-22.87 111.56,-17.88 101.14,-15.96 102.21,-22.87"/>
</a>
</g>
</g>
<!-- Node3 -->
<g id="Node000003" class="node">
<title>Node3</title>
<g id="a_Node000003"><a xlink:href="namespaceduvc.html#a92c11bbcc4c659a542bd48d477f60876" target="_top" xlink:title="Log a message.">
<polygon fill="white" stroke="#666666" points="350.25,-58 249.5,-58 249.5,-38 350.25,-38 350.25,-58"/>
<text xml:space="preserve" text-anchor="middle" x="299.88" y="-44.5" font-family="Helvetica,sans-Serif" font-size="10.00">duvc::log_message</text>
</a>
</g>
</g>
<!-- Node2&#45;&gt;Node3 -->
<g id="edge2_Node000002_Node000003" class="edge">
<title>Node2&#45;&gt;Node3</title>
<g id="a_edge2_Node000002_Node000003"><a xlink:title=" ">
<path fill="none" stroke="#63b8ff" d="M202.29,-48C213.35,-48 225.73,-48 237.84,-48"/>
<polygon fill="#63b8ff" stroke="#63b8ff" points="237.81,-51.5 247.81,-48 237.81,-44.5 237.81,-51.5"/>
</a>
</g>
</g>
<!-- Node4 -->
<g id="Node000004" class="node">
<title>Node4</title>
<g id="a_Node000004"><a xlink:href="namespaceduvc.html#ababd2cbe9f996df9fb02141b96f1a0da" target="_top" xlink:title="Default logging callback that writes to stderr.">
<polygon fill="white" stroke="#666666" points="517.75,-58 386.25,-58 386.25,-38 517.75,-38 517.75,-58"/>
<text xml:space="preserve" text-anchor="middle" x="452" y="-44.5" font-family="Helvetica,sans-Serif" font-size="10.00">duvc::default_log_callback</text>
</a>
</g>
</g>
<!-- Node3&#45;&gt;Node4 -->
<g id="edge3_Node000003_Node000004" class="edge">
<title>Node3&#45;&gt;Node4</title>
<g id="a_edge3_Node000003_Node000004"><a xlink:title=" ">
<path fill="none" stroke="#63b8ff" d="M350.45,-48C358.17,-48 366.3,-48 374.45,-48"/>
<polygon fill="#63b8ff" stroke="#63b8ff" points="374.44,-51.5 384.44,-48 374.44,-44.5 374.44,-51.5"/>
</a>
</g>
</g>
<!-- Node5 -->
<g id="Node000005" class="node">
<title>Node5</title>
<g id="a_Node000005"><a xlink:href="namespaceduvc.html#a621c452d402f42a3c34c68da6f2848f1" target="_top" xlink:title="Get current timestamp as string.">
<polygon fill="white" stroke="#666666" points="661.25,-77 553.75,-77 553.75,-57 661.25,-57 661.25,-77"/>
<text xml:space="preserve" text-anchor="middle" x="607.5" y="-63.5" font-family="Helvetica,sans-Serif" font-size="10.00">duvc::get_timestamp</text>
</a>
</g>
</g>
<!-- Node4&#45;&gt;Node5 -->
<g id="edge4_Node000004_Node000005" class="edge">
<title>Node4&#45;&gt;Node5</title>
<g id="a_edge4_Node000004_Node000005"><a xlink:title=" ">
<path fill="none" stroke="#63b8ff" d="M518.1,-56.06C526,-57.04 534.08,-58.04 541.98,-59.01"/>
<polygon fill="#63b8ff" stroke="#63b8ff" points="541.52,-62.48 551.88,-60.24 542.38,-55.54 541.52,-62.48"/>
</a>
</g>
</g>
<!-- Node6 -->
<g id="Node000006" class="node">
<title>Node6</title>
<g id="a_Node000006"><a xlink:href="namespaceduvc.html#a8556fd02a649101843e7712e638cc0cb" target="_top" xlink:title="Convert camera property enum to string.">
<polygon fill="white" stroke="#666666" points="647.75,-39 567.25,-39 567.25,-19 647.75,-19 647.75,-39"/>
<text xml:space="preserve" text-anchor="middle" x="607.5" y="-25.5" font-family="Helvetica,sans-Serif" font-size="10.00">duvc::to_string</text>
</a>
</g>
</g>
<!-- Node4&#45;&gt;Node6 -->
<g id="edge5_Node000004_Node000006" class="edge">
<title>Node4&#45;&gt;Node6</title>
<g id="a_edge5_Node000004_Node000006"><a xlink:title=" ">
<path fill="none" stroke="#63b8ff" d="M518.1,-39.94C530.73,-38.38 543.79,-36.76 555.88,-35.27"/>
<polygon fill="#63b8ff" stroke="#63b8ff" points="556.12,-38.76 565.61,-34.06 555.26,-31.82 556.12,-38.76"/>
</a>
</g>
</g>
</g>
</svg>
