<?xml version="1.0" encoding="UTF-8" standalone="no"?>
<!DOCTYPE svg PUBLIC "-//W3C//DTD SVG 1.1//EN"
 "http://www.w3.org/Graphics/SVG/1.1/DTD/svg11.dtd">
<!-- Generated by graphviz version 14.0.2 (20251019.1705)
 -->
<!-- Title: duvc_is_device_connected Pages: 1 -->
<svg width="772pt" height="218pt"
 viewBox="0.00 0.00 772.00 218.00" xmlns="http://www.w3.org/2000/svg" xmlns:xlink="http://www.w3.org/1999/xlink">
<g id="graph0" class="graph" transform="scale(1 1) rotate(0) translate(4 214)">
<title>duvc_is_device_connected</title>
<!-- Node1 -->
<g id="Node000001" class="node">
<title>Node1</title>
<g id="a_Node000001"><a xlink:title="Check if device is connected.">
<polygon fill="#999999" stroke="#666666" points="133.75,-115 0,-115 0,-95 133.75,-95 133.75,-115"/>
<text xml:space="preserve" text-anchor="middle" x="66.88" y="-101.5" font-family="Helvetica,sans-Serif" font-size="10.00">duvc_is_device_connected</text>
</a>
</g>
</g>
<!-- Node2 -->
<g id="Node000002" class="node">
<title>Node2</title>
<g id="a_Node000002"><a xlink:href="namespaceduvc.html#ab42651167ff39abe9e70713ac6db65b9" target="_top" xlink:title="Check if a device is currently connected and accessible.">
<polygon fill="white" stroke="#666666" points="304.25,-115 169.75,-115 169.75,-95 304.25,-95 304.25,-115"/>
<text xml:space="preserve" text-anchor="middle" x="237" y="-101.5" font-family="Helvetica,sans-Serif" font-size="10.00">duvc::is_device_connected</text>
</a>
</g>
</g>
<!-- Node1&#45;&gt;Node2 -->
<g id="edge1_Node000001_Node000002" class="edge">
<title>Node1&#45;&gt;Node2</title>
<g id="a_edge1_Node000001_Node000002"><a xlink:title=" ">
<path fill="none" stroke="#63b8ff" d="M133.84,-105C141.78,-105 149.95,-105 158.04,-105"/>
<polygon fill="#63b8ff" stroke="#63b8ff" points="157.88,-108.5 167.88,-105 157.88,-101.5 157.88,-108.5"/>
</a>
</g>
</g>
<!-- Node3 -->
<g id="Node000003" class="node">
<title>Node3</title>
<g id="a_Node000003"><a xlink:href="namespaceduvc.html#ab7299b8597bf14b18b8351278c209188" target="_top" xlink:title="Create DirectShow device enumerator.">
<polygon fill="white" stroke="#666666" points="473.25,-210 353,-210 353,-190 473.25,-190 473.25,-210"/>
<text xml:space="preserve" text-anchor="middle" x="413.12" y="-196.5" font-family="Helvetica,sans-Serif" font-size="10.00">duvc::create_dev_enum</text>
</a>
</g>
</g>
<!-- Node2&#45;&gt;Node3 -->
<g id="edge2_Node000002_Node000003" class="edge">
<title>Node2&#45;&gt;Node3</title>
<g id="a_edge2_Node000002_Node000003"><a xlink:title=" ">
<path fill="none" stroke="#63b8ff" d="M249.01,-115.46C266.8,-131.81 303.58,-163.34 340.25,-181 343.96,-182.79 347.85,-184.42 351.84,-185.92"/>
<polygon fill="#63b8ff" stroke="#63b8ff" points="350.49,-189.15 361.08,-189.06 352.74,-182.53 350.49,-189.15"/>
</a>
</g>
</g>
<!-- Node6 -->
<g id="Node000006" class="node">
<title>Node6</title>
<g id="a_Node000006"><a xlink:href="namespaceduvc.html#a1a577c6cd7e4b3106d6f95c15bbceeed" target="_top" xlink:title="Enumerate video input devices.">
<polygon fill="white" stroke="#666666" points="480.38,-172 345.88,-172 345.88,-152 480.38,-152 480.38,-172"/>
<text xml:space="preserve" text-anchor="middle" x="413.12" y="-158.5" font-family="Helvetica,sans-Serif" font-size="10.00">duvc::enum_video_devices</text>
</a>
</g>
</g>
<!-- Node2&#45;&gt;Node6 -->
<g id="edge5_Node000002_Node000006" class="edge">
<title>Node2&#45;&gt;Node6</title>
<g id="a_edge5_Node000002_Node000006"><a xlink:title=" ">
<path fill="none" stroke="#63b8ff" d="M263.81,-115.39C284.34,-123.46 313.89,-134.64 340.25,-143 346.32,-144.92 352.72,-146.81 359.09,-148.61"/>
<polygon fill="#63b8ff" stroke="#63b8ff" points="357.71,-151.86 368.28,-151.13 359.56,-145.11 357.71,-151.86"/>
</a>
</g>
</g>
<!-- Node7 -->
<g id="Node000007" class="node">
<title>Node7</title>
<g id="a_Node000007"><a xlink:href="namespaceduvc.html#aa743fc7771811366fbd7b192b4f4d5d5" target="_top" xlink:title=" ">
<polygon fill="white" stroke="#666666" points="486,-134 340.25,-134 340.25,-114 486,-114 486,-134"/>
<text xml:space="preserve" text-anchor="middle" x="413.12" y="-120.5" font-family="Helvetica,sans-Serif" font-size="10.00">duvc::get_cached_connection</text>
</a>
</g>
</g>
<!-- Node2&#45;&gt;Node7 -->
<g id="edge7_Node000002_Node000007" class="edge">
<title>Node2&#45;&gt;Node7</title>
<g id="a_edge7_Node000002_Node000007"><a xlink:title=" ">
<path fill="none" stroke="#63b8ff" d="M304.33,-112.24C312.23,-113.1 320.38,-113.99 328.48,-114.87"/>
<polygon fill="#63b8ff" stroke="#63b8ff" points="328.06,-118.35 338.38,-115.95 328.82,-111.39 328.06,-118.35"/>
</a>
</g>
</g>
<!-- Node8 -->
<g id="Node000008" class="node">
<title>Node8</title>
<g id="a_Node000008"><a xlink:href="namespaceduvc.html#a16607a28a7df86e823edf3abd371af92" target="_top" xlink:title="Check if two device identifiers refer to same device.">
<polygon fill="white" stroke="#666666" points="469.88,-96 356.38,-96 356.38,-76 469.88,-76 469.88,-96"/>
<text xml:space="preserve" text-anchor="middle" x="413.12" y="-82.5" font-family="Helvetica,sans-Serif" font-size="10.00">duvc::is_same_device</text>
</a>
</g>
</g>
<!-- Node2&#45;&gt;Node8 -->
<g id="edge8_Node000002_Node000008" class="edge">
<title>Node2&#45;&gt;Node8</title>
<g id="a_edge8_Node000002_Node000008"><a xlink:title=" ">
<path fill="none" stroke="#63b8ff" d="M304.33,-97.76C317.48,-96.33 331.31,-94.82 344.51,-93.38"/>
<polygon fill="#63b8ff" stroke="#63b8ff" points="344.85,-96.86 354.41,-92.3 344.09,-89.9 344.85,-96.86"/>
</a>
</g>
</g>
<!-- Node9 -->
<g id="Node000009" class="node">
<title>Node9</title>
<g id="a_Node000009"><a xlink:href="namespaceduvc.html#a2c2b6f32c6871ad36ae0bf98d9374fd0" target="_top" xlink:title="Read device path from moniker.">
<polygon fill="white" stroke="#666666" points="472.88,-58 353.38,-58 353.38,-38 472.88,-38 472.88,-58"/>
<text xml:space="preserve" text-anchor="middle" x="413.12" y="-44.5" font-family="Helvetica,sans-Serif" font-size="10.00">duvc::read_device_path</text>
</a>
</g>
</g>
<!-- Node2&#45;&gt;Node9 -->
<g id="edge9_Node000002_Node000009" class="edge">
<title>Node2&#45;&gt;Node9</title>
<g id="a_edge9_Node000002_Node000009"><a xlink:title=" ">
<path fill="none" stroke="#63b8ff" d="M263.81,-94.61C284.34,-86.54 313.89,-75.36 340.25,-67 346.32,-65.08 352.72,-63.19 359.09,-61.39"/>
<polygon fill="#63b8ff" stroke="#63b8ff" points="359.56,-64.89 368.28,-58.87 357.71,-58.14 359.56,-64.89"/>
</a>
</g>
</g>
<!-- Node11 -->
<g id="Node000011" class="node">
<title>Node11</title>
<g id="a_Node000011"><a xlink:href="namespaceduvc.html#a019644436e5f0add38b6242843b79fef" target="_top" xlink:title="Read friendly name from device moniker.">
<polygon fill="white" stroke="#666666" points="477,-20 349.25,-20 349.25,0 477,0 477,-20"/>
<text xml:space="preserve" text-anchor="middle" x="413.12" y="-6.5" font-family="Helvetica,sans-Serif" font-size="10.00">duvc::read_friendly_name</text>
</a>
</g>
</g>
<!-- Node2&#45;&gt;Node11 -->
<g id="edge11_Node000002_Node000011" class="edge">
<title>Node2&#45;&gt;Node11</title>
<g id="a_edge11_Node000002_Node000011"><a xlink:title=" ">
<path fill="none" stroke="#63b8ff" d="M249.01,-94.54C266.8,-78.19 303.58,-46.66 340.25,-29 343.96,-27.21 347.85,-25.58 351.84,-24.08"/>
<polygon fill="#63b8ff" stroke="#63b8ff" points="352.74,-27.47 361.08,-20.94 350.49,-20.85 352.74,-27.47"/>
</a>
</g>
</g>
<!-- Node4 -->
<g id="Node000004" class="node">
<title>Node4</title>
<g id="a_Node000004"><a xlink:href="namespaceduvc.html#a21b444574354018097d4489a9ff0ff9e" target="_top" xlink:title=" ">
<polygon fill="white" stroke="#666666" points="616,-191 535.5,-191 535.5,-171 616,-171 616,-191"/>
<text xml:space="preserve" text-anchor="middle" x="575.75" y="-177.5" font-family="Helvetica,sans-Serif" font-size="10.00">duvc::throw_hr</text>
</a>
</g>
</g>
<!-- Node3&#45;&gt;Node4 -->
<g id="edge3_Node000003_Node000004" class="edge">
<title>Node3&#45;&gt;Node4</title>
<g id="a_edge3_Node000003_Node000004"><a xlink:title=" ">
<path fill="none" stroke="#63b8ff" d="M473.48,-192.98C490.02,-191.02 507.83,-188.92 523.84,-187.02"/>
<polygon fill="#63b8ff" stroke="#63b8ff" points="524.11,-190.51 533.63,-185.86 523.29,-183.56 524.11,-190.51"/>
</a>
</g>
</g>
<!-- Node5 -->
<g id="Node000005" class="node">
<title>Node5</title>
<g id="a_Node000005"><a xlink:href="namespaceduvc.html#a02d5c5b2e56515cee2cad9057af0467d" target="_top" xlink:title=" ">
<polygon fill="white" stroke="#666666" points="764,-191 665.5,-191 665.5,-171 764,-171 764,-191"/>
<text xml:space="preserve" text-anchor="middle" x="714.75" y="-177.5" font-family="Helvetica,sans-Serif" font-size="10.00">duvc::wide_to_utf8</text>
</a>
</g>
</g>
<!-- Node4&#45;&gt;Node5 -->
<g id="edge4_Node000004_Node000005" class="edge">
<title>Node4&#45;&gt;Node5</title>
<g id="a_edge4_Node000004_Node000005"><a xlink:title=" ">
<path fill="none" stroke="#63b8ff" d="M616.38,-181C628.11,-181 641.24,-181 653.95,-181"/>
<polygon fill="#63b8ff" stroke="#63b8ff" points="653.95,-184.5 663.95,-181 653.95,-177.5 653.95,-184.5"/>
</a>
</g>
</g>
<!-- Node6&#45;&gt;Node4 -->
<g id="edge6_Node000006_Node000004" class="edge">
<title>Node6&#45;&gt;Node4</title>
<g id="a_edge6_Node000006_Node000004"><a xlink:title=" ">
<path fill="none" stroke="#63b8ff" d="M480.85,-169.89C495.26,-171.6 510.27,-173.37 523.96,-174.99"/>
<polygon fill="#63b8ff" stroke="#63b8ff" points="523.25,-178.43 533.59,-176.13 524.07,-171.48 523.25,-178.43"/>
</a>
</g>
</g>
<!-- Node10 -->
<g id="Node000010" class="node">
<title>Node10</title>
<g id="a_Node000010"><a xlink:href="namespaceduvc.html#a0dbd37821c1cae29fa72d44e3dbd0583" target="_top" xlink:title=" ">
<polygon fill="white" stroke="#666666" points="629.5,-39 522,-39 522,-19 629.5,-19 629.5,-39"/>
<text xml:space="preserve" text-anchor="middle" x="575.75" y="-25.5" font-family="Helvetica,sans-Serif" font-size="10.00">duvc::read_prop_bstr</text>
</a>
</g>
</g>
<!-- Node9&#45;&gt;Node10 -->
<g id="edge10_Node000009_Node000010" class="edge">
<title>Node9&#45;&gt;Node10</title>
<g id="a_edge10_Node000009_Node000010"><a xlink:title=" ">
<path fill="none" stroke="#63b8ff" d="M473.02,-41.03C485.23,-39.59 498.14,-38.06 510.52,-36.6"/>
<polygon fill="#63b8ff" stroke="#63b8ff" points="510.68,-40.1 520.2,-35.45 509.86,-33.15 510.68,-40.1"/>
</a>
</g>
</g>
<!-- Node11&#45;&gt;Node10 -->
<g id="edge12_Node000011_Node000010" class="edge">
<title>Node11&#45;&gt;Node10</title>
<g id="a_edge12_Node000011_Node000010"><a xlink:title=" ">
<path fill="none" stroke="#63b8ff" d="M477.15,-17.45C488.04,-18.74 499.38,-20.08 510.31,-21.38"/>
<polygon fill="#63b8ff" stroke="#63b8ff" points="509.67,-24.83 520.01,-22.53 510.5,-17.87 509.67,-24.83"/>
</a>
</g>
</g>
</g>
</svg>
