<?xml version="1.0" encoding="UTF-8" standalone="no"?>
<!DOCTYPE svg PUBLIC "-//W3C//DTD SVG 1.1//EN"
 "http://www.w3.org/Graphics/SVG/1.1/DTD/svg11.dtd">
<!-- Generated by graphviz version 14.0.2 (20251019.1705)
 -->
<!-- Title: duvc_log_error Pages: 1 -->
<svg width="672pt" height="66pt"
 viewBox="0.00 0.00 672.00 66.00" xmlns="http://www.w3.org/2000/svg" xmlns:xlink="http://www.w3.org/1999/xlink">
<g id="graph0" class="graph" transform="scale(1 1) rotate(0) translate(4 62)">
<title>duvc_log_error</title>
<!-- Node1 -->
<g id="Node000001" class="node">
<title>Node1</title>
<g id="a_Node000001"><a xlink:title="Log error message.">
<polygon fill="#999999" stroke="#666666" points="79.75,-39 0,-39 0,-19 79.75,-19 79.75,-39"/>
<text xml:space="preserve" text-anchor="middle" x="39.88" y="-25.5" font-family="Helvetica,sans-Serif" font-size="10.00">duvc_log_error</text>
</a>
</g>
</g>
<!-- Node2 -->
<g id="Node000002" class="node">
<title>Node2</title>
<g id="a_Node000002"><a xlink:href="api_8cpp.html#a663fa0c39548b58bcdeb34c0dd5210fa" target="_top" xlink:title="Log message at specific level.">
<polygon fill="white" stroke="#666666" points="215.75,-39 115.75,-39 115.75,-19 215.75,-19 215.75,-39"/>
<text xml:space="preserve" text-anchor="middle" x="165.75" y="-25.5" font-family="Helvetica,sans-Serif" font-size="10.00">duvc_log_message</text>
</a>
</g>
</g>
<!-- Node1&#45;&gt;Node2 -->
<g id="edge1_Node000001_Node000002" class="edge">
<title>Node1&#45;&gt;Node2</title>
<g id="a_edge1_Node000001_Node000002"><a xlink:title=" ">
<path fill="none" stroke="#63b8ff" d="M80.07,-29C87.68,-29 95.83,-29 103.94,-29"/>
<polygon fill="#63b8ff" stroke="#63b8ff" points="103.83,-32.5 113.83,-29 103.83,-25.5 103.83,-32.5"/>
</a>
</g>
</g>
<!-- Node3 -->
<g id="Node000003" class="node">
<title>Node3</title>
<g id="a_Node000003"><a xlink:href="namespaceduvc.html#a92c11bbcc4c659a542bd48d477f60876" target="_top" xlink:title="Log a message.">
<polygon fill="white" stroke="#666666" points="352.5,-39 251.75,-39 251.75,-19 352.5,-19 352.5,-39"/>
<text xml:space="preserve" text-anchor="middle" x="302.12" y="-25.5" font-family="Helvetica,sans-Serif" font-size="10.00">duvc::log_message</text>
</a>
</g>
</g>
<!-- Node2&#45;&gt;Node3 -->
<g id="edge2_Node000002_Node000003" class="edge">
<title>Node2&#45;&gt;Node3</title>
<g id="a_edge2_Node000002_Node000003"><a xlink:title=" ">
<path fill="none" stroke="#63b8ff" d="M216.02,-29C223.86,-29 232.05,-29 240.13,-29"/>
<polygon fill="#63b8ff" stroke="#63b8ff" points="239.89,-32.5 249.89,-29 239.89,-25.5 239.89,-32.5"/>
</a>
</g>
</g>
<!-- Node4 -->
<g id="Node000004" class="node">
<title>Node4</title>
<g id="a_Node000004"><a xlink:href="namespaceduvc.html#ababd2cbe9f996df9fb02141b96f1a0da" target="_top" xlink:title="Default logging callback that writes to stderr.">
<polygon fill="white" stroke="#666666" points="520,-39 388.5,-39 388.5,-19 520,-19 520,-39"/>
<text xml:space="preserve" text-anchor="middle" x="454.25" y="-25.5" font-family="Helvetica,sans-Serif" font-size="10.00">duvc::default_log_callback</text>
</a>
</g>
</g>
<!-- Node3&#45;&gt;Node4 -->
<g id="edge3_Node000003_Node000004" class="edge">
<title>Node3&#45;&gt;Node4</title>
<g id="a_edge3_Node000003_Node000004"><a xlink:title=" ">
<path fill="none" stroke="#63b8ff" d="M352.7,-29C360.42,-29 368.55,-29 376.7,-29"/>
<polygon fill="#63b8ff" stroke="#63b8ff" points="376.69,-32.5 386.69,-29 376.69,-25.5 376.69,-32.5"/>
</a>
</g>
</g>
<!-- Node5 -->
<g id="Node000005" class="node">
<title>Node5</title>
<g id="a_Node000005"><a xlink:href="namespaceduvc.html#a621c452d402f42a3c34c68da6f2848f1" target="_top" xlink:title="Get current timestamp as string.">
<polygon fill="white" stroke="#666666" points="663.5,-58 556,-58 556,-38 663.5,-38 663.5,-58"/>
<text xml:space="preserve" text-anchor="middle" x="609.75" y="-44.5" font-family="Helvetica,sans-Serif" font-size="10.00">duvc::get_timestamp</text>
</a>
</g>
</g>
<!-- Node4&#45;&gt;Node5 -->
<g id="edge4_Node000004_Node000005" class="edge">
<title>Node4&#45;&gt;Node5</title>
<g id="a_edge4_Node000004_Node000005"><a xlink:title=" ">
<path fill="none" stroke="#63b8ff" d="M520.35,-37.06C528.25,-38.04 536.33,-39.04 544.23,-40.01"/>
<polygon fill="#63b8ff" stroke="#63b8ff" points="543.77,-43.48 554.13,-41.24 544.63,-36.54 543.77,-43.48"/>
</a>
</g>
</g>
<!-- Node6 -->
<g id="Node000006" class="node">
<title>Node6</title>
<g id="a_Node000006"><a xlink:href="namespaceduvc.html#a8556fd02a649101843e7712e638cc0cb" target="_top" xlink:title="Convert camera property enum to string.">
<polygon fill="white" stroke="#666666" points="650,-20 569.5,-20 569.5,0 650,0 650,-20"/>
<text xml:space="preserve" text-anchor="middle" x="609.75" y="-6.5" font-family="Helvetica,sans-Serif" font-size="10.00">duvc::to_string</text>
</a>
</g>
</g>
<!-- Node4&#45;&gt;Node6 -->
<g id="edge5_Node000004_Node000006" class="edge">
<title>Node4&#45;&gt;Node6</title>
<g id="a_edge5_Node000004_Node000006"><a xlink:title=" ">
<path fill="none" stroke="#63b8ff" d="M520.35,-20.94C532.98,-19.38 546.04,-17.76 558.13,-16.27"/>
<polygon fill="#63b8ff" stroke="#63b8ff" points="558.37,-19.76 567.86,-15.06 557.51,-12.82 558.37,-19.76"/>
</a>
</g>
</g>
</g>
</svg>
