<?xml version="1.0" encoding="UTF-8" standalone="no"?>
<!DOCTYPE svg PUBLIC "-//W3C//DTD SVG 1.1//EN"
 "http://www.w3.org/Graphics/SVG/1.1/DTD/svg11.dtd">
<!-- Generated by graphviz version 14.0.2 (20251019.1705)
 -->
<!-- Title: duvc_register_device_change_callback Pages: 1 -->
<svg width="411pt" height="78pt"
 viewBox="0.00 0.00 411.00 78.00" xmlns="http://www.w3.org/2000/svg" xmlns:xlink="http://www.w3.org/1999/xlink">
<g id="graph0" class="graph" transform="scale(1 1) rotate(0) translate(4 74)">
<title>duvc_register_device_change_callback</title>
<!-- Node1 -->
<g id="Node000001" class="node">
<title>Node1</title>
<g id="a_Node000001"><a xlink:title="Register device change callback.">
<polygon fill="#999999" stroke="#666666" points="108.25,-48 0,-48 0,-16 108.25,-16 108.25,-48"/>
<text xml:space="preserve" text-anchor="start" x="8" y="-34.5" font-family="Helvetica,sans-Serif" font-size="10.00">duvc_register_device</text>
<text xml:space="preserve" text-anchor="middle" x="54.12" y="-22.5" font-family="Helvetica,sans-Serif" font-size="10.00">_change_callback</text>
</a>
</g>
</g>
<!-- Node2 -->
<g id="Node000002" class="node">
<title>Node2</title>
<g id="a_Node000002"><a xlink:href="namespaceduvc.html#abbb674b206dc193c2a1b127cb413a12f" target="_top" xlink:title="Register callback for device hotplug events.">
<polygon fill="white" stroke="#666666" points="253.25,-70 144.25,-70 144.25,-38 253.25,-38 253.25,-70"/>
<text xml:space="preserve" text-anchor="start" x="152.25" y="-56.5" font-family="Helvetica,sans-Serif" font-size="10.00">duvc::register_device</text>
<text xml:space="preserve" text-anchor="middle" x="198.75" y="-44.5" font-family="Helvetica,sans-Serif" font-size="10.00">_change_callback</text>
</a>
</g>
</g>
<!-- Node1&#45;&gt;Node2 -->
<g id="edge1_Node000001_Node000002" class="edge">
<title>Node1&#45;&gt;Node2</title>
<g id="a_edge1_Node000001_Node000002"><a xlink:title=" ">
<path fill="none" stroke="#63b8ff" d="M108.64,-40.25C116.48,-41.46 124.63,-42.72 132.68,-43.96"/>
<polygon fill="#63b8ff" stroke="#63b8ff" points="132.02,-47.4 142.44,-45.47 133.09,-40.48 132.02,-47.4"/>
</a>
</g>
</g>
<!-- Node4 -->
<g id="Node000004" class="node">
<title>Node4</title>
<g id="a_Node000004"><a xlink:href="namespaceduvc.html#a893217cfa052ca2e94f0419bc0453069" target="_top" xlink:title="Converts a wide string (UTF&#45;16 on Windows) to a UTF&#45;8 string.">
<polygon fill="white" stroke="#666666" points="235.25,-20 162.25,-20 162.25,0 235.25,0 235.25,-20"/>
<text xml:space="preserve" text-anchor="middle" x="198.75" y="-6.5" font-family="Helvetica,sans-Serif" font-size="10.00">duvc::to_utf8</text>
</a>
</g>
</g>
<!-- Node1&#45;&gt;Node4 -->
<g id="edge3_Node000001_Node000004" class="edge">
<title>Node1&#45;&gt;Node4</title>
<g id="a_edge3_Node000001_Node000004"><a xlink:title=" ">
<path fill="none" stroke="#63b8ff" d="M108.64,-23.75C122.6,-21.59 137.52,-19.29 151.09,-17.2"/>
<polygon fill="#63b8ff" stroke="#63b8ff" points="151.28,-20.71 160.62,-15.73 150.21,-13.79 151.28,-20.71"/>
</a>
</g>
</g>
<!-- Node3 -->
<g id="Node000003" class="node">
<title>Node3</title>
<g id="a_Node000003"><a xlink:href="namespaceduvc.html#a5fffda65c52b1e7f1b231050eaa844dc" target="_top" xlink:title=" ">
<polygon fill="white" stroke="#666666" points="402.75,-64 289.25,-64 289.25,-44 402.75,-44 402.75,-64"/>
<text xml:space="preserve" text-anchor="middle" x="346" y="-50.5" font-family="Helvetica,sans-Serif" font-size="10.00">duvc::device_wndproc</text>
</a>
</g>
</g>
<!-- Node2&#45;&gt;Node3 -->
<g id="edge2_Node000002_Node000003" class="edge">
<title>Node2&#45;&gt;Node3</title>
<g id="a_edge2_Node000002_Node000003"><a xlink:title=" ">
<path fill="none" stroke="#63b8ff" d="M253.42,-54C261.33,-54 269.56,-54 277.71,-54"/>
<polygon fill="#63b8ff" stroke="#63b8ff" points="277.6,-57.5 287.6,-54 277.6,-50.5 277.6,-57.5"/>
</a>
</g>
</g>
</g>
</svg>
