<?xml version="1.0" encoding="UTF-8" standalone="no"?>
<!DOCTYPE svg PUBLIC "-//W3C//DTD SVG 1.1//EN"
 "http://www.w3.org/Graphics/SVG/1.1/DTD/svg11.dtd">
<!-- Generated by graphviz version 14.0.2 (20251019.1705)
 -->
<!-- Title: duvc_quick_get_video_property_range Pages: 1 -->
<svg width="838pt" height="142pt"
 viewBox="0.00 0.00 838.00 142.00" xmlns="http://www.w3.org/2000/svg" xmlns:xlink="http://www.w3.org/1999/xlink">
<g id="graph0" class="graph" transform="scale(1 1) rotate(0) translate(4 138)">
<title>duvc_quick_get_video_property_range</title>
<!-- Node1 -->
<g id="Node000001" class="node">
<title>Node1</title>
<g id="a_Node000001"><a xlink:title="Quick get video property range.">
<polygon fill="#999999" stroke="#666666" points="112.75,-83 0,-83 0,-51 112.75,-51 112.75,-83"/>
<text xml:space="preserve" text-anchor="start" x="8" y="-69.5" font-family="Helvetica,sans-Serif" font-size="10.00">duvc_quick_get_video</text>
<text xml:space="preserve" text-anchor="middle" x="56.38" y="-57.5" font-family="Helvetica,sans-Serif" font-size="10.00">_property_range</text>
</a>
</g>
</g>
<!-- Node2 -->
<g id="Node000002" class="node">
<title>Node2</title>
<g id="a_Node000002"><a xlink:href="namespaceduvc.html#ac682048b44b6b2ee33d99dd460c24f25" target="_top" xlink:title="Create camera from device index.">
<polygon fill="white" stroke="#666666" points="250.25,-77 148.75,-77 148.75,-57 250.25,-57 250.25,-77"/>
<text xml:space="preserve" text-anchor="middle" x="199.5" y="-63.5" font-family="Helvetica,sans-Serif" font-size="10.00">duvc::open_camera</text>
</a>
</g>
</g>
<!-- Node1&#45;&gt;Node2 -->
<g id="edge1_Node000001_Node000002" class="edge">
<title>Node1&#45;&gt;Node2</title>
<g id="a_edge1_Node000001_Node000002"><a xlink:title=" ">
<path fill="none" stroke="#63b8ff" d="M113.15,-67C121.02,-67 129.14,-67 137.11,-67"/>
<polygon fill="#63b8ff" stroke="#63b8ff" points="137.11,-70.5 147.11,-67 137.11,-63.5 137.11,-70.5"/>
</a>
</g>
</g>
<!-- Node2&#45;&gt;Node2 -->
<g id="edge12_Node000002_Node000002" class="edge">
<title>Node2&#45;&gt;Node2</title>
<g id="a_edge12_Node000002_Node000002"><a xlink:title=" ">
<path fill="none" stroke="#63b8ff" d="M178.19,-77.34C169.08,-85.98 176.19,-95 199.5,-95 212.25,-95 220.15,-92.3 223.21,-88.44"/>
<polygon fill="#63b8ff" stroke="#63b8ff" points="226.66,-87.86 221.13,-78.82 219.82,-89.33 226.66,-87.86"/>
</a>
</g>
</g>
<!-- Node3 -->
<g id="Node000003" class="node">
<title>Node3</title>
<g id="a_Node000003"><a xlink:href="namespaceduvc.html#a2c254074ce671320e3e57c56a9389ac1" target="_top" xlink:title="Enumerate all available video input devices.">
<polygon fill="white" stroke="#666666" points="381,-77 286.25,-77 286.25,-57 381,-57 381,-77"/>
<text xml:space="preserve" text-anchor="middle" x="333.62" y="-63.5" font-family="Helvetica,sans-Serif" font-size="10.00">duvc::list_devices</text>
</a>
</g>
</g>
<!-- Node2&#45;&gt;Node3 -->
<g id="edge2_Node000002_Node000003" class="edge">
<title>Node2&#45;&gt;Node3</title>
<g id="a_edge2_Node000002_Node000003"><a xlink:title=" ">
<path fill="none" stroke="#63b8ff" d="M250.45,-67C258.4,-67 266.68,-67 274.79,-67"/>
<polygon fill="#63b8ff" stroke="#63b8ff" points="274.58,-70.5 284.58,-67 274.58,-63.5 274.58,-70.5"/>
</a>
</g>
</g>
<!-- Node4 -->
<g id="Node000004" class="node">
<title>Node4</title>
<g id="a_Node000004"><a xlink:href="namespaceduvc.html#ab7299b8597bf14b18b8351278c209188" target="_top" xlink:title="Create DirectShow device enumerator.">
<polygon fill="white" stroke="#666666" points="544.38,-134 424.12,-134 424.12,-114 544.38,-114 544.38,-134"/>
<text xml:space="preserve" text-anchor="middle" x="484.25" y="-120.5" font-family="Helvetica,sans-Serif" font-size="10.00">duvc::create_dev_enum</text>
</a>
</g>
</g>
<!-- Node3&#45;&gt;Node4 -->
<g id="edge3_Node000003_Node000004" class="edge">
<title>Node3&#45;&gt;Node4</title>
<g id="a_edge3_Node000003_Node000004"><a xlink:title=" ">
<path fill="none" stroke="#63b8ff" d="M354.91,-77.41C371.36,-85.6 395.3,-96.94 417,-105 421.93,-106.83 427.12,-108.59 432.33,-110.26"/>
<polygon fill="#63b8ff" stroke="#63b8ff" points="430.96,-113.5 441.54,-113.08 433.01,-106.8 430.96,-113.5"/>
</a>
</g>
</g>
<!-- Node7 -->
<g id="Node000007" class="node">
<title>Node7</title>
<g id="a_Node000007"><a xlink:href="namespaceduvc.html#a1a577c6cd7e4b3106d6f95c15bbceeed" target="_top" xlink:title="Enumerate video input devices.">
<polygon fill="white" stroke="#666666" points="551.5,-96 417,-96 417,-76 551.5,-76 551.5,-96"/>
<text xml:space="preserve" text-anchor="middle" x="484.25" y="-82.5" font-family="Helvetica,sans-Serif" font-size="10.00">duvc::enum_video_devices</text>
</a>
</g>
</g>
<!-- Node3&#45;&gt;Node7 -->
<g id="edge6_Node000003_Node000007" class="edge">
<title>Node3&#45;&gt;Node7</title>
<g id="a_edge6_Node000003_Node000007"><a xlink:title=" ">
<path fill="none" stroke="#63b8ff" d="M381.24,-72.96C388.97,-73.95 397.16,-74.99 405.41,-76.05"/>
<polygon fill="#63b8ff" stroke="#63b8ff" points="404.79,-79.5 415.16,-77.29 405.68,-72.56 404.79,-79.5"/>
</a>
</g>
</g>
<!-- Node8 -->
<g id="Node000008" class="node">
<title>Node8</title>
<g id="a_Node000008"><a xlink:href="namespaceduvc.html#a2c2b6f32c6871ad36ae0bf98d9374fd0" target="_top" xlink:title="Read device path from moniker.">
<polygon fill="white" stroke="#666666" points="544,-58 424.5,-58 424.5,-38 544,-38 544,-58"/>
<text xml:space="preserve" text-anchor="middle" x="484.25" y="-44.5" font-family="Helvetica,sans-Serif" font-size="10.00">duvc::read_device_path</text>
</a>
</g>
</g>
<!-- Node3&#45;&gt;Node8 -->
<g id="edge8_Node000003_Node000008" class="edge">
<title>Node3&#45;&gt;Node8</title>
<g id="a_edge8_Node000003_Node000008"><a xlink:title=" ">
<path fill="none" stroke="#63b8ff" d="M381.24,-61.04C391.35,-59.75 402.26,-58.35 413.05,-56.97"/>
<polygon fill="#63b8ff" stroke="#63b8ff" points="413.24,-60.48 422.71,-55.74 412.35,-53.54 413.24,-60.48"/>
</a>
</g>
</g>
<!-- Node10 -->
<g id="Node000010" class="node">
<title>Node10</title>
<g id="a_Node000010"><a xlink:href="namespaceduvc.html#a019644436e5f0add38b6242843b79fef" target="_top" xlink:title="Read friendly name from device moniker.">
<polygon fill="white" stroke="#666666" points="548.12,-20 420.38,-20 420.38,0 548.12,0 548.12,-20"/>
<text xml:space="preserve" text-anchor="middle" x="484.25" y="-6.5" font-family="Helvetica,sans-Serif" font-size="10.00">duvc::read_friendly_name</text>
</a>
</g>
</g>
<!-- Node3&#45;&gt;Node10 -->
<g id="edge10_Node000003_Node000010" class="edge">
<title>Node3&#45;&gt;Node10</title>
<g id="a_edge10_Node000003_Node000010"><a xlink:title=" ">
<path fill="none" stroke="#63b8ff" d="M354.91,-56.59C371.36,-48.4 395.3,-37.06 417,-29 421.93,-27.17 427.12,-25.41 432.33,-23.74"/>
<polygon fill="#63b8ff" stroke="#63b8ff" points="433.01,-27.2 441.54,-20.92 430.96,-20.5 433.01,-27.2"/>
</a>
</g>
</g>
<!-- Node5 -->
<g id="Node000005" class="node">
<title>Node5</title>
<g id="a_Node000005"><a xlink:href="namespaceduvc.html#a21b444574354018097d4489a9ff0ff9e" target="_top" xlink:title=" ">
<polygon fill="white" stroke="#666666" points="681.5,-115 601,-115 601,-95 681.5,-95 681.5,-115"/>
<text xml:space="preserve" text-anchor="middle" x="641.25" y="-101.5" font-family="Helvetica,sans-Serif" font-size="10.00">duvc::throw_hr</text>
</a>
</g>
</g>
<!-- Node4&#45;&gt;Node5 -->
<g id="edge4_Node000004_Node000005" class="edge">
<title>Node4&#45;&gt;Node5</title>
<g id="a_edge4_Node000004_Node000005"><a xlink:title=" ">
<path fill="none" stroke="#63b8ff" d="M544.73,-116.71C559.55,-114.89 575.3,-112.96 589.65,-111.2"/>
<polygon fill="#63b8ff" stroke="#63b8ff" points="589.81,-114.71 599.31,-110.02 588.96,-107.76 589.81,-114.71"/>
</a>
</g>
</g>
<!-- Node6 -->
<g id="Node000006" class="node">
<title>Node6</title>
<g id="a_Node000006"><a xlink:href="namespaceduvc.html#a02d5c5b2e56515cee2cad9057af0467d" target="_top" xlink:title=" ">
<polygon fill="white" stroke="#666666" points="829.5,-115 731,-115 731,-95 829.5,-95 829.5,-115"/>
<text xml:space="preserve" text-anchor="middle" x="780.25" y="-101.5" font-family="Helvetica,sans-Serif" font-size="10.00">duvc::wide_to_utf8</text>
</a>
</g>
</g>
<!-- Node5&#45;&gt;Node6 -->
<g id="edge5_Node000005_Node000006" class="edge">
<title>Node5&#45;&gt;Node6</title>
<g id="a_edge5_Node000005_Node000006"><a xlink:title=" ">
<path fill="none" stroke="#63b8ff" d="M681.88,-105C693.61,-105 706.74,-105 719.45,-105"/>
<polygon fill="#63b8ff" stroke="#63b8ff" points="719.45,-108.5 729.45,-105 719.45,-101.5 719.45,-108.5"/>
</a>
</g>
</g>
<!-- Node7&#45;&gt;Node5 -->
<g id="edge7_Node000007_Node000005" class="edge">
<title>Node7&#45;&gt;Node5</title>
<g id="a_edge7_Node000007_Node000005"><a xlink:title=" ">
<path fill="none" stroke="#63b8ff" d="M551.88,-94.17C564.44,-95.71 577.39,-97.29 589.37,-98.76"/>
<polygon fill="#63b8ff" stroke="#63b8ff" points="588.67,-102.2 599.02,-99.95 589.52,-95.26 588.67,-102.2"/>
</a>
</g>
</g>
<!-- Node9 -->
<g id="Node000009" class="node">
<title>Node9</title>
<g id="a_Node000009"><a xlink:href="namespaceduvc.html#a0dbd37821c1cae29fa72d44e3dbd0583" target="_top" xlink:title=" ">
<polygon fill="white" stroke="#666666" points="695,-39 587.5,-39 587.5,-19 695,-19 695,-39"/>
<text xml:space="preserve" text-anchor="middle" x="641.25" y="-25.5" font-family="Helvetica,sans-Serif" font-size="10.00">duvc::read_prop_bstr</text>
</a>
</g>
</g>
<!-- Node8&#45;&gt;Node9 -->
<g id="edge9_Node000008_Node000009" class="edge">
<title>Node8&#45;&gt;Node9</title>
<g id="a_edge9_Node000008_Node000009"><a xlink:title=" ">
<path fill="none" stroke="#63b8ff" d="M544.29,-40.76C554.66,-39.49 565.49,-38.16 575.99,-36.88"/>
<polygon fill="#63b8ff" stroke="#63b8ff" points="576.21,-40.38 585.71,-35.68 575.36,-33.43 576.21,-40.38"/>
</a>
</g>
</g>
<!-- Node10&#45;&gt;Node9 -->
<g id="edge11_Node000010_Node000009" class="edge">
<title>Node10&#45;&gt;Node9</title>
<g id="a_edge11_Node000010_Node000009"><a xlink:title=" ">
<path fill="none" stroke="#63b8ff" d="M548.29,-17.73C557.37,-18.84 566.72,-19.99 575.82,-21.1"/>
<polygon fill="#63b8ff" stroke="#63b8ff" points="575.32,-24.57 585.68,-22.31 576.18,-17.62 575.32,-24.57"/>
</a>
</g>
</g>
</g>
</svg>
