<?xml version="1.0" encoding="UTF-8" standalone="no"?>
<!DOCTYPE svg PUBLIC "-//W3C//DTD SVG 1.1//EN"
 "http://www.w3.org/Graphics/SVG/1.1/DTD/svg11.dtd">
<!-- Generated by graphviz version 14.0.2 (20251019.1705)
 -->
<!-- Title: duvc_open_camera_by_index Pages: 1 -->
<svg width="841pt" height="142pt"
 viewBox="0.00 0.00 841.00 142.00" xmlns="http://www.w3.org/2000/svg" xmlns:xlink="http://www.w3.org/1999/xlink">
<g id="graph0" class="graph" transform="scale(1 1) rotate(0) translate(4 138)">
<title>duvc_open_camera_by_index</title>
<!-- Node1 -->
<g id="Node000001" class="node">
<title>Node1</title>
<g id="a_Node000001"><a xlink:title="Open camera by device index.">
<polygon fill="#999999" stroke="#666666" points="116.5,-83 0,-83 0,-51 116.5,-51 116.5,-83"/>
<text xml:space="preserve" text-anchor="start" x="8" y="-69.5" font-family="Helvetica,sans-Serif" font-size="10.00">duvc_open_camera_by</text>
<text xml:space="preserve" text-anchor="middle" x="58.25" y="-57.5" font-family="Helvetica,sans-Serif" font-size="10.00">_index</text>
</a>
</g>
</g>
<!-- Node2 -->
<g id="Node000002" class="node">
<title>Node2</title>
<g id="a_Node000002"><a xlink:href="namespaceduvc.html#ac682048b44b6b2ee33d99dd460c24f25" target="_top" xlink:title="Create camera from device index.">
<polygon fill="white" stroke="#666666" points="254,-77 152.5,-77 152.5,-57 254,-57 254,-77"/>
<text xml:space="preserve" text-anchor="middle" x="203.25" y="-63.5" font-family="Helvetica,sans-Serif" font-size="10.00">duvc::open_camera</text>
</a>
</g>
</g>
<!-- Node1&#45;&gt;Node2 -->
<g id="edge1_Node000001_Node000002" class="edge">
<title>Node1&#45;&gt;Node2</title>
<g id="a_edge1_Node000001_Node000002"><a xlink:title=" ">
<path fill="none" stroke="#63b8ff" d="M116.59,-67C124.62,-67 132.89,-67 140.99,-67"/>
<polygon fill="#63b8ff" stroke="#63b8ff" points="140.76,-70.5 150.76,-67 140.76,-63.5 140.76,-70.5"/>
</a>
</g>
</g>
<!-- Node2&#45;&gt;Node2 -->
<g id="edge12_Node000002_Node000002" class="edge">
<title>Node2&#45;&gt;Node2</title>
<g id="a_edge12_Node000002_Node000002"><a xlink:title=" ">
<path fill="none" stroke="#63b8ff" d="M181.94,-77.34C172.83,-85.98 179.94,-95 203.25,-95 216,-95 223.9,-92.3 226.96,-88.44"/>
<polygon fill="#63b8ff" stroke="#63b8ff" points="230.41,-87.86 224.88,-78.82 223.57,-89.33 230.41,-87.86"/>
</a>
</g>
</g>
<!-- Node3 -->
<g id="Node000003" class="node">
<title>Node3</title>
<g id="a_Node000003"><a xlink:href="namespaceduvc.html#a2c254074ce671320e3e57c56a9389ac1" target="_top" xlink:title="Enumerate all available video input devices.">
<polygon fill="white" stroke="#666666" points="384.75,-77 290,-77 290,-57 384.75,-57 384.75,-77"/>
<text xml:space="preserve" text-anchor="middle" x="337.38" y="-63.5" font-family="Helvetica,sans-Serif" font-size="10.00">duvc::list_devices</text>
</a>
</g>
</g>
<!-- Node2&#45;&gt;Node3 -->
<g id="edge2_Node000002_Node000003" class="edge">
<title>Node2&#45;&gt;Node3</title>
<g id="a_edge2_Node000002_Node000003"><a xlink:title=" ">
<path fill="none" stroke="#63b8ff" d="M254.2,-67C262.15,-67 270.43,-67 278.54,-67"/>
<polygon fill="#63b8ff" stroke="#63b8ff" points="278.33,-70.5 288.33,-67 278.33,-63.5 278.33,-70.5"/>
</a>
</g>
</g>
<!-- Node4 -->
<g id="Node000004" class="node">
<title>Node4</title>
<g id="a_Node000004"><a xlink:href="namespaceduvc.html#ab7299b8597bf14b18b8351278c209188" target="_top" xlink:title="Create DirectShow device enumerator.">
<polygon fill="white" stroke="#666666" points="548.12,-134 427.88,-134 427.88,-114 548.12,-114 548.12,-134"/>
<text xml:space="preserve" text-anchor="middle" x="488" y="-120.5" font-family="Helvetica,sans-Serif" font-size="10.00">duvc::create_dev_enum</text>
</a>
</g>
</g>
<!-- Node3&#45;&gt;Node4 -->
<g id="edge3_Node000003_Node000004" class="edge">
<title>Node3&#45;&gt;Node4</title>
<g id="a_edge3_Node000003_Node000004"><a xlink:title=" ">
<path fill="none" stroke="#63b8ff" d="M358.66,-77.41C375.11,-85.6 399.05,-96.94 420.75,-105 425.68,-106.83 430.87,-108.59 436.08,-110.26"/>
<polygon fill="#63b8ff" stroke="#63b8ff" points="434.71,-113.5 445.29,-113.08 436.76,-106.8 434.71,-113.5"/>
</a>
</g>
</g>
<!-- Node7 -->
<g id="Node000007" class="node">
<title>Node7</title>
<g id="a_Node000007"><a xlink:href="namespaceduvc.html#a1a577c6cd7e4b3106d6f95c15bbceeed" target="_top" xlink:title="Enumerate video input devices.">
<polygon fill="white" stroke="#666666" points="555.25,-96 420.75,-96 420.75,-76 555.25,-76 555.25,-96"/>
<text xml:space="preserve" text-anchor="middle" x="488" y="-82.5" font-family="Helvetica,sans-Serif" font-size="10.00">duvc::enum_video_devices</text>
</a>
</g>
</g>
<!-- Node3&#45;&gt;Node7 -->
<g id="edge6_Node000003_Node000007" class="edge">
<title>Node3&#45;&gt;Node7</title>
<g id="a_edge6_Node000003_Node000007"><a xlink:title=" ">
<path fill="none" stroke="#63b8ff" d="M384.99,-72.96C392.72,-73.95 400.91,-74.99 409.16,-76.05"/>
<polygon fill="#63b8ff" stroke="#63b8ff" points="408.54,-79.5 418.91,-77.29 409.43,-72.56 408.54,-79.5"/>
</a>
</g>
</g>
<!-- Node8 -->
<g id="Node000008" class="node">
<title>Node8</title>
<g id="a_Node000008"><a xlink:href="namespaceduvc.html#a2c2b6f32c6871ad36ae0bf98d9374fd0" target="_top" xlink:title="Read device path from moniker.">
<polygon fill="white" stroke="#666666" points="547.75,-58 428.25,-58 428.25,-38 547.75,-38 547.75,-58"/>
<text xml:space="preserve" text-anchor="middle" x="488" y="-44.5" font-family="Helvetica,sans-Serif" font-size="10.00">duvc::read_device_path</text>
</a>
</g>
</g>
<!-- Node3&#45;&gt;Node8 -->
<g id="edge8_Node000003_Node000008" class="edge">
<title>Node3&#45;&gt;Node8</title>
<g id="a_edge8_Node000003_Node000008"><a xlink:title=" ">
<path fill="none" stroke="#63b8ff" d="M384.99,-61.04C395.1,-59.75 406.01,-58.35 416.8,-56.97"/>
<polygon fill="#63b8ff" stroke="#63b8ff" points="416.99,-60.48 426.46,-55.74 416.1,-53.54 416.99,-60.48"/>
</a>
</g>
</g>
<!-- Node10 -->
<g id="Node000010" class="node">
<title>Node10</title>
<g id="a_Node000010"><a xlink:href="namespaceduvc.html#a019644436e5f0add38b6242843b79fef" target="_top" xlink:title="Read friendly name from device moniker.">
<polygon fill="white" stroke="#666666" points="551.88,-20 424.12,-20 424.12,0 551.88,0 551.88,-20"/>
<text xml:space="preserve" text-anchor="middle" x="488" y="-6.5" font-family="Helvetica,sans-Serif" font-size="10.00">duvc::read_friendly_name</text>
</a>
</g>
</g>
<!-- Node3&#45;&gt;Node10 -->
<g id="edge10_Node000003_Node000010" class="edge">
<title>Node3&#45;&gt;Node10</title>
<g id="a_edge10_Node000003_Node000010"><a xlink:title=" ">
<path fill="none" stroke="#63b8ff" d="M358.66,-56.59C375.11,-48.4 399.05,-37.06 420.75,-29 425.68,-27.17 430.87,-25.41 436.08,-23.74"/>
<polygon fill="#63b8ff" stroke="#63b8ff" points="436.76,-27.2 445.29,-20.92 434.71,-20.5 436.76,-27.2"/>
</a>
</g>
</g>
<!-- Node5 -->
<g id="Node000005" class="node">
<title>Node5</title>
<g id="a_Node000005"><a xlink:href="namespaceduvc.html#a21b444574354018097d4489a9ff0ff9e" target="_top" xlink:title=" ">
<polygon fill="white" stroke="#666666" points="685.25,-115 604.75,-115 604.75,-95 685.25,-95 685.25,-115"/>
<text xml:space="preserve" text-anchor="middle" x="645" y="-101.5" font-family="Helvetica,sans-Serif" font-size="10.00">duvc::throw_hr</text>
</a>
</g>
</g>
<!-- Node4&#45;&gt;Node5 -->
<g id="edge4_Node000004_Node000005" class="edge">
<title>Node4&#45;&gt;Node5</title>
<g id="a_edge4_Node000004_Node000005"><a xlink:title=" ">
<path fill="none" stroke="#63b8ff" d="M548.48,-116.71C563.3,-114.89 579.05,-112.96 593.4,-111.2"/>
<polygon fill="#63b8ff" stroke="#63b8ff" points="593.56,-114.71 603.06,-110.02 592.71,-107.76 593.56,-114.71"/>
</a>
</g>
</g>
<!-- Node6 -->
<g id="Node000006" class="node">
<title>Node6</title>
<g id="a_Node000006"><a xlink:href="namespaceduvc.html#a02d5c5b2e56515cee2cad9057af0467d" target="_top" xlink:title=" ">
<polygon fill="white" stroke="#666666" points="833.25,-115 734.75,-115 734.75,-95 833.25,-95 833.25,-115"/>
<text xml:space="preserve" text-anchor="middle" x="784" y="-101.5" font-family="Helvetica,sans-Serif" font-size="10.00">duvc::wide_to_utf8</text>
</a>
</g>
</g>
<!-- Node5&#45;&gt;Node6 -->
<g id="edge5_Node000005_Node000006" class="edge">
<title>Node5&#45;&gt;Node6</title>
<g id="a_edge5_Node000005_Node000006"><a xlink:title=" ">
<path fill="none" stroke="#63b8ff" d="M685.63,-105C697.36,-105 710.49,-105 723.2,-105"/>
<polygon fill="#63b8ff" stroke="#63b8ff" points="723.2,-108.5 733.2,-105 723.2,-101.5 723.2,-108.5"/>
</a>
</g>
</g>
<!-- Node7&#45;&gt;Node5 -->
<g id="edge7_Node000007_Node000005" class="edge">
<title>Node7&#45;&gt;Node5</title>
<g id="a_edge7_Node000007_Node000005"><a xlink:title=" ">
<path fill="none" stroke="#63b8ff" d="M555.63,-94.17C568.19,-95.71 581.14,-97.29 593.12,-98.76"/>
<polygon fill="#63b8ff" stroke="#63b8ff" points="592.42,-102.2 602.77,-99.95 593.27,-95.26 592.42,-102.2"/>
</a>
</g>
</g>
<!-- Node9 -->
<g id="Node000009" class="node">
<title>Node9</title>
<g id="a_Node000009"><a xlink:href="namespaceduvc.html#a0dbd37821c1cae29fa72d44e3dbd0583" target="_top" xlink:title=" ">
<polygon fill="white" stroke="#666666" points="698.75,-39 591.25,-39 591.25,-19 698.75,-19 698.75,-39"/>
<text xml:space="preserve" text-anchor="middle" x="645" y="-25.5" font-family="Helvetica,sans-Serif" font-size="10.00">duvc::read_prop_bstr</text>
</a>
</g>
</g>
<!-- Node8&#45;&gt;Node9 -->
<g id="edge9_Node000008_Node000009" class="edge">
<title>Node8&#45;&gt;Node9</title>
<g id="a_edge9_Node000008_Node000009"><a xlink:title=" ">
<path fill="none" stroke="#63b8ff" d="M548.04,-40.76C558.41,-39.49 569.24,-38.16 579.74,-36.88"/>
<polygon fill="#63b8ff" stroke="#63b8ff" points="579.96,-40.38 589.46,-35.68 579.11,-33.43 579.96,-40.38"/>
</a>
</g>
</g>
<!-- Node10&#45;&gt;Node9 -->
<g id="edge11_Node000010_Node000009" class="edge">
<title>Node10&#45;&gt;Node9</title>
<g id="a_edge11_Node000010_Node000009"><a xlink:title=" ">
<path fill="none" stroke="#63b8ff" d="M552.04,-17.73C561.12,-18.84 570.47,-19.99 579.57,-21.1"/>
<polygon fill="#63b8ff" stroke="#63b8ff" points="579.07,-24.57 589.43,-22.31 579.93,-17.62 579.07,-24.57"/>
</a>
</g>
</g>
</g>
</svg>
