<?xml version="1.0" encoding="UTF-8" standalone="no"?>
<!DOCTYPE svg PUBLIC "-//W3C//DTD SVG 1.1//EN"
 "http://www.w3.org/Graphics/SVG/1.1/DTD/svg11.dtd">
<!-- Generated by graphviz version 14.0.2 (20251019.1705)
 -->
<!-- Title: duvc_log_debug Pages: 1 -->
<svg width="678pt" height="66pt"
 viewBox="0.00 0.00 678.00 66.00" xmlns="http://www.w3.org/2000/svg" xmlns:xlink="http://www.w3.org/1999/xlink">
<g id="graph0" class="graph" transform="scale(1 1) rotate(0) translate(4 62)">
<title>duvc_log_debug</title>
<!-- Node1 -->
<g id="Node000001" class="node">
<title>Node1</title>
<g id="a_Node000001"><a xlink:title="Log debug message.">
<polygon fill="#999999" stroke="#666666" points="86.5,-39 0,-39 0,-19 86.5,-19 86.5,-39"/>
<text xml:space="preserve" text-anchor="middle" x="43.25" y="-25.5" font-family="Helvetica,sans-Serif" font-size="10.00">duvc_log_debug</text>
</a>
</g>
</g>
<!-- Node2 -->
<g id="Node000002" class="node">
<title>Node2</title>
<g id="a_Node000002"><a xlink:href="api_8cpp.html#a663fa0c39548b58bcdeb34c0dd5210fa" target="_top" xlink:title="Log message at specific level.">
<polygon fill="white" stroke="#666666" points="222.5,-39 122.5,-39 122.5,-19 222.5,-19 222.5,-39"/>
<text xml:space="preserve" text-anchor="middle" x="172.5" y="-25.5" font-family="Helvetica,sans-Serif" font-size="10.00">duvc_log_message</text>
</a>
</g>
</g>
<!-- Node1&#45;&gt;Node2 -->
<g id="edge1_Node000001_Node000002" class="edge">
<title>Node1&#45;&gt;Node2</title>
<g id="a_edge1_Node000001_Node000002"><a xlink:title=" ">
<path fill="none" stroke="#63b8ff" d="M86.98,-29C94.63,-29 102.74,-29 110.79,-29"/>
<polygon fill="#63b8ff" stroke="#63b8ff" points="110.56,-32.5 120.56,-29 110.56,-25.5 110.56,-32.5"/>
</a>
</g>
</g>
<!-- Node3 -->
<g id="Node000003" class="node">
<title>Node3</title>
<g id="a_Node000003"><a xlink:href="namespaceduvc.html#a92c11bbcc4c659a542bd48d477f60876" target="_top" xlink:title="Log a message.">
<polygon fill="white" stroke="#666666" points="359.25,-39 258.5,-39 258.5,-19 359.25,-19 359.25,-39"/>
<text xml:space="preserve" text-anchor="middle" x="308.88" y="-25.5" font-family="Helvetica,sans-Serif" font-size="10.00">duvc::log_message</text>
</a>
</g>
</g>
<!-- Node2&#45;&gt;Node3 -->
<g id="edge2_Node000002_Node000003" class="edge">
<title>Node2&#45;&gt;Node3</title>
<g id="a_edge2_Node000002_Node000003"><a xlink:title=" ">
<path fill="none" stroke="#63b8ff" d="M222.77,-29C230.61,-29 238.8,-29 246.88,-29"/>
<polygon fill="#63b8ff" stroke="#63b8ff" points="246.64,-32.5 256.64,-29 246.64,-25.5 246.64,-32.5"/>
</a>
</g>
</g>
<!-- Node4 -->
<g id="Node000004" class="node">
<title>Node4</title>
<g id="a_Node000004"><a xlink:href="namespaceduvc.html#ababd2cbe9f996df9fb02141b96f1a0da" target="_top" xlink:title="Default logging callback that writes to stderr.">
<polygon fill="white" stroke="#666666" points="526.75,-39 395.25,-39 395.25,-19 526.75,-19 526.75,-39"/>
<text xml:space="preserve" text-anchor="middle" x="461" y="-25.5" font-family="Helvetica,sans-Serif" font-size="10.00">duvc::default_log_callback</text>
</a>
</g>
</g>
<!-- Node3&#45;&gt;Node4 -->
<g id="edge3_Node000003_Node000004" class="edge">
<title>Node3&#45;&gt;Node4</title>
<g id="a_edge3_Node000003_Node000004"><a xlink:title=" ">
<path fill="none" stroke="#63b8ff" d="M359.45,-29C367.17,-29 375.3,-29 383.45,-29"/>
<polygon fill="#63b8ff" stroke="#63b8ff" points="383.44,-32.5 393.44,-29 383.44,-25.5 383.44,-32.5"/>
</a>
</g>
</g>
<!-- Node5 -->
<g id="Node000005" class="node">
<title>Node5</title>
<g id="a_Node000005"><a xlink:href="namespaceduvc.html#a621c452d402f42a3c34c68da6f2848f1" target="_top" xlink:title="Get current timestamp as string.">
<polygon fill="white" stroke="#666666" points="670.25,-58 562.75,-58 562.75,-38 670.25,-38 670.25,-58"/>
<text xml:space="preserve" text-anchor="middle" x="616.5" y="-44.5" font-family="Helvetica,sans-Serif" font-size="10.00">duvc::get_timestamp</text>
</a>
</g>
</g>
<!-- Node4&#45;&gt;Node5 -->
<g id="edge4_Node000004_Node000005" class="edge">
<title>Node4&#45;&gt;Node5</title>
<g id="a_edge4_Node000004_Node000005"><a xlink:title=" ">
<path fill="none" stroke="#63b8ff" d="M527.1,-37.06C535,-38.04 543.08,-39.04 550.98,-40.01"/>
<polygon fill="#63b8ff" stroke="#63b8ff" points="550.52,-43.48 560.88,-41.24 551.38,-36.54 550.52,-43.48"/>
</a>
</g>
</g>
<!-- Node6 -->
<g id="Node000006" class="node">
<title>Node6</title>
<g id="a_Node000006"><a xlink:href="namespaceduvc.html#a8556fd02a649101843e7712e638cc0cb" target="_top" xlink:title="Convert camera property enum to string.">
<polygon fill="white" stroke="#666666" points="656.75,-20 576.25,-20 576.25,0 656.75,0 656.75,-20"/>
<text xml:space="preserve" text-anchor="middle" x="616.5" y="-6.5" font-family="Helvetica,sans-Serif" font-size="10.00">duvc::to_string</text>
</a>
</g>
</g>
<!-- Node4&#45;&gt;Node6 -->
<g id="edge5_Node000004_Node000006" class="edge">
<title>Node4&#45;&gt;Node6</title>
<g id="a_edge5_Node000004_Node000006"><a xlink:title=" ">
<path fill="none" stroke="#63b8ff" d="M527.1,-20.94C539.73,-19.38 552.79,-17.76 564.88,-16.27"/>
<polygon fill="#63b8ff" stroke="#63b8ff" points="565.12,-19.76 574.61,-15.06 564.26,-12.82 565.12,-19.76"/>
</a>
</g>
</g>
</g>
</svg>
