<?xml version="1.0" encoding="UTF-8" standalone="no"?>
<!DOCTYPE svg PUBLIC "-//W3C//DTD SVG 1.1//EN"
 "http://www.w3.org/Graphics/SVG/1.1/DTD/svg11.dtd">
<!-- Generated by graphviz version 14.0.2 (20251019.1705)
 -->
<!-- Title: duvc_get_device_capabilities Pages: 1 -->
<svg width="493pt" height="116pt"
 viewBox="0.00 0.00 493.00 116.00" xmlns="http://www.w3.org/2000/svg" xmlns:xlink="http://www.w3.org/1999/xlink">
<g id="graph0" class="graph" transform="scale(1 1) rotate(0) translate(4 112)">
<title>duvc_get_device_capabilities</title>
<!-- Node1 -->
<g id="Node000001" class="node">
<title>Node1</title>
<g id="a_Node000001"><a xlink:title="Get device capabilities snapshot.">
<polygon fill="#999999" stroke="#666666" points="143.5,-58 0,-58 0,-38 143.5,-38 143.5,-58"/>
<text xml:space="preserve" text-anchor="middle" x="71.75" y="-44.5" font-family="Helvetica,sans-Serif" font-size="10.00">duvc_get_device_capabilities</text>
</a>
</g>
</g>
<!-- Node2 -->
<g id="Node000002" class="node">
<title>Node2</title>
<g id="a_Node000002"><a xlink:href="namespaceduvc.html#a1d35218e5baaccb7d19f4695396581e8" target="_top" xlink:title="Create device capability snapshot.">
<polygon fill="white" stroke="#666666" points="323.75,-58 179.5,-58 179.5,-38 323.75,-38 323.75,-58"/>
<text xml:space="preserve" text-anchor="middle" x="251.62" y="-44.5" font-family="Helvetica,sans-Serif" font-size="10.00">duvc::get_device_capabilities</text>
</a>
</g>
</g>
<!-- Node1&#45;&gt;Node2 -->
<g id="edge1_Node000001_Node000002" class="edge">
<title>Node1&#45;&gt;Node2</title>
<g id="a_edge1_Node000001_Node000002"><a xlink:title=" ">
<path fill="none" stroke="#63b8ff" d="M143.82,-48C151.71,-48 159.8,-48 167.82,-48"/>
<polygon fill="#63b8ff" stroke="#63b8ff" points="167.58,-51.5 177.58,-48 167.58,-44.5 167.58,-51.5"/>
</a>
</g>
</g>
<!-- Node3 -->
<g id="Node000003" class="node">
<title>Node3</title>
<g id="a_Node000003"><a xlink:href="classduvc_1_1DeviceCapabilities.html#ac5d276e943fa0b7ed0c581ffe0309851" target="_top" xlink:title="Check if device is connected and accessible.">
<polygon fill="white" stroke="#666666" points="484.5,-108 359.75,-108 359.75,-76 484.5,-76 484.5,-108"/>
<text xml:space="preserve" text-anchor="start" x="367.75" y="-94.5" font-family="Helvetica,sans-Serif" font-size="10.00">duvc::DeviceCapabilities</text>
<text xml:space="preserve" text-anchor="middle" x="422.12" y="-82.5" font-family="Helvetica,sans-Serif" font-size="10.00">::is_device_accessible</text>
</a>
</g>
</g>
<!-- Node2&#45;&gt;Node3 -->
<g id="edge2_Node000002_Node000003" class="edge">
<title>Node2&#45;&gt;Node3</title>
<g id="a_edge2_Node000002_Node000003"><a xlink:title=" ">
<path fill="none" stroke="#63b8ff" d="M292.56,-58.43C309.23,-62.78 329.15,-67.98 348.27,-72.98"/>
<polygon fill="#63b8ff" stroke="#63b8ff" points="347.38,-76.36 357.94,-75.5 349.15,-69.59 347.38,-76.36"/>
</a>
</g>
</g>
<!-- Node4 -->
<g id="Node000004" class="node">
<title>Node4</title>
<g id="a_Node000004"><a xlink:href="structduvc_1_1Device.html#ad3e80d9ad1a9da04ede1424ff8765050" target="_top" xlink:title="Check if device has valid identifying information.">
<polygon fill="white" stroke="#666666" points="478.5,-58 365.75,-58 365.75,-38 478.5,-38 478.5,-58"/>
<text xml:space="preserve" text-anchor="middle" x="422.12" y="-44.5" font-family="Helvetica,sans-Serif" font-size="10.00">duvc::Device::is_valid</text>
</a>
</g>
</g>
<!-- Node2&#45;&gt;Node4 -->
<g id="edge3_Node000002_Node000004" class="edge">
<title>Node2&#45;&gt;Node4</title>
<g id="a_edge3_Node000002_Node000004"><a xlink:title=" ">
<path fill="none" stroke="#63b8ff" d="M324.08,-48C334.01,-48 344.18,-48 354.03,-48"/>
<polygon fill="#63b8ff" stroke="#63b8ff" points="353.89,-51.5 363.89,-48 353.89,-44.5 353.89,-51.5"/>
</a>
</g>
</g>
<!-- Node5 -->
<g id="Node000005" class="node">
<title>Node5</title>
<g id="a_Node000005"><a xlink:href="namespaceduvc.html#afc6e96946d632ab859aa1aef741646f6" target="_top" xlink:title="Helper to create successful void Result.">
<polygon fill="white" stroke="#666666" points="450,-20 394.25,-20 394.25,0 450,0 450,-20"/>
<text xml:space="preserve" text-anchor="middle" x="422.12" y="-6.5" font-family="Helvetica,sans-Serif" font-size="10.00">duvc::Ok</text>
</a>
</g>
</g>
<!-- Node2&#45;&gt;Node5 -->
<g id="edge4_Node000002_Node000005" class="edge">
<title>Node2&#45;&gt;Node5</title>
<g id="a_edge4_Node000002_Node000005"><a xlink:title=" ">
<path fill="none" stroke="#63b8ff" d="M299.11,-37.52C325.52,-31.56 358.17,-24.2 383.04,-18.59"/>
<polygon fill="#63b8ff" stroke="#63b8ff" points="383.76,-22.01 392.74,-16.4 382.22,-15.19 383.76,-22.01"/>
</a>
</g>
</g>
</g>
</svg>
