<?xml version="1.0" encoding="UTF-8" standalone="no"?>
<!DOCTYPE svg PUBLIC "-//W3C//DTD SVG 1.1//EN"
 "http://www.w3.org/Graphics/SVG/1.1/DTD/svg11.dtd">
<!-- Generated by graphviz version 14.0.2 (20251019.1705)
 -->
<!-- Title: duvc_open_camera Pages: 1 -->
<svg width="826pt" height="142pt"
 viewBox="0.00 0.00 826.00 142.00" xmlns="http://www.w3.org/2000/svg" xmlns:xlink="http://www.w3.org/1999/xlink">
<g id="graph0" class="graph" transform="scale(1 1) rotate(0) translate(4 138)">
<title>duvc_open_camera</title>
<!-- Node1 -->
<g id="Node000001" class="node">
<title>Node1</title>
<g id="a_Node000001"><a xlink:title="Open camera by device handle.">
<polygon fill="#999999" stroke="#666666" points="100.75,-77 0,-77 0,-57 100.75,-57 100.75,-77"/>
<text xml:space="preserve" text-anchor="middle" x="50.38" y="-63.5" font-family="Helvetica,sans-Serif" font-size="10.00">duvc_open_camera</text>
</a>
</g>
</g>
<!-- Node2 -->
<g id="Node000002" class="node">
<title>Node2</title>
<g id="a_Node000002"><a xlink:href="namespaceduvc.html#ac682048b44b6b2ee33d99dd460c24f25" target="_top" xlink:title="Create camera from device index.">
<polygon fill="white" stroke="#666666" points="238.25,-77 136.75,-77 136.75,-57 238.25,-57 238.25,-77"/>
<text xml:space="preserve" text-anchor="middle" x="187.5" y="-63.5" font-family="Helvetica,sans-Serif" font-size="10.00">duvc::open_camera</text>
</a>
</g>
</g>
<!-- Node1&#45;&gt;Node2 -->
<g id="edge1_Node000001_Node000002" class="edge">
<title>Node1&#45;&gt;Node2</title>
<g id="a_edge1_Node000001_Node000002"><a xlink:title=" ">
<path fill="none" stroke="#63b8ff" d="M100.92,-67C108.81,-67 117.04,-67 125.16,-67"/>
<polygon fill="#63b8ff" stroke="#63b8ff" points="124.99,-70.5 134.99,-67 124.99,-63.5 124.99,-70.5"/>
</a>
</g>
</g>
<!-- Node2&#45;&gt;Node2 -->
<g id="edge12_Node000002_Node000002" class="edge">
<title>Node2&#45;&gt;Node2</title>
<g id="a_edge12_Node000002_Node000002"><a xlink:title=" ">
<path fill="none" stroke="#63b8ff" d="M166.19,-77.34C157.08,-85.98 164.19,-95 187.5,-95 200.25,-95 208.15,-92.3 211.21,-88.44"/>
<polygon fill="#63b8ff" stroke="#63b8ff" points="214.66,-87.86 209.13,-78.82 207.82,-89.33 214.66,-87.86"/>
</a>
</g>
</g>
<!-- Node3 -->
<g id="Node000003" class="node">
<title>Node3</title>
<g id="a_Node000003"><a xlink:href="namespaceduvc.html#a2c254074ce671320e3e57c56a9389ac1" target="_top" xlink:title="Enumerate all available video input devices.">
<polygon fill="white" stroke="#666666" points="369,-77 274.25,-77 274.25,-57 369,-57 369,-77"/>
<text xml:space="preserve" text-anchor="middle" x="321.62" y="-63.5" font-family="Helvetica,sans-Serif" font-size="10.00">duvc::list_devices</text>
</a>
</g>
</g>
<!-- Node2&#45;&gt;Node3 -->
<g id="edge2_Node000002_Node000003" class="edge">
<title>Node2&#45;&gt;Node3</title>
<g id="a_edge2_Node000002_Node000003"><a xlink:title=" ">
<path fill="none" stroke="#63b8ff" d="M238.45,-67C246.4,-67 254.68,-67 262.79,-67"/>
<polygon fill="#63b8ff" stroke="#63b8ff" points="262.58,-70.5 272.58,-67 262.58,-63.5 262.58,-70.5"/>
</a>
</g>
</g>
<!-- Node4 -->
<g id="Node000004" class="node">
<title>Node4</title>
<g id="a_Node000004"><a xlink:href="namespaceduvc.html#ab7299b8597bf14b18b8351278c209188" target="_top" xlink:title="Create DirectShow device enumerator.">
<polygon fill="white" stroke="#666666" points="532.38,-134 412.12,-134 412.12,-114 532.38,-114 532.38,-134"/>
<text xml:space="preserve" text-anchor="middle" x="472.25" y="-120.5" font-family="Helvetica,sans-Serif" font-size="10.00">duvc::create_dev_enum</text>
</a>
</g>
</g>
<!-- Node3&#45;&gt;Node4 -->
<g id="edge3_Node000003_Node000004" class="edge">
<title>Node3&#45;&gt;Node4</title>
<g id="a_edge3_Node000003_Node000004"><a xlink:title=" ">
<path fill="none" stroke="#63b8ff" d="M342.91,-77.41C359.36,-85.6 383.3,-96.94 405,-105 409.93,-106.83 415.12,-108.59 420.33,-110.26"/>
<polygon fill="#63b8ff" stroke="#63b8ff" points="418.96,-113.5 429.54,-113.08 421.01,-106.8 418.96,-113.5"/>
</a>
</g>
</g>
<!-- Node7 -->
<g id="Node000007" class="node">
<title>Node7</title>
<g id="a_Node000007"><a xlink:href="namespaceduvc.html#a1a577c6cd7e4b3106d6f95c15bbceeed" target="_top" xlink:title="Enumerate video input devices.">
<polygon fill="white" stroke="#666666" points="539.5,-96 405,-96 405,-76 539.5,-76 539.5,-96"/>
<text xml:space="preserve" text-anchor="middle" x="472.25" y="-82.5" font-family="Helvetica,sans-Serif" font-size="10.00">duvc::enum_video_devices</text>
</a>
</g>
</g>
<!-- Node3&#45;&gt;Node7 -->
<g id="edge6_Node000003_Node000007" class="edge">
<title>Node3&#45;&gt;Node7</title>
<g id="a_edge6_Node000003_Node000007"><a xlink:title=" ">
<path fill="none" stroke="#63b8ff" d="M369.24,-72.96C376.97,-73.95 385.16,-74.99 393.41,-76.05"/>
<polygon fill="#63b8ff" stroke="#63b8ff" points="392.79,-79.5 403.16,-77.29 393.68,-72.56 392.79,-79.5"/>
</a>
</g>
</g>
<!-- Node8 -->
<g id="Node000008" class="node">
<title>Node8</title>
<g id="a_Node000008"><a xlink:href="namespaceduvc.html#a2c2b6f32c6871ad36ae0bf98d9374fd0" target="_top" xlink:title="Read device path from moniker.">
<polygon fill="white" stroke="#666666" points="532,-58 412.5,-58 412.5,-38 532,-38 532,-58"/>
<text xml:space="preserve" text-anchor="middle" x="472.25" y="-44.5" font-family="Helvetica,sans-Serif" font-size="10.00">duvc::read_device_path</text>
</a>
</g>
</g>
<!-- Node3&#45;&gt;Node8 -->
<g id="edge8_Node000003_Node000008" class="edge">
<title>Node3&#45;&gt;Node8</title>
<g id="a_edge8_Node000003_Node000008"><a xlink:title=" ">
<path fill="none" stroke="#63b8ff" d="M369.24,-61.04C379.35,-59.75 390.26,-58.35 401.05,-56.97"/>
<polygon fill="#63b8ff" stroke="#63b8ff" points="401.24,-60.48 410.71,-55.74 400.35,-53.54 401.24,-60.48"/>
</a>
</g>
</g>
<!-- Node10 -->
<g id="Node000010" class="node">
<title>Node10</title>
<g id="a_Node000010"><a xlink:href="namespaceduvc.html#a019644436e5f0add38b6242843b79fef" target="_top" xlink:title="Read friendly name from device moniker.">
<polygon fill="white" stroke="#666666" points="536.12,-20 408.38,-20 408.38,0 536.12,0 536.12,-20"/>
<text xml:space="preserve" text-anchor="middle" x="472.25" y="-6.5" font-family="Helvetica,sans-Serif" font-size="10.00">duvc::read_friendly_name</text>
</a>
</g>
</g>
<!-- Node3&#45;&gt;Node10 -->
<g id="edge10_Node000003_Node000010" class="edge">
<title>Node3&#45;&gt;Node10</title>
<g id="a_edge10_Node000003_Node000010"><a xlink:title=" ">
<path fill="none" stroke="#63b8ff" d="M342.91,-56.59C359.36,-48.4 383.3,-37.06 405,-29 409.93,-27.17 415.12,-25.41 420.33,-23.74"/>
<polygon fill="#63b8ff" stroke="#63b8ff" points="421.01,-27.2 429.54,-20.92 418.96,-20.5 421.01,-27.2"/>
</a>
</g>
</g>
<!-- Node5 -->
<g id="Node000005" class="node">
<title>Node5</title>
<g id="a_Node000005"><a xlink:href="namespaceduvc.html#a21b444574354018097d4489a9ff0ff9e" target="_top" xlink:title=" ">
<polygon fill="white" stroke="#666666" points="669.5,-115 589,-115 589,-95 669.5,-95 669.5,-115"/>
<text xml:space="preserve" text-anchor="middle" x="629.25" y="-101.5" font-family="Helvetica,sans-Serif" font-size="10.00">duvc::throw_hr</text>
</a>
</g>
</g>
<!-- Node4&#45;&gt;Node5 -->
<g id="edge4_Node000004_Node000005" class="edge">
<title>Node4&#45;&gt;Node5</title>
<g id="a_edge4_Node000004_Node000005"><a xlink:title=" ">
<path fill="none" stroke="#63b8ff" d="M532.73,-116.71C547.55,-114.89 563.3,-112.96 577.65,-111.2"/>
<polygon fill="#63b8ff" stroke="#63b8ff" points="577.81,-114.71 587.31,-110.02 576.96,-107.76 577.81,-114.71"/>
</a>
</g>
</g>
<!-- Node6 -->
<g id="Node000006" class="node">
<title>Node6</title>
<g id="a_Node000006"><a xlink:href="namespaceduvc.html#a02d5c5b2e56515cee2cad9057af0467d" target="_top" xlink:title=" ">
<polygon fill="white" stroke="#666666" points="817.5,-115 719,-115 719,-95 817.5,-95 817.5,-115"/>
<text xml:space="preserve" text-anchor="middle" x="768.25" y="-101.5" font-family="Helvetica,sans-Serif" font-size="10.00">duvc::wide_to_utf8</text>
</a>
</g>
</g>
<!-- Node5&#45;&gt;Node6 -->
<g id="edge5_Node000005_Node000006" class="edge">
<title>Node5&#45;&gt;Node6</title>
<g id="a_edge5_Node000005_Node000006"><a xlink:title=" ">
<path fill="none" stroke="#63b8ff" d="M669.88,-105C681.61,-105 694.74,-105 707.45,-105"/>
<polygon fill="#63b8ff" stroke="#63b8ff" points="707.45,-108.5 717.45,-105 707.45,-101.5 707.45,-108.5"/>
</a>
</g>
</g>
<!-- Node7&#45;&gt;Node5 -->
<g id="edge7_Node000007_Node000005" class="edge">
<title>Node7&#45;&gt;Node5</title>
<g id="a_edge7_Node000007_Node000005"><a xlink:title=" ">
<path fill="none" stroke="#63b8ff" d="M539.88,-94.17C552.44,-95.71 565.39,-97.29 577.37,-98.76"/>
<polygon fill="#63b8ff" stroke="#63b8ff" points="576.67,-102.2 587.02,-99.95 577.52,-95.26 576.67,-102.2"/>
</a>
</g>
</g>
<!-- Node9 -->
<g id="Node000009" class="node">
<title>Node9</title>
<g id="a_Node000009"><a xlink:href="namespaceduvc.html#a0dbd37821c1cae29fa72d44e3dbd0583" target="_top" xlink:title=" ">
<polygon fill="white" stroke="#666666" points="683,-39 575.5,-39 575.5,-19 683,-19 683,-39"/>
<text xml:space="preserve" text-anchor="middle" x="629.25" y="-25.5" font-family="Helvetica,sans-Serif" font-size="10.00">duvc::read_prop_bstr</text>
</a>
</g>
</g>
<!-- Node8&#45;&gt;Node9 -->
<g id="edge9_Node000008_Node000009" class="edge">
<title>Node8&#45;&gt;Node9</title>
<g id="a_edge9_Node000008_Node000009"><a xlink:title=" ">
<path fill="none" stroke="#63b8ff" d="M532.29,-40.76C542.66,-39.49 553.49,-38.16 563.99,-36.88"/>
<polygon fill="#63b8ff" stroke="#63b8ff" points="564.21,-40.38 573.71,-35.68 563.36,-33.43 564.21,-40.38"/>
</a>
</g>
</g>
<!-- Node10&#45;&gt;Node9 -->
<g id="edge11_Node000010_Node000009" class="edge">
<title>Node10&#45;&gt;Node9</title>
<g id="a_edge11_Node000010_Node000009"><a xlink:title=" ">
<path fill="none" stroke="#63b8ff" d="M536.29,-17.73C545.37,-18.84 554.72,-19.99 563.82,-21.1"/>
<polygon fill="#63b8ff" stroke="#63b8ff" points="563.32,-24.57 573.68,-22.31 564.18,-17.62 563.32,-24.57"/>
</a>
</g>
</g>
</g>
</svg>
