<?xml version="1.0" encoding="UTF-8" standalone="no"?>
<!DOCTYPE svg PUBLIC "-//W3C//DTD SVG 1.1//EN"
 "http://www.w3.org/Graphics/SVG/1.1/DTD/svg11.dtd">
<!-- Generated by graphviz version 14.0.2 (20251019.1705)
 -->
<!-- Title: duvc_get_multiple_video_properties Pages: 1 -->
<svg width="356pt" height="40pt"
 viewBox="0.00 0.00 356.00 40.00" xmlns="http://www.w3.org/2000/svg" xmlns:xlink="http://www.w3.org/1999/xlink">
<g id="graph0" class="graph" transform="scale(1 1) rotate(0) translate(4 36)">
<title>duvc_get_multiple_video_properties</title>
<!-- Node1 -->
<g id="Node000001" class="node">
<title>Node1</title>
<g id="a_Node000001"><a xlink:title="Get multiple video properties.">
<polygon fill="#999999" stroke="#666666" points="123.25,-32 0,-32 0,0 123.25,0 123.25,-32"/>
<text xml:space="preserve" text-anchor="start" x="8" y="-18.5" font-family="Helvetica,sans-Serif" font-size="10.00">duvc_get_multiple_video</text>
<text xml:space="preserve" text-anchor="middle" x="61.62" y="-6.5" font-family="Helvetica,sans-Serif" font-size="10.00">_properties</text>
</a>
</g>
</g>
<!-- Node2 -->
<g id="Node000002" class="node">
<title>Node2</title>
<g id="a_Node000002"><a xlink:href="classduvc_1_1Camera.html#afc3cfc69da7411bb9e28c2dad29ebe6c" target="_top" xlink:title="Get camera property value.">
<polygon fill="white" stroke="#666666" points="256.25,-26 159.25,-26 159.25,-6 256.25,-6 256.25,-26"/>
<text xml:space="preserve" text-anchor="middle" x="207.75" y="-12.5" font-family="Helvetica,sans-Serif" font-size="10.00">duvc::Camera::get</text>
</a>
</g>
</g>
<!-- Node1&#45;&gt;Node2 -->
<g id="edge1_Node000001_Node000002" class="edge">
<title>Node1&#45;&gt;Node2</title>
<g id="a_edge1_Node000001_Node000002"><a xlink:title=" ">
<path fill="none" stroke="#63b8ff" d="M123.75,-16C131.69,-16 139.8,-16 147.71,-16"/>
<polygon fill="#63b8ff" stroke="#63b8ff" points="147.57,-19.5 157.57,-16 147.57,-12.5 147.57,-19.5"/>
</a>
</g>
</g>
<!-- Node3 -->
<g id="Node000003" class="node">
<title>Node3</title>
<g id="a_Node000003"><a xlink:href="namespaceduvc.html#afc6e96946d632ab859aa1aef741646f6" target="_top" xlink:title="Helper to create successful void Result.">
<polygon fill="white" stroke="#666666" points="348,-26 292.25,-26 292.25,-6 348,-6 348,-26"/>
<text xml:space="preserve" text-anchor="middle" x="320.12" y="-12.5" font-family="Helvetica,sans-Serif" font-size="10.00">duvc::Ok</text>
</a>
</g>
</g>
<!-- Node2&#45;&gt;Node3 -->
<g id="edge2_Node000002_Node000003" class="edge">
<title>Node2&#45;&gt;Node3</title>
<g id="a_edge2_Node000002_Node000003"><a xlink:title=" ">
<path fill="none" stroke="#63b8ff" d="M256.52,-16C264.57,-16 272.83,-16 280.6,-16"/>
<polygon fill="#63b8ff" stroke="#63b8ff" points="280.43,-19.5 290.43,-16 280.43,-12.5 280.43,-19.5"/>
</a>
</g>
</g>
</g>
</svg>
