<?xml version="1.0" encoding="UTF-8" standalone="no"?>
<!DOCTYPE svg PUBLIC "-//W3C//DTD SVG 1.1//EN"
 "http://www.w3.org/Graphics/SVG/1.1/DTD/svg11.dtd">
<!-- Generated by graphviz version 14.0.2 (20251019.1705)
 -->
<!-- Title: duvc_set_multiple_video_properties Pages: 1 -->
<svg width="356pt" height="66pt"
 viewBox="0.00 0.00 356.00 66.00" xmlns="http://www.w3.org/2000/svg" xmlns:xlink="http://www.w3.org/1999/xlink">
<g id="graph0" class="graph" transform="scale(1 1) rotate(0) translate(4 62)">
<title>duvc_set_multiple_video_properties</title>
<!-- Node1 -->
<g id="Node000001" class="node">
<title>Node1</title>
<g id="a_Node000001"><a xlink:title="Set multiple video properties.">
<polygon fill="#999999" stroke="#666666" points="123.25,-45 0,-45 0,-13 123.25,-13 123.25,-45"/>
<text xml:space="preserve" text-anchor="start" x="8" y="-31.5" font-family="Helvetica,sans-Serif" font-size="10.00">duvc_set_multiple_video</text>
<text xml:space="preserve" text-anchor="middle" x="61.62" y="-19.5" font-family="Helvetica,sans-Serif" font-size="10.00">_properties</text>
</a>
</g>
</g>
<!-- Node2 -->
<g id="Node000002" class="node">
<title>Node2</title>
<g id="a_Node000002"><a xlink:href="classduvc_1_1Camera.html#afc3cfc69da7411bb9e28c2dad29ebe6c" target="_top" xlink:title="Get camera property value.">
<polygon fill="white" stroke="#666666" points="256.25,-58 159.25,-58 159.25,-38 256.25,-38 256.25,-58"/>
<text xml:space="preserve" text-anchor="middle" x="207.75" y="-44.5" font-family="Helvetica,sans-Serif" font-size="10.00">duvc::Camera::get</text>
</a>
</g>
</g>
<!-- Node1&#45;&gt;Node2 -->
<g id="edge1_Node000001_Node000002" class="edge">
<title>Node1&#45;&gt;Node2</title>
<g id="a_edge1_Node000001_Node000002"><a xlink:title=" ">
<path fill="none" stroke="#63b8ff" d="M123.75,-37.06C131.69,-38.1 139.8,-39.17 147.71,-40.22"/>
<polygon fill="#63b8ff" stroke="#63b8ff" points="147.21,-43.68 157.59,-41.52 148.13,-36.74 147.21,-43.68"/>
</a>
</g>
</g>
<!-- Node4 -->
<g id="Node000004" class="node">
<title>Node4</title>
<g id="a_Node000004"><a xlink:href="classduvc_1_1Camera.html#ac9637793f602425d7e07de6d3ec954cb" target="_top" xlink:title="Set camera property value.">
<polygon fill="white" stroke="#666666" points="256.25,-20 159.25,-20 159.25,0 256.25,0 256.25,-20"/>
<text xml:space="preserve" text-anchor="middle" x="207.75" y="-6.5" font-family="Helvetica,sans-Serif" font-size="10.00">duvc::Camera::set</text>
</a>
</g>
</g>
<!-- Node1&#45;&gt;Node4 -->
<g id="edge3_Node000001_Node000004" class="edge">
<title>Node1&#45;&gt;Node4</title>
<g id="a_edge3_Node000001_Node000004"><a xlink:title=" ">
<path fill="none" stroke="#63b8ff" d="M123.75,-20.94C131.69,-19.9 139.8,-18.83 147.71,-17.78"/>
<polygon fill="#63b8ff" stroke="#63b8ff" points="148.13,-21.26 157.59,-16.48 147.21,-14.32 148.13,-21.26"/>
</a>
</g>
</g>
<!-- Node3 -->
<g id="Node000003" class="node">
<title>Node3</title>
<g id="a_Node000003"><a xlink:href="namespaceduvc.html#afc6e96946d632ab859aa1aef741646f6" target="_top" xlink:title="Helper to create successful void Result.">
<polygon fill="white" stroke="#666666" points="348,-39 292.25,-39 292.25,-19 348,-19 348,-39"/>
<text xml:space="preserve" text-anchor="middle" x="320.12" y="-25.5" font-family="Helvetica,sans-Serif" font-size="10.00">duvc::Ok</text>
</a>
</g>
</g>
<!-- Node2&#45;&gt;Node3 -->
<g id="edge2_Node000002_Node000003" class="edge">
<title>Node2&#45;&gt;Node3</title>
<g id="a_edge2_Node000002_Node000003"><a xlink:title=" ">
<path fill="none" stroke="#63b8ff" d="M256.52,-39.78C264.57,-38.39 272.83,-36.97 280.6,-35.63"/>
<polygon fill="#63b8ff" stroke="#63b8ff" points="281.19,-39.08 290.45,-33.94 280,-32.18 281.19,-39.08"/>
</a>
</g>
</g>
<!-- Node4&#45;&gt;Node3 -->
<g id="edge4_Node000004_Node000003" class="edge">
<title>Node4&#45;&gt;Node3</title>
<g id="a_edge4_Node000004_Node000003"><a xlink:title=" ">
<path fill="none" stroke="#63b8ff" d="M256.52,-18.22C264.57,-19.61 272.83,-21.03 280.6,-22.37"/>
<polygon fill="#63b8ff" stroke="#63b8ff" points="280,-25.82 290.45,-24.06 281.19,-18.92 280,-25.82"/>
</a>
</g>
</g>
</g>
</svg>
