<?xml version="1.0" encoding="UTF-8" standalone="no"?>
<!DOCTYPE svg PUBLIC "-//W3C//DTD SVG 1.1//EN"
 "http://www.w3.org/Graphics/SVG/1.1/DTD/svg11.dtd">
<!-- Generated by graphviz version 14.0.2 (20251019.1705)
 -->
<!-- Title: duvc_quick_get_camera_property Pages: 1 -->
<svg width="847pt" height="142pt"
 viewBox="0.00 0.00 847.00 142.00" xmlns="http://www.w3.org/2000/svg" xmlns:xlink="http://www.w3.org/1999/xlink">
<g id="graph0" class="graph" transform="scale(1 1) rotate(0) translate(4 138)">
<title>duvc_quick_get_camera_property</title>
<!-- Node1 -->
<g id="Node000001" class="node">
<title>Node1</title>
<g id="a_Node000001"><a xlink:title="Quick get camera property (creates temporary connection)">
<polygon fill="#999999" stroke="#666666" points="121.75,-83 0,-83 0,-51 121.75,-51 121.75,-83"/>
<text xml:space="preserve" text-anchor="start" x="8" y="-69.5" font-family="Helvetica,sans-Serif" font-size="10.00">duvc_quick_get_camera</text>
<text xml:space="preserve" text-anchor="middle" x="60.88" y="-57.5" font-family="Helvetica,sans-Serif" font-size="10.00">_property</text>
</a>
</g>
</g>
<!-- Node2 -->
<g id="Node000002" class="node">
<title>Node2</title>
<g id="a_Node000002"><a xlink:href="namespaceduvc.html#ac682048b44b6b2ee33d99dd460c24f25" target="_top" xlink:title="Create camera from device index.">
<polygon fill="white" stroke="#666666" points="259.25,-77 157.75,-77 157.75,-57 259.25,-57 259.25,-77"/>
<text xml:space="preserve" text-anchor="middle" x="208.5" y="-63.5" font-family="Helvetica,sans-Serif" font-size="10.00">duvc::open_camera</text>
</a>
</g>
</g>
<!-- Node1&#45;&gt;Node2 -->
<g id="edge1_Node000001_Node000002" class="edge">
<title>Node1&#45;&gt;Node2</title>
<g id="a_edge1_Node000001_Node000002"><a xlink:title=" ">
<path fill="none" stroke="#63b8ff" d="M121.95,-67C129.84,-67 137.95,-67 145.87,-67"/>
<polygon fill="#63b8ff" stroke="#63b8ff" points="145.78,-70.5 155.78,-67 145.78,-63.5 145.78,-70.5"/>
</a>
</g>
</g>
<!-- Node2&#45;&gt;Node2 -->
<g id="edge12_Node000002_Node000002" class="edge">
<title>Node2&#45;&gt;Node2</title>
<g id="a_edge12_Node000002_Node000002"><a xlink:title=" ">
<path fill="none" stroke="#63b8ff" d="M187.19,-77.34C178.08,-85.98 185.19,-95 208.5,-95 221.25,-95 229.15,-92.3 232.21,-88.44"/>
<polygon fill="#63b8ff" stroke="#63b8ff" points="235.66,-87.86 230.13,-78.82 228.82,-89.33 235.66,-87.86"/>
</a>
</g>
</g>
<!-- Node3 -->
<g id="Node000003" class="node">
<title>Node3</title>
<g id="a_Node000003"><a xlink:href="namespaceduvc.html#a2c254074ce671320e3e57c56a9389ac1" target="_top" xlink:title="Enumerate all available video input devices.">
<polygon fill="white" stroke="#666666" points="390,-77 295.25,-77 295.25,-57 390,-57 390,-77"/>
<text xml:space="preserve" text-anchor="middle" x="342.62" y="-63.5" font-family="Helvetica,sans-Serif" font-size="10.00">duvc::list_devices</text>
</a>
</g>
</g>
<!-- Node2&#45;&gt;Node3 -->
<g id="edge2_Node000002_Node000003" class="edge">
<title>Node2&#45;&gt;Node3</title>
<g id="a_edge2_Node000002_Node000003"><a xlink:title=" ">
<path fill="none" stroke="#63b8ff" d="M259.45,-67C267.4,-67 275.68,-67 283.79,-67"/>
<polygon fill="#63b8ff" stroke="#63b8ff" points="283.58,-70.5 293.58,-67 283.58,-63.5 283.58,-70.5"/>
</a>
</g>
</g>
<!-- Node4 -->
<g id="Node000004" class="node">
<title>Node4</title>
<g id="a_Node000004"><a xlink:href="namespaceduvc.html#ab7299b8597bf14b18b8351278c209188" target="_top" xlink:title="Create DirectShow device enumerator.">
<polygon fill="white" stroke="#666666" points="553.38,-134 433.12,-134 433.12,-114 553.38,-114 553.38,-134"/>
<text xml:space="preserve" text-anchor="middle" x="493.25" y="-120.5" font-family="Helvetica,sans-Serif" font-size="10.00">duvc::create_dev_enum</text>
</a>
</g>
</g>
<!-- Node3&#45;&gt;Node4 -->
<g id="edge3_Node000003_Node000004" class="edge">
<title>Node3&#45;&gt;Node4</title>
<g id="a_edge3_Node000003_Node000004"><a xlink:title=" ">
<path fill="none" stroke="#63b8ff" d="M363.91,-77.41C380.36,-85.6 404.3,-96.94 426,-105 430.93,-106.83 436.12,-108.59 441.33,-110.26"/>
<polygon fill="#63b8ff" stroke="#63b8ff" points="439.96,-113.5 450.54,-113.08 442.01,-106.8 439.96,-113.5"/>
</a>
</g>
</g>
<!-- Node7 -->
<g id="Node000007" class="node">
<title>Node7</title>
<g id="a_Node000007"><a xlink:href="namespaceduvc.html#a1a577c6cd7e4b3106d6f95c15bbceeed" target="_top" xlink:title="Enumerate video input devices.">
<polygon fill="white" stroke="#666666" points="560.5,-96 426,-96 426,-76 560.5,-76 560.5,-96"/>
<text xml:space="preserve" text-anchor="middle" x="493.25" y="-82.5" font-family="Helvetica,sans-Serif" font-size="10.00">duvc::enum_video_devices</text>
</a>
</g>
</g>
<!-- Node3&#45;&gt;Node7 -->
<g id="edge6_Node000003_Node000007" class="edge">
<title>Node3&#45;&gt;Node7</title>
<g id="a_edge6_Node000003_Node000007"><a xlink:title=" ">
<path fill="none" stroke="#63b8ff" d="M390.24,-72.96C397.97,-73.95 406.16,-74.99 414.41,-76.05"/>
<polygon fill="#63b8ff" stroke="#63b8ff" points="413.79,-79.5 424.16,-77.29 414.68,-72.56 413.79,-79.5"/>
</a>
</g>
</g>
<!-- Node8 -->
<g id="Node000008" class="node">
<title>Node8</title>
<g id="a_Node000008"><a xlink:href="namespaceduvc.html#a2c2b6f32c6871ad36ae0bf98d9374fd0" target="_top" xlink:title="Read device path from moniker.">
<polygon fill="white" stroke="#666666" points="553,-58 433.5,-58 433.5,-38 553,-38 553,-58"/>
<text xml:space="preserve" text-anchor="middle" x="493.25" y="-44.5" font-family="Helvetica,sans-Serif" font-size="10.00">duvc::read_device_path</text>
</a>
</g>
</g>
<!-- Node3&#45;&gt;Node8 -->
<g id="edge8_Node000003_Node000008" class="edge">
<title>Node3&#45;&gt;Node8</title>
<g id="a_edge8_Node000003_Node000008"><a xlink:title=" ">
<path fill="none" stroke="#63b8ff" d="M390.24,-61.04C400.35,-59.75 411.26,-58.35 422.05,-56.97"/>
<polygon fill="#63b8ff" stroke="#63b8ff" points="422.24,-60.48 431.71,-55.74 421.35,-53.54 422.24,-60.48"/>
</a>
</g>
</g>
<!-- Node10 -->
<g id="Node000010" class="node">
<title>Node10</title>
<g id="a_Node000010"><a xlink:href="namespaceduvc.html#a019644436e5f0add38b6242843b79fef" target="_top" xlink:title="Read friendly name from device moniker.">
<polygon fill="white" stroke="#666666" points="557.12,-20 429.38,-20 429.38,0 557.12,0 557.12,-20"/>
<text xml:space="preserve" text-anchor="middle" x="493.25" y="-6.5" font-family="Helvetica,sans-Serif" font-size="10.00">duvc::read_friendly_name</text>
</a>
</g>
</g>
<!-- Node3&#45;&gt;Node10 -->
<g id="edge10_Node000003_Node000010" class="edge">
<title>Node3&#45;&gt;Node10</title>
<g id="a_edge10_Node000003_Node000010"><a xlink:title=" ">
<path fill="none" stroke="#63b8ff" d="M363.91,-56.59C380.36,-48.4 404.3,-37.06 426,-29 430.93,-27.17 436.12,-25.41 441.33,-23.74"/>
<polygon fill="#63b8ff" stroke="#63b8ff" points="442.01,-27.2 450.54,-20.92 439.96,-20.5 442.01,-27.2"/>
</a>
</g>
</g>
<!-- Node5 -->
<g id="Node000005" class="node">
<title>Node5</title>
<g id="a_Node000005"><a xlink:href="namespaceduvc.html#a21b444574354018097d4489a9ff0ff9e" target="_top" xlink:title=" ">
<polygon fill="white" stroke="#666666" points="690.5,-115 610,-115 610,-95 690.5,-95 690.5,-115"/>
<text xml:space="preserve" text-anchor="middle" x="650.25" y="-101.5" font-family="Helvetica,sans-Serif" font-size="10.00">duvc::throw_hr</text>
</a>
</g>
</g>
<!-- Node4&#45;&gt;Node5 -->
<g id="edge4_Node000004_Node000005" class="edge">
<title>Node4&#45;&gt;Node5</title>
<g id="a_edge4_Node000004_Node000005"><a xlink:title=" ">
<path fill="none" stroke="#63b8ff" d="M553.73,-116.71C568.55,-114.89 584.3,-112.96 598.65,-111.2"/>
<polygon fill="#63b8ff" stroke="#63b8ff" points="598.81,-114.71 608.31,-110.02 597.96,-107.76 598.81,-114.71"/>
</a>
</g>
</g>
<!-- Node6 -->
<g id="Node000006" class="node">
<title>Node6</title>
<g id="a_Node000006"><a xlink:href="namespaceduvc.html#a02d5c5b2e56515cee2cad9057af0467d" target="_top" xlink:title=" ">
<polygon fill="white" stroke="#666666" points="838.5,-115 740,-115 740,-95 838.5,-95 838.5,-115"/>
<text xml:space="preserve" text-anchor="middle" x="789.25" y="-101.5" font-family="Helvetica,sans-Serif" font-size="10.00">duvc::wide_to_utf8</text>
</a>
</g>
</g>
<!-- Node5&#45;&gt;Node6 -->
<g id="edge5_Node000005_Node000006" class="edge">
<title>Node5&#45;&gt;Node6</title>
<g id="a_edge5_Node000005_Node000006"><a xlink:title=" ">
<path fill="none" stroke="#63b8ff" d="M690.88,-105C702.61,-105 715.74,-105 728.45,-105"/>
<polygon fill="#63b8ff" stroke="#63b8ff" points="728.45,-108.5 738.45,-105 728.45,-101.5 728.45,-108.5"/>
</a>
</g>
</g>
<!-- Node7&#45;&gt;Node5 -->
<g id="edge7_Node000007_Node000005" class="edge">
<title>Node7&#45;&gt;Node5</title>
<g id="a_edge7_Node000007_Node000005"><a xlink:title=" ">
<path fill="none" stroke="#63b8ff" d="M560.88,-94.17C573.44,-95.71 586.39,-97.29 598.37,-98.76"/>
<polygon fill="#63b8ff" stroke="#63b8ff" points="597.67,-102.2 608.02,-99.95 598.52,-95.26 597.67,-102.2"/>
</a>
</g>
</g>
<!-- Node9 -->
<g id="Node000009" class="node">
<title>Node9</title>
<g id="a_Node000009"><a xlink:href="namespaceduvc.html#a0dbd37821c1cae29fa72d44e3dbd0583" target="_top" xlink:title=" ">
<polygon fill="white" stroke="#666666" points="704,-39 596.5,-39 596.5,-19 704,-19 704,-39"/>
<text xml:space="preserve" text-anchor="middle" x="650.25" y="-25.5" font-family="Helvetica,sans-Serif" font-size="10.00">duvc::read_prop_bstr</text>
</a>
</g>
</g>
<!-- Node8&#45;&gt;Node9 -->
<g id="edge9_Node000008_Node000009" class="edge">
<title>Node8&#45;&gt;Node9</title>
<g id="a_edge9_Node000008_Node000009"><a xlink:title=" ">
<path fill="none" stroke="#63b8ff" d="M553.29,-40.76C563.66,-39.49 574.49,-38.16 584.99,-36.88"/>
<polygon fill="#63b8ff" stroke="#63b8ff" points="585.21,-40.38 594.71,-35.68 584.36,-33.43 585.21,-40.38"/>
</a>
</g>
</g>
<!-- Node10&#45;&gt;Node9 -->
<g id="edge11_Node000010_Node000009" class="edge">
<title>Node10&#45;&gt;Node9</title>
<g id="a_edge11_Node000010_Node000009"><a xlink:title=" ">
<path fill="none" stroke="#63b8ff" d="M557.29,-17.73C566.37,-18.84 575.72,-19.99 584.82,-21.1"/>
<polygon fill="#63b8ff" stroke="#63b8ff" points="584.32,-24.57 594.68,-22.31 585.18,-17.62 584.32,-24.57"/>
</a>
</g>
</g>
</g>
</svg>
