<?xml version="1.0" encoding="UTF-8" standalone="no"?>
<!DOCTYPE svg PUBLIC "-//W3C//DTD SVG 1.1//EN"
 "http://www.w3.org/Graphics/SVG/1.1/DTD/svg11.dtd">
<!-- Generated by graphviz version 14.0.2 (20251019.1705)
 -->
<!-- Title: c/api.cpp Pages: 1 -->
<!--zoomable 288 -->

<svg id="main" version="1.1" xmlns="http://www.w3.org/2000/svg" xmlns:xlink="http://www.w3.org/1999/xlink" xml:space="preserve" onload="init(evt)">
<style type="text/css"><![CDATA[
.node, .edge {opacity: 0.7;}
.node.selected, .edge.selected {opacity: 1;}
.edge:hover path { stroke: red; }
.edge:hover polygon { stroke: red; fill: red; }
]]></style>

<defs>
  <circle id="rim" cx="0" cy="0" r="7"/>
  <circle id="rim2" cx="0" cy="0" r="3.5"/>
  <g id="zoomPlus">
    <use xlink:href="#rim" fill="#404040"><set attributeName="fill" to="#808080" begin="zoomplus.mouseover" end="zoomplus.mouseout"/></use>
    <path d="M-4,0h8M0,-4v8" fill="none" stroke="white" stroke-width="1.5" pointer-events="none"/>
  </g>
  <g id="zoomMin">
    <use xlink:href="#rim" fill="#404040"><set attributeName="fill" to="#808080" begin="zoomminus.mouseover" end="zoomminus.mouseout"/></use>
    <path d="M-4,0h8" fill="none" stroke="white" stroke-width="1.5" pointer-events="none"/>
  </g>
  <g id="arrowUp" transform="translate(30 24)">
    <use xlink:href="#rim"/>
    <path pointer-events="none" fill="none" stroke="white" stroke-width="1.5" d="M0,-3.0v7 M-2.5,-0.5L0,-3.0L2.5,-0.5"/>
  </g>
  <g id="arrowRight" transform="rotate(90) translate(36 -43)">
    <use xlink:href="#rim"/>
    <path pointer-events="none" fill="none" stroke="white" stroke-width="1.5" d="M0,-3.0v7 M-2.5,-0.5L0,-3.0L2.5,-0.5"/>
  </g>
  <g id="arrowDown" transform="rotate(180) translate(-30 -48)">
    <use xlink:href="#rim"/>
    <path pointer-events="none" fill="none" stroke="white" stroke-width="1.5" d="M0,-3.0v7 M-2.5,-0.5L0,-3.0L2.5,-0.5"/>
  </g>
  <g id="arrowLeft" transform="rotate(270) translate(-36 17)">
    <use xlink:href="#rim"/>
    <path pointer-events="none" fill="none" stroke="white" stroke-width="1.5" d="M0,-3.0v7 M-2.5,-0.5L0,-3.0L2.5,-0.5"/>
  </g>
  <g id="resetDef">
    <use xlink:href="#rim2" fill="#404040"><set attributeName="fill" to="#808080" begin="reset.mouseover" end="reset.mouseout"/></use>
  </g>
</defs>
<script type="application/ecmascript">
var viewWidth = 1454;
var viewHeight = 288;
var sectionId = 'dynsection-0';
</script>
<script type="application/ecmascript" xlink:href="svg.min.js"/>
<svg id="graph" class="graph">
<g id="viewport">
<title>c/api.cpp</title>
<!-- Node1 -->
<g id="Node000001" class="node">
<title>Node1</title>
<g id="a_Node000001"><a xlink:title="Complete C ABI implementation for duvc&#45;ctl library.">
<polygon fill="#999999" stroke="#666666" points="868.5,-280 812.75,-280 812.75,-260 868.5,-260 868.5,-280"/>
<text xml:space="preserve" text-anchor="middle" x="840.62" y="-266.5" font-family="Helvetica,sans-Serif" font-size="10.00">c/api.cpp</text>
</a>
</g>
</g>
<!-- Node2 -->
<g id="Node000002" class="node">
<title>Node2</title>
<g id="a_Node000002"><a xlink:href="api_8h.html" target="_top" xlink:title="Complete C ABI for duvc&#45;ctl with comprehensive API coverage.">
<polygon fill="white" stroke="#666666" points="127,-218 44.25,-218 44.25,-198 127,-198 127,-218"/>
<text xml:space="preserve" text-anchor="middle" x="85.62" y="-204.5" font-family="Helvetica,sans-Serif" font-size="10.00">duvc&#45;ctl/c/api.h</text>
</a>
</g>
</g>
<!-- Node1&#45;&gt;Node2 -->
<g id="edge1_Node000001_Node000002" class="edge">
<title>Node1&#45;&gt;Node2</title>
<g id="a_edge1_Node000001_Node000002"><a xlink:title=" ">
<path fill="none" stroke="#63b8ff" d="M812.38,-269.22C717.08,-269.53 398.88,-267.06 140.62,-224 136.19,-223.26 131.6,-222.31 127.05,-221.25"/>
<polygon fill="#63b8ff" stroke="#63b8ff" points="127.95,-217.87 117.4,-218.81 126.23,-224.66 127.95,-217.87"/>
</a>
</g>
</g>
<!-- Node5 -->
<g id="Node000005" class="node">
<title>Node5</title>
<g id="a_Node000005"><a xlink:href="camera_8h.html" target="_top" xlink:title="RAII camera handle for simplified device management.">
<polygon fill="white" stroke="#666666" points="640.5,-150 524.75,-150 524.75,-130 640.5,-130 640.5,-150"/>
<text xml:space="preserve" text-anchor="middle" x="582.62" y="-136.5" font-family="Helvetica,sans-Serif" font-size="10.00">duvc&#45;ctl/core/camera.h</text>
</a>
</g>
</g>
<!-- Node1&#45;&gt;Node5 -->
<g id="edge4_Node000001_Node000005" class="edge">
<title>Node1&#45;&gt;Node5</title>
<g id="a_edge4_Node000001_Node000005"><a xlink:title=" ">
<path fill="none" stroke="#63b8ff" d="M812.45,-267.59C755.48,-264.14 629.45,-253.31 599.62,-224 583.26,-207.92 580.53,-180.61 580.89,-161.74"/>
<polygon fill="#63b8ff" stroke="#63b8ff" points="584.38,-161.94 581.42,-151.77 577.39,-161.57 584.38,-161.94"/>
</a>
</g>
</g>
<!-- Node6 -->
<g id="Node000006" class="node">
<title>Node6</title>
<g id="a_Node000006"><a xlink:href="result_8h.html" target="_top" xlink:title="Result/Error type system for duvc&#45;ctl.">
<polygon fill="white" stroke="#666666" points="282.38,-82 174.88,-82 174.88,-62 282.38,-62 282.38,-82"/>
<text xml:space="preserve" text-anchor="middle" x="228.62" y="-68.5" font-family="Helvetica,sans-Serif" font-size="10.00">duvc&#45;ctl/core/result.h</text>
</a>
</g>
</g>
<!-- Node1&#45;&gt;Node6 -->
<g id="edge25_Node000001_Node000006" class="edge">
<title>Node1&#45;&gt;Node6</title>
<g id="a_edge25_Node000001_Node000006"><a xlink:title=" ">
<path fill="none" stroke="#63b8ff" d="M812.53,-269.1C710.14,-269.11 357.6,-266.03 254.62,-224 211.11,-206.24 193.48,-198.6 173.62,-156 167.62,-143.11 167.94,-137.03 173.62,-124 179.81,-109.83 192.09,-97.83 203.48,-89.04"/>
<polygon fill="#63b8ff" stroke="#63b8ff" points="205.38,-91.99 211.46,-83.31 201.29,-86.3 205.38,-91.99"/>
</a>
</g>
</g>
<!-- Node9 -->
<g id="Node000009" class="node">
<title>Node9</title>
<g id="a_Node000009"><a xlink:title=" ">
<polygon fill="#e0e0e0" stroke="#999999" points="994.62,-20 954.62,-20 954.62,0 994.62,0 994.62,-20"/>
<text xml:space="preserve" text-anchor="middle" x="974.62" y="-6.5" font-family="Helvetica,sans-Serif" font-size="10.00">string</text>
</a>
</g>
</g>
<!-- Node1&#45;&gt;Node9 -->
<g id="edge45_Node000001_Node000009" class="edge">
<title>Node1&#45;&gt;Node9</title>
<g id="a_edge45_Node000001_Node000009"><a xlink:title=" ">
<path fill="none" stroke="#63b8ff" d="M868.93,-268.89C938.27,-268.04 1113.99,-262.07 1155.62,-224 1211.97,-172.47 1182.24,-99.71 1119.62,-56 1085.13,-31.92 1037.28,-20.37 1006.14,-15.09"/>
<polygon fill="#63b8ff" stroke="#63b8ff" points="1007.01,-11.69 996.58,-13.6 1005.92,-18.6 1007.01,-11.69"/>
</a>
</g>
</g>
<!-- Node12 -->
<g id="Node000012" class="node">
<title>Node12</title>
<g id="a_Node000012"><a xlink:href="types_8h.html" target="_top" xlink:title="Core data types and enumerations for duvc&#45;ctl.">
<polygon fill="white" stroke="#666666" points="960.38,-82 852.88,-82 852.88,-62 960.38,-62 960.38,-82"/>
<text xml:space="preserve" text-anchor="middle" x="906.62" y="-68.5" font-family="Helvetica,sans-Serif" font-size="10.00">duvc&#45;ctl/core/types.h</text>
</a>
</g>
</g>
<!-- Node1&#45;&gt;Node12 -->
<g id="edge26_Node000001_Node000012" class="edge">
<title>Node1&#45;&gt;Node12</title>
<g id="a_edge26_Node000001_Node000012"><a xlink:title=" ">
<path fill="none" stroke="#63b8ff" d="M868.89,-265.75C894.3,-261.17 930.23,-250.19 947.62,-224 975.46,-182.1 941.58,-121.81 920.7,-91.66"/>
<polygon fill="#63b8ff" stroke="#63b8ff" points="923.55,-89.63 914.86,-83.56 917.87,-93.72 923.55,-89.63"/>
</a>
</g>
</g>
<!-- Node13 -->
<g id="Node000013" class="node">
<title>Node13</title>
<g id="a_Node000013"><a xlink:title=" ">
<polygon fill="#e0e0e0" stroke="#999999" points="565.25,-82 514,-82 514,-62 565.25,-62 565.25,-82"/>
<text xml:space="preserve" text-anchor="middle" x="539.62" y="-68.5" font-family="Helvetica,sans-Serif" font-size="10.00">memory</text>
</a>
</g>
</g>
<!-- Node1&#45;&gt;Node13 -->
<g id="edge43_Node000001_Node000013" class="edge">
<title>Node1&#45;&gt;Node13</title>
<g id="a_edge43_Node000001_Node000013"><a xlink:title=" ">
<path fill="none" stroke="#63b8ff" d="M812.48,-269.82C762.51,-270.09 656.37,-265.25 579.62,-224 543.07,-204.35 530.92,-194.58 515.62,-156 507.11,-134.52 517.53,-108.84 527.18,-91.79"/>
<polygon fill="#63b8ff" stroke="#63b8ff" points="529.9,-94.06 532.13,-83.7 523.93,-90.41 529.9,-94.06"/>
</a>
</g>
</g>
<!-- Node14 -->
<g id="Node000014" class="node">
<title>Node14</title>
<g id="a_Node000014"><a xlink:href="capability_8h.html" target="_top" xlink:title="Device capability detection and snapshots using Camera API.">
<polygon fill="white" stroke="#666666" points="732.62,-218 608.62,-218 608.62,-198 732.62,-198 732.62,-218"/>
<text xml:space="preserve" text-anchor="middle" x="670.62" y="-204.5" font-family="Helvetica,sans-Serif" font-size="10.00">duvc&#45;ctl/core/capability.h</text>
</a>
</g>
</g>
<!-- Node1&#45;&gt;Node14 -->
<g id="edge14_Node000001_Node000014" class="edge">
<title>Node1&#45;&gt;Node14</title>
<g id="a_edge14_Node000001_Node000014"><a xlink:title=" ">
<path fill="none" stroke="#63b8ff" d="M814.06,-259.62C785.58,-249.57 740.12,-233.53 708.03,-222.2"/>
<polygon fill="#63b8ff" stroke="#63b8ff" points="709.3,-218.94 698.71,-218.91 706.97,-225.54 709.3,-218.94"/>
</a>
</g>
</g>
<!-- Node15 -->
<g id="Node000015" class="node">
<title>Node15</title>
<g id="a_Node000015"><a xlink:title=" ">
<polygon fill="#e0e0e0" stroke="#999999" points="817,-150 734.25,-150 734.25,-130 817,-130 817,-150"/>
<text xml:space="preserve" text-anchor="middle" x="775.62" y="-136.5" font-family="Helvetica,sans-Serif" font-size="10.00">unordered_map</text>
</a>
</g>
</g>
<!-- Node1&#45;&gt;Node15 -->
<g id="edge46_Node000001_Node000015" class="edge">
<title>Node1&#45;&gt;Node15</title>
<g id="a_edge46_Node000001_Node000015"><a xlink:title=" ">
<path fill="none" stroke="#63b8ff" d="M833.64,-259.67C827.19,-250.79 817.56,-236.9 810.62,-224 799.48,-203.29 789.35,-178.26 782.89,-161.14"/>
<polygon fill="#63b8ff" stroke="#63b8ff" points="786.22,-160.07 779.48,-151.9 779.66,-162.49 786.22,-160.07"/>
</a>
</g>
</g>
<!-- Node16 -->
<g id="Node000016" class="node">
<title>Node16</title>
<g id="a_Node000016"><a xlink:title=" ">
<polygon fill="#e0e0e0" stroke="#999999" points="878.12,-150 835.12,-150 835.12,-130 878.12,-130 878.12,-150"/>
<text xml:space="preserve" text-anchor="middle" x="856.62" y="-136.5" font-family="Helvetica,sans-Serif" font-size="10.00">vector</text>
</a>
</g>
</g>
<!-- Node1&#45;&gt;Node16 -->
<g id="edge47_Node000001_Node000016" class="edge">
<title>Node1&#45;&gt;Node16</title>
<g id="a_edge47_Node000001_Node000016"><a xlink:title=" ">
<path fill="none" stroke="#63b8ff" d="M834.09,-259.52C828.47,-250.75 820.79,-237.14 817.62,-224 814.3,-210.17 813.06,-205.47 817.62,-192 821.86,-179.49 830.53,-167.63 838.62,-158.51"/>
<polygon fill="#63b8ff" stroke="#63b8ff" points="840.96,-161.13 845.3,-151.46 835.88,-156.32 840.96,-161.13"/>
</a>
</g>
</g>
<!-- Node17 -->
<g id="Node000017" class="node">
<title>Node17</title>
<g id="a_Node000017"><a xlink:href="device_8h.html" target="_top" xlink:title="Device enumeration and management functions.">
<polygon fill="white" stroke="#666666" points="938.62,-218 826.62,-218 826.62,-198 938.62,-198 938.62,-218"/>
<text xml:space="preserve" text-anchor="middle" x="882.62" y="-204.5" font-family="Helvetica,sans-Serif" font-size="10.00">duvc&#45;ctl/core/device.h</text>
</a>
</g>
</g>
<!-- Node1&#45;&gt;Node17 -->
<g id="edge21_Node000001_Node000017" class="edge">
<title>Node1&#45;&gt;Node17</title>
<g id="a_edge21_Node000001_Node000017"><a xlink:title=" ">
<path fill="none" stroke="#63b8ff" d="M847.19,-259.62C853.2,-251.03 862.28,-238.07 869.74,-227.41"/>
<polygon fill="#63b8ff" stroke="#63b8ff" points="872.51,-229.55 875.38,-219.35 866.78,-225.54 872.51,-229.55"/>
</a>
</g>
</g>
<!-- Node19 -->
<g id="Node000019" class="node">
<title>Node19</title>
<g id="a_Node000019"><a xlink:href="error__decoder_8h.html" target="_top" xlink:title="HRESULT decoder and diagnostics utilities.">
<polygon fill="white" stroke="#666666" points="357.62,-224 263.62,-224 263.62,-192 357.62,-192 357.62,-224"/>
<text xml:space="preserve" text-anchor="start" x="271.62" y="-210.5" font-family="Helvetica,sans-Serif" font-size="10.00">duvc&#45;ctl/utils/error</text>
<text xml:space="preserve" text-anchor="middle" x="310.62" y="-198.5" font-family="Helvetica,sans-Serif" font-size="10.00">_decoder.h</text>
</a>
</g>
</g>
<!-- Node1&#45;&gt;Node19 -->
<g id="edge27_Node000001_Node000019" class="edge">
<title>Node1&#45;&gt;Node19</title>
<g id="a_edge27_Node000001_Node000019"><a xlink:title=" ">
<path fill="none" stroke="#63b8ff" d="M812.37,-266.32C744.34,-259.8 566.05,-242.29 417.62,-224 401.89,-222.06 384.89,-219.77 369.17,-217.57"/>
<polygon fill="#63b8ff" stroke="#63b8ff" points="369.88,-214.13 359.49,-216.2 368.9,-221.06 369.88,-214.13"/>
</a>
</g>
</g>
<!-- Node21 -->
<g id="Node000021" class="node">
<title>Node21</title>
<g id="a_Node000021"><a xlink:href="logging_8h.html" target="_top" xlink:title="Structured logging interface for duvc&#45;ctl.">
<polygon fill="white" stroke="#666666" points="1146.38,-218 1032.88,-218 1032.88,-198 1146.38,-198 1146.38,-218"/>
<text xml:space="preserve" text-anchor="middle" x="1089.62" y="-204.5" font-family="Helvetica,sans-Serif" font-size="10.00">duvc&#45;ctl/utils/logging.h</text>
</a>
</g>
</g>
<!-- Node1&#45;&gt;Node21 -->
<g id="edge30_Node000001_Node000021" class="edge">
<title>Node1&#45;&gt;Node21</title>
<g id="a_edge30_Node000001_Node000021"><a xlink:title=" ">
<path fill="none" stroke="#63b8ff" d="M868.7,-262.23C909.97,-252.29 987.66,-233.57 1039.03,-221.19"/>
<polygon fill="#63b8ff" stroke="#63b8ff" points="1039.83,-224.6 1048.73,-218.85 1038.19,-217.79 1039.83,-224.6"/>
</a>
</g>
</g>
<!-- Node22 -->
<g id="Node000022" class="node">
<title>Node22</title>
<g id="a_Node000022"><a xlink:href="string__conversion_8h.html" target="_top" xlink:title="String conversion utilities for enums and types.">
<polygon fill="white" stroke="#666666" points="1146.88,-156 1048.38,-156 1048.38,-124 1146.88,-124 1146.88,-156"/>
<text xml:space="preserve" text-anchor="start" x="1056.38" y="-142.5" font-family="Helvetica,sans-Serif" font-size="10.00">duvc&#45;ctl/utils/string</text>
<text xml:space="preserve" text-anchor="middle" x="1097.62" y="-130.5" font-family="Helvetica,sans-Serif" font-size="10.00">_conversion.h</text>
</a>
</g>
</g>
<!-- Node1&#45;&gt;Node22 -->
<g id="edge33_Node000001_Node000022" class="edge">
<title>Node1&#45;&gt;Node22</title>
<g id="a_edge33_Node000001_Node000022"><a xlink:title=" ">
<path fill="none" stroke="#63b8ff" d="M868.79,-262.85C897.84,-255.84 943.97,-242.87 980.62,-224 1001.81,-213.1 1004.26,-205.87 1023.62,-192 1037.17,-182.3 1052.29,-171.82 1065.31,-162.89"/>
<polygon fill="#63b8ff" stroke="#63b8ff" points="1067.27,-165.8 1073.56,-157.27 1063.32,-160.01 1067.27,-165.8"/>
</a>
</g>
</g>
<!-- Node23 -->
<g id="Node000023" class="node">
<title>Node23</title>
<g id="a_Node000023"><a xlink:href="connection__pool_8h.html" target="_top" xlink:title="Windows&#45;specific device connection pooling.">
<polygon fill="white" stroke="#666666" points="468.62,-156 338.62,-156 338.62,-124 468.62,-124 468.62,-156"/>
<text xml:space="preserve" text-anchor="start" x="346.62" y="-142.5" font-family="Helvetica,sans-Serif" font-size="10.00">duvc&#45;ctl/platform/windows</text>
<text xml:space="preserve" text-anchor="middle" x="403.62" y="-130.5" font-family="Helvetica,sans-Serif" font-size="10.00">/connection_pool.h</text>
</a>
</g>
</g>
<!-- Node1&#45;&gt;Node23 -->
<g id="edge36_Node000001_Node000023" class="edge">
<title>Node1&#45;&gt;Node23</title>
<g id="a_edge36_Node000001_Node000023"><a xlink:title=" ">
<path fill="none" stroke="#63b8ff" d="M812.39,-267.88C738.37,-264.58 540.43,-253.19 482.62,-224 456.31,-210.71 433.99,-185 419.86,-165.7"/>
<polygon fill="#63b8ff" stroke="#63b8ff" points="422.73,-163.69 414.11,-157.53 417,-167.72 422.73,-163.69"/>
</a>
</g>
</g>
<!-- Node25 -->
<g id="Node000025" class="node">
<title>Node25</title>
<g id="a_Node000025"><a xlink:title=" ">
<polygon fill="#e0e0e0" stroke="#999999" points="1258.5,-218 1202.75,-218 1202.75,-198 1258.5,-198 1258.5,-218"/>
<text xml:space="preserve" text-anchor="middle" x="1230.62" y="-204.5" font-family="Helvetica,sans-Serif" font-size="10.00">algorithm</text>
</a>
</g>
</g>
<!-- Node1&#45;&gt;Node25 -->
<g id="edge40_Node000001_Node000025" class="edge">
<title>Node1&#45;&gt;Node25</title>
<g id="a_edge40_Node000001_Node000025"><a xlink:title=" ">
<path fill="none" stroke="#63b8ff" d="M868.96,-267.4C928.76,-263.57 1071.93,-252.04 1188.62,-224 1191.07,-223.41 1193.57,-222.73 1196.08,-221.99"/>
<polygon fill="#63b8ff" stroke="#63b8ff" points="1197.04,-225.36 1205.47,-218.94 1194.87,-218.7 1197.04,-225.36"/>
</a>
</g>
</g>
<!-- Node26 -->
<g id="Node000026" class="node">
<title>Node26</title>
<g id="a_Node000026"><a xlink:title=" ">
<polygon fill="#e0e0e0" stroke="#999999" points="1322.25,-218 1277,-218 1277,-198 1322.25,-198 1322.25,-218"/>
<text xml:space="preserve" text-anchor="middle" x="1299.62" y="-204.5" font-family="Helvetica,sans-Serif" font-size="10.00">atomic</text>
</a>
</g>
</g>
<!-- Node1&#45;&gt;Node26 -->
<g id="edge41_Node000001_Node000026" class="edge">
<title>Node1&#45;&gt;Node26</title>
<g id="a_edge41_Node000001_Node000026"><a xlink:title=" ">
<path fill="none" stroke="#63b8ff" d="M868.95,-269.23C938.32,-269.12 1121.67,-264.66 1267.62,-224 1268.99,-223.62 1270.37,-223.19 1271.74,-222.71"/>
<polygon fill="#63b8ff" stroke="#63b8ff" points="1272.75,-226.08 1280.69,-219.07 1270.11,-219.6 1272.75,-226.08"/>
</a>
</g>
</g>
<!-- Node27 -->
<g id="Node000027" class="node">
<title>Node27</title>
<g id="a_Node000027"><a xlink:title=" ">
<polygon fill="#e0e0e0" stroke="#999999" points="1385.25,-218 1340,-218 1340,-198 1385.25,-198 1385.25,-218"/>
<text xml:space="preserve" text-anchor="middle" x="1362.62" y="-204.5" font-family="Helvetica,sans-Serif" font-size="10.00">cstring</text>
</a>
</g>
</g>
<!-- Node1&#45;&gt;Node27 -->
<g id="edge42_Node000001_Node000027" class="edge">
<title>Node1&#45;&gt;Node27</title>
<g id="a_edge42_Node000001_Node000027"><a xlink:title=" ">
<path fill="none" stroke="#63b8ff" d="M868.81,-267.74C959.56,-263.49 1243.38,-248.52 1331.62,-224 1332.99,-223.62 1334.36,-223.19 1335.73,-222.71"/>
<polygon fill="#63b8ff" stroke="#63b8ff" points="1336.74,-226.08 1344.61,-218.98 1334.03,-219.62 1336.74,-226.08"/>
</a>
</g>
</g>
<!-- Node28 -->
<g id="Node000028" class="node">
<title>Node28</title>
<g id="a_Node000028"><a xlink:title=" ">
<polygon fill="#e0e0e0" stroke="#999999" points="1446.12,-218 1403.12,-218 1403.12,-198 1446.12,-198 1446.12,-218"/>
<text xml:space="preserve" text-anchor="middle" x="1424.62" y="-204.5" font-family="Helvetica,sans-Serif" font-size="10.00">mutex</text>
</a>
</g>
</g>
<!-- Node1&#45;&gt;Node28 -->
<g id="edge44_Node000001_Node000028" class="edge">
<title>Node1&#45;&gt;Node28</title>
<g id="a_edge44_Node000001_Node000028"><a xlink:title=" ">
<path fill="none" stroke="#63b8ff" d="M868.94,-268.12C967.35,-264.86 1294.02,-252.1 1394.62,-224 1395.8,-223.67 1396.99,-223.3 1398.17,-222.88"/>
<polygon fill="#63b8ff" stroke="#63b8ff" points="1399.37,-226.18 1407.18,-219.03 1396.61,-219.74 1399.37,-226.18"/>
</a>
</g>
</g>
<!-- Node3 -->
<g id="Node000003" class="node">
<title>Node3</title>
<g id="a_Node000003"><a xlink:title=" ">
<polygon fill="#e0e0e0" stroke="#999999" points="51.25,-150 0,-150 0,-130 51.25,-130 51.25,-150"/>
<text xml:space="preserve" text-anchor="middle" x="25.62" y="-136.5" font-family="Helvetica,sans-Serif" font-size="10.00">stddef.h</text>
</a>
</g>
</g>
<!-- Node2&#45;&gt;Node3 -->
<g id="edge2_Node000002_Node000003" class="edge">
<title>Node2&#45;&gt;Node3</title>
<g id="a_edge2_Node000002_Node000003"><a xlink:title=" ">
<path fill="none" stroke="#63b8ff" d="M77.03,-197.54C67.85,-187.45 53.09,-171.22 41.74,-158.73"/>
<polygon fill="#63b8ff" stroke="#63b8ff" points="44.54,-156.6 35.22,-151.56 39.36,-161.31 44.54,-156.6"/>
</a>
</g>
</g>
<!-- Node4 -->
<g id="Node000004" class="node">
<title>Node4</title>
<g id="a_Node000004"><a xlink:title=" ">
<polygon fill="#e0e0e0" stroke="#999999" points="117.75,-150 69.5,-150 69.5,-130 117.75,-130 117.75,-150"/>
<text xml:space="preserve" text-anchor="middle" x="93.62" y="-136.5" font-family="Helvetica,sans-Serif" font-size="10.00">stdint.h</text>
</a>
</g>
</g>
<!-- Node2&#45;&gt;Node4 -->
<g id="edge3_Node000002_Node000004" class="edge">
<title>Node2&#45;&gt;Node4</title>
<g id="a_edge3_Node000002_Node000004"><a xlink:title=" ">
<path fill="none" stroke="#63b8ff" d="M86.77,-197.54C87.9,-188.23 89.66,-173.7 91.12,-161.7"/>
<polygon fill="#63b8ff" stroke="#63b8ff" points="94.57,-162.29 92.3,-151.94 87.62,-161.45 94.57,-162.29"/>
</a>
</g>
</g>
<!-- Node5&#45;&gt;Node6 -->
<g id="edge5_Node000005_Node000006" class="edge">
<title>Node5&#45;&gt;Node6</title>
<g id="a_edge5_Node000005_Node000006"><a xlink:title=" ">
<path fill="none" stroke="#63b8ff" d="M531.91,-129.54C468.25,-117.68 359.12,-97.33 290.59,-84.55"/>
<polygon fill="#63b8ff" stroke="#63b8ff" points="291.5,-81.16 281.03,-82.77 290.21,-88.04 291.5,-81.16"/>
</a>
</g>
</g>
<!-- Node5&#45;&gt;Node12 -->
<g id="edge11_Node000005_Node000012" class="edge">
<title>Node5&#45;&gt;Node12</title>
<g id="a_edge11_Node000005_Node000012"><a xlink:title=" ">
<path fill="none" stroke="#63b8ff" d="M629.05,-129.54C687.07,-117.72 786.36,-97.5 849.13,-84.71"/>
<polygon fill="#63b8ff" stroke="#63b8ff" points="849.44,-88.22 858.54,-82.79 848.05,-81.36 849.44,-88.22"/>
</a>
</g>
</g>
<!-- Node5&#45;&gt;Node13 -->
<g id="edge13_Node000005_Node000013" class="edge">
<title>Node5&#45;&gt;Node13</title>
<g id="a_edge13_Node000005_Node000013"><a xlink:title=" ">
<path fill="none" stroke="#63b8ff" d="M576.46,-129.54C570.08,-119.74 559.92,-104.16 551.89,-91.83"/>
<polygon fill="#63b8ff" stroke="#63b8ff" points="554.99,-90.17 546.6,-83.71 549.13,-94 554.99,-90.17"/>
</a>
</g>
</g>
<!-- Node7 -->
<g id="Node000007" class="node">
<title>Node7</title>
<g id="a_Node000007"><a xlink:title=" ">
<polygon fill="#e0e0e0" stroke="#999999" points="289.38,-20 235.88,-20 235.88,0 289.38,0 289.38,-20"/>
<text xml:space="preserve" text-anchor="middle" x="262.62" y="-6.5" font-family="Helvetica,sans-Serif" font-size="10.00">iostream</text>
</a>
</g>
</g>
<!-- Node6&#45;&gt;Node7 -->
<g id="edge6_Node000006_Node000007" class="edge">
<title>Node6&#45;&gt;Node7</title>
<g id="a_edge6_Node000006_Node000007"><a xlink:title=" ">
<path fill="none" stroke="#63b8ff" d="M233.94,-61.62C238.71,-53.21 245.85,-40.6 251.82,-30.07"/>
<polygon fill="#63b8ff" stroke="#63b8ff" points="254.83,-31.86 256.71,-21.43 248.74,-28.4 254.83,-31.86"/>
</a>
</g>
</g>
<!-- Node8 -->
<g id="Node000008" class="node">
<title>Node8</title>
<g id="a_Node000008"><a xlink:title=" ">
<polygon fill="#e0e0e0" stroke="#999999" points="357.5,-20 307.75,-20 307.75,0 357.5,0 357.5,-20"/>
<text xml:space="preserve" text-anchor="middle" x="332.62" y="-6.5" font-family="Helvetica,sans-Serif" font-size="10.00">optional</text>
</a>
</g>
</g>
<!-- Node6&#45;&gt;Node8 -->
<g id="edge7_Node000006_Node000008" class="edge">
<title>Node6&#45;&gt;Node8</title>
<g id="a_edge7_Node000006_Node000008"><a xlink:title=" ">
<path fill="none" stroke="#63b8ff" d="M244.88,-61.62C261.44,-52.07 287.38,-37.11 306.76,-25.92"/>
<polygon fill="#63b8ff" stroke="#63b8ff" points="308.27,-29.09 315.18,-21.07 304.77,-23.03 308.27,-29.09"/>
</a>
</g>
</g>
<!-- Node6&#45;&gt;Node9 -->
<g id="edge8_Node000006_Node000009" class="edge">
<title>Node6&#45;&gt;Node9</title>
<g id="a_edge8_Node000006_Node000009"><a xlink:title=" ">
<path fill="none" stroke="#63b8ff" d="M266.56,-61.57C276.31,-59.44 286.81,-57.4 296.62,-56 543.85,-20.73 845.83,-13.02 942.95,-11.41"/>
<polygon fill="#63b8ff" stroke="#63b8ff" points="942.81,-14.91 952.75,-11.26 942.7,-7.91 942.81,-14.91"/>
</a>
</g>
</g>
<!-- Node10 -->
<g id="Node000010" class="node">
<title>Node10</title>
<g id="a_Node000010"><a xlink:title=" ">
<polygon fill="#e0e0e0" stroke="#999999" points="155.12,-20 82.12,-20 82.12,0 155.12,0 155.12,-20"/>
<text xml:space="preserve" text-anchor="middle" x="118.62" y="-6.5" font-family="Helvetica,sans-Serif" font-size="10.00">system_error</text>
</a>
</g>
</g>
<!-- Node6&#45;&gt;Node10 -->
<g id="edge9_Node000006_Node000010" class="edge">
<title>Node6&#45;&gt;Node10</title>
<g id="a_edge9_Node000006_Node000010"><a xlink:title=" ">
<path fill="none" stroke="#63b8ff" d="M211.44,-61.62C193.84,-52.03 166.23,-36.97 145.7,-25.77"/>
<polygon fill="#63b8ff" stroke="#63b8ff" points="147.48,-22.75 137.02,-21.03 144.12,-28.9 147.48,-22.75"/>
</a>
</g>
</g>
<!-- Node11 -->
<g id="Node000011" class="node">
<title>Node11</title>
<g id="a_Node000011"><a xlink:title=" ">
<polygon fill="#e0e0e0" stroke="#999999" points="218.25,-20 173,-20 173,0 218.25,0 218.25,-20"/>
<text xml:space="preserve" text-anchor="middle" x="195.62" y="-6.5" font-family="Helvetica,sans-Serif" font-size="10.00">variant</text>
</a>
</g>
</g>
<!-- Node6&#45;&gt;Node11 -->
<g id="edge10_Node000006_Node000011" class="edge">
<title>Node6&#45;&gt;Node11</title>
<g id="a_edge10_Node000006_Node000011"><a xlink:title=" ">
<path fill="none" stroke="#63b8ff" d="M223.47,-61.62C218.84,-53.21 211.9,-40.6 206.11,-30.07"/>
<polygon fill="#63b8ff" stroke="#63b8ff" points="209.25,-28.51 201.37,-21.44 203.12,-31.89 209.25,-28.51"/>
</a>
</g>
</g>
<!-- Node12&#45;&gt;Node9 -->
<g id="edge12_Node000012_Node000009" class="edge">
<title>Node12&#45;&gt;Node9</title>
<g id="a_edge12_Node000012_Node000009"><a xlink:title=" ">
<path fill="none" stroke="#63b8ff" d="M917.25,-61.62C927.59,-52.5 943.52,-38.45 955.97,-27.46"/>
<polygon fill="#63b8ff" stroke="#63b8ff" points="957.98,-30.35 963.16,-21.11 953.35,-25.11 957.98,-30.35"/>
</a>
</g>
</g>
<!-- Node14&#45;&gt;Node5 -->
<g id="edge15_Node000014_Node000005" class="edge">
<title>Node14&#45;&gt;Node5</title>
<g id="a_edge15_Node000014_Node000005"><a xlink:title=" ">
<path fill="none" stroke="#63b8ff" d="M658.02,-197.54C644.03,-187.06 621.22,-169.95 604.35,-157.29"/>
<polygon fill="#63b8ff" stroke="#63b8ff" points="606.52,-154.55 596.42,-151.35 602.32,-160.15 606.52,-154.55"/>
</a>
</g>
</g>
<!-- Node14&#45;&gt;Node6 -->
<g id="edge16_Node000014_Node000006" class="edge">
<title>Node14&#45;&gt;Node6</title>
<g id="a_edge16_Node000014_Node000006"><a xlink:title=" ">
<path fill="none" stroke="#63b8ff" d="M608.13,-207.5C537.55,-205.87 420.7,-196.47 329.62,-156 295.07,-140.64 262.71,-110.12 244.33,-90.67"/>
<polygon fill="#63b8ff" stroke="#63b8ff" points="247.06,-88.48 237.72,-83.49 241.91,-93.22 247.06,-88.48"/>
</a>
</g>
</g>
<!-- Node14&#45;&gt;Node12 -->
<g id="edge17_Node000014_Node000012" class="edge">
<title>Node14&#45;&gt;Node12</title>
<g id="a_edge17_Node000014_Node000012"><a xlink:title=" ">
<path fill="none" stroke="#63b8ff" d="M674.19,-197.7C681.28,-180.47 698.81,-143.56 725.62,-124 759.33,-99.42 804.48,-86.67 841.26,-80.07"/>
<polygon fill="#63b8ff" stroke="#63b8ff" points="841.6,-83.56 850.89,-78.46 840.45,-76.65 841.6,-83.56"/>
</a>
</g>
</g>
<!-- Node14&#45;&gt;Node13 -->
<g id="edge18_Node000014_Node000013" class="edge">
<title>Node14&#45;&gt;Node13</title>
<g id="a_edge18_Node000014_Node000013"><a xlink:title=" ">
<path fill="none" stroke="#63b8ff" d="M670.75,-197.63C670.49,-180.93 667.65,-145.74 649.62,-124 631.07,-101.62 600.51,-88.54 576.31,-81.24"/>
<polygon fill="#63b8ff" stroke="#63b8ff" points="577.39,-77.91 566.82,-78.6 575.52,-84.66 577.39,-77.91"/>
</a>
</g>
</g>
<!-- Node14&#45;&gt;Node15 -->
<g id="edge19_Node000014_Node000015" class="edge">
<title>Node14&#45;&gt;Node15</title>
<g id="a_edge19_Node000014_Node000015"><a xlink:title=" ">
<path fill="none" stroke="#63b8ff" d="M685.67,-197.54C702.74,-186.81 730.85,-169.14 751.11,-156.41"/>
<polygon fill="#63b8ff" stroke="#63b8ff" points="752.72,-159.53 759.33,-151.24 749,-153.6 752.72,-159.53"/>
</a>
</g>
</g>
<!-- Node14&#45;&gt;Node16 -->
<g id="edge20_Node000014_Node000016" class="edge">
<title>Node14&#45;&gt;Node16</title>
<g id="a_edge20_Node000014_Node000016"><a xlink:title=" ">
<path fill="none" stroke="#63b8ff" d="M703.44,-197.59C735.12,-188.18 784.26,-172.73 825.62,-156 826.39,-155.69 827.17,-155.37 827.95,-155.04"/>
<polygon fill="#63b8ff" stroke="#63b8ff" points="829.06,-158.38 836.74,-151.07 826.18,-152 829.06,-158.38"/>
</a>
</g>
</g>
<!-- Node17&#45;&gt;Node12 -->
<g id="edge22_Node000017_Node000012" class="edge">
<title>Node17&#45;&gt;Node12</title>
<g id="a_edge22_Node000017_Node000012"><a xlink:title=" ">
<path fill="none" stroke="#63b8ff" d="M884.27,-197.79C888.11,-176.37 897.71,-122.79 902.99,-93.28"/>
<polygon fill="#63b8ff" stroke="#63b8ff" points="906.38,-94.23 904.7,-83.76 899.49,-92.99 906.38,-94.23"/>
</a>
</g>
</g>
<!-- Node17&#45;&gt;Node16 -->
<g id="edge24_Node000017_Node000016" class="edge">
<title>Node17&#45;&gt;Node16</title>
<g id="a_edge24_Node000017_Node000016"><a xlink:title=" ">
<path fill="none" stroke="#63b8ff" d="M878.9,-197.54C875.15,-188.04 869.27,-173.09 864.48,-160.95"/>
<polygon fill="#63b8ff" stroke="#63b8ff" points="867.82,-159.87 860.9,-151.85 861.31,-162.43 867.82,-159.87"/>
</a>
</g>
</g>
<!-- Node18 -->
<g id="Node000018" class="node">
<title>Node18</title>
<g id="a_Node000018"><a xlink:title=" ">
<polygon fill="#e0e0e0" stroke="#999999" points="1030.62,-150 972.62,-150 972.62,-130 1030.62,-130 1030.62,-150"/>
<text xml:space="preserve" text-anchor="middle" x="1001.62" y="-136.5" font-family="Helvetica,sans-Serif" font-size="10.00">functional</text>
</a>
</g>
</g>
<!-- Node17&#45;&gt;Node18 -->
<g id="edge23_Node000017_Node000018" class="edge">
<title>Node17&#45;&gt;Node18</title>
<g id="a_edge23_Node000017_Node000018"><a xlink:title=" ">
<path fill="none" stroke="#63b8ff" d="M899.67,-197.54C919.29,-186.66 951.76,-168.66 974.78,-155.89"/>
<polygon fill="#63b8ff" stroke="#63b8ff" points="976.24,-159.08 983.28,-151.17 972.84,-152.96 976.24,-159.08"/>
</a>
</g>
</g>
<!-- Node19&#45;&gt;Node9 -->
<g id="edge28_Node000019_Node000009" class="edge">
<title>Node19&#45;&gt;Node9</title>
<g id="a_edge28_Node000019_Node000009"><a xlink:title=" ">
<path fill="none" stroke="#63b8ff" d="M308.87,-191.64C306.29,-160.55 305.47,-90.2 345.62,-56 391.4,-17.01 821.89,-11.8 943.04,-11.11"/>
<polygon fill="#63b8ff" stroke="#63b8ff" points="942.9,-14.61 952.89,-11.06 942.87,-7.61 942.9,-14.61"/>
</a>
</g>
</g>
<!-- Node20 -->
<g id="Node000020" class="node">
<title>Node20</title>
<g id="a_Node000020"><a xlink:title=" ">
<polygon fill="#e0e0e0" stroke="#999999" points="244.88,-150 182.38,-150 182.38,-130 244.88,-130 244.88,-150"/>
<text xml:space="preserve" text-anchor="middle" x="213.62" y="-136.5" font-family="Helvetica,sans-Serif" font-size="10.00">windows.h</text>
</a>
</g>
</g>
<!-- Node19&#45;&gt;Node20 -->
<g id="edge29_Node000019_Node000020" class="edge">
<title>Node19&#45;&gt;Node20</title>
<g id="a_edge29_Node000019_Node000020"><a xlink:title=" ">
<path fill="none" stroke="#63b8ff" d="M288.13,-191.69C272.7,-181.2 252.29,-167.31 236.74,-156.73"/>
<polygon fill="#63b8ff" stroke="#63b8ff" points="238.8,-153.9 228.57,-151.17 234.87,-159.69 238.8,-153.9"/>
</a>
</g>
</g>
<!-- Node21&#45;&gt;Node9 -->
<g id="edge32_Node000021_Node000009" class="edge">
<title>Node21&#45;&gt;Node9</title>
<g id="a_edge32_Node000021_Node000009"><a xlink:title=" ">
<path fill="none" stroke="#63b8ff" d="M1110.23,-197.53C1125.87,-189.09 1146.24,-175.11 1155.62,-156 1161.89,-143.23 1162.52,-136.44 1155.62,-124 1123.62,-66.28 1048.49,-34.17 1005.77,-19.98"/>
<polygon fill="#63b8ff" stroke="#63b8ff" points="1006.93,-16.67 996.34,-16.98 1004.81,-23.35 1006.93,-16.67"/>
</a>
</g>
</g>
<!-- Node21&#45;&gt;Node18 -->
<g id="edge31_Node000021_Node000018" class="edge">
<title>Node21&#45;&gt;Node18</title>
<g id="a_edge31_Node000021_Node000018"><a xlink:title=" ">
<path fill="none" stroke="#63b8ff" d="M1077.02,-197.54C1063.03,-187.06 1040.22,-169.95 1023.35,-157.29"/>
<polygon fill="#63b8ff" stroke="#63b8ff" points="1025.52,-154.55 1015.42,-151.35 1021.32,-160.15 1025.52,-154.55"/>
</a>
</g>
</g>
<!-- Node22&#45;&gt;Node9 -->
<g id="edge35_Node000022_Node000009" class="edge">
<title>Node22&#45;&gt;Node9</title>
<g id="a_edge35_Node000022_Node000009"><a xlink:title=" ">
<path fill="none" stroke="#63b8ff" d="M1082.79,-123.56C1059.8,-99.64 1015.7,-53.75 991.52,-28.58"/>
<polygon fill="#63b8ff" stroke="#63b8ff" points="994.09,-26.2 984.64,-21.42 989.04,-31.05 994.09,-26.2"/>
</a>
</g>
</g>
<!-- Node22&#45;&gt;Node12 -->
<g id="edge34_Node000022_Node000012" class="edge">
<title>Node22&#45;&gt;Node12</title>
<g id="a_edge34_Node000022_Node000012"><a xlink:title=" ">
<path fill="none" stroke="#63b8ff" d="M1052.84,-123.53C1020.04,-112.19 976,-96.97 944.85,-86.21"/>
<polygon fill="#63b8ff" stroke="#63b8ff" points="946.03,-82.91 935.43,-82.95 943.74,-89.53 946.03,-82.91"/>
</a>
</g>
</g>
<!-- Node23&#45;&gt;Node12 -->
<g id="edge37_Node000023_Node000012" class="edge">
<title>Node23&#45;&gt;Node12</title>
<g id="a_edge37_Node000023_Node000012"><a xlink:title=" ">
<path fill="none" stroke="#63b8ff" d="M469.06,-130.2C484.34,-128.15 500.55,-125.99 515.62,-124 630.28,-108.84 763.89,-91.48 841.5,-81.42"/>
<polygon fill="#63b8ff" stroke="#63b8ff" points="841.57,-84.95 851.04,-80.19 840.67,-78 841.57,-84.95"/>
</a>
</g>
</g>
<!-- Node23&#45;&gt;Node13 -->
<g id="edge39_Node000023_Node000013" class="edge">
<title>Node23&#45;&gt;Node13</title>
<g id="a_edge39_Node000023_Node000013"><a xlink:title=" ">
<path fill="none" stroke="#63b8ff" d="M435.51,-123.53C458.05,-112.59 488.04,-98.04 510.04,-87.36"/>
<polygon fill="#63b8ff" stroke="#63b8ff" points="511.3,-90.64 518.77,-83.12 508.25,-84.34 511.3,-90.64"/>
</a>
</g>
</g>
<!-- Node24 -->
<g id="Node000024" class="node">
<title>Node24</title>
<g id="a_Node000024"><a xlink:title=" ">
<polygon fill="#e0e0e0" stroke="#999999" points="452.88,-88 354.38,-88 354.38,-56 452.88,-56 452.88,-88"/>
<text xml:space="preserve" text-anchor="start" x="362.38" y="-74.5" font-family="Helvetica,sans-Serif" font-size="10.00">duvc&#45;ctl/detail/com</text>
<text xml:space="preserve" text-anchor="middle" x="403.62" y="-62.5" font-family="Helvetica,sans-Serif" font-size="10.00">_helpers.h</text>
</a>
</g>
</g>
<!-- Node23&#45;&gt;Node24 -->
<g id="edge38_Node000023_Node000024" class="edge">
<title>Node23&#45;&gt;Node24</title>
<g id="a_edge38_Node000023_Node000024"><a xlink:title=" ">
<path fill="none" stroke="#63b8ff" d="M403.62,-123.69C403.62,-116.53 403.62,-107.79 403.62,-99.59"/>
<polygon fill="#63b8ff" stroke="#63b8ff" points="407.13,-99.74 403.63,-89.74 400.13,-99.74 407.13,-99.74"/>
</a>
</g>
</g>
</g>
</svg>

<g id="navigator" transform="translate(0 0)" fill="#404254">
  <rect fill="#f2f5e9" fill-opacity="0.5" stroke="#606060" stroke-width=".5" x="0" y="0" width="60" height="60"/>
  <use id="zoomplus" xlink:href="#zoomPlus" x="17" y="9" onmousedown="handleZoom(evt,'in')"/>
  <use id="zoomminus" xlink:href="#zoomMin" x="42" y="9" onmousedown="handleZoom(evt,'out')"/>
  <use id="reset" xlink:href="#resetDef" x="30" y="36" onmousedown="handleReset()"/>
   <use id="arrowup" xlink:href="#arrowUp" x="0" y="0" onmousedown="handlePan(0,-1)"/>
  <use id="arrowright" xlink:href="#arrowRight" x="0" y="0" onmousedown="handlePan(1,0)"/>
  <use id="arrowdown" xlink:href="#arrowDown" x="0" y="0" onmousedown="handlePan(0,1)"/>
  <use id="arrowleft" xlink:href="#arrowLeft" x="0" y="0" onmousedown="handlePan(-1,0)"/>
</g>
<svg viewBox="0 0 15 15" width="100%" height="30px" preserveAspectRatio="xMaxYMin meet">
 <g id="arrow_out" transform="scale(0.3 0.3)">
  <a xlink:href="api_8cpp__incl_org.svg" target="_base">
   <rect id="button" ry="5" rx="5" y="6" x="6" height="38" width="38"
        fill="#f2f5e9" fill-opacity="0.5" stroke="#606060" stroke-width="1.0"/>
   <path id="arrow"
     d="M 11.500037,31.436501 C 11.940474,20.09759 22.043105,11.32322 32.158766,21.979434 L 37.068811,17.246167 C 37.068811,17.246167 37.088388,32 37.088388,32 L 22.160133,31.978069 C 22.160133,31.978069 26.997745,27.140456 26.997745,27.140456 C 18.528582,18.264221 13.291696,25.230495 11.500037,31.436501 z"
     style="fill:#404040;"/>
  </a>
 </g>
</svg>

<style type='text/css'>
<![CDATA[
[data-mouse-over-selected='false'] { opacity: 0.7; }
[data-mouse-over-selected='true']  { opacity: 1.0; }
]]>
</style>
<script type="application/ecmascript"><![CDATA[
document.addEventListener('DOMContentLoaded', (event) => {
  highlightEdges();
  highlightAdjacentNodes();
});
]]></script>
</svg>
