<?xml version="1.0" encoding="UTF-8" standalone="no"?>
<!DOCTYPE svg PUBLIC "-//W3C//DTD SVG 1.1//EN"
 "http://www.w3.org/Graphics/SVG/1.1/DTD/svg11.dtd">
<!-- Generated by graphviz version 14.0.2 (20251019.1705)
 -->
<!-- Title: duvc_log_critical Pages: 1 -->
<svg width="681pt" height="66pt"
 viewBox="0.00 0.00 681.00 66.00" xmlns="http://www.w3.org/2000/svg" xmlns:xlink="http://www.w3.org/1999/xlink">
<g id="graph0" class="graph" transform="scale(1 1) rotate(0) translate(4 62)">
<title>duvc_log_critical</title>
<!-- Node1 -->
<g id="Node000001" class="node">
<title>Node1</title>
<g id="a_Node000001"><a xlink:title="Log critical message.">
<polygon fill="#999999" stroke="#666666" points="88.75,-39 0,-39 0,-19 88.75,-19 88.75,-39"/>
<text xml:space="preserve" text-anchor="middle" x="44.38" y="-25.5" font-family="Helvetica,sans-Serif" font-size="10.00">duvc_log_critical</text>
</a>
</g>
</g>
<!-- Node2 -->
<g id="Node000002" class="node">
<title>Node2</title>
<g id="a_Node000002"><a xlink:href="api_8cpp.html#a663fa0c39548b58bcdeb34c0dd5210fa" target="_top" xlink:title="Log message at specific level.">
<polygon fill="white" stroke="#666666" points="224.75,-39 124.75,-39 124.75,-19 224.75,-19 224.75,-39"/>
<text xml:space="preserve" text-anchor="middle" x="174.75" y="-25.5" font-family="Helvetica,sans-Serif" font-size="10.00">duvc_log_message</text>
</a>
</g>
</g>
<!-- Node1&#45;&gt;Node2 -->
<g id="edge1_Node000001_Node000002" class="edge">
<title>Node1&#45;&gt;Node2</title>
<g id="a_edge1_Node000001_Node000002"><a xlink:title=" ">
<path fill="none" stroke="#63b8ff" d="M89.2,-29C96.9,-29 105.03,-29 113.1,-29"/>
<polygon fill="#63b8ff" stroke="#63b8ff" points="112.88,-32.5 122.88,-29 112.88,-25.5 112.88,-32.5"/>
</a>
</g>
</g>
<!-- Node3 -->
<g id="Node000003" class="node">
<title>Node3</title>
<g id="a_Node000003"><a xlink:href="namespaceduvc.html#a92c11bbcc4c659a542bd48d477f60876" target="_top" xlink:title="Log a message.">
<polygon fill="white" stroke="#666666" points="361.5,-39 260.75,-39 260.75,-19 361.5,-19 361.5,-39"/>
<text xml:space="preserve" text-anchor="middle" x="311.12" y="-25.5" font-family="Helvetica,sans-Serif" font-size="10.00">duvc::log_message</text>
</a>
</g>
</g>
<!-- Node2&#45;&gt;Node3 -->
<g id="edge2_Node000002_Node000003" class="edge">
<title>Node2&#45;&gt;Node3</title>
<g id="a_edge2_Node000002_Node000003"><a xlink:title=" ">
<path fill="none" stroke="#63b8ff" d="M225.02,-29C232.86,-29 241.05,-29 249.13,-29"/>
<polygon fill="#63b8ff" stroke="#63b8ff" points="248.89,-32.5 258.89,-29 248.89,-25.5 248.89,-32.5"/>
</a>
</g>
</g>
<!-- Node4 -->
<g id="Node000004" class="node">
<title>Node4</title>
<g id="a_Node000004"><a xlink:href="namespaceduvc.html#ababd2cbe9f996df9fb02141b96f1a0da" target="_top" xlink:title="Default logging callback that writes to stderr.">
<polygon fill="white" stroke="#666666" points="529,-39 397.5,-39 397.5,-19 529,-19 529,-39"/>
<text xml:space="preserve" text-anchor="middle" x="463.25" y="-25.5" font-family="Helvetica,sans-Serif" font-size="10.00">duvc::default_log_callback</text>
</a>
</g>
</g>
<!-- Node3&#45;&gt;Node4 -->
<g id="edge3_Node000003_Node000004" class="edge">
<title>Node3&#45;&gt;Node4</title>
<g id="a_edge3_Node000003_Node000004"><a xlink:title=" ">
<path fill="none" stroke="#63b8ff" d="M361.7,-29C369.42,-29 377.55,-29 385.7,-29"/>
<polygon fill="#63b8ff" stroke="#63b8ff" points="385.69,-32.5 395.69,-29 385.69,-25.5 385.69,-32.5"/>
</a>
</g>
</g>
<!-- Node5 -->
<g id="Node000005" class="node">
<title>Node5</title>
<g id="a_Node000005"><a xlink:href="namespaceduvc.html#a621c452d402f42a3c34c68da6f2848f1" target="_top" xlink:title="Get current timestamp as string.">
<polygon fill="white" stroke="#666666" points="672.5,-58 565,-58 565,-38 672.5,-38 672.5,-58"/>
<text xml:space="preserve" text-anchor="middle" x="618.75" y="-44.5" font-family="Helvetica,sans-Serif" font-size="10.00">duvc::get_timestamp</text>
</a>
</g>
</g>
<!-- Node4&#45;&gt;Node5 -->
<g id="edge4_Node000004_Node000005" class="edge">
<title>Node4&#45;&gt;Node5</title>
<g id="a_edge4_Node000004_Node000005"><a xlink:title=" ">
<path fill="none" stroke="#63b8ff" d="M529.35,-37.06C537.25,-38.04 545.33,-39.04 553.23,-40.01"/>
<polygon fill="#63b8ff" stroke="#63b8ff" points="552.77,-43.48 563.13,-41.24 553.63,-36.54 552.77,-43.48"/>
</a>
</g>
</g>
<!-- Node6 -->
<g id="Node000006" class="node">
<title>Node6</title>
<g id="a_Node000006"><a xlink:href="namespaceduvc.html#a8556fd02a649101843e7712e638cc0cb" target="_top" xlink:title="Convert camera property enum to string.">
<polygon fill="white" stroke="#666666" points="659,-20 578.5,-20 578.5,0 659,0 659,-20"/>
<text xml:space="preserve" text-anchor="middle" x="618.75" y="-6.5" font-family="Helvetica,sans-Serif" font-size="10.00">duvc::to_string</text>
</a>
</g>
</g>
<!-- Node4&#45;&gt;Node6 -->
<g id="edge5_Node000004_Node000006" class="edge">
<title>Node4&#45;&gt;Node6</title>
<g id="a_edge5_Node000004_Node000006"><a xlink:title=" ">
<path fill="none" stroke="#63b8ff" d="M529.35,-20.94C541.98,-19.38 555.04,-17.76 567.13,-16.27"/>
<polygon fill="#63b8ff" stroke="#63b8ff" points="567.37,-19.76 576.86,-15.06 566.51,-12.82 567.37,-19.76"/>
</a>
</g>
</g>
</g>
</svg>
