<?xml version="1.0" encoding="UTF-8" standalone="no"?>
<!DOCTYPE svg PUBLIC "-//W3C//DTD SVG 1.1//EN"
 "http://www.w3.org/Graphics/SVG/1.1/DTD/svg11.dtd">
<!-- Generated by graphviz version 14.0.2 (20251019.1705)
 -->
<!-- Title: duvc_supports_camera_property Pages: 1 -->
<svg width="460pt" height="40pt"
 viewBox="0.00 0.00 460.00 40.00" xmlns="http://www.w3.org/2000/svg" xmlns:xlink="http://www.w3.org/1999/xlink">
<g id="graph0" class="graph" transform="scale(1 1) rotate(0) translate(4 36)">
<title>duvc_supports_camera_property</title>
<!-- Node1 -->
<g id="Node000001" class="node">
<title>Node1</title>
<g id="a_Node000001"><a xlink:title="Check if camera property is supported.">
<polygon fill="#999999" stroke="#666666" points="117.25,-32 0,-32 0,0 117.25,0 117.25,-32"/>
<text xml:space="preserve" text-anchor="start" x="8" y="-18.5" font-family="Helvetica,sans-Serif" font-size="10.00">duvc_supports_camera</text>
<text xml:space="preserve" text-anchor="middle" x="58.62" y="-6.5" font-family="Helvetica,sans-Serif" font-size="10.00">_property</text>
</a>
</g>
</g>
<!-- Node2 -->
<g id="Node000002" class="node">
<title>Node2</title>
<g id="a_Node000002"><a xlink:href="classduvc_1_1DeviceCapabilities.html#a9c71b522d0b8b8ef2317cd2f7840f544" target="_top" xlink:title="Check if camera property is supported.">
<polygon fill="white" stroke="#666666" points="290.75,-32 153.25,-32 153.25,0 290.75,0 290.75,-32"/>
<text xml:space="preserve" text-anchor="start" x="161.25" y="-18.5" font-family="Helvetica,sans-Serif" font-size="10.00">duvc::DeviceCapabilities</text>
<text xml:space="preserve" text-anchor="middle" x="222" y="-6.5" font-family="Helvetica,sans-Serif" font-size="10.00">::supports_camera_property</text>
</a>
</g>
</g>
<!-- Node1&#45;&gt;Node2 -->
<g id="edge1_Node000001_Node000002" class="edge">
<title>Node1&#45;&gt;Node2</title>
<g id="a_edge1_Node000001_Node000002"><a xlink:title=" ">
<path fill="none" stroke="#63b8ff" d="M117.43,-16C125.24,-16 133.35,-16 141.46,-16"/>
<polygon fill="#63b8ff" stroke="#63b8ff" points="141.36,-19.5 151.35,-16 141.35,-12.5 141.36,-19.5"/>
</a>
</g>
</g>
<!-- Node3 -->
<g id="Node000003" class="node">
<title>Node3</title>
<g id="a_Node000003"><a xlink:href="classduvc_1_1DeviceCapabilities.html#aaedb3238c46e9790352970320573d964" target="_top" xlink:title="Get camera property capability.">
<polygon fill="white" stroke="#666666" points="451.5,-32 326.75,-32 326.75,0 451.5,0 451.5,-32"/>
<text xml:space="preserve" text-anchor="start" x="334.75" y="-18.5" font-family="Helvetica,sans-Serif" font-size="10.00">duvc::DeviceCapabilities</text>
<text xml:space="preserve" text-anchor="middle" x="389.12" y="-6.5" font-family="Helvetica,sans-Serif" font-size="10.00">::get_camera_capability</text>
</a>
</g>
</g>
<!-- Node2&#45;&gt;Node3 -->
<g id="edge2_Node000002_Node000003" class="edge">
<title>Node2&#45;&gt;Node3</title>
<g id="a_edge2_Node000002_Node000003"><a xlink:title=" ">
<path fill="none" stroke="#63b8ff" d="M291.12,-16C298.94,-16 306.93,-16 314.82,-16"/>
<polygon fill="#63b8ff" stroke="#63b8ff" points="314.74,-19.5 324.74,-16 314.74,-12.5 314.74,-19.5"/>
</a>
</g>
</g>
</g>
</svg>
