<?xml version="1.0" encoding="UTF-8" standalone="no"?>
<!DOCTYPE svg PUBLIC "-//W3C//DTD SVG 1.1//EN"
 "http://www.w3.org/Graphics/SVG/1.1/DTD/svg11.dtd">
<!-- Generated by graphviz version 14.0.2 (20251019.1705)
 -->
<!-- Title: duvc_get_multiple_camera_properties Pages: 1 -->
<svg width="365pt" height="40pt"
 viewBox="0.00 0.00 365.00 40.00" xmlns="http://www.w3.org/2000/svg" xmlns:xlink="http://www.w3.org/1999/xlink">
<g id="graph0" class="graph" transform="scale(1 1) rotate(0) translate(4 36)">
<title>duvc_get_multiple_camera_properties</title>
<!-- Node1 -->
<g id="Node000001" class="node">
<title>Node1</title>
<g id="a_Node000001"><a xlink:title="Get multiple camera properties.">
<polygon fill="#999999" stroke="#666666" points="132.25,-32 0,-32 0,0 132.25,0 132.25,-32"/>
<text xml:space="preserve" text-anchor="start" x="8" y="-18.5" font-family="Helvetica,sans-Serif" font-size="10.00">duvc_get_multiple_camera</text>
<text xml:space="preserve" text-anchor="middle" x="66.12" y="-6.5" font-family="Helvetica,sans-Serif" font-size="10.00">_properties</text>
</a>
</g>
</g>
<!-- Node2 -->
<g id="Node000002" class="node">
<title>Node2</title>
<g id="a_Node000002"><a xlink:href="classduvc_1_1Camera.html#afc3cfc69da7411bb9e28c2dad29ebe6c" target="_top" xlink:title="Get camera property value.">
<polygon fill="white" stroke="#666666" points="265.25,-26 168.25,-26 168.25,-6 265.25,-6 265.25,-26"/>
<text xml:space="preserve" text-anchor="middle" x="216.75" y="-12.5" font-family="Helvetica,sans-Serif" font-size="10.00">duvc::Camera::get</text>
</a>
</g>
</g>
<!-- Node1&#45;&gt;Node2 -->
<g id="edge1_Node000001_Node000002" class="edge">
<title>Node1&#45;&gt;Node2</title>
<g id="a_edge1_Node000001_Node000002"><a xlink:title=" ">
<path fill="none" stroke="#63b8ff" d="M132.75,-16C140.69,-16 148.76,-16 156.6,-16"/>
<polygon fill="#63b8ff" stroke="#63b8ff" points="156.37,-19.5 166.37,-16 156.37,-12.5 156.37,-19.5"/>
</a>
</g>
</g>
<!-- Node3 -->
<g id="Node000003" class="node">
<title>Node3</title>
<g id="a_Node000003"><a xlink:href="namespaceduvc.html#afc6e96946d632ab859aa1aef741646f6" target="_top" xlink:title="Helper to create successful void Result.">
<polygon fill="white" stroke="#666666" points="357,-26 301.25,-26 301.25,-6 357,-6 357,-26"/>
<text xml:space="preserve" text-anchor="middle" x="329.12" y="-12.5" font-family="Helvetica,sans-Serif" font-size="10.00">duvc::Ok</text>
</a>
</g>
</g>
<!-- Node2&#45;&gt;Node3 -->
<g id="edge2_Node000002_Node000003" class="edge">
<title>Node2&#45;&gt;Node3</title>
<g id="a_edge2_Node000002_Node000003"><a xlink:title=" ">
<path fill="none" stroke="#63b8ff" d="M265.52,-16C273.57,-16 281.83,-16 289.6,-16"/>
<polygon fill="#63b8ff" stroke="#63b8ff" points="289.43,-19.5 299.43,-16 289.43,-12.5 289.43,-19.5"/>
</a>
</g>
</g>
</g>
</svg>
