<?xml version="1.0" encoding="UTF-8" standalone="no"?>
<!DOCTYPE svg PUBLIC "-//W3C//DTD SVG 1.1//EN"
 "http://www.w3.org/Graphics/SVG/1.1/DTD/svg11.dtd">
<!-- Generated by graphviz version 14.0.2 (20251019.1705)
 -->
<!-- Title: duvc_cam_set Pages: 1 -->
<svg width="667pt" height="180pt"
 viewBox="0.00 0.00 667.00 180.00" xmlns="http://www.w3.org/2000/svg" xmlns:xlink="http://www.w3.org/1999/xlink">
<g id="graph0" class="graph" transform="scale(1 1) rotate(0) translate(4 176)">
<title>duvc_cam_set</title>
<!-- Node1 -->
<g id="Node000001" class="node">
<title>Node1</title>
<g id="a_Node000001"><a xlink:title=" ">
<polygon fill="#999999" stroke="#666666" points="79.75,-58 0,-58 0,-38 79.75,-38 79.75,-58"/>
<text xml:space="preserve" text-anchor="middle" x="39.88" y="-44.5" font-family="Helvetica,sans-Serif" font-size="10.00">duvc_cam_set</text>
</a>
</g>
</g>
<!-- Node2 -->
<g id="Node000002" class="node">
<title>Node2</title>
<g id="a_Node000002"><a xlink:href="namespaceduvc.html#a2c254074ce671320e3e57c56a9389ac1" target="_top" xlink:title="Enumerate all available video input devices.">
<polygon fill="white" stroke="#666666" points="210.5,-96 115.75,-96 115.75,-76 210.5,-76 210.5,-96"/>
<text xml:space="preserve" text-anchor="middle" x="163.12" y="-82.5" font-family="Helvetica,sans-Serif" font-size="10.00">duvc::list_devices</text>
</a>
</g>
</g>
<!-- Node1&#45;&gt;Node2 -->
<g id="edge1_Node000001_Node000002" class="edge">
<title>Node1&#45;&gt;Node2</title>
<g id="a_edge1_Node000001_Node000002"><a xlink:title=" ">
<path fill="none" stroke="#63b8ff" d="M74.33,-58.48C87.85,-62.72 103.64,-67.67 118.07,-72.19"/>
<polygon fill="#63b8ff" stroke="#63b8ff" points="116.75,-75.45 127.34,-75.1 118.84,-68.77 116.75,-75.45"/>
</a>
</g>
</g>
<!-- Node10 -->
<g id="Node000010" class="node">
<title>Node10</title>
<g id="a_Node000010"><a xlink:href="group__quickapi.html#ga686ce12eeefaa6c520c8b4506b4c2bc9" target="_top" xlink:title="Set a camera control property value.">
<polygon fill="white" stroke="#666666" points="191.38,-39 134.88,-39 134.88,-19 191.38,-19 191.38,-39"/>
<text xml:space="preserve" text-anchor="middle" x="163.12" y="-25.5" font-family="Helvetica,sans-Serif" font-size="10.00">duvc::set</text>
</a>
</g>
</g>
<!-- Node1&#45;&gt;Node10 -->
<g id="edge11_Node000001_Node000010" class="edge">
<title>Node1&#45;&gt;Node10</title>
<g id="a_edge11_Node000001_Node000010"><a xlink:title=" ">
<path fill="none" stroke="#63b8ff" d="M80.24,-41.83C94.07,-39.66 109.59,-37.23 123.37,-35.07"/>
<polygon fill="#63b8ff" stroke="#63b8ff" points="123.63,-38.58 132.96,-33.57 122.54,-31.66 123.63,-38.58"/>
</a>
</g>
</g>
<!-- Node3 -->
<g id="Node000003" class="node">
<title>Node3</title>
<g id="a_Node000003"><a xlink:href="namespaceduvc.html#ab7299b8597bf14b18b8351278c209188" target="_top" xlink:title="Create DirectShow device enumerator.">
<polygon fill="white" stroke="#666666" points="373.88,-172 253.62,-172 253.62,-152 373.88,-152 373.88,-172"/>
<text xml:space="preserve" text-anchor="middle" x="313.75" y="-158.5" font-family="Helvetica,sans-Serif" font-size="10.00">duvc::create_dev_enum</text>
</a>
</g>
</g>
<!-- Node2&#45;&gt;Node3 -->
<g id="edge2_Node000002_Node000003" class="edge">
<title>Node2&#45;&gt;Node3</title>
<g id="a_edge2_Node000002_Node000003"><a xlink:title=" ">
<path fill="none" stroke="#63b8ff" d="M176.45,-96.47C191.9,-109.11 219.62,-130.27 246.5,-143 250.23,-144.77 254.17,-146.41 258.18,-147.91"/>
<polygon fill="#63b8ff" stroke="#63b8ff" points="256.86,-151.16 267.45,-151.12 259.14,-144.55 256.86,-151.16"/>
</a>
</g>
</g>
<!-- Node6 -->
<g id="Node000006" class="node">
<title>Node6</title>
<g id="a_Node000006"><a xlink:href="namespaceduvc.html#a1a577c6cd7e4b3106d6f95c15bbceeed" target="_top" xlink:title="Enumerate video input devices.">
<polygon fill="white" stroke="#666666" points="381,-134 246.5,-134 246.5,-114 381,-114 381,-134"/>
<text xml:space="preserve" text-anchor="middle" x="313.75" y="-120.5" font-family="Helvetica,sans-Serif" font-size="10.00">duvc::enum_video_devices</text>
</a>
</g>
</g>
<!-- Node2&#45;&gt;Node6 -->
<g id="edge5_Node000002_Node000006" class="edge">
<title>Node2&#45;&gt;Node6</title>
<g id="a_edge5_Node000002_Node000006"><a xlink:title=" ">
<path fill="none" stroke="#63b8ff" d="M205.13,-96.48C222.35,-100.89 242.58,-106.06 260.82,-110.72"/>
<polygon fill="#63b8ff" stroke="#63b8ff" points="259.86,-114.09 270.41,-113.18 261.59,-107.31 259.86,-114.09"/>
</a>
</g>
</g>
<!-- Node7 -->
<g id="Node000007" class="node">
<title>Node7</title>
<g id="a_Node000007"><a xlink:href="namespaceduvc.html#a2c2b6f32c6871ad36ae0bf98d9374fd0" target="_top" xlink:title="Read device path from moniker.">
<polygon fill="white" stroke="#666666" points="373.5,-96 254,-96 254,-76 373.5,-76 373.5,-96"/>
<text xml:space="preserve" text-anchor="middle" x="313.75" y="-82.5" font-family="Helvetica,sans-Serif" font-size="10.00">duvc::read_device_path</text>
</a>
</g>
</g>
<!-- Node2&#45;&gt;Node7 -->
<g id="edge7_Node000002_Node000007" class="edge">
<title>Node2&#45;&gt;Node7</title>
<g id="a_edge7_Node000002_Node000007"><a xlink:title=" ">
<path fill="none" stroke="#63b8ff" d="M210.74,-86C220.75,-86 231.53,-86 242.21,-86"/>
<polygon fill="#63b8ff" stroke="#63b8ff" points="242.2,-89.5 252.2,-86 242.2,-82.5 242.2,-89.5"/>
</a>
</g>
</g>
<!-- Node9 -->
<g id="Node000009" class="node">
<title>Node9</title>
<g id="a_Node000009"><a xlink:href="namespaceduvc.html#a019644436e5f0add38b6242843b79fef" target="_top" xlink:title="Read friendly name from device moniker.">
<polygon fill="white" stroke="#666666" points="377.62,-58 249.88,-58 249.88,-38 377.62,-38 377.62,-58"/>
<text xml:space="preserve" text-anchor="middle" x="313.75" y="-44.5" font-family="Helvetica,sans-Serif" font-size="10.00">duvc::read_friendly_name</text>
</a>
</g>
</g>
<!-- Node2&#45;&gt;Node9 -->
<g id="edge9_Node000002_Node000009" class="edge">
<title>Node2&#45;&gt;Node9</title>
<g id="a_edge9_Node000002_Node000009"><a xlink:title=" ">
<path fill="none" stroke="#63b8ff" d="M205.13,-75.52C222.35,-71.11 242.58,-65.94 260.82,-61.28"/>
<polygon fill="#63b8ff" stroke="#63b8ff" points="261.59,-64.69 270.41,-58.82 259.86,-57.91 261.59,-64.69"/>
</a>
</g>
</g>
<!-- Node4 -->
<g id="Node000004" class="node">
<title>Node4</title>
<g id="a_Node000004"><a xlink:href="namespaceduvc.html#a21b444574354018097d4489a9ff0ff9e" target="_top" xlink:title=" ">
<polygon fill="white" stroke="#666666" points="511,-153 430.5,-153 430.5,-133 511,-133 511,-153"/>
<text xml:space="preserve" text-anchor="middle" x="470.75" y="-139.5" font-family="Helvetica,sans-Serif" font-size="10.00">duvc::throw_hr</text>
</a>
</g>
</g>
<!-- Node3&#45;&gt;Node4 -->
<g id="edge3_Node000003_Node000004" class="edge">
<title>Node3&#45;&gt;Node4</title>
<g id="a_edge3_Node000003_Node000004"><a xlink:title=" ">
<path fill="none" stroke="#63b8ff" d="M374.23,-154.71C389.05,-152.89 404.8,-150.96 419.15,-149.2"/>
<polygon fill="#63b8ff" stroke="#63b8ff" points="419.31,-152.71 428.81,-148.02 418.46,-145.76 419.31,-152.71"/>
</a>
</g>
</g>
<!-- Node5 -->
<g id="Node000005" class="node">
<title>Node5</title>
<g id="a_Node000005"><a xlink:href="namespaceduvc.html#a02d5c5b2e56515cee2cad9057af0467d" target="_top" xlink:title=" ">
<polygon fill="white" stroke="#666666" points="659,-153 560.5,-153 560.5,-133 659,-133 659,-153"/>
<text xml:space="preserve" text-anchor="middle" x="609.75" y="-139.5" font-family="Helvetica,sans-Serif" font-size="10.00">duvc::wide_to_utf8</text>
</a>
</g>
</g>
<!-- Node4&#45;&gt;Node5 -->
<g id="edge4_Node000004_Node000005" class="edge">
<title>Node4&#45;&gt;Node5</title>
<g id="a_edge4_Node000004_Node000005"><a xlink:title=" ">
<path fill="none" stroke="#63b8ff" d="M511.38,-143C523.11,-143 536.24,-143 548.95,-143"/>
<polygon fill="#63b8ff" stroke="#63b8ff" points="548.95,-146.5 558.95,-143 548.95,-139.5 548.95,-146.5"/>
</a>
</g>
</g>
<!-- Node6&#45;&gt;Node4 -->
<g id="edge6_Node000006_Node000004" class="edge">
<title>Node6&#45;&gt;Node4</title>
<g id="a_edge6_Node000006_Node000004"><a xlink:title=" ">
<path fill="none" stroke="#63b8ff" d="M381.38,-132.17C393.94,-133.71 406.89,-135.29 418.87,-136.76"/>
<polygon fill="#63b8ff" stroke="#63b8ff" points="418.17,-140.2 428.52,-137.95 419.02,-133.26 418.17,-140.2"/>
</a>
</g>
</g>
<!-- Node8 -->
<g id="Node000008" class="node">
<title>Node8</title>
<g id="a_Node000008"><a xlink:href="namespaceduvc.html#a0dbd37821c1cae29fa72d44e3dbd0583" target="_top" xlink:title=" ">
<polygon fill="white" stroke="#666666" points="524.5,-77 417,-77 417,-57 524.5,-57 524.5,-77"/>
<text xml:space="preserve" text-anchor="middle" x="470.75" y="-63.5" font-family="Helvetica,sans-Serif" font-size="10.00">duvc::read_prop_bstr</text>
</a>
</g>
</g>
<!-- Node7&#45;&gt;Node8 -->
<g id="edge8_Node000007_Node000008" class="edge">
<title>Node7&#45;&gt;Node8</title>
<g id="a_edge8_Node000007_Node000008"><a xlink:title=" ">
<path fill="none" stroke="#63b8ff" d="M373.79,-78.76C384.16,-77.49 394.99,-76.16 405.49,-74.88"/>
<polygon fill="#63b8ff" stroke="#63b8ff" points="405.71,-78.38 415.21,-73.68 404.86,-71.43 405.71,-78.38"/>
</a>
</g>
</g>
<!-- Node9&#45;&gt;Node8 -->
<g id="edge10_Node000009_Node000008" class="edge">
<title>Node9&#45;&gt;Node8</title>
<g id="a_edge10_Node000009_Node000008"><a xlink:title=" ">
<path fill="none" stroke="#63b8ff" d="M377.79,-55.73C386.87,-56.84 396.22,-57.99 405.32,-59.1"/>
<polygon fill="#63b8ff" stroke="#63b8ff" points="404.82,-62.57 415.18,-60.31 405.68,-55.62 404.82,-62.57"/>
</a>
</g>
</g>
<!-- Node11 -->
<g id="Node000011" class="node">
<title>Node11</title>
<g id="a_Node000011"><a xlink:href="classduvc_1_1Result.html#a6a3af8795b3d3090f17993728dbe701f" target="_top" xlink:title="Check if result contains a value (success)">
<polygon fill="white" stroke="#666666" points="364.12,-20 263.38,-20 263.38,0 364.12,0 364.12,-20"/>
<text xml:space="preserve" text-anchor="middle" x="313.75" y="-6.5" font-family="Helvetica,sans-Serif" font-size="10.00">duvc::Result::is_ok</text>
</a>
</g>
</g>
<!-- Node10&#45;&gt;Node11 -->
<g id="edge12_Node000010_Node000011" class="edge">
<title>Node10&#45;&gt;Node11</title>
<g id="a_edge12_Node000010_Node000011"><a xlink:title=" ">
<path fill="none" stroke="#63b8ff" d="M191.73,-25.47C208.59,-23.32 230.84,-20.47 251.66,-17.81"/>
<polygon fill="#63b8ff" stroke="#63b8ff" points="252.06,-21.29 261.53,-16.55 251.17,-14.34 252.06,-21.29"/>
</a>
</g>
</g>
</g>
</svg>
