<?xml version="1.0" encoding="UTF-8" standalone="no"?>
<!DOCTYPE svg PUBLIC "-//W3C//DTD SVG 1.1//EN"
 "http://www.w3.org/Graphics/SVG/1.1/DTD/svg11.dtd">
<!-- Generated by graphviz version 14.0.2 (20251019.1705)
 -->
<!-- Title: duvc_get_device_count Pages: 1 -->
<!--zoomable 142 -->

<svg id="main" version="1.1" xmlns="http://www.w3.org/2000/svg" xmlns:xlink="http://www.w3.org/1999/xlink" xml:space="preserve" onload="init(evt)">
<style type="text/css"><![CDATA[
.node, .edge {opacity: 0.7;}
.node.selected, .edge.selected {opacity: 1;}
.edge:hover path { stroke: red; }
.edge:hover polygon { stroke: red; fill: red; }
]]></style>

<defs>
  <circle id="rim" cx="0" cy="0" r="7"/>
  <circle id="rim2" cx="0" cy="0" r="3.5"/>
  <g id="zoomPlus">
    <use xlink:href="#rim" fill="#404040"><set attributeName="fill" to="#808080" begin="zoomplus.mouseover" end="zoomplus.mouseout"/></use>
    <path d="M-4,0h8M0,-4v8" fill="none" stroke="white" stroke-width="1.5" pointer-events="none"/>
  </g>
  <g id="zoomMin">
    <use xlink:href="#rim" fill="#404040"><set attributeName="fill" to="#808080" begin="zoomminus.mouseover" end="zoomminus.mouseout"/></use>
    <path d="M-4,0h8" fill="none" stroke="white" stroke-width="1.5" pointer-events="none"/>
  </g>
  <g id="arrowUp" transform="translate(30 24)">
    <use xlink:href="#rim"/>
    <path pointer-events="none" fill="none" stroke="white" stroke-width="1.5" d="M0,-3.0v7 M-2.5,-0.5L0,-3.0L2.5,-0.5"/>
  </g>
  <g id="arrowRight" transform="rotate(90) translate(36 -43)">
    <use xlink:href="#rim"/>
    <path pointer-events="none" fill="none" stroke="white" stroke-width="1.5" d="M0,-3.0v7 M-2.5,-0.5L0,-3.0L2.5,-0.5"/>
  </g>
  <g id="arrowDown" transform="rotate(180) translate(-30 -48)">
    <use xlink:href="#rim"/>
    <path pointer-events="none" fill="none" stroke="white" stroke-width="1.5" d="M0,-3.0v7 M-2.5,-0.5L0,-3.0L2.5,-0.5"/>
  </g>
  <g id="arrowLeft" transform="rotate(270) translate(-36 17)">
    <use xlink:href="#rim"/>
    <path pointer-events="none" fill="none" stroke="white" stroke-width="1.5" d="M0,-3.0v7 M-2.5,-0.5L0,-3.0L2.5,-0.5"/>
  </g>
  <g id="resetDef">
    <use xlink:href="#rim2" fill="#404040"><set attributeName="fill" to="#808080" begin="reset.mouseover" end="reset.mouseout"/></use>
  </g>
</defs>
<script type="application/ecmascript">
var viewWidth = 706;
var viewHeight = 142;
var sectionId = 'dynsection-5';
</script>
<script type="application/ecmascript" xlink:href="svg.min.js"/>
<svg id="graph" class="graph">
<g id="viewport">
<title>duvc_get_device_count</title>
<!-- Node1 -->
<g id="Node000001" class="node">
<title>Node1</title>
<g id="a_Node000001"><a xlink:title=" ">
<polygon fill="#999999" stroke="#666666" points="118.75,-77 0,-77 0,-57 118.75,-57 118.75,-77"/>
<text xml:space="preserve" text-anchor="middle" x="59.38" y="-63.5" font-family="Helvetica,sans-Serif" font-size="10.00">duvc_get_device_count</text>
</a>
</g>
</g>
<!-- Node2 -->
<g id="Node000002" class="node">
<title>Node2</title>
<g id="a_Node000002"><a xlink:href="namespaceduvc.html#a2c254074ce671320e3e57c56a9389ac1" target="_top" xlink:title="Enumerate all available video input devices.">
<polygon fill="white" stroke="#666666" points="249.5,-77 154.75,-77 154.75,-57 249.5,-57 249.5,-77"/>
<text xml:space="preserve" text-anchor="middle" x="202.12" y="-63.5" font-family="Helvetica,sans-Serif" font-size="10.00">duvc::list_devices</text>
</a>
</g>
</g>
<!-- Node1&#45;&gt;Node2 -->
<g id="edge1_Node000001_Node000002" class="edge">
<title>Node1&#45;&gt;Node2</title>
<g id="a_edge1_Node000001_Node000002"><a xlink:title=" ">
<path fill="none" stroke="#63b8ff" d="M118.84,-67C126.95,-67 135.28,-67 143.38,-67"/>
<polygon fill="#63b8ff" stroke="#63b8ff" points="143.11,-70.5 153.11,-67 143.11,-63.5 143.11,-70.5"/>
</a>
</g>
</g>
<!-- Node3 -->
<g id="Node000003" class="node">
<title>Node3</title>
<g id="a_Node000003"><a xlink:href="namespaceduvc.html#ab7299b8597bf14b18b8351278c209188" target="_top" xlink:title="Create DirectShow device enumerator.">
<polygon fill="white" stroke="#666666" points="412.88,-134 292.62,-134 292.62,-114 412.88,-114 412.88,-134"/>
<text xml:space="preserve" text-anchor="middle" x="352.75" y="-120.5" font-family="Helvetica,sans-Serif" font-size="10.00">duvc::create_dev_enum</text>
</a>
</g>
</g>
<!-- Node2&#45;&gt;Node3 -->
<g id="edge2_Node000002_Node000003" class="edge">
<title>Node2&#45;&gt;Node3</title>
<g id="a_edge2_Node000002_Node000003"><a xlink:title=" ">
<path fill="none" stroke="#63b8ff" d="M223.41,-77.41C239.86,-85.6 263.8,-96.94 285.5,-105 290.43,-106.83 295.62,-108.59 300.83,-110.26"/>
<polygon fill="#63b8ff" stroke="#63b8ff" points="299.46,-113.5 310.04,-113.08 301.51,-106.8 299.46,-113.5"/>
</a>
</g>
</g>
<!-- Node6 -->
<g id="Node000006" class="node">
<title>Node6</title>
<g id="a_Node000006"><a xlink:href="namespaceduvc.html#a1a577c6cd7e4b3106d6f95c15bbceeed" target="_top" xlink:title="Enumerate video input devices.">
<polygon fill="white" stroke="#666666" points="420,-96 285.5,-96 285.5,-76 420,-76 420,-96"/>
<text xml:space="preserve" text-anchor="middle" x="352.75" y="-82.5" font-family="Helvetica,sans-Serif" font-size="10.00">duvc::enum_video_devices</text>
</a>
</g>
</g>
<!-- Node2&#45;&gt;Node6 -->
<g id="edge5_Node000002_Node000006" class="edge">
<title>Node2&#45;&gt;Node6</title>
<g id="a_edge5_Node000002_Node000006"><a xlink:title=" ">
<path fill="none" stroke="#63b8ff" d="M249.74,-72.96C257.47,-73.95 265.66,-74.99 273.91,-76.05"/>
<polygon fill="#63b8ff" stroke="#63b8ff" points="273.29,-79.5 283.66,-77.29 274.18,-72.56 273.29,-79.5"/>
</a>
</g>
</g>
<!-- Node7 -->
<g id="Node000007" class="node">
<title>Node7</title>
<g id="a_Node000007"><a xlink:href="namespaceduvc.html#a2c2b6f32c6871ad36ae0bf98d9374fd0" target="_top" xlink:title="Read device path from moniker.">
<polygon fill="white" stroke="#666666" points="412.5,-58 293,-58 293,-38 412.5,-38 412.5,-58"/>
<text xml:space="preserve" text-anchor="middle" x="352.75" y="-44.5" font-family="Helvetica,sans-Serif" font-size="10.00">duvc::read_device_path</text>
</a>
</g>
</g>
<!-- Node2&#45;&gt;Node7 -->
<g id="edge7_Node000002_Node000007" class="edge">
<title>Node2&#45;&gt;Node7</title>
<g id="a_edge7_Node000002_Node000007"><a xlink:title=" ">
<path fill="none" stroke="#63b8ff" d="M249.74,-61.04C259.85,-59.75 270.76,-58.35 281.55,-56.97"/>
<polygon fill="#63b8ff" stroke="#63b8ff" points="281.74,-60.48 291.21,-55.74 280.85,-53.54 281.74,-60.48"/>
</a>
</g>
</g>
<!-- Node9 -->
<g id="Node000009" class="node">
<title>Node9</title>
<g id="a_Node000009"><a xlink:href="namespaceduvc.html#a019644436e5f0add38b6242843b79fef" target="_top" xlink:title="Read friendly name from device moniker.">
<polygon fill="white" stroke="#666666" points="416.62,-20 288.88,-20 288.88,0 416.62,0 416.62,-20"/>
<text xml:space="preserve" text-anchor="middle" x="352.75" y="-6.5" font-family="Helvetica,sans-Serif" font-size="10.00">duvc::read_friendly_name</text>
</a>
</g>
</g>
<!-- Node2&#45;&gt;Node9 -->
<g id="edge9_Node000002_Node000009" class="edge">
<title>Node2&#45;&gt;Node9</title>
<g id="a_edge9_Node000002_Node000009"><a xlink:title=" ">
<path fill="none" stroke="#63b8ff" d="M223.41,-56.59C239.86,-48.4 263.8,-37.06 285.5,-29 290.43,-27.17 295.62,-25.41 300.83,-23.74"/>
<polygon fill="#63b8ff" stroke="#63b8ff" points="301.51,-27.2 310.04,-20.92 299.46,-20.5 301.51,-27.2"/>
</a>
</g>
</g>
<!-- Node4 -->
<g id="Node000004" class="node">
<title>Node4</title>
<g id="a_Node000004"><a xlink:href="namespaceduvc.html#a21b444574354018097d4489a9ff0ff9e" target="_top" xlink:title=" ">
<polygon fill="white" stroke="#666666" points="550,-115 469.5,-115 469.5,-95 550,-95 550,-115"/>
<text xml:space="preserve" text-anchor="middle" x="509.75" y="-101.5" font-family="Helvetica,sans-Serif" font-size="10.00">duvc::throw_hr</text>
</a>
</g>
</g>
<!-- Node3&#45;&gt;Node4 -->
<g id="edge3_Node000003_Node000004" class="edge">
<title>Node3&#45;&gt;Node4</title>
<g id="a_edge3_Node000003_Node000004"><a xlink:title=" ">
<path fill="none" stroke="#63b8ff" d="M413.23,-116.71C428.05,-114.89 443.8,-112.96 458.15,-111.2"/>
<polygon fill="#63b8ff" stroke="#63b8ff" points="458.31,-114.71 467.81,-110.02 457.46,-107.76 458.31,-114.71"/>
</a>
</g>
</g>
<!-- Node5 -->
<g id="Node000005" class="node">
<title>Node5</title>
<g id="a_Node000005"><a xlink:href="namespaceduvc.html#a02d5c5b2e56515cee2cad9057af0467d" target="_top" xlink:title=" ">
<polygon fill="white" stroke="#666666" points="698,-115 599.5,-115 599.5,-95 698,-95 698,-115"/>
<text xml:space="preserve" text-anchor="middle" x="648.75" y="-101.5" font-family="Helvetica,sans-Serif" font-size="10.00">duvc::wide_to_utf8</text>
</a>
</g>
</g>
<!-- Node4&#45;&gt;Node5 -->
<g id="edge4_Node000004_Node000005" class="edge">
<title>Node4&#45;&gt;Node5</title>
<g id="a_edge4_Node000004_Node000005"><a xlink:title=" ">
<path fill="none" stroke="#63b8ff" d="M550.38,-105C562.11,-105 575.24,-105 587.95,-105"/>
<polygon fill="#63b8ff" stroke="#63b8ff" points="587.95,-108.5 597.95,-105 587.95,-101.5 587.95,-108.5"/>
</a>
</g>
</g>
<!-- Node6&#45;&gt;Node4 -->
<g id="edge6_Node000006_Node000004" class="edge">
<title>Node6&#45;&gt;Node4</title>
<g id="a_edge6_Node000006_Node000004"><a xlink:title=" ">
<path fill="none" stroke="#63b8ff" d="M420.38,-94.17C432.94,-95.71 445.89,-97.29 457.87,-98.76"/>
<polygon fill="#63b8ff" stroke="#63b8ff" points="457.17,-102.2 467.52,-99.95 458.02,-95.26 457.17,-102.2"/>
</a>
</g>
</g>
<!-- Node8 -->
<g id="Node000008" class="node">
<title>Node8</title>
<g id="a_Node000008"><a xlink:href="namespaceduvc.html#a0dbd37821c1cae29fa72d44e3dbd0583" target="_top" xlink:title=" ">
<polygon fill="white" stroke="#666666" points="563.5,-39 456,-39 456,-19 563.5,-19 563.5,-39"/>
<text xml:space="preserve" text-anchor="middle" x="509.75" y="-25.5" font-family="Helvetica,sans-Serif" font-size="10.00">duvc::read_prop_bstr</text>
</a>
</g>
</g>
<!-- Node7&#45;&gt;Node8 -->
<g id="edge8_Node000007_Node000008" class="edge">
<title>Node7&#45;&gt;Node8</title>
<g id="a_edge8_Node000007_Node000008"><a xlink:title=" ">
<path fill="none" stroke="#63b8ff" d="M412.79,-40.76C423.16,-39.49 433.99,-38.16 444.49,-36.88"/>
<polygon fill="#63b8ff" stroke="#63b8ff" points="444.71,-40.38 454.21,-35.68 443.86,-33.43 444.71,-40.38"/>
</a>
</g>
</g>
<!-- Node9&#45;&gt;Node8 -->
<g id="edge10_Node000009_Node000008" class="edge">
<title>Node9&#45;&gt;Node8</title>
<g id="a_edge10_Node000009_Node000008"><a xlink:title=" ">
<path fill="none" stroke="#63b8ff" d="M416.79,-17.73C425.87,-18.84 435.22,-19.99 444.32,-21.1"/>
<polygon fill="#63b8ff" stroke="#63b8ff" points="443.82,-24.57 454.18,-22.31 444.68,-17.62 443.82,-24.57"/>
</a>
</g>
</g>
</g>
</svg>

<g id="navigator" transform="translate(0 0)" fill="#404254">
  <rect fill="#f2f5e9" fill-opacity="0.5" stroke="#606060" stroke-width=".5" x="0" y="0" width="60" height="60"/>
  <use id="zoomplus" xlink:href="#zoomPlus" x="17" y="9" onmousedown="handleZoom(evt,'in')"/>
  <use id="zoomminus" xlink:href="#zoomMin" x="42" y="9" onmousedown="handleZoom(evt,'out')"/>
  <use id="reset" xlink:href="#resetDef" x="30" y="36" onmousedown="handleReset()"/>
   <use id="arrowup" xlink:href="#arrowUp" x="0" y="0" onmousedown="handlePan(0,-1)"/>
  <use id="arrowright" xlink:href="#arrowRight" x="0" y="0" onmousedown="handlePan(1,0)"/>
  <use id="arrowdown" xlink:href="#arrowDown" x="0" y="0" onmousedown="handlePan(0,1)"/>
  <use id="arrowleft" xlink:href="#arrowLeft" x="0" y="0" onmousedown="handlePan(-1,0)"/>
</g>
<svg viewBox="0 0 15 15" width="100%" height="30px" preserveAspectRatio="xMaxYMin meet">
 <g id="arrow_out" transform="scale(0.3 0.3)">
  <a xlink:href="bindings_8cpp_a7eae96ab0b9ad48d78466336076360e0_cgraph_org.svg" target="_base">
   <rect id="button" ry="5" rx="5" y="6" x="6" height="38" width="38"
        fill="#f2f5e9" fill-opacity="0.5" stroke="#606060" stroke-width="1.0"/>
   <path id="arrow"
     d="M 11.500037,31.436501 C 11.940474,20.09759 22.043105,11.32322 32.158766,21.979434 L 37.068811,17.246167 C 37.068811,17.246167 37.088388,32 37.088388,32 L 22.160133,31.978069 C 22.160133,31.978069 26.997745,27.140456 26.997745,27.140456 C 18.528582,18.264221 13.291696,25.230495 11.500037,31.436501 z"
     style="fill:#404040;"/>
  </a>
 </g>
</svg>

<style type='text/css'>
<![CDATA[
[data-mouse-over-selected='false'] { opacity: 0.7; }
[data-mouse-over-selected='true']  { opacity: 1.0; }
]]>
</style>
<script type="application/ecmascript"><![CDATA[
document.addEventListener('DOMContentLoaded', (event) => {
  highlightEdges();
  highlightAdjacentNodes();
});
]]></script>
</svg>
