<?xml version="1.0" encoding="UTF-8" standalone="no"?>
<!DOCTYPE svg PUBLIC "-//W3C//DTD SVG 1.1//EN"
 "http://www.w3.org/Graphics/SVG/1.1/DTD/svg11.dtd">
<!-- Generated by graphviz version 14.0.2 (20251019.1705)
 -->
<!-- Title: duvc_refresh_devices Pages: 1 -->
<svg width="699pt" height="142pt"
 viewBox="0.00 0.00 699.00 142.00" xmlns="http://www.w3.org/2000/svg" xmlns:xlink="http://www.w3.org/1999/xlink">
<g id="graph0" class="graph" transform="scale(1 1) rotate(0) translate(4 138)">
<title>duvc_refresh_devices</title>
<!-- Node1 -->
<g id="Node000001" class="node">
<title>Node1</title>
<g id="a_Node000001"><a xlink:title=" ">
<polygon fill="#999999" stroke="#666666" points="111.25,-77 0,-77 0,-57 111.25,-57 111.25,-77"/>
<text xml:space="preserve" text-anchor="middle" x="55.62" y="-63.5" font-family="Helvetica,sans-Serif" font-size="10.00">duvc_refresh_devices</text>
</a>
</g>
</g>
<!-- Node2 -->
<g id="Node000002" class="node">
<title>Node2</title>
<g id="a_Node000002"><a xlink:href="namespaceduvc.html#a2c254074ce671320e3e57c56a9389ac1" target="_top" xlink:title="Enumerate all available video input devices.">
<polygon fill="white" stroke="#666666" points="242,-77 147.25,-77 147.25,-57 242,-57 242,-77"/>
<text xml:space="preserve" text-anchor="middle" x="194.62" y="-63.5" font-family="Helvetica,sans-Serif" font-size="10.00">duvc::list_devices</text>
</a>
</g>
</g>
<!-- Node1&#45;&gt;Node2 -->
<g id="edge1_Node000001_Node000002" class="edge">
<title>Node1&#45;&gt;Node2</title>
<g id="a_edge1_Node000001_Node000002"><a xlink:title=" ">
<path fill="none" stroke="#63b8ff" d="M111.56,-67C119.46,-67 127.61,-67 135.58,-67"/>
<polygon fill="#63b8ff" stroke="#63b8ff" points="135.54,-70.5 145.54,-67 135.54,-63.5 135.54,-70.5"/>
</a>
</g>
</g>
<!-- Node3 -->
<g id="Node000003" class="node">
<title>Node3</title>
<g id="a_Node000003"><a xlink:href="namespaceduvc.html#ab7299b8597bf14b18b8351278c209188" target="_top" xlink:title="Create DirectShow device enumerator.">
<polygon fill="white" stroke="#666666" points="405.38,-134 285.12,-134 285.12,-114 405.38,-114 405.38,-134"/>
<text xml:space="preserve" text-anchor="middle" x="345.25" y="-120.5" font-family="Helvetica,sans-Serif" font-size="10.00">duvc::create_dev_enum</text>
</a>
</g>
</g>
<!-- Node2&#45;&gt;Node3 -->
<g id="edge2_Node000002_Node000003" class="edge">
<title>Node2&#45;&gt;Node3</title>
<g id="a_edge2_Node000002_Node000003"><a xlink:title=" ">
<path fill="none" stroke="#63b8ff" d="M215.91,-77.41C232.36,-85.6 256.3,-96.94 278,-105 282.93,-106.83 288.12,-108.59 293.33,-110.26"/>
<polygon fill="#63b8ff" stroke="#63b8ff" points="291.96,-113.5 302.54,-113.08 294.01,-106.8 291.96,-113.5"/>
</a>
</g>
</g>
<!-- Node6 -->
<g id="Node000006" class="node">
<title>Node6</title>
<g id="a_Node000006"><a xlink:href="namespaceduvc.html#a1a577c6cd7e4b3106d6f95c15bbceeed" target="_top" xlink:title="Enumerate video input devices.">
<polygon fill="white" stroke="#666666" points="412.5,-96 278,-96 278,-76 412.5,-76 412.5,-96"/>
<text xml:space="preserve" text-anchor="middle" x="345.25" y="-82.5" font-family="Helvetica,sans-Serif" font-size="10.00">duvc::enum_video_devices</text>
</a>
</g>
</g>
<!-- Node2&#45;&gt;Node6 -->
<g id="edge5_Node000002_Node000006" class="edge">
<title>Node2&#45;&gt;Node6</title>
<g id="a_edge5_Node000002_Node000006"><a xlink:title=" ">
<path fill="none" stroke="#63b8ff" d="M242.24,-72.96C249.97,-73.95 258.16,-74.99 266.41,-76.05"/>
<polygon fill="#63b8ff" stroke="#63b8ff" points="265.79,-79.5 276.16,-77.29 266.68,-72.56 265.79,-79.5"/>
</a>
</g>
</g>
<!-- Node7 -->
<g id="Node000007" class="node">
<title>Node7</title>
<g id="a_Node000007"><a xlink:href="namespaceduvc.html#a2c2b6f32c6871ad36ae0bf98d9374fd0" target="_top" xlink:title="Read device path from moniker.">
<polygon fill="white" stroke="#666666" points="405,-58 285.5,-58 285.5,-38 405,-38 405,-58"/>
<text xml:space="preserve" text-anchor="middle" x="345.25" y="-44.5" font-family="Helvetica,sans-Serif" font-size="10.00">duvc::read_device_path</text>
</a>
</g>
</g>
<!-- Node2&#45;&gt;Node7 -->
<g id="edge7_Node000002_Node000007" class="edge">
<title>Node2&#45;&gt;Node7</title>
<g id="a_edge7_Node000002_Node000007"><a xlink:title=" ">
<path fill="none" stroke="#63b8ff" d="M242.24,-61.04C252.35,-59.75 263.26,-58.35 274.05,-56.97"/>
<polygon fill="#63b8ff" stroke="#63b8ff" points="274.24,-60.48 283.71,-55.74 273.35,-53.54 274.24,-60.48"/>
</a>
</g>
</g>
<!-- Node9 -->
<g id="Node000009" class="node">
<title>Node9</title>
<g id="a_Node000009"><a xlink:href="namespaceduvc.html#a019644436e5f0add38b6242843b79fef" target="_top" xlink:title="Read friendly name from device moniker.">
<polygon fill="white" stroke="#666666" points="409.12,-20 281.38,-20 281.38,0 409.12,0 409.12,-20"/>
<text xml:space="preserve" text-anchor="middle" x="345.25" y="-6.5" font-family="Helvetica,sans-Serif" font-size="10.00">duvc::read_friendly_name</text>
</a>
</g>
</g>
<!-- Node2&#45;&gt;Node9 -->
<g id="edge9_Node000002_Node000009" class="edge">
<title>Node2&#45;&gt;Node9</title>
<g id="a_edge9_Node000002_Node000009"><a xlink:title=" ">
<path fill="none" stroke="#63b8ff" d="M215.91,-56.59C232.36,-48.4 256.3,-37.06 278,-29 282.93,-27.17 288.12,-25.41 293.33,-23.74"/>
<polygon fill="#63b8ff" stroke="#63b8ff" points="294.01,-27.2 302.54,-20.92 291.96,-20.5 294.01,-27.2"/>
</a>
</g>
</g>
<!-- Node4 -->
<g id="Node000004" class="node">
<title>Node4</title>
<g id="a_Node000004"><a xlink:href="namespaceduvc.html#a21b444574354018097d4489a9ff0ff9e" target="_top" xlink:title=" ">
<polygon fill="white" stroke="#666666" points="542.5,-115 462,-115 462,-95 542.5,-95 542.5,-115"/>
<text xml:space="preserve" text-anchor="middle" x="502.25" y="-101.5" font-family="Helvetica,sans-Serif" font-size="10.00">duvc::throw_hr</text>
</a>
</g>
</g>
<!-- Node3&#45;&gt;Node4 -->
<g id="edge3_Node000003_Node000004" class="edge">
<title>Node3&#45;&gt;Node4</title>
<g id="a_edge3_Node000003_Node000004"><a xlink:title=" ">
<path fill="none" stroke="#63b8ff" d="M405.73,-116.71C420.55,-114.89 436.3,-112.96 450.65,-111.2"/>
<polygon fill="#63b8ff" stroke="#63b8ff" points="450.81,-114.71 460.31,-110.02 449.96,-107.76 450.81,-114.71"/>
</a>
</g>
</g>
<!-- Node5 -->
<g id="Node000005" class="node">
<title>Node5</title>
<g id="a_Node000005"><a xlink:href="namespaceduvc.html#a02d5c5b2e56515cee2cad9057af0467d" target="_top" xlink:title=" ">
<polygon fill="white" stroke="#666666" points="690.5,-115 592,-115 592,-95 690.5,-95 690.5,-115"/>
<text xml:space="preserve" text-anchor="middle" x="641.25" y="-101.5" font-family="Helvetica,sans-Serif" font-size="10.00">duvc::wide_to_utf8</text>
</a>
</g>
</g>
<!-- Node4&#45;&gt;Node5 -->
<g id="edge4_Node000004_Node000005" class="edge">
<title>Node4&#45;&gt;Node5</title>
<g id="a_edge4_Node000004_Node000005"><a xlink:title=" ">
<path fill="none" stroke="#63b8ff" d="M542.88,-105C554.61,-105 567.74,-105 580.45,-105"/>
<polygon fill="#63b8ff" stroke="#63b8ff" points="580.45,-108.5 590.45,-105 580.45,-101.5 580.45,-108.5"/>
</a>
</g>
</g>
<!-- Node6&#45;&gt;Node4 -->
<g id="edge6_Node000006_Node000004" class="edge">
<title>Node6&#45;&gt;Node4</title>
<g id="a_edge6_Node000006_Node000004"><a xlink:title=" ">
<path fill="none" stroke="#63b8ff" d="M412.88,-94.17C425.44,-95.71 438.39,-97.29 450.37,-98.76"/>
<polygon fill="#63b8ff" stroke="#63b8ff" points="449.67,-102.2 460.02,-99.95 450.52,-95.26 449.67,-102.2"/>
</a>
</g>
</g>
<!-- Node8 -->
<g id="Node000008" class="node">
<title>Node8</title>
<g id="a_Node000008"><a xlink:href="namespaceduvc.html#a0dbd37821c1cae29fa72d44e3dbd0583" target="_top" xlink:title=" ">
<polygon fill="white" stroke="#666666" points="556,-39 448.5,-39 448.5,-19 556,-19 556,-39"/>
<text xml:space="preserve" text-anchor="middle" x="502.25" y="-25.5" font-family="Helvetica,sans-Serif" font-size="10.00">duvc::read_prop_bstr</text>
</a>
</g>
</g>
<!-- Node7&#45;&gt;Node8 -->
<g id="edge8_Node000007_Node000008" class="edge">
<title>Node7&#45;&gt;Node8</title>
<g id="a_edge8_Node000007_Node000008"><a xlink:title=" ">
<path fill="none" stroke="#63b8ff" d="M405.29,-40.76C415.66,-39.49 426.49,-38.16 436.99,-36.88"/>
<polygon fill="#63b8ff" stroke="#63b8ff" points="437.21,-40.38 446.71,-35.68 436.36,-33.43 437.21,-40.38"/>
</a>
</g>
</g>
<!-- Node9&#45;&gt;Node8 -->
<g id="edge10_Node000009_Node000008" class="edge">
<title>Node9&#45;&gt;Node8</title>
<g id="a_edge10_Node000009_Node000008"><a xlink:title=" ">
<path fill="none" stroke="#63b8ff" d="M409.29,-17.73C418.37,-18.84 427.72,-19.99 436.82,-21.1"/>
<polygon fill="#63b8ff" stroke="#63b8ff" points="436.32,-24.57 446.68,-22.31 437.18,-17.62 436.32,-24.57"/>
</a>
</g>
</g>
</g>
</svg>
