<?xml version="1.0" encoding="UTF-8" standalone="no"?>
<!DOCTYPE svg PUBLIC "-//W3C//DTD SVG 1.1//EN"
 "http://www.w3.org/Graphics/SVG/1.1/DTD/svg11.dtd">
<!-- Generated by graphviz version 14.0.2 (20251019.1705)
 -->
<!-- Title: duvc_vid_get Pages: 1 -->
<svg width="661pt" height="218pt"
 viewBox="0.00 0.00 661.00 218.00" xmlns="http://www.w3.org/2000/svg" xmlns:xlink="http://www.w3.org/1999/xlink">
<g id="graph0" class="graph" transform="scale(1 1) rotate(0) translate(4 214)">
<title>duvc_vid_get</title>
<!-- Node1 -->
<g id="Node000001" class="node">
<title>Node1</title>
<g id="a_Node000001"><a xlink:title=" ">
<polygon fill="#999999" stroke="#666666" points="73.75,-134 0,-134 0,-114 73.75,-114 73.75,-134"/>
<text xml:space="preserve" text-anchor="middle" x="36.88" y="-120.5" font-family="Helvetica,sans-Serif" font-size="10.00">duvc_vid_get</text>
</a>
</g>
</g>
<!-- Node2 -->
<g id="Node000002" class="node">
<title>Node2</title>
<g id="a_Node000002"><a xlink:href="group__quickapi.html#ga03a46d69b1f9bc18596e1085b5161ef0" target="_top" xlink:title="Get a camera control property value.">
<polygon fill="white" stroke="#666666" points="185.38,-172 128.88,-172 128.88,-152 185.38,-152 185.38,-172"/>
<text xml:space="preserve" text-anchor="middle" x="157.12" y="-158.5" font-family="Helvetica,sans-Serif" font-size="10.00">duvc::get</text>
</a>
</g>
</g>
<!-- Node1&#45;&gt;Node2 -->
<g id="edge1_Node000001_Node000002" class="edge">
<title>Node1&#45;&gt;Node2</title>
<g id="a_edge1_Node000001_Node000002"><a xlink:title=" ">
<path fill="none" stroke="#63b8ff" d="M70.5,-134.48C85.13,-139.19 102.5,-144.77 117.75,-149.67"/>
<polygon fill="#63b8ff" stroke="#63b8ff" points="116.38,-152.9 126.97,-152.63 118.52,-146.24 116.38,-152.9"/>
</a>
</g>
</g>
<!-- Node5 -->
<g id="Node000005" class="node">
<title>Node5</title>
<g id="a_Node000005"><a xlink:href="namespaceduvc.html#a2c254074ce671320e3e57c56a9389ac1" target="_top" xlink:title="Enumerate all available video input devices.">
<polygon fill="white" stroke="#666666" points="204.5,-96 109.75,-96 109.75,-76 204.5,-76 204.5,-96"/>
<text xml:space="preserve" text-anchor="middle" x="157.12" y="-82.5" font-family="Helvetica,sans-Serif" font-size="10.00">duvc::list_devices</text>
</a>
</g>
</g>
<!-- Node1&#45;&gt;Node5 -->
<g id="edge4_Node000001_Node000005" class="edge">
<title>Node1&#45;&gt;Node5</title>
<g id="a_edge4_Node000001_Node000005"><a xlink:title=" ">
<path fill="none" stroke="#63b8ff" d="M70.5,-113.52C83.55,-109.32 98.78,-104.43 112.74,-99.94"/>
<polygon fill="#63b8ff" stroke="#63b8ff" points="113.72,-103.3 122.17,-96.91 111.57,-96.64 113.72,-103.3"/>
</a>
</g>
</g>
<!-- Node3 -->
<g id="Node000003" class="node">
<title>Node3</title>
<g id="a_Node000003"><a xlink:href="classduvc_1_1Result.html#a6a3af8795b3d3090f17993728dbe701f" target="_top" xlink:title="Check if result contains a value (success)">
<polygon fill="white" stroke="#666666" points="358.12,-210 257.38,-210 257.38,-190 358.12,-190 358.12,-210"/>
<text xml:space="preserve" text-anchor="middle" x="307.75" y="-196.5" font-family="Helvetica,sans-Serif" font-size="10.00">duvc::Result::is_ok</text>
</a>
</g>
</g>
<!-- Node2&#45;&gt;Node3 -->
<g id="edge2_Node000002_Node000003" class="edge">
<title>Node2&#45;&gt;Node3</title>
<g id="a_edge2_Node000002_Node000003"><a xlink:title=" ">
<path fill="none" stroke="#63b8ff" d="M185.73,-169.06C205.07,-174 231.49,-180.76 254.72,-186.7"/>
<polygon fill="#63b8ff" stroke="#63b8ff" points="253.8,-190.07 264.35,-189.16 255.53,-183.29 253.8,-190.07"/>
</a>
</g>
</g>
<!-- Node4 -->
<g id="Node000004" class="node">
<title>Node4</title>
<g id="a_Node000004"><a xlink:href="classduvc_1_1Result.html#a260a000aca87d38c8f9f22ad80804691" target="_top" xlink:title="Get the value (assumes success)">
<polygon fill="white" stroke="#666666" points="358.12,-172 257.38,-172 257.38,-152 358.12,-152 358.12,-172"/>
<text xml:space="preserve" text-anchor="middle" x="307.75" y="-158.5" font-family="Helvetica,sans-Serif" font-size="10.00">duvc::Result::value</text>
</a>
</g>
</g>
<!-- Node2&#45;&gt;Node4 -->
<g id="edge3_Node000002_Node000004" class="edge">
<title>Node2&#45;&gt;Node4</title>
<g id="a_edge3_Node000002_Node000004"><a xlink:title=" ">
<path fill="none" stroke="#63b8ff" d="M185.73,-162C202.59,-162 224.84,-162 245.66,-162"/>
<polygon fill="#63b8ff" stroke="#63b8ff" points="245.52,-165.5 255.52,-162 245.52,-158.5 245.52,-165.5"/>
</a>
</g>
</g>
<!-- Node6 -->
<g id="Node000006" class="node">
<title>Node6</title>
<g id="a_Node000006"><a xlink:href="namespaceduvc.html#ab7299b8597bf14b18b8351278c209188" target="_top" xlink:title="Create DirectShow device enumerator.">
<polygon fill="white" stroke="#666666" points="367.88,-134 247.62,-134 247.62,-114 367.88,-114 367.88,-134"/>
<text xml:space="preserve" text-anchor="middle" x="307.75" y="-120.5" font-family="Helvetica,sans-Serif" font-size="10.00">duvc::create_dev_enum</text>
</a>
</g>
</g>
<!-- Node5&#45;&gt;Node6 -->
<g id="edge5_Node000005_Node000006" class="edge">
<title>Node5&#45;&gt;Node6</title>
<g id="a_edge5_Node000005_Node000006"><a xlink:title=" ">
<path fill="none" stroke="#63b8ff" d="M199.13,-96.48C216.35,-100.89 236.58,-106.06 254.82,-110.72"/>
<polygon fill="#63b8ff" stroke="#63b8ff" points="253.86,-114.09 264.41,-113.18 255.59,-107.31 253.86,-114.09"/>
</a>
</g>
</g>
<!-- Node9 -->
<g id="Node000009" class="node">
<title>Node9</title>
<g id="a_Node000009"><a xlink:href="namespaceduvc.html#a1a577c6cd7e4b3106d6f95c15bbceeed" target="_top" xlink:title="Enumerate video input devices.">
<polygon fill="white" stroke="#666666" points="375,-96 240.5,-96 240.5,-76 375,-76 375,-96"/>
<text xml:space="preserve" text-anchor="middle" x="307.75" y="-82.5" font-family="Helvetica,sans-Serif" font-size="10.00">duvc::enum_video_devices</text>
</a>
</g>
</g>
<!-- Node5&#45;&gt;Node9 -->
<g id="edge8_Node000005_Node000009" class="edge">
<title>Node5&#45;&gt;Node9</title>
<g id="a_edge8_Node000005_Node000009"><a xlink:title=" ">
<path fill="none" stroke="#63b8ff" d="M204.74,-86C212.47,-86 220.66,-86 228.91,-86"/>
<polygon fill="#63b8ff" stroke="#63b8ff" points="228.64,-89.5 238.64,-86 228.64,-82.5 228.64,-89.5"/>
</a>
</g>
</g>
<!-- Node10 -->
<g id="Node000010" class="node">
<title>Node10</title>
<g id="a_Node000010"><a xlink:href="namespaceduvc.html#a2c2b6f32c6871ad36ae0bf98d9374fd0" target="_top" xlink:title="Read device path from moniker.">
<polygon fill="white" stroke="#666666" points="367.5,-58 248,-58 248,-38 367.5,-38 367.5,-58"/>
<text xml:space="preserve" text-anchor="middle" x="307.75" y="-44.5" font-family="Helvetica,sans-Serif" font-size="10.00">duvc::read_device_path</text>
</a>
</g>
</g>
<!-- Node5&#45;&gt;Node10 -->
<g id="edge10_Node000005_Node000010" class="edge">
<title>Node5&#45;&gt;Node10</title>
<g id="a_edge10_Node000005_Node000010"><a xlink:title=" ">
<path fill="none" stroke="#63b8ff" d="M199.13,-75.52C216.35,-71.11 236.58,-65.94 254.82,-61.28"/>
<polygon fill="#63b8ff" stroke="#63b8ff" points="255.59,-64.69 264.41,-58.82 253.86,-57.91 255.59,-64.69"/>
</a>
</g>
</g>
<!-- Node12 -->
<g id="Node000012" class="node">
<title>Node12</title>
<g id="a_Node000012"><a xlink:href="namespaceduvc.html#a019644436e5f0add38b6242843b79fef" target="_top" xlink:title="Read friendly name from device moniker.">
<polygon fill="white" stroke="#666666" points="371.62,-20 243.88,-20 243.88,0 371.62,0 371.62,-20"/>
<text xml:space="preserve" text-anchor="middle" x="307.75" y="-6.5" font-family="Helvetica,sans-Serif" font-size="10.00">duvc::read_friendly_name</text>
</a>
</g>
</g>
<!-- Node5&#45;&gt;Node12 -->
<g id="edge12_Node000005_Node000012" class="edge">
<title>Node5&#45;&gt;Node12</title>
<g id="a_edge12_Node000005_Node000012"><a xlink:title=" ">
<path fill="none" stroke="#63b8ff" d="M170.45,-75.53C185.9,-62.89 213.62,-41.73 240.5,-29 244.23,-27.23 248.17,-25.59 252.18,-24.09"/>
<polygon fill="#63b8ff" stroke="#63b8ff" points="253.14,-27.45 261.45,-20.88 250.86,-20.84 253.14,-27.45"/>
</a>
</g>
</g>
<!-- Node7 -->
<g id="Node000007" class="node">
<title>Node7</title>
<g id="a_Node000007"><a xlink:href="namespaceduvc.html#a21b444574354018097d4489a9ff0ff9e" target="_top" xlink:title=" ">
<polygon fill="white" stroke="#666666" points="505,-115 424.5,-115 424.5,-95 505,-95 505,-115"/>
<text xml:space="preserve" text-anchor="middle" x="464.75" y="-101.5" font-family="Helvetica,sans-Serif" font-size="10.00">duvc::throw_hr</text>
</a>
</g>
</g>
<!-- Node6&#45;&gt;Node7 -->
<g id="edge6_Node000006_Node000007" class="edge">
<title>Node6&#45;&gt;Node7</title>
<g id="a_edge6_Node000006_Node000007"><a xlink:title=" ">
<path fill="none" stroke="#63b8ff" d="M368.23,-116.71C383.05,-114.89 398.8,-112.96 413.15,-111.2"/>
<polygon fill="#63b8ff" stroke="#63b8ff" points="413.31,-114.71 422.81,-110.02 412.46,-107.76 413.31,-114.71"/>
</a>
</g>
</g>
<!-- Node8 -->
<g id="Node000008" class="node">
<title>Node8</title>
<g id="a_Node000008"><a xlink:href="namespaceduvc.html#a02d5c5b2e56515cee2cad9057af0467d" target="_top" xlink:title=" ">
<polygon fill="white" stroke="#666666" points="653,-115 554.5,-115 554.5,-95 653,-95 653,-115"/>
<text xml:space="preserve" text-anchor="middle" x="603.75" y="-101.5" font-family="Helvetica,sans-Serif" font-size="10.00">duvc::wide_to_utf8</text>
</a>
</g>
</g>
<!-- Node7&#45;&gt;Node8 -->
<g id="edge7_Node000007_Node000008" class="edge">
<title>Node7&#45;&gt;Node8</title>
<g id="a_edge7_Node000007_Node000008"><a xlink:title=" ">
<path fill="none" stroke="#63b8ff" d="M505.38,-105C517.11,-105 530.24,-105 542.95,-105"/>
<polygon fill="#63b8ff" stroke="#63b8ff" points="542.95,-108.5 552.95,-105 542.95,-101.5 542.95,-108.5"/>
</a>
</g>
</g>
<!-- Node9&#45;&gt;Node7 -->
<g id="edge9_Node000009_Node000007" class="edge">
<title>Node9&#45;&gt;Node7</title>
<g id="a_edge9_Node000009_Node000007"><a xlink:title=" ">
<path fill="none" stroke="#63b8ff" d="M375.38,-94.17C387.94,-95.71 400.89,-97.29 412.87,-98.76"/>
<polygon fill="#63b8ff" stroke="#63b8ff" points="412.17,-102.2 422.52,-99.95 413.02,-95.26 412.17,-102.2"/>
</a>
</g>
</g>
<!-- Node11 -->
<g id="Node000011" class="node">
<title>Node11</title>
<g id="a_Node000011"><a xlink:href="namespaceduvc.html#a0dbd37821c1cae29fa72d44e3dbd0583" target="_top" xlink:title=" ">
<polygon fill="white" stroke="#666666" points="518.5,-39 411,-39 411,-19 518.5,-19 518.5,-39"/>
<text xml:space="preserve" text-anchor="middle" x="464.75" y="-25.5" font-family="Helvetica,sans-Serif" font-size="10.00">duvc::read_prop_bstr</text>
</a>
</g>
</g>
<!-- Node10&#45;&gt;Node11 -->
<g id="edge11_Node000010_Node000011" class="edge">
<title>Node10&#45;&gt;Node11</title>
<g id="a_edge11_Node000010_Node000011"><a xlink:title=" ">
<path fill="none" stroke="#63b8ff" d="M367.79,-40.76C378.16,-39.49 388.99,-38.16 399.49,-36.88"/>
<polygon fill="#63b8ff" stroke="#63b8ff" points="399.71,-40.38 409.21,-35.68 398.86,-33.43 399.71,-40.38"/>
</a>
</g>
</g>
<!-- Node12&#45;&gt;Node11 -->
<g id="edge13_Node000012_Node000011" class="edge">
<title>Node12&#45;&gt;Node11</title>
<g id="a_edge13_Node000012_Node000011"><a xlink:title=" ">
<path fill="none" stroke="#63b8ff" d="M371.79,-17.73C380.87,-18.84 390.22,-19.99 399.32,-21.1"/>
<polygon fill="#63b8ff" stroke="#63b8ff" points="398.82,-24.57 409.18,-22.31 399.68,-17.62 398.82,-24.57"/>
</a>
</g>
</g>
</g>
</svg>
