<?xml version="1.0" encoding="UTF-8" standalone="no"?>
<!DOCTYPE svg PUBLIC "-//W3C//DTD SVG 1.1//EN"
 "http://www.w3.org/Graphics/SVG/1.1/DTD/svg11.dtd">
<!-- Generated by graphviz version 14.0.2 (20251019.1705)
 -->
<!-- Title: duvc_cam_get_range Pages: 1 -->
<svg width="696pt" height="218pt"
 viewBox="0.00 0.00 696.00 218.00" xmlns="http://www.w3.org/2000/svg" xmlns:xlink="http://www.w3.org/1999/xlink">
<g id="graph0" class="graph" transform="scale(1 1) rotate(0) translate(4 214)">
<title>duvc_cam_get_range</title>
<!-- Node1 -->
<g id="Node000001" class="node">
<title>Node1</title>
<g id="a_Node000001"><a xlink:title=" ">
<polygon fill="#999999" stroke="#666666" points="109,-134 0,-134 0,-114 109,-114 109,-134"/>
<text xml:space="preserve" text-anchor="middle" x="54.5" y="-120.5" font-family="Helvetica,sans-Serif" font-size="10.00">duvc_cam_get_range</text>
</a>
</g>
</g>
<!-- Node2 -->
<g id="Node000002" class="node">
<title>Node2</title>
<g id="a_Node000002"><a xlink:href="group__quickapi.html#gaf73ccab11e1e8cb1a7311ad6e5d59f61" target="_top" xlink:title="Get the valid range for a camera control property.">
<polygon fill="white" stroke="#666666" points="235.25,-172 149.5,-172 149.5,-152 235.25,-152 235.25,-172"/>
<text xml:space="preserve" text-anchor="middle" x="192.38" y="-158.5" font-family="Helvetica,sans-Serif" font-size="10.00">duvc::get_range</text>
</a>
</g>
</g>
<!-- Node1&#45;&gt;Node2 -->
<g id="edge1_Node000001_Node000002" class="edge">
<title>Node1&#45;&gt;Node2</title>
<g id="a_edge1_Node000001_Node000002"><a xlink:title=" ">
<path fill="none" stroke="#63b8ff" d="M92.99,-134.48C108.43,-138.8 126.53,-143.86 142.95,-148.46"/>
<polygon fill="#63b8ff" stroke="#63b8ff" points="141.98,-151.82 152.55,-151.14 143.86,-145.08 141.98,-151.82"/>
</a>
</g>
</g>
<!-- Node5 -->
<g id="Node000005" class="node">
<title>Node5</title>
<g id="a_Node000005"><a xlink:href="namespaceduvc.html#a2c254074ce671320e3e57c56a9389ac1" target="_top" xlink:title="Enumerate all available video input devices.">
<polygon fill="white" stroke="#666666" points="239.75,-96 145,-96 145,-76 239.75,-76 239.75,-96"/>
<text xml:space="preserve" text-anchor="middle" x="192.38" y="-82.5" font-family="Helvetica,sans-Serif" font-size="10.00">duvc::list_devices</text>
</a>
</g>
</g>
<!-- Node1&#45;&gt;Node5 -->
<g id="edge4_Node000001_Node000005" class="edge">
<title>Node1&#45;&gt;Node5</title>
<g id="a_edge4_Node000001_Node000005"><a xlink:title=" ">
<path fill="none" stroke="#63b8ff" d="M92.99,-113.52C108.43,-109.2 126.53,-104.14 142.95,-99.54"/>
<polygon fill="#63b8ff" stroke="#63b8ff" points="143.86,-102.92 152.55,-96.86 141.98,-96.18 143.86,-102.92"/>
</a>
</g>
</g>
<!-- Node3 -->
<g id="Node000003" class="node">
<title>Node3</title>
<g id="a_Node000003"><a xlink:href="classduvc_1_1Result.html#a6a3af8795b3d3090f17993728dbe701f" target="_top" xlink:title="Check if result contains a value (success)">
<polygon fill="white" stroke="#666666" points="393.38,-210 292.62,-210 292.62,-190 393.38,-190 393.38,-210"/>
<text xml:space="preserve" text-anchor="middle" x="343" y="-196.5" font-family="Helvetica,sans-Serif" font-size="10.00">duvc::Result::is_ok</text>
</a>
</g>
</g>
<!-- Node2&#45;&gt;Node3 -->
<g id="edge2_Node000002_Node000003" class="edge">
<title>Node2&#45;&gt;Node3</title>
<g id="a_edge2_Node000002_Node000003"><a xlink:title=" ">
<path fill="none" stroke="#63b8ff" d="M234.38,-172.48C251.6,-176.89 271.83,-182.06 290.07,-186.72"/>
<polygon fill="#63b8ff" stroke="#63b8ff" points="289.11,-190.09 299.66,-189.18 290.84,-183.31 289.11,-190.09"/>
</a>
</g>
</g>
<!-- Node4 -->
<g id="Node000004" class="node">
<title>Node4</title>
<g id="a_Node000004"><a xlink:href="classduvc_1_1Result.html#a260a000aca87d38c8f9f22ad80804691" target="_top" xlink:title="Get the value (assumes success)">
<polygon fill="white" stroke="#666666" points="393.38,-172 292.62,-172 292.62,-152 393.38,-152 393.38,-172"/>
<text xml:space="preserve" text-anchor="middle" x="343" y="-158.5" font-family="Helvetica,sans-Serif" font-size="10.00">duvc::Result::value</text>
</a>
</g>
</g>
<!-- Node2&#45;&gt;Node4 -->
<g id="edge3_Node000002_Node000004" class="edge">
<title>Node2&#45;&gt;Node4</title>
<g id="a_edge3_Node000002_Node000004"><a xlink:title=" ">
<path fill="none" stroke="#63b8ff" d="M235.57,-162C249.66,-162 265.65,-162 280.88,-162"/>
<polygon fill="#63b8ff" stroke="#63b8ff" points="280.82,-165.5 290.82,-162 280.82,-158.5 280.82,-165.5"/>
</a>
</g>
</g>
<!-- Node6 -->
<g id="Node000006" class="node">
<title>Node6</title>
<g id="a_Node000006"><a xlink:href="namespaceduvc.html#ab7299b8597bf14b18b8351278c209188" target="_top" xlink:title="Create DirectShow device enumerator.">
<polygon fill="white" stroke="#666666" points="403.12,-134 282.88,-134 282.88,-114 403.12,-114 403.12,-134"/>
<text xml:space="preserve" text-anchor="middle" x="343" y="-120.5" font-family="Helvetica,sans-Serif" font-size="10.00">duvc::create_dev_enum</text>
</a>
</g>
</g>
<!-- Node5&#45;&gt;Node6 -->
<g id="edge5_Node000005_Node000006" class="edge">
<title>Node5&#45;&gt;Node6</title>
<g id="a_edge5_Node000005_Node000006"><a xlink:title=" ">
<path fill="none" stroke="#63b8ff" d="M234.38,-96.48C251.6,-100.89 271.83,-106.06 290.07,-110.72"/>
<polygon fill="#63b8ff" stroke="#63b8ff" points="289.11,-114.09 299.66,-113.18 290.84,-107.31 289.11,-114.09"/>
</a>
</g>
</g>
<!-- Node9 -->
<g id="Node000009" class="node">
<title>Node9</title>
<g id="a_Node000009"><a xlink:href="namespaceduvc.html#a1a577c6cd7e4b3106d6f95c15bbceeed" target="_top" xlink:title="Enumerate video input devices.">
<polygon fill="white" stroke="#666666" points="410.25,-96 275.75,-96 275.75,-76 410.25,-76 410.25,-96"/>
<text xml:space="preserve" text-anchor="middle" x="343" y="-82.5" font-family="Helvetica,sans-Serif" font-size="10.00">duvc::enum_video_devices</text>
</a>
</g>
</g>
<!-- Node5&#45;&gt;Node9 -->
<g id="edge8_Node000005_Node000009" class="edge">
<title>Node5&#45;&gt;Node9</title>
<g id="a_edge8_Node000005_Node000009"><a xlink:title=" ">
<path fill="none" stroke="#63b8ff" d="M239.99,-86C247.72,-86 255.91,-86 264.16,-86"/>
<polygon fill="#63b8ff" stroke="#63b8ff" points="263.89,-89.5 273.89,-86 263.89,-82.5 263.89,-89.5"/>
</a>
</g>
</g>
<!-- Node10 -->
<g id="Node000010" class="node">
<title>Node10</title>
<g id="a_Node000010"><a xlink:href="namespaceduvc.html#a2c2b6f32c6871ad36ae0bf98d9374fd0" target="_top" xlink:title="Read device path from moniker.">
<polygon fill="white" stroke="#666666" points="402.75,-58 283.25,-58 283.25,-38 402.75,-38 402.75,-58"/>
<text xml:space="preserve" text-anchor="middle" x="343" y="-44.5" font-family="Helvetica,sans-Serif" font-size="10.00">duvc::read_device_path</text>
</a>
</g>
</g>
<!-- Node5&#45;&gt;Node10 -->
<g id="edge10_Node000005_Node000010" class="edge">
<title>Node5&#45;&gt;Node10</title>
<g id="a_edge10_Node000005_Node000010"><a xlink:title=" ">
<path fill="none" stroke="#63b8ff" d="M234.38,-75.52C251.6,-71.11 271.83,-65.94 290.07,-61.28"/>
<polygon fill="#63b8ff" stroke="#63b8ff" points="290.84,-64.69 299.66,-58.82 289.11,-57.91 290.84,-64.69"/>
</a>
</g>
</g>
<!-- Node12 -->
<g id="Node000012" class="node">
<title>Node12</title>
<g id="a_Node000012"><a xlink:href="namespaceduvc.html#a019644436e5f0add38b6242843b79fef" target="_top" xlink:title="Read friendly name from device moniker.">
<polygon fill="white" stroke="#666666" points="406.88,-20 279.12,-20 279.12,0 406.88,0 406.88,-20"/>
<text xml:space="preserve" text-anchor="middle" x="343" y="-6.5" font-family="Helvetica,sans-Serif" font-size="10.00">duvc::read_friendly_name</text>
</a>
</g>
</g>
<!-- Node5&#45;&gt;Node12 -->
<g id="edge12_Node000005_Node000012" class="edge">
<title>Node5&#45;&gt;Node12</title>
<g id="a_edge12_Node000005_Node000012"><a xlink:title=" ">
<path fill="none" stroke="#63b8ff" d="M205.7,-75.53C221.15,-62.89 248.87,-41.73 275.75,-29 279.48,-27.23 283.42,-25.59 287.43,-24.09"/>
<polygon fill="#63b8ff" stroke="#63b8ff" points="288.39,-27.45 296.7,-20.88 286.11,-20.84 288.39,-27.45"/>
</a>
</g>
</g>
<!-- Node7 -->
<g id="Node000007" class="node">
<title>Node7</title>
<g id="a_Node000007"><a xlink:href="namespaceduvc.html#a21b444574354018097d4489a9ff0ff9e" target="_top" xlink:title=" ">
<polygon fill="white" stroke="#666666" points="540.25,-115 459.75,-115 459.75,-95 540.25,-95 540.25,-115"/>
<text xml:space="preserve" text-anchor="middle" x="500" y="-101.5" font-family="Helvetica,sans-Serif" font-size="10.00">duvc::throw_hr</text>
</a>
</g>
</g>
<!-- Node6&#45;&gt;Node7 -->
<g id="edge6_Node000006_Node000007" class="edge">
<title>Node6&#45;&gt;Node7</title>
<g id="a_edge6_Node000006_Node000007"><a xlink:title=" ">
<path fill="none" stroke="#63b8ff" d="M403.48,-116.71C418.3,-114.89 434.05,-112.96 448.4,-111.2"/>
<polygon fill="#63b8ff" stroke="#63b8ff" points="448.56,-114.71 458.06,-110.02 447.71,-107.76 448.56,-114.71"/>
</a>
</g>
</g>
<!-- Node8 -->
<g id="Node000008" class="node">
<title>Node8</title>
<g id="a_Node000008"><a xlink:href="namespaceduvc.html#a02d5c5b2e56515cee2cad9057af0467d" target="_top" xlink:title=" ">
<polygon fill="white" stroke="#666666" points="688.25,-115 589.75,-115 589.75,-95 688.25,-95 688.25,-115"/>
<text xml:space="preserve" text-anchor="middle" x="639" y="-101.5" font-family="Helvetica,sans-Serif" font-size="10.00">duvc::wide_to_utf8</text>
</a>
</g>
</g>
<!-- Node7&#45;&gt;Node8 -->
<g id="edge7_Node000007_Node000008" class="edge">
<title>Node7&#45;&gt;Node8</title>
<g id="a_edge7_Node000007_Node000008"><a xlink:title=" ">
<path fill="none" stroke="#63b8ff" d="M540.63,-105C552.36,-105 565.49,-105 578.2,-105"/>
<polygon fill="#63b8ff" stroke="#63b8ff" points="578.2,-108.5 588.2,-105 578.2,-101.5 578.2,-108.5"/>
</a>
</g>
</g>
<!-- Node9&#45;&gt;Node7 -->
<g id="edge9_Node000009_Node000007" class="edge">
<title>Node9&#45;&gt;Node7</title>
<g id="a_edge9_Node000009_Node000007"><a xlink:title=" ">
<path fill="none" stroke="#63b8ff" d="M410.63,-94.17C423.19,-95.71 436.14,-97.29 448.12,-98.76"/>
<polygon fill="#63b8ff" stroke="#63b8ff" points="447.42,-102.2 457.77,-99.95 448.27,-95.26 447.42,-102.2"/>
</a>
</g>
</g>
<!-- Node11 -->
<g id="Node000011" class="node">
<title>Node11</title>
<g id="a_Node000011"><a xlink:href="namespaceduvc.html#a0dbd37821c1cae29fa72d44e3dbd0583" target="_top" xlink:title=" ">
<polygon fill="white" stroke="#666666" points="553.75,-39 446.25,-39 446.25,-19 553.75,-19 553.75,-39"/>
<text xml:space="preserve" text-anchor="middle" x="500" y="-25.5" font-family="Helvetica,sans-Serif" font-size="10.00">duvc::read_prop_bstr</text>
</a>
</g>
</g>
<!-- Node10&#45;&gt;Node11 -->
<g id="edge11_Node000010_Node000011" class="edge">
<title>Node10&#45;&gt;Node11</title>
<g id="a_edge11_Node000010_Node000011"><a xlink:title=" ">
<path fill="none" stroke="#63b8ff" d="M403.04,-40.76C413.41,-39.49 424.24,-38.16 434.74,-36.88"/>
<polygon fill="#63b8ff" stroke="#63b8ff" points="434.96,-40.38 444.46,-35.68 434.11,-33.43 434.96,-40.38"/>
</a>
</g>
</g>
<!-- Node12&#45;&gt;Node11 -->
<g id="edge13_Node000012_Node000011" class="edge">
<title>Node12&#45;&gt;Node11</title>
<g id="a_edge13_Node000012_Node000011"><a xlink:title=" ">
<path fill="none" stroke="#63b8ff" d="M407.04,-17.73C416.12,-18.84 425.47,-19.99 434.57,-21.1"/>
<polygon fill="#63b8ff" stroke="#63b8ff" points="434.07,-24.57 444.43,-22.31 434.93,-17.62 434.07,-24.57"/>
</a>
</g>
</g>
</g>
</svg>
