<?xml version="1.0" encoding="UTF-8" standalone="no"?>
<!DOCTYPE svg PUBLIC "-//W3C//DTD SVG 1.1//EN"
 "http://www.w3.org/Graphics/SVG/1.1/DTD/svg11.dtd">
<!-- Generated by graphviz version 14.0.2 (20251019.1705)
 -->
<!-- Title: bindings.cpp Pages: 1 -->
<svg width="402pt" height="196pt"
 viewBox="0.00 0.00 402.00 196.00" xmlns="http://www.w3.org/2000/svg" xmlns:xlink="http://www.w3.org/1999/xlink">
<g id="graph0" class="graph" transform="scale(1 1) rotate(0) translate(4 192)">
<title>bindings.cpp</title>
<!-- Node1 -->
<g id="Node000001" class="node">
<title>Node1</title>
<g id="a_Node000001"><a xlink:title=" ">
<polygon fill="#999999" stroke="#666666" points="186.88,-188 116.12,-188 116.12,-168 186.88,-168 186.88,-188"/>
<text xml:space="preserve" text-anchor="middle" x="151.5" y="-174.5" font-family="Helvetica,sans-Serif" font-size="10.00">bindings.cpp</text>
</a>
</g>
</g>
<!-- Node2 -->
<g id="Node000002" class="node">
<title>Node2</title>
<g id="a_Node000002"><a xlink:href="core_8h.html" target="_top" xlink:title=" ">
<polygon fill="white" stroke="#666666" points="191.75,-132 111.25,-132 111.25,-112 191.75,-112 191.75,-132"/>
<text xml:space="preserve" text-anchor="middle" x="151.5" y="-118.5" font-family="Helvetica,sans-Serif" font-size="10.00">duvc&#45;ctl/core.h</text>
</a>
</g>
</g>
<!-- Node1&#45;&gt;Node2 -->
<g id="edge1_Node000001_Node000002" class="edge">
<title>Node1&#45;&gt;Node2</title>
<g id="a_edge1_Node000001_Node000002"><a xlink:title=" ">
<path fill="none" stroke="#63b8ff" d="M151.5,-167.59C151.5,-161.01 151.5,-151.96 151.5,-143.73"/>
<polygon fill="#63b8ff" stroke="#63b8ff" points="155,-143.81 151.5,-133.81 148,-143.81 155,-143.81"/>
</a>
</g>
</g>
<!-- Node5 -->
<g id="Node000005" class="node">
<title>Node5</title>
<g id="a_Node000005"><a xlink:title=" ">
<polygon fill="#e0e0e0" stroke="#999999" points="43,-76 0,-76 0,-56 43,-56 43,-76"/>
<text xml:space="preserve" text-anchor="middle" x="21.5" y="-62.5" font-family="Helvetica,sans-Serif" font-size="10.00">vector</text>
</a>
</g>
</g>
<!-- Node1&#45;&gt;Node5 -->
<g id="edge9_Node000001_Node000005" class="edge">
<title>Node1&#45;&gt;Node5</title>
<g id="a_edge9_Node000001_Node000005"><a xlink:title=" ">
<path fill="none" stroke="#63b8ff" d="M140.42,-167.62C118.35,-148.95 68.67,-106.92 41.02,-83.52"/>
<polygon fill="#63b8ff" stroke="#63b8ff" points="43.61,-81.12 33.71,-77.33 39.08,-86.46 43.61,-81.12"/>
</a>
</g>
</g>
<!-- Node10 -->
<g id="Node000010" class="node">
<title>Node10</title>
<g id="a_Node000010"><a xlink:title=" ">
<polygon fill="#e0e0e0" stroke="#999999" points="253,-132 210,-132 210,-112 253,-112 253,-132"/>
<text xml:space="preserve" text-anchor="middle" x="231.5" y="-118.5" font-family="Helvetica,sans-Serif" font-size="10.00">mutex</text>
</a>
</g>
</g>
<!-- Node1&#45;&gt;Node10 -->
<g id="edge10_Node000001_Node000010" class="edge">
<title>Node1&#45;&gt;Node10</title>
<g id="a_edge10_Node000001_Node000010"><a xlink:title=" ">
<path fill="none" stroke="#63b8ff" d="M165.43,-167.59C177.18,-159.67 194.23,-148.16 208.07,-138.82"/>
<polygon fill="#63b8ff" stroke="#63b8ff" points="209.87,-141.82 216.2,-133.33 205.96,-136.02 209.87,-141.82"/>
</a>
</g>
</g>
<!-- Node3 -->
<g id="Node000003" class="node">
<title>Node3</title>
<g id="a_Node000003"><a xlink:href="defs_8h.html" target="_top" xlink:title=" ">
<polygon fill="white" stroke="#666666" points="104,-76 61,-76 61,-56 104,-56 104,-76"/>
<text xml:space="preserve" text-anchor="middle" x="82.5" y="-62.5" font-family="Helvetica,sans-Serif" font-size="10.00">defs.h</text>
</a>
</g>
</g>
<!-- Node2&#45;&gt;Node3 -->
<g id="edge2_Node000002_Node000003" class="edge">
<title>Node2&#45;&gt;Node3</title>
<g id="a_edge2_Node000002_Node000003"><a xlink:title=" ">
<path fill="none" stroke="#63b8ff" d="M139.48,-111.59C129.49,-103.77 115.04,-92.46 103.19,-83.19"/>
<polygon fill="#63b8ff" stroke="#63b8ff" points="105.61,-80.64 95.57,-77.23 101.29,-86.15 105.61,-80.64"/>
</a>
</g>
</g>
<!-- Node2&#45;&gt;Node5 -->
<g id="edge4_Node000002_Node000005" class="edge">
<title>Node2&#45;&gt;Node5</title>
<g id="a_edge4_Node000002_Node000005"><a xlink:title=" ">
<path fill="none" stroke="#63b8ff" d="M128.86,-111.59C108.13,-102.99 77.23,-90.15 53.9,-80.46"/>
<polygon fill="#63b8ff" stroke="#63b8ff" points="55.43,-77.3 44.85,-76.7 52.74,-83.77 55.43,-77.3"/>
</a>
</g>
</g>
<!-- Node6 -->
<g id="Node000006" class="node">
<title>Node6</title>
<g id="a_Node000006"><a xlink:title=" ">
<polygon fill="#e0e0e0" stroke="#999999" points="180.5,-76 122.5,-76 122.5,-56 180.5,-56 180.5,-76"/>
<text xml:space="preserve" text-anchor="middle" x="151.5" y="-62.5" font-family="Helvetica,sans-Serif" font-size="10.00">functional</text>
</a>
</g>
</g>
<!-- Node2&#45;&gt;Node6 -->
<g id="edge5_Node000002_Node000006" class="edge">
<title>Node2&#45;&gt;Node6</title>
<g id="a_edge5_Node000002_Node000006"><a xlink:title=" ">
<path fill="none" stroke="#63b8ff" d="M151.5,-111.59C151.5,-105.01 151.5,-95.96 151.5,-87.73"/>
<polygon fill="#63b8ff" stroke="#63b8ff" points="155,-87.81 151.5,-77.81 148,-87.81 155,-87.81"/>
</a>
</g>
</g>
<!-- Node7 -->
<g id="Node000007" class="node">
<title>Node7</title>
<g id="a_Node000007"><a xlink:title=" ">
<polygon fill="#e0e0e0" stroke="#999999" points="250.12,-76 198.88,-76 198.88,-56 250.12,-56 250.12,-76"/>
<text xml:space="preserve" text-anchor="middle" x="224.5" y="-62.5" font-family="Helvetica,sans-Serif" font-size="10.00">memory</text>
</a>
</g>
</g>
<!-- Node2&#45;&gt;Node7 -->
<g id="edge6_Node000002_Node000007" class="edge">
<title>Node2&#45;&gt;Node7</title>
<g id="a_edge6_Node000002_Node000007"><a xlink:title=" ">
<path fill="none" stroke="#63b8ff" d="M164.22,-111.59C174.89,-103.7 190.38,-92.24 202.98,-82.92"/>
<polygon fill="#63b8ff" stroke="#63b8ff" points="204.76,-85.96 210.71,-77.2 200.59,-80.33 204.76,-85.96"/>
</a>
</g>
</g>
<!-- Node8 -->
<g id="Node000008" class="node">
<title>Node8</title>
<g id="a_Node000008"><a xlink:title=" ">
<polygon fill="#e0e0e0" stroke="#999999" points="313.12,-76 267.88,-76 267.88,-56 313.12,-56 313.12,-76"/>
<text xml:space="preserve" text-anchor="middle" x="290.5" y="-62.5" font-family="Helvetica,sans-Serif" font-size="10.00">cstdint</text>
</a>
</g>
</g>
<!-- Node2&#45;&gt;Node8 -->
<g id="edge7_Node000002_Node000008" class="edge">
<title>Node2&#45;&gt;Node8</title>
<g id="a_edge7_Node000002_Node000008"><a xlink:title=" ">
<path fill="none" stroke="#63b8ff" d="M175.71,-111.59C198.21,-102.85 231.91,-89.76 256.99,-80.02"/>
<polygon fill="#63b8ff" stroke="#63b8ff" points="258.02,-83.37 266.08,-76.49 255.49,-76.85 258.02,-83.37"/>
</a>
</g>
</g>
<!-- Node9 -->
<g id="Node000009" class="node">
<title>Node9</title>
<g id="a_Node000009"><a xlink:title=" ">
<polygon fill="#e0e0e0" stroke="#999999" points="393.75,-76 331.25,-76 331.25,-56 393.75,-56 393.75,-76"/>
<text xml:space="preserve" text-anchor="middle" x="362.5" y="-62.5" font-family="Helvetica,sans-Serif" font-size="10.00">windows.h</text>
</a>
</g>
</g>
<!-- Node2&#45;&gt;Node9 -->
<g id="edge8_Node000002_Node000009" class="edge">
<title>Node2&#45;&gt;Node9</title>
<g id="a_edge8_Node000002_Node000009"><a xlink:title=" ">
<path fill="none" stroke="#63b8ff" d="M188.25,-111.59C225.01,-102.19 281.47,-87.74 320.1,-77.85"/>
<polygon fill="#63b8ff" stroke="#63b8ff" points="320.7,-81.31 329.52,-75.44 318.96,-74.53 320.7,-81.31"/>
</a>
</g>
</g>
<!-- Node4 -->
<g id="Node000004" class="node">
<title>Node4</title>
<g id="a_Node000004"><a xlink:title=" ">
<polygon fill="#e0e0e0" stroke="#999999" points="102.5,-20 62.5,-20 62.5,0 102.5,0 102.5,-20"/>
<text xml:space="preserve" text-anchor="middle" x="82.5" y="-6.5" font-family="Helvetica,sans-Serif" font-size="10.00">string</text>
</a>
</g>
</g>
<!-- Node3&#45;&gt;Node4 -->
<g id="edge3_Node000003_Node000004" class="edge">
<title>Node3&#45;&gt;Node4</title>
<g id="a_edge3_Node000003_Node000004"><a xlink:title=" ">
<path fill="none" stroke="#63b8ff" d="M82.5,-55.59C82.5,-49.01 82.5,-39.96 82.5,-31.73"/>
<polygon fill="#63b8ff" stroke="#63b8ff" points="86,-31.81 82.5,-21.81 79,-31.81 86,-31.81"/>
</a>
</g>
</g>
</g>
</svg>
