<?xml version="1.0" encoding="UTF-8" standalone="no"?>
<!DOCTYPE svg PUBLIC "-//W3C//DTD SVG 1.1//EN"
 "http://www.w3.org/Graphics/SVG/1.1/DTD/svg11.dtd">
<!-- Generated by graphviz version 14.0.2 (20251019.1705)
 -->
<!-- Title: duvc_vid_set Pages: 1 -->
<svg width="661pt" height="180pt"
 viewBox="0.00 0.00 661.00 180.00" xmlns="http://www.w3.org/2000/svg" xmlns:xlink="http://www.w3.org/1999/xlink">
<g id="graph0" class="graph" transform="scale(1 1) rotate(0) translate(4 176)">
<title>duvc_vid_set</title>
<!-- Node1 -->
<g id="Node000001" class="node">
<title>Node1</title>
<g id="a_Node000001"><a xlink:title=" ">
<polygon fill="#999999" stroke="#666666" points="73.75,-58 0,-58 0,-38 73.75,-38 73.75,-58"/>
<text xml:space="preserve" text-anchor="middle" x="36.88" y="-44.5" font-family="Helvetica,sans-Serif" font-size="10.00">duvc_vid_set</text>
</a>
</g>
</g>
<!-- Node2 -->
<g id="Node000002" class="node">
<title>Node2</title>
<g id="a_Node000002"><a xlink:href="namespaceduvc.html#a2c254074ce671320e3e57c56a9389ac1" target="_top" xlink:title="Enumerate all available video input devices.">
<polygon fill="white" stroke="#666666" points="204.5,-96 109.75,-96 109.75,-76 204.5,-76 204.5,-96"/>
<text xml:space="preserve" text-anchor="middle" x="157.12" y="-82.5" font-family="Helvetica,sans-Serif" font-size="10.00">duvc::list_devices</text>
</a>
</g>
</g>
<!-- Node1&#45;&gt;Node2 -->
<g id="edge1_Node000001_Node000002" class="edge">
<title>Node1&#45;&gt;Node2</title>
<g id="a_edge1_Node000001_Node000002"><a xlink:title=" ">
<path fill="none" stroke="#63b8ff" d="M70.5,-58.48C83.55,-62.68 98.78,-67.57 112.74,-72.06"/>
<polygon fill="#63b8ff" stroke="#63b8ff" points="111.57,-75.36 122.17,-75.09 113.72,-68.7 111.57,-75.36"/>
</a>
</g>
</g>
<!-- Node10 -->
<g id="Node000010" class="node">
<title>Node10</title>
<g id="a_Node000010"><a xlink:href="group__quickapi.html#ga686ce12eeefaa6c520c8b4506b4c2bc9" target="_top" xlink:title="Set a camera control property value.">
<polygon fill="white" stroke="#666666" points="185.38,-39 128.88,-39 128.88,-19 185.38,-19 185.38,-39"/>
<text xml:space="preserve" text-anchor="middle" x="157.12" y="-25.5" font-family="Helvetica,sans-Serif" font-size="10.00">duvc::set</text>
</a>
</g>
</g>
<!-- Node1&#45;&gt;Node10 -->
<g id="edge11_Node000001_Node000010" class="edge">
<title>Node1&#45;&gt;Node10</title>
<g id="a_edge11_Node000001_Node000010"><a xlink:title=" ">
<path fill="none" stroke="#63b8ff" d="M74,-42.2C87.69,-40 103.33,-37.48 117.26,-35.24"/>
<polygon fill="#63b8ff" stroke="#63b8ff" points="117.67,-38.72 126.99,-33.68 116.56,-31.81 117.67,-38.72"/>
</a>
</g>
</g>
<!-- Node3 -->
<g id="Node000003" class="node">
<title>Node3</title>
<g id="a_Node000003"><a xlink:href="namespaceduvc.html#ab7299b8597bf14b18b8351278c209188" target="_top" xlink:title="Create DirectShow device enumerator.">
<polygon fill="white" stroke="#666666" points="367.88,-172 247.62,-172 247.62,-152 367.88,-152 367.88,-172"/>
<text xml:space="preserve" text-anchor="middle" x="307.75" y="-158.5" font-family="Helvetica,sans-Serif" font-size="10.00">duvc::create_dev_enum</text>
</a>
</g>
</g>
<!-- Node2&#45;&gt;Node3 -->
<g id="edge2_Node000002_Node000003" class="edge">
<title>Node2&#45;&gt;Node3</title>
<g id="a_edge2_Node000002_Node000003"><a xlink:title=" ">
<path fill="none" stroke="#63b8ff" d="M170.45,-96.47C185.9,-109.11 213.62,-130.27 240.5,-143 244.23,-144.77 248.17,-146.41 252.18,-147.91"/>
<polygon fill="#63b8ff" stroke="#63b8ff" points="250.86,-151.16 261.45,-151.12 253.14,-144.55 250.86,-151.16"/>
</a>
</g>
</g>
<!-- Node6 -->
<g id="Node000006" class="node">
<title>Node6</title>
<g id="a_Node000006"><a xlink:href="namespaceduvc.html#a1a577c6cd7e4b3106d6f95c15bbceeed" target="_top" xlink:title="Enumerate video input devices.">
<polygon fill="white" stroke="#666666" points="375,-134 240.5,-134 240.5,-114 375,-114 375,-134"/>
<text xml:space="preserve" text-anchor="middle" x="307.75" y="-120.5" font-family="Helvetica,sans-Serif" font-size="10.00">duvc::enum_video_devices</text>
</a>
</g>
</g>
<!-- Node2&#45;&gt;Node6 -->
<g id="edge5_Node000002_Node000006" class="edge">
<title>Node2&#45;&gt;Node6</title>
<g id="a_edge5_Node000002_Node000006"><a xlink:title=" ">
<path fill="none" stroke="#63b8ff" d="M199.13,-96.48C216.35,-100.89 236.58,-106.06 254.82,-110.72"/>
<polygon fill="#63b8ff" stroke="#63b8ff" points="253.86,-114.09 264.41,-113.18 255.59,-107.31 253.86,-114.09"/>
</a>
</g>
</g>
<!-- Node7 -->
<g id="Node000007" class="node">
<title>Node7</title>
<g id="a_Node000007"><a xlink:href="namespaceduvc.html#a2c2b6f32c6871ad36ae0bf98d9374fd0" target="_top" xlink:title="Read device path from moniker.">
<polygon fill="white" stroke="#666666" points="367.5,-96 248,-96 248,-76 367.5,-76 367.5,-96"/>
<text xml:space="preserve" text-anchor="middle" x="307.75" y="-82.5" font-family="Helvetica,sans-Serif" font-size="10.00">duvc::read_device_path</text>
</a>
</g>
</g>
<!-- Node2&#45;&gt;Node7 -->
<g id="edge7_Node000002_Node000007" class="edge">
<title>Node2&#45;&gt;Node7</title>
<g id="a_edge7_Node000002_Node000007"><a xlink:title=" ">
<path fill="none" stroke="#63b8ff" d="M204.74,-86C214.75,-86 225.53,-86 236.21,-86"/>
<polygon fill="#63b8ff" stroke="#63b8ff" points="236.2,-89.5 246.2,-86 236.2,-82.5 236.2,-89.5"/>
</a>
</g>
</g>
<!-- Node9 -->
<g id="Node000009" class="node">
<title>Node9</title>
<g id="a_Node000009"><a xlink:href="namespaceduvc.html#a019644436e5f0add38b6242843b79fef" target="_top" xlink:title="Read friendly name from device moniker.">
<polygon fill="white" stroke="#666666" points="371.62,-58 243.88,-58 243.88,-38 371.62,-38 371.62,-58"/>
<text xml:space="preserve" text-anchor="middle" x="307.75" y="-44.5" font-family="Helvetica,sans-Serif" font-size="10.00">duvc::read_friendly_name</text>
</a>
</g>
</g>
<!-- Node2&#45;&gt;Node9 -->
<g id="edge9_Node000002_Node000009" class="edge">
<title>Node2&#45;&gt;Node9</title>
<g id="a_edge9_Node000002_Node000009"><a xlink:title=" ">
<path fill="none" stroke="#63b8ff" d="M199.13,-75.52C216.35,-71.11 236.58,-65.94 254.82,-61.28"/>
<polygon fill="#63b8ff" stroke="#63b8ff" points="255.59,-64.69 264.41,-58.82 253.86,-57.91 255.59,-64.69"/>
</a>
</g>
</g>
<!-- Node4 -->
<g id="Node000004" class="node">
<title>Node4</title>
<g id="a_Node000004"><a xlink:href="namespaceduvc.html#a21b444574354018097d4489a9ff0ff9e" target="_top" xlink:title=" ">
<polygon fill="white" stroke="#666666" points="505,-153 424.5,-153 424.5,-133 505,-133 505,-153"/>
<text xml:space="preserve" text-anchor="middle" x="464.75" y="-139.5" font-family="Helvetica,sans-Serif" font-size="10.00">duvc::throw_hr</text>
</a>
</g>
</g>
<!-- Node3&#45;&gt;Node4 -->
<g id="edge3_Node000003_Node000004" class="edge">
<title>Node3&#45;&gt;Node4</title>
<g id="a_edge3_Node000003_Node000004"><a xlink:title=" ">
<path fill="none" stroke="#63b8ff" d="M368.23,-154.71C383.05,-152.89 398.8,-150.96 413.15,-149.2"/>
<polygon fill="#63b8ff" stroke="#63b8ff" points="413.31,-152.71 422.81,-148.02 412.46,-145.76 413.31,-152.71"/>
</a>
</g>
</g>
<!-- Node5 -->
<g id="Node000005" class="node">
<title>Node5</title>
<g id="a_Node000005"><a xlink:href="namespaceduvc.html#a02d5c5b2e56515cee2cad9057af0467d" target="_top" xlink:title=" ">
<polygon fill="white" stroke="#666666" points="653,-153 554.5,-153 554.5,-133 653,-133 653,-153"/>
<text xml:space="preserve" text-anchor="middle" x="603.75" y="-139.5" font-family="Helvetica,sans-Serif" font-size="10.00">duvc::wide_to_utf8</text>
</a>
</g>
</g>
<!-- Node4&#45;&gt;Node5 -->
<g id="edge4_Node000004_Node000005" class="edge">
<title>Node4&#45;&gt;Node5</title>
<g id="a_edge4_Node000004_Node000005"><a xlink:title=" ">
<path fill="none" stroke="#63b8ff" d="M505.38,-143C517.11,-143 530.24,-143 542.95,-143"/>
<polygon fill="#63b8ff" stroke="#63b8ff" points="542.95,-146.5 552.95,-143 542.95,-139.5 542.95,-146.5"/>
</a>
</g>
</g>
<!-- Node6&#45;&gt;Node4 -->
<g id="edge6_Node000006_Node000004" class="edge">
<title>Node6&#45;&gt;Node4</title>
<g id="a_edge6_Node000006_Node000004"><a xlink:title=" ">
<path fill="none" stroke="#63b8ff" d="M375.38,-132.17C387.94,-133.71 400.89,-135.29 412.87,-136.76"/>
<polygon fill="#63b8ff" stroke="#63b8ff" points="412.17,-140.2 422.52,-137.95 413.02,-133.26 412.17,-140.2"/>
</a>
</g>
</g>
<!-- Node8 -->
<g id="Node000008" class="node">
<title>Node8</title>
<g id="a_Node000008"><a xlink:href="namespaceduvc.html#a0dbd37821c1cae29fa72d44e3dbd0583" target="_top" xlink:title=" ">
<polygon fill="white" stroke="#666666" points="518.5,-77 411,-77 411,-57 518.5,-57 518.5,-77"/>
<text xml:space="preserve" text-anchor="middle" x="464.75" y="-63.5" font-family="Helvetica,sans-Serif" font-size="10.00">duvc::read_prop_bstr</text>
</a>
</g>
</g>
<!-- Node7&#45;&gt;Node8 -->
<g id="edge8_Node000007_Node000008" class="edge">
<title>Node7&#45;&gt;Node8</title>
<g id="a_edge8_Node000007_Node000008"><a xlink:title=" ">
<path fill="none" stroke="#63b8ff" d="M367.79,-78.76C378.16,-77.49 388.99,-76.16 399.49,-74.88"/>
<polygon fill="#63b8ff" stroke="#63b8ff" points="399.71,-78.38 409.21,-73.68 398.86,-71.43 399.71,-78.38"/>
</a>
</g>
</g>
<!-- Node9&#45;&gt;Node8 -->
<g id="edge10_Node000009_Node000008" class="edge">
<title>Node9&#45;&gt;Node8</title>
<g id="a_edge10_Node000009_Node000008"><a xlink:title=" ">
<path fill="none" stroke="#63b8ff" d="M371.79,-55.73C380.87,-56.84 390.22,-57.99 399.32,-59.1"/>
<polygon fill="#63b8ff" stroke="#63b8ff" points="398.82,-62.57 409.18,-60.31 399.68,-55.62 398.82,-62.57"/>
</a>
</g>
</g>
<!-- Node11 -->
<g id="Node000011" class="node">
<title>Node11</title>
<g id="a_Node000011"><a xlink:href="classduvc_1_1Result.html#a6a3af8795b3d3090f17993728dbe701f" target="_top" xlink:title="Check if result contains a value (success)">
<polygon fill="white" stroke="#666666" points="358.12,-20 257.38,-20 257.38,0 358.12,0 358.12,-20"/>
<text xml:space="preserve" text-anchor="middle" x="307.75" y="-6.5" font-family="Helvetica,sans-Serif" font-size="10.00">duvc::Result::is_ok</text>
</a>
</g>
</g>
<!-- Node10&#45;&gt;Node11 -->
<g id="edge12_Node000010_Node000011" class="edge">
<title>Node10&#45;&gt;Node11</title>
<g id="a_edge12_Node000010_Node000011"><a xlink:title=" ">
<path fill="none" stroke="#63b8ff" d="M185.73,-25.47C202.59,-23.32 224.84,-20.47 245.66,-17.81"/>
<polygon fill="#63b8ff" stroke="#63b8ff" points="246.06,-21.29 255.53,-16.55 245.17,-14.34 246.06,-21.29"/>
</a>
</g>
</g>
</g>
</svg>
