<?xml version="1.0" encoding="UTF-8" standalone="no"?>
<!DOCTYPE svg PUBLIC "-//W3C//DTD SVG 1.1//EN"
 "http://www.w3.org/Graphics/SVG/1.1/DTD/svg11.dtd">
<!-- Generated by graphviz version 14.0.2 (20251019.1705)
 -->
<!-- Title: duvc_get_device_path Pages: 1 -->
<svg width="701pt" height="142pt"
 viewBox="0.00 0.00 701.00 142.00" xmlns="http://www.w3.org/2000/svg" xmlns:xlink="http://www.w3.org/1999/xlink">
<g id="graph0" class="graph" transform="scale(1 1) rotate(0) translate(4 138)">
<title>duvc_get_device_path</title>
<!-- Node1 -->
<g id="Node000001" class="node">
<title>Node1</title>
<g id="a_Node000001"><a xlink:title=" ">
<polygon fill="#999999" stroke="#666666" points="113.5,-77 0,-77 0,-57 113.5,-57 113.5,-77"/>
<text xml:space="preserve" text-anchor="middle" x="56.75" y="-63.5" font-family="Helvetica,sans-Serif" font-size="10.00">duvc_get_device_path</text>
</a>
</g>
</g>
<!-- Node2 -->
<g id="Node000002" class="node">
<title>Node2</title>
<g id="a_Node000002"><a xlink:href="namespaceduvc.html#a2c254074ce671320e3e57c56a9389ac1" target="_top" xlink:title="Enumerate all available video input devices.">
<polygon fill="white" stroke="#666666" points="244.25,-77 149.5,-77 149.5,-57 244.25,-57 244.25,-77"/>
<text xml:space="preserve" text-anchor="middle" x="196.88" y="-63.5" font-family="Helvetica,sans-Serif" font-size="10.00">duvc::list_devices</text>
</a>
</g>
</g>
<!-- Node1&#45;&gt;Node2 -->
<g id="edge1_Node000001_Node000002" class="edge">
<title>Node1&#45;&gt;Node2</title>
<g id="a_edge1_Node000001_Node000002"><a xlink:title=" ">
<path fill="none" stroke="#63b8ff" d="M113.93,-67C121.76,-67 129.82,-67 137.68,-67"/>
<polygon fill="#63b8ff" stroke="#63b8ff" points="137.5,-70.5 147.5,-67 137.5,-63.5 137.5,-70.5"/>
</a>
</g>
</g>
<!-- Node3 -->
<g id="Node000003" class="node">
<title>Node3</title>
<g id="a_Node000003"><a xlink:href="namespaceduvc.html#ab7299b8597bf14b18b8351278c209188" target="_top" xlink:title="Create DirectShow device enumerator.">
<polygon fill="white" stroke="#666666" points="407.62,-134 287.38,-134 287.38,-114 407.62,-114 407.62,-134"/>
<text xml:space="preserve" text-anchor="middle" x="347.5" y="-120.5" font-family="Helvetica,sans-Serif" font-size="10.00">duvc::create_dev_enum</text>
</a>
</g>
</g>
<!-- Node2&#45;&gt;Node3 -->
<g id="edge2_Node000002_Node000003" class="edge">
<title>Node2&#45;&gt;Node3</title>
<g id="a_edge2_Node000002_Node000003"><a xlink:title=" ">
<path fill="none" stroke="#63b8ff" d="M218.16,-77.41C234.61,-85.6 258.55,-96.94 280.25,-105 285.18,-106.83 290.37,-108.59 295.58,-110.26"/>
<polygon fill="#63b8ff" stroke="#63b8ff" points="294.21,-113.5 304.79,-113.08 296.26,-106.8 294.21,-113.5"/>
</a>
</g>
</g>
<!-- Node6 -->
<g id="Node000006" class="node">
<title>Node6</title>
<g id="a_Node000006"><a xlink:href="namespaceduvc.html#a1a577c6cd7e4b3106d6f95c15bbceeed" target="_top" xlink:title="Enumerate video input devices.">
<polygon fill="white" stroke="#666666" points="414.75,-96 280.25,-96 280.25,-76 414.75,-76 414.75,-96"/>
<text xml:space="preserve" text-anchor="middle" x="347.5" y="-82.5" font-family="Helvetica,sans-Serif" font-size="10.00">duvc::enum_video_devices</text>
</a>
</g>
</g>
<!-- Node2&#45;&gt;Node6 -->
<g id="edge5_Node000002_Node000006" class="edge">
<title>Node2&#45;&gt;Node6</title>
<g id="a_edge5_Node000002_Node000006"><a xlink:title=" ">
<path fill="none" stroke="#63b8ff" d="M244.49,-72.96C252.22,-73.95 260.41,-74.99 268.66,-76.05"/>
<polygon fill="#63b8ff" stroke="#63b8ff" points="268.04,-79.5 278.41,-77.29 268.93,-72.56 268.04,-79.5"/>
</a>
</g>
</g>
<!-- Node7 -->
<g id="Node000007" class="node">
<title>Node7</title>
<g id="a_Node000007"><a xlink:href="namespaceduvc.html#a2c2b6f32c6871ad36ae0bf98d9374fd0" target="_top" xlink:title="Read device path from moniker.">
<polygon fill="white" stroke="#666666" points="407.25,-58 287.75,-58 287.75,-38 407.25,-38 407.25,-58"/>
<text xml:space="preserve" text-anchor="middle" x="347.5" y="-44.5" font-family="Helvetica,sans-Serif" font-size="10.00">duvc::read_device_path</text>
</a>
</g>
</g>
<!-- Node2&#45;&gt;Node7 -->
<g id="edge7_Node000002_Node000007" class="edge">
<title>Node2&#45;&gt;Node7</title>
<g id="a_edge7_Node000002_Node000007"><a xlink:title=" ">
<path fill="none" stroke="#63b8ff" d="M244.49,-61.04C254.6,-59.75 265.51,-58.35 276.3,-56.97"/>
<polygon fill="#63b8ff" stroke="#63b8ff" points="276.49,-60.48 285.96,-55.74 275.6,-53.54 276.49,-60.48"/>
</a>
</g>
</g>
<!-- Node9 -->
<g id="Node000009" class="node">
<title>Node9</title>
<g id="a_Node000009"><a xlink:href="namespaceduvc.html#a019644436e5f0add38b6242843b79fef" target="_top" xlink:title="Read friendly name from device moniker.">
<polygon fill="white" stroke="#666666" points="411.38,-20 283.62,-20 283.62,0 411.38,0 411.38,-20"/>
<text xml:space="preserve" text-anchor="middle" x="347.5" y="-6.5" font-family="Helvetica,sans-Serif" font-size="10.00">duvc::read_friendly_name</text>
</a>
</g>
</g>
<!-- Node2&#45;&gt;Node9 -->
<g id="edge9_Node000002_Node000009" class="edge">
<title>Node2&#45;&gt;Node9</title>
<g id="a_edge9_Node000002_Node000009"><a xlink:title=" ">
<path fill="none" stroke="#63b8ff" d="M218.16,-56.59C234.61,-48.4 258.55,-37.06 280.25,-29 285.18,-27.17 290.37,-25.41 295.58,-23.74"/>
<polygon fill="#63b8ff" stroke="#63b8ff" points="296.26,-27.2 304.79,-20.92 294.21,-20.5 296.26,-27.2"/>
</a>
</g>
</g>
<!-- Node4 -->
<g id="Node000004" class="node">
<title>Node4</title>
<g id="a_Node000004"><a xlink:href="namespaceduvc.html#a21b444574354018097d4489a9ff0ff9e" target="_top" xlink:title=" ">
<polygon fill="white" stroke="#666666" points="544.75,-115 464.25,-115 464.25,-95 544.75,-95 544.75,-115"/>
<text xml:space="preserve" text-anchor="middle" x="504.5" y="-101.5" font-family="Helvetica,sans-Serif" font-size="10.00">duvc::throw_hr</text>
</a>
</g>
</g>
<!-- Node3&#45;&gt;Node4 -->
<g id="edge3_Node000003_Node000004" class="edge">
<title>Node3&#45;&gt;Node4</title>
<g id="a_edge3_Node000003_Node000004"><a xlink:title=" ">
<path fill="none" stroke="#63b8ff" d="M407.98,-116.71C422.8,-114.89 438.55,-112.96 452.9,-111.2"/>
<polygon fill="#63b8ff" stroke="#63b8ff" points="453.06,-114.71 462.56,-110.02 452.21,-107.76 453.06,-114.71"/>
</a>
</g>
</g>
<!-- Node5 -->
<g id="Node000005" class="node">
<title>Node5</title>
<g id="a_Node000005"><a xlink:href="namespaceduvc.html#a02d5c5b2e56515cee2cad9057af0467d" target="_top" xlink:title=" ">
<polygon fill="white" stroke="#666666" points="692.75,-115 594.25,-115 594.25,-95 692.75,-95 692.75,-115"/>
<text xml:space="preserve" text-anchor="middle" x="643.5" y="-101.5" font-family="Helvetica,sans-Serif" font-size="10.00">duvc::wide_to_utf8</text>
</a>
</g>
</g>
<!-- Node4&#45;&gt;Node5 -->
<g id="edge4_Node000004_Node000005" class="edge">
<title>Node4&#45;&gt;Node5</title>
<g id="a_edge4_Node000004_Node000005"><a xlink:title=" ">
<path fill="none" stroke="#63b8ff" d="M545.13,-105C556.86,-105 569.99,-105 582.7,-105"/>
<polygon fill="#63b8ff" stroke="#63b8ff" points="582.7,-108.5 592.7,-105 582.7,-101.5 582.7,-108.5"/>
</a>
</g>
</g>
<!-- Node6&#45;&gt;Node4 -->
<g id="edge6_Node000006_Node000004" class="edge">
<title>Node6&#45;&gt;Node4</title>
<g id="a_edge6_Node000006_Node000004"><a xlink:title=" ">
<path fill="none" stroke="#63b8ff" d="M415.13,-94.17C427.69,-95.71 440.64,-97.29 452.62,-98.76"/>
<polygon fill="#63b8ff" stroke="#63b8ff" points="451.92,-102.2 462.27,-99.95 452.77,-95.26 451.92,-102.2"/>
</a>
</g>
</g>
<!-- Node8 -->
<g id="Node000008" class="node">
<title>Node8</title>
<g id="a_Node000008"><a xlink:href="namespaceduvc.html#a0dbd37821c1cae29fa72d44e3dbd0583" target="_top" xlink:title=" ">
<polygon fill="white" stroke="#666666" points="558.25,-39 450.75,-39 450.75,-19 558.25,-19 558.25,-39"/>
<text xml:space="preserve" text-anchor="middle" x="504.5" y="-25.5" font-family="Helvetica,sans-Serif" font-size="10.00">duvc::read_prop_bstr</text>
</a>
</g>
</g>
<!-- Node7&#45;&gt;Node8 -->
<g id="edge8_Node000007_Node000008" class="edge">
<title>Node7&#45;&gt;Node8</title>
<g id="a_edge8_Node000007_Node000008"><a xlink:title=" ">
<path fill="none" stroke="#63b8ff" d="M407.54,-40.76C417.91,-39.49 428.74,-38.16 439.24,-36.88"/>
<polygon fill="#63b8ff" stroke="#63b8ff" points="439.46,-40.38 448.96,-35.68 438.61,-33.43 439.46,-40.38"/>
</a>
</g>
</g>
<!-- Node9&#45;&gt;Node8 -->
<g id="edge10_Node000009_Node000008" class="edge">
<title>Node9&#45;&gt;Node8</title>
<g id="a_edge10_Node000009_Node000008"><a xlink:title=" ">
<path fill="none" stroke="#63b8ff" d="M411.54,-17.73C420.62,-18.84 429.97,-19.99 439.07,-21.1"/>
<polygon fill="#63b8ff" stroke="#63b8ff" points="438.57,-24.57 448.93,-22.31 439.43,-17.62 438.57,-24.57"/>
</a>
</g>
</g>
</g>
</svg>
