<?xml version="1.0" encoding="UTF-8" standalone="no"?>
<!DOCTYPE svg PUBLIC "-//W3C//DTD SVG 1.1//EN"
 "http://www.w3.org/Graphics/SVG/1.1/DTD/svg11.dtd">
<!-- Generated by graphviz version 14.0.2 (20251019.1705)
 -->
<!-- Title: duvc_is_device_connected Pages: 1 -->
<svg width="772pt" height="218pt"
 viewBox="0.00 0.00 772.00 218.00" xmlns="http://www.w3.org/2000/svg" xmlns:xlink="http://www.w3.org/1999/xlink">
<g id="graph0" class="graph" transform="scale(1 1) rotate(0) translate(4 214)">
<title>duvc_is_device_connected</title>
<!-- Node1 -->
<g id="Node000001" class="node">
<title>Node1</title>
<g id="a_Node000001"><a xlink:title=" ">
<polygon fill="#999999" stroke="#666666" points="133.75,-134 0,-134 0,-114 133.75,-114 133.75,-134"/>
<text xml:space="preserve" text-anchor="middle" x="66.88" y="-120.5" font-family="Helvetica,sans-Serif" font-size="10.00">duvc_is_device_connected</text>
</a>
</g>
</g>
<!-- Node2 -->
<g id="Node000002" class="node">
<title>Node2</title>
<g id="a_Node000002"><a xlink:href="namespaceduvc.html#ab42651167ff39abe9e70713ac6db65b9" target="_top" xlink:title="Check if a device is currently connected and accessible.">
<polygon fill="white" stroke="#666666" points="304.25,-115 169.75,-115 169.75,-95 304.25,-95 304.25,-115"/>
<text xml:space="preserve" text-anchor="middle" x="237" y="-101.5" font-family="Helvetica,sans-Serif" font-size="10.00">duvc::is_device_connected</text>
</a>
</g>
</g>
<!-- Node1&#45;&gt;Node2 -->
<g id="edge1_Node000001_Node000002" class="edge">
<title>Node1&#45;&gt;Node2</title>
<g id="a_edge1_Node000001_Node000002"><a xlink:title=" ">
<path fill="none" stroke="#63b8ff" d="M133.84,-116.55C141.78,-115.65 149.95,-114.72 158.04,-113.81"/>
<polygon fill="#63b8ff" stroke="#63b8ff" points="158.35,-117.3 167.89,-112.7 157.56,-110.34 158.35,-117.3"/>
</a>
</g>
</g>
<!-- Node12 -->
<g id="Node000012" class="node">
<title>Node12</title>
<g id="a_Node000012"><a xlink:href="namespaceduvc.html#a2c254074ce671320e3e57c56a9389ac1" target="_top" xlink:title="Enumerate all available video input devices.">
<polygon fill="white" stroke="#666666" points="284.38,-153 189.62,-153 189.62,-133 284.38,-133 284.38,-153"/>
<text xml:space="preserve" text-anchor="middle" x="237" y="-139.5" font-family="Helvetica,sans-Serif" font-size="10.00">duvc::list_devices</text>
</a>
</g>
</g>
<!-- Node1&#45;&gt;Node12 -->
<g id="edge13_Node000001_Node000012" class="edge">
<title>Node1&#45;&gt;Node12</title>
<g id="a_edge13_Node000001_Node000012"><a xlink:title=" ">
<path fill="none" stroke="#63b8ff" d="M133.84,-131.45C148.43,-133.1 163.78,-134.84 178.03,-136.45"/>
<polygon fill="#63b8ff" stroke="#63b8ff" points="177.35,-139.89 187.68,-137.54 178.13,-132.94 177.35,-139.89"/>
</a>
</g>
</g>
<!-- Node3 -->
<g id="Node000003" class="node">
<title>Node3</title>
<g id="a_Node000003"><a xlink:href="namespaceduvc.html#ab7299b8597bf14b18b8351278c209188" target="_top" xlink:title="Create DirectShow device enumerator.">
<polygon fill="white" stroke="#666666" points="473.25,-134 353,-134 353,-114 473.25,-114 473.25,-134"/>
<text xml:space="preserve" text-anchor="middle" x="413.12" y="-120.5" font-family="Helvetica,sans-Serif" font-size="10.00">duvc::create_dev_enum</text>
</a>
</g>
</g>
<!-- Node2&#45;&gt;Node3 -->
<g id="edge2_Node000002_Node000003" class="edge">
<title>Node2&#45;&gt;Node3</title>
<g id="a_edge2_Node000002_Node000003"><a xlink:title=" ">
<path fill="none" stroke="#63b8ff" d="M304.33,-112.24C316.47,-113.56 329.18,-114.95 341.44,-116.29"/>
<polygon fill="#63b8ff" stroke="#63b8ff" points="340.72,-119.73 351.04,-117.33 341.48,-112.77 340.72,-119.73"/>
</a>
</g>
</g>
<!-- Node6 -->
<g id="Node000006" class="node">
<title>Node6</title>
<g id="a_Node000006"><a xlink:href="namespaceduvc.html#a1a577c6cd7e4b3106d6f95c15bbceeed" target="_top" xlink:title="Enumerate video input devices.">
<polygon fill="white" stroke="#666666" points="480.38,-96 345.88,-96 345.88,-76 480.38,-76 480.38,-96"/>
<text xml:space="preserve" text-anchor="middle" x="413.12" y="-82.5" font-family="Helvetica,sans-Serif" font-size="10.00">duvc::enum_video_devices</text>
</a>
</g>
</g>
<!-- Node2&#45;&gt;Node6 -->
<g id="edge5_Node000002_Node000006" class="edge">
<title>Node2&#45;&gt;Node6</title>
<g id="a_edge5_Node000002_Node000006"><a xlink:title=" ">
<path fill="none" stroke="#63b8ff" d="M304.33,-97.76C314.1,-96.7 324.25,-95.59 334.23,-94.5"/>
<polygon fill="#63b8ff" stroke="#63b8ff" points="334.34,-98.01 343.9,-93.44 333.58,-91.05 334.34,-98.01"/>
</a>
</g>
</g>
<!-- Node7 -->
<g id="Node000007" class="node">
<title>Node7</title>
<g id="a_Node000007"><a xlink:href="namespaceduvc.html#aa743fc7771811366fbd7b192b4f4d5d5" target="_top" xlink:title=" ">
<polygon fill="white" stroke="#666666" points="486,-58 340.25,-58 340.25,-38 486,-38 486,-58"/>
<text xml:space="preserve" text-anchor="middle" x="413.12" y="-44.5" font-family="Helvetica,sans-Serif" font-size="10.00">duvc::get_cached_connection</text>
</a>
</g>
</g>
<!-- Node2&#45;&gt;Node7 -->
<g id="edge7_Node000002_Node000007" class="edge">
<title>Node2&#45;&gt;Node7</title>
<g id="a_edge7_Node000002_Node000007"><a xlink:title=" ">
<path fill="none" stroke="#63b8ff" d="M263.81,-94.61C284.34,-86.54 313.89,-75.36 340.25,-67 346.32,-65.08 352.72,-63.19 359.09,-61.39"/>
<polygon fill="#63b8ff" stroke="#63b8ff" points="359.56,-64.89 368.28,-58.87 357.71,-58.14 359.56,-64.89"/>
</a>
</g>
</g>
<!-- Node8 -->
<g id="Node000008" class="node">
<title>Node8</title>
<g id="a_Node000008"><a xlink:href="namespaceduvc.html#a16607a28a7df86e823edf3abd371af92" target="_top" xlink:title="Check if two device identifiers refer to same device.">
<polygon fill="white" stroke="#666666" points="469.88,-20 356.38,-20 356.38,0 469.88,0 469.88,-20"/>
<text xml:space="preserve" text-anchor="middle" x="413.12" y="-6.5" font-family="Helvetica,sans-Serif" font-size="10.00">duvc::is_same_device</text>
</a>
</g>
</g>
<!-- Node2&#45;&gt;Node8 -->
<g id="edge8_Node000002_Node000008" class="edge">
<title>Node2&#45;&gt;Node8</title>
<g id="a_edge8_Node000002_Node000008"><a xlink:title=" ">
<path fill="none" stroke="#63b8ff" d="M249.01,-94.54C266.8,-78.19 303.58,-46.66 340.25,-29 343.96,-27.21 347.85,-25.58 351.84,-24.08"/>
<polygon fill="#63b8ff" stroke="#63b8ff" points="352.74,-27.47 361.08,-20.94 350.49,-20.85 352.74,-27.47"/>
</a>
</g>
</g>
<!-- Node9 -->
<g id="Node000009" class="node">
<title>Node9</title>
<g id="a_Node000009"><a xlink:href="namespaceduvc.html#a2c2b6f32c6871ad36ae0bf98d9374fd0" target="_top" xlink:title="Read device path from moniker.">
<polygon fill="white" stroke="#666666" points="472.88,-210 353.38,-210 353.38,-190 472.88,-190 472.88,-210"/>
<text xml:space="preserve" text-anchor="middle" x="413.12" y="-196.5" font-family="Helvetica,sans-Serif" font-size="10.00">duvc::read_device_path</text>
</a>
</g>
</g>
<!-- Node2&#45;&gt;Node9 -->
<g id="edge9_Node000002_Node000009" class="edge">
<title>Node2&#45;&gt;Node9</title>
<g id="a_edge9_Node000002_Node000009"><a xlink:title=" ">
<path fill="none" stroke="#63b8ff" d="M289.04,-115.42C294.45,-117.73 299.65,-120.55 304.25,-124 328.22,-141.98 316.09,-163.28 340.25,-181 342.01,-182.29 343.84,-183.49 345.74,-184.61"/>
<polygon fill="#63b8ff" stroke="#63b8ff" points="343.81,-187.56 354.32,-188.88 346.93,-181.29 343.81,-187.56"/>
</a>
</g>
</g>
<!-- Node11 -->
<g id="Node000011" class="node">
<title>Node11</title>
<g id="a_Node000011"><a xlink:href="namespaceduvc.html#a019644436e5f0add38b6242843b79fef" target="_top" xlink:title="Read friendly name from device moniker.">
<polygon fill="white" stroke="#666666" points="477,-172 349.25,-172 349.25,-152 477,-152 477,-172"/>
<text xml:space="preserve" text-anchor="middle" x="413.12" y="-158.5" font-family="Helvetica,sans-Serif" font-size="10.00">duvc::read_friendly_name</text>
</a>
</g>
</g>
<!-- Node2&#45;&gt;Node11 -->
<g id="edge11_Node000002_Node000011" class="edge">
<title>Node2&#45;&gt;Node11</title>
<g id="a_edge11_Node000002_Node000011"><a xlink:title=" ">
<path fill="none" stroke="#63b8ff" d="M279.44,-115.46C287.76,-117.96 296.37,-120.83 304.25,-124 321.03,-130.75 323.4,-136.42 340.25,-143 345.18,-144.92 350.37,-146.72 355.61,-148.37"/>
<polygon fill="#63b8ff" stroke="#63b8ff" points="354.35,-151.65 364.93,-151.15 356.34,-144.94 354.35,-151.65"/>
</a>
</g>
</g>
<!-- Node4 -->
<g id="Node000004" class="node">
<title>Node4</title>
<g id="a_Node000004"><a xlink:href="namespaceduvc.html#a21b444574354018097d4489a9ff0ff9e" target="_top" xlink:title=" ">
<polygon fill="white" stroke="#666666" points="616,-115 535.5,-115 535.5,-95 616,-95 616,-115"/>
<text xml:space="preserve" text-anchor="middle" x="575.75" y="-101.5" font-family="Helvetica,sans-Serif" font-size="10.00">duvc::throw_hr</text>
</a>
</g>
</g>
<!-- Node3&#45;&gt;Node4 -->
<g id="edge3_Node000003_Node000004" class="edge">
<title>Node3&#45;&gt;Node4</title>
<g id="a_edge3_Node000003_Node000004"><a xlink:title=" ">
<path fill="none" stroke="#63b8ff" d="M473.48,-116.98C490.02,-115.02 507.83,-112.92 523.84,-111.02"/>
<polygon fill="#63b8ff" stroke="#63b8ff" points="524.11,-114.51 533.63,-109.86 523.29,-107.56 524.11,-114.51"/>
</a>
</g>
</g>
<!-- Node5 -->
<g id="Node000005" class="node">
<title>Node5</title>
<g id="a_Node000005"><a xlink:href="namespaceduvc.html#a02d5c5b2e56515cee2cad9057af0467d" target="_top" xlink:title=" ">
<polygon fill="white" stroke="#666666" points="764,-115 665.5,-115 665.5,-95 764,-95 764,-115"/>
<text xml:space="preserve" text-anchor="middle" x="714.75" y="-101.5" font-family="Helvetica,sans-Serif" font-size="10.00">duvc::wide_to_utf8</text>
</a>
</g>
</g>
<!-- Node4&#45;&gt;Node5 -->
<g id="edge4_Node000004_Node000005" class="edge">
<title>Node4&#45;&gt;Node5</title>
<g id="a_edge4_Node000004_Node000005"><a xlink:title=" ">
<path fill="none" stroke="#63b8ff" d="M616.38,-105C628.11,-105 641.24,-105 653.95,-105"/>
<polygon fill="#63b8ff" stroke="#63b8ff" points="653.95,-108.5 663.95,-105 653.95,-101.5 653.95,-108.5"/>
</a>
</g>
</g>
<!-- Node6&#45;&gt;Node4 -->
<g id="edge6_Node000006_Node000004" class="edge">
<title>Node6&#45;&gt;Node4</title>
<g id="a_edge6_Node000006_Node000004"><a xlink:title=" ">
<path fill="none" stroke="#63b8ff" d="M480.85,-93.89C495.26,-95.6 510.27,-97.37 523.96,-98.99"/>
<polygon fill="#63b8ff" stroke="#63b8ff" points="523.25,-102.43 533.59,-100.13 524.07,-95.48 523.25,-102.43"/>
</a>
</g>
</g>
<!-- Node10 -->
<g id="Node000010" class="node">
<title>Node10</title>
<g id="a_Node000010"><a xlink:href="namespaceduvc.html#a0dbd37821c1cae29fa72d44e3dbd0583" target="_top" xlink:title=" ">
<polygon fill="white" stroke="#666666" points="629.5,-191 522,-191 522,-171 629.5,-171 629.5,-191"/>
<text xml:space="preserve" text-anchor="middle" x="575.75" y="-177.5" font-family="Helvetica,sans-Serif" font-size="10.00">duvc::read_prop_bstr</text>
</a>
</g>
</g>
<!-- Node9&#45;&gt;Node10 -->
<g id="edge10_Node000009_Node000010" class="edge">
<title>Node9&#45;&gt;Node10</title>
<g id="a_edge10_Node000009_Node000010"><a xlink:title=" ">
<path fill="none" stroke="#63b8ff" d="M473.02,-193.03C485.23,-191.59 498.14,-190.06 510.52,-188.6"/>
<polygon fill="#63b8ff" stroke="#63b8ff" points="510.68,-192.1 520.2,-187.45 509.86,-185.15 510.68,-192.1"/>
</a>
</g>
</g>
<!-- Node11&#45;&gt;Node10 -->
<g id="edge12_Node000011_Node000010" class="edge">
<title>Node11&#45;&gt;Node10</title>
<g id="a_edge12_Node000011_Node000010"><a xlink:title=" ">
<path fill="none" stroke="#63b8ff" d="M477.15,-169.45C488.04,-170.74 499.38,-172.08 510.31,-173.38"/>
<polygon fill="#63b8ff" stroke="#63b8ff" points="509.67,-176.83 520.01,-174.53 510.5,-169.87 509.67,-176.83"/>
</a>
</g>
</g>
<!-- Node12&#45;&gt;Node3 -->
<g id="edge14_Node000012_Node000003" class="edge">
<title>Node12&#45;&gt;Node3</title>
<g id="a_edge14_Node000012_Node000003"><a xlink:title=" ">
<path fill="none" stroke="#63b8ff" d="M284.66,-137.91C302.01,-136.02 322.11,-133.82 341.15,-131.74"/>
<polygon fill="#63b8ff" stroke="#63b8ff" points="341.45,-135.23 351.01,-130.67 340.69,-128.27 341.45,-135.23"/>
</a>
</g>
</g>
<!-- Node12&#45;&gt;Node6 -->
<g id="edge15_Node000012_Node000006" class="edge">
<title>Node12&#45;&gt;Node6</title>
<g id="a_edge15_Node000012_Node000006"><a xlink:title=" ">
<path fill="none" stroke="#63b8ff" d="M279.44,-132.54C287.76,-130.04 296.37,-127.17 304.25,-124 321.03,-117.25 323.4,-111.58 340.25,-105 345.18,-103.08 350.37,-101.28 355.61,-99.63"/>
<polygon fill="#63b8ff" stroke="#63b8ff" points="356.34,-103.06 364.93,-96.85 354.35,-96.35 356.34,-103.06"/>
</a>
</g>
</g>
<!-- Node12&#45;&gt;Node9 -->
<g id="edge16_Node000012_Node000009" class="edge">
<title>Node12&#45;&gt;Node9</title>
<g id="a_edge16_Node000012_Node000009"><a xlink:title=" ">
<path fill="none" stroke="#63b8ff" d="M263.81,-153.39C284.34,-161.46 313.89,-172.64 340.25,-181 346.32,-182.92 352.72,-184.81 359.09,-186.61"/>
<polygon fill="#63b8ff" stroke="#63b8ff" points="357.71,-189.86 368.28,-189.13 359.56,-183.11 357.71,-189.86"/>
</a>
</g>
</g>
<!-- Node12&#45;&gt;Node11 -->
<g id="edge17_Node000012_Node000011" class="edge">
<title>Node12&#45;&gt;Node11</title>
<g id="a_edge17_Node000012_Node000011"><a xlink:title=" ">
<path fill="none" stroke="#63b8ff" d="M284.66,-148.09C300.94,-149.87 319.63,-151.91 337.6,-153.87"/>
<polygon fill="#63b8ff" stroke="#63b8ff" points="337.14,-157.34 347.46,-154.94 337.9,-150.38 337.14,-157.34"/>
</a>
</g>
</g>
</g>
</svg>
