<?xml version="1.0" encoding="UTF-8" standalone="no"?>
<!DOCTYPE svg PUBLIC "-//W3C//DTD SVG 1.1//EN"
 "http://www.w3.org/Graphics/SVG/1.1/DTD/svg11.dtd">
<!-- Generated by graphviz version 14.0.2 (20251019.1705)
 -->
<!-- Title: duvc_vid_get_range Pages: 1 -->
<svg width="690pt" height="218pt"
 viewBox="0.00 0.00 690.00 218.00" xmlns="http://www.w3.org/2000/svg" xmlns:xlink="http://www.w3.org/1999/xlink">
<g id="graph0" class="graph" transform="scale(1 1) rotate(0) translate(4 214)">
<title>duvc_vid_get_range</title>
<!-- Node1 -->
<g id="Node000001" class="node">
<title>Node1</title>
<g id="a_Node000001"><a xlink:title=" ">
<polygon fill="#999999" stroke="#666666" points="103,-134 0,-134 0,-114 103,-114 103,-134"/>
<text xml:space="preserve" text-anchor="middle" x="51.5" y="-120.5" font-family="Helvetica,sans-Serif" font-size="10.00">duvc_vid_get_range</text>
</a>
</g>
</g>
<!-- Node2 -->
<g id="Node000002" class="node">
<title>Node2</title>
<g id="a_Node000002"><a xlink:href="group__quickapi.html#gaf73ccab11e1e8cb1a7311ad6e5d59f61" target="_top" xlink:title="Get the valid range for a camera control property.">
<polygon fill="white" stroke="#666666" points="229.25,-172 143.5,-172 143.5,-152 229.25,-152 229.25,-172"/>
<text xml:space="preserve" text-anchor="middle" x="186.38" y="-158.5" font-family="Helvetica,sans-Serif" font-size="10.00">duvc::get_range</text>
</a>
</g>
</g>
<!-- Node1&#45;&gt;Node2 -->
<g id="edge1_Node000001_Node000002" class="edge">
<title>Node1&#45;&gt;Node2</title>
<g id="a_edge1_Node000001_Node000002"><a xlink:title=" ">
<path fill="none" stroke="#63b8ff" d="M89.16,-134.48C104.26,-138.8 121.96,-143.86 138.02,-148.46"/>
<polygon fill="#63b8ff" stroke="#63b8ff" points="136.8,-151.75 147.38,-151.13 138.73,-145.02 136.8,-151.75"/>
</a>
</g>
</g>
<!-- Node5 -->
<g id="Node000005" class="node">
<title>Node5</title>
<g id="a_Node000005"><a xlink:href="namespaceduvc.html#a2c254074ce671320e3e57c56a9389ac1" target="_top" xlink:title="Enumerate all available video input devices.">
<polygon fill="white" stroke="#666666" points="233.75,-96 139,-96 139,-76 233.75,-76 233.75,-96"/>
<text xml:space="preserve" text-anchor="middle" x="186.38" y="-82.5" font-family="Helvetica,sans-Serif" font-size="10.00">duvc::list_devices</text>
</a>
</g>
</g>
<!-- Node1&#45;&gt;Node5 -->
<g id="edge4_Node000001_Node000005" class="edge">
<title>Node1&#45;&gt;Node5</title>
<g id="a_edge4_Node000001_Node000005"><a xlink:title=" ">
<path fill="none" stroke="#63b8ff" d="M89.16,-113.52C104.26,-109.2 121.96,-104.14 138.02,-99.54"/>
<polygon fill="#63b8ff" stroke="#63b8ff" points="138.73,-102.98 147.38,-96.87 136.8,-96.25 138.73,-102.98"/>
</a>
</g>
</g>
<!-- Node3 -->
<g id="Node000003" class="node">
<title>Node3</title>
<g id="a_Node000003"><a xlink:href="classduvc_1_1Result.html#a6a3af8795b3d3090f17993728dbe701f" target="_top" xlink:title="Check if result contains a value (success)">
<polygon fill="white" stroke="#666666" points="387.38,-210 286.62,-210 286.62,-190 387.38,-190 387.38,-210"/>
<text xml:space="preserve" text-anchor="middle" x="337" y="-196.5" font-family="Helvetica,sans-Serif" font-size="10.00">duvc::Result::is_ok</text>
</a>
</g>
</g>
<!-- Node2&#45;&gt;Node3 -->
<g id="edge2_Node000002_Node000003" class="edge">
<title>Node2&#45;&gt;Node3</title>
<g id="a_edge2_Node000002_Node000003"><a xlink:title=" ">
<path fill="none" stroke="#63b8ff" d="M228.38,-172.48C245.6,-176.89 265.83,-182.06 284.07,-186.72"/>
<polygon fill="#63b8ff" stroke="#63b8ff" points="283.11,-190.09 293.66,-189.18 284.84,-183.31 283.11,-190.09"/>
</a>
</g>
</g>
<!-- Node4 -->
<g id="Node000004" class="node">
<title>Node4</title>
<g id="a_Node000004"><a xlink:href="classduvc_1_1Result.html#a260a000aca87d38c8f9f22ad80804691" target="_top" xlink:title="Get the value (assumes success)">
<polygon fill="white" stroke="#666666" points="387.38,-172 286.62,-172 286.62,-152 387.38,-152 387.38,-172"/>
<text xml:space="preserve" text-anchor="middle" x="337" y="-158.5" font-family="Helvetica,sans-Serif" font-size="10.00">duvc::Result::value</text>
</a>
</g>
</g>
<!-- Node2&#45;&gt;Node4 -->
<g id="edge3_Node000002_Node000004" class="edge">
<title>Node2&#45;&gt;Node4</title>
<g id="a_edge3_Node000002_Node000004"><a xlink:title=" ">
<path fill="none" stroke="#63b8ff" d="M229.57,-162C243.66,-162 259.65,-162 274.88,-162"/>
<polygon fill="#63b8ff" stroke="#63b8ff" points="274.82,-165.5 284.82,-162 274.82,-158.5 274.82,-165.5"/>
</a>
</g>
</g>
<!-- Node6 -->
<g id="Node000006" class="node">
<title>Node6</title>
<g id="a_Node000006"><a xlink:href="namespaceduvc.html#ab7299b8597bf14b18b8351278c209188" target="_top" xlink:title="Create DirectShow device enumerator.">
<polygon fill="white" stroke="#666666" points="397.12,-134 276.88,-134 276.88,-114 397.12,-114 397.12,-134"/>
<text xml:space="preserve" text-anchor="middle" x="337" y="-120.5" font-family="Helvetica,sans-Serif" font-size="10.00">duvc::create_dev_enum</text>
</a>
</g>
</g>
<!-- Node5&#45;&gt;Node6 -->
<g id="edge5_Node000005_Node000006" class="edge">
<title>Node5&#45;&gt;Node6</title>
<g id="a_edge5_Node000005_Node000006"><a xlink:title=" ">
<path fill="none" stroke="#63b8ff" d="M228.38,-96.48C245.6,-100.89 265.83,-106.06 284.07,-110.72"/>
<polygon fill="#63b8ff" stroke="#63b8ff" points="283.11,-114.09 293.66,-113.18 284.84,-107.31 283.11,-114.09"/>
</a>
</g>
</g>
<!-- Node9 -->
<g id="Node000009" class="node">
<title>Node9</title>
<g id="a_Node000009"><a xlink:href="namespaceduvc.html#a1a577c6cd7e4b3106d6f95c15bbceeed" target="_top" xlink:title="Enumerate video input devices.">
<polygon fill="white" stroke="#666666" points="404.25,-96 269.75,-96 269.75,-76 404.25,-76 404.25,-96"/>
<text xml:space="preserve" text-anchor="middle" x="337" y="-82.5" font-family="Helvetica,sans-Serif" font-size="10.00">duvc::enum_video_devices</text>
</a>
</g>
</g>
<!-- Node5&#45;&gt;Node9 -->
<g id="edge8_Node000005_Node000009" class="edge">
<title>Node5&#45;&gt;Node9</title>
<g id="a_edge8_Node000005_Node000009"><a xlink:title=" ">
<path fill="none" stroke="#63b8ff" d="M233.99,-86C241.72,-86 249.91,-86 258.16,-86"/>
<polygon fill="#63b8ff" stroke="#63b8ff" points="257.89,-89.5 267.89,-86 257.89,-82.5 257.89,-89.5"/>
</a>
</g>
</g>
<!-- Node10 -->
<g id="Node000010" class="node">
<title>Node10</title>
<g id="a_Node000010"><a xlink:href="namespaceduvc.html#a2c2b6f32c6871ad36ae0bf98d9374fd0" target="_top" xlink:title="Read device path from moniker.">
<polygon fill="white" stroke="#666666" points="396.75,-58 277.25,-58 277.25,-38 396.75,-38 396.75,-58"/>
<text xml:space="preserve" text-anchor="middle" x="337" y="-44.5" font-family="Helvetica,sans-Serif" font-size="10.00">duvc::read_device_path</text>
</a>
</g>
</g>
<!-- Node5&#45;&gt;Node10 -->
<g id="edge10_Node000005_Node000010" class="edge">
<title>Node5&#45;&gt;Node10</title>
<g id="a_edge10_Node000005_Node000010"><a xlink:title=" ">
<path fill="none" stroke="#63b8ff" d="M228.38,-75.52C245.6,-71.11 265.83,-65.94 284.07,-61.28"/>
<polygon fill="#63b8ff" stroke="#63b8ff" points="284.84,-64.69 293.66,-58.82 283.11,-57.91 284.84,-64.69"/>
</a>
</g>
</g>
<!-- Node12 -->
<g id="Node000012" class="node">
<title>Node12</title>
<g id="a_Node000012"><a xlink:href="namespaceduvc.html#a019644436e5f0add38b6242843b79fef" target="_top" xlink:title="Read friendly name from device moniker.">
<polygon fill="white" stroke="#666666" points="400.88,-20 273.12,-20 273.12,0 400.88,0 400.88,-20"/>
<text xml:space="preserve" text-anchor="middle" x="337" y="-6.5" font-family="Helvetica,sans-Serif" font-size="10.00">duvc::read_friendly_name</text>
</a>
</g>
</g>
<!-- Node5&#45;&gt;Node12 -->
<g id="edge12_Node000005_Node000012" class="edge">
<title>Node5&#45;&gt;Node12</title>
<g id="a_edge12_Node000005_Node000012"><a xlink:title=" ">
<path fill="none" stroke="#63b8ff" d="M199.7,-75.53C215.15,-62.89 242.87,-41.73 269.75,-29 273.48,-27.23 277.42,-25.59 281.43,-24.09"/>
<polygon fill="#63b8ff" stroke="#63b8ff" points="282.39,-27.45 290.7,-20.88 280.11,-20.84 282.39,-27.45"/>
</a>
</g>
</g>
<!-- Node7 -->
<g id="Node000007" class="node">
<title>Node7</title>
<g id="a_Node000007"><a xlink:href="namespaceduvc.html#a21b444574354018097d4489a9ff0ff9e" target="_top" xlink:title=" ">
<polygon fill="white" stroke="#666666" points="534.25,-115 453.75,-115 453.75,-95 534.25,-95 534.25,-115"/>
<text xml:space="preserve" text-anchor="middle" x="494" y="-101.5" font-family="Helvetica,sans-Serif" font-size="10.00">duvc::throw_hr</text>
</a>
</g>
</g>
<!-- Node6&#45;&gt;Node7 -->
<g id="edge6_Node000006_Node000007" class="edge">
<title>Node6&#45;&gt;Node7</title>
<g id="a_edge6_Node000006_Node000007"><a xlink:title=" ">
<path fill="none" stroke="#63b8ff" d="M397.48,-116.71C412.3,-114.89 428.05,-112.96 442.4,-111.2"/>
<polygon fill="#63b8ff" stroke="#63b8ff" points="442.56,-114.71 452.06,-110.02 441.71,-107.76 442.56,-114.71"/>
</a>
</g>
</g>
<!-- Node8 -->
<g id="Node000008" class="node">
<title>Node8</title>
<g id="a_Node000008"><a xlink:href="namespaceduvc.html#a02d5c5b2e56515cee2cad9057af0467d" target="_top" xlink:title=" ">
<polygon fill="white" stroke="#666666" points="682.25,-115 583.75,-115 583.75,-95 682.25,-95 682.25,-115"/>
<text xml:space="preserve" text-anchor="middle" x="633" y="-101.5" font-family="Helvetica,sans-Serif" font-size="10.00">duvc::wide_to_utf8</text>
</a>
</g>
</g>
<!-- Node7&#45;&gt;Node8 -->
<g id="edge7_Node000007_Node000008" class="edge">
<title>Node7&#45;&gt;Node8</title>
<g id="a_edge7_Node000007_Node000008"><a xlink:title=" ">
<path fill="none" stroke="#63b8ff" d="M534.63,-105C546.36,-105 559.49,-105 572.2,-105"/>
<polygon fill="#63b8ff" stroke="#63b8ff" points="572.2,-108.5 582.2,-105 572.2,-101.5 572.2,-108.5"/>
</a>
</g>
</g>
<!-- Node9&#45;&gt;Node7 -->
<g id="edge9_Node000009_Node000007" class="edge">
<title>Node9&#45;&gt;Node7</title>
<g id="a_edge9_Node000009_Node000007"><a xlink:title=" ">
<path fill="none" stroke="#63b8ff" d="M404.63,-94.17C417.19,-95.71 430.14,-97.29 442.12,-98.76"/>
<polygon fill="#63b8ff" stroke="#63b8ff" points="441.42,-102.2 451.77,-99.95 442.27,-95.26 441.42,-102.2"/>
</a>
</g>
</g>
<!-- Node11 -->
<g id="Node000011" class="node">
<title>Node11</title>
<g id="a_Node000011"><a xlink:href="namespaceduvc.html#a0dbd37821c1cae29fa72d44e3dbd0583" target="_top" xlink:title=" ">
<polygon fill="white" stroke="#666666" points="547.75,-39 440.25,-39 440.25,-19 547.75,-19 547.75,-39"/>
<text xml:space="preserve" text-anchor="middle" x="494" y="-25.5" font-family="Helvetica,sans-Serif" font-size="10.00">duvc::read_prop_bstr</text>
</a>
</g>
</g>
<!-- Node10&#45;&gt;Node11 -->
<g id="edge11_Node000010_Node000011" class="edge">
<title>Node10&#45;&gt;Node11</title>
<g id="a_edge11_Node000010_Node000011"><a xlink:title=" ">
<path fill="none" stroke="#63b8ff" d="M397.04,-40.76C407.41,-39.49 418.24,-38.16 428.74,-36.88"/>
<polygon fill="#63b8ff" stroke="#63b8ff" points="428.96,-40.38 438.46,-35.68 428.11,-33.43 428.96,-40.38"/>
</a>
</g>
</g>
<!-- Node12&#45;&gt;Node11 -->
<g id="edge13_Node000012_Node000011" class="edge">
<title>Node12&#45;&gt;Node11</title>
<g id="a_edge13_Node000012_Node000011"><a xlink:title=" ">
<path fill="none" stroke="#63b8ff" d="M401.04,-17.73C410.12,-18.84 419.47,-19.99 428.57,-21.1"/>
<polygon fill="#63b8ff" stroke="#63b8ff" points="428.07,-24.57 438.43,-22.31 428.93,-17.62 428.07,-24.57"/>
</a>
</g>
</g>
</g>
</svg>
