<?xml version="1.0" encoding="UTF-8" standalone="no"?>
<!DOCTYPE svg PUBLIC "-//W3C//DTD SVG 1.1//EN"
 "http://www.w3.org/Graphics/SVG/1.1/DTD/svg11.dtd">
<!-- Generated by graphviz version 14.0.2 (20251019.1705)
 -->
<!-- Title: core/camera.cpp Pages: 1 -->
<!--zoomable 220 -->

<svg id="main" version="1.1" xmlns="http://www.w3.org/2000/svg" xmlns:xlink="http://www.w3.org/1999/xlink" xml:space="preserve" onload="init(evt)">
<style type="text/css"><![CDATA[
.node, .edge {opacity: 0.7;}
.node.selected, .edge.selected {opacity: 1;}
.edge:hover path { stroke: red; }
.edge:hover polygon { stroke: red; fill: red; }
]]></style>

<defs>
  <circle id="rim" cx="0" cy="0" r="7"/>
  <circle id="rim2" cx="0" cy="0" r="3.5"/>
  <g id="zoomPlus">
    <use xlink:href="#rim" fill="#404040"><set attributeName="fill" to="#808080" begin="zoomplus.mouseover" end="zoomplus.mouseout"/></use>
    <path d="M-4,0h8M0,-4v8" fill="none" stroke="white" stroke-width="1.5" pointer-events="none"/>
  </g>
  <g id="zoomMin">
    <use xlink:href="#rim" fill="#404040"><set attributeName="fill" to="#808080" begin="zoomminus.mouseover" end="zoomminus.mouseout"/></use>
    <path d="M-4,0h8" fill="none" stroke="white" stroke-width="1.5" pointer-events="none"/>
  </g>
  <g id="arrowUp" transform="translate(30 24)">
    <use xlink:href="#rim"/>
    <path pointer-events="none" fill="none" stroke="white" stroke-width="1.5" d="M0,-3.0v7 M-2.5,-0.5L0,-3.0L2.5,-0.5"/>
  </g>
  <g id="arrowRight" transform="rotate(90) translate(36 -43)">
    <use xlink:href="#rim"/>
    <path pointer-events="none" fill="none" stroke="white" stroke-width="1.5" d="M0,-3.0v7 M-2.5,-0.5L0,-3.0L2.5,-0.5"/>
  </g>
  <g id="arrowDown" transform="rotate(180) translate(-30 -48)">
    <use xlink:href="#rim"/>
    <path pointer-events="none" fill="none" stroke="white" stroke-width="1.5" d="M0,-3.0v7 M-2.5,-0.5L0,-3.0L2.5,-0.5"/>
  </g>
  <g id="arrowLeft" transform="rotate(270) translate(-36 17)">
    <use xlink:href="#rim"/>
    <path pointer-events="none" fill="none" stroke="white" stroke-width="1.5" d="M0,-3.0v7 M-2.5,-0.5L0,-3.0L2.5,-0.5"/>
  </g>
  <g id="resetDef">
    <use xlink:href="#rim2" fill="#404040"><set attributeName="fill" to="#808080" begin="reset.mouseover" end="reset.mouseout"/></use>
  </g>
</defs>
<script type="application/ecmascript">
var viewWidth = 635;
var viewHeight = 220;
var sectionId = 'dynsection-0';
</script>
<script type="application/ecmascript" xlink:href="svg.min.js"/>
<svg id="graph" class="graph">
<g id="viewport">
<title>core/camera.cpp</title>
<!-- Node1 -->
<g id="Node000001" class="node">
<title>Node1</title>
<g id="a_Node000001"><a xlink:title="RAII camera handle implementation.">
<polygon fill="#999999" stroke="#666666" points="407,-212 318.25,-212 318.25,-192 407,-192 407,-212"/>
<text xml:space="preserve" text-anchor="middle" x="362.62" y="-198.5" font-family="Helvetica,sans-Serif" font-size="10.00">core/camera.cpp</text>
</a>
</g>
</g>
<!-- Node2 -->
<g id="Node000002" class="node">
<title>Node2</title>
<g id="a_Node000002"><a xlink:href="camera_8h.html" target="_top" xlink:title="RAII camera handle for simplified device management.">
<polygon fill="white" stroke="#666666" points="279.5,-150 163.75,-150 163.75,-130 279.5,-130 279.5,-150"/>
<text xml:space="preserve" text-anchor="middle" x="221.62" y="-136.5" font-family="Helvetica,sans-Serif" font-size="10.00">duvc&#45;ctl/core/camera.h</text>
</a>
</g>
</g>
<!-- Node1&#45;&gt;Node2 -->
<g id="edge1_Node000001_Node000002" class="edge">
<title>Node1&#45;&gt;Node2</title>
<g id="a_edge1_Node000001_Node000002"><a xlink:title=" ">
<path fill="none" stroke="#63b8ff" d="M340.59,-191.62C317.31,-181.72 280.36,-165.99 253.82,-154.7"/>
<polygon fill="#63b8ff" stroke="#63b8ff" points="255.47,-151.6 244.89,-150.9 252.73,-158.04 255.47,-151.6"/>
</a>
</g>
</g>
<!-- Node11 -->
<g id="Node000011" class="node">
<title>Node11</title>
<g id="a_Node000011"><a xlink:href="device_8h.html" target="_top" xlink:title="Device enumeration and management functions.">
<polygon fill="white" stroke="#666666" points="570.62,-150 458.62,-150 458.62,-130 570.62,-130 570.62,-150"/>
<text xml:space="preserve" text-anchor="middle" x="514.62" y="-136.5" font-family="Helvetica,sans-Serif" font-size="10.00">duvc&#45;ctl/core/device.h</text>
</a>
</g>
</g>
<!-- Node1&#45;&gt;Node11 -->
<g id="edge11_Node000001_Node000011" class="edge">
<title>Node1&#45;&gt;Node11</title>
<g id="a_edge11_Node000001_Node000011"><a xlink:title=" ">
<path fill="none" stroke="#63b8ff" d="M386.38,-191.62C411.62,-181.66 451.78,-165.81 480.43,-154.5"/>
<polygon fill="#63b8ff" stroke="#63b8ff" points="481.37,-157.89 489.38,-150.96 478.8,-151.38 481.37,-157.89"/>
</a>
</g>
</g>
<!-- Node14 -->
<g id="Node000014" class="node">
<title>Node14</title>
<g id="a_Node000014"><a xlink:href="connection__pool_8h.html" target="_top" xlink:title="Windows&#45;specific device connection pooling.">
<polygon fill="white" stroke="#666666" points="427.62,-156 297.62,-156 297.62,-124 427.62,-124 427.62,-156"/>
<text xml:space="preserve" text-anchor="start" x="305.62" y="-142.5" font-family="Helvetica,sans-Serif" font-size="10.00">duvc&#45;ctl/platform/windows</text>
<text xml:space="preserve" text-anchor="middle" x="362.62" y="-130.5" font-family="Helvetica,sans-Serif" font-size="10.00">/connection_pool.h</text>
</a>
</g>
</g>
<!-- Node1&#45;&gt;Node14 -->
<g id="edge15_Node000001_Node000014" class="edge">
<title>Node1&#45;&gt;Node14</title>
<g id="a_edge15_Node000001_Node000014"><a xlink:title=" ">
<path fill="none" stroke="#63b8ff" d="M362.62,-191.62C362.62,-185.1 362.62,-176.05 362.62,-167.4"/>
<polygon fill="#63b8ff" stroke="#63b8ff" points="366.13,-167.65 362.63,-157.65 359.13,-167.65 366.13,-167.65"/>
</a>
</g>
</g>
<!-- Node3 -->
<g id="Node000003" class="node">
<title>Node3</title>
<g id="a_Node000003"><a xlink:href="result_8h.html" target="_top" xlink:title="Result/Error type system for duvc&#45;ctl.">
<polygon fill="white" stroke="#666666" points="178.38,-82 70.88,-82 70.88,-62 178.38,-62 178.38,-82"/>
<text xml:space="preserve" text-anchor="middle" x="124.62" y="-68.5" font-family="Helvetica,sans-Serif" font-size="10.00">duvc&#45;ctl/core/result.h</text>
</a>
</g>
</g>
<!-- Node2&#45;&gt;Node3 -->
<g id="edge2_Node000002_Node000003" class="edge">
<title>Node2&#45;&gt;Node3</title>
<g id="a_edge2_Node000002_Node000003"><a xlink:title=" ">
<path fill="none" stroke="#63b8ff" d="M207.73,-129.54C192.1,-118.91 166.46,-101.47 147.79,-88.76"/>
<polygon fill="#63b8ff" stroke="#63b8ff" points="149.98,-86.02 139.75,-83.29 146.05,-91.81 149.98,-86.02"/>
</a>
</g>
</g>
<!-- Node9 -->
<g id="Node000009" class="node">
<title>Node9</title>
<g id="a_Node000009"><a xlink:href="types_8h.html" target="_top" xlink:title="Core data types and enumerations for duvc&#45;ctl.">
<polygon fill="white" stroke="#666666" points="489.38,-82 381.88,-82 381.88,-62 489.38,-62 489.38,-82"/>
<text xml:space="preserve" text-anchor="middle" x="435.62" y="-68.5" font-family="Helvetica,sans-Serif" font-size="10.00">duvc&#45;ctl/core/types.h</text>
</a>
</g>
</g>
<!-- Node2&#45;&gt;Node9 -->
<g id="edge8_Node000002_Node000009" class="edge">
<title>Node2&#45;&gt;Node9</title>
<g id="a_edge8_Node000002_Node000009"><a xlink:title=" ">
<path fill="none" stroke="#63b8ff" d="M252.29,-129.54C289.55,-118.05 352.59,-98.61 394.16,-85.79"/>
<polygon fill="#63b8ff" stroke="#63b8ff" points="395.05,-89.18 403.57,-82.88 392.99,-82.49 395.05,-89.18"/>
</a>
</g>
</g>
<!-- Node10 -->
<g id="Node000010" class="node">
<title>Node10</title>
<g id="a_Node000010"><a xlink:title=" ">
<polygon fill="#e0e0e0" stroke="#999999" points="247.25,-82 196,-82 196,-62 247.25,-62 247.25,-82"/>
<text xml:space="preserve" text-anchor="middle" x="221.62" y="-68.5" font-family="Helvetica,sans-Serif" font-size="10.00">memory</text>
</a>
</g>
</g>
<!-- Node2&#45;&gt;Node10 -->
<g id="edge10_Node000002_Node000010" class="edge">
<title>Node2&#45;&gt;Node10</title>
<g id="a_edge10_Node000002_Node000010"><a xlink:title=" ">
<path fill="none" stroke="#63b8ff" d="M221.62,-129.54C221.62,-120.23 221.62,-105.7 221.62,-93.7"/>
<polygon fill="#63b8ff" stroke="#63b8ff" points="225.13,-93.95 221.63,-83.95 218.13,-93.95 225.13,-93.95"/>
</a>
</g>
</g>
<!-- Node4 -->
<g id="Node000004" class="node">
<title>Node4</title>
<g id="a_Node000004"><a xlink:title=" ">
<polygon fill="#e0e0e0" stroke="#999999" points="116.38,-20 62.88,-20 62.88,0 116.38,0 116.38,-20"/>
<text xml:space="preserve" text-anchor="middle" x="89.62" y="-6.5" font-family="Helvetica,sans-Serif" font-size="10.00">iostream</text>
</a>
</g>
</g>
<!-- Node3&#45;&gt;Node4 -->
<g id="edge3_Node000003_Node000004" class="edge">
<title>Node3&#45;&gt;Node4</title>
<g id="a_edge3_Node000003_Node000004"><a xlink:title=" ">
<path fill="none" stroke="#63b8ff" d="M119.16,-61.62C114.2,-53.12 106.74,-40.33 100.56,-29.74"/>
<polygon fill="#63b8ff" stroke="#63b8ff" points="103.77,-28.29 95.7,-21.42 97.72,-31.82 103.77,-28.29"/>
</a>
</g>
</g>
<!-- Node5 -->
<g id="Node000005" class="node">
<title>Node5</title>
<g id="a_Node000005"><a xlink:title=" ">
<polygon fill="#e0e0e0" stroke="#999999" points="184.5,-20 134.75,-20 134.75,0 184.5,0 184.5,-20"/>
<text xml:space="preserve" text-anchor="middle" x="159.62" y="-6.5" font-family="Helvetica,sans-Serif" font-size="10.00">optional</text>
</a>
</g>
</g>
<!-- Node3&#45;&gt;Node5 -->
<g id="edge4_Node000003_Node000005" class="edge">
<title>Node3&#45;&gt;Node5</title>
<g id="a_edge4_Node000003_Node000005"><a xlink:title=" ">
<path fill="none" stroke="#63b8ff" d="M130.09,-61.62C135.05,-53.12 142.51,-40.33 148.69,-29.74"/>
<polygon fill="#63b8ff" stroke="#63b8ff" points="151.53,-31.82 153.55,-21.42 145.48,-28.29 151.53,-31.82"/>
</a>
</g>
</g>
<!-- Node6 -->
<g id="Node000006" class="node">
<title>Node6</title>
<g id="a_Node000006"><a xlink:title=" ">
<polygon fill="#e0e0e0" stroke="#999999" points="394.62,-20 354.62,-20 354.62,0 394.62,0 394.62,-20"/>
<text xml:space="preserve" text-anchor="middle" x="374.62" y="-6.5" font-family="Helvetica,sans-Serif" font-size="10.00">string</text>
</a>
</g>
</g>
<!-- Node3&#45;&gt;Node6 -->
<g id="edge5_Node000003_Node000006" class="edge">
<title>Node3&#45;&gt;Node6</title>
<g id="a_edge5_Node000003_Node000006"><a xlink:title=" ">
<path fill="none" stroke="#63b8ff" d="M163.65,-61.54C171.27,-59.7 179.2,-57.79 186.62,-56 241.68,-42.75 305.84,-27.42 343.18,-18.5"/>
<polygon fill="#63b8ff" stroke="#63b8ff" points="343.93,-21.92 352.84,-16.2 342.3,-15.11 343.93,-21.92"/>
</a>
</g>
</g>
<!-- Node7 -->
<g id="Node000007" class="node">
<title>Node7</title>
<g id="a_Node000007"><a xlink:title=" ">
<polygon fill="#e0e0e0" stroke="#999999" points="275.12,-20 202.12,-20 202.12,0 275.12,0 275.12,-20"/>
<text xml:space="preserve" text-anchor="middle" x="238.62" y="-6.5" font-family="Helvetica,sans-Serif" font-size="10.00">system_error</text>
</a>
</g>
</g>
<!-- Node3&#45;&gt;Node7 -->
<g id="edge6_Node000003_Node000007" class="edge">
<title>Node3&#45;&gt;Node7</title>
<g id="a_edge6_Node000003_Node000007"><a xlink:title=" ">
<path fill="none" stroke="#63b8ff" d="M142.44,-61.62C160.76,-51.98 189.55,-36.83 210.86,-25.61"/>
<polygon fill="#63b8ff" stroke="#63b8ff" points="212.38,-28.77 219.6,-21.01 209.12,-22.57 212.38,-28.77"/>
</a>
</g>
</g>
<!-- Node8 -->
<g id="Node000008" class="node">
<title>Node8</title>
<g id="a_Node000008"><a xlink:title=" ">
<polygon fill="#e0e0e0" stroke="#999999" points="45.25,-20 0,-20 0,0 45.25,0 45.25,-20"/>
<text xml:space="preserve" text-anchor="middle" x="22.62" y="-6.5" font-family="Helvetica,sans-Serif" font-size="10.00">variant</text>
</a>
</g>
</g>
<!-- Node3&#45;&gt;Node8 -->
<g id="edge7_Node000003_Node000008" class="edge">
<title>Node3&#45;&gt;Node8</title>
<g id="a_edge7_Node000003_Node000008"><a xlink:title=" ">
<path fill="none" stroke="#63b8ff" d="M108.69,-61.62C92.52,-52.11 67.24,-37.24 48.25,-26.08"/>
<polygon fill="#63b8ff" stroke="#63b8ff" points="50.15,-23.13 39.76,-21.08 46.6,-29.16 50.15,-23.13"/>
</a>
</g>
</g>
<!-- Node9&#45;&gt;Node6 -->
<g id="edge9_Node000009_Node000006" class="edge">
<title>Node9&#45;&gt;Node6</title>
<g id="a_edge9_Node000009_Node000006"><a xlink:title=" ">
<path fill="none" stroke="#63b8ff" d="M426.09,-61.62C417,-52.68 403.08,-38.99 392.01,-28.1"/>
<polygon fill="#63b8ff" stroke="#63b8ff" points="394.55,-25.69 384.97,-21.17 389.64,-30.68 394.55,-25.69"/>
</a>
</g>
</g>
<!-- Node11&#45;&gt;Node9 -->
<g id="edge12_Node000011_Node000009" class="edge">
<title>Node11&#45;&gt;Node9</title>
<g id="a_edge12_Node000011_Node000009"><a xlink:title=" ">
<path fill="none" stroke="#63b8ff" d="M503.31,-129.54C490.87,-119.15 470.66,-102.27 455.55,-89.65"/>
<polygon fill="#63b8ff" stroke="#63b8ff" points="458,-87.13 448.08,-83.41 453.51,-92.51 458,-87.13"/>
</a>
</g>
</g>
<!-- Node12 -->
<g id="Node000012" class="node">
<title>Node12</title>
<g id="a_Node000012"><a xlink:title=" ">
<polygon fill="#e0e0e0" stroke="#999999" points="626.62,-82 568.62,-82 568.62,-62 626.62,-62 626.62,-82"/>
<text xml:space="preserve" text-anchor="middle" x="597.62" y="-68.5" font-family="Helvetica,sans-Serif" font-size="10.00">functional</text>
</a>
</g>
</g>
<!-- Node11&#45;&gt;Node12 -->
<g id="edge13_Node000011_Node000012" class="edge">
<title>Node11&#45;&gt;Node12</title>
<g id="a_edge13_Node000011_Node000012"><a xlink:title=" ">
<path fill="none" stroke="#63b8ff" d="M526.52,-129.54C539.71,-119.06 561.22,-101.95 577.14,-89.29"/>
<polygon fill="#63b8ff" stroke="#63b8ff" points="578.92,-92.34 584.57,-83.38 574.57,-86.87 578.92,-92.34"/>
</a>
</g>
</g>
<!-- Node13 -->
<g id="Node000013" class="node">
<title>Node13</title>
<g id="a_Node000013"><a xlink:title=" ">
<polygon fill="#e0e0e0" stroke="#999999" points="550.12,-82 507.12,-82 507.12,-62 550.12,-62 550.12,-82"/>
<text xml:space="preserve" text-anchor="middle" x="528.62" y="-68.5" font-family="Helvetica,sans-Serif" font-size="10.00">vector</text>
</a>
</g>
</g>
<!-- Node11&#45;&gt;Node13 -->
<g id="edge14_Node000011_Node000013" class="edge">
<title>Node11&#45;&gt;Node13</title>
<g id="a_edge14_Node000011_Node000013"><a xlink:title=" ">
<path fill="none" stroke="#63b8ff" d="M516.63,-129.54C518.63,-120.13 521.75,-105.39 524.31,-93.32"/>
<polygon fill="#63b8ff" stroke="#63b8ff" points="527.66,-94.43 526.31,-83.92 520.81,-92.98 527.66,-94.43"/>
</a>
</g>
</g>
<!-- Node14&#45;&gt;Node9 -->
<g id="edge16_Node000014_Node000009" class="edge">
<title>Node14&#45;&gt;Node9</title>
<g id="a_edge16_Node000014_Node000009"><a xlink:title=" ">
<path fill="none" stroke="#63b8ff" d="M379.56,-123.69C390.72,-113.6 405.36,-100.36 416.88,-89.95"/>
<polygon fill="#63b8ff" stroke="#63b8ff" points="419.13,-92.63 424.2,-83.33 414.43,-87.44 419.13,-92.63"/>
</a>
</g>
</g>
<!-- Node14&#45;&gt;Node10 -->
<g id="edge18_Node000014_Node000010" class="edge">
<title>Node14&#45;&gt;Node10</title>
<g id="a_edge18_Node000014_Node000010"><a xlink:title=" ">
<path fill="none" stroke="#63b8ff" d="M329.57,-123.53C306.1,-112.54 274.83,-97.9 251.99,-87.21"/>
<polygon fill="#63b8ff" stroke="#63b8ff" points="253.75,-84.17 243.21,-83.1 250.78,-90.51 253.75,-84.17"/>
</a>
</g>
</g>
<!-- Node15 -->
<g id="Node000015" class="node">
<title>Node15</title>
<g id="a_Node000015"><a xlink:title=" ">
<polygon fill="#e0e0e0" stroke="#999999" points="363.88,-88 265.38,-88 265.38,-56 363.88,-56 363.88,-88"/>
<text xml:space="preserve" text-anchor="start" x="273.38" y="-74.5" font-family="Helvetica,sans-Serif" font-size="10.00">duvc&#45;ctl/detail/com</text>
<text xml:space="preserve" text-anchor="middle" x="314.62" y="-62.5" font-family="Helvetica,sans-Serif" font-size="10.00">_helpers.h</text>
</a>
</g>
</g>
<!-- Node14&#45;&gt;Node15 -->
<g id="edge17_Node000014_Node000015" class="edge">
<title>Node14&#45;&gt;Node15</title>
<g id="a_edge17_Node000014_Node000015"><a xlink:title=" ">
<path fill="none" stroke="#63b8ff" d="M351.49,-123.69C345.8,-115.86 338.73,-106.15 332.31,-97.32"/>
<polygon fill="#63b8ff" stroke="#63b8ff" points="335.3,-95.48 326.59,-89.45 329.64,-99.59 335.3,-95.48"/>
</a>
</g>
</g>
</g>
</svg>

<g id="navigator" transform="translate(0 0)" fill="#404254">
  <rect fill="#f2f5e9" fill-opacity="0.5" stroke="#606060" stroke-width=".5" x="0" y="0" width="60" height="60"/>
  <use id="zoomplus" xlink:href="#zoomPlus" x="17" y="9" onmousedown="handleZoom(evt,'in')"/>
  <use id="zoomminus" xlink:href="#zoomMin" x="42" y="9" onmousedown="handleZoom(evt,'out')"/>
  <use id="reset" xlink:href="#resetDef" x="30" y="36" onmousedown="handleReset()"/>
   <use id="arrowup" xlink:href="#arrowUp" x="0" y="0" onmousedown="handlePan(0,-1)"/>
  <use id="arrowright" xlink:href="#arrowRight" x="0" y="0" onmousedown="handlePan(1,0)"/>
  <use id="arrowdown" xlink:href="#arrowDown" x="0" y="0" onmousedown="handlePan(0,1)"/>
  <use id="arrowleft" xlink:href="#arrowLeft" x="0" y="0" onmousedown="handlePan(-1,0)"/>
</g>
<svg viewBox="0 0 15 15" width="100%" height="30px" preserveAspectRatio="xMaxYMin meet">
 <g id="arrow_out" transform="scale(0.3 0.3)">
  <a xlink:href="camera_8cpp__incl_org.svg" target="_base">
   <rect id="button" ry="5" rx="5" y="6" x="6" height="38" width="38"
        fill="#f2f5e9" fill-opacity="0.5" stroke="#606060" stroke-width="1.0"/>
   <path id="arrow"
     d="M 11.500037,31.436501 C 11.940474,20.09759 22.043105,11.32322 32.158766,21.979434 L 37.068811,17.246167 C 37.068811,17.246167 37.088388,32 37.088388,32 L 22.160133,31.978069 C 22.160133,31.978069 26.997745,27.140456 26.997745,27.140456 C 18.528582,18.264221 13.291696,25.230495 11.500037,31.436501 z"
     style="fill:#404040;"/>
  </a>
 </g>
</svg>

<style type='text/css'>
<![CDATA[
[data-mouse-over-selected='false'] { opacity: 0.7; }
[data-mouse-over-selected='true']  { opacity: 1.0; }
]]>
</style>
<script type="application/ecmascript"><![CDATA[
document.addEventListener('DOMContentLoaded', (event) => {
  highlightEdges();
  highlightAdjacentNodes();
});
]]></script>
</svg>
