<?xml version="1.0" encoding="UTF-8" standalone="no"?>
<!DOCTYPE svg PUBLIC "-//W3C//DTD SVG 1.1//EN"
 "http://www.w3.org/Graphics/SVG/1.1/DTD/svg11.dtd">
<!-- Generated by graphviz version 14.0.2 (20251019.1705)
 -->
<!-- Title: core/camera.h Pages: 1 -->
<svg width="441pt" height="140pt"
 viewBox="0.00 0.00 441.00 140.00" xmlns="http://www.w3.org/2000/svg" xmlns:xlink="http://www.w3.org/1999/xlink">

<svg id="main" version="1.1" xmlns="http://www.w3.org/2000/svg" xmlns:xlink="http://www.w3.org/1999/xlink" xml:space="preserve" onload="init(evt)">
<style type="text/css"><![CDATA[
.node, .edge {opacity: 0.7;}
.node.selected, .edge.selected {opacity: 1;}
.edge:hover path { stroke: red; }
.edge:hover polygon { stroke: red; fill: red; }
]]></style>
<script type="application/ecmascript" xlink:href="svg.min.js"/>
<svg id="graph" class="graph">
<g id="graph0" class="graph" transform="scale(1 1) rotate(0) translate(4 136)">
<title>core/camera.h</title>
<!-- Node1 -->
<g id="Node000001" class="node">
<title>Node1</title>
<g id="a_Node000001"><a xlink:title="RAII camera handle for simplified device management.">
<polygon fill="#999999" stroke="#666666" points="349.88,-132 271.62,-132 271.62,-112 349.88,-112 349.88,-132"/>
<text xml:space="preserve" text-anchor="middle" x="310.75" y="-118.5" font-family="Helvetica,sans-Serif" font-size="10.00">core/camera.h</text>
</a>
</g>
</g>
<!-- Node2 -->
<g id="Node000002" class="node">
<title>Node2</title>
<g id="a_Node000002"><a xlink:href="result_8h.html" target="_top" xlink:title="Result/Error type system for duvc&#45;ctl.">
<polygon fill="white" stroke="#666666" points="235.5,-76 128,-76 128,-56 235.5,-56 235.5,-76"/>
<text xml:space="preserve" text-anchor="middle" x="181.75" y="-62.5" font-family="Helvetica,sans-Serif" font-size="10.00">duvc&#45;ctl/core/result.h</text>
</a>
</g>
</g>
<!-- Node1&#45;&gt;Node2 -->
<g id="edge1_Node000001_Node000002" class="edge">
<title>Node1&#45;&gt;Node2</title>
<g id="a_edge1_Node000001_Node000002"><a xlink:title=" ">
<path fill="none" stroke="#63b8ff" d="M288.28,-111.59C267.96,-103.09 237.8,-90.46 214.74,-80.81"/>
<polygon fill="#63b8ff" stroke="#63b8ff" points="216.37,-77.7 205.79,-77.06 213.66,-84.15 216.37,-77.7"/>
</a>
</g>
</g>
<!-- Node8 -->
<g id="Node000008" class="node">
<title>Node8</title>
<g id="a_Node000008"><a xlink:href="types_8h.html" target="_top" xlink:title="Core data types and enumerations for duvc&#45;ctl.">
<polygon fill="white" stroke="#666666" points="364.5,-76 257,-76 257,-56 364.5,-56 364.5,-76"/>
<text xml:space="preserve" text-anchor="middle" x="310.75" y="-62.5" font-family="Helvetica,sans-Serif" font-size="10.00">duvc&#45;ctl/core/types.h</text>
</a>
</g>
</g>
<!-- Node1&#45;&gt;Node8 -->
<g id="edge7_Node000001_Node000008" class="edge">
<title>Node1&#45;&gt;Node8</title>
<g id="a_edge7_Node000001_Node000008"><a xlink:title=" ">
<path fill="none" stroke="#63b8ff" d="M310.75,-111.59C310.75,-105.01 310.75,-95.96 310.75,-87.73"/>
<polygon fill="#63b8ff" stroke="#63b8ff" points="314.25,-87.81 310.75,-77.81 307.25,-87.81 314.25,-87.81"/>
</a>
</g>
</g>
<!-- Node9 -->
<g id="Node000009" class="node">
<title>Node9</title>
<g id="a_Node000009"><a xlink:title=" ">
<polygon fill="#e0e0e0" stroke="#999999" points="433.38,-76 382.12,-76 382.12,-56 433.38,-56 433.38,-76"/>
<text xml:space="preserve" text-anchor="middle" x="407.75" y="-62.5" font-family="Helvetica,sans-Serif" font-size="10.00">memory</text>
</a>
</g>
</g>
<!-- Node1&#45;&gt;Node9 -->
<g id="edge9_Node000001_Node000009" class="edge">
<title>Node1&#45;&gt;Node9</title>
<g id="a_edge9_Node000001_Node000009"><a xlink:title=" ">
<path fill="none" stroke="#63b8ff" d="M327.65,-111.59C342.3,-103.44 363.77,-91.48 380.8,-82"/>
<polygon fill="#63b8ff" stroke="#63b8ff" points="382.36,-85.14 389.4,-77.22 378.96,-79.02 382.36,-85.14"/>
</a>
</g>
</g>
<!-- Node3 -->
<g id="Node000003" class="node">
<title>Node3</title>
<g id="a_Node000003"><a xlink:title=" ">
<polygon fill="#e0e0e0" stroke="#999999" points="53.5,-20 0,-20 0,0 53.5,0 53.5,-20"/>
<text xml:space="preserve" text-anchor="middle" x="26.75" y="-6.5" font-family="Helvetica,sans-Serif" font-size="10.00">iostream</text>
</a>
</g>
</g>
<!-- Node2&#45;&gt;Node3 -->
<g id="edge2_Node000002_Node000003" class="edge">
<title>Node2&#45;&gt;Node3</title>
<g id="a_edge2_Node000002_Node000003"><a xlink:title=" ">
<path fill="none" stroke="#63b8ff" d="M154.75,-55.59C129.79,-46.9 92.45,-33.89 64.53,-24.16"/>
<polygon fill="#63b8ff" stroke="#63b8ff" points="65.98,-20.96 55.39,-20.98 63.68,-27.57 65.98,-20.96"/>
</a>
</g>
</g>
<!-- Node4 -->
<g id="Node000004" class="node">
<title>Node4</title>
<g id="a_Node000004"><a xlink:title=" ">
<polygon fill="#e0e0e0" stroke="#999999" points="121.62,-20 71.88,-20 71.88,0 121.62,0 121.62,-20"/>
<text xml:space="preserve" text-anchor="middle" x="96.75" y="-6.5" font-family="Helvetica,sans-Serif" font-size="10.00">optional</text>
</a>
</g>
</g>
<!-- Node2&#45;&gt;Node4 -->
<g id="edge3_Node000002_Node000004" class="edge">
<title>Node2&#45;&gt;Node4</title>
<g id="a_edge3_Node000002_Node000004"><a xlink:title=" ">
<path fill="none" stroke="#63b8ff" d="M166.94,-55.59C154.35,-47.59 136,-35.93 121.22,-26.54"/>
<polygon fill="#63b8ff" stroke="#63b8ff" points="123.27,-23.7 112.95,-21.29 119.51,-29.61 123.27,-23.7"/>
</a>
</g>
</g>
<!-- Node5 -->
<g id="Node000005" class="node">
<title>Node5</title>
<g id="a_Node000005"><a xlink:title=" ">
<polygon fill="#e0e0e0" stroke="#999999" points="333.75,-20 293.75,-20 293.75,0 333.75,0 333.75,-20"/>
<text xml:space="preserve" text-anchor="middle" x="313.75" y="-6.5" font-family="Helvetica,sans-Serif" font-size="10.00">string</text>
</a>
</g>
</g>
<!-- Node2&#45;&gt;Node5 -->
<g id="edge4_Node000002_Node000005" class="edge">
<title>Node2&#45;&gt;Node5</title>
<g id="a_edge4_Node000002_Node000005"><a xlink:title=" ">
<path fill="none" stroke="#63b8ff" d="M204.74,-55.59C226.42,-46.72 259.07,-33.37 282.99,-23.59"/>
<polygon fill="#63b8ff" stroke="#63b8ff" points="284.28,-26.84 292.21,-19.81 281.63,-20.36 284.28,-26.84"/>
</a>
</g>
</g>
<!-- Node6 -->
<g id="Node000006" class="node">
<title>Node6</title>
<g id="a_Node000006"><a xlink:title=" ">
<polygon fill="#e0e0e0" stroke="#999999" points="212.25,-20 139.25,-20 139.25,0 212.25,0 212.25,-20"/>
<text xml:space="preserve" text-anchor="middle" x="175.75" y="-6.5" font-family="Helvetica,sans-Serif" font-size="10.00">system_error</text>
</a>
</g>
</g>
<!-- Node2&#45;&gt;Node6 -->
<g id="edge5_Node000002_Node000006" class="edge">
<title>Node2&#45;&gt;Node6</title>
<g id="a_edge5_Node000002_Node000006"><a xlink:title=" ">
<path fill="none" stroke="#63b8ff" d="M180.7,-55.59C179.97,-49.01 178.97,-39.96 178.05,-31.73"/>
<polygon fill="#63b8ff" stroke="#63b8ff" points="181.53,-31.35 176.95,-21.8 174.58,-32.13 181.53,-31.35"/>
</a>
</g>
</g>
<!-- Node7 -->
<g id="Node000007" class="node">
<title>Node7</title>
<g id="a_Node000007"><a xlink:title=" ">
<polygon fill="#e0e0e0" stroke="#999999" points="275.38,-20 230.12,-20 230.12,0 275.38,0 275.38,-20"/>
<text xml:space="preserve" text-anchor="middle" x="252.75" y="-6.5" font-family="Helvetica,sans-Serif" font-size="10.00">variant</text>
</a>
</g>
</g>
<!-- Node2&#45;&gt;Node7 -->
<g id="edge6_Node000002_Node000007" class="edge">
<title>Node2&#45;&gt;Node7</title>
<g id="a_edge6_Node000002_Node000007"><a xlink:title=" ">
<path fill="none" stroke="#63b8ff" d="M194.12,-55.59C204.4,-47.77 219.27,-36.46 231.46,-27.19"/>
<polygon fill="#63b8ff" stroke="#63b8ff" points="233.48,-30.05 239.32,-21.21 229.24,-24.48 233.48,-30.05"/>
</a>
</g>
</g>
<!-- Node8&#45;&gt;Node5 -->
<g id="edge8_Node000008_Node000005" class="edge">
<title>Node8&#45;&gt;Node5</title>
<g id="a_edge8_Node000008_Node000005"><a xlink:title=" ">
<path fill="none" stroke="#63b8ff" d="M311.27,-55.59C311.64,-49.01 312.14,-39.96 312.6,-31.73"/>
<polygon fill="#63b8ff" stroke="#63b8ff" points="316.09,-31.99 313.15,-21.81 309.1,-31.6 316.09,-31.99"/>
</a>
</g>
</g>
</g>
</svg>
</svg>

<style type='text/css'>
<![CDATA[
[data-mouse-over-selected='false'] { opacity: 0.7; }
[data-mouse-over-selected='true']  { opacity: 1.0; }
]]>
</style>
<script type="application/ecmascript"><![CDATA[
document.addEventListener('DOMContentLoaded', (event) => {
  highlightEdges();
  highlightAdjacentNodes();
});
]]></script>
</svg>
