<?xml version="1.0" encoding="UTF-8" standalone="no"?>
<!DOCTYPE svg PUBLIC "-//W3C//DTD SVG 1.1//EN"
 "http://www.w3.org/Graphics/SVG/1.1/DTD/svg11.dtd">
<!-- Generated by graphviz version 14.0.2 (20251019.1705)
 -->
<!-- Title: core/camera.h Pages: 1 -->
<svg width="338pt" height="140pt"
 viewBox="0.00 0.00 338.00 140.00" xmlns="http://www.w3.org/2000/svg" xmlns:xlink="http://www.w3.org/1999/xlink">

<svg id="main" version="1.1" xmlns="http://www.w3.org/2000/svg" xmlns:xlink="http://www.w3.org/1999/xlink" xml:space="preserve" onload="init(evt)">
<style type="text/css"><![CDATA[
.node, .edge {opacity: 0.7;}
.node.selected, .edge.selected {opacity: 1;}
.edge:hover path { stroke: red; }
.edge:hover polygon { stroke: red; fill: red; }
]]></style>
<script type="application/ecmascript" xlink:href="svg.min.js"/>
<svg id="graph" class="graph">
<g id="graph0" class="graph" transform="scale(1 1) rotate(0) translate(4 136)">
<title>core/camera.h</title>
<!-- Node1 -->
<g id="Node000001" class="node">
<title>Node1</title>
<g id="a_Node000001"><a xlink:title="RAII camera handle for simplified device management.">
<polygon fill="#999999" stroke="#666666" points="182,-132 103.75,-132 103.75,-112 182,-112 182,-132"/>
<text xml:space="preserve" text-anchor="middle" x="142.88" y="-118.5" font-family="Helvetica,sans-Serif" font-size="10.00">core/camera.h</text>
</a>
</g>
</g>
<!-- Node2 -->
<g id="Node000002" class="node">
<title>Node2</title>
<g id="a_Node000002"><a xlink:href="api_8cpp.html" target="_top" xlink:title="Complete C ABI implementation for duvc&#45;ctl library.">
<polygon fill="white" stroke="#666666" points="55.75,-20 0,-20 0,0 55.75,0 55.75,-20"/>
<text xml:space="preserve" text-anchor="middle" x="27.88" y="-6.5" font-family="Helvetica,sans-Serif" font-size="10.00">c/api.cpp</text>
</a>
</g>
</g>
<!-- Node1&#45;&gt;Node2 -->
<g id="edge1_Node000001_Node000002" class="edge">
<title>Node1&#45;&gt;Node2</title>
<g id="a_edge1_Node000001_Node000002"><a xlink:title=" ">
<path fill="none" stroke="#63b8ff" d="M120.34,-105.09C109.25,-96.87 95.93,-86.41 84.88,-76 65.43,-57.68 45.47,-33.41 35.11,-20.32"/>
<polygon fill="#63b8ff" stroke="#63b8ff" points="118.02,-107.73 128.17,-110.78 122.14,-102.07 118.02,-107.73"/>
</a>
</g>
</g>
<!-- Node3 -->
<g id="Node000003" class="node">
<title>Node3</title>
<g id="a_Node000003"><a xlink:href="camera_8cpp.html" target="_top" xlink:title="RAII camera handle implementation.">
<polygon fill="white" stroke="#666666" points="330.25,-76 241.5,-76 241.5,-56 330.25,-56 330.25,-76"/>
<text xml:space="preserve" text-anchor="middle" x="285.88" y="-62.5" font-family="Helvetica,sans-Serif" font-size="10.00">core/camera.cpp</text>
</a>
</g>
</g>
<!-- Node1&#45;&gt;Node3 -->
<g id="edge2_Node000001_Node000003" class="edge">
<title>Node1&#45;&gt;Node3</title>
<g id="a_edge2_Node000001_Node000003"><a xlink:title=" ">
<path fill="none" stroke="#63b8ff" d="M178.54,-107.53C204.13,-97.87 237.98,-85.08 260.77,-76.48"/>
<polygon fill="#63b8ff" stroke="#63b8ff" points="177.32,-104.25 169.2,-111.06 179.79,-110.8 177.32,-104.25"/>
</a>
</g>
</g>
<!-- Node4 -->
<g id="Node000004" class="node">
<title>Node4</title>
<g id="a_Node000004"><a xlink:href="capability_8cpp.html" target="_top" xlink:title="Device capability detection implementation using Camera API.">
<polygon fill="white" stroke="#666666" points="170.38,-20 73.38,-20 73.38,0 170.38,0 170.38,-20"/>
<text xml:space="preserve" text-anchor="middle" x="121.88" y="-6.5" font-family="Helvetica,sans-Serif" font-size="10.00">core/capability.cpp</text>
</a>
</g>
</g>
<!-- Node1&#45;&gt;Node4 -->
<g id="edge3_Node000001_Node000004" class="edge">
<title>Node1&#45;&gt;Node4</title>
<g id="a_edge3_Node000001_Node000004"><a xlink:title=" ">
<path fill="none" stroke="#63b8ff" d="M116.31,-105.1C106.4,-97.64 96.25,-87.77 90.88,-76 81.73,-55.99 99.81,-32.77 112.01,-20.21"/>
<polygon fill="#63b8ff" stroke="#63b8ff" points="114.11,-107.84 124.33,-110.65 118.09,-102.09 114.11,-107.84"/>
</a>
</g>
</g>
<!-- Node5 -->
<g id="Node000005" class="node">
<title>Node5</title>
<g id="a_Node000005"><a xlink:href="capability_8h.html" target="_top" xlink:title="Device capability detection and snapshots using Camera API.">
<polygon fill="white" stroke="#666666" points="186.12,-76 99.62,-76 99.62,-56 186.12,-56 186.12,-76"/>
<text xml:space="preserve" text-anchor="middle" x="142.88" y="-62.5" font-family="Helvetica,sans-Serif" font-size="10.00">core/capability.h</text>
</a>
</g>
</g>
<!-- Node1&#45;&gt;Node5 -->
<g id="edge4_Node000001_Node000005" class="edge">
<title>Node1&#45;&gt;Node5</title>
<g id="a_edge4_Node000001_Node000005"><a xlink:title=" ">
<path fill="none" stroke="#63b8ff" d="M142.88,-100.13C142.88,-91.9 142.88,-82.85 142.88,-76.3"/>
<polygon fill="#63b8ff" stroke="#63b8ff" points="139.38,-100.08 142.88,-110.08 146.38,-100.08 139.38,-100.08"/>
</a>
</g>
</g>
<!-- Node6 -->
<g id="Node000006" class="node">
<title>Node6</title>
<g id="a_Node000006"><a xlink:href="duvc_8hpp.html" target="_top" xlink:title="Main umbrella header for duvc&#45;ctl library.">
<polygon fill="white" stroke="#666666" points="243.75,-20 188,-20 188,0 243.75,0 243.75,-20"/>
<text xml:space="preserve" text-anchor="middle" x="215.88" y="-6.5" font-family="Helvetica,sans-Serif" font-size="10.00">duvc.hpp</text>
</a>
</g>
</g>
<!-- Node1&#45;&gt;Node6 -->
<g id="edge8_Node000001_Node000006" class="edge">
<title>Node1&#45;&gt;Node6</title>
<g id="a_edge8_Node000001_Node000006"><a xlink:title=" ">
<path fill="none" stroke="#63b8ff" d="M166.67,-104.92C176.59,-97.18 187.48,-87.16 194.88,-76 206.66,-58.2 212.26,-33.3 214.54,-20.08"/>
<polygon fill="#63b8ff" stroke="#63b8ff" points="164.81,-101.94 158.84,-110.7 168.96,-107.58 164.81,-101.94"/>
</a>
</g>
</g>
<!-- Node5&#45;&gt;Node2 -->
<g id="edge5_Node000005_Node000002" class="edge">
<title>Node5&#45;&gt;Node2</title>
<g id="a_edge5_Node000005_Node000002"><a xlink:title=" ">
<path fill="none" stroke="#63b8ff" d="M112.52,-50.75C92.15,-41.18 65.9,-28.85 48.06,-20.48"/>
<polygon fill="#63b8ff" stroke="#63b8ff" points="110.93,-53.87 121.47,-54.95 113.91,-47.53 110.93,-53.87"/>
</a>
</g>
</g>
<!-- Node5&#45;&gt;Node4 -->
<g id="edge6_Node000005_Node000004" class="edge">
<title>Node5&#45;&gt;Node4</title>
<g id="a_edge6_Node000005_Node000004"><a xlink:title=" ">
<path fill="none" stroke="#63b8ff" d="M135.1,-45C131.81,-36.54 128.13,-27.08 125.49,-20.3"/>
<polygon fill="#63b8ff" stroke="#63b8ff" points="131.78,-46.13 138.67,-54.18 138.31,-43.59 131.78,-46.13"/>
</a>
</g>
</g>
<!-- Node5&#45;&gt;Node6 -->
<g id="edge7_Node000005_Node000006" class="edge">
<title>Node5&#45;&gt;Node6</title>
<g id="a_edge7_Node000005_Node000006"><a xlink:title=" ">
<path fill="none" stroke="#63b8ff" d="M164.57,-48.95C177.19,-39.61 192.67,-28.16 203.31,-20.3"/>
<polygon fill="#63b8ff" stroke="#63b8ff" points="162.77,-45.93 156.81,-54.69 166.93,-51.56 162.77,-45.93"/>
</a>
</g>
</g>
</g>
</svg>
</svg>

<style type='text/css'>
<![CDATA[
[data-mouse-over-selected='false'] { opacity: 0.7; }
[data-mouse-over-selected='true']  { opacity: 1.0; }
]]>
</style>
<script type="application/ecmascript"><![CDATA[
document.addEventListener('DOMContentLoaded', (event) => {
  highlightEdges();
  highlightAdjacentNodes();
});
]]></script>
</svg>
