<?xml version="1.0" encoding="UTF-8" standalone="no"?>
<!DOCTYPE svg PUBLIC "-//W3C//DTD SVG 1.1//EN"
 "http://www.w3.org/Graphics/SVG/1.1/DTD/svg11.dtd">
<!-- Generated by graphviz version 14.0.2 (20251019.1705)
 -->
<!-- Title: core/capability.cpp Pages: 1 -->
<!--zoomable 264 -->

<svg id="main" version="1.1" xmlns="http://www.w3.org/2000/svg" xmlns:xlink="http://www.w3.org/1999/xlink" xml:space="preserve" onload="init(evt)">
<style type="text/css"><![CDATA[
.node, .edge {opacity: 0.7;}
.node.selected, .edge.selected {opacity: 1;}
.edge:hover path { stroke: red; }
.edge:hover polygon { stroke: red; fill: red; }
]]></style>

<defs>
  <circle id="rim" cx="0" cy="0" r="7"/>
  <circle id="rim2" cx="0" cy="0" r="3.5"/>
  <g id="zoomPlus">
    <use xlink:href="#rim" fill="#404040"><set attributeName="fill" to="#808080" begin="zoomplus.mouseover" end="zoomplus.mouseout"/></use>
    <path d="M-4,0h8M0,-4v8" fill="none" stroke="white" stroke-width="1.5" pointer-events="none"/>
  </g>
  <g id="zoomMin">
    <use xlink:href="#rim" fill="#404040"><set attributeName="fill" to="#808080" begin="zoomminus.mouseover" end="zoomminus.mouseout"/></use>
    <path d="M-4,0h8" fill="none" stroke="white" stroke-width="1.5" pointer-events="none"/>
  </g>
  <g id="arrowUp" transform="translate(30 24)">
    <use xlink:href="#rim"/>
    <path pointer-events="none" fill="none" stroke="white" stroke-width="1.5" d="M0,-3.0v7 M-2.5,-0.5L0,-3.0L2.5,-0.5"/>
  </g>
  <g id="arrowRight" transform="rotate(90) translate(36 -43)">
    <use xlink:href="#rim"/>
    <path pointer-events="none" fill="none" stroke="white" stroke-width="1.5" d="M0,-3.0v7 M-2.5,-0.5L0,-3.0L2.5,-0.5"/>
  </g>
  <g id="arrowDown" transform="rotate(180) translate(-30 -48)">
    <use xlink:href="#rim"/>
    <path pointer-events="none" fill="none" stroke="white" stroke-width="1.5" d="M0,-3.0v7 M-2.5,-0.5L0,-3.0L2.5,-0.5"/>
  </g>
  <g id="arrowLeft" transform="rotate(270) translate(-36 17)">
    <use xlink:href="#rim"/>
    <path pointer-events="none" fill="none" stroke="white" stroke-width="1.5" d="M0,-3.0v7 M-2.5,-0.5L0,-3.0L2.5,-0.5"/>
  </g>
  <g id="resetDef">
    <use xlink:href="#rim2" fill="#404040"><set attributeName="fill" to="#808080" begin="reset.mouseover" end="reset.mouseout"/></use>
  </g>
</defs>
<script type="application/ecmascript">
var viewWidth = 746;
var viewHeight = 264;
var sectionId = 'dynsection-0';
</script>
<script type="application/ecmascript" xlink:href="svg.min.js"/>
<svg id="graph" class="graph">
<g id="viewport">
<title>core/capability.cpp</title>
<!-- Node1 -->
<g id="Node000001" class="node">
<title>Node1</title>
<g id="a_Node000001"><a xlink:title="Device capability detection implementation using Camera API.">
<polygon fill="#999999" stroke="#666666" points="434.12,-256 337.12,-256 337.12,-236 434.12,-236 434.12,-256"/>
<text xml:space="preserve" text-anchor="middle" x="385.62" y="-242.5" font-family="Helvetica,sans-Serif" font-size="10.00">core/capability.cpp</text>
</a>
</g>
</g>
<!-- Node2 -->
<g id="Node000002" class="node">
<title>Node2</title>
<g id="a_Node000002"><a xlink:href="camera_8h.html" target="_top" xlink:title="RAII camera handle for simplified device management.">
<polygon fill="white" stroke="#666666" points="231.5,-138 115.75,-138 115.75,-118 231.5,-118 231.5,-138"/>
<text xml:space="preserve" text-anchor="middle" x="173.62" y="-124.5" font-family="Helvetica,sans-Serif" font-size="10.00">duvc&#45;ctl/core/camera.h</text>
</a>
</g>
</g>
<!-- Node1&#45;&gt;Node2 -->
<g id="edge1_Node000001_Node000002" class="edge">
<title>Node1&#45;&gt;Node2</title>
<g id="a_edge1_Node000001_Node000002"><a xlink:title=" ">
<path fill="none" stroke="#63b8ff" d="M338.92,-235.56C310.82,-228.53 275.09,-217.15 246.62,-200 223.08,-185.81 201.21,-162.67 187.66,-146.68"/>
<polygon fill="#63b8ff" stroke="#63b8ff" points="190.71,-144.88 181.66,-139.38 185.31,-149.33 190.71,-144.88"/>
</a>
</g>
</g>
<!-- Node3 -->
<g id="Node000003" class="node">
<title>Node3</title>
<g id="a_Node000003"><a xlink:href="result_8h.html" target="_top" xlink:title="Result/Error type system for duvc&#45;ctl.">
<polygon fill="white" stroke="#666666" points="178.38,-76 70.88,-76 70.88,-56 178.38,-56 178.38,-76"/>
<text xml:space="preserve" text-anchor="middle" x="124.62" y="-62.5" font-family="Helvetica,sans-Serif" font-size="10.00">duvc&#45;ctl/core/result.h</text>
</a>
</g>
</g>
<!-- Node1&#45;&gt;Node3 -->
<g id="edge22_Node000001_Node000003" class="edge">
<title>Node1&#45;&gt;Node3</title>
<g id="a_edge22_Node000001_Node000003"><a xlink:title=" ">
<path fill="none" stroke="#63b8ff" d="M336.68,-244.89C268.4,-241.7 147.14,-224.33 95.62,-144 83.64,-125.3 96.91,-100.91 109.18,-84.64"/>
<polygon fill="#63b8ff" stroke="#63b8ff" points="111.57,-87.26 115.14,-77.28 106.12,-82.85 111.57,-87.26"/>
</a>
</g>
</g>
<!-- Node11 -->
<g id="Node000011" class="node">
<title>Node11</title>
<g id="a_Node000011"><a xlink:href="capability_8h.html" target="_top" xlink:title="Device capability detection and snapshots using Camera API.">
<polygon fill="white" stroke="#666666" points="379.62,-200 255.62,-200 255.62,-180 379.62,-180 379.62,-200"/>
<text xml:space="preserve" text-anchor="middle" x="317.62" y="-186.5" font-family="Helvetica,sans-Serif" font-size="10.00">duvc&#45;ctl/core/capability.h</text>
</a>
</g>
</g>
<!-- Node1&#45;&gt;Node11 -->
<g id="edge11_Node000001_Node000011" class="edge">
<title>Node1&#45;&gt;Node11</title>
<g id="a_edge11_Node000001_Node000011"><a xlink:title=" ">
<path fill="none" stroke="#63b8ff" d="M373.78,-235.59C363.93,-227.77 349.69,-216.46 338.02,-207.19"/>
<polygon fill="#63b8ff" stroke="#63b8ff" points="340.53,-204.72 330.52,-201.24 336.17,-210.2 340.53,-204.72"/>
</a>
</g>
</g>
<!-- Node14 -->
<g id="Node000014" class="node">
<title>Node14</title>
<g id="a_Node000014"><a xlink:href="device_8h.html" target="_top" xlink:title="Device enumeration and management functions.">
<polygon fill="white" stroke="#666666" points="509.62,-200 397.62,-200 397.62,-180 509.62,-180 509.62,-200"/>
<text xml:space="preserve" text-anchor="middle" x="453.62" y="-186.5" font-family="Helvetica,sans-Serif" font-size="10.00">duvc&#45;ctl/core/device.h</text>
</a>
</g>
</g>
<!-- Node1&#45;&gt;Node14 -->
<g id="edge18_Node000001_Node000014" class="edge">
<title>Node1&#45;&gt;Node14</title>
<g id="a_edge18_Node000001_Node000014"><a xlink:title=" ">
<path fill="none" stroke="#63b8ff" d="M397.47,-235.59C407.32,-227.77 421.56,-216.46 433.23,-207.19"/>
<polygon fill="#63b8ff" stroke="#63b8ff" points="435.08,-210.2 440.73,-201.24 430.72,-204.72 435.08,-210.2"/>
</a>
</g>
</g>
<!-- Node16 -->
<g id="Node000016" class="node">
<title>Node16</title>
<g id="a_Node000016"><a xlink:href="logging_8h.html" target="_top" xlink:title="Structured logging interface for duvc&#45;ctl.">
<polygon fill="white" stroke="#666666" points="641.38,-200 527.88,-200 527.88,-180 641.38,-180 641.38,-200"/>
<text xml:space="preserve" text-anchor="middle" x="584.62" y="-186.5" font-family="Helvetica,sans-Serif" font-size="10.00">duvc&#45;ctl/utils/logging.h</text>
</a>
</g>
</g>
<!-- Node1&#45;&gt;Node16 -->
<g id="edge23_Node000001_Node000016" class="edge">
<title>Node1&#45;&gt;Node16</title>
<g id="a_edge23_Node000001_Node000016"><a xlink:title=" ">
<path fill="none" stroke="#63b8ff" d="M420.29,-235.59C453.19,-226.67 502.84,-213.19 538.95,-203.39"/>
<polygon fill="#63b8ff" stroke="#63b8ff" points="539.5,-206.87 548.23,-200.88 537.66,-200.12 539.5,-206.87"/>
</a>
</g>
</g>
<!-- Node17 -->
<g id="Node000017" class="node">
<title>Node17</title>
<g id="a_Node000017"><a xlink:href="string__conversion_8h.html" target="_top" xlink:title="String conversion utilities for enums and types.">
<polygon fill="white" stroke="#666666" points="737.88,-144 639.38,-144 639.38,-112 737.88,-112 737.88,-144"/>
<text xml:space="preserve" text-anchor="start" x="647.38" y="-130.5" font-family="Helvetica,sans-Serif" font-size="10.00">duvc&#45;ctl/utils/string</text>
<text xml:space="preserve" text-anchor="middle" x="688.62" y="-118.5" font-family="Helvetica,sans-Serif" font-size="10.00">_conversion.h</text>
</a>
</g>
</g>
<!-- Node1&#45;&gt;Node17 -->
<g id="edge26_Node000001_Node000017" class="edge">
<title>Node1&#45;&gt;Node17</title>
<g id="a_edge26_Node000001_Node000017"><a xlink:title=" ">
<path fill="none" stroke="#63b8ff" d="M434.49,-241.81C501.32,-236.61 616.82,-224.33 650.62,-200 665.69,-189.16 675.35,-170.46 681.16,-154.98"/>
<polygon fill="#63b8ff" stroke="#63b8ff" points="684.36,-156.46 684.25,-145.86 677.72,-154.21 684.36,-156.46"/>
</a>
</g>
</g>
<!-- Node2&#45;&gt;Node3 -->
<g id="edge2_Node000002_Node000003" class="edge">
<title>Node2&#45;&gt;Node3</title>
<g id="a_edge2_Node000002_Node000003"><a xlink:title=" ">
<path fill="none" stroke="#63b8ff" d="M165.97,-117.62C158.81,-108.86 147.92,-95.53 139.12,-84.75"/>
<polygon fill="#63b8ff" stroke="#63b8ff" points="142.06,-82.82 133.02,-77.28 136.64,-87.24 142.06,-82.82"/>
</a>
</g>
</g>
<!-- Node9 -->
<g id="Node000009" class="node">
<title>Node9</title>
<g id="a_Node000009"><a xlink:href="types_8h.html" target="_top" xlink:title="Core data types and enumerations for duvc&#45;ctl.">
<polygon fill="white" stroke="#666666" points="551.38,-76 443.88,-76 443.88,-56 551.38,-56 551.38,-76"/>
<text xml:space="preserve" text-anchor="middle" x="497.62" y="-62.5" font-family="Helvetica,sans-Serif" font-size="10.00">duvc&#45;ctl/core/types.h</text>
</a>
</g>
</g>
<!-- Node2&#45;&gt;Node9 -->
<g id="edge8_Node000002_Node000009" class="edge">
<title>Node2&#45;&gt;Node9</title>
<g id="a_edge8_Node000002_Node000009"><a xlink:title=" ">
<path fill="none" stroke="#63b8ff" d="M224.61,-117.56C281.65,-107 374.07,-89.88 435.34,-78.53"/>
<polygon fill="#63b8ff" stroke="#63b8ff" points="435.72,-82.02 444.92,-76.76 434.45,-75.14 435.72,-82.02"/>
</a>
</g>
</g>
<!-- Node10 -->
<g id="Node000010" class="node">
<title>Node10</title>
<g id="a_Node000010"><a xlink:title=" ">
<polygon fill="#e0e0e0" stroke="#999999" points="266.25,-76 215,-76 215,-56 266.25,-56 266.25,-76"/>
<text xml:space="preserve" text-anchor="middle" x="240.62" y="-62.5" font-family="Helvetica,sans-Serif" font-size="10.00">memory</text>
</a>
</g>
</g>
<!-- Node2&#45;&gt;Node10 -->
<g id="edge10_Node000002_Node000010" class="edge">
<title>Node2&#45;&gt;Node10</title>
<g id="a_edge10_Node000002_Node000010"><a xlink:title=" ">
<path fill="none" stroke="#63b8ff" d="M184.09,-117.62C194.18,-108.59 209.67,-94.72 221.89,-83.78"/>
<polygon fill="#63b8ff" stroke="#63b8ff" points="224.21,-86.4 229.32,-77.12 219.54,-81.19 224.21,-86.4"/>
</a>
</g>
</g>
<!-- Node4 -->
<g id="Node000004" class="node">
<title>Node4</title>
<g id="a_Node000004"><a xlink:title=" ">
<polygon fill="#e0e0e0" stroke="#999999" points="116.38,-20 62.88,-20 62.88,0 116.38,0 116.38,-20"/>
<text xml:space="preserve" text-anchor="middle" x="89.62" y="-6.5" font-family="Helvetica,sans-Serif" font-size="10.00">iostream</text>
</a>
</g>
</g>
<!-- Node3&#45;&gt;Node4 -->
<g id="edge3_Node000003_Node000004" class="edge">
<title>Node3&#45;&gt;Node4</title>
<g id="a_edge3_Node000003_Node000004"><a xlink:title=" ">
<path fill="none" stroke="#63b8ff" d="M118.53,-55.59C113.91,-48.47 107.42,-38.45 101.76,-29.72"/>
<polygon fill="#63b8ff" stroke="#63b8ff" points="104.85,-28.06 96.47,-21.57 98.98,-31.86 104.85,-28.06"/>
</a>
</g>
</g>
<!-- Node5 -->
<g id="Node000005" class="node">
<title>Node5</title>
<g id="a_Node000005"><a xlink:title=" ">
<polygon fill="#e0e0e0" stroke="#999999" points="184.5,-20 134.75,-20 134.75,0 184.5,0 184.5,-20"/>
<text xml:space="preserve" text-anchor="middle" x="159.62" y="-6.5" font-family="Helvetica,sans-Serif" font-size="10.00">optional</text>
</a>
</g>
</g>
<!-- Node3&#45;&gt;Node5 -->
<g id="edge4_Node000003_Node000005" class="edge">
<title>Node3&#45;&gt;Node5</title>
<g id="a_edge4_Node000003_Node000005"><a xlink:title=" ">
<path fill="none" stroke="#63b8ff" d="M130.72,-55.59C135.34,-48.47 141.83,-38.45 147.49,-29.72"/>
<polygon fill="#63b8ff" stroke="#63b8ff" points="150.27,-31.86 152.78,-21.57 144.4,-28.06 150.27,-31.86"/>
</a>
</g>
</g>
<!-- Node6 -->
<g id="Node000006" class="node">
<title>Node6</title>
<g id="a_Node000006"><a xlink:title=" ">
<polygon fill="#e0e0e0" stroke="#999999" points="574.62,-20 534.62,-20 534.62,0 574.62,0 574.62,-20"/>
<text xml:space="preserve" text-anchor="middle" x="554.62" y="-6.5" font-family="Helvetica,sans-Serif" font-size="10.00">string</text>
</a>
</g>
</g>
<!-- Node3&#45;&gt;Node6 -->
<g id="edge5_Node000003_Node000006" class="edge">
<title>Node3&#45;&gt;Node6</title>
<g id="a_edge5_Node000003_Node000006"><a xlink:title=" ">
<path fill="none" stroke="#63b8ff" d="M178.65,-58.22C269.67,-46.78 450.77,-24.04 523.41,-14.92"/>
<polygon fill="#63b8ff" stroke="#63b8ff" points="523.51,-18.43 533,-13.72 522.64,-11.49 523.51,-18.43"/>
</a>
</g>
</g>
<!-- Node7 -->
<g id="Node000007" class="node">
<title>Node7</title>
<g id="a_Node000007"><a xlink:title=" ">
<polygon fill="#e0e0e0" stroke="#999999" points="275.12,-20 202.12,-20 202.12,0 275.12,0 275.12,-20"/>
<text xml:space="preserve" text-anchor="middle" x="238.62" y="-6.5" font-family="Helvetica,sans-Serif" font-size="10.00">system_error</text>
</a>
</g>
</g>
<!-- Node3&#45;&gt;Node7 -->
<g id="edge6_Node000003_Node000007" class="edge">
<title>Node3&#45;&gt;Node7</title>
<g id="a_edge6_Node000003_Node000007"><a xlink:title=" ">
<path fill="none" stroke="#63b8ff" d="M144.48,-55.59C162.11,-47.24 188.13,-34.92 208.35,-25.34"/>
<polygon fill="#63b8ff" stroke="#63b8ff" points="209.71,-28.57 217.24,-21.13 206.71,-22.25 209.71,-28.57"/>
</a>
</g>
</g>
<!-- Node8 -->
<g id="Node000008" class="node">
<title>Node8</title>
<g id="a_Node000008"><a xlink:title=" ">
<polygon fill="#e0e0e0" stroke="#999999" points="45.25,-20 0,-20 0,0 45.25,0 45.25,-20"/>
<text xml:space="preserve" text-anchor="middle" x="22.62" y="-6.5" font-family="Helvetica,sans-Serif" font-size="10.00">variant</text>
</a>
</g>
</g>
<!-- Node3&#45;&gt;Node8 -->
<g id="edge7_Node000003_Node000008" class="edge">
<title>Node3&#45;&gt;Node8</title>
<g id="a_edge7_Node000003_Node000008"><a xlink:title=" ">
<path fill="none" stroke="#63b8ff" d="M106.86,-55.59C91.3,-47.36 68.44,-35.26 50.46,-25.74"/>
<polygon fill="#63b8ff" stroke="#63b8ff" points="52.34,-22.77 41.87,-21.19 49.07,-28.96 52.34,-22.77"/>
</a>
</g>
</g>
<!-- Node9&#45;&gt;Node6 -->
<g id="edge9_Node000009_Node000006" class="edge">
<title>Node9&#45;&gt;Node6</title>
<g id="a_edge9_Node000009_Node000006"><a xlink:title=" ">
<path fill="none" stroke="#63b8ff" d="M507.55,-55.59C515.56,-48.01 527.04,-37.13 536.66,-28.02"/>
<polygon fill="#63b8ff" stroke="#63b8ff" points="538.86,-30.76 543.71,-21.34 534.04,-25.68 538.86,-30.76"/>
</a>
</g>
</g>
<!-- Node11&#45;&gt;Node2 -->
<g id="edge12_Node000011_Node000002" class="edge">
<title>Node11&#45;&gt;Node2</title>
<g id="a_edge12_Node000011_Node000002"><a xlink:title=" ">
<path fill="none" stroke="#63b8ff" d="M295.12,-179.62C271.35,-169.72 233.61,-153.99 206.5,-142.7"/>
<polygon fill="#63b8ff" stroke="#63b8ff" points="207.94,-139.51 197.36,-138.89 205.25,-145.97 207.94,-139.51"/>
</a>
</g>
</g>
<!-- Node11&#45;&gt;Node3 -->
<g id="edge13_Node000011_Node000003" class="edge">
<title>Node11&#45;&gt;Node3</title>
<g id="a_edge13_Node000011_Node000003"><a xlink:title=" ">
<path fill="none" stroke="#63b8ff" d="M255.13,-184.22C199.81,-178.53 125.06,-166.78 106.62,-144 93.25,-127.47 102.64,-102.76 112.15,-85.82"/>
<polygon fill="#63b8ff" stroke="#63b8ff" points="114.88,-88.07 117.1,-77.71 108.91,-84.43 114.88,-88.07"/>
</a>
</g>
</g>
<!-- Node11&#45;&gt;Node9 -->
<g id="edge14_Node000011_Node000009" class="edge">
<title>Node11&#45;&gt;Node9</title>
<g id="a_edge14_Node000011_Node000009"><a xlink:title=" ">
<path fill="none" stroke="#63b8ff" d="M330.86,-179.54C343.32,-170.56 362.42,-156.61 378.62,-144 396.32,-130.23 399.12,-124.66 417.62,-112 433.87,-100.89 453.06,-90.03 468.57,-81.76"/>
<polygon fill="#63b8ff" stroke="#63b8ff" points="470.07,-84.92 477.3,-77.18 466.82,-78.73 470.07,-84.92"/>
</a>
</g>
</g>
<!-- Node11&#45;&gt;Node10 -->
<g id="edge15_Node000011_Node000010" class="edge">
<title>Node11&#45;&gt;Node10</title>
<g id="a_edge15_Node000011_Node000010"><a xlink:title=" ">
<path fill="none" stroke="#63b8ff" d="M308.18,-179.58C299.76,-170.85 287.43,-157.26 278.62,-144 266.41,-125.61 255.62,-102.74 248.68,-86.72"/>
<polygon fill="#63b8ff" stroke="#63b8ff" points="252.04,-85.68 244.94,-77.82 245.59,-88.39 252.04,-85.68"/>
</a>
</g>
</g>
<!-- Node12 -->
<g id="Node000012" class="node">
<title>Node12</title>
<g id="a_Node000012"><a xlink:title=" ">
<polygon fill="#e0e0e0" stroke="#999999" points="370,-138 287.25,-138 287.25,-118 370,-118 370,-138"/>
<text xml:space="preserve" text-anchor="middle" x="328.62" y="-124.5" font-family="Helvetica,sans-Serif" font-size="10.00">unordered_map</text>
</a>
</g>
</g>
<!-- Node11&#45;&gt;Node12 -->
<g id="edge16_Node000011_Node000012" class="edge">
<title>Node11&#45;&gt;Node12</title>
<g id="a_edge16_Node000011_Node000012"><a xlink:title=" ">
<path fill="none" stroke="#63b8ff" d="M319.34,-179.62C320.82,-171.56 323.01,-159.65 324.88,-149.41"/>
<polygon fill="#63b8ff" stroke="#63b8ff" points="328.32,-150.07 326.68,-139.6 321.44,-148.81 328.32,-150.07"/>
</a>
</g>
</g>
<!-- Node13 -->
<g id="Node000013" class="node">
<title>Node13</title>
<g id="a_Node000013"><a xlink:title=" ">
<polygon fill="#e0e0e0" stroke="#999999" points="469.12,-138 426.12,-138 426.12,-118 469.12,-118 469.12,-138"/>
<text xml:space="preserve" text-anchor="middle" x="447.62" y="-124.5" font-family="Helvetica,sans-Serif" font-size="10.00">vector</text>
</a>
</g>
</g>
<!-- Node11&#45;&gt;Node13 -->
<g id="edge17_Node000011_Node000013" class="edge">
<title>Node11&#45;&gt;Node13</title>
<g id="a_edge17_Node000011_Node000013"><a xlink:title=" ">
<path fill="none" stroke="#63b8ff" d="M337.94,-179.62C359.21,-169.81 392.87,-154.27 417.29,-143"/>
<polygon fill="#63b8ff" stroke="#63b8ff" points="418.47,-146.31 426.08,-138.94 415.53,-139.96 418.47,-146.31"/>
</a>
</g>
</g>
<!-- Node14&#45;&gt;Node9 -->
<g id="edge19_Node000014_Node000009" class="edge">
<title>Node14&#45;&gt;Node9</title>
<g id="a_edge19_Node000014_Node000009"><a xlink:title=" ">
<path fill="none" stroke="#63b8ff" d="M459.75,-179.7C465.36,-170.85 473.52,-156.98 478.62,-144 485.94,-125.39 491.07,-103.13 494.14,-87.33"/>
<polygon fill="#63b8ff" stroke="#63b8ff" points="497.54,-88.21 495.89,-77.74 490.65,-86.95 497.54,-88.21"/>
</a>
</g>
</g>
<!-- Node14&#45;&gt;Node13 -->
<g id="edge21_Node000014_Node000013" class="edge">
<title>Node14&#45;&gt;Node13</title>
<g id="a_edge21_Node000014_Node000013"><a xlink:title=" ">
<path fill="none" stroke="#63b8ff" d="M452.69,-179.62C451.88,-171.56 450.69,-159.65 449.67,-149.41"/>
<polygon fill="#63b8ff" stroke="#63b8ff" points="453.16,-149.22 448.69,-139.62 446.2,-149.92 453.16,-149.22"/>
</a>
</g>
</g>
<!-- Node15 -->
<g id="Node000015" class="node">
<title>Node15</title>
<g id="a_Node000015"><a xlink:title=" ">
<polygon fill="#e0e0e0" stroke="#999999" points="583.62,-138 525.62,-138 525.62,-118 583.62,-118 583.62,-138"/>
<text xml:space="preserve" text-anchor="middle" x="554.62" y="-124.5" font-family="Helvetica,sans-Serif" font-size="10.00">functional</text>
</a>
</g>
</g>
<!-- Node14&#45;&gt;Node15 -->
<g id="edge20_Node000014_Node000015" class="edge">
<title>Node14&#45;&gt;Node15</title>
<g id="a_edge20_Node000014_Node000015"><a xlink:title=" ">
<path fill="none" stroke="#63b8ff" d="M469.41,-179.62C485.42,-170.11 510.45,-155.24 529.25,-144.08"/>
<polygon fill="#63b8ff" stroke="#63b8ff" points="530.84,-147.2 537.65,-139.08 527.27,-141.18 530.84,-147.2"/>
</a>
</g>
</g>
<!-- Node16&#45;&gt;Node6 -->
<g id="edge25_Node000016_Node000006" class="edge">
<title>Node16&#45;&gt;Node6</title>
<g id="a_edge25_Node000016_Node000006"><a xlink:title=" ">
<path fill="none" stroke="#63b8ff" d="M586.76,-179.76C588.73,-170.7 591.52,-156.49 592.62,-144 593.87,-129.83 595.17,-125.99 592.62,-112 587.27,-82.57 573.81,-50.56 564.44,-30.64"/>
<polygon fill="#63b8ff" stroke="#63b8ff" points="567.66,-29.25 560.15,-21.78 561.36,-32.31 567.66,-29.25"/>
</a>
</g>
</g>
<!-- Node16&#45;&gt;Node15 -->
<g id="edge24_Node000016_Node000015" class="edge">
<title>Node16&#45;&gt;Node15</title>
<g id="a_edge24_Node000016_Node000015"><a xlink:title=" ">
<path fill="none" stroke="#63b8ff" d="M579.94,-179.62C575.77,-171.3 569.56,-158.86 564.33,-148.4"/>
<polygon fill="#63b8ff" stroke="#63b8ff" points="567.46,-146.85 559.86,-139.47 561.2,-149.98 567.46,-146.85"/>
</a>
</g>
</g>
<!-- Node17&#45;&gt;Node6 -->
<g id="edge28_Node000017_Node000006" class="edge">
<title>Node17&#45;&gt;Node6</title>
<g id="a_edge28_Node000017_Node000006"><a xlink:title=" ">
<path fill="none" stroke="#63b8ff" d="M677.16,-111.74C665.3,-96.55 645.71,-73.09 625.62,-56 612.34,-44.7 595.98,-34.14 582.32,-26.09"/>
<polygon fill="#63b8ff" stroke="#63b8ff" points="584.22,-23.15 573.8,-21.21 580.74,-29.22 584.22,-23.15"/>
</a>
</g>
</g>
<!-- Node17&#45;&gt;Node9 -->
<g id="edge27_Node000017_Node000009" class="edge">
<title>Node17&#45;&gt;Node9</title>
<g id="a_edge27_Node000017_Node000009"><a xlink:title=" ">
<path fill="none" stroke="#63b8ff" d="M639.44,-111.55C608.17,-101.73 568.17,-89.16 538.63,-79.88"/>
<polygon fill="#63b8ff" stroke="#63b8ff" points="539.89,-76.61 529.3,-76.95 537.79,-83.29 539.89,-76.61"/>
</a>
</g>
</g>
</g>
</svg>

<g id="navigator" transform="translate(0 0)" fill="#404254">
  <rect fill="#f2f5e9" fill-opacity="0.5" stroke="#606060" stroke-width=".5" x="0" y="0" width="60" height="60"/>
  <use id="zoomplus" xlink:href="#zoomPlus" x="17" y="9" onmousedown="handleZoom(evt,'in')"/>
  <use id="zoomminus" xlink:href="#zoomMin" x="42" y="9" onmousedown="handleZoom(evt,'out')"/>
  <use id="reset" xlink:href="#resetDef" x="30" y="36" onmousedown="handleReset()"/>
   <use id="arrowup" xlink:href="#arrowUp" x="0" y="0" onmousedown="handlePan(0,-1)"/>
  <use id="arrowright" xlink:href="#arrowRight" x="0" y="0" onmousedown="handlePan(1,0)"/>
  <use id="arrowdown" xlink:href="#arrowDown" x="0" y="0" onmousedown="handlePan(0,1)"/>
  <use id="arrowleft" xlink:href="#arrowLeft" x="0" y="0" onmousedown="handlePan(-1,0)"/>
</g>
<svg viewBox="0 0 15 15" width="100%" height="30px" preserveAspectRatio="xMaxYMin meet">
 <g id="arrow_out" transform="scale(0.3 0.3)">
  <a xlink:href="capability_8cpp__incl_org.svg" target="_base">
   <rect id="button" ry="5" rx="5" y="6" x="6" height="38" width="38"
        fill="#f2f5e9" fill-opacity="0.5" stroke="#606060" stroke-width="1.0"/>
   <path id="arrow"
     d="M 11.500037,31.436501 C 11.940474,20.09759 22.043105,11.32322 32.158766,21.979434 L 37.068811,17.246167 C 37.068811,17.246167 37.088388,32 37.088388,32 L 22.160133,31.978069 C 22.160133,31.978069 26.997745,27.140456 26.997745,27.140456 C 18.528582,18.264221 13.291696,25.230495 11.500037,31.436501 z"
     style="fill:#404040;"/>
  </a>
 </g>
</svg>

<style type='text/css'>
<![CDATA[
[data-mouse-over-selected='false'] { opacity: 0.7; }
[data-mouse-over-selected='true']  { opacity: 1.0; }
]]>
</style>
<script type="application/ecmascript"><![CDATA[
document.addEventListener('DOMContentLoaded', (event) => {
  highlightEdges();
  highlightAdjacentNodes();
});
]]></script>
</svg>
