<?xml version="1.0" encoding="UTF-8" standalone="no"?>
<!DOCTYPE svg PUBLIC "-//W3C//DTD SVG 1.1//EN"
 "http://www.w3.org/Graphics/SVG/1.1/DTD/svg11.dtd">
<!-- Generated by graphviz version 14.0.2 (20251019.1705)
 -->
<!-- Title: core/capability.h Pages: 1 -->
<svg width="252pt" height="84pt"
 viewBox="0.00 0.00 252.00 84.00" xmlns="http://www.w3.org/2000/svg" xmlns:xlink="http://www.w3.org/1999/xlink">
<g id="graph0" class="graph" transform="scale(1 1) rotate(0) translate(4 80)">
<title>core/capability.h</title>
<!-- Node1 -->
<g id="Node000001" class="node">
<title>Node1</title>
<g id="a_Node000001"><a xlink:title="Device capability detection and snapshots using Camera API.">
<polygon fill="#999999" stroke="#666666" points="165.12,-76 78.62,-76 78.62,-56 165.12,-56 165.12,-76"/>
<text xml:space="preserve" text-anchor="middle" x="121.88" y="-62.5" font-family="Helvetica,sans-Serif" font-size="10.00">core/capability.h</text>
</a>
</g>
</g>
<!-- Node2 -->
<g id="Node000002" class="node">
<title>Node2</title>
<g id="a_Node000002"><a xlink:href="api_8cpp.html" target="_top" xlink:title="Complete C ABI implementation for duvc&#45;ctl library.">
<polygon fill="white" stroke="#666666" points="55.75,-20 0,-20 0,0 55.75,0 55.75,-20"/>
<text xml:space="preserve" text-anchor="middle" x="27.88" y="-6.5" font-family="Helvetica,sans-Serif" font-size="10.00">c/api.cpp</text>
</a>
</g>
</g>
<!-- Node1&#45;&gt;Node2 -->
<g id="edge1_Node000001_Node000002" class="edge">
<title>Node1&#45;&gt;Node2</title>
<g id="a_edge1_Node000001_Node000002"><a xlink:title=" ">
<path fill="none" stroke="#63b8ff" d="M95.9,-50.08C79.43,-40.62 58.62,-28.66 44.38,-20.48"/>
<polygon fill="#63b8ff" stroke="#63b8ff" points="93.77,-52.89 104.19,-54.84 97.26,-46.82 93.77,-52.89"/>
</a>
</g>
</g>
<!-- Node3 -->
<g id="Node000003" class="node">
<title>Node3</title>
<g id="a_Node000003"><a xlink:href="capability_8cpp.html" target="_top" xlink:title="Device capability detection implementation using Camera API.">
<polygon fill="white" stroke="#666666" points="170.38,-20 73.38,-20 73.38,0 170.38,0 170.38,-20"/>
<text xml:space="preserve" text-anchor="middle" x="121.88" y="-6.5" font-family="Helvetica,sans-Serif" font-size="10.00">core/capability.cpp</text>
</a>
</g>
</g>
<!-- Node1&#45;&gt;Node3 -->
<g id="edge2_Node000001_Node000003" class="edge">
<title>Node1&#45;&gt;Node3</title>
<g id="a_edge2_Node000001_Node000003"><a xlink:title=" ">
<path fill="none" stroke="#63b8ff" d="M121.88,-44.13C121.88,-35.9 121.88,-26.85 121.88,-20.3"/>
<polygon fill="#63b8ff" stroke="#63b8ff" points="118.38,-44.08 121.88,-54.08 125.38,-44.08 118.38,-44.08"/>
</a>
</g>
</g>
<!-- Node4 -->
<g id="Node000004" class="node">
<title>Node4</title>
<g id="a_Node000004"><a xlink:href="duvc_8hpp.html" target="_top" xlink:title="Main umbrella header for duvc&#45;ctl library.">
<polygon fill="white" stroke="#666666" points="243.75,-20 188,-20 188,0 243.75,0 243.75,-20"/>
<text xml:space="preserve" text-anchor="middle" x="215.88" y="-6.5" font-family="Helvetica,sans-Serif" font-size="10.00">duvc.hpp</text>
</a>
</g>
</g>
<!-- Node1&#45;&gt;Node4 -->
<g id="edge3_Node000001_Node000004" class="edge">
<title>Node1&#45;&gt;Node4</title>
<g id="a_edge3_Node000001_Node000004"><a xlink:title=" ">
<path fill="none" stroke="#63b8ff" d="M147.85,-50.08C164.32,-40.62 185.13,-28.66 199.37,-20.48"/>
<polygon fill="#63b8ff" stroke="#63b8ff" points="146.49,-46.82 139.56,-54.84 149.98,-52.89 146.49,-46.82"/>
</a>
</g>
</g>
</g>
</svg>
