<?xml version="1.0" encoding="UTF-8" standalone="no"?>
<!DOCTYPE svg PUBLIC "-//W3C//DTD SVG 1.1//EN"
 "http://www.w3.org/Graphics/SVG/1.1/DTD/svg11.dtd">
<!-- Generated by graphviz version 14.0.2 (20251019.1705)
 -->
<!-- Title: core/capability.h Pages: 1 -->
<svg width="545pt" height="196pt"
 viewBox="0.00 0.00 545.00 196.00" xmlns="http://www.w3.org/2000/svg" xmlns:xlink="http://www.w3.org/1999/xlink">
<g id="graph0" class="graph" transform="scale(1 1) rotate(0) translate(4 192)">
<title>core/capability.h</title>
<!-- Node1 -->
<g id="Node000001" class="node">
<title>Node1</title>
<g id="a_Node000001"><a xlink:title="Device capability detection and snapshots using Camera API.">
<polygon fill="#999999" stroke="#666666" points="389.88,-188 303.38,-188 303.38,-168 389.88,-168 389.88,-188"/>
<text xml:space="preserve" text-anchor="middle" x="346.62" y="-174.5" font-family="Helvetica,sans-Serif" font-size="10.00">core/capability.h</text>
</a>
</g>
</g>
<!-- Node2 -->
<g id="Node000002" class="node">
<title>Node2</title>
<g id="a_Node000002"><a xlink:href="camera_8h.html" target="_top" xlink:title="RAII camera handle for simplified device management.">
<polygon fill="white" stroke="#666666" points="299.88,-132 243.38,-132 243.38,-112 299.88,-112 299.88,-132"/>
<text xml:space="preserve" text-anchor="middle" x="271.62" y="-118.5" font-family="Helvetica,sans-Serif" font-size="10.00">camera.h</text>
</a>
</g>
</g>
<!-- Node1&#45;&gt;Node2 -->
<g id="edge1_Node000001_Node000002" class="edge">
<title>Node1&#45;&gt;Node2</title>
<g id="a_edge1_Node000001_Node000002"><a xlink:title=" ">
<path fill="none" stroke="#63b8ff" d="M333.56,-167.59C322.66,-159.74 306.87,-148.38 293.97,-139.09"/>
<polygon fill="#63b8ff" stroke="#63b8ff" points="296.18,-136.37 286.02,-133.36 292.09,-142.05 296.18,-136.37"/>
</a>
</g>
</g>
<!-- Node3 -->
<g id="Node000003" class="node">
<title>Node3</title>
<g id="a_Node000003"><a xlink:href="result_8h.html" target="_top" xlink:title="Result/Error type system for duvc&#45;ctl.">
<polygon fill="white" stroke="#666666" points="227.38,-76 119.88,-76 119.88,-56 227.38,-56 227.38,-76"/>
<text xml:space="preserve" text-anchor="middle" x="173.62" y="-62.5" font-family="Helvetica,sans-Serif" font-size="10.00">duvc&#45;ctl/core/result.h</text>
</a>
</g>
</g>
<!-- Node1&#45;&gt;Node3 -->
<g id="edge11_Node000001_Node000003" class="edge">
<title>Node1&#45;&gt;Node3</title>
<g id="a_edge11_Node000001_Node000003"><a xlink:title=" ">
<path fill="none" stroke="#63b8ff" d="M312.39,-167.53C289.18,-160.12 258.5,-148.32 234.62,-132 215.73,-119.09 198.31,-99.4 186.97,-85.08"/>
<polygon fill="#63b8ff" stroke="#63b8ff" points="189.92,-83.18 181.06,-77.37 184.36,-87.44 189.92,-83.18"/>
</a>
</g>
</g>
<!-- Node9 -->
<g id="Node000009" class="node">
<title>Node9</title>
<g id="a_Node000009"><a xlink:href="types_8h.html" target="_top" xlink:title="Core data types and enumerations for duvc&#45;ctl.">
<polygon fill="white" stroke="#666666" points="353.38,-76 245.88,-76 245.88,-56 353.38,-56 353.38,-76"/>
<text xml:space="preserve" text-anchor="middle" x="299.62" y="-62.5" font-family="Helvetica,sans-Serif" font-size="10.00">duvc&#45;ctl/core/types.h</text>
</a>
</g>
</g>
<!-- Node1&#45;&gt;Node9 -->
<g id="edge12_Node000001_Node000009" class="edge">
<title>Node1&#45;&gt;Node9</title>
<g id="a_edge12_Node000001_Node000009"><a xlink:title=" ">
<path fill="none" stroke="#63b8ff" d="M342.62,-167.62C334.99,-149.76 318.22,-110.53 308.03,-86.67"/>
<polygon fill="#63b8ff" stroke="#63b8ff" points="311.36,-85.57 304.22,-77.75 304.93,-88.32 311.36,-85.57"/>
</a>
</g>
</g>
<!-- Node10 -->
<g id="Node000010" class="node">
<title>Node10</title>
<g id="a_Node000010"><a xlink:title=" ">
<polygon fill="#e0e0e0" stroke="#999999" points="422.25,-76 371,-76 371,-56 422.25,-56 422.25,-76"/>
<text xml:space="preserve" text-anchor="middle" x="396.62" y="-62.5" font-family="Helvetica,sans-Serif" font-size="10.00">memory</text>
</a>
</g>
</g>
<!-- Node1&#45;&gt;Node10 -->
<g id="edge13_Node000001_Node000010" class="edge">
<title>Node1&#45;&gt;Node10</title>
<g id="a_edge13_Node000001_Node000010"><a xlink:title=" ">
<path fill="none" stroke="#63b8ff" d="M350.89,-167.62C359.01,-149.76 376.84,-110.53 387.68,-86.67"/>
<polygon fill="#63b8ff" stroke="#63b8ff" points="390.79,-88.28 391.75,-77.73 384.42,-85.39 390.79,-88.28"/>
</a>
</g>
</g>
<!-- Node11 -->
<g id="Node000011" class="node">
<title>Node11</title>
<g id="a_Node000011"><a xlink:title=" ">
<polygon fill="#e0e0e0" stroke="#999999" points="476,-132 393.25,-132 393.25,-112 476,-112 476,-132"/>
<text xml:space="preserve" text-anchor="middle" x="434.62" y="-118.5" font-family="Helvetica,sans-Serif" font-size="10.00">unordered_map</text>
</a>
</g>
</g>
<!-- Node1&#45;&gt;Node11 -->
<g id="edge14_Node000001_Node000011" class="edge">
<title>Node1&#45;&gt;Node11</title>
<g id="a_edge14_Node000001_Node000011"><a xlink:title=" ">
<path fill="none" stroke="#63b8ff" d="M361.95,-167.59C375.12,-159.51 394.36,-147.71 409.73,-138.27"/>
<polygon fill="#63b8ff" stroke="#63b8ff" points="411.19,-141.48 417.89,-133.27 407.53,-135.52 411.19,-141.48"/>
</a>
</g>
</g>
<!-- Node12 -->
<g id="Node000012" class="node">
<title>Node12</title>
<g id="a_Node000012"><a xlink:title=" ">
<polygon fill="#e0e0e0" stroke="#999999" points="537.12,-132 494.12,-132 494.12,-112 537.12,-112 537.12,-132"/>
<text xml:space="preserve" text-anchor="middle" x="515.62" y="-118.5" font-family="Helvetica,sans-Serif" font-size="10.00">vector</text>
</a>
</g>
</g>
<!-- Node1&#45;&gt;Node12 -->
<g id="edge15_Node000001_Node000012" class="edge">
<title>Node1&#45;&gt;Node12</title>
<g id="a_edge15_Node000001_Node000012"><a xlink:title=" ">
<path fill="none" stroke="#63b8ff" d="M376.06,-167.59C405.96,-158.04 452.15,-143.28 483.12,-133.39"/>
<polygon fill="#63b8ff" stroke="#63b8ff" points="483.87,-136.82 492.33,-130.44 481.74,-130.15 483.87,-136.82"/>
</a>
</g>
</g>
<!-- Node2&#45;&gt;Node3 -->
<g id="edge2_Node000002_Node000003" class="edge">
<title>Node2&#45;&gt;Node3</title>
<g id="a_edge2_Node000002_Node000003"><a xlink:title=" ">
<path fill="none" stroke="#63b8ff" d="M254.55,-111.59C239.75,-103.44 218.06,-91.48 200.86,-82"/>
<polygon fill="#63b8ff" stroke="#63b8ff" points="202.6,-78.97 192.15,-77.21 199.22,-85.1 202.6,-78.97"/>
</a>
</g>
</g>
<!-- Node2&#45;&gt;Node9 -->
<g id="edge8_Node000002_Node000009" class="edge">
<title>Node2&#45;&gt;Node9</title>
<g id="a_edge8_Node000002_Node000009"><a xlink:title=" ">
<path fill="none" stroke="#63b8ff" d="M276.5,-111.59C280.12,-104.63 285.17,-94.89 289.62,-86.29"/>
<polygon fill="#63b8ff" stroke="#63b8ff" points="292.61,-88.13 294.11,-77.64 286.4,-84.91 292.61,-88.13"/>
</a>
</g>
</g>
<!-- Node2&#45;&gt;Node10 -->
<g id="edge10_Node000002_Node000010" class="edge">
<title>Node2&#45;&gt;Node10</title>
<g id="a_edge10_Node000002_Node000010"><a xlink:title=" ">
<path fill="none" stroke="#63b8ff" d="M293.4,-111.59C312.99,-103.13 342.05,-90.58 364.35,-80.94"/>
<polygon fill="#63b8ff" stroke="#63b8ff" points="365.5,-84.26 373.29,-77.08 362.72,-77.83 365.5,-84.26"/>
</a>
</g>
</g>
<!-- Node4 -->
<g id="Node000004" class="node">
<title>Node4</title>
<g id="a_Node000004"><a xlink:title=" ">
<polygon fill="#e0e0e0" stroke="#999999" points="116.38,-20 62.88,-20 62.88,0 116.38,0 116.38,-20"/>
<text xml:space="preserve" text-anchor="middle" x="89.62" y="-6.5" font-family="Helvetica,sans-Serif" font-size="10.00">iostream</text>
</a>
</g>
</g>
<!-- Node3&#45;&gt;Node4 -->
<g id="edge3_Node000003_Node000004" class="edge">
<title>Node3&#45;&gt;Node4</title>
<g id="a_edge3_Node000003_Node000004"><a xlink:title=" ">
<path fill="none" stroke="#63b8ff" d="M158.99,-55.59C146.54,-47.59 128.41,-35.93 113.8,-26.54"/>
<polygon fill="#63b8ff" stroke="#63b8ff" points="115.95,-23.76 105.64,-21.3 112.16,-29.65 115.95,-23.76"/>
</a>
</g>
</g>
<!-- Node5 -->
<g id="Node000005" class="node">
<title>Node5</title>
<g id="a_Node000005"><a xlink:title=" ">
<polygon fill="#e0e0e0" stroke="#999999" points="184.5,-20 134.75,-20 134.75,0 184.5,0 184.5,-20"/>
<text xml:space="preserve" text-anchor="middle" x="159.62" y="-6.5" font-family="Helvetica,sans-Serif" font-size="10.00">optional</text>
</a>
</g>
</g>
<!-- Node3&#45;&gt;Node5 -->
<g id="edge4_Node000003_Node000005" class="edge">
<title>Node3&#45;&gt;Node5</title>
<g id="a_edge4_Node000003_Node000005"><a xlink:title=" ">
<path fill="none" stroke="#63b8ff" d="M171.19,-55.59C169.46,-48.93 167.08,-39.75 164.92,-31.44"/>
<polygon fill="#63b8ff" stroke="#63b8ff" points="168.31,-30.56 162.42,-21.76 161.54,-32.32 168.31,-30.56"/>
</a>
</g>
</g>
<!-- Node6 -->
<g id="Node000006" class="node">
<title>Node6</title>
<g id="a_Node000006"><a xlink:title=" ">
<polygon fill="#e0e0e0" stroke="#999999" points="333.62,-20 293.62,-20 293.62,0 333.62,0 333.62,-20"/>
<text xml:space="preserve" text-anchor="middle" x="313.62" y="-6.5" font-family="Helvetica,sans-Serif" font-size="10.00">string</text>
</a>
</g>
</g>
<!-- Node3&#45;&gt;Node6 -->
<g id="edge5_Node000003_Node000006" class="edge">
<title>Node3&#45;&gt;Node6</title>
<g id="a_edge5_Node000003_Node000006"><a xlink:title=" ">
<path fill="none" stroke="#63b8ff" d="M198.01,-55.59C221.49,-46.54 257.09,-32.81 282.58,-22.98"/>
<polygon fill="#63b8ff" stroke="#63b8ff" points="283.67,-26.3 291.74,-19.44 281.15,-19.77 283.67,-26.3"/>
</a>
</g>
</g>
<!-- Node7 -->
<g id="Node000007" class="node">
<title>Node7</title>
<g id="a_Node000007"><a xlink:title=" ">
<polygon fill="#e0e0e0" stroke="#999999" points="275.12,-20 202.12,-20 202.12,0 275.12,0 275.12,-20"/>
<text xml:space="preserve" text-anchor="middle" x="238.62" y="-6.5" font-family="Helvetica,sans-Serif" font-size="10.00">system_error</text>
</a>
</g>
</g>
<!-- Node3&#45;&gt;Node7 -->
<g id="edge6_Node000003_Node000007" class="edge">
<title>Node3&#45;&gt;Node7</title>
<g id="a_edge6_Node000003_Node000007"><a xlink:title=" ">
<path fill="none" stroke="#63b8ff" d="M184.95,-55.59C194.27,-47.85 207.7,-36.69 218.8,-27.47"/>
<polygon fill="#63b8ff" stroke="#63b8ff" points="220.81,-30.35 226.27,-21.27 216.34,-24.96 220.81,-30.35"/>
</a>
</g>
</g>
<!-- Node8 -->
<g id="Node000008" class="node">
<title>Node8</title>
<g id="a_Node000008"><a xlink:title=" ">
<polygon fill="#e0e0e0" stroke="#999999" points="45.25,-20 0,-20 0,0 45.25,0 45.25,-20"/>
<text xml:space="preserve" text-anchor="middle" x="22.62" y="-6.5" font-family="Helvetica,sans-Serif" font-size="10.00">variant</text>
</a>
</g>
</g>
<!-- Node3&#45;&gt;Node8 -->
<g id="edge7_Node000003_Node000008" class="edge">
<title>Node3&#45;&gt;Node8</title>
<g id="a_edge7_Node000003_Node000008"><a xlink:title=" ">
<path fill="none" stroke="#63b8ff" d="M147.32,-55.59C122.07,-46.56 83.82,-32.88 56.34,-23.06"/>
<polygon fill="#63b8ff" stroke="#63b8ff" points="57.68,-19.82 47.09,-19.75 55.32,-26.41 57.68,-19.82"/>
</a>
</g>
</g>
<!-- Node9&#45;&gt;Node6 -->
<g id="edge9_Node000009_Node000006" class="edge">
<title>Node9&#45;&gt;Node6</title>
<g id="a_edge9_Node000009_Node000006"><a xlink:title=" ">
<path fill="none" stroke="#63b8ff" d="M302.06,-55.59C303.79,-48.93 306.17,-39.75 308.33,-31.44"/>
<polygon fill="#63b8ff" stroke="#63b8ff" points="311.71,-32.32 310.83,-21.76 304.94,-30.56 311.71,-32.32"/>
</a>
</g>
</g>
</g>
</svg>
