<?xml version="1.0" encoding="UTF-8" standalone="no"?>
<!DOCTYPE svg PUBLIC "-//W3C//DTD SVG 1.1//EN"
 "http://www.w3.org/Graphics/SVG/1.1/DTD/svg11.dtd">
<!-- Generated by graphviz version 14.0.2 (20251019.1705)
 -->
<!-- Title: duvc::DeviceConnection::get Pages: 1 -->
<svg width="309pt" height="104pt"
 viewBox="0.00 0.00 309.00 104.00" xmlns="http://www.w3.org/2000/svg" xmlns:xlink="http://www.w3.org/1999/xlink">
<g id="graph0" class="graph" transform="scale(1 1) rotate(0) translate(4 100)">
<title>duvc::DeviceConnection::get</title>
<!-- Node1 -->
<g id="Node000001" class="node">
<title>Node1</title>
<g id="a_Node000001"><a xlink:title=" ">
<polygon fill="#999999" stroke="#666666" points="142.75,-58 0,-58 0,-38 142.75,-38 142.75,-58"/>
<text xml:space="preserve" text-anchor="middle" x="71.38" y="-44.5" font-family="Helvetica,sans-Serif" font-size="10.00">duvc::DeviceConnection::get</text>
</a>
</g>
</g>
<!-- Node2 -->
<g id="Node000002" class="node">
<title>Node2</title>
<g id="a_Node000002"><a xlink:href="namespaceduvc.html#aee4337c96c223e1892b35dbca2f41806" target="_top" xlink:title=" ">
<polygon fill="white" stroke="#666666" points="281.38,-96 197.88,-96 197.88,-76 281.38,-76 281.38,-96"/>
<text xml:space="preserve" text-anchor="middle" x="239.62" y="-82.5" font-family="Helvetica,sans-Serif" font-size="10.00">duvc::from_flag</text>
</a>
</g>
</g>
<!-- Node1&#45;&gt;Node2 -->
<g id="edge1_Node000001_Node000002" class="edge">
<title>Node1&#45;&gt;Node2</title>
<g id="a_edge1_Node000001_Node000002"><a xlink:title=" ">
<path fill="none" stroke="#63b8ff" d="M118.24,-58.48C139.36,-63.31 164.52,-69.06 186.37,-74.05"/>
<polygon fill="#63b8ff" stroke="#63b8ff" points="185.44,-77.43 195.97,-76.25 187,-70.61 185.44,-77.43"/>
</a>
</g>
</g>
<!-- Node3 -->
<g id="Node000003" class="node">
<title>Node3</title>
<g id="a_Node000003"><a xlink:href="classduvc_1_1Result.html#a260a000aca87d38c8f9f22ad80804691" target="_top" xlink:title="Get the value (assumes success)">
<polygon fill="white" stroke="#666666" points="290,-58 189.25,-58 189.25,-38 290,-38 290,-58"/>
<text xml:space="preserve" text-anchor="middle" x="239.62" y="-44.5" font-family="Helvetica,sans-Serif" font-size="10.00">duvc::Result::value</text>
</a>
</g>
</g>
<!-- Node1&#45;&gt;Node3 -->
<g id="edge2_Node000001_Node000003" class="edge">
<title>Node1&#45;&gt;Node3</title>
<g id="a_edge2_Node000001_Node000003"><a xlink:title=" ">
<path fill="none" stroke="#63b8ff" d="M142.88,-48C154.56,-48 166.58,-48 177.99,-48"/>
<polygon fill="#63b8ff" stroke="#63b8ff" points="177.65,-51.5 187.65,-48 177.65,-44.5 177.65,-51.5"/>
</a>
</g>
</g>
<!-- Node4 -->
<g id="Node000004" class="node">
<title>Node4</title>
<g id="a_Node000004"><a xlink:href="namespaceduvc.html#afdc705db540dbc9d018845ae7ddc761a" target="_top" xlink:title=" ">
<polygon fill="white" stroke="#666666" points="300.5,-20 178.75,-20 178.75,0 300.5,0 300.5,-20"/>
<text xml:space="preserve" text-anchor="middle" x="239.62" y="-6.5" font-family="Helvetica,sans-Serif" font-size="10.00">duvc::vidprop_to_dshow</text>
</a>
</g>
</g>
<!-- Node1&#45;&gt;Node4 -->
<g id="edge3_Node000001_Node000004" class="edge">
<title>Node1&#45;&gt;Node4</title>
<g id="a_edge3_Node000001_Node000004"><a xlink:title=" ">
<path fill="none" stroke="#63b8ff" d="M118.24,-37.52C137.87,-33.03 160.99,-27.75 181.69,-23.01"/>
<polygon fill="#63b8ff" stroke="#63b8ff" points="182.46,-26.43 191.43,-20.79 180.9,-19.6 182.46,-26.43"/>
</a>
</g>
</g>
</g>
</svg>
