<?xml version="1.0" encoding="UTF-8" standalone="no"?>
<!DOCTYPE svg PUBLIC "-//W3C//DTD SVG 1.1//EN"
 "http://www.w3.org/Graphics/SVG/1.1/DTD/svg11.dtd">
<!-- Generated by graphviz version 14.0.2 (20251019.1705)
 -->
<!-- Title: duvc::Result::is_ok Pages: 1 -->
<svg width="424pt" height="551pt"
 viewBox="0.00 0.00 424.00 551.00" xmlns="http://www.w3.org/2000/svg" xmlns:xlink="http://www.w3.org/1999/xlink">
<g id="graph0" class="graph" transform="scale(1 1) rotate(0) translate(4 547)">
<title>duvc::Result::is_ok</title>
<!-- Node1 -->
<g id="Node000001" class="node">
<title>Node1</title>
<g id="a_Node000001"><a xlink:title="Check if result contains a value (success)">
<polygon fill="#999999" stroke="#666666" points="415.5,-272 314.75,-272 314.75,-252 415.5,-252 415.5,-272"/>
<text xml:space="preserve" text-anchor="middle" x="365.12" y="-258.5" font-family="Helvetica,sans-Serif" font-size="10.00">duvc::Result::is_ok</text>
</a>
</g>
</g>
<!-- Node2 -->
<g id="Node000002" class="node">
<title>Node2</title>
<g id="a_Node000002"><a xlink:href="group__quickapi.html#ga03a46d69b1f9bc18596e1085b5161ef0" target="_top" xlink:title="Get a camera control property value.">
<polygon fill="white" stroke="#666666" points="240.12,-524 183.62,-524 183.62,-504 240.12,-504 240.12,-524"/>
<text xml:space="preserve" text-anchor="middle" x="211.88" y="-510.5" font-family="Helvetica,sans-Serif" font-size="10.00">duvc::get</text>
</a>
</g>
</g>
<!-- Node1&#45;&gt;Node2 -->
<g id="edge1_Node000001_Node000002" class="edge">
<title>Node1&#45;&gt;Node2</title>
<g id="a_edge1_Node000001_Node000002"><a xlink:title=" ">
<path fill="none" stroke="#63b8ff" d="M362.57,-283.56C358.09,-329.34 341.13,-436.86 278.75,-495 268.39,-504.66 253.43,-509.44 240.38,-511.8"/>
<polygon fill="#63b8ff" stroke="#63b8ff" points="366.05,-283.91 363.42,-273.65 359.08,-283.31 366.05,-283.91"/>
</a>
</g>
</g>
<!-- Node5 -->
<g id="Node000005" class="node">
<title>Node5</title>
<g id="a_Node000005"><a xlink:href="group__quickapi.html#gabe50c1b736f2782a0019091d6ddab5c6" target="_top" xlink:title="Get a video processing property value.">
<polygon fill="white" stroke="#666666" points="240.12,-486 183.62,-486 183.62,-466 240.12,-466 240.12,-486"/>
<text xml:space="preserve" text-anchor="middle" x="211.88" y="-472.5" font-family="Helvetica,sans-Serif" font-size="10.00">duvc::get</text>
</a>
</g>
</g>
<!-- Node1&#45;&gt;Node5 -->
<g id="edge4_Node000001_Node000005" class="edge">
<title>Node1&#45;&gt;Node5</title>
<g id="a_edge4_Node000001_Node000005"><a xlink:title=" ">
<path fill="none" stroke="#63b8ff" d="M360.82,-283.58C353.5,-323.75 332.18,-410.19 278.75,-457 268.19,-466.26 253.36,-471.02 240.45,-473.46"/>
<polygon fill="#63b8ff" stroke="#63b8ff" points="364.26,-284.2 362.47,-273.76 357.36,-283.04 364.26,-284.2"/>
</a>
</g>
</g>
<!-- Node6 -->
<g id="Node000006" class="node">
<title>Node6</title>
<g id="a_Node000006"><a xlink:href="namespaceduvc_1_1logitech.html#a4f494bd801c993f6d3c46b3c37a4b72e" target="_top" xlink:title="Get typed Logitech property value.">
<polygon fill="white" stroke="#666666" points="274.25,-448 149.5,-448 149.5,-416 274.25,-416 274.25,-448"/>
<text xml:space="preserve" text-anchor="start" x="157.5" y="-434.5" font-family="Helvetica,sans-Serif" font-size="10.00">duvc::logitech::get</text>
<text xml:space="preserve" text-anchor="middle" x="211.88" y="-422.5" font-family="Helvetica,sans-Serif" font-size="10.00">_logitech_property_typed</text>
</a>
</g>
</g>
<!-- Node1&#45;&gt;Node6 -->
<g id="edge5_Node000001_Node000006" class="edge">
<title>Node1&#45;&gt;Node6</title>
<g id="a_edge5_Node000001_Node000006"><a xlink:title=" ">
<path fill="none" stroke="#63b8ff" d="M356.99,-282.86C345.33,-314.04 319.34,-372.76 278.75,-407 274.92,-410.23 270.62,-413.07 266.11,-415.56"/>
<polygon fill="#63b8ff" stroke="#63b8ff" points="360.16,-284.39 360.25,-273.8 353.57,-282.03 360.16,-284.39"/>
</a>
</g>
</g>
<!-- Node7 -->
<g id="Node000007" class="node">
<title>Node7</title>
<g id="a_Node000007"><a xlink:href="classduvc_1_1KsPropertySet.html#a21e491235b83bacb4fd55e96d2b603f6" target="_top" xlink:title="Get typed property value.">
<polygon fill="white" stroke="#666666" points="265.25,-398 158.5,-398 158.5,-366 265.25,-366 265.25,-398"/>
<text xml:space="preserve" text-anchor="start" x="166.5" y="-384.5" font-family="Helvetica,sans-Serif" font-size="10.00">duvc::KsPropertySet</text>
<text xml:space="preserve" text-anchor="middle" x="211.88" y="-372.5" font-family="Helvetica,sans-Serif" font-size="10.00">::get_property_typed</text>
</a>
</g>
</g>
<!-- Node1&#45;&gt;Node7 -->
<g id="edge6_Node000001_Node000007" class="edge">
<title>Node1&#45;&gt;Node7</title>
<g id="a_edge6_Node000001_Node000007"><a xlink:title=" ">
<path fill="none" stroke="#63b8ff" d="M350.87,-281.64C335.67,-302.83 308.93,-336.32 278.75,-357 274.11,-360.18 269.01,-363.03 263.76,-365.55"/>
<polygon fill="#63b8ff" stroke="#63b8ff" points="353.65,-283.78 356.5,-273.57 347.91,-279.77 353.65,-283.78"/>
</a>
</g>
</g>
<!-- Node8 -->
<g id="Node000008" class="node">
<title>Node8</title>
<g id="a_Node000008"><a xlink:href="group__quickapi.html#gaf73ccab11e1e8cb1a7311ad6e5d59f61" target="_top" xlink:title="Get the valid range for a camera control property.">
<polygon fill="white" stroke="#666666" points="254.75,-348 169,-348 169,-328 254.75,-328 254.75,-348"/>
<text xml:space="preserve" text-anchor="middle" x="211.88" y="-334.5" font-family="Helvetica,sans-Serif" font-size="10.00">duvc::get_range</text>
</a>
</g>
</g>
<!-- Node1&#45;&gt;Node8 -->
<g id="edge7_Node000001_Node000008" class="edge">
<title>Node1&#45;&gt;Node8</title>
<g id="a_edge7_Node000001_Node000008"><a xlink:title=" ">
<path fill="none" stroke="#63b8ff" d="M342.4,-279.25C325.78,-291.75 301.86,-308.27 278.75,-319 271.3,-322.46 263.08,-325.43 255.05,-327.93"/>
<polygon fill="#63b8ff" stroke="#63b8ff" points="344.28,-282.22 350.08,-273.36 340.02,-276.67 344.28,-282.22"/>
</a>
</g>
</g>
<!-- Node11 -->
<g id="Node000011" class="node">
<title>Node11</title>
<g id="a_Node000011"><a xlink:href="group__quickapi.html#gaad1b7b0ffab91ab840285893caecdf48" target="_top" xlink:title="Get the valid range for a video processing property.">
<polygon fill="white" stroke="#666666" points="254.75,-310 169,-310 169,-290 254.75,-290 254.75,-310"/>
<text xml:space="preserve" text-anchor="middle" x="211.88" y="-296.5" font-family="Helvetica,sans-Serif" font-size="10.00">duvc::get_range</text>
</a>
</g>
</g>
<!-- Node1&#45;&gt;Node11 -->
<g id="edge10_Node000001_Node000011" class="edge">
<title>Node1&#45;&gt;Node11</title>
<g id="a_edge10_Node000001_Node000011"><a xlink:title=" ">
<path fill="none" stroke="#63b8ff" d="M311.4,-275.25C292.75,-279.93 272.06,-285.13 254.47,-289.55"/>
<polygon fill="#63b8ff" stroke="#63b8ff" points="312.08,-278.68 320.93,-272.85 310.38,-271.9 312.08,-278.68"/>
</a>
</g>
</g>
<!-- Node12 -->
<g id="Node000012" class="node">
<title>Node12</title>
<g id="a_Node000012"><a xlink:href="classduvc_1_1Result.html#af37bf1e32965f9d913fe04b2faa38f08" target="_top" xlink:title="Boolean conversion (true if success)">
<polygon fill="white" stroke="#666666" points="278.75,-272 145,-272 145,-252 278.75,-252 278.75,-272"/>
<text xml:space="preserve" text-anchor="middle" x="211.88" y="-258.5" font-family="Helvetica,sans-Serif" font-size="10.00">duvc::Result::operator bool</text>
</a>
</g>
</g>
<!-- Node1&#45;&gt;Node12 -->
<g id="edge11_Node000001_Node000012" class="edge">
<title>Node1&#45;&gt;Node12</title>
<g id="a_edge11_Node000001_Node000012"><a xlink:title=" ">
<path fill="none" stroke="#63b8ff" d="M303.16,-262C295.21,-262 287.04,-262 279.01,-262"/>
<polygon fill="#63b8ff" stroke="#63b8ff" points="303.09,-265.5 313.09,-262 303.09,-258.5 303.09,-265.5"/>
</a>
</g>
</g>
<!-- Node13 -->
<g id="Node000013" class="node">
<title>Node13</title>
<g id="a_Node000013"><a xlink:href="classduvc_1_1Result_3_01void_01_4.html#ac30b210ef1bda811127b760636a24736" target="_top" xlink:title="Boolean conversion (true if success)">
<polygon fill="white" stroke="#666666" points="261.12,-234 162.62,-234 162.62,-202 261.12,-202 261.12,-234"/>
<text xml:space="preserve" text-anchor="start" x="170.62" y="-220.5" font-family="Helvetica,sans-Serif" font-size="10.00">duvc::Result&lt; void</text>
<text xml:space="preserve" text-anchor="middle" x="211.88" y="-208.5" font-family="Helvetica,sans-Serif" font-size="10.00"> &gt;::operator bool</text>
</a>
</g>
</g>
<!-- Node1&#45;&gt;Node13 -->
<g id="edge12_Node000001_Node000013" class="edge">
<title>Node1&#45;&gt;Node13</title>
<g id="a_edge12_Node000001_Node000013"><a xlink:title=" ">
<path fill="none" stroke="#63b8ff" d="M317.35,-248.39C299.66,-243.25 279.49,-237.38 261.62,-232.18"/>
<polygon fill="#63b8ff" stroke="#63b8ff" points="316.25,-251.72 326.83,-251.15 318.2,-245 316.25,-251.72"/>
</a>
</g>
</g>
<!-- Node14 -->
<g id="Node000014" class="node">
<title>Node14</title>
<g id="a_Node000014"><a xlink:href="group__quickapi.html#ga686ce12eeefaa6c520c8b4506b4c2bc9" target="_top" xlink:title="Set a camera control property value.">
<polygon fill="white" stroke="#666666" points="240.12,-184 183.62,-184 183.62,-164 240.12,-164 240.12,-184"/>
<text xml:space="preserve" text-anchor="middle" x="211.88" y="-170.5" font-family="Helvetica,sans-Serif" font-size="10.00">duvc::set</text>
</a>
</g>
</g>
<!-- Node1&#45;&gt;Node14 -->
<g id="edge13_Node000001_Node000014" class="edge">
<title>Node1&#45;&gt;Node14</title>
<g id="a_edge13_Node000001_Node000014"><a xlink:title=" ">
<path fill="none" stroke="#63b8ff" d="M345.98,-243.68C329.68,-228.16 304.42,-206.37 278.75,-193 266.82,-186.79 252.59,-182.36 240.41,-179.35"/>
<polygon fill="#63b8ff" stroke="#63b8ff" points="343.38,-246.03 352.98,-250.5 348.26,-241.01 343.38,-246.03"/>
</a>
</g>
</g>
<!-- Node17 -->
<g id="Node000017" class="node">
<title>Node17</title>
<g id="a_Node000017"><a xlink:href="group__quickapi.html#gab6b367552e5f3955cfeb1b5a054764d0" target="_top" xlink:title="Set a video processing property value.">
<polygon fill="white" stroke="#666666" points="240.12,-146 183.62,-146 183.62,-126 240.12,-126 240.12,-146"/>
<text xml:space="preserve" text-anchor="middle" x="211.88" y="-132.5" font-family="Helvetica,sans-Serif" font-size="10.00">duvc::set</text>
</a>
</g>
</g>
<!-- Node1&#45;&gt;Node17 -->
<g id="edge16_Node000001_Node000017" class="edge">
<title>Node1&#45;&gt;Node17</title>
<g id="a_edge16_Node000001_Node000017"><a xlink:title=" ">
<path fill="none" stroke="#63b8ff" d="M353.27,-241.84C339.23,-217.66 312.51,-177.56 278.75,-155 267.37,-147.39 252.92,-142.79 240.46,-140.02"/>
<polygon fill="#63b8ff" stroke="#63b8ff" points="350.13,-243.39 358.07,-250.39 356.23,-239.96 350.13,-243.39"/>
</a>
</g>
</g>
<!-- Node18 -->
<g id="Node000018" class="node">
<title>Node18</title>
<g id="a_Node000018"><a xlink:href="namespaceduvc_1_1logitech.html#a376caa27f086fe3d1ede2c24201ab9f3" target="_top" xlink:title="Check if device supports Logitech vendor properties.">
<polygon fill="white" stroke="#666666" points="272,-108 151.75,-108 151.75,-76 272,-76 272,-108"/>
<text xml:space="preserve" text-anchor="start" x="159.75" y="-94.5" font-family="Helvetica,sans-Serif" font-size="10.00">duvc::logitech::supports</text>
<text xml:space="preserve" text-anchor="middle" x="211.88" y="-82.5" font-family="Helvetica,sans-Serif" font-size="10.00">_logitech_properties</text>
</a>
</g>
</g>
<!-- Node1&#45;&gt;Node18 -->
<g id="edge17_Node000001_Node000018" class="edge">
<title>Node1&#45;&gt;Node18</title>
<g id="a_edge17_Node000001_Node000018"><a xlink:title=" ">
<path fill="none" stroke="#63b8ff" d="M356.99,-241.14C345.33,-209.96 319.34,-151.24 278.75,-117 274.92,-113.77 270.62,-110.93 266.11,-108.44"/>
<polygon fill="#63b8ff" stroke="#63b8ff" points="353.57,-241.97 360.25,-250.2 360.16,-239.61 353.57,-241.97"/>
</a>
</g>
</g>
<!-- Node19 -->
<g id="Node000019" class="node">
<title>Node19</title>
<g id="a_Node000019"><a xlink:href="classduvc_1_1Result.html#a304ed12ed59a1cc9c4f66ab5f71adff1" target="_top" xlink:title="Get value or default if error.">
<polygon fill="white" stroke="#666666" points="269,-58 154.75,-58 154.75,-38 269,-38 269,-58"/>
<text xml:space="preserve" text-anchor="middle" x="211.88" y="-44.5" font-family="Helvetica,sans-Serif" font-size="10.00">duvc::Result::value_or</text>
</a>
</g>
</g>
<!-- Node1&#45;&gt;Node19 -->
<g id="edge18_Node000001_Node000019" class="edge">
<title>Node1&#45;&gt;Node19</title>
<g id="a_edge18_Node000001_Node000019"><a xlink:title=" ">
<path fill="none" stroke="#63b8ff" d="M360.82,-240.42C353.5,-200.25 332.18,-113.81 278.75,-67 274.81,-63.55 270.28,-60.72 265.48,-58.41"/>
<polygon fill="#63b8ff" stroke="#63b8ff" points="357.36,-240.96 362.47,-250.24 364.26,-239.8 357.36,-240.96"/>
</a>
</g>
</g>
<!-- Node20 -->
<g id="Node000020" class="node">
<title>Node20</title>
<g id="a_Node000020"><a xlink:href="classduvc_1_1Result.html#aec1adca42af9304ee0d6d2327a73083f" target="_top" xlink:title="Get value or default if error.">
<polygon fill="white" stroke="#666666" points="269,-20 154.75,-20 154.75,0 269,0 269,-20"/>
<text xml:space="preserve" text-anchor="middle" x="211.88" y="-6.5" font-family="Helvetica,sans-Serif" font-size="10.00">duvc::Result::value_or</text>
</a>
</g>
</g>
<!-- Node1&#45;&gt;Node20 -->
<g id="edge19_Node000001_Node000020" class="edge">
<title>Node1&#45;&gt;Node20</title>
<g id="a_edge19_Node000001_Node000020"><a xlink:title=" ">
<path fill="none" stroke="#63b8ff" d="M362.57,-240.44C358.09,-194.66 341.13,-87.14 278.75,-29 275.09,-25.59 270.86,-22.79 266.35,-20.49"/>
<polygon fill="#63b8ff" stroke="#63b8ff" points="359.08,-240.69 363.42,-250.35 366.05,-240.09 359.08,-240.69"/>
</a>
</g>
</g>
<!-- Node3 -->
<g id="Node000003" class="node">
<title>Node3</title>
<g id="a_Node000003"><a xlink:href="bindings_8cpp.html#a2eeaa75b5bece22f8ece44907ed9f569" target="_top" xlink:title=" ">
<polygon fill="white" stroke="#666666" points="94.38,-543 14.62,-543 14.62,-523 94.38,-523 94.38,-543"/>
<text xml:space="preserve" text-anchor="middle" x="54.5" y="-529.5" font-family="Helvetica,sans-Serif" font-size="10.00">duvc_cam_get</text>
</a>
</g>
</g>
<!-- Node2&#45;&gt;Node3 -->
<g id="edge2_Node000002_Node000003" class="edge">
<title>Node2&#45;&gt;Node3</title>
<g id="a_edge2_Node000002_Node000003"><a xlink:title=" ">
<path fill="none" stroke="#63b8ff" d="M172.09,-518.74C148.43,-521.64 118.3,-525.32 94.6,-528.22"/>
<polygon fill="#63b8ff" stroke="#63b8ff" points="172.45,-522.22 181.95,-517.54 171.6,-515.28 172.45,-522.22"/>
</a>
</g>
</g>
<!-- Node4 -->
<g id="Node000004" class="node">
<title>Node4</title>
<g id="a_Node000004"><a xlink:href="bindings_8cpp.html#a2ef0f3ef211dffa60691ec69734cb8ba" target="_top" xlink:title=" ">
<polygon fill="white" stroke="#666666" points="91.38,-505 17.62,-505 17.62,-485 91.38,-485 91.38,-505"/>
<text xml:space="preserve" text-anchor="middle" x="54.5" y="-491.5" font-family="Helvetica,sans-Serif" font-size="10.00">duvc_vid_get</text>
</a>
</g>
</g>
<!-- Node2&#45;&gt;Node4 -->
<g id="edge3_Node000002_Node000004" class="edge">
<title>Node2&#45;&gt;Node4</title>
<g id="a_edge3_Node000002_Node000004"><a xlink:title=" ">
<path fill="none" stroke="#63b8ff" d="M172.33,-509.29C147.67,-506.27 115.88,-502.38 91.69,-499.43"/>
<polygon fill="#63b8ff" stroke="#63b8ff" points="171.6,-512.72 181.95,-510.46 172.45,-505.78 171.6,-512.72"/>
</a>
</g>
</g>
<!-- Node9 -->
<g id="Node000009" class="node">
<title>Node9</title>
<g id="a_Node000009"><a xlink:href="bindings_8cpp.html#a7e5b8b6d1b9f093497e11e827ee56004" target="_top" xlink:title=" ">
<polygon fill="white" stroke="#666666" points="109,-367 0,-367 0,-347 109,-347 109,-367"/>
<text xml:space="preserve" text-anchor="middle" x="54.5" y="-353.5" font-family="Helvetica,sans-Serif" font-size="10.00">duvc_cam_get_range</text>
</a>
</g>
</g>
<!-- Node8&#45;&gt;Node9 -->
<g id="edge8_Node000008_Node000009" class="edge">
<title>Node8&#45;&gt;Node9</title>
<g id="a_edge8_Node000008_Node000009"><a xlink:title=" ">
<path fill="none" stroke="#63b8ff" d="M157.74,-344.5C142.1,-346.41 124.97,-348.5 109.29,-350.42"/>
<polygon fill="#63b8ff" stroke="#63b8ff" points="157.82,-348.01 167.33,-343.33 156.98,-341.07 157.82,-348.01"/>
</a>
</g>
</g>
<!-- Node10 -->
<g id="Node000010" class="node">
<title>Node10</title>
<g id="a_Node000010"><a xlink:href="bindings_8cpp.html#afeb5120c76b876c78b2d47af23770647" target="_top" xlink:title=" ">
<polygon fill="white" stroke="#666666" points="106,-329 3,-329 3,-309 106,-309 106,-329"/>
<text xml:space="preserve" text-anchor="middle" x="54.5" y="-315.5" font-family="Helvetica,sans-Serif" font-size="10.00">duvc_vid_get_range</text>
</a>
</g>
</g>
<!-- Node8&#45;&gt;Node10 -->
<g id="edge9_Node000008_Node000010" class="edge">
<title>Node8&#45;&gt;Node10</title>
<g id="a_edge9_Node000008_Node000010"><a xlink:title=" ">
<path fill="none" stroke="#63b8ff" d="M157.66,-331.49C141.08,-329.47 122.85,-327.24 106.44,-325.23"/>
<polygon fill="#63b8ff" stroke="#63b8ff" points="156.98,-334.93 167.33,-332.67 157.82,-327.99 156.98,-334.93"/>
</a>
</g>
</g>
<!-- Node15 -->
<g id="Node000015" class="node">
<title>Node15</title>
<g id="a_Node000015"><a xlink:href="bindings_8cpp.html#a58f06af7a7bba166129e38505c2afd4d" target="_top" xlink:title=" ">
<polygon fill="white" stroke="#666666" points="94.38,-203 14.62,-203 14.62,-183 94.38,-183 94.38,-203"/>
<text xml:space="preserve" text-anchor="middle" x="54.5" y="-189.5" font-family="Helvetica,sans-Serif" font-size="10.00">duvc_cam_set</text>
</a>
</g>
</g>
<!-- Node14&#45;&gt;Node15 -->
<g id="edge14_Node000014_Node000015" class="edge">
<title>Node14&#45;&gt;Node15</title>
<g id="a_edge14_Node000014_Node000015"><a xlink:title=" ">
<path fill="none" stroke="#63b8ff" d="M172.09,-178.74C148.43,-181.64 118.3,-185.32 94.6,-188.22"/>
<polygon fill="#63b8ff" stroke="#63b8ff" points="172.45,-182.22 181.95,-177.54 171.6,-175.28 172.45,-182.22"/>
</a>
</g>
</g>
<!-- Node16 -->
<g id="Node000016" class="node">
<title>Node16</title>
<g id="a_Node000016"><a xlink:href="bindings_8cpp.html#a2e76b2547f3ee2427b1cf27ad9b358d6" target="_top" xlink:title=" ">
<polygon fill="white" stroke="#666666" points="91.38,-165 17.62,-165 17.62,-145 91.38,-145 91.38,-165"/>
<text xml:space="preserve" text-anchor="middle" x="54.5" y="-151.5" font-family="Helvetica,sans-Serif" font-size="10.00">duvc_vid_set</text>
</a>
</g>
</g>
<!-- Node14&#45;&gt;Node16 -->
<g id="edge15_Node000014_Node000016" class="edge">
<title>Node14&#45;&gt;Node16</title>
<g id="a_edge15_Node000014_Node000016"><a xlink:title=" ">
<path fill="none" stroke="#63b8ff" d="M172.33,-169.29C147.67,-166.27 115.88,-162.38 91.69,-159.43"/>
<polygon fill="#63b8ff" stroke="#63b8ff" points="171.6,-172.72 181.95,-170.46 172.45,-165.78 171.6,-172.72"/>
</a>
</g>
</g>
</g>
</svg>
