<?xml version="1.0" encoding="UTF-8" standalone="no"?>
<!DOCTYPE svg PUBLIC "-//W3C//DTD SVG 1.1//EN"
 "http://www.w3.org/Graphics/SVG/1.1/DTD/svg11.dtd">
<!-- Generated by graphviz version 14.0.2 (20251019.1705)
 -->
<!-- Title: duvc::com_apartment::com_apartment Pages: 1 -->
<svg width="370pt" height="40pt"
 viewBox="0.00 0.00 370.00 40.00" xmlns="http://www.w3.org/2000/svg" xmlns:xlink="http://www.w3.org/1999/xlink">
<g id="graph0" class="graph" transform="scale(1 1) rotate(0) translate(4 36)">
<title>duvc::com_apartment::com_apartment</title>
<!-- Node1 -->
<g id="Node000001" class="node">
<title>Node1</title>
<g id="a_Node000001"><a xlink:title=" ">
<polygon fill="#999999" stroke="#666666" points="110.5,-32 0,-32 0,0 110.5,0 110.5,-32"/>
<text xml:space="preserve" text-anchor="start" x="8" y="-18.5" font-family="Helvetica,sans-Serif" font-size="10.00">duvc::com_apartment</text>
<text xml:space="preserve" text-anchor="middle" x="55.25" y="-6.5" font-family="Helvetica,sans-Serif" font-size="10.00">::com_apartment</text>
</a>
</g>
</g>
<!-- Node2 -->
<g id="Node000002" class="node">
<title>Node2</title>
<g id="a_Node000002"><a xlink:href="namespaceduvc.html#a21b444574354018097d4489a9ff0ff9e" target="_top" xlink:title=" ">
<polygon fill="white" stroke="#666666" points="227,-26 146.5,-26 146.5,-6 227,-6 227,-26"/>
<text xml:space="preserve" text-anchor="middle" x="186.75" y="-12.5" font-family="Helvetica,sans-Serif" font-size="10.00">duvc::throw_hr</text>
</a>
</g>
</g>
<!-- Node1&#45;&gt;Node2 -->
<g id="edge1_Node000001_Node000002" class="edge">
<title>Node1&#45;&gt;Node2</title>
<g id="a_edge1_Node000001_Node000002"><a xlink:title=" ">
<path fill="none" stroke="#63b8ff" d="M110.79,-16C118.78,-16 126.98,-16 134.89,-16"/>
<polygon fill="#63b8ff" stroke="#63b8ff" points="134.7,-19.5 144.7,-16 134.7,-12.5 134.7,-19.5"/>
</a>
</g>
</g>
<!-- Node3 -->
<g id="Node000003" class="node">
<title>Node3</title>
<g id="a_Node000003"><a xlink:href="namespaceduvc.html#a02d5c5b2e56515cee2cad9057af0467d" target="_top" xlink:title=" ">
<polygon fill="white" stroke="#666666" points="361.5,-26 263,-26 263,-6 361.5,-6 361.5,-26"/>
<text xml:space="preserve" text-anchor="middle" x="312.25" y="-12.5" font-family="Helvetica,sans-Serif" font-size="10.00">duvc::wide_to_utf8</text>
</a>
</g>
</g>
<!-- Node2&#45;&gt;Node3 -->
<g id="edge2_Node000002_Node000003" class="edge">
<title>Node2&#45;&gt;Node3</title>
<g id="a_edge2_Node000002_Node000003"><a xlink:title=" ">
<path fill="none" stroke="#63b8ff" d="M227.17,-16C234.84,-16 243.05,-16 251.22,-16"/>
<polygon fill="#63b8ff" stroke="#63b8ff" points="251.17,-19.5 261.17,-16 251.17,-12.5 251.17,-19.5"/>
</a>
</g>
</g>
</g>
</svg>
