<?xml version="1.0" encoding="UTF-8" standalone="no"?>
<!DOCTYPE svg PUBLIC "-//W3C//DTD SVG 1.1//EN"
 "http://www.w3.org/Graphics/SVG/1.1/DTD/svg11.dtd">
<!-- Generated by graphviz version 14.0.2 (20251019.1705)
 -->
<!-- Title: duvc::DeviceCapabilities::DeviceCapabilities Pages: 1 -->
<!--zoomable 218 -->

<svg id="main" version="1.1" xmlns="http://www.w3.org/2000/svg" xmlns:xlink="http://www.w3.org/1999/xlink" xml:space="preserve" onload="init(evt)">
<style type="text/css"><![CDATA[
.node, .edge {opacity: 0.7;}
.node.selected, .edge.selected {opacity: 1;}
.edge:hover path { stroke: red; }
.edge:hover polygon { stroke: red; fill: red; }
]]></style>

<defs>
  <circle id="rim" cx="0" cy="0" r="7"/>
  <circle id="rim2" cx="0" cy="0" r="3.5"/>
  <g id="zoomPlus">
    <use xlink:href="#rim" fill="#404040"><set attributeName="fill" to="#808080" begin="zoomplus.mouseover" end="zoomplus.mouseout"/></use>
    <path d="M-4,0h8M0,-4v8" fill="none" stroke="white" stroke-width="1.5" pointer-events="none"/>
  </g>
  <g id="zoomMin">
    <use xlink:href="#rim" fill="#404040"><set attributeName="fill" to="#808080" begin="zoomminus.mouseover" end="zoomminus.mouseout"/></use>
    <path d="M-4,0h8" fill="none" stroke="white" stroke-width="1.5" pointer-events="none"/>
  </g>
  <g id="arrowUp" transform="translate(30 24)">
    <use xlink:href="#rim"/>
    <path pointer-events="none" fill="none" stroke="white" stroke-width="1.5" d="M0,-3.0v7 M-2.5,-0.5L0,-3.0L2.5,-0.5"/>
  </g>
  <g id="arrowRight" transform="rotate(90) translate(36 -43)">
    <use xlink:href="#rim"/>
    <path pointer-events="none" fill="none" stroke="white" stroke-width="1.5" d="M0,-3.0v7 M-2.5,-0.5L0,-3.0L2.5,-0.5"/>
  </g>
  <g id="arrowDown" transform="rotate(180) translate(-30 -48)">
    <use xlink:href="#rim"/>
    <path pointer-events="none" fill="none" stroke="white" stroke-width="1.5" d="M0,-3.0v7 M-2.5,-0.5L0,-3.0L2.5,-0.5"/>
  </g>
  <g id="arrowLeft" transform="rotate(270) translate(-36 17)">
    <use xlink:href="#rim"/>
    <path pointer-events="none" fill="none" stroke="white" stroke-width="1.5" d="M0,-3.0v7 M-2.5,-0.5L0,-3.0L2.5,-0.5"/>
  </g>
  <g id="resetDef">
    <use xlink:href="#rim2" fill="#404040"><set attributeName="fill" to="#808080" begin="reset.mouseover" end="reset.mouseout"/></use>
  </g>
</defs>
<script type="application/ecmascript">
var viewWidth = 763;
var viewHeight = 218;
var sectionId = 'dynsection-1';
</script>
<script type="application/ecmascript" xlink:href="svg.min.js"/>
<svg id="graph" class="graph">
<g id="viewport">
<title>duvc::DeviceCapabilities::DeviceCapabilities</title>
<!-- Node1 -->
<g id="Node000001" class="node">
<title>Node1</title>
<g id="a_Node000001"><a xlink:title="Create capabilities snapshot for device.">
<polygon fill="#999999" stroke="#666666" points="124.75,-121 0,-121 0,-89 124.75,-89 124.75,-121"/>
<text xml:space="preserve" text-anchor="start" x="8" y="-107.5" font-family="Helvetica,sans-Serif" font-size="10.00">duvc::DeviceCapabilities</text>
<text xml:space="preserve" text-anchor="middle" x="62.38" y="-95.5" font-family="Helvetica,sans-Serif" font-size="10.00">::DeviceCapabilities</text>
</a>
</g>
</g>
<!-- Node2 -->
<g id="Node000002" class="node">
<title>Node2</title>
<g id="a_Node000002"><a xlink:href="namespaceduvc.html#ab42651167ff39abe9e70713ac6db65b9" target="_top" xlink:title="Check if a device is currently connected and accessible.">
<polygon fill="white" stroke="#666666" points="295.25,-115 160.75,-115 160.75,-95 295.25,-95 295.25,-115"/>
<text xml:space="preserve" text-anchor="middle" x="228" y="-101.5" font-family="Helvetica,sans-Serif" font-size="10.00">duvc::is_device_connected</text>
</a>
</g>
</g>
<!-- Node1&#45;&gt;Node2 -->
<g id="edge1_Node000001_Node000002" class="edge">
<title>Node1&#45;&gt;Node2</title>
<g id="a_edge1_Node000001_Node000002"><a xlink:title=" ">
<path fill="none" stroke="#63b8ff" d="M125.23,-105C133.05,-105 141.12,-105 149.14,-105"/>
<polygon fill="#63b8ff" stroke="#63b8ff" points="148.9,-108.5 158.9,-105 148.9,-101.5 148.9,-108.5"/>
</a>
</g>
</g>
<!-- Node3 -->
<g id="Node000003" class="node">
<title>Node3</title>
<g id="a_Node000003"><a xlink:href="namespaceduvc.html#ab7299b8597bf14b18b8351278c209188" target="_top" xlink:title="Create DirectShow device enumerator.">
<polygon fill="white" stroke="#666666" points="464.25,-210 344,-210 344,-190 464.25,-190 464.25,-210"/>
<text xml:space="preserve" text-anchor="middle" x="404.12" y="-196.5" font-family="Helvetica,sans-Serif" font-size="10.00">duvc::create_dev_enum</text>
</a>
</g>
</g>
<!-- Node2&#45;&gt;Node3 -->
<g id="edge2_Node000002_Node000003" class="edge">
<title>Node2&#45;&gt;Node3</title>
<g id="a_edge2_Node000002_Node000003"><a xlink:title=" ">
<path fill="none" stroke="#63b8ff" d="M240.01,-115.46C257.8,-131.81 294.58,-163.34 331.25,-181 334.96,-182.79 338.85,-184.42 342.84,-185.92"/>
<polygon fill="#63b8ff" stroke="#63b8ff" points="341.49,-189.15 352.08,-189.06 343.74,-182.53 341.49,-189.15"/>
</a>
</g>
</g>
<!-- Node6 -->
<g id="Node000006" class="node">
<title>Node6</title>
<g id="a_Node000006"><a xlink:href="namespaceduvc.html#a1a577c6cd7e4b3106d6f95c15bbceeed" target="_top" xlink:title="Enumerate video input devices.">
<polygon fill="white" stroke="#666666" points="471.38,-172 336.88,-172 336.88,-152 471.38,-152 471.38,-172"/>
<text xml:space="preserve" text-anchor="middle" x="404.12" y="-158.5" font-family="Helvetica,sans-Serif" font-size="10.00">duvc::enum_video_devices</text>
</a>
</g>
</g>
<!-- Node2&#45;&gt;Node6 -->
<g id="edge5_Node000002_Node000006" class="edge">
<title>Node2&#45;&gt;Node6</title>
<g id="a_edge5_Node000002_Node000006"><a xlink:title=" ">
<path fill="none" stroke="#63b8ff" d="M254.81,-115.39C275.34,-123.46 304.89,-134.64 331.25,-143 337.32,-144.92 343.72,-146.81 350.09,-148.61"/>
<polygon fill="#63b8ff" stroke="#63b8ff" points="348.71,-151.86 359.28,-151.13 350.56,-145.11 348.71,-151.86"/>
</a>
</g>
</g>
<!-- Node7 -->
<g id="Node000007" class="node">
<title>Node7</title>
<g id="a_Node000007"><a xlink:href="namespaceduvc.html#aa743fc7771811366fbd7b192b4f4d5d5" target="_top" xlink:title=" ">
<polygon fill="white" stroke="#666666" points="477,-134 331.25,-134 331.25,-114 477,-114 477,-134"/>
<text xml:space="preserve" text-anchor="middle" x="404.12" y="-120.5" font-family="Helvetica,sans-Serif" font-size="10.00">duvc::get_cached_connection</text>
</a>
</g>
</g>
<!-- Node2&#45;&gt;Node7 -->
<g id="edge7_Node000002_Node000007" class="edge">
<title>Node2&#45;&gt;Node7</title>
<g id="a_edge7_Node000002_Node000007"><a xlink:title=" ">
<path fill="none" stroke="#63b8ff" d="M295.33,-112.24C303.23,-113.1 311.38,-113.99 319.48,-114.87"/>
<polygon fill="#63b8ff" stroke="#63b8ff" points="319.06,-118.35 329.38,-115.95 319.82,-111.39 319.06,-118.35"/>
</a>
</g>
</g>
<!-- Node8 -->
<g id="Node000008" class="node">
<title>Node8</title>
<g id="a_Node000008"><a xlink:href="namespaceduvc.html#a16607a28a7df86e823edf3abd371af92" target="_top" xlink:title="Check if two device identifiers refer to same device.">
<polygon fill="white" stroke="#666666" points="460.88,-96 347.38,-96 347.38,-76 460.88,-76 460.88,-96"/>
<text xml:space="preserve" text-anchor="middle" x="404.12" y="-82.5" font-family="Helvetica,sans-Serif" font-size="10.00">duvc::is_same_device</text>
</a>
</g>
</g>
<!-- Node2&#45;&gt;Node8 -->
<g id="edge8_Node000002_Node000008" class="edge">
<title>Node2&#45;&gt;Node8</title>
<g id="a_edge8_Node000002_Node000008"><a xlink:title=" ">
<path fill="none" stroke="#63b8ff" d="M295.33,-97.76C308.48,-96.33 322.31,-94.82 335.51,-93.38"/>
<polygon fill="#63b8ff" stroke="#63b8ff" points="335.85,-96.86 345.41,-92.3 335.09,-89.9 335.85,-96.86"/>
</a>
</g>
</g>
<!-- Node9 -->
<g id="Node000009" class="node">
<title>Node9</title>
<g id="a_Node000009"><a xlink:href="namespaceduvc.html#a2c2b6f32c6871ad36ae0bf98d9374fd0" target="_top" xlink:title="Read device path from moniker.">
<polygon fill="white" stroke="#666666" points="463.88,-58 344.38,-58 344.38,-38 463.88,-38 463.88,-58"/>
<text xml:space="preserve" text-anchor="middle" x="404.12" y="-44.5" font-family="Helvetica,sans-Serif" font-size="10.00">duvc::read_device_path</text>
</a>
</g>
</g>
<!-- Node2&#45;&gt;Node9 -->
<g id="edge9_Node000002_Node000009" class="edge">
<title>Node2&#45;&gt;Node9</title>
<g id="a_edge9_Node000002_Node000009"><a xlink:title=" ">
<path fill="none" stroke="#63b8ff" d="M254.81,-94.61C275.34,-86.54 304.89,-75.36 331.25,-67 337.32,-65.08 343.72,-63.19 350.09,-61.39"/>
<polygon fill="#63b8ff" stroke="#63b8ff" points="350.56,-64.89 359.28,-58.87 348.71,-58.14 350.56,-64.89"/>
</a>
</g>
</g>
<!-- Node11 -->
<g id="Node000011" class="node">
<title>Node11</title>
<g id="a_Node000011"><a xlink:href="namespaceduvc.html#a019644436e5f0add38b6242843b79fef" target="_top" xlink:title="Read friendly name from device moniker.">
<polygon fill="white" stroke="#666666" points="468,-20 340.25,-20 340.25,0 468,0 468,-20"/>
<text xml:space="preserve" text-anchor="middle" x="404.12" y="-6.5" font-family="Helvetica,sans-Serif" font-size="10.00">duvc::read_friendly_name</text>
</a>
</g>
</g>
<!-- Node2&#45;&gt;Node11 -->
<g id="edge11_Node000002_Node000011" class="edge">
<title>Node2&#45;&gt;Node11</title>
<g id="a_edge11_Node000002_Node000011"><a xlink:title=" ">
<path fill="none" stroke="#63b8ff" d="M240.01,-94.54C257.8,-78.19 294.58,-46.66 331.25,-29 334.96,-27.21 338.85,-25.58 342.84,-24.08"/>
<polygon fill="#63b8ff" stroke="#63b8ff" points="343.74,-27.47 352.08,-20.94 341.49,-20.85 343.74,-27.47"/>
</a>
</g>
</g>
<!-- Node4 -->
<g id="Node000004" class="node">
<title>Node4</title>
<g id="a_Node000004"><a xlink:href="namespaceduvc.html#a21b444574354018097d4489a9ff0ff9e" target="_top" xlink:title=" ">
<polygon fill="white" stroke="#666666" points="607,-191 526.5,-191 526.5,-171 607,-171 607,-191"/>
<text xml:space="preserve" text-anchor="middle" x="566.75" y="-177.5" font-family="Helvetica,sans-Serif" font-size="10.00">duvc::throw_hr</text>
</a>
</g>
</g>
<!-- Node3&#45;&gt;Node4 -->
<g id="edge3_Node000003_Node000004" class="edge">
<title>Node3&#45;&gt;Node4</title>
<g id="a_edge3_Node000003_Node000004"><a xlink:title=" ">
<path fill="none" stroke="#63b8ff" d="M464.48,-192.98C481.02,-191.02 498.83,-188.92 514.84,-187.02"/>
<polygon fill="#63b8ff" stroke="#63b8ff" points="515.11,-190.51 524.63,-185.86 514.29,-183.56 515.11,-190.51"/>
</a>
</g>
</g>
<!-- Node5 -->
<g id="Node000005" class="node">
<title>Node5</title>
<g id="a_Node000005"><a xlink:href="namespaceduvc.html#a02d5c5b2e56515cee2cad9057af0467d" target="_top" xlink:title=" ">
<polygon fill="white" stroke="#666666" points="755,-191 656.5,-191 656.5,-171 755,-171 755,-191"/>
<text xml:space="preserve" text-anchor="middle" x="705.75" y="-177.5" font-family="Helvetica,sans-Serif" font-size="10.00">duvc::wide_to_utf8</text>
</a>
</g>
</g>
<!-- Node4&#45;&gt;Node5 -->
<g id="edge4_Node000004_Node000005" class="edge">
<title>Node4&#45;&gt;Node5</title>
<g id="a_edge4_Node000004_Node000005"><a xlink:title=" ">
<path fill="none" stroke="#63b8ff" d="M607.38,-181C619.11,-181 632.24,-181 644.95,-181"/>
<polygon fill="#63b8ff" stroke="#63b8ff" points="644.95,-184.5 654.95,-181 644.95,-177.5 644.95,-184.5"/>
</a>
</g>
</g>
<!-- Node6&#45;&gt;Node4 -->
<g id="edge6_Node000006_Node000004" class="edge">
<title>Node6&#45;&gt;Node4</title>
<g id="a_edge6_Node000006_Node000004"><a xlink:title=" ">
<path fill="none" stroke="#63b8ff" d="M471.85,-169.89C486.26,-171.6 501.27,-173.37 514.96,-174.99"/>
<polygon fill="#63b8ff" stroke="#63b8ff" points="514.25,-178.43 524.59,-176.13 515.07,-171.48 514.25,-178.43"/>
</a>
</g>
</g>
<!-- Node10 -->
<g id="Node000010" class="node">
<title>Node10</title>
<g id="a_Node000010"><a xlink:href="namespaceduvc.html#a0dbd37821c1cae29fa72d44e3dbd0583" target="_top" xlink:title=" ">
<polygon fill="white" stroke="#666666" points="620.5,-39 513,-39 513,-19 620.5,-19 620.5,-39"/>
<text xml:space="preserve" text-anchor="middle" x="566.75" y="-25.5" font-family="Helvetica,sans-Serif" font-size="10.00">duvc::read_prop_bstr</text>
</a>
</g>
</g>
<!-- Node9&#45;&gt;Node10 -->
<g id="edge10_Node000009_Node000010" class="edge">
<title>Node9&#45;&gt;Node10</title>
<g id="a_edge10_Node000009_Node000010"><a xlink:title=" ">
<path fill="none" stroke="#63b8ff" d="M464.02,-41.03C476.23,-39.59 489.14,-38.06 501.52,-36.6"/>
<polygon fill="#63b8ff" stroke="#63b8ff" points="501.68,-40.1 511.2,-35.45 500.86,-33.15 501.68,-40.1"/>
</a>
</g>
</g>
<!-- Node11&#45;&gt;Node10 -->
<g id="edge12_Node000011_Node000010" class="edge">
<title>Node11&#45;&gt;Node10</title>
<g id="a_edge12_Node000011_Node000010"><a xlink:title=" ">
<path fill="none" stroke="#63b8ff" d="M468.15,-17.45C479.04,-18.74 490.38,-20.08 501.31,-21.38"/>
<polygon fill="#63b8ff" stroke="#63b8ff" points="500.67,-24.83 511.01,-22.53 501.5,-17.87 500.67,-24.83"/>
</a>
</g>
</g>
</g>
</svg>

<g id="navigator" transform="translate(0 0)" fill="#404254">
  <rect fill="#f2f5e9" fill-opacity="0.5" stroke="#606060" stroke-width=".5" x="0" y="0" width="60" height="60"/>
  <use id="zoomplus" xlink:href="#zoomPlus" x="17" y="9" onmousedown="handleZoom(evt,'in')"/>
  <use id="zoomminus" xlink:href="#zoomMin" x="42" y="9" onmousedown="handleZoom(evt,'out')"/>
  <use id="reset" xlink:href="#resetDef" x="30" y="36" onmousedown="handleReset()"/>
   <use id="arrowup" xlink:href="#arrowUp" x="0" y="0" onmousedown="handlePan(0,-1)"/>
  <use id="arrowright" xlink:href="#arrowRight" x="0" y="0" onmousedown="handlePan(1,0)"/>
  <use id="arrowdown" xlink:href="#arrowDown" x="0" y="0" onmousedown="handlePan(0,1)"/>
  <use id="arrowleft" xlink:href="#arrowLeft" x="0" y="0" onmousedown="handlePan(-1,0)"/>
</g>
<svg viewBox="0 0 15 15" width="100%" height="30px" preserveAspectRatio="xMaxYMin meet">
 <g id="arrow_out" transform="scale(0.3 0.3)">
  <a xlink:href="classduvc_1_1DeviceCapabilities_a1275f0a40ef3c3462236e21de5feb0ee_cgraph_org.svg" target="_base">
   <rect id="button" ry="5" rx="5" y="6" x="6" height="38" width="38"
        fill="#f2f5e9" fill-opacity="0.5" stroke="#606060" stroke-width="1.0"/>
   <path id="arrow"
     d="M 11.500037,31.436501 C 11.940474,20.09759 22.043105,11.32322 32.158766,21.979434 L 37.068811,17.246167 C 37.068811,17.246167 37.088388,32 37.088388,32 L 22.160133,31.978069 C 22.160133,31.978069 26.997745,27.140456 26.997745,27.140456 C 18.528582,18.264221 13.291696,25.230495 11.500037,31.436501 z"
     style="fill:#404040;"/>
  </a>
 </g>
</svg>

<style type='text/css'>
<![CDATA[
[data-mouse-over-selected='false'] { opacity: 0.7; }
[data-mouse-over-selected='true']  { opacity: 1.0; }
]]>
</style>
<script type="application/ecmascript"><![CDATA[
document.addEventListener('DOMContentLoaded', (event) => {
  highlightEdges();
  highlightAdjacentNodes();
});
]]></script>
</svg>
