<?xml version="1.0" encoding="UTF-8" standalone="no"?>
<!DOCTYPE svg PUBLIC "-//W3C//DTD SVG 1.1//EN"
 "http://www.w3.org/Graphics/SVG/1.1/DTD/svg11.dtd">
<!-- Generated by graphviz version 14.0.2 (20251019.1705)
 -->
<!-- Title: duvc::com_ptr::reset Pages: 1 -->
<svg width="276pt" height="104pt"
 viewBox="0.00 0.00 276.00 104.00" xmlns="http://www.w3.org/2000/svg" xmlns:xlink="http://www.w3.org/1999/xlink">
<g id="graph0" class="graph" transform="scale(1 1) rotate(0) translate(4 100)">
<title>duvc::com_ptr::reset</title>
<!-- Node1 -->
<g id="Node000001" class="node">
<title>Node1</title>
<g id="a_Node000001"><a xlink:title=" ">
<polygon fill="#999999" stroke="#666666" points="267.5,-58 161.5,-58 161.5,-38 267.5,-38 267.5,-58"/>
<text xml:space="preserve" text-anchor="middle" x="214.5" y="-44.5" font-family="Helvetica,sans-Serif" font-size="10.00">duvc::com_ptr::reset</text>
</a>
</g>
</g>
<!-- Node2 -->
<g id="Node000002" class="node">
<title>Node2</title>
<g id="a_Node000002"><a xlink:href="classduvc_1_1com__ptr.html#ab5b2acc739136a7dd8f46f94092b57e0" target="_top" xlink:title=" ">
<polygon fill="white" stroke="#666666" points="125.5,-96 0,-96 0,-76 125.5,-76 125.5,-96"/>
<text xml:space="preserve" text-anchor="middle" x="62.75" y="-82.5" font-family="Helvetica,sans-Serif" font-size="10.00">duvc::com_ptr::operator=</text>
</a>
</g>
</g>
<!-- Node1&#45;&gt;Node2 -->
<g id="edge1_Node000001_Node000002" class="edge">
<title>Node1&#45;&gt;Node2</title>
<g id="a_edge1_Node000001_Node000002"><a xlink:title=" ">
<path fill="none" stroke="#63b8ff" d="M161.03,-61.31C142.64,-65.98 122.27,-71.15 104.93,-75.55"/>
<polygon fill="#63b8ff" stroke="#63b8ff" points="161.88,-64.71 170.72,-58.86 160.16,-57.92 161.88,-64.71"/>
</a>
</g>
</g>
<!-- Node3 -->
<g id="Node000003" class="node">
<title>Node3</title>
<g id="a_Node000003"><a xlink:href="classduvc_1_1com__ptr.html#a3694b3daf7c51bb796fa5edf7378450c" target="_top" xlink:title=" ">
<polygon fill="white" stroke="#666666" points="111.62,-58 13.88,-58 13.88,-38 111.62,-38 111.62,-58"/>
<text xml:space="preserve" text-anchor="middle" x="62.75" y="-44.5" font-family="Helvetica,sans-Serif" font-size="10.00">duvc::com_ptr::put</text>
</a>
</g>
</g>
<!-- Node1&#45;&gt;Node3 -->
<g id="edge2_Node000001_Node000003" class="edge">
<title>Node1&#45;&gt;Node3</title>
<g id="a_edge2_Node000001_Node000003"><a xlink:title=" ">
<path fill="none" stroke="#63b8ff" d="M149.65,-48C136.98,-48 123.87,-48 111.83,-48"/>
<polygon fill="#63b8ff" stroke="#63b8ff" points="149.61,-51.5 159.61,-48 149.61,-44.5 149.61,-51.5"/>
</a>
</g>
</g>
<!-- Node4 -->
<g id="Node000004" class="node">
<title>Node4</title>
<g id="a_Node000004"><a xlink:href="classduvc_1_1com__ptr.html#a5b9a114c857c3a34ea9846ee45ffcf62" target="_top" xlink:title=" ">
<polygon fill="white" stroke="#666666" points="125.5,-20 0,-20 0,0 125.5,0 125.5,-20"/>
<text xml:space="preserve" text-anchor="middle" x="62.75" y="-6.5" font-family="Helvetica,sans-Serif" font-size="10.00">duvc::com_ptr::~com_ptr</text>
</a>
</g>
</g>
<!-- Node1&#45;&gt;Node4 -->
<g id="edge3_Node000001_Node000004" class="edge">
<title>Node1&#45;&gt;Node4</title>
<g id="a_edge3_Node000001_Node000004"><a xlink:title=" ">
<path fill="none" stroke="#63b8ff" d="M161.03,-34.69C142.64,-30.02 122.27,-24.85 104.93,-20.45"/>
<polygon fill="#63b8ff" stroke="#63b8ff" points="160.16,-38.08 170.72,-37.14 161.88,-31.29 160.16,-38.08"/>
</a>
</g>
</g>
</g>
</svg>
