<?xml version="1.0" encoding="UTF-8" standalone="no"?>
<!DOCTYPE svg PUBLIC "-//W3C//DTD SVG 1.1//EN"
 "http://www.w3.org/Graphics/SVG/1.1/DTD/svg11.dtd">
<!-- Generated by graphviz version 14.0.2 (20251019.1705)
 -->
<!-- Title: duvc::Camera::get Pages: 1 -->
<svg width="273pt" height="190pt"
 viewBox="0.00 0.00 273.00 190.00" xmlns="http://www.w3.org/2000/svg" xmlns:xlink="http://www.w3.org/1999/xlink">

<svg id="main" version="1.1" xmlns="http://www.w3.org/2000/svg" xmlns:xlink="http://www.w3.org/1999/xlink" xml:space="preserve" onload="init(evt)">
<style type="text/css"><![CDATA[
.node, .edge {opacity: 0.7;}
.node.selected, .edge.selected {opacity: 1;}
.edge:hover path { stroke: red; }
.edge:hover polygon { stroke: red; fill: red; }
]]></style>
<script type="application/ecmascript" xlink:href="svg.min.js"/>
<svg id="graph" class="graph">
<g id="graph0" class="graph" transform="scale(1 1) rotate(0) translate(4 186)">
<title>duvc::Camera::get</title>
<!-- Node1 -->
<g id="Node000001" class="node">
<title>Node1</title>
<g id="a_Node000001"><a xlink:title="Get camera property value.">
<polygon fill="#999999" stroke="#666666" points="265.25,-101 168.25,-101 168.25,-81 265.25,-81 265.25,-101"/>
<text xml:space="preserve" text-anchor="middle" x="216.75" y="-87.5" font-family="Helvetica,sans-Serif" font-size="10.00">duvc::Camera::get</text>
</a>
</g>
</g>
<!-- Node2 -->
<g id="Node000002" class="node">
<title>Node2</title>
<g id="a_Node000002"><a xlink:href="api_8cpp.html#aad9636d2df56d2f955de2783cc06bbd6" target="_top" xlink:title="Get multiple camera properties.">
<polygon fill="white" stroke="#666666" points="132.25,-182 0,-182 0,-150 132.25,-150 132.25,-182"/>
<text xml:space="preserve" text-anchor="start" x="8" y="-168.5" font-family="Helvetica,sans-Serif" font-size="10.00">duvc_get_multiple_camera</text>
<text xml:space="preserve" text-anchor="middle" x="66.12" y="-156.5" font-family="Helvetica,sans-Serif" font-size="10.00">_properties</text>
</a>
</g>
</g>
<!-- Node1&#45;&gt;Node2 -->
<g id="edge1_Node000001_Node000002" class="edge">
<title>Node1&#45;&gt;Node2</title>
<g id="a_edge1_Node000001_Node000002"><a xlink:title=" ">
<path fill="none" stroke="#63b8ff" d="M190.86,-107.46C174.58,-117.82 152.63,-131.08 132.25,-141 126.15,-143.97 119.61,-146.83 113.1,-149.5"/>
<polygon fill="#63b8ff" stroke="#63b8ff" points="192.42,-110.61 198.93,-102.25 188.63,-104.73 192.42,-110.61"/>
</a>
</g>
</g>
<!-- Node3 -->
<g id="Node000003" class="node">
<title>Node3</title>
<g id="a_Node000003"><a xlink:href="api_8cpp.html#a01f1d8b5b3d7e96c9477f4e163fe1a7c" target="_top" xlink:title="Get multiple video properties.">
<polygon fill="white" stroke="#666666" points="127.75,-132 4.5,-132 4.5,-100 127.75,-100 127.75,-132"/>
<text xml:space="preserve" text-anchor="start" x="12.5" y="-118.5" font-family="Helvetica,sans-Serif" font-size="10.00">duvc_get_multiple_video</text>
<text xml:space="preserve" text-anchor="middle" x="66.12" y="-106.5" font-family="Helvetica,sans-Serif" font-size="10.00">_properties</text>
</a>
</g>
</g>
<!-- Node1&#45;&gt;Node3 -->
<g id="edge2_Node000001_Node000003" class="edge">
<title>Node1&#45;&gt;Node3</title>
<g id="a_edge2_Node000001_Node000003"><a xlink:title=" ">
<path fill="none" stroke="#63b8ff" d="M156.69,-100.93C147.32,-102.51 137.61,-104.14 128.2,-105.73"/>
<polygon fill="#63b8ff" stroke="#63b8ff" points="157.13,-104.41 166.41,-99.3 155.97,-97.51 157.13,-104.41"/>
</a>
</g>
</g>
<!-- Node4 -->
<g id="Node000004" class="node">
<title>Node4</title>
<g id="a_Node000004"><a xlink:href="api_8cpp.html#a1e2fd3b752c6ee2b24afa9ab771aac0c" target="_top" xlink:title="Set multiple camera properties.">
<polygon fill="white" stroke="#666666" points="132.25,-82 0,-82 0,-50 132.25,-50 132.25,-82"/>
<text xml:space="preserve" text-anchor="start" x="8" y="-68.5" font-family="Helvetica,sans-Serif" font-size="10.00">duvc_set_multiple_camera</text>
<text xml:space="preserve" text-anchor="middle" x="66.12" y="-56.5" font-family="Helvetica,sans-Serif" font-size="10.00">_properties</text>
</a>
</g>
</g>
<!-- Node1&#45;&gt;Node4 -->
<g id="edge3_Node000001_Node000004" class="edge">
<title>Node1&#45;&gt;Node4</title>
<g id="a_edge3_Node000001_Node000004"><a xlink:title=" ">
<path fill="none" stroke="#63b8ff" d="M156.81,-81.09C148.82,-79.74 140.58,-78.36 132.48,-76.99"/>
<polygon fill="#63b8ff" stroke="#63b8ff" points="155.97,-84.49 166.41,-82.7 157.13,-77.59 155.97,-84.49"/>
</a>
</g>
</g>
<!-- Node5 -->
<g id="Node000005" class="node">
<title>Node5</title>
<g id="a_Node000005"><a xlink:href="api_8cpp.html#a5bc995ad18045408b7f2ba1c3b2033e6" target="_top" xlink:title="Set multiple video properties.">
<polygon fill="white" stroke="#666666" points="127.75,-32 4.5,-32 4.5,0 127.75,0 127.75,-32"/>
<text xml:space="preserve" text-anchor="start" x="12.5" y="-18.5" font-family="Helvetica,sans-Serif" font-size="10.00">duvc_set_multiple_video</text>
<text xml:space="preserve" text-anchor="middle" x="66.12" y="-6.5" font-family="Helvetica,sans-Serif" font-size="10.00">_properties</text>
</a>
</g>
</g>
<!-- Node1&#45;&gt;Node5 -->
<g id="edge4_Node000001_Node000005" class="edge">
<title>Node1&#45;&gt;Node5</title>
<g id="a_edge4_Node000001_Node000005"><a xlink:title=" ">
<path fill="none" stroke="#63b8ff" d="M190.86,-74.54C174.58,-64.18 152.63,-50.92 132.25,-41 126.15,-38.03 119.61,-35.17 113.1,-32.5"/>
<polygon fill="#63b8ff" stroke="#63b8ff" points="188.63,-77.27 198.93,-79.75 192.42,-71.39 188.63,-77.27"/>
</a>
</g>
</g>
</g>
</svg>
</svg>

<style type='text/css'>
<![CDATA[
[data-mouse-over-selected='false'] { opacity: 0.7; }
[data-mouse-over-selected='true']  { opacity: 1.0; }
]]>
</style>
<script type="application/ecmascript"><![CDATA[
document.addEventListener('DOMContentLoaded', (event) => {
  highlightEdges();
  highlightAdjacentNodes();
});
]]></script>
</svg>
