<?xml version="1.0" encoding="UTF-8" standalone="no"?>
<!DOCTYPE svg PUBLIC "-//W3C//DTD SVG 1.1//EN"
 "http://www.w3.org/Graphics/SVG/1.1/DTD/svg11.dtd">
<!-- Generated by graphviz version 14.0.2 (20251019.1705)
 -->
<!-- Title: duvc::Result::value_or Pages: 1 -->
<svg width="264pt" height="104pt"
 viewBox="0.00 0.00 264.00 104.00" xmlns="http://www.w3.org/2000/svg" xmlns:xlink="http://www.w3.org/1999/xlink">
<g id="graph0" class="graph" transform="scale(1 1) rotate(0) translate(4 100)">
<title>duvc::Result::value_or</title>
<!-- Node1 -->
<g id="Node000001" class="node">
<title>Node1</title>
<g id="a_Node000001"><a xlink:title="Get value or default if error.">
<polygon fill="#999999" stroke="#666666" points="114.25,-58 0,-58 0,-38 114.25,-38 114.25,-58"/>
<text xml:space="preserve" text-anchor="middle" x="57.12" y="-44.5" font-family="Helvetica,sans-Serif" font-size="10.00">duvc::Result::value_or</text>
</a>
</g>
</g>
<!-- Node2 -->
<g id="Node000002" class="node">
<title>Node2</title>
<g id="a_Node000002"><a xlink:href="classduvc_1_1Result.html#a6a3af8795b3d3090f17993728dbe701f" target="_top" xlink:title="Check if result contains a value (success)">
<polygon fill="white" stroke="#666666" points="253.62,-96 152.88,-96 152.88,-76 253.62,-76 253.62,-96"/>
<text xml:space="preserve" text-anchor="middle" x="203.25" y="-82.5" font-family="Helvetica,sans-Serif" font-size="10.00">duvc::Result::is_ok</text>
</a>
</g>
</g>
<!-- Node1&#45;&gt;Node2 -->
<g id="edge1_Node000001_Node000002" class="edge">
<title>Node1&#45;&gt;Node2</title>
<g id="a_edge1_Node000001_Node000002"><a xlink:title=" ">
<path fill="none" stroke="#63b8ff" d="M97.89,-58.48C114.51,-62.87 134.02,-68.01 151.64,-72.66"/>
<polygon fill="#63b8ff" stroke="#63b8ff" points="150.59,-76 161.15,-75.16 152.37,-69.23 150.59,-76"/>
</a>
</g>
</g>
<!-- Node3 -->
<g id="Node000003" class="node">
<title>Node3</title>
<g id="a_Node000003"><a xlink:href="classduvc_1_1Result.html#ab4a5ff1c932f6babbc6b3378bf0cb06d" target="_top" xlink:title="Create successful result with value.">
<polygon fill="white" stroke="#666666" points="256.25,-58 150.25,-58 150.25,-38 256.25,-38 256.25,-58"/>
<text xml:space="preserve" text-anchor="middle" x="203.25" y="-44.5" font-family="Helvetica,sans-Serif" font-size="10.00">duvc::Result::Result</text>
</a>
</g>
</g>
<!-- Node1&#45;&gt;Node3 -->
<g id="edge2_Node000001_Node000003" class="edge">
<title>Node1&#45;&gt;Node3</title>
<g id="a_edge2_Node000001_Node000003"><a xlink:title=" ">
<path fill="none" stroke="#63b8ff" d="M114.67,-48C122.61,-48 130.8,-48 138.85,-48"/>
<polygon fill="#63b8ff" stroke="#63b8ff" points="138.58,-51.5 148.58,-48 138.58,-44.5 138.58,-51.5"/>
</a>
</g>
</g>
<!-- Node4 -->
<g id="Node000004" class="node">
<title>Node4</title>
<g id="a_Node000004"><a xlink:href="classduvc_1_1Result.html#a260a000aca87d38c8f9f22ad80804691" target="_top" xlink:title="Get the value (assumes success)">
<polygon fill="white" stroke="#666666" points="253.62,-20 152.88,-20 152.88,0 253.62,0 253.62,-20"/>
<text xml:space="preserve" text-anchor="middle" x="203.25" y="-6.5" font-family="Helvetica,sans-Serif" font-size="10.00">duvc::Result::value</text>
</a>
</g>
</g>
<!-- Node1&#45;&gt;Node4 -->
<g id="edge3_Node000001_Node000004" class="edge">
<title>Node1&#45;&gt;Node4</title>
<g id="a_edge3_Node000001_Node000004"><a xlink:title=" ">
<path fill="none" stroke="#63b8ff" d="M97.89,-37.52C114.51,-33.13 134.02,-27.99 151.64,-23.34"/>
<polygon fill="#63b8ff" stroke="#63b8ff" points="152.37,-26.77 161.15,-20.84 150.59,-20 152.37,-26.77"/>
</a>
</g>
</g>
</g>
</svg>
