<?xml version="1.0" encoding="UTF-8" standalone="no"?>
<!DOCTYPE svg PUBLIC "-//W3C//DTD SVG 1.1//EN"
 "http://www.w3.org/Graphics/SVG/1.1/DTD/svg11.dtd">
<!-- Generated by graphviz version 14.0.2 (20251019.1705)
 -->
<!-- Title: duvc::DeviceCapabilities::get_camera_capability Pages: 1 -->
<svg width="462pt" height="78pt"
 viewBox="0.00 0.00 462.00 78.00" xmlns="http://www.w3.org/2000/svg" xmlns:xlink="http://www.w3.org/1999/xlink">
<g id="graph0" class="graph" transform="scale(1 1) rotate(0) translate(4 74)">
<title>duvc::DeviceCapabilities::get_camera_capability</title>
<!-- Node1 -->
<g id="Node000001" class="node">
<title>Node1</title>
<g id="a_Node000001"><a xlink:title="Get camera property capability.">
<polygon fill="#999999" stroke="#666666" points="453.75,-54 329,-54 329,-22 453.75,-22 453.75,-54"/>
<text xml:space="preserve" text-anchor="start" x="337" y="-40.5" font-family="Helvetica,sans-Serif" font-size="10.00">duvc::DeviceCapabilities</text>
<text xml:space="preserve" text-anchor="middle" x="391.38" y="-28.5" font-family="Helvetica,sans-Serif" font-size="10.00">::get_camera_capability</text>
</a>
</g>
</g>
<!-- Node2 -->
<g id="Node000002" class="node">
<title>Node2</title>
<g id="a_Node000002"><a xlink:href="api_8cpp.html#afd5ae51e1d1317967821de105b8fb26b" target="_top" xlink:title="Get camera property capability.">
<polygon fill="white" stroke="#666666" points="293,-70 153.25,-70 153.25,-50 293,-50 293,-70"/>
<text xml:space="preserve" text-anchor="middle" x="223.12" y="-56.5" font-family="Helvetica,sans-Serif" font-size="10.00">duvc_get_camera_capability</text>
</a>
</g>
</g>
<!-- Node1&#45;&gt;Node2 -->
<g id="edge1_Node000001_Node000002" class="edge">
<title>Node1&#45;&gt;Node2</title>
<g id="a_edge1_Node000001_Node000002"><a xlink:title=" ">
<path fill="none" stroke="#63b8ff" d="M317.68,-47.62C309.63,-48.69 301.44,-49.77 293.43,-50.83"/>
<polygon fill="#63b8ff" stroke="#63b8ff" points="317.99,-51.11 327.44,-46.33 317.07,-44.17 317.99,-51.11"/>
</a>
</g>
</g>
<!-- Node3 -->
<g id="Node000003" class="node">
<title>Node3</title>
<g id="a_Node000003"><a xlink:href="classduvc_1_1DeviceCapabilities.html#a9c71b522d0b8b8ef2317cd2f7840f544" target="_top" xlink:title="Check if camera property is supported.">
<polygon fill="white" stroke="#666666" points="291.88,-32 154.38,-32 154.38,0 291.88,0 291.88,-32"/>
<text xml:space="preserve" text-anchor="start" x="162.38" y="-18.5" font-family="Helvetica,sans-Serif" font-size="10.00">duvc::DeviceCapabilities</text>
<text xml:space="preserve" text-anchor="middle" x="223.12" y="-6.5" font-family="Helvetica,sans-Serif" font-size="10.00">::supports_camera_property</text>
</a>
</g>
</g>
<!-- Node1&#45;&gt;Node3 -->
<g id="edge2_Node000001_Node000003" class="edge">
<title>Node1&#45;&gt;Node3</title>
<g id="a_edge2_Node000001_Node000003"><a xlink:title=" ">
<path fill="none" stroke="#63b8ff" d="M317.6,-28.37C309.19,-27.26 300.64,-26.13 292.3,-25.02"/>
<polygon fill="#63b8ff" stroke="#63b8ff" points="317.07,-31.83 327.44,-29.67 317.99,-24.89 317.07,-31.83"/>
</a>
</g>
</g>
<!-- Node4 -->
<g id="Node000004" class="node">
<title>Node4</title>
<g id="a_Node000004"><a xlink:href="api_8cpp.html#a1c85439662d95e31bfeb85fb98d16a06" target="_top" xlink:title="Check if camera property is supported.">
<polygon fill="white" stroke="#666666" points="117.25,-32 0,-32 0,0 117.25,0 117.25,-32"/>
<text xml:space="preserve" text-anchor="start" x="8" y="-18.5" font-family="Helvetica,sans-Serif" font-size="10.00">duvc_supports_camera</text>
<text xml:space="preserve" text-anchor="middle" x="58.62" y="-6.5" font-family="Helvetica,sans-Serif" font-size="10.00">_property</text>
</a>
</g>
</g>
<!-- Node3&#45;&gt;Node4 -->
<g id="edge3_Node000003_Node000004" class="edge">
<title>Node3&#45;&gt;Node4</title>
<g id="a_edge3_Node000003_Node000004"><a xlink:title=" ">
<path fill="none" stroke="#63b8ff" d="M142.65,-16C134.18,-16 125.68,-16 117.53,-16"/>
<polygon fill="#63b8ff" stroke="#63b8ff" points="142.64,-19.5 152.64,-16 142.64,-12.5 142.64,-19.5"/>
</a>
</g>
</g>
</g>
</svg>
