<?xml version="1.0" encoding="UTF-8" standalone="no"?>
<!DOCTYPE svg PUBLIC "-//W3C//DTD SVG 1.1//EN"
 "http://www.w3.org/Graphics/SVG/1.1/DTD/svg11.dtd">
<!-- Generated by graphviz version 14.0.2 (20251019.1705)
 -->
<!-- Title: duvc::KsPropertySet::get_property Pages: 1 -->
<svg width="408pt" height="122pt"
 viewBox="0.00 0.00 408.00 122.00" xmlns="http://www.w3.org/2000/svg" xmlns:xlink="http://www.w3.org/1999/xlink">
<g id="graph0" class="graph" transform="scale(1 1) rotate(0) translate(4 118)">
<title>duvc::KsPropertySet::get_property</title>
<!-- Node1 -->
<g id="Node000001" class="node">
<title>Node1</title>
<g id="a_Node000001"><a xlink:title="Get property data.">
<polygon fill="#999999" stroke="#666666" points="106.75,-70 0,-70 0,-38 106.75,-38 106.75,-70"/>
<text xml:space="preserve" text-anchor="start" x="8" y="-56.5" font-family="Helvetica,sans-Serif" font-size="10.00">duvc::KsPropertySet</text>
<text xml:space="preserve" text-anchor="middle" x="53.38" y="-44.5" font-family="Helvetica,sans-Serif" font-size="10.00">::get_property</text>
</a>
</g>
</g>
<!-- Node2 -->
<g id="Node000002" class="node">
<title>Node2</title>
<g id="a_Node000002"><a xlink:href="namespaceduvc.html#acf69ea75ab1f31295af14cfba31261c2" target="_top" xlink:title="Decode HRESULT to human&#45;readable string.">
<polygon fill="white" stroke="#666666" points="251.75,-108 142.75,-108 142.75,-88 251.75,-88 251.75,-108"/>
<text xml:space="preserve" text-anchor="middle" x="197.25" y="-94.5" font-family="Helvetica,sans-Serif" font-size="10.00">duvc::decode_hresult</text>
</a>
</g>
</g>
<!-- Node1&#45;&gt;Node2 -->
<g id="edge1_Node000001_Node000002" class="edge">
<title>Node1&#45;&gt;Node2</title>
<g id="a_edge1_Node000001_Node000002"><a xlink:title=" ">
<path fill="none" stroke="#63b8ff" d="M107.2,-70.38C121.87,-74.93 137.65,-79.83 151.79,-84.21"/>
<polygon fill="#63b8ff" stroke="#63b8ff" points="150.7,-87.54 161.28,-87.16 152.77,-80.85 150.7,-87.54"/>
</a>
</g>
</g>
<!-- Node4 -->
<g id="Node000004" class="node">
<title>Node4</title>
<g id="a_Node000004"><a xlink:href="classduvc_1_1KsPropertySet.html#a6e2ecf3413c017d4a4ec309c3e90a3f7" target="_top" xlink:title="Check if property set is valid.">
<polygon fill="white" stroke="#666666" points="250.62,-70 143.88,-70 143.88,-38 250.62,-38 250.62,-70"/>
<text xml:space="preserve" text-anchor="start" x="151.88" y="-56.5" font-family="Helvetica,sans-Serif" font-size="10.00">duvc::KsPropertySet</text>
<text xml:space="preserve" text-anchor="middle" x="197.25" y="-44.5" font-family="Helvetica,sans-Serif" font-size="10.00">::is_valid</text>
</a>
</g>
</g>
<!-- Node1&#45;&gt;Node4 -->
<g id="edge3_Node000001_Node000004" class="edge">
<title>Node1&#45;&gt;Node4</title>
<g id="a_edge3_Node000001_Node000004"><a xlink:title=" ">
<path fill="none" stroke="#63b8ff" d="M107.2,-54C115.33,-54 123.79,-54 132.13,-54"/>
<polygon fill="#63b8ff" stroke="#63b8ff" points="131.86,-57.5 141.86,-54 131.86,-50.5 131.86,-57.5"/>
</a>
</g>
</g>
<!-- Node5 -->
<g id="Node000005" class="node">
<title>Node5</title>
<g id="a_Node000005"><a xlink:href="namespaceduvc.html#afc6e96946d632ab859aa1aef741646f6" target="_top" xlink:title="Helper to create successful void Result.">
<polygon fill="white" stroke="#666666" points="225.12,-20 169.38,-20 169.38,0 225.12,0 225.12,-20"/>
<text xml:space="preserve" text-anchor="middle" x="197.25" y="-6.5" font-family="Helvetica,sans-Serif" font-size="10.00">duvc::Ok</text>
</a>
</g>
</g>
<!-- Node1&#45;&gt;Node5 -->
<g id="edge4_Node000001_Node000005" class="edge">
<title>Node1&#45;&gt;Node5</title>
<g id="a_edge4_Node000001_Node000005"><a xlink:title=" ">
<path fill="none" stroke="#63b8ff" d="M107.2,-37.62C124.19,-32.35 142.67,-26.62 158.36,-21.75"/>
<polygon fill="#63b8ff" stroke="#63b8ff" points="159.28,-25.13 167.8,-18.82 157.21,-18.44 159.28,-25.13"/>
</a>
</g>
</g>
<!-- Node3 -->
<g id="Node000003" class="node">
<title>Node3</title>
<g id="a_Node000003"><a xlink:href="namespaceduvc.html#ad674a2332aaccc15fb24ab7fad6632f4" target="_top" xlink:title="Decode system error code to human&#45;readable string.">
<polygon fill="white" stroke="#666666" points="399.75,-114 287.75,-114 287.75,-82 399.75,-82 399.75,-114"/>
<text xml:space="preserve" text-anchor="start" x="295.75" y="-100.5" font-family="Helvetica,sans-Serif" font-size="10.00">duvc::decode_system</text>
<text xml:space="preserve" text-anchor="middle" x="343.75" y="-88.5" font-family="Helvetica,sans-Serif" font-size="10.00">_error</text>
</a>
</g>
</g>
<!-- Node2&#45;&gt;Node3 -->
<g id="edge2_Node000002_Node000003" class="edge">
<title>Node2&#45;&gt;Node3</title>
<g id="a_edge2_Node000002_Node000003"><a xlink:title=" ">
<path fill="none" stroke="#63b8ff" d="M252.06,-98C259.91,-98 268.08,-98 276.15,-98"/>
<polygon fill="#63b8ff" stroke="#63b8ff" points="275.94,-101.5 285.94,-98 275.94,-94.5 275.94,-101.5"/>
</a>
</g>
</g>
</g>
</svg>
