<?xml version="1.0" encoding="UTF-8" standalone="no"?>
<!DOCTYPE svg PUBLIC "-//W3C//DTD SVG 1.1//EN"
 "http://www.w3.org/Graphics/SVG/1.1/DTD/svg11.dtd">
<!-- Generated by graphviz version 14.0.2 (20251019.1705)
 -->
<!-- Title: duvc::Result::value Pages: 1 -->
<svg width="433pt" height="520pt"
 viewBox="0.00 0.00 433.00 520.00" xmlns="http://www.w3.org/2000/svg" xmlns:xlink="http://www.w3.org/1999/xlink">
<g id="graph0" class="graph" transform="scale(1 1) rotate(0) translate(4 516)">
<title>duvc::Result::value</title>
<!-- Node1 -->
<g id="Node000001" class="node">
<title>Node1</title>
<g id="a_Node000001"><a xlink:title="Get the value (assumes success)">
<polygon fill="#999999" stroke="#666666" points="424.5,-260 323.75,-260 323.75,-240 424.5,-240 424.5,-260"/>
<text xml:space="preserve" text-anchor="middle" x="374.12" y="-246.5" font-family="Helvetica,sans-Serif" font-size="10.00">duvc::Result::value</text>
</a>
</g>
</g>
<!-- Node2 -->
<g id="Node000002" class="node">
<title>Node2</title>
<g id="a_Node000002"><a xlink:href="classduvc_1_1DeviceConnection.html#aac59736bb276c7c518f9dc2da0f0fa42" target="_top" xlink:title=" ">
<polygon fill="white" stroke="#666666" points="287.75,-512 145,-512 145,-492 287.75,-492 287.75,-512"/>
<text xml:space="preserve" text-anchor="middle" x="216.38" y="-498.5" font-family="Helvetica,sans-Serif" font-size="10.00">duvc::DeviceConnection::get</text>
</a>
</g>
</g>
<!-- Node1&#45;&gt;Node2 -->
<g id="edge1_Node000001_Node000002" class="edge">
<title>Node1&#45;&gt;Node2</title>
<g id="a_edge1_Node000001_Node000002"><a xlink:title=" ">
<path fill="none" stroke="#63b8ff" d="M371.64,-271.64C367.31,-317.59 350.63,-425.4 287.75,-483 284.02,-486.42 279.73,-489.23 275.16,-491.55"/>
<polygon fill="#63b8ff" stroke="#63b8ff" points="375.13,-271.94 372.46,-261.69 368.16,-271.37 375.13,-271.94"/>
</a>
</g>
</g>
<!-- Node3 -->
<g id="Node000003" class="node">
<title>Node3</title>
<g id="a_Node000003"><a xlink:href="group__quickapi.html#ga03a46d69b1f9bc18596e1085b5161ef0" target="_top" xlink:title="Get a camera control property value.">
<polygon fill="white" stroke="#666666" points="244.62,-474 188.12,-474 188.12,-454 244.62,-454 244.62,-474"/>
<text xml:space="preserve" text-anchor="middle" x="216.38" y="-460.5" font-family="Helvetica,sans-Serif" font-size="10.00">duvc::get</text>
</a>
</g>
</g>
<!-- Node1&#45;&gt;Node3 -->
<g id="edge2_Node000001_Node000003" class="edge">
<title>Node1&#45;&gt;Node3</title>
<g id="a_edge2_Node000001_Node000003"><a xlink:title=" ">
<path fill="none" stroke="#63b8ff" d="M369.89,-271.66C362.7,-311.98 341.57,-398.65 287.75,-445 275.95,-455.16 259.25,-459.94 245.07,-462.17"/>
<polygon fill="#63b8ff" stroke="#63b8ff" points="373.34,-272.24 371.51,-261.8 366.43,-271.1 373.34,-272.24"/>
</a>
</g>
</g>
<!-- Node6 -->
<g id="Node000006" class="node">
<title>Node6</title>
<g id="a_Node000006"><a xlink:href="group__quickapi.html#gabe50c1b736f2782a0019091d6ddab5c6" target="_top" xlink:title="Get a video processing property value.">
<polygon fill="white" stroke="#666666" points="244.62,-436 188.12,-436 188.12,-416 244.62,-416 244.62,-436"/>
<text xml:space="preserve" text-anchor="middle" x="216.38" y="-422.5" font-family="Helvetica,sans-Serif" font-size="10.00">duvc::get</text>
</a>
</g>
</g>
<!-- Node1&#45;&gt;Node6 -->
<g id="edge5_Node000001_Node000006" class="edge">
<title>Node1&#45;&gt;Node6</title>
<g id="a_edge5_Node000001_Node000006"><a xlink:title=" ">
<path fill="none" stroke="#63b8ff" d="M367.5,-271.19C357.39,-305.1 332.86,-371.39 287.75,-407 275.63,-416.57 259.08,-421.33 245.07,-423.7"/>
<polygon fill="#63b8ff" stroke="#63b8ff" points="370.83,-272.3 370.18,-261.73 364.09,-270.4 370.83,-272.3"/>
</a>
</g>
</g>
<!-- Node7 -->
<g id="Node000007" class="node">
<title>Node7</title>
<g id="a_Node000007"><a xlink:href="classduvc_1_1DeviceConnection.html#ae2f8eee0fcac533247cd79b5e148cbf3" target="_top" xlink:title=" ">
<polygon fill="white" stroke="#666666" points="287.75,-398 145,-398 145,-378 287.75,-378 287.75,-398"/>
<text xml:space="preserve" text-anchor="middle" x="216.38" y="-384.5" font-family="Helvetica,sans-Serif" font-size="10.00">duvc::DeviceConnection::get</text>
</a>
</g>
</g>
<!-- Node1&#45;&gt;Node7 -->
<g id="edge6_Node000001_Node000007" class="edge">
<title>Node1&#45;&gt;Node7</title>
<g id="a_edge6_Node000001_Node000007"><a xlink:title=" ">
<path fill="none" stroke="#63b8ff" d="M363.88,-270.59C350.79,-297.35 324.32,-343.65 287.75,-369 282.76,-372.46 277.16,-375.29 271.37,-377.61"/>
<polygon fill="#63b8ff" stroke="#63b8ff" points="366.92,-272.34 368.01,-261.8 360.59,-269.36 366.92,-272.34"/>
</a>
</g>
</g>
<!-- Node8 -->
<g id="Node000008" class="node">
<title>Node8</title>
<g id="a_Node000008"><a xlink:href="namespaceduvc_1_1logitech.html#a4f494bd801c993f6d3c46b3c37a4b72e" target="_top" xlink:title="Get typed Logitech property value.">
<polygon fill="white" stroke="#666666" points="278.75,-360 154,-360 154,-328 278.75,-328 278.75,-360"/>
<text xml:space="preserve" text-anchor="start" x="162" y="-346.5" font-family="Helvetica,sans-Serif" font-size="10.00">duvc::logitech::get</text>
<text xml:space="preserve" text-anchor="middle" x="216.38" y="-334.5" font-family="Helvetica,sans-Serif" font-size="10.00">_logitech_property_typed</text>
</a>
</g>
</g>
<!-- Node1&#45;&gt;Node8 -->
<g id="edge7_Node000001_Node000008" class="edge">
<title>Node1&#45;&gt;Node8</title>
<g id="a_edge7_Node000001_Node000008"><a xlink:title=" ">
<path fill="none" stroke="#63b8ff" d="M354.5,-268.2C338.06,-283.45 312.86,-304.94 287.75,-319 282.09,-322.17 275.96,-325.05 269.76,-327.64"/>
<polygon fill="#63b8ff" stroke="#63b8ff" points="356.73,-270.91 361.58,-261.49 351.91,-265.83 356.73,-270.91"/>
</a>
</g>
</g>
<!-- Node9 -->
<g id="Node000009" class="node">
<title>Node9</title>
<g id="a_Node000009"><a xlink:href="classduvc_1_1KsPropertySet.html#a21e491235b83bacb4fd55e96d2b603f6" target="_top" xlink:title="Get typed property value.">
<polygon fill="white" stroke="#666666" points="269.75,-310 163,-310 163,-278 269.75,-278 269.75,-310"/>
<text xml:space="preserve" text-anchor="start" x="171" y="-296.5" font-family="Helvetica,sans-Serif" font-size="10.00">duvc::KsPropertySet</text>
<text xml:space="preserve" text-anchor="middle" x="216.38" y="-284.5" font-family="Helvetica,sans-Serif" font-size="10.00">::get_property_typed</text>
</a>
</g>
</g>
<!-- Node1&#45;&gt;Node9 -->
<g id="edge8_Node000001_Node000009" class="edge">
<title>Node1&#45;&gt;Node9</title>
<g id="a_edge8_Node000001_Node000009"><a xlink:title=" ">
<path fill="none" stroke="#63b8ff" d="M325.17,-263.55C307.77,-268.46 288.03,-274.04 270.23,-279.07"/>
<polygon fill="#63b8ff" stroke="#63b8ff" points="326.09,-266.93 334.76,-260.84 324.18,-260.19 326.09,-266.93"/>
</a>
</g>
</g>
<!-- Node10 -->
<g id="Node000010" class="node">
<title>Node10</title>
<g id="a_Node000010"><a xlink:href="group__quickapi.html#gaf73ccab11e1e8cb1a7311ad6e5d59f61" target="_top" xlink:title="Get the valid range for a camera control property.">
<polygon fill="white" stroke="#666666" points="259.25,-260 173.5,-260 173.5,-240 259.25,-240 259.25,-260"/>
<text xml:space="preserve" text-anchor="middle" x="216.38" y="-246.5" font-family="Helvetica,sans-Serif" font-size="10.00">duvc::get_range</text>
</a>
</g>
</g>
<!-- Node1&#45;&gt;Node10 -->
<g id="edge9_Node000001_Node000010" class="edge">
<title>Node1&#45;&gt;Node10</title>
<g id="a_edge9_Node000001_Node000010"><a xlink:title=" ">
<path fill="none" stroke="#63b8ff" d="M312.08,-250C294.5,-250 275.72,-250 259.55,-250"/>
<polygon fill="#63b8ff" stroke="#63b8ff" points="311.9,-253.5 321.9,-250 311.9,-246.5 311.9,-253.5"/>
</a>
</g>
</g>
<!-- Node13 -->
<g id="Node000013" class="node">
<title>Node13</title>
<g id="a_Node000013"><a xlink:href="group__quickapi.html#gaad1b7b0ffab91ab840285893caecdf48" target="_top" xlink:title="Get the valid range for a video processing property.">
<polygon fill="white" stroke="#666666" points="259.25,-222 173.5,-222 173.5,-202 259.25,-202 259.25,-222"/>
<text xml:space="preserve" text-anchor="middle" x="216.38" y="-208.5" font-family="Helvetica,sans-Serif" font-size="10.00">duvc::get_range</text>
</a>
</g>
</g>
<!-- Node1&#45;&gt;Node13 -->
<g id="edge12_Node000001_Node000013" class="edge">
<title>Node1&#45;&gt;Node13</title>
<g id="a_edge12_Node000001_Node000013"><a xlink:title=" ">
<path fill="none" stroke="#63b8ff" d="M319,-236.8C299.57,-232.05 277.95,-226.78 259.67,-222.32"/>
<polygon fill="#63b8ff" stroke="#63b8ff" points="318.14,-240.19 328.68,-239.16 319.8,-233.39 318.14,-240.19"/>
</a>
</g>
</g>
<!-- Node14 -->
<g id="Node000014" class="node">
<title>Node14</title>
<g id="a_Node000014"><a xlink:href="classduvc_1_1DeviceConnection.html#aaf856b49cae449d542431bd30ba5d931" target="_top" xlink:title=" ">
<polygon fill="white" stroke="#666666" points="287.75,-184 145,-184 145,-164 287.75,-164 287.75,-184"/>
<text xml:space="preserve" text-anchor="middle" x="216.38" y="-170.5" font-family="Helvetica,sans-Serif" font-size="10.00">duvc::DeviceConnection::set</text>
</a>
</g>
</g>
<!-- Node1&#45;&gt;Node14 -->
<g id="edge13_Node000001_Node000014" class="edge">
<title>Node1&#45;&gt;Node14</title>
<g id="a_edge13_Node000001_Node000014"><a xlink:title=" ">
<path fill="none" stroke="#63b8ff" d="M351.74,-232.85C335.14,-220.27 311.08,-203.59 287.75,-193 280.49,-189.7 272.54,-186.88 264.68,-184.49"/>
<polygon fill="#63b8ff" stroke="#63b8ff" points="349.35,-235.43 359.4,-238.78 353.64,-229.89 349.35,-235.43"/>
</a>
</g>
</g>
<!-- Node15 -->
<g id="Node000015" class="node">
<title>Node15</title>
<g id="a_Node000015"><a xlink:href="classduvc_1_1DeviceConnection.html#aa2752d34ca21c524125877f7a7983087" target="_top" xlink:title=" ">
<polygon fill="white" stroke="#666666" points="287.75,-146 145,-146 145,-126 287.75,-126 287.75,-146"/>
<text xml:space="preserve" text-anchor="middle" x="216.38" y="-132.5" font-family="Helvetica,sans-Serif" font-size="10.00">duvc::DeviceConnection::set</text>
</a>
</g>
</g>
<!-- Node1&#45;&gt;Node15 -->
<g id="edge14_Node000001_Node000015" class="edge">
<title>Node1&#45;&gt;Node15</title>
<g id="a_edge14_Node000001_Node000015"><a xlink:title=" ">
<path fill="none" stroke="#63b8ff" d="M360.48,-230.12C345.65,-208.44 319.08,-174.26 287.75,-155 282.14,-151.55 275.91,-148.72 269.54,-146.4"/>
<polygon fill="#63b8ff" stroke="#63b8ff" points="357.51,-231.98 365.95,-238.38 363.34,-228.11 357.51,-231.98"/>
</a>
</g>
</g>
<!-- Node16 -->
<g id="Node000016" class="node">
<title>Node16</title>
<g id="a_Node000016"><a xlink:href="namespaceduvc_1_1logitech.html#a376caa27f086fe3d1ede2c24201ab9f3" target="_top" xlink:title="Check if device supports Logitech vendor properties.">
<polygon fill="white" stroke="#666666" points="276.5,-108 156.25,-108 156.25,-76 276.5,-76 276.5,-108"/>
<text xml:space="preserve" text-anchor="start" x="164.25" y="-94.5" font-family="Helvetica,sans-Serif" font-size="10.00">duvc::logitech::supports</text>
<text xml:space="preserve" text-anchor="middle" x="216.38" y="-82.5" font-family="Helvetica,sans-Serif" font-size="10.00">_logitech_properties</text>
</a>
</g>
</g>
<!-- Node1&#45;&gt;Node16 -->
<g id="edge15_Node000001_Node000016" class="edge">
<title>Node1&#45;&gt;Node16</title>
<g id="a_edge15_Node000001_Node000016"><a xlink:title=" ">
<path fill="none" stroke="#63b8ff" d="M364.92,-229.14C352.46,-200.05 326.1,-147.43 287.75,-117 283.69,-113.78 279.18,-110.95 274.46,-108.47"/>
<polygon fill="#63b8ff" stroke="#63b8ff" points="361.65,-230.4 368.7,-238.31 368.12,-227.73 361.65,-230.4"/>
</a>
</g>
</g>
<!-- Node17 -->
<g id="Node000017" class="node">
<title>Node17</title>
<g id="a_Node000017"><a xlink:href="classduvc_1_1Result.html#a304ed12ed59a1cc9c4f66ab5f71adff1" target="_top" xlink:title="Get value or default if error.">
<polygon fill="white" stroke="#666666" points="273.5,-58 159.25,-58 159.25,-38 273.5,-38 273.5,-58"/>
<text xml:space="preserve" text-anchor="middle" x="216.38" y="-44.5" font-family="Helvetica,sans-Serif" font-size="10.00">duvc::Result::value_or</text>
</a>
</g>
</g>
<!-- Node1&#45;&gt;Node17 -->
<g id="edge16_Node000001_Node000017" class="edge">
<title>Node1&#45;&gt;Node17</title>
<g id="a_edge16_Node000001_Node000017"><a xlink:title=" ">
<path fill="none" stroke="#63b8ff" d="M369.25,-228.61C361.18,-190.3 338.87,-109.97 287.75,-67 283.58,-63.5 278.83,-60.64 273.81,-58.3"/>
<polygon fill="#63b8ff" stroke="#63b8ff" points="365.81,-229.26 371.18,-238.39 372.68,-227.91 365.81,-229.26"/>
</a>
</g>
</g>
<!-- Node18 -->
<g id="Node000018" class="node">
<title>Node18</title>
<g id="a_Node000018"><a xlink:href="classduvc_1_1Result.html#aec1adca42af9304ee0d6d2327a73083f" target="_top" xlink:title="Get value or default if error.">
<polygon fill="white" stroke="#666666" points="273.5,-20 159.25,-20 159.25,0 273.5,0 273.5,-20"/>
<text xml:space="preserve" text-anchor="middle" x="216.38" y="-6.5" font-family="Helvetica,sans-Serif" font-size="10.00">duvc::Result::value_or</text>
</a>
</g>
</g>
<!-- Node1&#45;&gt;Node18 -->
<g id="edge17_Node000001_Node000018" class="edge">
<title>Node1&#45;&gt;Node18</title>
<g id="a_edge17_Node000001_Node000018"><a xlink:title=" ">
<path fill="none" stroke="#63b8ff" d="M371.14,-228.25C365.91,-183.97 347.71,-82.97 287.75,-29 283.61,-25.27 278.82,-22.27 273.71,-19.84"/>
<polygon fill="#63b8ff" stroke="#63b8ff" points="367.65,-228.53 372.18,-238.1 374.61,-227.79 367.65,-228.53"/>
</a>
</g>
</g>
<!-- Node4 -->
<g id="Node000004" class="node">
<title>Node4</title>
<g id="a_Node000004"><a xlink:href="bindings_8cpp.html#a2eeaa75b5bece22f8ece44907ed9f569" target="_top" xlink:title=" ">
<polygon fill="white" stroke="#666666" points="94.38,-493 14.62,-493 14.62,-473 94.38,-473 94.38,-493"/>
<text xml:space="preserve" text-anchor="middle" x="54.5" y="-479.5" font-family="Helvetica,sans-Serif" font-size="10.00">duvc_cam_get</text>
</a>
</g>
</g>
<!-- Node3&#45;&gt;Node4 -->
<g id="edge3_Node000003_Node000004" class="edge">
<title>Node3&#45;&gt;Node4</title>
<g id="a_edge3_Node000003_Node000004"><a xlink:title=" ">
<path fill="none" stroke="#63b8ff" d="M176.68,-468.6C151.79,-471.56 119.55,-475.39 94.58,-478.36"/>
<polygon fill="#63b8ff" stroke="#63b8ff" points="176.87,-472.1 186.39,-467.44 176.05,-465.15 176.87,-472.1"/>
</a>
</g>
</g>
<!-- Node5 -->
<g id="Node000005" class="node">
<title>Node5</title>
<g id="a_Node000005"><a xlink:href="bindings_8cpp.html#a2ef0f3ef211dffa60691ec69734cb8ba" target="_top" xlink:title=" ">
<polygon fill="white" stroke="#666666" points="91.38,-455 17.62,-455 17.62,-435 91.38,-435 91.38,-455"/>
<text xml:space="preserve" text-anchor="middle" x="54.5" y="-441.5" font-family="Helvetica,sans-Serif" font-size="10.00">duvc_vid_get</text>
</a>
</g>
</g>
<!-- Node3&#45;&gt;Node5 -->
<g id="edge4_Node000003_Node000005" class="edge">
<title>Node3&#45;&gt;Node5</title>
<g id="a_edge4_Node000003_Node000005"><a xlink:title=" ">
<path fill="none" stroke="#63b8ff" d="M176.62,-459.39C150.73,-456.32 116.93,-452.3 91.61,-449.29"/>
<polygon fill="#63b8ff" stroke="#63b8ff" points="176.05,-462.85 186.39,-460.56 176.87,-455.9 176.05,-462.85"/>
</a>
</g>
</g>
<!-- Node11 -->
<g id="Node000011" class="node">
<title>Node11</title>
<g id="a_Node000011"><a xlink:href="bindings_8cpp.html#a7e5b8b6d1b9f093497e11e827ee56004" target="_top" xlink:title=" ">
<polygon fill="white" stroke="#666666" points="109,-279 0,-279 0,-259 109,-259 109,-279"/>
<text xml:space="preserve" text-anchor="middle" x="54.5" y="-265.5" font-family="Helvetica,sans-Serif" font-size="10.00">duvc_cam_get_range</text>
</a>
</g>
</g>
<!-- Node10&#45;&gt;Node11 -->
<g id="edge10_Node000010_Node000011" class="edge">
<title>Node10&#45;&gt;Node11</title>
<g id="a_edge10_Node000010_Node000011"><a xlink:title=" ">
<path fill="none" stroke="#63b8ff" d="M161.96,-256.35C145.01,-258.36 126.26,-260.59 109.28,-262.61"/>
<polygon fill="#63b8ff" stroke="#63b8ff" points="162.35,-259.83 171.87,-255.17 161.52,-252.88 162.35,-259.83"/>
</a>
</g>
</g>
<!-- Node12 -->
<g id="Node000012" class="node">
<title>Node12</title>
<g id="a_Node000012"><a xlink:href="bindings_8cpp.html#afeb5120c76b876c78b2d47af23770647" target="_top" xlink:title=" ">
<polygon fill="white" stroke="#666666" points="106,-241 3,-241 3,-221 106,-221 106,-241"/>
<text xml:space="preserve" text-anchor="middle" x="54.5" y="-227.5" font-family="Helvetica,sans-Serif" font-size="10.00">duvc_vid_get_range</text>
</a>
</g>
</g>
<!-- Node10&#45;&gt;Node12 -->
<g id="edge11_Node000010_Node000012" class="edge">
<title>Node10&#45;&gt;Node12</title>
<g id="a_edge11_Node000010_Node000012"><a xlink:title=" ">
<path fill="none" stroke="#63b8ff" d="M162.18,-243.68C144.18,-241.54 124.15,-239.16 106.34,-237.04"/>
<polygon fill="#63b8ff" stroke="#63b8ff" points="161.52,-247.12 171.87,-244.83 162.35,-240.17 161.52,-247.12"/>
</a>
</g>
</g>
</g>
</svg>
