<?xml version="1.0" encoding="UTF-8" standalone="no"?>
<!DOCTYPE svg PUBLIC "-//W3C//DTD SVG 1.1//EN"
 "http://www.w3.org/Graphics/SVG/1.1/DTD/svg11.dtd">
<!-- Generated by graphviz version 14.0.2 (20251019.1705)
 -->
<!-- Title: duvc::Camera::Camera Pages: 1 -->
<svg width="705pt" height="142pt"
 viewBox="0.00 0.00 705.00 142.00" xmlns="http://www.w3.org/2000/svg" xmlns:xlink="http://www.w3.org/1999/xlink">
<g id="graph0" class="graph" transform="scale(1 1) rotate(0) translate(4 138)">
<title>duvc::Camera::Camera</title>
<!-- Node1 -->
<g id="Node000001" class="node">
<title>Node1</title>
<g id="a_Node000001"><a xlink:title="Create camera handle by device index.">
<polygon fill="#999999" stroke="#666666" points="118,-77 0,-77 0,-57 118,-57 118,-77"/>
<text xml:space="preserve" text-anchor="middle" x="59" y="-63.5" font-family="Helvetica,sans-Serif" font-size="10.00">duvc::Camera::Camera</text>
</a>
</g>
</g>
<!-- Node2 -->
<g id="Node000002" class="node">
<title>Node2</title>
<g id="a_Node000002"><a xlink:href="namespaceduvc.html#a2c254074ce671320e3e57c56a9389ac1" target="_top" xlink:title="Enumerate all available video input devices.">
<polygon fill="white" stroke="#666666" points="248.75,-77 154,-77 154,-57 248.75,-57 248.75,-77"/>
<text xml:space="preserve" text-anchor="middle" x="201.38" y="-63.5" font-family="Helvetica,sans-Serif" font-size="10.00">duvc::list_devices</text>
</a>
</g>
</g>
<!-- Node1&#45;&gt;Node2 -->
<g id="edge1_Node000001_Node000002" class="edge">
<title>Node1&#45;&gt;Node2</title>
<g id="a_edge1_Node000001_Node000002"><a xlink:title=" ">
<path fill="none" stroke="#63b8ff" d="M118.31,-67C126.21,-67 134.31,-67 142.2,-67"/>
<polygon fill="#63b8ff" stroke="#63b8ff" points="142.05,-70.5 152.05,-67 142.05,-63.5 142.05,-70.5"/>
</a>
</g>
</g>
<!-- Node3 -->
<g id="Node000003" class="node">
<title>Node3</title>
<g id="a_Node000003"><a xlink:href="namespaceduvc.html#ab7299b8597bf14b18b8351278c209188" target="_top" xlink:title="Create DirectShow device enumerator.">
<polygon fill="white" stroke="#666666" points="412.12,-134 291.88,-134 291.88,-114 412.12,-114 412.12,-134"/>
<text xml:space="preserve" text-anchor="middle" x="352" y="-120.5" font-family="Helvetica,sans-Serif" font-size="10.00">duvc::create_dev_enum</text>
</a>
</g>
</g>
<!-- Node2&#45;&gt;Node3 -->
<g id="edge2_Node000002_Node000003" class="edge">
<title>Node2&#45;&gt;Node3</title>
<g id="a_edge2_Node000002_Node000003"><a xlink:title=" ">
<path fill="none" stroke="#63b8ff" d="M222.66,-77.41C239.11,-85.6 263.05,-96.94 284.75,-105 289.68,-106.83 294.87,-108.59 300.08,-110.26"/>
<polygon fill="#63b8ff" stroke="#63b8ff" points="298.71,-113.5 309.29,-113.08 300.76,-106.8 298.71,-113.5"/>
</a>
</g>
</g>
<!-- Node6 -->
<g id="Node000006" class="node">
<title>Node6</title>
<g id="a_Node000006"><a xlink:href="namespaceduvc.html#a1a577c6cd7e4b3106d6f95c15bbceeed" target="_top" xlink:title="Enumerate video input devices.">
<polygon fill="white" stroke="#666666" points="419.25,-96 284.75,-96 284.75,-76 419.25,-76 419.25,-96"/>
<text xml:space="preserve" text-anchor="middle" x="352" y="-82.5" font-family="Helvetica,sans-Serif" font-size="10.00">duvc::enum_video_devices</text>
</a>
</g>
</g>
<!-- Node2&#45;&gt;Node6 -->
<g id="edge5_Node000002_Node000006" class="edge">
<title>Node2&#45;&gt;Node6</title>
<g id="a_edge5_Node000002_Node000006"><a xlink:title=" ">
<path fill="none" stroke="#63b8ff" d="M248.99,-72.96C256.72,-73.95 264.91,-74.99 273.16,-76.05"/>
<polygon fill="#63b8ff" stroke="#63b8ff" points="272.54,-79.5 282.91,-77.29 273.43,-72.56 272.54,-79.5"/>
</a>
</g>
</g>
<!-- Node7 -->
<g id="Node000007" class="node">
<title>Node7</title>
<g id="a_Node000007"><a xlink:href="namespaceduvc.html#a2c2b6f32c6871ad36ae0bf98d9374fd0" target="_top" xlink:title="Read device path from moniker.">
<polygon fill="white" stroke="#666666" points="411.75,-58 292.25,-58 292.25,-38 411.75,-38 411.75,-58"/>
<text xml:space="preserve" text-anchor="middle" x="352" y="-44.5" font-family="Helvetica,sans-Serif" font-size="10.00">duvc::read_device_path</text>
</a>
</g>
</g>
<!-- Node2&#45;&gt;Node7 -->
<g id="edge7_Node000002_Node000007" class="edge">
<title>Node2&#45;&gt;Node7</title>
<g id="a_edge7_Node000002_Node000007"><a xlink:title=" ">
<path fill="none" stroke="#63b8ff" d="M248.99,-61.04C259.1,-59.75 270.01,-58.35 280.8,-56.97"/>
<polygon fill="#63b8ff" stroke="#63b8ff" points="280.99,-60.48 290.46,-55.74 280.1,-53.54 280.99,-60.48"/>
</a>
</g>
</g>
<!-- Node9 -->
<g id="Node000009" class="node">
<title>Node9</title>
<g id="a_Node000009"><a xlink:href="namespaceduvc.html#a019644436e5f0add38b6242843b79fef" target="_top" xlink:title="Read friendly name from device moniker.">
<polygon fill="white" stroke="#666666" points="415.88,-20 288.12,-20 288.12,0 415.88,0 415.88,-20"/>
<text xml:space="preserve" text-anchor="middle" x="352" y="-6.5" font-family="Helvetica,sans-Serif" font-size="10.00">duvc::read_friendly_name</text>
</a>
</g>
</g>
<!-- Node2&#45;&gt;Node9 -->
<g id="edge9_Node000002_Node000009" class="edge">
<title>Node2&#45;&gt;Node9</title>
<g id="a_edge9_Node000002_Node000009"><a xlink:title=" ">
<path fill="none" stroke="#63b8ff" d="M222.66,-56.59C239.11,-48.4 263.05,-37.06 284.75,-29 289.68,-27.17 294.87,-25.41 300.08,-23.74"/>
<polygon fill="#63b8ff" stroke="#63b8ff" points="300.76,-27.2 309.29,-20.92 298.71,-20.5 300.76,-27.2"/>
</a>
</g>
</g>
<!-- Node4 -->
<g id="Node000004" class="node">
<title>Node4</title>
<g id="a_Node000004"><a xlink:href="namespaceduvc.html#a21b444574354018097d4489a9ff0ff9e" target="_top" xlink:title=" ">
<polygon fill="white" stroke="#666666" points="549.25,-115 468.75,-115 468.75,-95 549.25,-95 549.25,-115"/>
<text xml:space="preserve" text-anchor="middle" x="509" y="-101.5" font-family="Helvetica,sans-Serif" font-size="10.00">duvc::throw_hr</text>
</a>
</g>
</g>
<!-- Node3&#45;&gt;Node4 -->
<g id="edge3_Node000003_Node000004" class="edge">
<title>Node3&#45;&gt;Node4</title>
<g id="a_edge3_Node000003_Node000004"><a xlink:title=" ">
<path fill="none" stroke="#63b8ff" d="M412.48,-116.71C427.3,-114.89 443.05,-112.96 457.4,-111.2"/>
<polygon fill="#63b8ff" stroke="#63b8ff" points="457.56,-114.71 467.06,-110.02 456.71,-107.76 457.56,-114.71"/>
</a>
</g>
</g>
<!-- Node5 -->
<g id="Node000005" class="node">
<title>Node5</title>
<g id="a_Node000005"><a xlink:href="namespaceduvc.html#a02d5c5b2e56515cee2cad9057af0467d" target="_top" xlink:title=" ">
<polygon fill="white" stroke="#666666" points="697.25,-115 598.75,-115 598.75,-95 697.25,-95 697.25,-115"/>
<text xml:space="preserve" text-anchor="middle" x="648" y="-101.5" font-family="Helvetica,sans-Serif" font-size="10.00">duvc::wide_to_utf8</text>
</a>
</g>
</g>
<!-- Node4&#45;&gt;Node5 -->
<g id="edge4_Node000004_Node000005" class="edge">
<title>Node4&#45;&gt;Node5</title>
<g id="a_edge4_Node000004_Node000005"><a xlink:title=" ">
<path fill="none" stroke="#63b8ff" d="M549.63,-105C561.36,-105 574.49,-105 587.2,-105"/>
<polygon fill="#63b8ff" stroke="#63b8ff" points="587.2,-108.5 597.2,-105 587.2,-101.5 587.2,-108.5"/>
</a>
</g>
</g>
<!-- Node6&#45;&gt;Node4 -->
<g id="edge6_Node000006_Node000004" class="edge">
<title>Node6&#45;&gt;Node4</title>
<g id="a_edge6_Node000006_Node000004"><a xlink:title=" ">
<path fill="none" stroke="#63b8ff" d="M419.63,-94.17C432.19,-95.71 445.14,-97.29 457.12,-98.76"/>
<polygon fill="#63b8ff" stroke="#63b8ff" points="456.42,-102.2 466.77,-99.95 457.27,-95.26 456.42,-102.2"/>
</a>
</g>
</g>
<!-- Node8 -->
<g id="Node000008" class="node">
<title>Node8</title>
<g id="a_Node000008"><a xlink:href="namespaceduvc.html#a0dbd37821c1cae29fa72d44e3dbd0583" target="_top" xlink:title=" ">
<polygon fill="white" stroke="#666666" points="562.75,-39 455.25,-39 455.25,-19 562.75,-19 562.75,-39"/>
<text xml:space="preserve" text-anchor="middle" x="509" y="-25.5" font-family="Helvetica,sans-Serif" font-size="10.00">duvc::read_prop_bstr</text>
</a>
</g>
</g>
<!-- Node7&#45;&gt;Node8 -->
<g id="edge8_Node000007_Node000008" class="edge">
<title>Node7&#45;&gt;Node8</title>
<g id="a_edge8_Node000007_Node000008"><a xlink:title=" ">
<path fill="none" stroke="#63b8ff" d="M412.04,-40.76C422.41,-39.49 433.24,-38.16 443.74,-36.88"/>
<polygon fill="#63b8ff" stroke="#63b8ff" points="443.96,-40.38 453.46,-35.68 443.11,-33.43 443.96,-40.38"/>
</a>
</g>
</g>
<!-- Node9&#45;&gt;Node8 -->
<g id="edge10_Node000009_Node000008" class="edge">
<title>Node9&#45;&gt;Node8</title>
<g id="a_edge10_Node000009_Node000008"><a xlink:title=" ">
<path fill="none" stroke="#63b8ff" d="M416.04,-17.73C425.12,-18.84 434.47,-19.99 443.57,-21.1"/>
<polygon fill="#63b8ff" stroke="#63b8ff" points="443.07,-24.57 453.43,-22.31 443.93,-17.62 443.07,-24.57"/>
</a>
</g>
</g>
</g>
</svg>
