<?xml version="1.0" encoding="UTF-8" standalone="no"?>
<!DOCTYPE svg PUBLIC "-//W3C//DTD SVG 1.1//EN"
 "http://www.w3.org/Graphics/SVG/1.1/DTD/svg11.dtd">
<!-- Generated by graphviz version 14.0.2 (20251019.1705)
 -->
<!-- Title: duvc::DeviceConnection::get_range Pages: 1 -->
<svg width="295pt" height="66pt"
 viewBox="0.00 0.00 295.00 66.00" xmlns="http://www.w3.org/2000/svg" xmlns:xlink="http://www.w3.org/1999/xlink">
<g id="graph0" class="graph" transform="scale(1 1) rotate(0) translate(4 62)">
<title>duvc::DeviceConnection::get_range</title>
<!-- Node1 -->
<g id="Node000001" class="node">
<title>Node1</title>
<g id="a_Node000001"><a xlink:title=" ">
<polygon fill="#999999" stroke="#666666" points="123.25,-45 0,-45 0,-13 123.25,-13 123.25,-45"/>
<text xml:space="preserve" text-anchor="start" x="8" y="-31.5" font-family="Helvetica,sans-Serif" font-size="10.00">duvc::DeviceConnection</text>
<text xml:space="preserve" text-anchor="middle" x="61.62" y="-19.5" font-family="Helvetica,sans-Serif" font-size="10.00">::get_range</text>
</a>
</g>
</g>
<!-- Node2 -->
<g id="Node000002" class="node">
<title>Node2</title>
<g id="a_Node000002"><a xlink:href="namespaceduvc.html#ad928c817c788cc4ad08adccaf54a1892" target="_top" xlink:title=" ">
<polygon fill="white" stroke="#666666" points="287,-58 159.25,-58 159.25,-38 287,-38 287,-58"/>
<text xml:space="preserve" text-anchor="middle" x="223.12" y="-44.5" font-family="Helvetica,sans-Serif" font-size="10.00">duvc::camprop_to_dshow</text>
</a>
</g>
</g>
<!-- Node1&#45;&gt;Node2 -->
<g id="edge1_Node000001_Node000002" class="edge">
<title>Node1&#45;&gt;Node2</title>
<g id="a_edge1_Node000001_Node000002"><a xlink:title=" ">
<path fill="none" stroke="#63b8ff" d="M123.38,-36.24C131.28,-37.18 139.44,-38.15 147.53,-39.11"/>
<polygon fill="#63b8ff" stroke="#63b8ff" points="147.04,-42.58 157.39,-40.29 147.87,-35.63 147.04,-42.58"/>
</a>
</g>
</g>
<!-- Node3 -->
<g id="Node000003" class="node">
<title>Node3</title>
<g id="a_Node000003"><a xlink:href="namespaceduvc.html#aee4337c96c223e1892b35dbca2f41806" target="_top" xlink:title=" ">
<polygon fill="white" stroke="#666666" points="264.88,-20 181.38,-20 181.38,0 264.88,0 264.88,-20"/>
<text xml:space="preserve" text-anchor="middle" x="223.12" y="-6.5" font-family="Helvetica,sans-Serif" font-size="10.00">duvc::from_flag</text>
</a>
</g>
</g>
<!-- Node1&#45;&gt;Node3 -->
<g id="edge2_Node000001_Node000003" class="edge">
<title>Node1&#45;&gt;Node3</title>
<g id="a_edge2_Node000001_Node000003"><a xlink:title=" ">
<path fill="none" stroke="#63b8ff" d="M123.38,-21.76C138.81,-19.92 155.26,-17.97 170.21,-16.18"/>
<polygon fill="#63b8ff" stroke="#63b8ff" points="170.29,-19.7 179.8,-15.04 169.46,-12.75 170.29,-19.7"/>
</a>
</g>
</g>
</g>
</svg>
