<?xml version="1.0" encoding="UTF-8" standalone="no"?>
<!DOCTYPE svg PUBLIC "-//W3C//DTD SVG 1.1//EN"
 "http://www.w3.org/Graphics/SVG/1.1/DTD/svg11.dtd">
<!-- Generated by graphviz version 14.0.2 (20251019.1705)
 -->
<!-- Title: duvc::KsPropertySet::get_property_typed Pages: 1 -->
<svg width="551pt" height="198pt"
 viewBox="0.00 0.00 551.00 198.00" xmlns="http://www.w3.org/2000/svg" xmlns:xlink="http://www.w3.org/1999/xlink">
<g id="graph0" class="graph" transform="scale(1 1) rotate(0) translate(4 194)">
<title>duvc::KsPropertySet::get_property_typed</title>
<!-- Node1 -->
<g id="Node000001" class="node">
<title>Node1</title>
<g id="a_Node000001"><a xlink:title="Get typed property value.">
<polygon fill="#999999" stroke="#666666" points="106.75,-102 0,-102 0,-70 106.75,-70 106.75,-102"/>
<text xml:space="preserve" text-anchor="start" x="8" y="-88.5" font-family="Helvetica,sans-Serif" font-size="10.00">duvc::KsPropertySet</text>
<text xml:space="preserve" text-anchor="middle" x="53.38" y="-76.5" font-family="Helvetica,sans-Serif" font-size="10.00">::get_property_typed</text>
</a>
</g>
</g>
<!-- Node2 -->
<g id="Node000002" class="node">
<title>Node2</title>
<g id="a_Node000002"><a xlink:href="classduvc_1_1Result.html#aeae3d86ec04c3b53caef2e1b51467609" target="_top" xlink:title="Get the error (assumes error)">
<polygon fill="white" stroke="#666666" points="244.62,-184 147.62,-184 147.62,-164 244.62,-164 244.62,-184"/>
<text xml:space="preserve" text-anchor="middle" x="196.12" y="-170.5" font-family="Helvetica,sans-Serif" font-size="10.00">duvc::Result::error</text>
</a>
</g>
</g>
<!-- Node1&#45;&gt;Node2 -->
<g id="edge1_Node000001_Node000002" class="edge">
<title>Node1&#45;&gt;Node2</title>
<g id="a_edge1_Node000001_Node000002"><a xlink:title=" ">
<path fill="none" stroke="#63b8ff" d="M71.81,-102.34C88.83,-117.6 116.01,-140.2 142.75,-155 145.4,-156.46 148.18,-157.85 151.02,-159.17"/>
<polygon fill="#63b8ff" stroke="#63b8ff" points="149.49,-162.32 160.07,-162.98 152.21,-155.87 149.49,-162.32"/>
</a>
</g>
</g>
<!-- Node3 -->
<g id="Node000003" class="node">
<title>Node3</title>
<g id="a_Node000003"><a xlink:href="classduvc_1_1KsPropertySet.html#a8c1795034a9f6851db82a1232cd897eb" target="_top" xlink:title="Get property data.">
<polygon fill="white" stroke="#666666" points="249.5,-146 142.75,-146 142.75,-114 249.5,-114 249.5,-146"/>
<text xml:space="preserve" text-anchor="start" x="150.75" y="-132.5" font-family="Helvetica,sans-Serif" font-size="10.00">duvc::KsPropertySet</text>
<text xml:space="preserve" text-anchor="middle" x="196.12" y="-120.5" font-family="Helvetica,sans-Serif" font-size="10.00">::get_property</text>
</a>
</g>
</g>
<!-- Node1&#45;&gt;Node3 -->
<g id="edge2_Node000001_Node000003" class="edge">
<title>Node1&#45;&gt;Node3</title>
<g id="a_edge2_Node000001_Node000003"><a xlink:title=" ">
<path fill="none" stroke="#63b8ff" d="M106.79,-102.38C114.94,-104.93 123.43,-107.59 131.8,-110.2"/>
<polygon fill="#63b8ff" stroke="#63b8ff" points="130.64,-113.51 141.23,-113.15 132.73,-106.83 130.64,-113.51"/>
</a>
</g>
</g>
<!-- Node7 -->
<g id="Node000007" class="node">
<title>Node7</title>
<g id="a_Node000007"><a xlink:href="namespaceduvc.html#afc6e96946d632ab859aa1aef741646f6" target="_top" xlink:title="Helper to create successful void Result.">
<polygon fill="white" stroke="#666666" points="367.88,-96 312.12,-96 312.12,-76 367.88,-76 367.88,-96"/>
<text xml:space="preserve" text-anchor="middle" x="340" y="-82.5" font-family="Helvetica,sans-Serif" font-size="10.00">duvc::Ok</text>
</a>
</g>
</g>
<!-- Node1&#45;&gt;Node7 -->
<g id="edge8_Node000001_Node000007" class="edge">
<title>Node1&#45;&gt;Node7</title>
<g id="a_edge8_Node000001_Node000007"><a xlink:title=" ">
<path fill="none" stroke="#63b8ff" d="M107.24,-86C163.35,-86 250.66,-86 300.56,-86"/>
<polygon fill="#63b8ff" stroke="#63b8ff" points="300.29,-89.5 310.29,-86 300.29,-82.5 300.29,-89.5"/>
</a>
</g>
</g>
<!-- Node8 -->
<g id="Node000008" class="node">
<title>Node8</title>
<g id="a_Node000008"><a xlink:href="classduvc_1_1Result.html#a6a3af8795b3d3090f17993728dbe701f" target="_top" xlink:title="Check if result contains a value (success)">
<polygon fill="white" stroke="#666666" points="246.5,-58 145.75,-58 145.75,-38 246.5,-38 246.5,-58"/>
<text xml:space="preserve" text-anchor="middle" x="196.12" y="-44.5" font-family="Helvetica,sans-Serif" font-size="10.00">duvc::Result::is_ok</text>
</a>
</g>
</g>
<!-- Node1&#45;&gt;Node8 -->
<g id="edge7_Node000001_Node000008" class="edge">
<title>Node1&#45;&gt;Node8</title>
<g id="a_edge7_Node000001_Node000008"><a xlink:title=" ">
<path fill="none" stroke="#63b8ff" d="M107.19,-71.74C119.73,-68.36 133.06,-64.76 145.46,-61.41"/>
<polygon fill="#63b8ff" stroke="#63b8ff" points="146.33,-64.8 155.07,-58.81 144.5,-58.04 146.33,-64.8"/>
</a>
</g>
</g>
<!-- Node9 -->
<g id="Node000009" class="node">
<title>Node9</title>
<g id="a_Node000009"><a xlink:href="classduvc_1_1Result.html#a260a000aca87d38c8f9f22ad80804691" target="_top" xlink:title="Get the value (assumes success)">
<polygon fill="white" stroke="#666666" points="246.5,-20 145.75,-20 145.75,0 246.5,0 246.5,-20"/>
<text xml:space="preserve" text-anchor="middle" x="196.12" y="-6.5" font-family="Helvetica,sans-Serif" font-size="10.00">duvc::Result::value</text>
</a>
</g>
</g>
<!-- Node1&#45;&gt;Node9 -->
<g id="edge9_Node000001_Node000009" class="edge">
<title>Node1&#45;&gt;Node9</title>
<g id="a_edge9_Node000001_Node000009"><a xlink:title=" ">
<path fill="none" stroke="#63b8ff" d="M76.8,-69.52C94.18,-57.26 119.2,-40.68 142.75,-29 145.81,-27.48 149.03,-26.02 152.3,-24.63"/>
<polygon fill="#63b8ff" stroke="#63b8ff" points="153.4,-27.96 161.39,-21 150.8,-21.45 153.4,-27.96"/>
</a>
</g>
</g>
<!-- Node4 -->
<g id="Node000004" class="node">
<title>Node4</title>
<g id="a_Node000004"><a xlink:href="namespaceduvc.html#acf69ea75ab1f31295af14cfba31261c2" target="_top" xlink:title="Decode HRESULT to human&#45;readable string.">
<polygon fill="white" stroke="#666666" points="394.5,-184 285.5,-184 285.5,-164 394.5,-164 394.5,-184"/>
<text xml:space="preserve" text-anchor="middle" x="340" y="-170.5" font-family="Helvetica,sans-Serif" font-size="10.00">duvc::decode_hresult</text>
</a>
</g>
</g>
<!-- Node3&#45;&gt;Node4 -->
<g id="edge3_Node000003_Node000004" class="edge">
<title>Node3&#45;&gt;Node4</title>
<g id="a_edge3_Node000003_Node000004"><a xlink:title=" ">
<path fill="none" stroke="#63b8ff" d="M249.95,-146.38C264.62,-150.93 280.4,-155.83 294.54,-160.21"/>
<polygon fill="#63b8ff" stroke="#63b8ff" points="293.45,-163.54 304.03,-163.16 295.52,-156.85 293.45,-163.54"/>
</a>
</g>
</g>
<!-- Node6 -->
<g id="Node000006" class="node">
<title>Node6</title>
<g id="a_Node000006"><a xlink:href="classduvc_1_1KsPropertySet.html#a6e2ecf3413c017d4a4ec309c3e90a3f7" target="_top" xlink:title="Check if property set is valid.">
<polygon fill="white" stroke="#666666" points="393.38,-146 286.62,-146 286.62,-114 393.38,-114 393.38,-146"/>
<text xml:space="preserve" text-anchor="start" x="294.62" y="-132.5" font-family="Helvetica,sans-Serif" font-size="10.00">duvc::KsPropertySet</text>
<text xml:space="preserve" text-anchor="middle" x="340" y="-120.5" font-family="Helvetica,sans-Serif" font-size="10.00">::is_valid</text>
</a>
</g>
</g>
<!-- Node3&#45;&gt;Node6 -->
<g id="edge5_Node000003_Node000006" class="edge">
<title>Node3&#45;&gt;Node6</title>
<g id="a_edge5_Node000003_Node000006"><a xlink:title=" ">
<path fill="none" stroke="#63b8ff" d="M249.95,-130C258.08,-130 266.54,-130 274.88,-130"/>
<polygon fill="#63b8ff" stroke="#63b8ff" points="274.61,-133.5 284.61,-130 274.61,-126.5 274.61,-133.5"/>
</a>
</g>
</g>
<!-- Node3&#45;&gt;Node7 -->
<g id="edge6_Node000003_Node000007" class="edge">
<title>Node3&#45;&gt;Node7</title>
<g id="a_edge6_Node000003_Node000007"><a xlink:title=" ">
<path fill="none" stroke="#63b8ff" d="M249.95,-113.62C266.94,-108.35 285.42,-102.62 301.11,-97.75"/>
<polygon fill="#63b8ff" stroke="#63b8ff" points="302.03,-101.13 310.55,-94.82 299.96,-94.44 302.03,-101.13"/>
</a>
</g>
</g>
<!-- Node5 -->
<g id="Node000005" class="node">
<title>Node5</title>
<g id="a_Node000005"><a xlink:href="namespaceduvc.html#ad674a2332aaccc15fb24ab7fad6632f4" target="_top" xlink:title="Decode system error code to human&#45;readable string.">
<polygon fill="white" stroke="#666666" points="542.5,-190 430.5,-190 430.5,-158 542.5,-158 542.5,-190"/>
<text xml:space="preserve" text-anchor="start" x="438.5" y="-176.5" font-family="Helvetica,sans-Serif" font-size="10.00">duvc::decode_system</text>
<text xml:space="preserve" text-anchor="middle" x="486.5" y="-164.5" font-family="Helvetica,sans-Serif" font-size="10.00">_error</text>
</a>
</g>
</g>
<!-- Node4&#45;&gt;Node5 -->
<g id="edge4_Node000004_Node000005" class="edge">
<title>Node4&#45;&gt;Node5</title>
<g id="a_edge4_Node000004_Node000005"><a xlink:title=" ">
<path fill="none" stroke="#63b8ff" d="M394.81,-174C402.66,-174 410.83,-174 418.9,-174"/>
<polygon fill="#63b8ff" stroke="#63b8ff" points="418.69,-177.5 428.69,-174 418.69,-170.5 418.69,-177.5"/>
</a>
</g>
</g>
</g>
</svg>
