<?xml version="1.0" encoding="UTF-8" standalone="no"?>
<!DOCTYPE svg PUBLIC "-//W3C//DTD SVG 1.1//EN"
 "http://www.w3.org/Graphics/SVG/1.1/DTD/svg11.dtd">
<!-- Generated by graphviz version 14.0.2 (20251019.1705)
 -->
<!-- Title: duvc::DeviceConnection::get Pages: 1 -->
<svg width="315pt" height="104pt"
 viewBox="0.00 0.00 315.00 104.00" xmlns="http://www.w3.org/2000/svg" xmlns:xlink="http://www.w3.org/1999/xlink">
<g id="graph0" class="graph" transform="scale(1 1) rotate(0) translate(4 100)">
<title>duvc::DeviceConnection::get</title>
<!-- Node1 -->
<g id="Node000001" class="node">
<title>Node1</title>
<g id="a_Node000001"><a xlink:title=" ">
<polygon fill="#999999" stroke="#666666" points="142.75,-58 0,-58 0,-38 142.75,-38 142.75,-58"/>
<text xml:space="preserve" text-anchor="middle" x="71.38" y="-44.5" font-family="Helvetica,sans-Serif" font-size="10.00">duvc::DeviceConnection::get</text>
</a>
</g>
</g>
<!-- Node2 -->
<g id="Node000002" class="node">
<title>Node2</title>
<g id="a_Node000002"><a xlink:href="namespaceduvc.html#ad928c817c788cc4ad08adccaf54a1892" target="_top" xlink:title=" ">
<polygon fill="white" stroke="#666666" points="306.5,-96 178.75,-96 178.75,-76 306.5,-76 306.5,-96"/>
<text xml:space="preserve" text-anchor="middle" x="242.62" y="-82.5" font-family="Helvetica,sans-Serif" font-size="10.00">duvc::camprop_to_dshow</text>
</a>
</g>
</g>
<!-- Node1&#45;&gt;Node2 -->
<g id="edge1_Node000001_Node000002" class="edge">
<title>Node1&#45;&gt;Node2</title>
<g id="a_edge1_Node000001_Node000002"><a xlink:title=" ">
<path fill="none" stroke="#63b8ff" d="M119.07,-58.48C139.14,-62.99 162.8,-68.3 183.96,-73.05"/>
<polygon fill="#63b8ff" stroke="#63b8ff" points="183.08,-76.44 193.6,-75.22 184.61,-69.61 183.08,-76.44"/>
</a>
</g>
</g>
<!-- Node3 -->
<g id="Node000003" class="node">
<title>Node3</title>
<g id="a_Node000003"><a xlink:href="namespaceduvc.html#aee4337c96c223e1892b35dbca2f41806" target="_top" xlink:title=" ">
<polygon fill="white" stroke="#666666" points="284.38,-58 200.88,-58 200.88,-38 284.38,-38 284.38,-58"/>
<text xml:space="preserve" text-anchor="middle" x="242.62" y="-44.5" font-family="Helvetica,sans-Serif" font-size="10.00">duvc::from_flag</text>
</a>
</g>
</g>
<!-- Node1&#45;&gt;Node3 -->
<g id="edge2_Node000001_Node000003" class="edge">
<title>Node1&#45;&gt;Node3</title>
<g id="a_edge2_Node000001_Node000003"><a xlink:title=" ">
<path fill="none" stroke="#63b8ff" d="M143.17,-48C158.61,-48 174.68,-48 189.25,-48"/>
<polygon fill="#63b8ff" stroke="#63b8ff" points="189.06,-51.5 199.06,-48 189.06,-44.5 189.06,-51.5"/>
</a>
</g>
</g>
<!-- Node4 -->
<g id="Node000004" class="node">
<title>Node4</title>
<g id="a_Node000004"><a xlink:href="classduvc_1_1Result.html#a260a000aca87d38c8f9f22ad80804691" target="_top" xlink:title="Get the value (assumes success)">
<polygon fill="white" stroke="#666666" points="293,-20 192.25,-20 192.25,0 293,0 293,-20"/>
<text xml:space="preserve" text-anchor="middle" x="242.62" y="-6.5" font-family="Helvetica,sans-Serif" font-size="10.00">duvc::Result::value</text>
</a>
</g>
</g>
<!-- Node1&#45;&gt;Node4 -->
<g id="edge3_Node000001_Node000004" class="edge">
<title>Node1&#45;&gt;Node4</title>
<g id="a_edge3_Node000001_Node000004"><a xlink:title=" ">
<path fill="none" stroke="#63b8ff" d="M119.07,-37.52C139.14,-33.01 162.8,-27.7 183.96,-22.95"/>
<polygon fill="#63b8ff" stroke="#63b8ff" points="184.61,-26.39 193.6,-20.78 183.08,-19.56 184.61,-26.39"/>
</a>
</g>
</g>
</g>
</svg>
