<?xml version="1.0" encoding="UTF-8" standalone="no"?>
<!DOCTYPE svg PUBLIC "-//W3C//DTD SVG 1.1//EN"
 "http://www.w3.org/Graphics/SVG/1.1/DTD/svg11.dtd">
<!-- Generated by graphviz version 14.0.2 (20251019.1705)
 -->
<!-- Title: duvc::DeviceConnection::DeviceConnection Pages: 1 -->
<svg width="738pt" height="218pt"
 viewBox="0.00 0.00 738.00 218.00" xmlns="http://www.w3.org/2000/svg" xmlns:xlink="http://www.w3.org/1999/xlink">
<g id="graph0" class="graph" transform="scale(1 1) rotate(0) translate(4 214)">
<title>duvc::DeviceConnection::DeviceConnection</title>
<!-- Node1 -->
<g id="Node000001" class="node">
<title>Node1</title>
<g id="a_Node000001"><a xlink:title=" ">
<polygon fill="#999999" stroke="#666666" points="123.25,-159 0,-159 0,-127 123.25,-127 123.25,-159"/>
<text xml:space="preserve" text-anchor="start" x="8" y="-145.5" font-family="Helvetica,sans-Serif" font-size="10.00">duvc::DeviceConnection</text>
<text xml:space="preserve" text-anchor="middle" x="61.62" y="-133.5" font-family="Helvetica,sans-Serif" font-size="10.00">::DeviceConnection</text>
</a>
</g>
</g>
<!-- Node2 -->
<g id="Node000002" class="node">
<title>Node2</title>
<g id="a_Node000002"><a xlink:href="namespaceduvc.html#a525e082d3184609f07eb02f89b853eb4" target="_top" xlink:title=" ">
<polygon fill="white" stroke="#666666" points="269.75,-191 170.5,-191 170.5,-171 269.75,-171 269.75,-191"/>
<text xml:space="preserve" text-anchor="middle" x="220.12" y="-177.5" font-family="Helvetica,sans-Serif" font-size="10.00">duvc::get_cam_ctrl</text>
</a>
</g>
</g>
<!-- Node1&#45;&gt;Node2 -->
<g id="edge1_Node000001_Node000002" class="edge">
<title>Node1&#45;&gt;Node2</title>
<g id="a_edge1_Node000001_Node000002"><a xlink:title=" ">
<path fill="none" stroke="#63b8ff" d="M123.58,-157.8C137.26,-161.12 151.68,-164.62 165.05,-167.87"/>
<polygon fill="#63b8ff" stroke="#63b8ff" points="163.99,-171.21 174.53,-170.17 165.64,-164.41 163.99,-171.21"/>
</a>
</g>
</g>
<!-- Node3 -->
<g id="Node000003" class="node">
<title>Node3</title>
<g id="a_Node000003"><a xlink:href="namespaceduvc.html#a04547a9d26bcf475fc447dd6b7e9df11" target="_top" xlink:title=" ">
<polygon fill="white" stroke="#666666" points="263,-153 177.25,-153 177.25,-133 263,-133 263,-153"/>
<text xml:space="preserve" text-anchor="middle" x="220.12" y="-139.5" font-family="Helvetica,sans-Serif" font-size="10.00">duvc::get_vproc</text>
</a>
</g>
</g>
<!-- Node1&#45;&gt;Node3 -->
<g id="edge2_Node000001_Node000003" class="edge">
<title>Node1&#45;&gt;Node3</title>
<g id="a_edge2_Node000001_Node000003"><a xlink:title=" ">
<path fill="none" stroke="#63b8ff" d="M123.58,-143C137.53,-143 152.24,-143 165.84,-143"/>
<polygon fill="#63b8ff" stroke="#63b8ff" points="165.44,-146.5 175.44,-143 165.44,-139.5 165.44,-146.5"/>
</a>
</g>
</g>
<!-- Node4 -->
<g id="Node000004" class="node">
<title>Node4</title>
<g id="a_Node000004"><a xlink:href="namespaceduvc.html#a1345df0af198d75f16c54e38d54c7e63" target="_top" xlink:title="Create DirectShow filter from device.">
<polygon fill="white" stroke="#666666" points="281,-115 159.25,-115 159.25,-95 281,-95 281,-115"/>
<text xml:space="preserve" text-anchor="middle" x="220.12" y="-101.5" font-family="Helvetica,sans-Serif" font-size="10.00">duvc::open_device_filter</text>
</a>
</g>
</g>
<!-- Node1&#45;&gt;Node4 -->
<g id="edge3_Node000001_Node000004" class="edge">
<title>Node1&#45;&gt;Node4</title>
<g id="a_edge3_Node000001_Node000004"><a xlink:title=" ">
<path fill="none" stroke="#63b8ff" d="M123.58,-128.2C137.26,-124.88 151.68,-121.38 165.05,-118.13"/>
<polygon fill="#63b8ff" stroke="#63b8ff" points="165.64,-121.59 174.53,-115.83 163.99,-114.79 165.64,-121.59"/>
</a>
</g>
</g>
<!-- Node5 -->
<g id="Node000005" class="node">
<title>Node5</title>
<g id="a_Node000005"><a xlink:href="namespaceduvc.html#a72f92cd80ed6f3c59c814fae59e8ba26" target="_top" xlink:title=" ">
<polygon fill="white" stroke="#666666" points="433.5,-210 335,-210 335,-190 433.5,-190 433.5,-210"/>
<text xml:space="preserve" text-anchor="middle" x="384.25" y="-196.5" font-family="Helvetica,sans-Serif" font-size="10.00">duvc::bind_to_filter</text>
</a>
</g>
</g>
<!-- Node4&#45;&gt;Node5 -->
<g id="edge4_Node000004_Node000005" class="edge">
<title>Node4&#45;&gt;Node5</title>
<g id="a_edge4_Node000004_Node000005"><a xlink:title=" ">
<path fill="none" stroke="#63b8ff" d="M266.04,-115.37C271.37,-117.69 276.51,-120.53 281,-124 304.72,-142.31 293.03,-163.02 317,-181 319.3,-182.73 321.76,-184.3 324.32,-185.73"/>
<polygon fill="#63b8ff" stroke="#63b8ff" points="322.69,-188.83 333.23,-189.91 325.67,-182.49 322.69,-188.83"/>
</a>
</g>
</g>
<!-- Node8 -->
<g id="Node000008" class="node">
<title>Node8</title>
<g id="a_Node000008"><a xlink:href="namespaceduvc.html#ab7299b8597bf14b18b8351278c209188" target="_top" xlink:title="Create DirectShow device enumerator.">
<polygon fill="white" stroke="#666666" points="444.38,-172 324.12,-172 324.12,-152 444.38,-152 444.38,-172"/>
<text xml:space="preserve" text-anchor="middle" x="384.25" y="-158.5" font-family="Helvetica,sans-Serif" font-size="10.00">duvc::create_dev_enum</text>
</a>
</g>
</g>
<!-- Node4&#45;&gt;Node8 -->
<g id="edge7_Node000004_Node000008" class="edge">
<title>Node4&#45;&gt;Node8</title>
<g id="a_edge7_Node000004_Node000008"><a xlink:title=" ">
<path fill="none" stroke="#63b8ff" d="M257.6,-115.43C265.41,-117.98 273.56,-120.88 281,-124 297.69,-130.99 300.22,-136.25 317,-143 321.56,-144.83 326.36,-146.57 331.2,-148.19"/>
<polygon fill="#63b8ff" stroke="#63b8ff" points="329.78,-151.41 340.37,-151.08 331.89,-144.73 329.78,-151.41"/>
</a>
</g>
</g>
<!-- Node9 -->
<g id="Node000009" class="node">
<title>Node9</title>
<g id="a_Node000009"><a xlink:href="namespaceduvc.html#a1a577c6cd7e4b3106d6f95c15bbceeed" target="_top" xlink:title="Enumerate video input devices.">
<polygon fill="white" stroke="#666666" points="451.5,-134 317,-134 317,-114 451.5,-114 451.5,-134"/>
<text xml:space="preserve" text-anchor="middle" x="384.25" y="-120.5" font-family="Helvetica,sans-Serif" font-size="10.00">duvc::enum_video_devices</text>
</a>
</g>
</g>
<!-- Node4&#45;&gt;Node9 -->
<g id="edge9_Node000004_Node000009" class="edge">
<title>Node4&#45;&gt;Node9</title>
<g id="a_edge9_Node000004_Node000009"><a xlink:title=" ">
<path fill="none" stroke="#63b8ff" d="M281.49,-112.07C289.27,-112.99 297.31,-113.93 305.31,-114.87"/>
<polygon fill="#63b8ff" stroke="#63b8ff" points="304.72,-118.32 315.06,-116.01 305.54,-111.37 304.72,-118.32"/>
</a>
</g>
</g>
<!-- Node10 -->
<g id="Node000010" class="node">
<title>Node10</title>
<g id="a_Node000010"><a xlink:href="namespaceduvc.html#a16607a28a7df86e823edf3abd371af92" target="_top" xlink:title="Check if two device identifiers refer to same device.">
<polygon fill="white" stroke="#666666" points="441,-96 327.5,-96 327.5,-76 441,-76 441,-96"/>
<text xml:space="preserve" text-anchor="middle" x="384.25" y="-82.5" font-family="Helvetica,sans-Serif" font-size="10.00">duvc::is_same_device</text>
</a>
</g>
</g>
<!-- Node4&#45;&gt;Node10 -->
<g id="edge11_Node000004_Node000010" class="edge">
<title>Node4&#45;&gt;Node10</title>
<g id="a_edge11_Node000004_Node000010"><a xlink:title=" ">
<path fill="none" stroke="#63b8ff" d="M281.49,-97.93C292.7,-96.61 304.48,-95.23 315.88,-93.9"/>
<polygon fill="#63b8ff" stroke="#63b8ff" points="316.09,-97.39 325.62,-92.75 315.28,-90.44 316.09,-97.39"/>
</a>
</g>
</g>
<!-- Node11 -->
<g id="Node000011" class="node">
<title>Node11</title>
<g id="a_Node000011"><a xlink:href="namespaceduvc.html#a2c2b6f32c6871ad36ae0bf98d9374fd0" target="_top" xlink:title="Read device path from moniker.">
<polygon fill="white" stroke="#666666" points="444,-58 324.5,-58 324.5,-38 444,-38 444,-58"/>
<text xml:space="preserve" text-anchor="middle" x="384.25" y="-44.5" font-family="Helvetica,sans-Serif" font-size="10.00">duvc::read_device_path</text>
</a>
</g>
</g>
<!-- Node4&#45;&gt;Node11 -->
<g id="edge12_Node000004_Node000011" class="edge">
<title>Node4&#45;&gt;Node11</title>
<g id="a_edge12_Node000004_Node000011"><a xlink:title=" ">
<path fill="none" stroke="#63b8ff" d="M245.31,-94.65C264.55,-86.6 292.26,-75.43 317,-67 322.38,-65.17 328.05,-63.36 333.71,-61.63"/>
<polygon fill="#63b8ff" stroke="#63b8ff" points="334.48,-65.05 343.07,-58.85 332.48,-58.34 334.48,-65.05"/>
</a>
</g>
</g>
<!-- Node13 -->
<g id="Node000013" class="node">
<title>Node13</title>
<g id="a_Node000013"><a xlink:href="namespaceduvc.html#a019644436e5f0add38b6242843b79fef" target="_top" xlink:title="Read friendly name from device moniker.">
<polygon fill="white" stroke="#666666" points="448.12,-20 320.38,-20 320.38,0 448.12,0 448.12,-20"/>
<text xml:space="preserve" text-anchor="middle" x="384.25" y="-6.5" font-family="Helvetica,sans-Serif" font-size="10.00">duvc::read_friendly_name</text>
</a>
</g>
</g>
<!-- Node4&#45;&gt;Node13 -->
<g id="edge14_Node000004_Node000013" class="edge">
<title>Node4&#45;&gt;Node13</title>
<g id="a_edge14_Node000004_Node000013"><a xlink:title=" ">
<path fill="none" stroke="#63b8ff" d="M231.36,-94.59C247.92,-78.31 282.24,-46.87 317,-29 320.25,-27.33 323.66,-25.79 327.15,-24.37"/>
<polygon fill="#63b8ff" stroke="#63b8ff" points="328.19,-27.72 336.37,-20.99 325.78,-21.15 328.19,-27.72"/>
</a>
</g>
</g>
<!-- Node6 -->
<g id="Node000006" class="node">
<title>Node6</title>
<g id="a_Node000006"><a xlink:href="namespaceduvc.html#a21b444574354018097d4489a9ff0ff9e" target="_top" xlink:title=" ">
<polygon fill="white" stroke="#666666" points="581.5,-172 501,-172 501,-152 581.5,-152 581.5,-172"/>
<text xml:space="preserve" text-anchor="middle" x="541.25" y="-158.5" font-family="Helvetica,sans-Serif" font-size="10.00">duvc::throw_hr</text>
</a>
</g>
</g>
<!-- Node5&#45;&gt;Node6 -->
<g id="edge5_Node000005_Node000006" class="edge">
<title>Node5&#45;&gt;Node6</title>
<g id="a_edge5_Node000005_Node000006"><a xlink:title=" ">
<path fill="none" stroke="#63b8ff" d="M428.01,-189.52C447.05,-184.85 469.62,-179.32 489.51,-174.44"/>
<polygon fill="#63b8ff" stroke="#63b8ff" points="490.2,-177.87 499.08,-172.09 488.53,-171.08 490.2,-177.87"/>
</a>
</g>
</g>
<!-- Node7 -->
<g id="Node000007" class="node">
<title>Node7</title>
<g id="a_Node000007"><a xlink:href="namespaceduvc.html#a02d5c5b2e56515cee2cad9057af0467d" target="_top" xlink:title=" ">
<polygon fill="white" stroke="#666666" points="729.5,-172 631,-172 631,-152 729.5,-152 729.5,-172"/>
<text xml:space="preserve" text-anchor="middle" x="680.25" y="-158.5" font-family="Helvetica,sans-Serif" font-size="10.00">duvc::wide_to_utf8</text>
</a>
</g>
</g>
<!-- Node6&#45;&gt;Node7 -->
<g id="edge6_Node000006_Node000007" class="edge">
<title>Node6&#45;&gt;Node7</title>
<g id="a_edge6_Node000006_Node000007"><a xlink:title=" ">
<path fill="none" stroke="#63b8ff" d="M581.88,-162C593.61,-162 606.74,-162 619.45,-162"/>
<polygon fill="#63b8ff" stroke="#63b8ff" points="619.45,-165.5 629.45,-162 619.45,-158.5 619.45,-165.5"/>
</a>
</g>
</g>
<!-- Node8&#45;&gt;Node6 -->
<g id="edge8_Node000008_Node000006" class="edge">
<title>Node8&#45;&gt;Node6</title>
<g id="a_edge8_Node000008_Node000006"><a xlink:title=" ">
<path fill="none" stroke="#63b8ff" d="M444.73,-162C459.55,-162 475.3,-162 489.65,-162"/>
<polygon fill="#63b8ff" stroke="#63b8ff" points="489.3,-165.5 499.3,-162 489.3,-158.5 489.3,-165.5"/>
</a>
</g>
</g>
<!-- Node9&#45;&gt;Node6 -->
<g id="edge10_Node000009_Node000006" class="edge">
<title>Node9&#45;&gt;Node6</title>
<g id="a_edge10_Node000009_Node000006"><a xlink:title=" ">
<path fill="none" stroke="#63b8ff" d="M428.01,-134.48C447.05,-139.15 469.62,-144.68 489.51,-149.56"/>
<polygon fill="#63b8ff" stroke="#63b8ff" points="488.53,-152.92 499.08,-151.91 490.2,-146.13 488.53,-152.92"/>
</a>
</g>
</g>
<!-- Node12 -->
<g id="Node000012" class="node">
<title>Node12</title>
<g id="a_Node000012"><a xlink:href="namespaceduvc.html#a0dbd37821c1cae29fa72d44e3dbd0583" target="_top" xlink:title=" ">
<polygon fill="white" stroke="#666666" points="595,-39 487.5,-39 487.5,-19 595,-19 595,-39"/>
<text xml:space="preserve" text-anchor="middle" x="541.25" y="-25.5" font-family="Helvetica,sans-Serif" font-size="10.00">duvc::read_prop_bstr</text>
</a>
</g>
</g>
<!-- Node11&#45;&gt;Node12 -->
<g id="edge13_Node000011_Node000012" class="edge">
<title>Node11&#45;&gt;Node12</title>
<g id="a_edge13_Node000011_Node000012"><a xlink:title=" ">
<path fill="none" stroke="#63b8ff" d="M444.29,-40.76C454.66,-39.49 465.49,-38.16 475.99,-36.88"/>
<polygon fill="#63b8ff" stroke="#63b8ff" points="476.21,-40.38 485.71,-35.68 475.36,-33.43 476.21,-40.38"/>
</a>
</g>
</g>
<!-- Node13&#45;&gt;Node12 -->
<g id="edge15_Node000013_Node000012" class="edge">
<title>Node13&#45;&gt;Node12</title>
<g id="a_edge15_Node000013_Node000012"><a xlink:title=" ">
<path fill="none" stroke="#63b8ff" d="M448.29,-17.73C457.37,-18.84 466.72,-19.99 475.82,-21.1"/>
<polygon fill="#63b8ff" stroke="#63b8ff" points="475.32,-24.57 485.68,-22.31 476.18,-17.62 475.32,-24.57"/>
</a>
</g>
</g>
</g>
</svg>
