<?xml version="1.0" encoding="UTF-8" standalone="no"?>
<!DOCTYPE svg PUBLIC "-//W3C//DTD SVG 1.1//EN"
 "http://www.w3.org/Graphics/SVG/1.1/DTD/svg11.dtd">
<!-- Generated by graphviz version 14.0.2 (20251019.1705)
 -->
<!-- Title: duvc::KsPropertySet::is_valid Pages: 1 -->
<svg width="400pt" height="140pt"
 viewBox="0.00 0.00 400.00 140.00" xmlns="http://www.w3.org/2000/svg" xmlns:xlink="http://www.w3.org/1999/xlink">
<g id="graph0" class="graph" transform="scale(1 1) rotate(0) translate(4 136)">
<title>duvc::KsPropertySet::is_valid</title>
<!-- Node1 -->
<g id="Node000001" class="node">
<title>Node1</title>
<g id="a_Node000001"><a xlink:title="Check if property set is valid.">
<polygon fill="#999999" stroke="#666666" points="392.25,-82 285.5,-82 285.5,-50 392.25,-50 392.25,-82"/>
<text xml:space="preserve" text-anchor="start" x="293.5" y="-68.5" font-family="Helvetica,sans-Serif" font-size="10.00">duvc::KsPropertySet</text>
<text xml:space="preserve" text-anchor="middle" x="338.88" y="-56.5" font-family="Helvetica,sans-Serif" font-size="10.00">::is_valid</text>
</a>
</g>
</g>
<!-- Node2 -->
<g id="Node000002" class="node">
<title>Node2</title>
<g id="a_Node000002"><a xlink:href="classduvc_1_1KsPropertySet.html#a8c1795034a9f6851db82a1232cd897eb" target="_top" xlink:title="Get property data.">
<polygon fill="white" stroke="#666666" points="249.5,-132 142.75,-132 142.75,-100 249.5,-100 249.5,-132"/>
<text xml:space="preserve" text-anchor="start" x="150.75" y="-118.5" font-family="Helvetica,sans-Serif" font-size="10.00">duvc::KsPropertySet</text>
<text xml:space="preserve" text-anchor="middle" x="196.12" y="-106.5" font-family="Helvetica,sans-Serif" font-size="10.00">::get_property</text>
</a>
</g>
</g>
<!-- Node1&#45;&gt;Node2 -->
<g id="edge1_Node000001_Node000002" class="edge">
<title>Node1&#45;&gt;Node2</title>
<g id="a_edge1_Node000001_Node000002"><a xlink:title=" ">
<path fill="none" stroke="#63b8ff" d="M280.98,-86.21C268.46,-90.66 255.35,-95.32 243.32,-99.59"/>
<polygon fill="#63b8ff" stroke="#63b8ff" points="282.11,-89.52 290.36,-82.88 279.77,-82.93 282.11,-89.52"/>
</a>
</g>
</g>
<!-- Node4 -->
<g id="Node000004" class="node">
<title>Node4</title>
<g id="a_Node000004"><a xlink:href="classduvc_1_1KsPropertySet.html#a251aad5cfe01da2b5e380d4697a94f2e" target="_top" xlink:title="Query property support.">
<polygon fill="white" stroke="#666666" points="249.5,-82 142.75,-82 142.75,-50 249.5,-50 249.5,-82"/>
<text xml:space="preserve" text-anchor="start" x="150.75" y="-68.5" font-family="Helvetica,sans-Serif" font-size="10.00">duvc::KsPropertySet</text>
<text xml:space="preserve" text-anchor="middle" x="196.12" y="-56.5" font-family="Helvetica,sans-Serif" font-size="10.00">::query_support</text>
</a>
</g>
</g>
<!-- Node1&#45;&gt;Node4 -->
<g id="edge3_Node000001_Node000004" class="edge">
<title>Node1&#45;&gt;Node4</title>
<g id="a_edge3_Node000001_Node000004"><a xlink:title=" ">
<path fill="none" stroke="#63b8ff" d="M273.81,-66C265.76,-66 257.61,-66 249.76,-66"/>
<polygon fill="#63b8ff" stroke="#63b8ff" points="273.55,-69.5 283.55,-66 273.55,-62.5 273.55,-69.5"/>
</a>
</g>
</g>
<!-- Node5 -->
<g id="Node000005" class="node">
<title>Node5</title>
<g id="a_Node000005"><a xlink:href="classduvc_1_1KsPropertySet.html#a33fa8fc7b6530e4c1c97d5b3bc8053b7" target="_top" xlink:title="Set property data.">
<polygon fill="white" stroke="#666666" points="249.5,-32 142.75,-32 142.75,0 249.5,0 249.5,-32"/>
<text xml:space="preserve" text-anchor="start" x="150.75" y="-18.5" font-family="Helvetica,sans-Serif" font-size="10.00">duvc::KsPropertySet</text>
<text xml:space="preserve" text-anchor="middle" x="196.12" y="-6.5" font-family="Helvetica,sans-Serif" font-size="10.00">::set_property</text>
</a>
</g>
</g>
<!-- Node1&#45;&gt;Node5 -->
<g id="edge4_Node000001_Node000005" class="edge">
<title>Node1&#45;&gt;Node5</title>
<g id="a_edge4_Node000001_Node000005"><a xlink:title=" ">
<path fill="none" stroke="#63b8ff" d="M280.98,-45.79C268.46,-41.34 255.35,-36.68 243.32,-32.41"/>
<polygon fill="#63b8ff" stroke="#63b8ff" points="279.77,-49.07 290.36,-49.12 282.11,-42.48 279.77,-49.07"/>
</a>
</g>
</g>
<!-- Node3 -->
<g id="Node000003" class="node">
<title>Node3</title>
<g id="a_Node000003"><a xlink:href="classduvc_1_1KsPropertySet.html#a21e491235b83bacb4fd55e96d2b603f6" target="_top" xlink:title="Get typed property value.">
<polygon fill="white" stroke="#666666" points="106.75,-132 0,-132 0,-100 106.75,-100 106.75,-132"/>
<text xml:space="preserve" text-anchor="start" x="8" y="-118.5" font-family="Helvetica,sans-Serif" font-size="10.00">duvc::KsPropertySet</text>
<text xml:space="preserve" text-anchor="middle" x="53.38" y="-106.5" font-family="Helvetica,sans-Serif" font-size="10.00">::get_property_typed</text>
</a>
</g>
</g>
<!-- Node2&#45;&gt;Node3 -->
<g id="edge2_Node000002_Node000003" class="edge">
<title>Node2&#45;&gt;Node3</title>
<g id="a_edge2_Node000002_Node000003"><a xlink:title=" ">
<path fill="none" stroke="#63b8ff" d="M131.06,-116C123.01,-116 114.86,-116 107.01,-116"/>
<polygon fill="#63b8ff" stroke="#63b8ff" points="130.8,-119.5 140.8,-116 130.8,-112.5 130.8,-119.5"/>
</a>
</g>
</g>
<!-- Node6 -->
<g id="Node000006" class="node">
<title>Node6</title>
<g id="a_Node000006"><a xlink:href="classduvc_1_1KsPropertySet.html#a2a59e63375e5b5f0fb37d39e3aa5b30c" target="_top" xlink:title="Set typed property value.">
<polygon fill="white" stroke="#666666" points="106.75,-32 0,-32 0,0 106.75,0 106.75,-32"/>
<text xml:space="preserve" text-anchor="start" x="8" y="-18.5" font-family="Helvetica,sans-Serif" font-size="10.00">duvc::KsPropertySet</text>
<text xml:space="preserve" text-anchor="middle" x="53.38" y="-6.5" font-family="Helvetica,sans-Serif" font-size="10.00">::set_property_typed</text>
</a>
</g>
</g>
<!-- Node5&#45;&gt;Node6 -->
<g id="edge5_Node000005_Node000006" class="edge">
<title>Node5&#45;&gt;Node6</title>
<g id="a_edge5_Node000005_Node000006"><a xlink:title=" ">
<path fill="none" stroke="#63b8ff" d="M131.06,-16C123.01,-16 114.86,-16 107.01,-16"/>
<polygon fill="#63b8ff" stroke="#63b8ff" points="130.8,-19.5 140.8,-16 130.8,-12.5 130.8,-19.5"/>
</a>
</g>
</g>
</g>
</svg>
