<?xml version="1.0" encoding="UTF-8" standalone="no"?>
<!DOCTYPE svg PUBLIC "-//W3C//DTD SVG 1.1//EN"
 "http://www.w3.org/Graphics/SVG/1.1/DTD/svg11.dtd">
<!-- Generated by graphviz version 14.0.2 (20251019.1705)
 -->
<!-- Title: duvc::WindowsPlatformInterface Pages: 1 -->
<svg width="159pt" height="228pt"
 viewBox="0.00 0.00 159.00 228.00" xmlns="http://www.w3.org/2000/svg" xmlns:xlink="http://www.w3.org/1999/xlink">
<g id="graph0" class="graph" transform="scale(1 1) rotate(0) translate(4 224)">
<title>duvc::WindowsPlatformInterface</title>
<!-- Node1 -->
<g id="Node000001" class="node">
<title>Node1</title>
<g id="a_Node000001"><a xlink:title="Windows DirectShow platform implementation.">
<polygon fill="#999999" stroke="none" points="150.5,-84 0,-84 0,0 150.5,0 150.5,-84"/>
<text xml:space="preserve" text-anchor="start" x="4" y="-70.5" font-family="Helvetica,sans-Serif" font-size="10.00">duvc::WindowsPlatformInterface</text>
<text xml:space="preserve" text-anchor="start" x="73.75" y="-54.5" font-family="Helvetica,sans-Serif" font-size="10.00"> </text>
<text xml:space="preserve" text-anchor="start" x="12.75" y="-38.5" font-family="Helvetica,sans-Serif" font-size="10.00">+</text>
<text xml:space="preserve" text-anchor="start" x="31.5" y="-38.5" font-family="Helvetica,sans-Serif" font-size="10.00">list_devices()</text>
<text xml:space="preserve" text-anchor="start" x="12.75" y="-22.5" font-family="Helvetica,sans-Serif" font-size="10.00">+</text>
<text xml:space="preserve" text-anchor="start" x="31.5" y="-22.5" font-family="Helvetica,sans-Serif" font-size="10.00">is_device_connected()</text>
<text xml:space="preserve" text-anchor="start" x="12.75" y="-6.5" font-family="Helvetica,sans-Serif" font-size="10.00">+</text>
<text xml:space="preserve" text-anchor="start" x="31.5" y="-6.5" font-family="Helvetica,sans-Serif" font-size="10.00">create_connection()</text>
<polygon fill="#666666" stroke="#666666" points="0,-66 0,-66 150.5,-66 150.5,-66 0,-66"/>
<polygon fill="#666666" stroke="#666666" points="0,-50 0,-50 150.5,-50 150.5,-50 0,-50"/>
<polygon fill="none" stroke="#666666" points="0,0 0,-84 150.5,-84 150.5,0 0,0"/>
</a>
</g>
</g>
<!-- Node2 -->
<g id="Node000002" class="node">
<title>Node2</title>
<g id="a_Node000002"><a xlink:href="classduvc_1_1IPlatformInterface.html" target="_top" xlink:title="Abstract interface for platform&#45;specific camera operations.">
<polygon fill="white" stroke="none" points="133,-220 17.5,-220 17.5,-120 133,-120 133,-220"/>
<text xml:space="preserve" text-anchor="start" x="22.75" y="-206.5" font-family="Helvetica,sans-Serif" font-size="10.00">duvc::IPlatformInterface</text>
<text xml:space="preserve" text-anchor="start" x="73.75" y="-190.5" font-family="Helvetica,sans-Serif" font-size="10.00"> </text>
<text xml:space="preserve" text-anchor="start" x="21.5" y="-174.5" font-family="Helvetica,sans-Serif" font-size="10.00">+</text>
<text xml:space="preserve" text-anchor="start" x="31.5" y="-174.5" font-family="Helvetica,sans-Serif" font-size="10.00">~IPlatformInterface()</text>
<text xml:space="preserve" text-anchor="start" x="21.5" y="-158.5" font-family="Helvetica,sans-Serif" font-size="10.00">+</text>
<text xml:space="preserve" text-anchor="start" x="31.5" y="-158.5" font-family="Helvetica,sans-Serif" font-size="10.00">list_devices()</text>
<text xml:space="preserve" text-anchor="start" x="21.5" y="-142.5" font-family="Helvetica,sans-Serif" font-size="10.00">+</text>
<text xml:space="preserve" text-anchor="start" x="31.5" y="-142.5" font-family="Helvetica,sans-Serif" font-size="10.00">is_device_connected()</text>
<text xml:space="preserve" text-anchor="start" x="21.5" y="-126.5" font-family="Helvetica,sans-Serif" font-size="10.00">+</text>
<text xml:space="preserve" text-anchor="start" x="31.5" y="-126.5" font-family="Helvetica,sans-Serif" font-size="10.00">create_connection()</text>
<polygon fill="#666666" stroke="#666666" points="17.5,-202 17.5,-202 133,-202 133,-202 17.5,-202"/>
<polygon fill="#666666" stroke="#666666" points="17.5,-186 17.5,-186 133,-186 133,-186 17.5,-186"/>
<polygon fill="none" stroke="#666666" points="17.5,-120 17.5,-220 133,-220 133,-120 17.5,-120"/>
</a>
</g>
</g>
<!-- Node2&#45;&gt;Node1 -->
<g id="edge1_Node000001_Node000002" class="edge">
<title>Node2&#45;&gt;Node1</title>
<g id="a_edge1_Node000001_Node000002"><a xlink:title=" ">
<path fill="none" stroke="#63b8ff" d="M75.25,-108.83C75.25,-100.36 75.25,-91.82 75.25,-83.82"/>
<polygon fill="none" stroke="#63b8ff" points="71.75,-108.77 75.25,-118.77 78.75,-108.77 71.75,-108.77"/>
</a>
</g>
</g>
</g>
</svg>
