<?xml version="1.0" encoding="UTF-8" standalone="no"?>
<!DOCTYPE svg PUBLIC "-//W3C//DTD SVG 1.1//EN"
 "http://www.w3.org/Graphics/SVG/1.1/DTD/svg11.dtd">
<!-- Generated by graphviz version 14.0.2 (20251019.1705)
 -->
<!-- Title: duvc::DeviceConnection::com_apartment Pages: 1 -->
<svg width="123pt" height="88pt"
 viewBox="0.00 0.00 123.00 88.00" xmlns="http://www.w3.org/2000/svg" xmlns:xlink="http://www.w3.org/1999/xlink">
<g id="graph0" class="graph" transform="scale(1 1) rotate(0) translate(4 84)">
<title>duvc::DeviceConnection::com_apartment</title>
<!-- Node1 -->
<g id="Node000001" class="node">
<title>Node1</title>
<g id="a_Node000001"><a xlink:title=" ">
<polygon fill="#999999" stroke="none" points="115.25,-80 0,-80 0,0 115.25,0 115.25,-80"/>
<text xml:space="preserve" text-anchor="start" x="4" y="-66.5" font-family="Helvetica,sans-Serif" font-size="10.00">duvc::DeviceConnection</text>
<text xml:space="preserve" text-anchor="start" x="20.88" y="-54.5" font-family="Helvetica,sans-Serif" font-size="10.00">::com_apartment</text>
<text xml:space="preserve" text-anchor="start" x="56.12" y="-38.5" font-family="Helvetica,sans-Serif" font-size="10.00"> </text>
<text xml:space="preserve" text-anchor="start" x="8.44" y="-22.5" font-family="Helvetica,sans-Serif" font-size="10.00">+</text>
<text xml:space="preserve" text-anchor="start" x="22.88" y="-22.5" font-family="Helvetica,sans-Serif" font-size="10.00">com_apartment()</text>
<text xml:space="preserve" text-anchor="start" x="8.44" y="-6.5" font-family="Helvetica,sans-Serif" font-size="10.00">+</text>
<text xml:space="preserve" text-anchor="start" x="22.88" y="-6.5" font-family="Helvetica,sans-Serif" font-size="10.00">~com_apartment()</text>
<polygon fill="#666666" stroke="#666666" points="0,-50 0,-50 115.25,-50 115.25,-50 0,-50"/>
<polygon fill="#666666" stroke="#666666" points="0,-34 0,-34 115.25,-34 115.25,-34 0,-34"/>
<polygon fill="none" stroke="#666666" points="0,0 0,-80 115.25,-80 115.25,0 0,0"/>
</a>
</g>
</g>
</g>
</svg>
