<?xml version="1.0" encoding="UTF-8" standalone="no"?>
<!DOCTYPE svg PUBLIC "-//W3C//DTD SVG 1.1//EN"
 "http://www.w3.org/Graphics/SVG/1.1/DTD/svg11.dtd">
<!-- Generated by graphviz version 14.0.2 (20251019.1705)
 -->
<!-- Title: duvc::KsPropertySet::set_property_typed Pages: 1 -->
<svg width="551pt" height="122pt"
 viewBox="0.00 0.00 551.00 122.00" xmlns="http://www.w3.org/2000/svg" xmlns:xlink="http://www.w3.org/1999/xlink">
<g id="graph0" class="graph" transform="scale(1 1) rotate(0) translate(4 118)">
<title>duvc::KsPropertySet::set_property_typed</title>
<!-- Node1 -->
<g id="Node000001" class="node">
<title>Node1</title>
<g id="a_Node000001"><a xlink:title="Set typed property value.">
<polygon fill="#999999" stroke="#666666" points="106.75,-70 0,-70 0,-38 106.75,-38 106.75,-70"/>
<text xml:space="preserve" text-anchor="start" x="8" y="-56.5" font-family="Helvetica,sans-Serif" font-size="10.00">duvc::KsPropertySet</text>
<text xml:space="preserve" text-anchor="middle" x="53.38" y="-44.5" font-family="Helvetica,sans-Serif" font-size="10.00">::set_property_typed</text>
</a>
</g>
</g>
<!-- Node2 -->
<g id="Node000002" class="node">
<title>Node2</title>
<g id="a_Node000002"><a xlink:href="classduvc_1_1KsPropertySet.html#a33fa8fc7b6530e4c1c97d5b3bc8053b7" target="_top" xlink:title="Set property data.">
<polygon fill="white" stroke="#666666" points="249.5,-70 142.75,-70 142.75,-38 249.5,-38 249.5,-70"/>
<text xml:space="preserve" text-anchor="start" x="150.75" y="-56.5" font-family="Helvetica,sans-Serif" font-size="10.00">duvc::KsPropertySet</text>
<text xml:space="preserve" text-anchor="middle" x="196.12" y="-44.5" font-family="Helvetica,sans-Serif" font-size="10.00">::set_property</text>
</a>
</g>
</g>
<!-- Node1&#45;&gt;Node2 -->
<g id="edge1_Node000001_Node000002" class="edge">
<title>Node1&#45;&gt;Node2</title>
<g id="a_edge1_Node000001_Node000002"><a xlink:title=" ">
<path fill="none" stroke="#63b8ff" d="M107.19,-54C115.03,-54 123.19,-54 131.23,-54"/>
<polygon fill="#63b8ff" stroke="#63b8ff" points="130.97,-57.5 140.97,-54 130.97,-50.5 130.97,-57.5"/>
</a>
</g>
</g>
<!-- Node3 -->
<g id="Node000003" class="node">
<title>Node3</title>
<g id="a_Node000003"><a xlink:href="namespaceduvc.html#acf69ea75ab1f31295af14cfba31261c2" target="_top" xlink:title="Decode HRESULT to human&#45;readable string.">
<polygon fill="white" stroke="#666666" points="394.5,-108 285.5,-108 285.5,-88 394.5,-88 394.5,-108"/>
<text xml:space="preserve" text-anchor="middle" x="340" y="-94.5" font-family="Helvetica,sans-Serif" font-size="10.00">duvc::decode_hresult</text>
</a>
</g>
</g>
<!-- Node2&#45;&gt;Node3 -->
<g id="edge2_Node000002_Node000003" class="edge">
<title>Node2&#45;&gt;Node3</title>
<g id="a_edge2_Node000002_Node000003"><a xlink:title=" ">
<path fill="none" stroke="#63b8ff" d="M249.95,-70.38C264.62,-74.93 280.4,-79.83 294.54,-84.21"/>
<polygon fill="#63b8ff" stroke="#63b8ff" points="293.45,-87.54 304.03,-87.16 295.52,-80.85 293.45,-87.54"/>
</a>
</g>
</g>
<!-- Node5 -->
<g id="Node000005" class="node">
<title>Node5</title>
<g id="a_Node000005"><a xlink:href="classduvc_1_1KsPropertySet.html#a6e2ecf3413c017d4a4ec309c3e90a3f7" target="_top" xlink:title="Check if property set is valid.">
<polygon fill="white" stroke="#666666" points="393.38,-70 286.62,-70 286.62,-38 393.38,-38 393.38,-70"/>
<text xml:space="preserve" text-anchor="start" x="294.62" y="-56.5" font-family="Helvetica,sans-Serif" font-size="10.00">duvc::KsPropertySet</text>
<text xml:space="preserve" text-anchor="middle" x="340" y="-44.5" font-family="Helvetica,sans-Serif" font-size="10.00">::is_valid</text>
</a>
</g>
</g>
<!-- Node2&#45;&gt;Node5 -->
<g id="edge4_Node000002_Node000005" class="edge">
<title>Node2&#45;&gt;Node5</title>
<g id="a_edge4_Node000002_Node000005"><a xlink:title=" ">
<path fill="none" stroke="#63b8ff" d="M249.95,-54C258.08,-54 266.54,-54 274.88,-54"/>
<polygon fill="#63b8ff" stroke="#63b8ff" points="274.61,-57.5 284.61,-54 274.61,-50.5 274.61,-57.5"/>
</a>
</g>
</g>
<!-- Node6 -->
<g id="Node000006" class="node">
<title>Node6</title>
<g id="a_Node000006"><a xlink:href="namespaceduvc.html#afc6e96946d632ab859aa1aef741646f6" target="_top" xlink:title="Helper to create successful void Result.">
<polygon fill="white" stroke="#666666" points="367.88,-20 312.12,-20 312.12,0 367.88,0 367.88,-20"/>
<text xml:space="preserve" text-anchor="middle" x="340" y="-6.5" font-family="Helvetica,sans-Serif" font-size="10.00">duvc::Ok</text>
</a>
</g>
</g>
<!-- Node2&#45;&gt;Node6 -->
<g id="edge5_Node000002_Node000006" class="edge">
<title>Node2&#45;&gt;Node6</title>
<g id="a_edge5_Node000002_Node000006"><a xlink:title=" ">
<path fill="none" stroke="#63b8ff" d="M249.95,-37.62C266.94,-32.35 285.42,-26.62 301.11,-21.75"/>
<polygon fill="#63b8ff" stroke="#63b8ff" points="302.03,-25.13 310.55,-18.82 299.96,-18.44 302.03,-25.13"/>
</a>
</g>
</g>
<!-- Node4 -->
<g id="Node000004" class="node">
<title>Node4</title>
<g id="a_Node000004"><a xlink:href="namespaceduvc.html#ad674a2332aaccc15fb24ab7fad6632f4" target="_top" xlink:title="Decode system error code to human&#45;readable string.">
<polygon fill="white" stroke="#666666" points="542.5,-114 430.5,-114 430.5,-82 542.5,-82 542.5,-114"/>
<text xml:space="preserve" text-anchor="start" x="438.5" y="-100.5" font-family="Helvetica,sans-Serif" font-size="10.00">duvc::decode_system</text>
<text xml:space="preserve" text-anchor="middle" x="486.5" y="-88.5" font-family="Helvetica,sans-Serif" font-size="10.00">_error</text>
</a>
</g>
</g>
<!-- Node3&#45;&gt;Node4 -->
<g id="edge3_Node000003_Node000004" class="edge">
<title>Node3&#45;&gt;Node4</title>
<g id="a_edge3_Node000003_Node000004"><a xlink:title=" ">
<path fill="none" stroke="#63b8ff" d="M394.81,-98C402.66,-98 410.83,-98 418.9,-98"/>
<polygon fill="#63b8ff" stroke="#63b8ff" points="418.69,-101.5 428.69,-98 418.69,-94.5 418.69,-101.5"/>
</a>
</g>
</g>
</g>
</svg>
