<?xml version="1.0" encoding="UTF-8" standalone="no"?>
<!DOCTYPE svg PUBLIC "-//W3C//DTD SVG 1.1//EN"
 "http://www.w3.org/Graphics/SVG/1.1/DTD/svg11.dtd">
<!-- Generated by graphviz version 14.0.2 (20251019.1705)
 -->
<!-- Title: vendor/constants.h Pages: 1 -->
<svg width="257pt" height="140pt"
 viewBox="0.00 0.00 257.00 140.00" xmlns="http://www.w3.org/2000/svg" xmlns:xlink="http://www.w3.org/1999/xlink">
<g id="graph0" class="graph" transform="scale(1 1) rotate(0) translate(4 136)">
<title>vendor/constants.h</title>
<!-- Node1 -->
<g id="Node000001" class="node">
<title>Node1</title>
<g id="a_Node000001"><a xlink:title="Vendor&#45;specific property constants and definitions.">
<polygon fill="#999999" stroke="#666666" points="196.38,-132 97.12,-132 97.12,-112 196.38,-112 196.38,-132"/>
<text xml:space="preserve" text-anchor="middle" x="146.75" y="-118.5" font-family="Helvetica,sans-Serif" font-size="10.00">vendor/constants.h</text>
</a>
</g>
</g>
<!-- Node2 -->
<g id="Node000002" class="node">
<title>Node2</title>
<g id="a_Node000002"><a xlink:href="types_8h.html" target="_top" xlink:title="Core data types and enumerations for duvc&#45;ctl.">
<polygon fill="white" stroke="#666666" points="107.5,-76 0,-76 0,-56 107.5,-56 107.5,-76"/>
<text xml:space="preserve" text-anchor="middle" x="53.75" y="-62.5" font-family="Helvetica,sans-Serif" font-size="10.00">duvc&#45;ctl/core/types.h</text>
</a>
</g>
</g>
<!-- Node1&#45;&gt;Node2 -->
<g id="edge1_Node000001_Node000002" class="edge">
<title>Node1&#45;&gt;Node2</title>
<g id="a_edge1_Node000001_Node000002"><a xlink:title=" ">
<path fill="none" stroke="#63b8ff" d="M130.55,-111.59C116.5,-103.44 95.92,-91.48 79.59,-82"/>
<polygon fill="#63b8ff" stroke="#63b8ff" points="81.79,-79.23 71.38,-77.24 78.28,-85.29 81.79,-79.23"/>
</a>
</g>
</g>
<!-- Node4 -->
<g id="Node000004" class="node">
<title>Node4</title>
<g id="a_Node000004"><a xlink:title=" ">
<polygon fill="#e0e0e0" stroke="#999999" points="168.25,-76 125.25,-76 125.25,-56 168.25,-56 168.25,-76"/>
<text xml:space="preserve" text-anchor="middle" x="146.75" y="-62.5" font-family="Helvetica,sans-Serif" font-size="10.00">vector</text>
</a>
</g>
</g>
<!-- Node1&#45;&gt;Node4 -->
<g id="edge3_Node000001_Node000004" class="edge">
<title>Node1&#45;&gt;Node4</title>
<g id="a_edge3_Node000001_Node000004"><a xlink:title=" ">
<path fill="none" stroke="#63b8ff" d="M146.75,-111.59C146.75,-105.01 146.75,-95.96 146.75,-87.73"/>
<polygon fill="#63b8ff" stroke="#63b8ff" points="150.25,-87.81 146.75,-77.81 143.25,-87.81 150.25,-87.81"/>
</a>
</g>
</g>
<!-- Node5 -->
<g id="Node000005" class="node">
<title>Node5</title>
<g id="a_Node000005"><a xlink:title=" ">
<polygon fill="#e0e0e0" stroke="#999999" points="249,-76 186.5,-76 186.5,-56 249,-56 249,-76"/>
<text xml:space="preserve" text-anchor="middle" x="217.75" y="-62.5" font-family="Helvetica,sans-Serif" font-size="10.00">windows.h</text>
</a>
</g>
</g>
<!-- Node1&#45;&gt;Node5 -->
<g id="edge4_Node000001_Node000005" class="edge">
<title>Node1&#45;&gt;Node5</title>
<g id="a_edge4_Node000001_Node000005"><a xlink:title=" ">
<path fill="none" stroke="#63b8ff" d="M159.12,-111.59C169.4,-103.77 184.27,-92.46 196.46,-83.19"/>
<polygon fill="#63b8ff" stroke="#63b8ff" points="198.48,-86.05 204.32,-77.21 194.24,-80.48 198.48,-86.05"/>
</a>
</g>
</g>
<!-- Node3 -->
<g id="Node000003" class="node">
<title>Node3</title>
<g id="a_Node000003"><a xlink:title=" ">
<polygon fill="#e0e0e0" stroke="#999999" points="73.75,-20 33.75,-20 33.75,0 73.75,0 73.75,-20"/>
<text xml:space="preserve" text-anchor="middle" x="53.75" y="-6.5" font-family="Helvetica,sans-Serif" font-size="10.00">string</text>
</a>
</g>
</g>
<!-- Node2&#45;&gt;Node3 -->
<g id="edge2_Node000002_Node000003" class="edge">
<title>Node2&#45;&gt;Node3</title>
<g id="a_edge2_Node000002_Node000003"><a xlink:title=" ">
<path fill="none" stroke="#63b8ff" d="M53.75,-55.59C53.75,-49.01 53.75,-39.96 53.75,-31.73"/>
<polygon fill="#63b8ff" stroke="#63b8ff" points="57.25,-31.81 53.75,-21.81 50.25,-31.81 57.25,-31.81"/>
</a>
</g>
</g>
</g>
</svg>
