<?xml version="1.0" encoding="UTF-8" standalone="no"?>
<!DOCTYPE svg PUBLIC "-//W3C//DTD SVG 1.1//EN"
 "http://www.w3.org/Graphics/SVG/1.1/DTD/svg11.dtd">
<!-- Generated by graphviz version 14.0.2 (20251019.1705)
 -->
<!-- Title: vendor/constants.cpp Pages: 1 -->
<svg width="460pt" height="208pt"
 viewBox="0.00 0.00 460.00 208.00" xmlns="http://www.w3.org/2000/svg" xmlns:xlink="http://www.w3.org/1999/xlink">
<g id="graph0" class="graph" transform="scale(1 1) rotate(0) translate(4 204)">
<title>vendor/constants.cpp</title>
<!-- Node1 -->
<g id="Node000001" class="node">
<title>Node1</title>
<g id="a_Node000001"><a xlink:title="Vendor&#45;specific property implementation.">
<polygon fill="#999999" stroke="#666666" points="309.88,-200 200.12,-200 200.12,-180 309.88,-180 309.88,-200"/>
<text xml:space="preserve" text-anchor="middle" x="255" y="-186.5" font-family="Helvetica,sans-Serif" font-size="10.00">vendor/constants.cpp</text>
</a>
</g>
</g>
<!-- Node2 -->
<g id="Node000002" class="node">
<title>Node2</title>
<g id="a_Node000002"><a xlink:title=" ">
<polygon fill="#e0e0e0" stroke="#999999" points="52,-138 0,-138 0,-118 52,-118 52,-138"/>
<text xml:space="preserve" text-anchor="middle" x="26" y="-124.5" font-family="Helvetica,sans-Serif" font-size="10.00">dshow.h</text>
</a>
</g>
</g>
<!-- Node1&#45;&gt;Node2 -->
<g id="edge1_Node000001_Node000002" class="edge">
<title>Node1&#45;&gt;Node2</title>
<g id="a_edge1_Node000001_Node000002"><a xlink:title=" ">
<path fill="none" stroke="#63b8ff" d="M202.85,-179.51C163.4,-171.71 108.15,-159.44 61,-144 59.62,-143.55 58.22,-143.06 56.82,-142.56"/>
<polygon fill="#63b8ff" stroke="#63b8ff" points="58.12,-139.31 47.53,-138.9 55.55,-145.82 58.12,-139.31"/>
</a>
</g>
</g>
<!-- Node3 -->
<g id="Node000003" class="node">
<title>Node3</title>
<g id="a_Node000003"><a xlink:title=" ">
<polygon fill="#e0e0e0" stroke="#999999" points="168.25,-144 69.75,-144 69.75,-112 168.25,-112 168.25,-144"/>
<text xml:space="preserve" text-anchor="start" x="77.75" y="-130.5" font-family="Helvetica,sans-Serif" font-size="10.00">duvc&#45;ctl/detail/com</text>
<text xml:space="preserve" text-anchor="middle" x="119" y="-118.5" font-family="Helvetica,sans-Serif" font-size="10.00">_helpers.h</text>
</a>
</g>
</g>
<!-- Node1&#45;&gt;Node3 -->
<g id="edge2_Node000001_Node000003" class="edge">
<title>Node1&#45;&gt;Node3</title>
<g id="a_edge2_Node000001_Node000003"><a xlink:title=" ">
<path fill="none" stroke="#63b8ff" d="M233.75,-179.62C215.29,-171.48 187.91,-159.4 164.53,-149.09"/>
<polygon fill="#63b8ff" stroke="#63b8ff" points="166.06,-145.94 155.5,-145.1 163.23,-152.34 166.06,-145.94"/>
</a>
</g>
</g>
<!-- Node4 -->
<g id="Node000004" class="node">
<title>Node4</title>
<g id="a_Node000004"><a xlink:href="constants_8h.html" target="_top" xlink:title="Vendor&#45;specific property constants and definitions.">
<polygon fill="white" stroke="#666666" points="323.38,-138 186.62,-138 186.62,-118 323.38,-118 323.38,-138"/>
<text xml:space="preserve" text-anchor="middle" x="255" y="-124.5" font-family="Helvetica,sans-Serif" font-size="10.00">duvc&#45;ctl/vendor/constants.h</text>
</a>
</g>
</g>
<!-- Node1&#45;&gt;Node4 -->
<g id="edge3_Node000001_Node000004" class="edge">
<title>Node1&#45;&gt;Node4</title>
<g id="a_edge3_Node000001_Node000004"><a xlink:title=" ">
<path fill="none" stroke="#63b8ff" d="M255,-179.62C255,-171.56 255,-159.65 255,-149.41"/>
<polygon fill="#63b8ff" stroke="#63b8ff" points="258.5,-149.63 255,-139.63 251.5,-149.63 258.5,-149.63"/>
</a>
</g>
</g>
<!-- Node9 -->
<g id="Node000009" class="node">
<title>Node9</title>
<g id="a_Node000009"><a xlink:title=" ">
<polygon fill="#e0e0e0" stroke="#999999" points="376.38,-138 341.62,-138 341.62,-118 376.38,-118 376.38,-138"/>
<text xml:space="preserve" text-anchor="middle" x="359" y="-124.5" font-family="Helvetica,sans-Serif" font-size="10.00">ks.h</text>
</a>
</g>
</g>
<!-- Node1&#45;&gt;Node9 -->
<g id="edge8_Node000001_Node000009" class="edge">
<title>Node1&#45;&gt;Node9</title>
<g id="a_edge8_Node000001_Node000009"><a xlink:title=" ">
<path fill="none" stroke="#63b8ff" d="M271.25,-179.62C287.81,-170.07 313.75,-155.11 333.14,-143.92"/>
<polygon fill="#63b8ff" stroke="#63b8ff" points="334.64,-147.09 341.55,-139.07 331.14,-141.03 334.64,-147.09"/>
</a>
</g>
</g>
<!-- Node10 -->
<g id="Node000010" class="node">
<title>Node10</title>
<g id="a_Node000010"><a xlink:title=" ">
<polygon fill="#e0e0e0" stroke="#999999" points="452,-138 394,-138 394,-118 452,-118 452,-138"/>
<text xml:space="preserve" text-anchor="middle" x="423" y="-124.5" font-family="Helvetica,sans-Serif" font-size="10.00">ksproxy.h</text>
</a>
</g>
</g>
<!-- Node1&#45;&gt;Node10 -->
<g id="edge9_Node000001_Node000010" class="edge">
<title>Node1&#45;&gt;Node10</title>
<g id="a_edge9_Node000001_Node000010"><a xlink:title=" ">
<path fill="none" stroke="#63b8ff" d="M283.53,-179.52C309.95,-170.64 350.28,-156.85 385,-144 386.35,-143.5 387.72,-142.99 389.1,-142.46"/>
<polygon fill="#63b8ff" stroke="#63b8ff" points="390.27,-145.77 398.34,-138.9 387.75,-139.24 390.27,-145.77"/>
</a>
</g>
</g>
<!-- Node5 -->
<g id="Node000005" class="node">
<title>Node5</title>
<g id="a_Node000005"><a xlink:href="types_8h.html" target="_top" xlink:title="Core data types and enumerations for duvc&#45;ctl.">
<polygon fill="white" stroke="#666666" points="215.75,-76 108.25,-76 108.25,-56 215.75,-56 215.75,-76"/>
<text xml:space="preserve" text-anchor="middle" x="162" y="-62.5" font-family="Helvetica,sans-Serif" font-size="10.00">duvc&#45;ctl/core/types.h</text>
</a>
</g>
</g>
<!-- Node4&#45;&gt;Node5 -->
<g id="edge4_Node000004_Node000005" class="edge">
<title>Node4&#45;&gt;Node5</title>
<g id="a_edge4_Node000004_Node000005"><a xlink:title=" ">
<path fill="none" stroke="#63b8ff" d="M240.47,-117.62C225.86,-108.2 203.1,-93.52 185.85,-82.39"/>
<polygon fill="#63b8ff" stroke="#63b8ff" points="188,-79.61 177.7,-77.13 184.21,-85.49 188,-79.61"/>
</a>
</g>
</g>
<!-- Node7 -->
<g id="Node000007" class="node">
<title>Node7</title>
<g id="a_Node000007"><a xlink:title=" ">
<polygon fill="#e0e0e0" stroke="#999999" points="276.5,-76 233.5,-76 233.5,-56 276.5,-56 276.5,-76"/>
<text xml:space="preserve" text-anchor="middle" x="255" y="-62.5" font-family="Helvetica,sans-Serif" font-size="10.00">vector</text>
</a>
</g>
</g>
<!-- Node4&#45;&gt;Node7 -->
<g id="edge6_Node000004_Node000007" class="edge">
<title>Node4&#45;&gt;Node7</title>
<g id="a_edge6_Node000004_Node000007"><a xlink:title=" ">
<path fill="none" stroke="#63b8ff" d="M255,-117.62C255,-109.56 255,-97.65 255,-87.41"/>
<polygon fill="#63b8ff" stroke="#63b8ff" points="258.5,-87.63 255,-77.63 251.5,-87.63 258.5,-87.63"/>
</a>
</g>
</g>
<!-- Node8 -->
<g id="Node000008" class="node">
<title>Node8</title>
<g id="a_Node000008"><a xlink:title=" ">
<polygon fill="#e0e0e0" stroke="#999999" points="357.25,-76 294.75,-76 294.75,-56 357.25,-56 357.25,-76"/>
<text xml:space="preserve" text-anchor="middle" x="326" y="-62.5" font-family="Helvetica,sans-Serif" font-size="10.00">windows.h</text>
</a>
</g>
</g>
<!-- Node4&#45;&gt;Node8 -->
<g id="edge7_Node000004_Node000008" class="edge">
<title>Node4&#45;&gt;Node8</title>
<g id="a_edge7_Node000004_Node000008"><a xlink:title=" ">
<path fill="none" stroke="#63b8ff" d="M266.09,-117.62C276.89,-108.5 293.52,-94.45 306.53,-83.46"/>
<polygon fill="#63b8ff" stroke="#63b8ff" points="308.68,-86.22 314.06,-77.09 304.16,-80.87 308.68,-86.22"/>
</a>
</g>
</g>
<!-- Node6 -->
<g id="Node000006" class="node">
<title>Node6</title>
<g id="a_Node000006"><a xlink:title=" ">
<polygon fill="#e0e0e0" stroke="#999999" points="182,-20 142,-20 142,0 182,0 182,-20"/>
<text xml:space="preserve" text-anchor="middle" x="162" y="-6.5" font-family="Helvetica,sans-Serif" font-size="10.00">string</text>
</a>
</g>
</g>
<!-- Node5&#45;&gt;Node6 -->
<g id="edge5_Node000005_Node000006" class="edge">
<title>Node5&#45;&gt;Node6</title>
<g id="a_edge5_Node000005_Node000006"><a xlink:title=" ">
<path fill="none" stroke="#63b8ff" d="M162,-55.59C162,-49.01 162,-39.96 162,-31.73"/>
<polygon fill="#63b8ff" stroke="#63b8ff" points="165.5,-31.81 162,-21.81 158.5,-31.81 165.5,-31.81"/>
</a>
</g>
</g>
</g>
</svg>
