<?xml version="1.0" encoding="UTF-8" standalone="no"?>
<!DOCTYPE svg PUBLIC "-//W3C//DTD SVG 1.1//EN"
 "http://www.w3.org/Graphics/SVG/1.1/DTD/svg11.dtd">
<!-- Generated by graphviz version 14.0.2 (20251019.1705)
 -->
<!-- Title: core.cpp Pages: 1 -->
<svg width="1211pt" height="196pt"
 viewBox="0.00 0.00 1211.00 196.00" xmlns="http://www.w3.org/2000/svg" xmlns:xlink="http://www.w3.org/1999/xlink">
<g id="graph0" class="graph" transform="scale(1 1) rotate(0) translate(4 192)">
<title>core.cpp</title>
<!-- Node1 -->
<g id="Node000001" class="node">
<title>Node1</title>
<g id="a_Node000001"><a xlink:title=" ">
<polygon fill="#999999" stroke="#666666" points="574.75,-188 521.25,-188 521.25,-168 574.75,-168 574.75,-188"/>
<text xml:space="preserve" text-anchor="middle" x="548" y="-174.5" font-family="Helvetica,sans-Serif" font-size="10.00">core.cpp</text>
</a>
</g>
</g>
<!-- Node2 -->
<g id="Node000002" class="node">
<title>Node2</title>
<g id="a_Node000002"><a xlink:href="core_8h.html" target="_top" xlink:title=" ">
<polygon fill="white" stroke="#666666" points="214.25,-132 133.75,-132 133.75,-112 214.25,-112 214.25,-132"/>
<text xml:space="preserve" text-anchor="middle" x="174" y="-118.5" font-family="Helvetica,sans-Serif" font-size="10.00">duvc&#45;ctl/core.h</text>
</a>
</g>
</g>
<!-- Node1&#45;&gt;Node2 -->
<g id="edge1_Node000001_Node000002" class="edge">
<title>Node1&#45;&gt;Node2</title>
<g id="a_edge1_Node000001_Node000002"><a xlink:title=" ">
<path fill="none" stroke="#63b8ff" d="M520.99,-173.44C465.86,-166.12 336.41,-148.65 228,-132 227.32,-131.9 226.64,-131.79 225.96,-131.69"/>
<polygon fill="#63b8ff" stroke="#63b8ff" points="226.59,-128.24 216.17,-130.13 225.49,-135.16 226.59,-128.24"/>
</a>
</g>
</g>
<!-- Node3 -->
<g id="Node000003" class="node">
<title>Node3</title>
<g id="a_Node000003"><a xlink:href="defs_8h.html" target="_top" xlink:title=" ">
<polygon fill="white" stroke="#666666" points="66.5,-76 23.5,-76 23.5,-56 66.5,-56 66.5,-76"/>
<text xml:space="preserve" text-anchor="middle" x="45" y="-62.5" font-family="Helvetica,sans-Serif" font-size="10.00">defs.h</text>
</a>
</g>
</g>
<!-- Node1&#45;&gt;Node3 -->
<g id="edge9_Node000001_Node000003" class="edge">
<title>Node1&#45;&gt;Node3</title>
<g id="a_edge9_Node000001_Node000003"><a xlink:title=" ">
<path fill="none" stroke="#63b8ff" d="M520.86,-176.63C436.72,-175.12 181.5,-167.64 108,-132 86.42,-121.54 68.19,-100.46 56.97,-85.13"/>
<polygon fill="#63b8ff" stroke="#63b8ff" points="60.11,-83.51 51.52,-77.3 54.37,-87.51 60.11,-83.51"/>
</a>
</g>
</g>
<!-- Node4 -->
<g id="Node000004" class="node">
<title>Node4</title>
<g id="a_Node000004"><a xlink:title=" ">
<polygon fill="#e0e0e0" stroke="#999999" points="40,-20 0,-20 0,0 40,0 40,-20"/>
<text xml:space="preserve" text-anchor="middle" x="20" y="-6.5" font-family="Helvetica,sans-Serif" font-size="10.00">string</text>
</a>
</g>
</g>
<!-- Node1&#45;&gt;Node4 -->
<g id="edge14_Node000001_Node000004" class="edge">
<title>Node1&#45;&gt;Node4</title>
<g id="a_edge14_Node000001_Node000004"><a xlink:title=" ">
<path fill="none" stroke="#63b8ff" d="M521.01,-176.57C433.5,-174.86 158.63,-166.77 78,-132 43.29,-117.03 29.62,-110.42 14,-76 7.62,-61.94 9.73,-44.43 13.1,-31.12"/>
<polygon fill="#63b8ff" stroke="#63b8ff" points="16.39,-32.34 15.91,-21.76 9.69,-30.33 16.39,-32.34"/>
</a>
</g>
</g>
<!-- Node5 -->
<g id="Node000005" class="node">
<title>Node5</title>
<g id="a_Node000005"><a xlink:title=" ">
<polygon fill="#e0e0e0" stroke="#999999" points="127.5,-76 84.5,-76 84.5,-56 127.5,-56 127.5,-76"/>
<text xml:space="preserve" text-anchor="middle" x="106" y="-62.5" font-family="Helvetica,sans-Serif" font-size="10.00">vector</text>
</a>
</g>
</g>
<!-- Node1&#45;&gt;Node5 -->
<g id="edge13_Node000001_Node000005" class="edge">
<title>Node1&#45;&gt;Node5</title>
<g id="a_edge13_Node000001_Node000005"><a xlink:title=" ">
<path fill="none" stroke="#63b8ff" d="M520.96,-175.85C432.47,-171.86 155.42,-157.43 125,-132 112.16,-121.27 107.73,-102.38 106.32,-87.72"/>
<polygon fill="#63b8ff" stroke="#63b8ff" points="109.81,-87.56 105.8,-77.75 102.82,-87.92 109.81,-87.56"/>
</a>
</g>
</g>
<!-- Node7 -->
<g id="Node000007" class="node">
<title>Node7</title>
<g id="a_Node000007"><a xlink:title=" ">
<polygon fill="#e0e0e0" stroke="#999999" points="336.62,-76 285.38,-76 285.38,-56 336.62,-56 336.62,-76"/>
<text xml:space="preserve" text-anchor="middle" x="311" y="-62.5" font-family="Helvetica,sans-Serif" font-size="10.00">memory</text>
</a>
</g>
</g>
<!-- Node1&#45;&gt;Node7 -->
<g id="edge25_Node000001_Node000007" class="edge">
<title>Node1&#45;&gt;Node7</title>
<g id="a_edge25_Node000001_Node000007"><a xlink:title=" ">
<path fill="none" stroke="#63b8ff" d="M521.02,-176.49C460.98,-174.73 319.33,-166.89 290,-132 278.95,-118.85 287.12,-99.77 296.31,-85.69"/>
<polygon fill="#63b8ff" stroke="#63b8ff" points="299.05,-87.86 302.03,-77.69 293.36,-83.79 299.05,-87.86"/>
</a>
</g>
</g>
<!-- Node9 -->
<g id="Node000009" class="node">
<title>Node9</title>
<g id="a_Node000009"><a xlink:title=" ">
<polygon fill="#e0e0e0" stroke="#999999" points="417.25,-76 354.75,-76 354.75,-56 417.25,-56 417.25,-76"/>
<text xml:space="preserve" text-anchor="middle" x="386" y="-62.5" font-family="Helvetica,sans-Serif" font-size="10.00">windows.h</text>
</a>
</g>
</g>
<!-- Node1&#45;&gt;Node9 -->
<g id="edge10_Node000001_Node000009" class="edge">
<title>Node1&#45;&gt;Node9</title>
<g id="a_edge10_Node000001_Node000009"><a xlink:title=" ">
<path fill="none" stroke="#63b8ff" d="M521.07,-176.31C462.62,-174.17 327.1,-165.63 299,-132 280.94,-110.39 313.58,-91.86 343.9,-80.18"/>
<polygon fill="#63b8ff" stroke="#63b8ff" points="344.83,-83.57 353.02,-76.86 342.43,-77 344.83,-83.57"/>
</a>
</g>
</g>
<!-- Node10 -->
<g id="Node000010" class="node">
<title>Node10</title>
<g id="a_Node000010"><a xlink:title=" ">
<polygon fill="#e0e0e0" stroke="#999999" points="360,-132 308,-132 308,-112 360,-112 360,-132"/>
<text xml:space="preserve" text-anchor="middle" x="334" y="-118.5" font-family="Helvetica,sans-Serif" font-size="10.00">dshow.h</text>
</a>
</g>
</g>
<!-- Node1&#45;&gt;Node10 -->
<g id="edge11_Node000001_Node000010" class="edge">
<title>Node1&#45;&gt;Node10</title>
<g id="a_edge11_Node000001_Node000010"><a xlink:title=" ">
<path fill="none" stroke="#63b8ff" d="M521,-170.26C488,-162.01 430.18,-147.53 371.36,-132.59"/>
<polygon fill="#63b8ff" stroke="#63b8ff" points="372.39,-129.24 361.84,-130.17 370.67,-136.03 372.39,-129.24"/>
</a>
</g>
</g>
<!-- Node11 -->
<g id="Node000011" class="node">
<title>Node11</title>
<g id="a_Node000011"><a xlink:title=" ">
<polygon fill="#e0e0e0" stroke="#999999" points="431.75,-132 378.25,-132 378.25,-112 431.75,-112 431.75,-132"/>
<text xml:space="preserve" text-anchor="middle" x="405" y="-118.5" font-family="Helvetica,sans-Serif" font-size="10.00">iostream</text>
</a>
</g>
</g>
<!-- Node1&#45;&gt;Node11 -->
<g id="edge12_Node000001_Node000011" class="edge">
<title>Node1&#45;&gt;Node11</title>
<g id="a_edge12_Node000001_Node000011"><a xlink:title=" ">
<path fill="none" stroke="#63b8ff" d="M523.09,-167.59C500.27,-158.97 466.22,-146.12 440.54,-136.42"/>
<polygon fill="#63b8ff" stroke="#63b8ff" points="442.11,-133.27 431.52,-133.01 439.64,-139.82 442.11,-133.27"/>
</a>
</g>
</g>
<!-- Node12 -->
<g id="Node000012" class="node">
<title>Node12</title>
<g id="a_Node000012"><a xlink:title=" ">
<polygon fill="#e0e0e0" stroke="#999999" points="500.62,-132 449.38,-132 449.38,-112 500.62,-112 500.62,-132"/>
<text xml:space="preserve" text-anchor="middle" x="475" y="-118.5" font-family="Helvetica,sans-Serif" font-size="10.00">sstream</text>
</a>
</g>
</g>
<!-- Node1&#45;&gt;Node12 -->
<g id="edge15_Node000001_Node000012" class="edge">
<title>Node1&#45;&gt;Node12</title>
<g id="a_edge15_Node000001_Node000012"><a xlink:title=" ">
<path fill="none" stroke="#63b8ff" d="M535.28,-167.59C524.61,-159.7 509.12,-148.24 496.52,-138.92"/>
<polygon fill="#63b8ff" stroke="#63b8ff" points="498.91,-136.33 488.79,-133.2 494.74,-141.96 498.91,-136.33"/>
</a>
</g>
</g>
<!-- Node13 -->
<g id="Node000013" class="node">
<title>Node13</title>
<g id="a_Node000013"><a xlink:title=" ">
<polygon fill="#e0e0e0" stroke="#999999" points="577.38,-132 518.62,-132 518.62,-112 577.38,-112 577.38,-132"/>
<text xml:space="preserve" text-anchor="middle" x="548" y="-118.5" font-family="Helvetica,sans-Serif" font-size="10.00">stdexcept</text>
</a>
</g>
</g>
<!-- Node1&#45;&gt;Node13 -->
<g id="edge16_Node000001_Node000013" class="edge">
<title>Node1&#45;&gt;Node13</title>
<g id="a_edge16_Node000001_Node000013"><a xlink:title=" ">
<path fill="none" stroke="#63b8ff" d="M548,-167.59C548,-161.01 548,-151.96 548,-143.73"/>
<polygon fill="#63b8ff" stroke="#63b8ff" points="551.5,-143.81 548,-133.81 544.5,-143.81 551.5,-143.81"/>
</a>
</g>
</g>
<!-- Node14 -->
<g id="Node000014" class="node">
<title>Node14</title>
<g id="a_Node000014"><a xlink:title=" ">
<polygon fill="#e0e0e0" stroke="#999999" points="652.25,-132 595.75,-132 595.75,-112 652.25,-112 652.25,-132"/>
<text xml:space="preserve" text-anchor="middle" x="624" y="-118.5" font-family="Helvetica,sans-Serif" font-size="10.00">comdef.h</text>
</a>
</g>
</g>
<!-- Node1&#45;&gt;Node14 -->
<g id="edge17_Node000001_Node000014" class="edge">
<title>Node1&#45;&gt;Node14</title>
<g id="a_edge17_Node000001_Node000014"><a xlink:title=" ">
<path fill="none" stroke="#63b8ff" d="M561.24,-167.59C572.29,-159.74 588.28,-148.38 601.36,-139.09"/>
<polygon fill="#63b8ff" stroke="#63b8ff" points="603.3,-142 609.42,-133.36 599.25,-136.3 603.3,-142"/>
</a>
</g>
</g>
<!-- Node15 -->
<g id="Node000015" class="node">
<title>Node15</title>
<g id="a_Node000015"><a xlink:title=" ">
<polygon fill="#e0e0e0" stroke="#999999" points="719.5,-132 670.5,-132 670.5,-112 719.5,-112 719.5,-132"/>
<text xml:space="preserve" text-anchor="middle" x="695" y="-118.5" font-family="Helvetica,sans-Serif" font-size="10.00">strmif.h</text>
</a>
</g>
</g>
<!-- Node1&#45;&gt;Node15 -->
<g id="edge18_Node000001_Node000015" class="edge">
<title>Node1&#45;&gt;Node15</title>
<g id="a_edge18_Node000001_Node000015"><a xlink:title=" ">
<path fill="none" stroke="#63b8ff" d="M573.61,-167.59C597.36,-158.87 632.93,-145.8 659.43,-136.06"/>
<polygon fill="#63b8ff" stroke="#63b8ff" points="660.58,-139.37 668.76,-132.64 658.16,-132.8 660.58,-139.37"/>
</a>
</g>
</g>
<!-- Node16 -->
<g id="Node000016" class="node">
<title>Node16</title>
<g id="a_Node000016"><a xlink:title=" ">
<polygon fill="#e0e0e0" stroke="#999999" points="790.75,-132 737.25,-132 737.25,-112 790.75,-112 790.75,-132"/>
<text xml:space="preserve" text-anchor="middle" x="764" y="-118.5" font-family="Helvetica,sans-Serif" font-size="10.00">control.h</text>
</a>
</g>
</g>
<!-- Node1&#45;&gt;Node16 -->
<g id="edge19_Node000001_Node000016" class="edge">
<title>Node1&#45;&gt;Node16</title>
<g id="a_edge19_Node000001_Node000016"><a xlink:title=" ">
<path fill="none" stroke="#63b8ff" d="M575,-170.36C608.32,-162.15 666.98,-147.64 725.88,-132.78"/>
<polygon fill="#63b8ff" stroke="#63b8ff" points="726.57,-136.21 735.41,-130.37 724.85,-129.43 726.57,-136.21"/>
</a>
</g>
</g>
<!-- Node17 -->
<g id="Node000017" class="node">
<title>Node17</title>
<g id="a_Node000017"><a xlink:title=" ">
<polygon fill="#e0e0e0" stroke="#999999" points="856.75,-132 809.25,-132 809.25,-112 856.75,-112 856.75,-132"/>
<text xml:space="preserve" text-anchor="middle" x="833" y="-118.5" font-family="Helvetica,sans-Serif" font-size="10.00">uuids.h</text>
</a>
</g>
</g>
<!-- Node1&#45;&gt;Node17 -->
<g id="edge20_Node000001_Node000017" class="edge">
<title>Node1&#45;&gt;Node17</title>
<g id="a_edge20_Node000001_Node000017"><a xlink:title=" ">
<path fill="none" stroke="#63b8ff" d="M575.01,-172.99C619.41,-166.23 710.8,-151.57 797.78,-132.33"/>
<polygon fill="#63b8ff" stroke="#63b8ff" points="798.44,-135.77 807.43,-130.17 796.91,-128.94 798.44,-135.77"/>
</a>
</g>
</g>
<!-- Node18 -->
<g id="Node000018" class="node">
<title>Node18</title>
<g id="a_Node000018"><a xlink:title=" ">
<polygon fill="#e0e0e0" stroke="#999999" points="912.88,-132 875.12,-132 875.12,-112 912.88,-112 912.88,-132"/>
<text xml:space="preserve" text-anchor="middle" x="894" y="-118.5" font-family="Helvetica,sans-Serif" font-size="10.00">dbt.h</text>
</a>
</g>
</g>
<!-- Node1&#45;&gt;Node18 -->
<g id="edge21_Node000001_Node000018" class="edge">
<title>Node1&#45;&gt;Node18</title>
<g id="a_edge21_Node000001_Node000018"><a xlink:title=" ">
<path fill="none" stroke="#63b8ff" d="M575.09,-174.74C628.55,-169.94 751.49,-157.26 863.67,-132.18"/>
<polygon fill="#63b8ff" stroke="#63b8ff" points="864.39,-135.61 873.36,-129.97 862.84,-128.78 864.39,-135.61"/>
</a>
</g>
</g>
<!-- Node19 -->
<g id="Node000019" class="node">
<title>Node19</title>
<g id="a_Node000019"><a xlink:title=" ">
<polygon fill="#e0e0e0" stroke="#999999" points="965.38,-132 930.62,-132 930.62,-112 965.38,-112 965.38,-132"/>
<text xml:space="preserve" text-anchor="middle" x="948" y="-118.5" font-family="Helvetica,sans-Serif" font-size="10.00">ks.h</text>
</a>
</g>
</g>
<!-- Node1&#45;&gt;Node19 -->
<g id="edge22_Node000001_Node000019" class="edge">
<title>Node1&#45;&gt;Node19</title>
<g id="a_edge22_Node000001_Node000019"><a xlink:title=" ">
<path fill="none" stroke="#63b8ff" d="M575.1,-175.72C635.49,-172.46 785.71,-162.04 919.04,-132.26"/>
<polygon fill="#63b8ff" stroke="#63b8ff" points="919.8,-135.68 928.77,-130.04 918.24,-128.86 919.8,-135.68"/>
</a>
</g>
</g>
<!-- Node20 -->
<g id="Node000020" class="node">
<title>Node20</title>
<g id="a_Node000020"><a xlink:title=" ">
<polygon fill="#e0e0e0" stroke="#999999" points="1041,-132 983,-132 983,-112 1041,-112 1041,-132"/>
<text xml:space="preserve" text-anchor="middle" x="1012" y="-118.5" font-family="Helvetica,sans-Serif" font-size="10.00">ksproxy.h</text>
</a>
</g>
</g>
<!-- Node1&#45;&gt;Node20 -->
<g id="edge23_Node000001_Node000020" class="edge">
<title>Node1&#45;&gt;Node20</title>
<g id="a_edge23_Node000001_Node000020"><a xlink:title=" ">
<path fill="none" stroke="#63b8ff" d="M575.08,-175.34C641.14,-171.04 815.99,-158.13 971.46,-132.24"/>
<polygon fill="#63b8ff" stroke="#63b8ff" points="971.85,-135.72 981.12,-130.6 970.68,-128.82 971.85,-135.72"/>
</a>
</g>
</g>
<!-- Node21 -->
<g id="Node000021" class="node">
<title>Node21</title>
<g id="a_Node000021"><a xlink:title=" ">
<polygon fill="#e0e0e0" stroke="#999999" points="1141.38,-132 1058.62,-132 1058.62,-112 1141.38,-112 1141.38,-132"/>
<text xml:space="preserve" text-anchor="middle" x="1100" y="-118.5" font-family="Helvetica,sans-Serif" font-size="10.00">unordered_map</text>
</a>
</g>
</g>
<!-- Node1&#45;&gt;Node21 -->
<g id="edge24_Node000001_Node000021" class="edge">
<title>Node1&#45;&gt;Node21</title>
<g id="a_edge24_Node000001_Node000021"><a xlink:title=" ">
<path fill="none" stroke="#63b8ff" d="M575.03,-175.42C648.92,-170.93 860.69,-156.88 1046.92,-132.31"/>
<polygon fill="#63b8ff" stroke="#63b8ff" points="1047.35,-135.78 1056.8,-130.99 1046.43,-128.85 1047.35,-135.78"/>
</a>
</g>
</g>
<!-- Node22 -->
<g id="Node000022" class="node">
<title>Node22</title>
<g id="a_Node000022"><a xlink:title=" ">
<polygon fill="#e0e0e0" stroke="#999999" points="1202.5,-132 1159.5,-132 1159.5,-112 1202.5,-112 1202.5,-132"/>
<text xml:space="preserve" text-anchor="middle" x="1181" y="-118.5" font-family="Helvetica,sans-Serif" font-size="10.00">mutex</text>
</a>
</g>
</g>
<!-- Node1&#45;&gt;Node22 -->
<g id="edge26_Node000001_Node000022" class="edge">
<title>Node1&#45;&gt;Node22</title>
<g id="a_edge26_Node000001_Node000022"><a xlink:title=" ">
<path fill="none" stroke="#63b8ff" d="M574.95,-176.97C658.71,-176.47 921.9,-171.76 1148.04,-131.95"/>
<polygon fill="#63b8ff" stroke="#63b8ff" points="1148.4,-135.44 1157.63,-130.23 1147.17,-128.55 1148.4,-135.44"/>
</a>
</g>
</g>
<!-- Node2&#45;&gt;Node3 -->
<g id="edge2_Node000002_Node000003" class="edge">
<title>Node2&#45;&gt;Node3</title>
<g id="a_edge2_Node000002_Node000003"><a xlink:title=" ">
<path fill="none" stroke="#63b8ff" d="M151.53,-111.59C130.97,-102.99 100.3,-90.15 77.15,-80.46"/>
<polygon fill="#63b8ff" stroke="#63b8ff" points="78.75,-77.34 68.18,-76.7 76.05,-83.79 78.75,-77.34"/>
</a>
</g>
</g>
<!-- Node2&#45;&gt;Node5 -->
<g id="edge4_Node000002_Node000005" class="edge">
<title>Node2&#45;&gt;Node5</title>
<g id="a_edge4_Node000002_Node000005"><a xlink:title=" ">
<path fill="none" stroke="#63b8ff" d="M162.16,-111.59C152.31,-103.77 138.07,-92.46 126.39,-83.19"/>
<polygon fill="#63b8ff" stroke="#63b8ff" points="128.9,-80.72 118.89,-77.24 124.55,-86.2 128.9,-80.72"/>
</a>
</g>
</g>
<!-- Node6 -->
<g id="Node000006" class="node">
<title>Node6</title>
<g id="a_Node000006"><a xlink:title=" ">
<polygon fill="#e0e0e0" stroke="#999999" points="267,-76 209,-76 209,-56 267,-56 267,-76"/>
<text xml:space="preserve" text-anchor="middle" x="238" y="-62.5" font-family="Helvetica,sans-Serif" font-size="10.00">functional</text>
</a>
</g>
</g>
<!-- Node2&#45;&gt;Node6 -->
<g id="edge5_Node000002_Node000006" class="edge">
<title>Node2&#45;&gt;Node6</title>
<g id="a_edge5_Node000002_Node000006"><a xlink:title=" ">
<path fill="none" stroke="#63b8ff" d="M185.15,-111.59C194.33,-103.85 207.55,-92.69 218.48,-83.47"/>
<polygon fill="#63b8ff" stroke="#63b8ff" points="220.44,-86.4 225.82,-77.27 215.92,-81.05 220.44,-86.4"/>
</a>
</g>
</g>
<!-- Node2&#45;&gt;Node7 -->
<g id="edge6_Node000002_Node000007" class="edge">
<title>Node2&#45;&gt;Node7</title>
<g id="a_edge6_Node000002_Node000007"><a xlink:title=" ">
<path fill="none" stroke="#63b8ff" d="M197.86,-111.59C219.54,-103.05 251.77,-90.35 276.29,-80.68"/>
<polygon fill="#63b8ff" stroke="#63b8ff" points="277.52,-83.96 285.54,-77.03 274.96,-77.45 277.52,-83.96"/>
</a>
</g>
</g>
<!-- Node8 -->
<g id="Node000008" class="node">
<title>Node8</title>
<g id="a_Node000008"><a xlink:title=" ">
<polygon fill="#e0e0e0" stroke="#999999" points="190.62,-76 145.38,-76 145.38,-56 190.62,-56 190.62,-76"/>
<text xml:space="preserve" text-anchor="middle" x="168" y="-62.5" font-family="Helvetica,sans-Serif" font-size="10.00">cstdint</text>
</a>
</g>
</g>
<!-- Node2&#45;&gt;Node8 -->
<g id="edge7_Node000002_Node000008" class="edge">
<title>Node2&#45;&gt;Node8</title>
<g id="a_edge7_Node000002_Node000008"><a xlink:title=" ">
<path fill="none" stroke="#63b8ff" d="M172.95,-111.59C172.22,-105.01 171.22,-95.96 170.3,-87.73"/>
<polygon fill="#63b8ff" stroke="#63b8ff" points="173.78,-87.35 169.2,-77.8 166.83,-88.13 173.78,-87.35"/>
</a>
</g>
</g>
<!-- Node2&#45;&gt;Node9 -->
<g id="edge8_Node000002_Node000009" class="edge">
<title>Node2&#45;&gt;Node9</title>
<g id="a_edge8_Node000002_Node000009"><a xlink:title=" ">
<path fill="none" stroke="#63b8ff" d="M210.93,-111.59C247.85,-102.19 304.59,-87.74 343.4,-77.85"/>
<polygon fill="#63b8ff" stroke="#63b8ff" points="344.04,-81.3 352.87,-75.44 342.31,-74.52 344.04,-81.3"/>
</a>
</g>
</g>
<!-- Node3&#45;&gt;Node4 -->
<g id="edge3_Node000003_Node000004" class="edge">
<title>Node3&#45;&gt;Node4</title>
<g id="a_edge3_Node000003_Node000004"><a xlink:title=" ">
<path fill="none" stroke="#63b8ff" d="M40.65,-55.59C37.45,-48.7 33.01,-39.1 29.06,-30.57"/>
<polygon fill="#63b8ff" stroke="#63b8ff" points="32.32,-29.28 24.94,-21.67 25.97,-32.22 32.32,-29.28"/>
</a>
</g>
</g>
</g>
</svg>
