<?xml version="1.0" encoding="UTF-8" standalone="no"?>
<!DOCTYPE svg PUBLIC "-//W3C//DTD SVG 1.1//EN"
 "http://www.w3.org/Graphics/SVG/1.1/DTD/svg11.dtd">
<!-- Generated by graphviz version 14.0.2 (20251019.1705)
 -->
<!-- Title: core/device.h Pages: 1 -->
<svg width="888pt" height="96pt"
 viewBox="0.00 0.00 888.00 96.00" xmlns="http://www.w3.org/2000/svg" xmlns:xlink="http://www.w3.org/1999/xlink">
<g id="graph0" class="graph" transform="scale(1 1) rotate(0) translate(4 92)">
<title>core/device.h</title>
<!-- Node1 -->
<g id="Node000001" class="node">
<title>Node1</title>
<g id="a_Node000001"><a xlink:title="Device enumeration and management functions.">
<polygon fill="#999999" stroke="#666666" points="419.12,-88 344.62,-88 344.62,-68 419.12,-68 419.12,-88"/>
<text xml:space="preserve" text-anchor="middle" x="381.88" y="-74.5" font-family="Helvetica,sans-Serif" font-size="10.00">core/device.h</text>
</a>
</g>
</g>
<!-- Node2 -->
<g id="Node000002" class="node">
<title>Node2</title>
<g id="a_Node000002"><a xlink:href="api_8cpp.html" target="_top" xlink:title="Complete C ABI implementation for duvc&#45;ctl library.">
<polygon fill="white" stroke="#666666" points="55.75,-26 0,-26 0,-6 55.75,-6 55.75,-26"/>
<text xml:space="preserve" text-anchor="middle" x="27.88" y="-12.5" font-family="Helvetica,sans-Serif" font-size="10.00">c/api.cpp</text>
</a>
</g>
</g>
<!-- Node1&#45;&gt;Node2 -->
<g id="edge1_Node000001_Node000002" class="edge">
<title>Node1&#45;&gt;Node2</title>
<g id="a_edge1_Node000001_Node000002"><a xlink:title=" ">
<path fill="none" stroke="#63b8ff" d="M333.04,-73.78C270.14,-68.8 157.85,-57.04 64.88,-32 59.52,-30.56 53.9,-28.55 48.7,-26.48"/>
<polygon fill="#63b8ff" stroke="#63b8ff" points="332.44,-77.25 342.68,-74.52 332.98,-70.27 332.44,-77.25"/>
</a>
</g>
</g>
<!-- Node3 -->
<g id="Node000003" class="node">
<title>Node3</title>
<g id="a_Node000003"><a xlink:href="camera_8cpp.html" target="_top" xlink:title="RAII camera handle implementation.">
<polygon fill="white" stroke="#666666" points="162.25,-26 73.5,-26 73.5,-6 162.25,-6 162.25,-26"/>
<text xml:space="preserve" text-anchor="middle" x="117.88" y="-12.5" font-family="Helvetica,sans-Serif" font-size="10.00">core/camera.cpp</text>
</a>
</g>
</g>
<!-- Node1&#45;&gt;Node3 -->
<g id="edge2_Node000001_Node000003" class="edge">
<title>Node1&#45;&gt;Node3</title>
<g id="a_edge2_Node000001_Node000003"><a xlink:title=" ">
<path fill="none" stroke="#63b8ff" d="M333.11,-67.55C290.21,-59 226.16,-45.7 170.88,-32 164.1,-30.32 156.88,-28.38 150.02,-26.46"/>
<polygon fill="#63b8ff" stroke="#63b8ff" points="332.38,-70.97 342.87,-69.48 333.74,-64.1 332.38,-70.97"/>
</a>
</g>
</g>
<!-- Node4 -->
<g id="Node000004" class="node">
<title>Node4</title>
<g id="a_Node000004"><a xlink:href="capability_8cpp.html" target="_top" xlink:title="Device capability detection implementation using Camera API.">
<polygon fill="white" stroke="#666666" points="277.38,-26 180.38,-26 180.38,-6 277.38,-6 277.38,-26"/>
<text xml:space="preserve" text-anchor="middle" x="228.88" y="-12.5" font-family="Helvetica,sans-Serif" font-size="10.00">core/capability.cpp</text>
</a>
</g>
</g>
<!-- Node1&#45;&gt;Node4 -->
<g id="edge3_Node000001_Node000004" class="edge">
<title>Node1&#45;&gt;Node4</title>
<g id="a_edge3_Node000001_Node000004"><a xlink:title=" ">
<path fill="none" stroke="#63b8ff" d="M347.55,-63.54C318.74,-52.24 278.31,-36.39 252.87,-26.41"/>
<polygon fill="#63b8ff" stroke="#63b8ff" points="345.97,-66.68 356.56,-67.07 348.53,-60.16 345.97,-66.68"/>
</a>
</g>
</g>
<!-- Node5 -->
<g id="Node000005" class="node">
<title>Node5</title>
<g id="a_Node000005"><a xlink:href="device_8cpp.html" target="_top" xlink:title="Device enumeration and management implementation.">
<polygon fill="white" stroke="#666666" points="380.38,-26 295.38,-26 295.38,-6 380.38,-6 380.38,-26"/>
<text xml:space="preserve" text-anchor="middle" x="337.88" y="-12.5" font-family="Helvetica,sans-Serif" font-size="10.00">core/device.cpp</text>
</a>
</g>
</g>
<!-- Node1&#45;&gt;Node5 -->
<g id="edge4_Node000001_Node000005" class="edge">
<title>Node1&#45;&gt;Node5</title>
<g id="a_edge4_Node000001_Node000005"><a xlink:title=" ">
<path fill="none" stroke="#63b8ff" d="M368.38,-58.6C360.48,-47.83 350.86,-34.7 344.56,-26.11"/>
<polygon fill="#63b8ff" stroke="#63b8ff" points="365.37,-60.41 374.1,-66.4 371.01,-56.27 365.37,-60.41"/>
</a>
</g>
</g>
<!-- Node6 -->
<g id="Node000006" class="node">
<title>Node6</title>
<g id="a_Node000006"><a xlink:href="duvc_8hpp.html" target="_top" xlink:title="Main umbrella header for duvc&#45;ctl library.">
<polygon fill="white" stroke="#666666" points="453.75,-26 398,-26 398,-6 453.75,-6 453.75,-26"/>
<text xml:space="preserve" text-anchor="middle" x="425.88" y="-12.5" font-family="Helvetica,sans-Serif" font-size="10.00">duvc.hpp</text>
</a>
</g>
</g>
<!-- Node1&#45;&gt;Node6 -->
<g id="edge5_Node000001_Node000006" class="edge">
<title>Node1&#45;&gt;Node6</title>
<g id="a_edge5_Node000001_Node000006"><a xlink:title=" ">
<path fill="none" stroke="#63b8ff" d="M395.37,-58.6C403.27,-47.83 412.89,-34.7 419.19,-26.11"/>
<polygon fill="#63b8ff" stroke="#63b8ff" points="392.74,-56.27 389.65,-66.4 398.38,-60.41 392.74,-56.27"/>
</a>
</g>
</g>
<!-- Node7 -->
<g id="Node000007" class="node">
<title>Node7</title>
<g id="a_Node000007"><a xlink:href="connection__pool_8cpp.html" target="_top" xlink:title="Windows DirectShow connection pooling implementation.">
<polygon fill="white" stroke="#666666" points="614.25,-32 471.5,-32 471.5,0 614.25,0 614.25,-32"/>
<text xml:space="preserve" text-anchor="start" x="479.5" y="-18.5" font-family="Helvetica,sans-Serif" font-size="10.00">platform/windows/connection</text>
<text xml:space="preserve" text-anchor="middle" x="542.88" y="-6.5" font-family="Helvetica,sans-Serif" font-size="10.00">_pool.cpp</text>
</a>
</g>
</g>
<!-- Node1&#45;&gt;Node7 -->
<g id="edge6_Node000001_Node000007" class="edge">
<title>Node1&#45;&gt;Node7</title>
<g id="a_edge6_Node000001_Node000007"><a xlink:title=" ">
<path fill="none" stroke="#63b8ff" d="M417.76,-63.63C442.49,-54.41 475.44,-42.13 501.31,-32.49"/>
<polygon fill="#63b8ff" stroke="#63b8ff" points="416.6,-60.32 408.45,-67.1 419.04,-66.88 416.6,-60.32"/>
</a>
</g>
</g>
<!-- Node8 -->
<g id="Node000008" class="node">
<title>Node8</title>
<g id="a_Node000008"><a xlink:href="device__monitor_8cpp.html" target="_top" xlink:title="Windows device hotplug detection implementation.">
<polygon fill="white" stroke="#666666" points="755.88,-32 631.88,-32 631.88,0 755.88,0 755.88,-32"/>
<text xml:space="preserve" text-anchor="start" x="639.88" y="-18.5" font-family="Helvetica,sans-Serif" font-size="10.00">platform/windows/device</text>
<text xml:space="preserve" text-anchor="middle" x="693.88" y="-6.5" font-family="Helvetica,sans-Serif" font-size="10.00">_monitor.cpp</text>
</a>
</g>
</g>
<!-- Node1&#45;&gt;Node8 -->
<g id="edge7_Node000001_Node000008" class="edge">
<title>Node1&#45;&gt;Node8</title>
<g id="a_edge7_Node000001_Node000008"><a xlink:title=" ">
<path fill="none" stroke="#63b8ff" d="M430.65,-68.24C479.38,-59.41 556.4,-45.23 622.88,-32 625.72,-31.43 628.62,-30.85 631.55,-30.25"/>
<polygon fill="#63b8ff" stroke="#63b8ff" points="430.2,-64.77 420.99,-69.99 431.45,-71.65 430.2,-64.77"/>
</a>
</g>
</g>
<!-- Node9 -->
<g id="Node000009" class="node">
<title>Node9</title>
<g id="a_Node000009"><a xlink:href="ks__properties_8cpp.html" target="_top" xlink:title="IKsPropertySet implementation for vendor properties.">
<polygon fill="white" stroke="#666666" points="879.88,-32 773.88,-32 773.88,0 879.88,0 879.88,-32"/>
<text xml:space="preserve" text-anchor="start" x="781.88" y="-18.5" font-family="Helvetica,sans-Serif" font-size="10.00">platform/windows/ks</text>
<text xml:space="preserve" text-anchor="middle" x="826.88" y="-6.5" font-family="Helvetica,sans-Serif" font-size="10.00">_properties.cpp</text>
</a>
</g>
</g>
<!-- Node1&#45;&gt;Node9 -->
<g id="edge8_Node000001_Node000009" class="edge">
<title>Node1&#45;&gt;Node9</title>
<g id="a_edge8_Node000001_Node000009"><a xlink:title=" ">
<path fill="none" stroke="#63b8ff" d="M430.73,-73.16C503.8,-66.98 645.71,-53.34 764.88,-32 767.71,-31.49 770.61,-30.93 773.53,-30.34"/>
<polygon fill="#63b8ff" stroke="#63b8ff" points="430.79,-69.64 421.12,-73.96 431.37,-76.62 430.79,-69.64"/>
</a>
</g>
</g>
</g>
</svg>
