<?xml version="1.0" encoding="UTF-8" standalone="no"?>
<!DOCTYPE svg PUBLIC "-//W3C//DTD SVG 1.1//EN"
 "http://www.w3.org/Graphics/SVG/1.1/DTD/svg11.dtd">
<!-- Generated by graphviz version 14.0.2 (20251019.1705)
 -->
<!-- Title: platform/windows/device_monitor.cpp Pages: 1 -->
<svg width="574pt" height="220pt"
 viewBox="0.00 0.00 574.00 220.00" xmlns="http://www.w3.org/2000/svg" xmlns:xlink="http://www.w3.org/1999/xlink">
<g id="graph0" class="graph" transform="scale(1 1) rotate(0) translate(4 216)">
<title>platform/windows/device_monitor.cpp</title>
<!-- Node1 -->
<g id="Node000001" class="node">
<title>Node1</title>
<g id="a_Node000001"><a xlink:title="Windows device hotplug detection implementation.">
<polygon fill="#999999" stroke="#666666" points="304.88,-212 180.88,-212 180.88,-180 304.88,-180 304.88,-212"/>
<text xml:space="preserve" text-anchor="start" x="188.88" y="-198.5" font-family="Helvetica,sans-Serif" font-size="10.00">platform/windows/device</text>
<text xml:space="preserve" text-anchor="middle" x="242.88" y="-186.5" font-family="Helvetica,sans-Serif" font-size="10.00">_monitor.cpp</text>
</a>
</g>
</g>
<!-- Node2 -->
<g id="Node000002" class="node">
<title>Node2</title>
<g id="a_Node000002"><a xlink:title=" ">
<polygon fill="#e0e0e0" stroke="#999999" points="37.75,-138 0,-138 0,-118 37.75,-118 37.75,-138"/>
<text xml:space="preserve" text-anchor="middle" x="18.88" y="-124.5" font-family="Helvetica,sans-Serif" font-size="10.00">dbt.h</text>
</a>
</g>
</g>
<!-- Node1&#45;&gt;Node2 -->
<g id="edge1_Node000001_Node000002" class="edge">
<title>Node1&#45;&gt;Node2</title>
<g id="a_edge1_Node000001_Node000002"><a xlink:title=" ">
<path fill="none" stroke="#63b8ff" d="M180.77,-182.8C141.62,-174.15 90.42,-161.05 46.88,-144 46.25,-143.75 45.62,-143.5 44.99,-143.23"/>
<polygon fill="#63b8ff" stroke="#63b8ff" points="46.75,-140.2 36.22,-139.05 43.73,-146.51 46.75,-140.2"/>
</a>
</g>
</g>
<!-- Node3 -->
<g id="Node000003" class="node">
<title>Node3</title>
<g id="a_Node000003"><a xlink:title=" ">
<polygon fill="#e0e0e0" stroke="#999999" points="107.88,-138 55.88,-138 55.88,-118 107.88,-118 107.88,-138"/>
<text xml:space="preserve" text-anchor="middle" x="81.88" y="-124.5" font-family="Helvetica,sans-Serif" font-size="10.00">dshow.h</text>
</a>
</g>
</g>
<!-- Node1&#45;&gt;Node3 -->
<g id="edge2_Node000001_Node000003" class="edge">
<title>Node1&#45;&gt;Node3</title>
<g id="a_edge2_Node000001_Node000003"><a xlink:title=" ">
<path fill="none" stroke="#63b8ff" d="M204.19,-179.58C179.22,-169.56 146.07,-156.16 116.88,-144 115.94,-143.61 114.99,-143.21 114.04,-142.81"/>
<polygon fill="#63b8ff" stroke="#63b8ff" points="115.66,-139.7 105.08,-139.02 112.93,-146.14 115.66,-139.7"/>
</a>
</g>
</g>
<!-- Node4 -->
<g id="Node000004" class="node">
<title>Node4</title>
<g id="a_Node000004"><a xlink:href="device_8h.html" target="_top" xlink:title="Device enumeration and management functions.">
<polygon fill="white" stroke="#666666" points="237.88,-138 125.88,-138 125.88,-118 237.88,-118 237.88,-138"/>
<text xml:space="preserve" text-anchor="middle" x="181.88" y="-124.5" font-family="Helvetica,sans-Serif" font-size="10.00">duvc&#45;ctl/core/device.h</text>
</a>
</g>
</g>
<!-- Node1&#45;&gt;Node4 -->
<g id="edge3_Node000001_Node000004" class="edge">
<title>Node1&#45;&gt;Node4</title>
<g id="a_edge3_Node000001_Node000004"><a xlink:title=" ">
<path fill="none" stroke="#63b8ff" d="M228.73,-179.69C219.58,-169.8 207.65,-156.89 198.12,-146.57"/>
<polygon fill="#63b8ff" stroke="#63b8ff" points="200.87,-144.4 191.51,-139.43 195.73,-149.15 200.87,-144.4"/>
</a>
</g>
</g>
<!-- Node9 -->
<g id="Node000009" class="node">
<title>Node9</title>
<g id="a_Node000009"><a xlink:title=" ">
<polygon fill="#e0e0e0" stroke="#999999" points="354.12,-144 255.62,-144 255.62,-112 354.12,-112 354.12,-144"/>
<text xml:space="preserve" text-anchor="start" x="263.62" y="-130.5" font-family="Helvetica,sans-Serif" font-size="10.00">duvc&#45;ctl/detail/com</text>
<text xml:space="preserve" text-anchor="middle" x="304.88" y="-118.5" font-family="Helvetica,sans-Serif" font-size="10.00">_helpers.h</text>
</a>
</g>
</g>
<!-- Node1&#45;&gt;Node9 -->
<g id="edge8_Node000001_Node000009" class="edge">
<title>Node1&#45;&gt;Node9</title>
<g id="a_edge8_Node000001_Node000009"><a xlink:title=" ">
<path fill="none" stroke="#63b8ff" d="M257.25,-179.69C264.85,-171.61 274.32,-161.52 282.82,-152.48"/>
<polygon fill="#63b8ff" stroke="#63b8ff" points="285.24,-155.01 289.54,-145.33 280.14,-150.22 285.24,-155.01"/>
</a>
</g>
</g>
<!-- Node10 -->
<g id="Node000010" class="node">
<title>Node10</title>
<g id="a_Node000010"><a xlink:href="logging_8h.html" target="_top" xlink:title="Structured logging interface for duvc&#45;ctl.">
<polygon fill="white" stroke="#666666" points="485.62,-138 372.12,-138 372.12,-118 485.62,-118 485.62,-138"/>
<text xml:space="preserve" text-anchor="middle" x="428.88" y="-124.5" font-family="Helvetica,sans-Serif" font-size="10.00">duvc&#45;ctl/utils/logging.h</text>
</a>
</g>
</g>
<!-- Node1&#45;&gt;Node10 -->
<g id="edge9_Node000001_Node000010" class="edge">
<title>Node1&#45;&gt;Node10</title>
<g id="a_edge9_Node000001_Node000010"><a xlink:title=" ">
<path fill="none" stroke="#63b8ff" d="M286.48,-179.53C318.42,-168.19 361.32,-152.97 391.65,-142.21"/>
<polygon fill="#63b8ff" stroke="#63b8ff" points="392.53,-145.61 400.79,-138.97 390.19,-139.01 392.53,-145.61"/>
</a>
</g>
</g>
<!-- Node11 -->
<g id="Node000011" class="node">
<title>Node11</title>
<g id="a_Node000011"><a xlink:title=" ">
<polygon fill="#e0e0e0" stroke="#999999" points="566.12,-138 503.62,-138 503.62,-118 566.12,-118 566.12,-138"/>
<text xml:space="preserve" text-anchor="middle" x="534.88" y="-124.5" font-family="Helvetica,sans-Serif" font-size="10.00">windows.h</text>
</a>
</g>
</g>
<!-- Node1&#45;&gt;Node11 -->
<g id="edge12_Node000001_Node000011" class="edge">
<title>Node1&#45;&gt;Node11</title>
<g id="a_edge12_Node000001_Node000011"><a xlink:title=" ">
<path fill="none" stroke="#63b8ff" d="M305.16,-185.24C356.57,-176.5 431.16,-162.27 494.88,-144 496.87,-143.43 498.91,-142.8 500.96,-142.14"/>
<polygon fill="#63b8ff" stroke="#63b8ff" points="502.09,-145.45 510.39,-138.86 499.79,-138.84 502.09,-145.45"/>
</a>
</g>
</g>
<!-- Node5 -->
<g id="Node000005" class="node">
<title>Node5</title>
<g id="a_Node000005"><a xlink:href="types_8h.html" target="_top" xlink:title="Core data types and enumerations for duvc&#45;ctl.">
<polygon fill="white" stroke="#666666" points="235.62,-76 128.12,-76 128.12,-56 235.62,-56 235.62,-76"/>
<text xml:space="preserve" text-anchor="middle" x="181.88" y="-62.5" font-family="Helvetica,sans-Serif" font-size="10.00">duvc&#45;ctl/core/types.h</text>
</a>
</g>
</g>
<!-- Node4&#45;&gt;Node5 -->
<g id="edge4_Node000004_Node000005" class="edge">
<title>Node4&#45;&gt;Node5</title>
<g id="a_edge4_Node000004_Node000005"><a xlink:title=" ">
<path fill="none" stroke="#63b8ff" d="M181.88,-117.62C181.88,-109.56 181.88,-97.65 181.88,-87.41"/>
<polygon fill="#63b8ff" stroke="#63b8ff" points="185.38,-87.63 181.88,-77.63 178.38,-87.63 185.38,-87.63"/>
</a>
</g>
</g>
<!-- Node7 -->
<g id="Node000007" class="node">
<title>Node7</title>
<g id="a_Node000007"><a xlink:title=" ">
<polygon fill="#e0e0e0" stroke="#999999" points="386.88,-76 328.88,-76 328.88,-56 386.88,-56 386.88,-76"/>
<text xml:space="preserve" text-anchor="middle" x="357.88" y="-62.5" font-family="Helvetica,sans-Serif" font-size="10.00">functional</text>
</a>
</g>
</g>
<!-- Node4&#45;&gt;Node7 -->
<g id="edge6_Node000004_Node000007" class="edge">
<title>Node4&#45;&gt;Node7</title>
<g id="a_edge6_Node000004_Node000007"><a xlink:title=" ">
<path fill="none" stroke="#63b8ff" d="M209.38,-117.62C238.99,-107.53 286.34,-91.39 319.59,-80.05"/>
<polygon fill="#63b8ff" stroke="#63b8ff" points="320.51,-83.44 328.85,-76.9 318.25,-76.81 320.51,-83.44"/>
</a>
</g>
</g>
<!-- Node8 -->
<g id="Node000008" class="node">
<title>Node8</title>
<g id="a_Node000008"><a xlink:title=" ">
<polygon fill="#e0e0e0" stroke="#999999" points="296.38,-76 253.38,-76 253.38,-56 296.38,-56 296.38,-76"/>
<text xml:space="preserve" text-anchor="middle" x="274.88" y="-62.5" font-family="Helvetica,sans-Serif" font-size="10.00">vector</text>
</a>
</g>
</g>
<!-- Node4&#45;&gt;Node8 -->
<g id="edge7_Node000004_Node000008" class="edge">
<title>Node4&#45;&gt;Node8</title>
<g id="a_edge7_Node000004_Node000008"><a xlink:title=" ">
<path fill="none" stroke="#63b8ff" d="M196.41,-117.62C211.01,-108.2 233.77,-93.52 251.03,-82.39"/>
<polygon fill="#63b8ff" stroke="#63b8ff" points="252.67,-85.49 259.17,-77.13 248.87,-79.61 252.67,-85.49"/>
</a>
</g>
</g>
<!-- Node6 -->
<g id="Node000006" class="node">
<title>Node6</title>
<g id="a_Node000006"><a xlink:title=" ">
<polygon fill="#e0e0e0" stroke="#999999" points="310.88,-20 270.88,-20 270.88,0 310.88,0 310.88,-20"/>
<text xml:space="preserve" text-anchor="middle" x="290.88" y="-6.5" font-family="Helvetica,sans-Serif" font-size="10.00">string</text>
</a>
</g>
</g>
<!-- Node5&#45;&gt;Node6 -->
<g id="edge5_Node000005_Node000006" class="edge">
<title>Node5&#45;&gt;Node6</title>
<g id="a_edge5_Node000005_Node000006"><a xlink:title=" ">
<path fill="none" stroke="#63b8ff" d="M200.86,-55.59C217.64,-47.28 242.37,-35.03 261.66,-25.47"/>
<polygon fill="#63b8ff" stroke="#63b8ff" points="262.98,-28.73 270.38,-21.15 259.87,-22.45 262.98,-28.73"/>
</a>
</g>
</g>
<!-- Node10&#45;&gt;Node6 -->
<g id="edge11_Node000010_Node000006" class="edge">
<title>Node10&#45;&gt;Node6</title>
<g id="a_edge11_Node000010_Node000006"><a xlink:title=" ">
<path fill="none" stroke="#63b8ff" d="M426.89,-117.93C423.22,-103.11 414.02,-73.61 395.88,-56 375.42,-36.15 344.84,-24.41 321.95,-17.92"/>
<polygon fill="#63b8ff" stroke="#63b8ff" points="323.11,-14.61 312.55,-15.46 321.34,-21.38 323.11,-14.61"/>
</a>
</g>
</g>
<!-- Node10&#45;&gt;Node7 -->
<g id="edge10_Node000010_Node000007" class="edge">
<title>Node10&#45;&gt;Node7</title>
<g id="a_edge10_Node000010_Node000007"><a xlink:title=" ">
<path fill="none" stroke="#63b8ff" d="M417.78,-117.62C406.99,-108.5 390.35,-94.45 377.35,-83.46"/>
<polygon fill="#63b8ff" stroke="#63b8ff" points="379.71,-80.87 369.81,-77.09 375.19,-86.22 379.71,-80.87"/>
</a>
</g>
</g>
</g>
</svg>
