<?xml version="1.0" encoding="UTF-8" standalone="no"?>
<!DOCTYPE svg PUBLIC "-//W3C//DTD SVG 1.1//EN"
 "http://www.w3.org/Graphics/SVG/1.1/DTD/svg11.dtd">
<!-- Generated by graphviz version 14.0.2 (20251019.1705)
 -->
<!-- Title: core/device.h Pages: 1 -->
<!--zoomable 96 -->

<svg id="main" version="1.1" xmlns="http://www.w3.org/2000/svg" xmlns:xlink="http://www.w3.org/1999/xlink" xml:space="preserve" onload="init(evt)">
<style type="text/css"><![CDATA[
.node, .edge {opacity: 0.7;}
.node.selected, .edge.selected {opacity: 1;}
.edge:hover path { stroke: red; }
.edge:hover polygon { stroke: red; fill: red; }
]]></style>

<defs>
  <circle id="rim" cx="0" cy="0" r="7"/>
  <circle id="rim2" cx="0" cy="0" r="3.5"/>
  <g id="zoomPlus">
    <use xlink:href="#rim" fill="#404040"><set attributeName="fill" to="#808080" begin="zoomplus.mouseover" end="zoomplus.mouseout"/></use>
    <path d="M-4,0h8M0,-4v8" fill="none" stroke="white" stroke-width="1.5" pointer-events="none"/>
  </g>
  <g id="zoomMin">
    <use xlink:href="#rim" fill="#404040"><set attributeName="fill" to="#808080" begin="zoomminus.mouseover" end="zoomminus.mouseout"/></use>
    <path d="M-4,0h8" fill="none" stroke="white" stroke-width="1.5" pointer-events="none"/>
  </g>
  <g id="arrowUp" transform="translate(30 24)">
    <use xlink:href="#rim"/>
    <path pointer-events="none" fill="none" stroke="white" stroke-width="1.5" d="M0,-3.0v7 M-2.5,-0.5L0,-3.0L2.5,-0.5"/>
  </g>
  <g id="arrowRight" transform="rotate(90) translate(36 -43)">
    <use xlink:href="#rim"/>
    <path pointer-events="none" fill="none" stroke="white" stroke-width="1.5" d="M0,-3.0v7 M-2.5,-0.5L0,-3.0L2.5,-0.5"/>
  </g>
  <g id="arrowDown" transform="rotate(180) translate(-30 -48)">
    <use xlink:href="#rim"/>
    <path pointer-events="none" fill="none" stroke="white" stroke-width="1.5" d="M0,-3.0v7 M-2.5,-0.5L0,-3.0L2.5,-0.5"/>
  </g>
  <g id="arrowLeft" transform="rotate(270) translate(-36 17)">
    <use xlink:href="#rim"/>
    <path pointer-events="none" fill="none" stroke="white" stroke-width="1.5" d="M0,-3.0v7 M-2.5,-0.5L0,-3.0L2.5,-0.5"/>
  </g>
  <g id="resetDef">
    <use xlink:href="#rim2" fill="#404040"><set attributeName="fill" to="#808080" begin="reset.mouseover" end="reset.mouseout"/></use>
  </g>
</defs>
<script type="application/ecmascript">
var viewWidth = 888;
var viewHeight = 96;
var sectionId = 'dynsection-1';
</script>
<script type="application/ecmascript" xlink:href="svg.min.js"/>
<svg id="graph" class="graph">
<g id="viewport">
<title>core/device.h</title>
<!-- Node1 -->
<g id="Node000001" class="node">
<title>Node1</title>
<g id="a_Node000001"><a xlink:title="Device enumeration and management functions.">
<polygon fill="#999999" stroke="#666666" points="419.12,-88 344.62,-88 344.62,-68 419.12,-68 419.12,-88"/>
<text xml:space="preserve" text-anchor="middle" x="381.88" y="-74.5" font-family="Helvetica,sans-Serif" font-size="10.00">core/device.h</text>
</a>
</g>
</g>
<!-- Node2 -->
<g id="Node000002" class="node">
<title>Node2</title>
<g id="a_Node000002"><a xlink:href="api_8cpp.html" target="_top" xlink:title="Complete C ABI implementation for duvc&#45;ctl library.">
<polygon fill="white" stroke="#666666" points="55.75,-26 0,-26 0,-6 55.75,-6 55.75,-26"/>
<text xml:space="preserve" text-anchor="middle" x="27.88" y="-12.5" font-family="Helvetica,sans-Serif" font-size="10.00">c/api.cpp</text>
</a>
</g>
</g>
<!-- Node1&#45;&gt;Node2 -->
<g id="edge1_Node000001_Node000002" class="edge">
<title>Node1&#45;&gt;Node2</title>
<g id="a_edge1_Node000001_Node000002"><a xlink:title=" ">
<path fill="none" stroke="#63b8ff" d="M333.04,-73.78C270.14,-68.8 157.85,-57.04 64.88,-32 59.52,-30.56 53.9,-28.55 48.7,-26.48"/>
<polygon fill="#63b8ff" stroke="#63b8ff" points="332.44,-77.25 342.68,-74.52 332.98,-70.27 332.44,-77.25"/>
</a>
</g>
</g>
<!-- Node3 -->
<g id="Node000003" class="node">
<title>Node3</title>
<g id="a_Node000003"><a xlink:href="camera_8cpp.html" target="_top" xlink:title="RAII camera handle implementation.">
<polygon fill="white" stroke="#666666" points="162.25,-26 73.5,-26 73.5,-6 162.25,-6 162.25,-26"/>
<text xml:space="preserve" text-anchor="middle" x="117.88" y="-12.5" font-family="Helvetica,sans-Serif" font-size="10.00">core/camera.cpp</text>
</a>
</g>
</g>
<!-- Node1&#45;&gt;Node3 -->
<g id="edge2_Node000001_Node000003" class="edge">
<title>Node1&#45;&gt;Node3</title>
<g id="a_edge2_Node000001_Node000003"><a xlink:title=" ">
<path fill="none" stroke="#63b8ff" d="M333.11,-67.55C290.21,-59 226.16,-45.7 170.88,-32 164.1,-30.32 156.88,-28.38 150.02,-26.46"/>
<polygon fill="#63b8ff" stroke="#63b8ff" points="332.38,-70.97 342.87,-69.48 333.74,-64.1 332.38,-70.97"/>
</a>
</g>
</g>
<!-- Node4 -->
<g id="Node000004" class="node">
<title>Node4</title>
<g id="a_Node000004"><a xlink:href="capability_8cpp.html" target="_top" xlink:title="Device capability detection implementation using Camera API.">
<polygon fill="white" stroke="#666666" points="277.38,-26 180.38,-26 180.38,-6 277.38,-6 277.38,-26"/>
<text xml:space="preserve" text-anchor="middle" x="228.88" y="-12.5" font-family="Helvetica,sans-Serif" font-size="10.00">core/capability.cpp</text>
</a>
</g>
</g>
<!-- Node1&#45;&gt;Node4 -->
<g id="edge3_Node000001_Node000004" class="edge">
<title>Node1&#45;&gt;Node4</title>
<g id="a_edge3_Node000001_Node000004"><a xlink:title=" ">
<path fill="none" stroke="#63b8ff" d="M347.55,-63.54C318.74,-52.24 278.31,-36.39 252.87,-26.41"/>
<polygon fill="#63b8ff" stroke="#63b8ff" points="345.97,-66.68 356.56,-67.07 348.53,-60.16 345.97,-66.68"/>
</a>
</g>
</g>
<!-- Node5 -->
<g id="Node000005" class="node">
<title>Node5</title>
<g id="a_Node000005"><a xlink:href="device_8cpp.html" target="_top" xlink:title="Device enumeration and management implementation.">
<polygon fill="white" stroke="#666666" points="380.38,-26 295.38,-26 295.38,-6 380.38,-6 380.38,-26"/>
<text xml:space="preserve" text-anchor="middle" x="337.88" y="-12.5" font-family="Helvetica,sans-Serif" font-size="10.00">core/device.cpp</text>
</a>
</g>
</g>
<!-- Node1&#45;&gt;Node5 -->
<g id="edge4_Node000001_Node000005" class="edge">
<title>Node1&#45;&gt;Node5</title>
<g id="a_edge4_Node000001_Node000005"><a xlink:title=" ">
<path fill="none" stroke="#63b8ff" d="M368.38,-58.6C360.48,-47.83 350.86,-34.7 344.56,-26.11"/>
<polygon fill="#63b8ff" stroke="#63b8ff" points="365.37,-60.41 374.1,-66.4 371.01,-56.27 365.37,-60.41"/>
</a>
</g>
</g>
<!-- Node6 -->
<g id="Node000006" class="node">
<title>Node6</title>
<g id="a_Node000006"><a xlink:href="duvc_8hpp.html" target="_top" xlink:title="Main umbrella header for duvc&#45;ctl library.">
<polygon fill="white" stroke="#666666" points="453.75,-26 398,-26 398,-6 453.75,-6 453.75,-26"/>
<text xml:space="preserve" text-anchor="middle" x="425.88" y="-12.5" font-family="Helvetica,sans-Serif" font-size="10.00">duvc.hpp</text>
</a>
</g>
</g>
<!-- Node1&#45;&gt;Node6 -->
<g id="edge5_Node000001_Node000006" class="edge">
<title>Node1&#45;&gt;Node6</title>
<g id="a_edge5_Node000001_Node000006"><a xlink:title=" ">
<path fill="none" stroke="#63b8ff" d="M395.37,-58.6C403.27,-47.83 412.89,-34.7 419.19,-26.11"/>
<polygon fill="#63b8ff" stroke="#63b8ff" points="392.74,-56.27 389.65,-66.4 398.38,-60.41 392.74,-56.27"/>
</a>
</g>
</g>
<!-- Node7 -->
<g id="Node000007" class="node">
<title>Node7</title>
<g id="a_Node000007"><a xlink:href="connection__pool_8cpp.html" target="_top" xlink:title="Windows DirectShow connection pooling implementation.">
<polygon fill="white" stroke="#666666" points="614.25,-32 471.5,-32 471.5,0 614.25,0 614.25,-32"/>
<text xml:space="preserve" text-anchor="start" x="479.5" y="-18.5" font-family="Helvetica,sans-Serif" font-size="10.00">platform/windows/connection</text>
<text xml:space="preserve" text-anchor="middle" x="542.88" y="-6.5" font-family="Helvetica,sans-Serif" font-size="10.00">_pool.cpp</text>
</a>
</g>
</g>
<!-- Node1&#45;&gt;Node7 -->
<g id="edge6_Node000001_Node000007" class="edge">
<title>Node1&#45;&gt;Node7</title>
<g id="a_edge6_Node000001_Node000007"><a xlink:title=" ">
<path fill="none" stroke="#63b8ff" d="M417.76,-63.63C442.49,-54.41 475.44,-42.13 501.31,-32.49"/>
<polygon fill="#63b8ff" stroke="#63b8ff" points="416.6,-60.32 408.45,-67.1 419.04,-66.88 416.6,-60.32"/>
</a>
</g>
</g>
<!-- Node8 -->
<g id="Node000008" class="node">
<title>Node8</title>
<g id="a_Node000008"><a xlink:href="device__monitor_8cpp.html" target="_top" xlink:title="Windows device hotplug detection implementation.">
<polygon fill="white" stroke="#666666" points="755.88,-32 631.88,-32 631.88,0 755.88,0 755.88,-32"/>
<text xml:space="preserve" text-anchor="start" x="639.88" y="-18.5" font-family="Helvetica,sans-Serif" font-size="10.00">platform/windows/device</text>
<text xml:space="preserve" text-anchor="middle" x="693.88" y="-6.5" font-family="Helvetica,sans-Serif" font-size="10.00">_monitor.cpp</text>
</a>
</g>
</g>
<!-- Node1&#45;&gt;Node8 -->
<g id="edge7_Node000001_Node000008" class="edge">
<title>Node1&#45;&gt;Node8</title>
<g id="a_edge7_Node000001_Node000008"><a xlink:title=" ">
<path fill="none" stroke="#63b8ff" d="M430.65,-68.24C479.38,-59.41 556.4,-45.23 622.88,-32 625.72,-31.43 628.62,-30.85 631.55,-30.25"/>
<polygon fill="#63b8ff" stroke="#63b8ff" points="430.2,-64.77 420.99,-69.99 431.45,-71.65 430.2,-64.77"/>
</a>
</g>
</g>
<!-- Node9 -->
<g id="Node000009" class="node">
<title>Node9</title>
<g id="a_Node000009"><a xlink:href="ks__properties_8cpp.html" target="_top" xlink:title="IKsPropertySet implementation for vendor properties.">
<polygon fill="white" stroke="#666666" points="879.88,-32 773.88,-32 773.88,0 879.88,0 879.88,-32"/>
<text xml:space="preserve" text-anchor="start" x="781.88" y="-18.5" font-family="Helvetica,sans-Serif" font-size="10.00">platform/windows/ks</text>
<text xml:space="preserve" text-anchor="middle" x="826.88" y="-6.5" font-family="Helvetica,sans-Serif" font-size="10.00">_properties.cpp</text>
</a>
</g>
</g>
<!-- Node1&#45;&gt;Node9 -->
<g id="edge8_Node000001_Node000009" class="edge">
<title>Node1&#45;&gt;Node9</title>
<g id="a_edge8_Node000001_Node000009"><a xlink:title=" ">
<path fill="none" stroke="#63b8ff" d="M430.73,-73.16C503.8,-66.98 645.71,-53.34 764.88,-32 767.71,-31.49 770.61,-30.93 773.53,-30.34"/>
<polygon fill="#63b8ff" stroke="#63b8ff" points="430.79,-69.64 421.12,-73.96 431.37,-76.62 430.79,-69.64"/>
</a>
</g>
</g>
</g>
</svg>

<g id="navigator" transform="translate(0 0)" fill="#404254">
  <rect fill="#f2f5e9" fill-opacity="0.5" stroke="#606060" stroke-width=".5" x="0" y="0" width="60" height="60"/>
  <use id="zoomplus" xlink:href="#zoomPlus" x="17" y="9" onmousedown="handleZoom(evt,'in')"/>
  <use id="zoomminus" xlink:href="#zoomMin" x="42" y="9" onmousedown="handleZoom(evt,'out')"/>
  <use id="reset" xlink:href="#resetDef" x="30" y="36" onmousedown="handleReset()"/>
   <use id="arrowup" xlink:href="#arrowUp" x="0" y="0" onmousedown="handlePan(0,-1)"/>
  <use id="arrowright" xlink:href="#arrowRight" x="0" y="0" onmousedown="handlePan(1,0)"/>
  <use id="arrowdown" xlink:href="#arrowDown" x="0" y="0" onmousedown="handlePan(0,1)"/>
  <use id="arrowleft" xlink:href="#arrowLeft" x="0" y="0" onmousedown="handlePan(-1,0)"/>
</g>
<svg viewBox="0 0 15 15" width="100%" height="30px" preserveAspectRatio="xMaxYMin meet">
 <g id="arrow_out" transform="scale(0.3 0.3)">
  <a xlink:href="device_8h__dep__incl_org.svg" target="_base">
   <rect id="button" ry="5" rx="5" y="6" x="6" height="38" width="38"
        fill="#f2f5e9" fill-opacity="0.5" stroke="#606060" stroke-width="1.0"/>
   <path id="arrow"
     d="M 11.500037,31.436501 C 11.940474,20.09759 22.043105,11.32322 32.158766,21.979434 L 37.068811,17.246167 C 37.068811,17.246167 37.088388,32 37.088388,32 L 22.160133,31.978069 C 22.160133,31.978069 26.997745,27.140456 26.997745,27.140456 C 18.528582,18.264221 13.291696,25.230495 11.500037,31.436501 z"
     style="fill:#404040;"/>
  </a>
 </g>
</svg>

<style type='text/css'>
<![CDATA[
[data-mouse-over-selected='false'] { opacity: 0.7; }
[data-mouse-over-selected='true']  { opacity: 1.0; }
]]>
</style>
<script type="application/ecmascript"><![CDATA[
document.addEventListener('DOMContentLoaded', (event) => {
  highlightEdges();
  highlightAdjacentNodes();
});
]]></script>
</svg>
