<?xml version="1.0" encoding="UTF-8" standalone="no"?>
<!DOCTYPE svg PUBLIC "-//W3C//DTD SVG 1.1//EN"
 "http://www.w3.org/Graphics/SVG/1.1/DTD/svg11.dtd">
<!-- Generated by graphviz version 14.0.2 (20251019.1705)
 -->
<!-- Title: core/device.cpp Pages: 1 -->
<svg width="473pt" height="220pt"
 viewBox="0.00 0.00 473.00 220.00" xmlns="http://www.w3.org/2000/svg" xmlns:xlink="http://www.w3.org/1999/xlink">
<g id="graph0" class="graph" transform="scale(1 1) rotate(0) translate(4 216)">
<title>core/device.cpp</title>
<!-- Node1 -->
<g id="Node000001" class="node">
<title>Node1</title>
<g id="a_Node000001"><a xlink:title="Device enumeration and management implementation.">
<polygon fill="#999999" stroke="#666666" points="374,-212 289,-212 289,-192 374,-192 374,-212"/>
<text xml:space="preserve" text-anchor="middle" x="331.5" y="-198.5" font-family="Helvetica,sans-Serif" font-size="10.00">core/device.cpp</text>
</a>
</g>
</g>
<!-- Node2 -->
<g id="Node000002" class="node">
<title>Node2</title>
<g id="a_Node000002"><a xlink:href="device_8h.html" target="_top" xlink:title="Device enumeration and management functions.">
<polygon fill="white" stroke="#666666" points="146.5,-150 34.5,-150 34.5,-130 146.5,-130 146.5,-150"/>
<text xml:space="preserve" text-anchor="middle" x="90.5" y="-136.5" font-family="Helvetica,sans-Serif" font-size="10.00">duvc&#45;ctl/core/device.h</text>
</a>
</g>
</g>
<!-- Node1&#45;&gt;Node2 -->
<g id="edge1_Node000001_Node000002" class="edge">
<title>Node1&#45;&gt;Node2</title>
<g id="a_edge1_Node000001_Node000002"><a xlink:title=" ">
<path fill="none" stroke="#63b8ff" d="M293.58,-191.56C252.03,-181.22 185.25,-164.59 139.69,-153.25"/>
<polygon fill="#63b8ff" stroke="#63b8ff" points="140.62,-149.87 130.07,-150.85 138.92,-156.66 140.62,-149.87"/>
</a>
</g>
</g>
<!-- Node7 -->
<g id="Node000007" class="node">
<title>Node7</title>
<g id="a_Node000007"><a xlink:title=" ">
<polygon fill="#e0e0e0" stroke="#999999" points="464.75,-88 366.25,-88 366.25,-56 464.75,-56 464.75,-88"/>
<text xml:space="preserve" text-anchor="start" x="374.25" y="-74.5" font-family="Helvetica,sans-Serif" font-size="10.00">duvc&#45;ctl/detail/com</text>
<text xml:space="preserve" text-anchor="middle" x="415.5" y="-62.5" font-family="Helvetica,sans-Serif" font-size="10.00">_helpers.h</text>
</a>
</g>
</g>
<!-- Node1&#45;&gt;Node7 -->
<g id="edge6_Node000001_Node000007" class="edge">
<title>Node1&#45;&gt;Node7</title>
<g id="a_edge6_Node000001_Node000007"><a xlink:title=" ">
<path fill="none" stroke="#63b8ff" d="M374.31,-192.57C394.71,-186.17 417.27,-175.07 429.5,-156 440.37,-139.05 435.48,-116.29 428.65,-98.9"/>
<polygon fill="#63b8ff" stroke="#63b8ff" points="431.85,-97.49 424.63,-89.74 425.44,-100.3 431.85,-97.49"/>
</a>
</g>
</g>
<!-- Node8 -->
<g id="Node000008" class="node">
<title>Node8</title>
<g id="a_Node000008"><a xlink:title=" ">
<polygon fill="#e0e0e0" stroke="#999999" points="350.38,-150 312.62,-150 312.62,-130 350.38,-130 350.38,-150"/>
<text xml:space="preserve" text-anchor="middle" x="331.5" y="-136.5" font-family="Helvetica,sans-Serif" font-size="10.00">dbt.h</text>
</a>
</g>
</g>
<!-- Node1&#45;&gt;Node8 -->
<g id="edge7_Node000001_Node000008" class="edge">
<title>Node1&#45;&gt;Node8</title>
<g id="a_edge7_Node000001_Node000008"><a xlink:title=" ">
<path fill="none" stroke="#63b8ff" d="M331.5,-191.62C331.5,-183.56 331.5,-171.65 331.5,-161.41"/>
<polygon fill="#63b8ff" stroke="#63b8ff" points="335,-161.63 331.5,-151.63 328,-161.63 335,-161.63"/>
</a>
</g>
</g>
<!-- Node9 -->
<g id="Node000009" class="node">
<title>Node9</title>
<g id="a_Node000009"><a xlink:title=" ">
<polygon fill="#e0e0e0" stroke="#999999" points="420.5,-150 368.5,-150 368.5,-130 420.5,-130 420.5,-150"/>
<text xml:space="preserve" text-anchor="middle" x="394.5" y="-136.5" font-family="Helvetica,sans-Serif" font-size="10.00">dshow.h</text>
</a>
</g>
</g>
<!-- Node1&#45;&gt;Node9 -->
<g id="edge8_Node000001_Node000009" class="edge">
<title>Node1&#45;&gt;Node9</title>
<g id="a_edge8_Node000001_Node000009"><a xlink:title=" ">
<path fill="none" stroke="#63b8ff" d="M341.34,-191.62C350.83,-182.59 365.4,-168.72 376.88,-157.78"/>
<polygon fill="#63b8ff" stroke="#63b8ff" points="379.01,-160.59 383.84,-151.16 374.18,-155.52 379.01,-160.59"/>
</a>
</g>
</g>
<!-- Node10 -->
<g id="Node000010" class="node">
<title>Node10</title>
<g id="a_Node000010"><a xlink:href="connection__pool_8h.html" target="_top" xlink:title="Windows&#45;specific device connection pooling.">
<polygon fill="white" stroke="#666666" points="294.5,-156 164.5,-156 164.5,-124 294.5,-124 294.5,-156"/>
<text xml:space="preserve" text-anchor="start" x="172.5" y="-142.5" font-family="Helvetica,sans-Serif" font-size="10.00">duvc&#45;ctl/platform/windows</text>
<text xml:space="preserve" text-anchor="middle" x="229.5" y="-130.5" font-family="Helvetica,sans-Serif" font-size="10.00">/connection_pool.h</text>
</a>
</g>
</g>
<!-- Node1&#45;&gt;Node10 -->
<g id="edge9_Node000001_Node000010" class="edge">
<title>Node1&#45;&gt;Node10</title>
<g id="a_edge9_Node000001_Node000010"><a xlink:title=" ">
<path fill="none" stroke="#63b8ff" d="M315.56,-191.62C302.17,-183.75 282.52,-172.19 265.37,-162.1"/>
<polygon fill="#63b8ff" stroke="#63b8ff" points="267.33,-159.19 256.94,-157.14 263.78,-165.23 267.33,-159.19"/>
</a>
</g>
</g>
<!-- Node3 -->
<g id="Node000003" class="node">
<title>Node3</title>
<g id="a_Node000003"><a xlink:href="types_8h.html" target="_top" xlink:title="Core data types and enumerations for duvc&#45;ctl.">
<polygon fill="white" stroke="#666666" points="245.25,-82 137.75,-82 137.75,-62 245.25,-62 245.25,-82"/>
<text xml:space="preserve" text-anchor="middle" x="191.5" y="-68.5" font-family="Helvetica,sans-Serif" font-size="10.00">duvc&#45;ctl/core/types.h</text>
</a>
</g>
</g>
<!-- Node2&#45;&gt;Node3 -->
<g id="edge2_Node000002_Node000003" class="edge">
<title>Node2&#45;&gt;Node3</title>
<g id="a_edge2_Node000002_Node000003"><a xlink:title=" ">
<path fill="none" stroke="#63b8ff" d="M104.97,-129.54C121.32,-118.86 148.18,-101.31 167.65,-88.59"/>
<polygon fill="#63b8ff" stroke="#63b8ff" points="169.33,-91.67 175.79,-83.27 165.5,-85.81 169.33,-91.67"/>
</a>
</g>
</g>
<!-- Node5 -->
<g id="Node000005" class="node">
<title>Node5</title>
<g id="a_Node000005"><a xlink:title=" ">
<polygon fill="#e0e0e0" stroke="#999999" points="119.5,-82 61.5,-82 61.5,-62 119.5,-62 119.5,-82"/>
<text xml:space="preserve" text-anchor="middle" x="90.5" y="-68.5" font-family="Helvetica,sans-Serif" font-size="10.00">functional</text>
</a>
</g>
</g>
<!-- Node2&#45;&gt;Node5 -->
<g id="edge4_Node000002_Node000005" class="edge">
<title>Node2&#45;&gt;Node5</title>
<g id="a_edge4_Node000002_Node000005"><a xlink:title=" ">
<path fill="none" stroke="#63b8ff" d="M90.5,-129.54C90.5,-120.23 90.5,-105.7 90.5,-93.7"/>
<polygon fill="#63b8ff" stroke="#63b8ff" points="94,-93.95 90.5,-83.95 87,-93.95 94,-93.95"/>
</a>
</g>
</g>
<!-- Node6 -->
<g id="Node000006" class="node">
<title>Node6</title>
<g id="a_Node000006"><a xlink:title=" ">
<polygon fill="#e0e0e0" stroke="#999999" points="43,-82 0,-82 0,-62 43,-62 43,-82"/>
<text xml:space="preserve" text-anchor="middle" x="21.5" y="-68.5" font-family="Helvetica,sans-Serif" font-size="10.00">vector</text>
</a>
</g>
</g>
<!-- Node2&#45;&gt;Node6 -->
<g id="edge5_Node000002_Node000006" class="edge">
<title>Node2&#45;&gt;Node6</title>
<g id="a_edge5_Node000002_Node000006"><a xlink:title=" ">
<path fill="none" stroke="#63b8ff" d="M80.61,-129.54C69.96,-119.35 52.76,-102.9 39.66,-90.37"/>
<polygon fill="#63b8ff" stroke="#63b8ff" points="42.11,-87.87 32.46,-83.48 37.27,-92.93 42.11,-87.87"/>
</a>
</g>
</g>
<!-- Node4 -->
<g id="Node000004" class="node">
<title>Node4</title>
<g id="a_Node000004"><a xlink:title=" ">
<polygon fill="#e0e0e0" stroke="#999999" points="211.5,-20 171.5,-20 171.5,0 211.5,0 211.5,-20"/>
<text xml:space="preserve" text-anchor="middle" x="191.5" y="-6.5" font-family="Helvetica,sans-Serif" font-size="10.00">string</text>
</a>
</g>
</g>
<!-- Node3&#45;&gt;Node4 -->
<g id="edge3_Node000003_Node000004" class="edge">
<title>Node3&#45;&gt;Node4</title>
<g id="a_edge3_Node000003_Node000004"><a xlink:title=" ">
<path fill="none" stroke="#63b8ff" d="M191.5,-61.62C191.5,-53.56 191.5,-41.65 191.5,-31.41"/>
<polygon fill="#63b8ff" stroke="#63b8ff" points="195,-31.63 191.5,-21.63 188,-31.63 195,-31.63"/>
</a>
</g>
</g>
<!-- Node10&#45;&gt;Node3 -->
<g id="edge10_Node000010_Node000003" class="edge">
<title>Node10&#45;&gt;Node3</title>
<g id="a_edge10_Node000010_Node000003"><a xlink:title=" ">
<path fill="none" stroke="#63b8ff" d="M220.69,-123.69C215.28,-114.3 208.3,-102.18 202.53,-92.15"/>
<polygon fill="#63b8ff" stroke="#63b8ff" points="205.64,-90.55 197.62,-83.63 199.58,-94.04 205.64,-90.55"/>
</a>
</g>
</g>
<!-- Node10&#45;&gt;Node7 -->
<g id="edge11_Node000010_Node000007" class="edge">
<title>Node10&#45;&gt;Node7</title>
<g id="a_edge11_Node000010_Node000007"><a xlink:title=" ">
<path fill="none" stroke="#63b8ff" d="M273.11,-123.53C299.37,-114.21 333.02,-102.27 361.02,-92.33"/>
<polygon fill="#63b8ff" stroke="#63b8ff" points="362.16,-95.64 370.42,-89 359.82,-89.04 362.16,-95.64"/>
</a>
</g>
</g>
<!-- Node11 -->
<g id="Node000011" class="node">
<title>Node11</title>
<g id="a_Node000011"><a xlink:title=" ">
<polygon fill="#e0e0e0" stroke="#999999" points="314.12,-82 262.88,-82 262.88,-62 314.12,-62 314.12,-82"/>
<text xml:space="preserve" text-anchor="middle" x="288.5" y="-68.5" font-family="Helvetica,sans-Serif" font-size="10.00">memory</text>
</a>
</g>
</g>
<!-- Node10&#45;&gt;Node11 -->
<g id="edge12_Node000010_Node000011" class="edge">
<title>Node10&#45;&gt;Node11</title>
<g id="a_edge12_Node000010_Node000011"><a xlink:title=" ">
<path fill="none" stroke="#63b8ff" d="M243.18,-123.69C251.94,-113.9 263.34,-101.15 272.51,-90.89"/>
<polygon fill="#63b8ff" stroke="#63b8ff" points="275.11,-93.23 279.16,-83.44 269.89,-88.57 275.11,-93.23"/>
</a>
</g>
</g>
</g>
</svg>
