<?xml version="1.0" encoding="UTF-8" standalone="no"?>
<!DOCTYPE svg PUBLIC "-//W3C//DTD SVG 1.1//EN"
 "http://www.w3.org/Graphics/SVG/1.1/DTD/svg11.dtd">
<!-- Generated by graphviz version 14.0.2 (20251019.1705)
 -->
<!-- Title: duvc.hpp Pages: 1 -->
<svg width="1337pt" height="264pt"
 viewBox="0.00 0.00 1337.00 264.00" xmlns="http://www.w3.org/2000/svg" xmlns:xlink="http://www.w3.org/1999/xlink">
<g id="graph0" class="graph" transform="scale(1 1) rotate(0) translate(4 260)">
<title>duvc.hpp</title>
<!-- Node1 -->
<g id="Node000001" class="node">
<title>Node1</title>
<g id="a_Node000001"><a xlink:title="Main umbrella header for duvc&#45;ctl library.">
<polygon fill="#999999" stroke="#666666" points="761.42,-256 705.67,-256 705.67,-236 761.42,-236 761.42,-256"/>
<text xml:space="preserve" text-anchor="middle" x="733.55" y="-242.5" font-family="Helvetica,sans-Serif" font-size="10.00">duvc.hpp</text>
</a>
</g>
</g>
<!-- Node2 -->
<g id="Node000002" class="node">
<title>Node2</title>
<g id="a_Node000002"><a xlink:href="camera_8h.html" target="_top" xlink:title="RAII camera handle for simplified device management.">
<polygon fill="white" stroke="#666666" points="131.42,-138 15.67,-138 15.67,-118 131.42,-118 131.42,-138"/>
<text xml:space="preserve" text-anchor="middle" x="73.55" y="-124.5" font-family="Helvetica,sans-Serif" font-size="10.00">duvc&#45;ctl/core/camera.h</text>
</a>
</g>
</g>
<!-- Node1&#45;&gt;Node2 -->
<g id="edge1_Node000001_Node000002" class="edge">
<title>Node1&#45;&gt;Node2</title>
<g id="a_edge1_Node000001_Node000002"><a xlink:title=" ">
<path fill="none" stroke="#63b8ff" d="M705.26,-244.4C607.72,-242.07 286.06,-232.07 188.55,-200 152.21,-188.05 115.51,-162.52 93.65,-145.56"/>
<polygon fill="#63b8ff" stroke="#63b8ff" points="95.9,-142.88 85.89,-139.39 91.54,-148.35 95.9,-142.88"/>
</a>
</g>
</g>
<!-- Node3 -->
<g id="Node000003" class="node">
<title>Node3</title>
<g id="a_Node000003"><a xlink:href="result_8h.html" target="_top" xlink:title="Result/Error type system for duvc&#45;ctl.">
<polygon fill="white" stroke="#666666" points="380.3,-76 272.8,-76 272.8,-56 380.3,-56 380.3,-76"/>
<text xml:space="preserve" text-anchor="middle" x="326.55" y="-62.5" font-family="Helvetica,sans-Serif" font-size="10.00">duvc&#45;ctl/core/result.h</text>
</a>
</g>
</g>
<!-- Node1&#45;&gt;Node3 -->
<g id="edge22_Node000001_Node000003" class="edge">
<title>Node1&#45;&gt;Node3</title>
<g id="a_edge22_Node000001_Node000003"><a xlink:title=" ">
<path fill="none" stroke="#63b8ff" d="M705.46,-244.06C603.05,-240.44 249.97,-226.29 140.55,-200 77.78,-184.92 42.32,-197.73 6.55,-144 -1.34,-132.16 -2.78,-122.73 6.55,-112 38.84,-74.85 177.24,-67.48 261.09,-66.53"/>
<polygon fill="#63b8ff" stroke="#63b8ff" points="261.06,-70.03 271.03,-66.45 261,-63.03 261.06,-70.03"/>
</a>
</g>
</g>
<!-- Node9 -->
<g id="Node000009" class="node">
<title>Node9</title>
<g id="a_Node000009"><a xlink:href="types_8h.html" target="_top" xlink:title="Core data types and enumerations for duvc&#45;ctl.">
<polygon fill="white" stroke="#666666" points="759.3,-76 651.8,-76 651.8,-56 759.3,-56 759.3,-76"/>
<text xml:space="preserve" text-anchor="middle" x="705.55" y="-62.5" font-family="Helvetica,sans-Serif" font-size="10.00">duvc&#45;ctl/core/types.h</text>
</a>
</g>
</g>
<!-- Node1&#45;&gt;Node9 -->
<g id="edge23_Node000001_Node000009" class="edge">
<title>Node1&#45;&gt;Node9</title>
<g id="a_edge23_Node000001_Node000009"><a xlink:title=" ">
<path fill="none" stroke="#63b8ff" d="M761.81,-239.25C830.44,-224.07 996.27,-179.41 940.55,-112 935.07,-105.38 838.42,-88.5 770.79,-77.4"/>
<polygon fill="#63b8ff" stroke="#63b8ff" points="771.72,-74.01 761.28,-75.85 770.59,-80.92 771.72,-74.01"/>
</a>
</g>
</g>
<!-- Node11 -->
<g id="Node000011" class="node">
<title>Node11</title>
<g id="a_Node000011"><a xlink:href="capability_8h.html" target="_top" xlink:title="Device capability detection and snapshots using Camera API.">
<polygon fill="white" stroke="#666666" points="321.55,-200 197.55,-200 197.55,-180 321.55,-180 321.55,-200"/>
<text xml:space="preserve" text-anchor="middle" x="259.55" y="-186.5" font-family="Helvetica,sans-Serif" font-size="10.00">duvc&#45;ctl/core/capability.h</text>
</a>
</g>
</g>
<!-- Node1&#45;&gt;Node11 -->
<g id="edge11_Node000001_Node000011" class="edge">
<title>Node1&#45;&gt;Node11</title>
<g id="a_edge11_Node000001_Node000011"><a xlink:title=" ">
<path fill="none" stroke="#63b8ff" d="M705.31,-241.78C633.11,-233.56 439.88,-211.54 333.07,-199.38"/>
<polygon fill="#63b8ff" stroke="#63b8ff" points="333.58,-195.91 323.25,-198.26 332.79,-202.87 333.58,-195.91"/>
</a>
</g>
</g>
<!-- Node14 -->
<g id="Node000014" class="node">
<title>Node14</title>
<g id="a_Node000014"><a xlink:href="device_8h.html" target="_top" xlink:title="Device enumeration and management functions.">
<polygon fill="white" stroke="#666666" points="931.55,-138 819.55,-138 819.55,-118 931.55,-118 931.55,-138"/>
<text xml:space="preserve" text-anchor="middle" x="875.55" y="-124.5" font-family="Helvetica,sans-Serif" font-size="10.00">duvc&#45;ctl/core/device.h</text>
</a>
</g>
</g>
<!-- Node1&#45;&gt;Node14 -->
<g id="edge18_Node000001_Node000014" class="edge">
<title>Node1&#45;&gt;Node14</title>
<g id="a_edge18_Node000001_Node000014"><a xlink:title=" ">
<path fill="none" stroke="#63b8ff" d="M745.17,-235.51C769.31,-215.78 825.17,-170.15 855.34,-145.51"/>
<polygon fill="#63b8ff" stroke="#63b8ff" points="857.46,-148.29 862.99,-139.26 853.03,-142.87 857.46,-148.29"/>
</a>
</g>
</g>
<!-- Node16 -->
<g id="Node000016" class="node">
<title>Node16</title>
<g id="a_Node000016"><a xlink:href="error__decoder_8h.html" target="_top" xlink:title="HRESULT decoder and diagnostics utilities.">
<polygon fill="white" stroke="#666666" points="1081.55,-144 987.55,-144 987.55,-112 1081.55,-112 1081.55,-144"/>
<text xml:space="preserve" text-anchor="start" x="995.55" y="-130.5" font-family="Helvetica,sans-Serif" font-size="10.00">duvc&#45;ctl/utils/error</text>
<text xml:space="preserve" text-anchor="middle" x="1034.55" y="-118.5" font-family="Helvetica,sans-Serif" font-size="10.00">_decoder.h</text>
</a>
</g>
</g>
<!-- Node1&#45;&gt;Node16 -->
<g id="edge24_Node000001_Node000016" class="edge">
<title>Node1&#45;&gt;Node16</title>
<g id="a_edge24_Node000001_Node000016"><a xlink:title=" ">
<path fill="none" stroke="#63b8ff" d="M761.86,-245.59C808.98,-245.33 905.06,-239.5 973.55,-200 992.78,-188.91 1008.86,-169.43 1019.67,-153.68"/>
<polygon fill="#63b8ff" stroke="#63b8ff" points="1022.33,-156.01 1024.88,-145.72 1016.47,-152.17 1022.33,-156.01"/>
</a>
</g>
</g>
<!-- Node18 -->
<g id="Node000018" class="node">
<title>Node18</title>
<g id="a_Node000018"><a xlink:href="logging_8h.html" target="_top" xlink:title="Structured logging interface for duvc&#45;ctl.">
<polygon fill="white" stroke="#666666" points="1329.3,-138 1215.8,-138 1215.8,-118 1329.3,-118 1329.3,-138"/>
<text xml:space="preserve" text-anchor="middle" x="1272.55" y="-124.5" font-family="Helvetica,sans-Serif" font-size="10.00">duvc&#45;ctl/utils/logging.h</text>
</a>
</g>
</g>
<!-- Node1&#45;&gt;Node18 -->
<g id="edge27_Node000001_Node000018" class="edge">
<title>Node1&#45;&gt;Node18</title>
<g id="a_edge27_Node000001_Node000018"><a xlink:title=" ">
<path fill="none" stroke="#63b8ff" d="M761.55,-242.27C815.58,-236.7 937.74,-222.6 1038.55,-200 1109.2,-184.16 1189.57,-157.91 1235.35,-142.16"/>
<polygon fill="#63b8ff" stroke="#63b8ff" points="1236.48,-145.47 1244.79,-138.89 1234.19,-138.85 1236.48,-145.47"/>
</a>
</g>
</g>
<!-- Node19 -->
<g id="Node000019" class="node">
<title>Node19</title>
<g id="a_Node000019"><a xlink:href="string__conversion_8h.html" target="_top" xlink:title="String conversion utilities for enums and types.">
<polygon fill="white" stroke="#666666" points="1197.8,-144 1099.3,-144 1099.3,-112 1197.8,-112 1197.8,-144"/>
<text xml:space="preserve" text-anchor="start" x="1107.3" y="-130.5" font-family="Helvetica,sans-Serif" font-size="10.00">duvc&#45;ctl/utils/string</text>
<text xml:space="preserve" text-anchor="middle" x="1148.55" y="-118.5" font-family="Helvetica,sans-Serif" font-size="10.00">_conversion.h</text>
</a>
</g>
</g>
<!-- Node1&#45;&gt;Node19 -->
<g id="edge30_Node000001_Node000019" class="edge">
<title>Node1&#45;&gt;Node19</title>
<g id="a_edge30_Node000001_Node000019"><a xlink:title=" ">
<path fill="none" stroke="#63b8ff" d="M761.71,-242.81C810.93,-238.43 915.36,-226.61 999.55,-200 1039.63,-187.33 1082.7,-165.87 1112.18,-149.85"/>
<polygon fill="#63b8ff" stroke="#63b8ff" points="1113.61,-153.05 1120.68,-145.16 1110.23,-146.92 1113.61,-153.05"/>
</a>
</g>
</g>
<!-- Node20 -->
<g id="Node000020" class="node">
<title>Node20</title>
<g id="a_Node000020"><a xlink:href="interface_8h.html" target="_top" xlink:title="Abstract platform interface for camera control.">
<polygon fill="white" stroke="#666666" points="463.3,-138 325.8,-138 325.8,-118 463.3,-118 463.3,-138"/>
<text xml:space="preserve" text-anchor="middle" x="394.55" y="-124.5" font-family="Helvetica,sans-Serif" font-size="10.00">duvc&#45;ctl/platform/interface.h</text>
</a>
</g>
</g>
<!-- Node1&#45;&gt;Node20 -->
<g id="edge33_Node000001_Node000020" class="edge">
<title>Node1&#45;&gt;Node20</title>
<g id="a_edge33_Node000001_Node000020"><a xlink:title=" ">
<path fill="none" stroke="#63b8ff" d="M705.8,-235.51C645.44,-214.85 502.05,-165.79 433.01,-142.16"/>
<polygon fill="#63b8ff" stroke="#63b8ff" points="434.22,-138.88 423.63,-138.95 431.96,-145.5 434.22,-138.88"/>
</a>
</g>
</g>
<!-- Node21 -->
<g id="Node000021" class="node">
<title>Node21</title>
<g id="a_Node000021"><a xlink:href="constants_8h.html" target="_top" xlink:title="Vendor&#45;specific property constants and definitions.">
<polygon fill="white" stroke="#666666" points="801.92,-138 665.17,-138 665.17,-118 801.92,-118 801.92,-138"/>
<text xml:space="preserve" text-anchor="middle" x="733.55" y="-124.5" font-family="Helvetica,sans-Serif" font-size="10.00">duvc&#45;ctl/vendor/constants.h</text>
</a>
</g>
</g>
<!-- Node1&#45;&gt;Node21 -->
<g id="edge38_Node000001_Node000021" class="edge">
<title>Node1&#45;&gt;Node21</title>
<g id="a_edge38_Node000001_Node000021"><a xlink:title=" ">
<path fill="none" stroke="#63b8ff" d="M733.55,-235.51C733.55,-216.81 733.55,-174.82 733.55,-149.51"/>
<polygon fill="#63b8ff" stroke="#63b8ff" points="737.05,-149.81 733.55,-139.81 730.05,-149.81 737.05,-149.81"/>
</a>
</g>
</g>
<!-- Node22 -->
<g id="Node000022" class="node">
<title>Node22</title>
<g id="a_Node000022"><a xlink:href="logitech_8h.html" target="_top" xlink:title="Logitech&#45;specific vendor property definitions and helpers.">
<polygon fill="white" stroke="#666666" points="647.42,-138 519.67,-138 519.67,-118 647.42,-118 647.42,-138"/>
<text xml:space="preserve" text-anchor="middle" x="583.55" y="-124.5" font-family="Helvetica,sans-Serif" font-size="10.00">duvc&#45;ctl/vendor/logitech.h</text>
</a>
</g>
</g>
<!-- Node1&#45;&gt;Node22 -->
<g id="edge42_Node000001_Node000022" class="edge">
<title>Node1&#45;&gt;Node22</title>
<g id="a_edge42_Node000001_Node000022"><a xlink:title=" ">
<path fill="none" stroke="#63b8ff" d="M721.27,-235.51C695.65,-215.7 636.25,-169.76 604.48,-145.19"/>
<polygon fill="#63b8ff" stroke="#63b8ff" points="606.82,-142.57 596.77,-139.23 602.54,-148.11 606.82,-142.57"/>
</a>
</g>
</g>
<!-- Node2&#45;&gt;Node3 -->
<g id="edge2_Node000002_Node000003" class="edge">
<title>Node2&#45;&gt;Node3</title>
<g id="a_edge2_Node000002_Node000003"><a xlink:title=" ">
<path fill="none" stroke="#63b8ff" d="M113.35,-117.56C157.16,-107.17 227.68,-90.45 275.51,-79.1"/>
<polygon fill="#63b8ff" stroke="#63b8ff" points="276.16,-82.55 285.08,-76.83 274.54,-75.74 276.16,-82.55"/>
</a>
</g>
</g>
<!-- Node2&#45;&gt;Node9 -->
<g id="edge8_Node000002_Node000009" class="edge">
<title>Node2&#45;&gt;Node9</title>
<g id="a_edge8_Node000002_Node000009"><a xlink:title=" ">
<path fill="none" stroke="#63b8ff" d="M111.28,-117.55C120.78,-115.45 131,-113.42 140.55,-112 349.51,-80.84 404.07,-94.4 614.55,-76 622.9,-75.27 631.69,-74.46 640.37,-73.63"/>
<polygon fill="#63b8ff" stroke="#63b8ff" points="640.55,-77.13 650.16,-72.68 639.87,-70.16 640.55,-77.13"/>
</a>
</g>
</g>
<!-- Node10 -->
<g id="Node000010" class="node">
<title>Node10</title>
<g id="a_Node000010"><a xlink:title=" ">
<polygon fill="#e0e0e0" stroke="#999999" points="99.17,-76 47.92,-76 47.92,-56 99.17,-56 99.17,-76"/>
<text xml:space="preserve" text-anchor="middle" x="73.55" y="-62.5" font-family="Helvetica,sans-Serif" font-size="10.00">memory</text>
</a>
</g>
</g>
<!-- Node2&#45;&gt;Node10 -->
<g id="edge10_Node000002_Node000010" class="edge">
<title>Node2&#45;&gt;Node10</title>
<g id="a_edge10_Node000002_Node000010"><a xlink:title=" ">
<path fill="none" stroke="#63b8ff" d="M73.55,-117.62C73.55,-109.56 73.55,-97.65 73.55,-87.41"/>
<polygon fill="#63b8ff" stroke="#63b8ff" points="77.05,-87.63 73.55,-77.63 70.05,-87.63 77.05,-87.63"/>
</a>
</g>
</g>
<!-- Node4 -->
<g id="Node000004" class="node">
<title>Node4</title>
<g id="a_Node000004"><a xlink:title=" ">
<polygon fill="#e0e0e0" stroke="#999999" points="387.3,-20 333.8,-20 333.8,0 387.3,0 387.3,-20"/>
<text xml:space="preserve" text-anchor="middle" x="360.55" y="-6.5" font-family="Helvetica,sans-Serif" font-size="10.00">iostream</text>
</a>
</g>
</g>
<!-- Node3&#45;&gt;Node4 -->
<g id="edge3_Node000003_Node000004" class="edge">
<title>Node3&#45;&gt;Node4</title>
<g id="a_edge3_Node000003_Node000004"><a xlink:title=" ">
<path fill="none" stroke="#63b8ff" d="M332.47,-55.59C336.9,-48.55 343.12,-38.67 348.58,-30"/>
<polygon fill="#63b8ff" stroke="#63b8ff" points="351.52,-31.91 353.88,-21.58 345.59,-28.18 351.52,-31.91"/>
</a>
</g>
</g>
<!-- Node5 -->
<g id="Node000005" class="node">
<title>Node5</title>
<g id="a_Node000005"><a xlink:title=" ">
<polygon fill="#e0e0e0" stroke="#999999" points="455.42,-20 405.67,-20 405.67,0 455.42,0 455.42,-20"/>
<text xml:space="preserve" text-anchor="middle" x="430.55" y="-6.5" font-family="Helvetica,sans-Serif" font-size="10.00">optional</text>
</a>
</g>
</g>
<!-- Node3&#45;&gt;Node5 -->
<g id="edge4_Node000003_Node000005" class="edge">
<title>Node3&#45;&gt;Node5</title>
<g id="a_edge4_Node000003_Node000005"><a xlink:title=" ">
<path fill="none" stroke="#63b8ff" d="M344.66,-55.59C360.52,-47.36 383.83,-35.26 402.16,-25.74"/>
<polygon fill="#63b8ff" stroke="#63b8ff" points="403.68,-28.89 410.95,-21.18 400.46,-22.68 403.68,-28.89"/>
</a>
</g>
</g>
<!-- Node6 -->
<g id="Node000006" class="node">
<title>Node6</title>
<g id="a_Node000006"><a xlink:title=" ">
<polygon fill="#e0e0e0" stroke="#999999" points="1054.55,-20 1014.55,-20 1014.55,0 1054.55,0 1054.55,-20"/>
<text xml:space="preserve" text-anchor="middle" x="1034.55" y="-6.5" font-family="Helvetica,sans-Serif" font-size="10.00">string</text>
</a>
</g>
</g>
<!-- Node3&#45;&gt;Node6 -->
<g id="edge5_Node000003_Node000006" class="edge">
<title>Node3&#45;&gt;Node6</title>
<g id="a_edge5_Node000003_Node000006"><a xlink:title=" ">
<path fill="none" stroke="#63b8ff" d="M380.63,-60.87C520.68,-50.19 891.96,-21.88 1002.84,-13.42"/>
<polygon fill="#63b8ff" stroke="#63b8ff" points="1002.97,-16.92 1012.68,-12.67 1002.44,-9.94 1002.97,-16.92"/>
</a>
</g>
</g>
<!-- Node7 -->
<g id="Node000007" class="node">
<title>Node7</title>
<g id="a_Node000007"><a xlink:title=" ">
<polygon fill="#e0e0e0" stroke="#999999" points="253.05,-20 180.05,-20 180.05,0 253.05,0 253.05,-20"/>
<text xml:space="preserve" text-anchor="middle" x="216.55" y="-6.5" font-family="Helvetica,sans-Serif" font-size="10.00">system_error</text>
</a>
</g>
</g>
<!-- Node3&#45;&gt;Node7 -->
<g id="edge6_Node000003_Node000007" class="edge">
<title>Node3&#45;&gt;Node7</title>
<g id="a_edge6_Node000003_Node000007"><a xlink:title=" ">
<path fill="none" stroke="#63b8ff" d="M307.38,-55.59C290.45,-47.28 265.5,-35.03 246.02,-25.47"/>
<polygon fill="#63b8ff" stroke="#63b8ff" points="247.73,-22.41 237.21,-21.15 244.65,-28.7 247.73,-22.41"/>
</a>
</g>
</g>
<!-- Node8 -->
<g id="Node000008" class="node">
<title>Node8</title>
<g id="a_Node000008"><a xlink:title=" ">
<polygon fill="#e0e0e0" stroke="#999999" points="316.17,-20 270.92,-20 270.92,0 316.17,0 316.17,-20"/>
<text xml:space="preserve" text-anchor="middle" x="293.55" y="-6.5" font-family="Helvetica,sans-Serif" font-size="10.00">variant</text>
</a>
</g>
</g>
<!-- Node3&#45;&gt;Node8 -->
<g id="edge7_Node000003_Node000008" class="edge">
<title>Node3&#45;&gt;Node8</title>
<g id="a_edge7_Node000003_Node000008"><a xlink:title=" ">
<path fill="none" stroke="#63b8ff" d="M320.8,-55.59C316.49,-48.55 310.45,-38.67 305.16,-30"/>
<polygon fill="#63b8ff" stroke="#63b8ff" points="308.22,-28.3 300.02,-21.59 302.24,-31.95 308.22,-28.3"/>
</a>
</g>
</g>
<!-- Node9&#45;&gt;Node6 -->
<g id="edge9_Node000009_Node000006" class="edge">
<title>Node9&#45;&gt;Node6</title>
<g id="a_edge9_Node000009_Node000006"><a xlink:title=" ">
<path fill="none" stroke="#63b8ff" d="M759.5,-56.14C828.8,-44.77 946.8,-25.4 1002.99,-16.18"/>
<polygon fill="#63b8ff" stroke="#63b8ff" points="1003.52,-19.64 1012.82,-14.57 1002.39,-12.73 1003.52,-19.64"/>
</a>
</g>
</g>
<!-- Node11&#45;&gt;Node2 -->
<g id="edge12_Node000011_Node000002" class="edge">
<title>Node11&#45;&gt;Node2</title>
<g id="a_edge12_Node000011_Node000002"><a xlink:title=" ">
<path fill="none" stroke="#63b8ff" d="M230.48,-179.62C199.04,-169.48 148.71,-153.25 113.55,-141.9"/>
<polygon fill="#63b8ff" stroke="#63b8ff" points="114.74,-138.61 104.15,-138.87 112.59,-145.27 114.74,-138.61"/>
</a>
</g>
</g>
<!-- Node11&#45;&gt;Node3 -->
<g id="edge13_Node000011_Node000003" class="edge">
<title>Node11&#45;&gt;Node3</title>
<g id="a_edge13_Node000011_Node000003"><a xlink:title=" ">
<path fill="none" stroke="#63b8ff" d="M260.98,-179.91C263.65,-164.92 270.32,-134.44 283.55,-112 289.67,-101.61 298.63,-91.72 306.78,-83.88"/>
<polygon fill="#63b8ff" stroke="#63b8ff" points="309.01,-86.59 314.03,-77.26 304.29,-81.42 309.01,-86.59"/>
</a>
</g>
</g>
<!-- Node11&#45;&gt;Node9 -->
<g id="edge14_Node000011_Node000009" class="edge">
<title>Node11&#45;&gt;Node9</title>
<g id="a_edge14_Node000011_Node000009"><a xlink:title=" ">
<path fill="none" stroke="#63b8ff" d="M321.82,-183.95C365.75,-178.49 424.99,-167.21 472.55,-144 492.39,-134.32 490.79,-121.87 510.55,-112 551.14,-91.72 601.07,-80.42 640.24,-74.21"/>
<polygon fill="#63b8ff" stroke="#63b8ff" points="640.64,-77.69 650.01,-72.75 639.6,-70.77 640.64,-77.69"/>
</a>
</g>
</g>
<!-- Node11&#45;&gt;Node10 -->
<g id="edge15_Node000011_Node000010" class="edge">
<title>Node11&#45;&gt;Node10</title>
<g id="a_edge15_Node000011_Node000010"><a xlink:title=" ">
<path fill="none" stroke="#63b8ff" d="M197.14,-186.78C130.24,-182.94 30.4,-172.47 6.55,-144 -2.59,-133.1 -0.14,-124.55 6.55,-112 13.57,-98.83 26.34,-88.83 38.87,-81.64"/>
<polygon fill="#63b8ff" stroke="#63b8ff" points="40.17,-84.91 47.41,-77.17 36.93,-78.7 40.17,-84.91"/>
</a>
</g>
</g>
<!-- Node12 -->
<g id="Node000012" class="node">
<title>Node12</title>
<g id="a_Node000012"><a xlink:title=" ">
<polygon fill="#e0e0e0" stroke="#999999" points="231.92,-138 149.17,-138 149.17,-118 231.92,-118 231.92,-138"/>
<text xml:space="preserve" text-anchor="middle" x="190.55" y="-124.5" font-family="Helvetica,sans-Serif" font-size="10.00">unordered_map</text>
</a>
</g>
</g>
<!-- Node11&#45;&gt;Node12 -->
<g id="edge16_Node000011_Node000012" class="edge">
<title>Node11&#45;&gt;Node12</title>
<g id="a_edge16_Node000011_Node000012"><a xlink:title=" ">
<path fill="none" stroke="#63b8ff" d="M248.76,-179.62C238.27,-170.5 222.11,-156.45 209.47,-145.46"/>
<polygon fill="#63b8ff" stroke="#63b8ff" points="212.01,-143.03 202.17,-139.11 207.42,-148.31 212.01,-143.03"/>
</a>
</g>
</g>
<!-- Node13 -->
<g id="Node000013" class="node">
<title>Node13</title>
<g id="a_Node000013"><a xlink:title=" ">
<polygon fill="#e0e0e0" stroke="#999999" points="605.05,-76 562.05,-76 562.05,-56 605.05,-56 605.05,-76"/>
<text xml:space="preserve" text-anchor="middle" x="583.55" y="-62.5" font-family="Helvetica,sans-Serif" font-size="10.00">vector</text>
</a>
</g>
</g>
<!-- Node11&#45;&gt;Node13 -->
<g id="edge17_Node000011_Node000013" class="edge">
<title>Node11&#45;&gt;Node13</title>
<g id="a_edge17_Node000011_Node000013"><a xlink:title=" ">
<path fill="none" stroke="#63b8ff" d="M263.59,-179.58C271.26,-162.94 289.61,-128.52 316.55,-112 355.32,-88.21 488.06,-74.67 550.53,-69.48"/>
<polygon fill="#63b8ff" stroke="#63b8ff" points="550.5,-73 560.18,-68.7 549.93,-66.02 550.5,-73"/>
</a>
</g>
</g>
<!-- Node14&#45;&gt;Node9 -->
<g id="edge19_Node000014_Node000009" class="edge">
<title>Node14&#45;&gt;Node9</title>
<g id="a_edge19_Node000014_Node000009"><a xlink:title=" ">
<path fill="none" stroke="#63b8ff" d="M848.98,-117.62C820.5,-107.57 775.04,-91.53 742.95,-80.2"/>
<polygon fill="#63b8ff" stroke="#63b8ff" points="744.22,-76.94 733.63,-76.91 741.89,-83.54 744.22,-76.94"/>
</a>
</g>
</g>
<!-- Node14&#45;&gt;Node13 -->
<g id="edge21_Node000014_Node000013" class="edge">
<title>Node14&#45;&gt;Node13</title>
<g id="a_edge21_Node000014_Node000013"><a xlink:title=" ">
<path fill="none" stroke="#63b8ff" d="M835.37,-117.52C827.17,-115.65 818.59,-113.72 810.55,-112 741.82,-97.26 661,-81.65 616.73,-73.24"/>
<polygon fill="#63b8ff" stroke="#63b8ff" points="617.47,-69.82 606.99,-71.4 616.17,-76.7 617.47,-69.82"/>
</a>
</g>
</g>
<!-- Node15 -->
<g id="Node000015" class="node">
<title>Node15</title>
<g id="a_Node000015"><a xlink:title=" ">
<polygon fill="#e0e0e0" stroke="#999999" points="1120.55,-76 1062.55,-76 1062.55,-56 1120.55,-56 1120.55,-76"/>
<text xml:space="preserve" text-anchor="middle" x="1091.55" y="-62.5" font-family="Helvetica,sans-Serif" font-size="10.00">functional</text>
</a>
</g>
</g>
<!-- Node14&#45;&gt;Node15 -->
<g id="edge20_Node000014_Node000015" class="edge">
<title>Node14&#45;&gt;Node15</title>
<g id="a_edge20_Node000014_Node000015"><a xlink:title=" ">
<path fill="none" stroke="#63b8ff" d="M909.3,-117.62C947.69,-106.96 1010.35,-89.56 1051.26,-78.19"/>
<polygon fill="#63b8ff" stroke="#63b8ff" points="1052.03,-81.61 1060.73,-75.56 1050.16,-74.86 1052.03,-81.61"/>
</a>
</g>
</g>
<!-- Node16&#45;&gt;Node6 -->
<g id="edge25_Node000016_Node000006" class="edge">
<title>Node16&#45;&gt;Node6</title>
<g id="a_edge25_Node000016_Node000006"><a xlink:title=" ">
<path fill="none" stroke="#63b8ff" d="M1034.55,-111.84C1034.55,-91.41 1034.55,-54.97 1034.55,-31.95"/>
<polygon fill="#63b8ff" stroke="#63b8ff" points="1038.05,-31.95 1034.55,-21.95 1031.05,-31.95 1038.05,-31.95"/>
</a>
</g>
</g>
<!-- Node17 -->
<g id="Node000017" class="node">
<title>Node17</title>
<g id="a_Node000017"><a xlink:title=" ">
<polygon fill="#e0e0e0" stroke="#999999" points="839.8,-76 777.3,-76 777.3,-56 839.8,-56 839.8,-76"/>
<text xml:space="preserve" text-anchor="middle" x="808.55" y="-62.5" font-family="Helvetica,sans-Serif" font-size="10.00">windows.h</text>
</a>
</g>
</g>
<!-- Node16&#45;&gt;Node17 -->
<g id="edge26_Node000016_Node000017" class="edge">
<title>Node16&#45;&gt;Node17</title>
<g id="a_edge26_Node000016_Node000017"><a xlink:title=" ">
<path fill="none" stroke="#63b8ff" d="M987.17,-114.42C947,-103.76 889.89,-88.6 851.14,-78.31"/>
<polygon fill="#63b8ff" stroke="#63b8ff" points="852.27,-74.99 841.7,-75.8 850.47,-81.75 852.27,-74.99"/>
</a>
</g>
</g>
<!-- Node18&#45;&gt;Node6 -->
<g id="edge29_Node000018_Node000006" class="edge">
<title>Node18&#45;&gt;Node6</title>
<g id="a_edge29_Node000018_Node000006"><a xlink:title=" ">
<path fill="none" stroke="#63b8ff" d="M1257.65,-117.53C1234.74,-103.19 1189.24,-75.56 1148.55,-56 1121.02,-42.77 1088.53,-30.23 1065.29,-21.77"/>
<polygon fill="#63b8ff" stroke="#63b8ff" points="1066.71,-18.56 1056.11,-18.47 1064.34,-25.14 1066.71,-18.56"/>
</a>
</g>
</g>
<!-- Node18&#45;&gt;Node15 -->
<g id="edge28_Node000018_Node000015" class="edge">
<title>Node18&#45;&gt;Node15</title>
<g id="a_edge28_Node000018_Node000015"><a xlink:title=" ">
<path fill="none" stroke="#63b8ff" d="M1244.26,-117.62C1213.67,-107.48 1164.69,-91.25 1130.47,-79.9"/>
<polygon fill="#63b8ff" stroke="#63b8ff" points="1131.96,-76.71 1121.36,-76.88 1129.75,-83.35 1131.96,-76.71"/>
</a>
</g>
</g>
<!-- Node19&#45;&gt;Node6 -->
<g id="edge32_Node000019_Node000006" class="edge">
<title>Node19&#45;&gt;Node6</title>
<g id="a_edge32_Node000019_Node000006"><a xlink:title=" ">
<path fill="none" stroke="#63b8ff" d="M1148.1,-111.73C1146.87,-96.09 1142.78,-71.88 1129.55,-56 1113.28,-36.49 1086.61,-24.89 1065.66,-18.37"/>
<polygon fill="#63b8ff" stroke="#63b8ff" points="1066.75,-15.04 1056.17,-15.66 1064.83,-21.77 1066.75,-15.04"/>
</a>
</g>
</g>
<!-- Node19&#45;&gt;Node9 -->
<g id="edge31_Node000019_Node000009" class="edge">
<title>Node19&#45;&gt;Node9</title>
<g id="a_edge31_Node000019_Node000009"><a xlink:title=" ">
<path fill="none" stroke="#63b8ff" d="M1098.97,-113.69C1096.13,-113.08 1093.31,-112.51 1090.55,-112 952.52,-86.57 913.37,-93.79 770.84,-76.24"/>
<polygon fill="#63b8ff" stroke="#63b8ff" points="771.35,-72.78 760.99,-75 770.48,-79.72 771.35,-72.78"/>
</a>
</g>
</g>
<!-- Node20&#45;&gt;Node3 -->
<g id="edge34_Node000020_Node000003" class="edge">
<title>Node20&#45;&gt;Node3</title>
<g id="a_edge34_Node000020_Node000003"><a xlink:title=" ">
<path fill="none" stroke="#63b8ff" d="M383.92,-117.62C373.58,-108.5 357.65,-94.45 345.2,-83.46"/>
<polygon fill="#63b8ff" stroke="#63b8ff" points="347.82,-81.11 338.01,-77.11 343.19,-86.35 347.82,-81.11"/>
</a>
</g>
</g>
<!-- Node20&#45;&gt;Node9 -->
<g id="edge35_Node000020_Node000009" class="edge">
<title>Node20&#45;&gt;Node9</title>
<g id="a_edge35_Node000020_Node000009"><a xlink:title=" ">
<path fill="none" stroke="#63b8ff" d="M443.48,-117.56C498.12,-107.02 586.58,-89.95 645.4,-78.6"/>
<polygon fill="#63b8ff" stroke="#63b8ff" points="645.74,-82.1 654.9,-76.77 644.41,-75.23 645.74,-82.1"/>
</a>
</g>
</g>
<!-- Node20&#45;&gt;Node10 -->
<g id="edge36_Node000020_Node000010" class="edge">
<title>Node20&#45;&gt;Node10</title>
<g id="a_edge36_Node000020_Node000010"><a xlink:title=" ">
<path fill="none" stroke="#63b8ff" d="M344.04,-117.56C279.12,-105.43 167.95,-84.65 110.43,-73.9"/>
<polygon fill="#63b8ff" stroke="#63b8ff" points="111.3,-70.5 100.83,-72.1 110.02,-77.38 111.3,-70.5"/>
</a>
</g>
</g>
<!-- Node20&#45;&gt;Node13 -->
<g id="edge37_Node000020_Node000013" class="edge">
<title>Node20&#45;&gt;Node13</title>
<g id="a_edge37_Node000020_Node000013"><a xlink:title=" ">
<path fill="none" stroke="#63b8ff" d="M424.08,-117.62C458.46,-106.71 515.08,-88.74 550.78,-77.4"/>
<polygon fill="#63b8ff" stroke="#63b8ff" points="551.67,-80.79 560.14,-74.43 549.55,-74.12 551.67,-80.79"/>
</a>
</g>
</g>
<!-- Node21&#45;&gt;Node9 -->
<g id="edge39_Node000021_Node000009" class="edge">
<title>Node21&#45;&gt;Node9</title>
<g id="a_edge39_Node000021_Node000009"><a xlink:title=" ">
<path fill="none" stroke="#63b8ff" d="M729.17,-117.62C725.28,-109.3 719.48,-96.86 714.6,-86.4"/>
<polygon fill="#63b8ff" stroke="#63b8ff" points="717.84,-85.07 710.44,-77.48 711.5,-88.03 717.84,-85.07"/>
</a>
</g>
</g>
<!-- Node21&#45;&gt;Node13 -->
<g id="edge40_Node000021_Node000013" class="edge">
<title>Node21&#45;&gt;Node13</title>
<g id="a_edge40_Node000021_Node000013"><a xlink:title=" ">
<path fill="none" stroke="#63b8ff" d="M710.11,-117.62C684.79,-107.5 644.29,-91.3 615.94,-79.96"/>
<polygon fill="#63b8ff" stroke="#63b8ff" points="617.35,-76.75 606.76,-76.29 614.75,-83.25 617.35,-76.75"/>
</a>
</g>
</g>
<!-- Node21&#45;&gt;Node17 -->
<g id="edge41_Node000021_Node000017" class="edge">
<title>Node21&#45;&gt;Node17</title>
<g id="a_edge41_Node000021_Node000017"><a xlink:title=" ">
<path fill="none" stroke="#63b8ff" d="M745.26,-117.62C756.78,-108.41 774.58,-94.17 788.37,-83.14"/>
<polygon fill="#63b8ff" stroke="#63b8ff" points="790.35,-86.04 795.97,-77.06 785.98,-80.57 790.35,-86.04"/>
</a>
</g>
</g>
<!-- Node22&#45;&gt;Node3 -->
<g id="edge43_Node000022_Node000003" class="edge">
<title>Node22&#45;&gt;Node3</title>
<g id="a_edge43_Node000022_Node000003"><a xlink:title=" ">
<path fill="none" stroke="#63b8ff" d="M543.11,-117.56C498.52,-107.15 426.67,-90.38 378.08,-79.03"/>
<polygon fill="#63b8ff" stroke="#63b8ff" points="379.18,-75.69 368.65,-76.83 377.59,-82.51 379.18,-75.69"/>
</a>
</g>
</g>
<!-- Node22&#45;&gt;Node9 -->
<g id="edge44_Node000022_Node000009" class="edge">
<title>Node22&#45;&gt;Node9</title>
<g id="a_edge44_Node000022_Node000009"><a xlink:title=" ">
<path fill="none" stroke="#63b8ff" d="M602.61,-117.62C622.39,-107.89 653.59,-92.55 676.46,-81.31"/>
<polygon fill="#63b8ff" stroke="#63b8ff" points="677.83,-84.53 685.26,-76.98 674.74,-78.25 677.83,-84.53"/>
</a>
</g>
</g>
<!-- Node22&#45;&gt;Node13 -->
<g id="edge45_Node000022_Node000013" class="edge">
<title>Node22&#45;&gt;Node13</title>
<g id="a_edge45_Node000022_Node000013"><a xlink:title=" ">
<path fill="none" stroke="#63b8ff" d="M583.55,-117.62C583.55,-109.56 583.55,-97.65 583.55,-87.41"/>
<polygon fill="#63b8ff" stroke="#63b8ff" points="587.05,-87.63 583.55,-77.63 580.05,-87.63 587.05,-87.63"/>
</a>
</g>
</g>
<!-- Node22&#45;&gt;Node17 -->
<g id="edge46_Node000022_Node000017" class="edge">
<title>Node22&#45;&gt;Node17</title>
<g id="a_edge46_Node000022_Node000017"><a xlink:title=" ">
<path fill="none" stroke="#63b8ff" d="M618.7,-117.62C658.53,-107.01 723.41,-89.7 766.04,-78.33"/>
<polygon fill="#63b8ff" stroke="#63b8ff" points="766.68,-81.79 775.44,-75.83 764.88,-75.02 766.68,-81.79"/>
</a>
</g>
</g>
</g>
</svg>
