<?xml version="1.0" encoding="UTF-8" standalone="no"?>
<!DOCTYPE svg PUBLIC "-//W3C//DTD SVG 1.1//EN"
 "http://www.w3.org/Graphics/SVG/1.1/DTD/svg11.dtd">
<!-- Generated by graphviz version 14.0.2 (20251019.1705)
 -->
<!-- Title: utils/error_decoder.h Pages: 1 -->
<svg width="517pt" height="96pt"
 viewBox="0.00 0.00 517.00 96.00" xmlns="http://www.w3.org/2000/svg" xmlns:xlink="http://www.w3.org/1999/xlink">
<g id="graph0" class="graph" transform="scale(1 1) rotate(0) translate(4 92)">
<title>utils/error_decoder.h</title>
<!-- Node1 -->
<g id="Node000001" class="node">
<title>Node1</title>
<g id="a_Node000001"><a xlink:title="HRESULT decoder and diagnostics utilities.">
<polygon fill="#999999" stroke="#666666" points="276.12,-88 171.62,-88 171.62,-68 276.12,-68 276.12,-88"/>
<text xml:space="preserve" text-anchor="middle" x="223.88" y="-74.5" font-family="Helvetica,sans-Serif" font-size="10.00">utils/error_decoder.h</text>
</a>
</g>
</g>
<!-- Node2 -->
<g id="Node000002" class="node">
<title>Node2</title>
<g id="a_Node000002"><a xlink:href="api_8cpp.html" target="_top" xlink:title="Complete C ABI implementation for duvc&#45;ctl library.">
<polygon fill="white" stroke="#666666" points="55.75,-26 0,-26 0,-6 55.75,-6 55.75,-26"/>
<text xml:space="preserve" text-anchor="middle" x="27.88" y="-12.5" font-family="Helvetica,sans-Serif" font-size="10.00">c/api.cpp</text>
</a>
</g>
</g>
<!-- Node1&#45;&gt;Node2 -->
<g id="edge1_Node000001_Node000002" class="edge">
<title>Node1&#45;&gt;Node2</title>
<g id="a_edge1_Node000001_Node000002"><a xlink:title=" ">
<path fill="none" stroke="#63b8ff" d="M175.18,-64.7C143.49,-56.33 101.41,-44.53 64.88,-32 60.02,-30.34 54.88,-28.38 50.03,-26.44"/>
<polygon fill="#63b8ff" stroke="#63b8ff" points="173.9,-67.98 184.46,-67.13 175.68,-61.21 173.9,-67.98"/>
</a>
</g>
</g>
<!-- Node3 -->
<g id="Node000003" class="node">
<title>Node3</title>
<g id="a_Node000003"><a xlink:href="error__handling_8cpp.html" target="_top" xlink:title="C ABI error handling and diagnostics implementation.">
<polygon fill="white" stroke="#666666" points="177.75,-26 74,-26 74,-6 177.75,-6 177.75,-26"/>
<text xml:space="preserve" text-anchor="middle" x="125.88" y="-12.5" font-family="Helvetica,sans-Serif" font-size="10.00">c/error_handling.cpp</text>
</a>
</g>
</g>
<!-- Node1&#45;&gt;Node3 -->
<g id="edge2_Node000001_Node000003" class="edge">
<title>Node1&#45;&gt;Node3</title>
<g id="a_edge2_Node000001_Node000003"><a xlink:title=" ">
<path fill="none" stroke="#63b8ff" d="M198.87,-61.69C180.63,-50.52 156.5,-35.75 141.08,-26.31"/>
<polygon fill="#63b8ff" stroke="#63b8ff" points="196.92,-64.6 207.27,-66.83 200.57,-58.63 196.92,-64.6"/>
</a>
</g>
</g>
<!-- Node4 -->
<g id="Node000004" class="node">
<title>Node4</title>
<g id="a_Node000004"><a xlink:href="duvc_8hpp.html" target="_top" xlink:title="Main umbrella header for duvc&#45;ctl library.">
<polygon fill="white" stroke="#666666" points="251.75,-26 196,-26 196,-6 251.75,-6 251.75,-26"/>
<text xml:space="preserve" text-anchor="middle" x="223.88" y="-12.5" font-family="Helvetica,sans-Serif" font-size="10.00">duvc.hpp</text>
</a>
</g>
</g>
<!-- Node1&#45;&gt;Node4 -->
<g id="edge3_Node000001_Node000004" class="edge">
<title>Node1&#45;&gt;Node4</title>
<g id="a_edge3_Node000001_Node000004"><a xlink:title=" ">
<path fill="none" stroke="#63b8ff" d="M223.88,-56.25C223.88,-45.97 223.88,-34.09 223.88,-26.11"/>
<polygon fill="#63b8ff" stroke="#63b8ff" points="220.38,-56.11 223.88,-66.11 227.38,-56.11 220.38,-56.11"/>
</a>
</g>
</g>
<!-- Node5 -->
<g id="Node000005" class="node">
<title>Node5</title>
<g id="a_Node000005"><a xlink:href="ks__properties_8cpp.html" target="_top" xlink:title="IKsPropertySet implementation for vendor properties.">
<polygon fill="white" stroke="#666666" points="375.88,-32 269.88,-32 269.88,0 375.88,0 375.88,-32"/>
<text xml:space="preserve" text-anchor="start" x="277.88" y="-18.5" font-family="Helvetica,sans-Serif" font-size="10.00">platform/windows/ks</text>
<text xml:space="preserve" text-anchor="middle" x="322.88" y="-6.5" font-family="Helvetica,sans-Serif" font-size="10.00">_properties.cpp</text>
</a>
</g>
</g>
<!-- Node1&#45;&gt;Node5 -->
<g id="edge4_Node000001_Node000005" class="edge">
<title>Node1&#45;&gt;Node5</title>
<g id="a_edge4_Node000001_Node000005"><a xlink:title=" ">
<path fill="none" stroke="#63b8ff" d="M248.91,-61.83C263.78,-52.81 282.58,-41.42 297.51,-32.37"/>
<polygon fill="#63b8ff" stroke="#63b8ff" points="247.38,-58.66 240.64,-66.84 251,-64.65 247.38,-58.66"/>
</a>
</g>
</g>
<!-- Node6 -->
<g id="Node000006" class="node">
<title>Node6</title>
<g id="a_Node000006"><a xlink:href="error__decoder_8cpp.html" target="_top" xlink:title="Error decoding and diagnostic utilities implementation.">
<polygon fill="white" stroke="#666666" points="509.38,-26 394.38,-26 394.38,-6 509.38,-6 509.38,-26"/>
<text xml:space="preserve" text-anchor="middle" x="451.88" y="-12.5" font-family="Helvetica,sans-Serif" font-size="10.00">utils/error_decoder.cpp</text>
</a>
</g>
</g>
<!-- Node1&#45;&gt;Node6 -->
<g id="edge5_Node000001_Node000006" class="edge">
<title>Node1&#45;&gt;Node6</title>
<g id="a_edge5_Node000001_Node000006"><a xlink:title=" ">
<path fill="none" stroke="#63b8ff" d="M270.78,-64.66C313.8,-53.33 376.62,-36.8 415.83,-26.48"/>
<polygon fill="#63b8ff" stroke="#63b8ff" points="269.99,-61.24 261.21,-67.17 271.78,-68.01 269.99,-61.24"/>
</a>
</g>
</g>
</g>
</svg>
