<?xml version="1.0" encoding="UTF-8" standalone="no"?>
<!DOCTYPE svg PUBLIC "-//W3C//DTD SVG 1.1//EN"
 "http://www.w3.org/Graphics/SVG/1.1/DTD/svg11.dtd">
<!-- Generated by graphviz version 14.0.2 (20251019.1705)
 -->
<!-- Title: utils/error_decoder.cpp Pages: 1 -->
<svg width="504pt" height="152pt"
 viewBox="0.00 0.00 504.00 152.00" xmlns="http://www.w3.org/2000/svg" xmlns:xlink="http://www.w3.org/1999/xlink">
<g id="graph0" class="graph" transform="scale(1 1) rotate(0) translate(4 148)">
<title>utils/error_decoder.cpp</title>
<!-- Node1 -->
<g id="Node000001" class="node">
<title>Node1</title>
<g id="a_Node000001"><a xlink:title="Error decoding and diagnostic utilities implementation.">
<polygon fill="#999999" stroke="#666666" points="301.5,-144 186.5,-144 186.5,-124 301.5,-124 301.5,-144"/>
<text xml:space="preserve" text-anchor="middle" x="244" y="-130.5" font-family="Helvetica,sans-Serif" font-size="10.00">utils/error_decoder.cpp</text>
</a>
</g>
</g>
<!-- Node2 -->
<g id="Node000002" class="node">
<title>Node2</title>
<g id="a_Node000002"><a xlink:href="error__decoder_8h.html" target="_top" xlink:title="HRESULT decoder and diagnostics utilities.">
<polygon fill="white" stroke="#666666" points="94,-88 0,-88 0,-56 94,-56 94,-88"/>
<text xml:space="preserve" text-anchor="start" x="8" y="-74.5" font-family="Helvetica,sans-Serif" font-size="10.00">duvc&#45;ctl/utils/error</text>
<text xml:space="preserve" text-anchor="middle" x="47" y="-62.5" font-family="Helvetica,sans-Serif" font-size="10.00">_decoder.h</text>
</a>
</g>
</g>
<!-- Node1&#45;&gt;Node2 -->
<g id="edge1_Node000001_Node000002" class="edge">
<title>Node1&#45;&gt;Node2</title>
<g id="a_edge1_Node000001_Node000002"><a xlink:title=" ">
<path fill="none" stroke="#63b8ff" d="M213.22,-123.62C184.39,-114.84 140.55,-101.49 105.13,-90.71"/>
<polygon fill="#63b8ff" stroke="#63b8ff" points="106.47,-87.45 95.88,-87.89 104.43,-94.15 106.47,-87.45"/>
</a>
</g>
</g>
<!-- Node4 -->
<g id="Node000004" class="node">
<title>Node4</title>
<g id="a_Node000004"><a xlink:title=" ">
<polygon fill="#e0e0e0" stroke="#999999" points="150.25,-20 87.75,-20 87.75,0 150.25,0 150.25,-20"/>
<text xml:space="preserve" text-anchor="middle" x="119" y="-6.5" font-family="Helvetica,sans-Serif" font-size="10.00">windows.h</text>
</a>
</g>
</g>
<!-- Node1&#45;&gt;Node4 -->
<g id="edge8_Node000001_Node000004" class="edge">
<title>Node1&#45;&gt;Node4</title>
<g id="a_edge8_Node000001_Node000004"><a xlink:title=" ">
<path fill="none" stroke="#63b8ff" d="M201.51,-123.57C180.6,-116.89 156.61,-105.85 141,-88 127.29,-72.32 122.09,-48.62 120.14,-31.66"/>
<polygon fill="#63b8ff" stroke="#63b8ff" points="123.63,-31.43 119.32,-21.76 116.65,-32.01 123.63,-31.43"/>
</a>
</g>
</g>
<!-- Node5 -->
<g id="Node000005" class="node">
<title>Node5</title>
<g id="a_Node000005"><a xlink:title=" ">
<polygon fill="#e0e0e0" stroke="#999999" points="199.88,-82 150.12,-82 150.12,-62 199.88,-62 199.88,-82"/>
<text xml:space="preserve" text-anchor="middle" x="175" y="-68.5" font-family="Helvetica,sans-Serif" font-size="10.00">iomanip</text>
</a>
</g>
</g>
<!-- Node1&#45;&gt;Node5 -->
<g id="edge4_Node000001_Node000005" class="edge">
<title>Node1&#45;&gt;Node5</title>
<g id="a_edge4_Node000001_Node000005"><a xlink:title=" ">
<path fill="none" stroke="#63b8ff" d="M233.22,-123.62C222.73,-114.5 206.56,-100.45 193.93,-89.46"/>
<polygon fill="#63b8ff" stroke="#63b8ff" points="196.46,-87.03 186.62,-83.11 191.87,-92.31 196.46,-87.03"/>
</a>
</g>
</g>
<!-- Node6 -->
<g id="Node000006" class="node">
<title>Node6</title>
<g id="a_Node000006"><a xlink:title=" ">
<polygon fill="#e0e0e0" stroke="#999999" points="269.62,-82 218.38,-82 218.38,-62 269.62,-62 269.62,-82"/>
<text xml:space="preserve" text-anchor="middle" x="244" y="-68.5" font-family="Helvetica,sans-Serif" font-size="10.00">sstream</text>
</a>
</g>
</g>
<!-- Node1&#45;&gt;Node6 -->
<g id="edge5_Node000001_Node000006" class="edge">
<title>Node1&#45;&gt;Node6</title>
<g id="a_edge5_Node000001_Node000006"><a xlink:title=" ">
<path fill="none" stroke="#63b8ff" d="M244,-123.62C244,-115.56 244,-103.65 244,-93.41"/>
<polygon fill="#63b8ff" stroke="#63b8ff" points="247.5,-93.63 244,-83.63 240.5,-93.63 247.5,-93.63"/>
</a>
</g>
</g>
<!-- Node7 -->
<g id="Node000007" class="node">
<title>Node7</title>
<g id="a_Node000007"><a xlink:title=" ">
<polygon fill="#e0e0e0" stroke="#999999" points="344.25,-82 287.75,-82 287.75,-62 344.25,-62 344.25,-82"/>
<text xml:space="preserve" text-anchor="middle" x="316" y="-68.5" font-family="Helvetica,sans-Serif" font-size="10.00">comdef.h</text>
</a>
</g>
</g>
<!-- Node1&#45;&gt;Node7 -->
<g id="edge6_Node000001_Node000007" class="edge">
<title>Node1&#45;&gt;Node7</title>
<g id="a_edge6_Node000001_Node000007"><a xlink:title=" ">
<path fill="none" stroke="#63b8ff" d="M255.25,-123.62C266.2,-114.5 283.07,-100.45 296.25,-89.46"/>
<polygon fill="#63b8ff" stroke="#63b8ff" points="298.46,-92.17 303.9,-83.08 293.98,-86.79 298.46,-92.17"/>
</a>
</g>
</g>
<!-- Node8 -->
<g id="Node000008" class="node">
<title>Node8</title>
<g id="a_Node000008"><a xlink:title=" ">
<polygon fill="#e0e0e0" stroke="#999999" points="414,-82 362,-82 362,-62 414,-62 414,-82"/>
<text xml:space="preserve" text-anchor="middle" x="388" y="-68.5" font-family="Helvetica,sans-Serif" font-size="10.00">dshow.h</text>
</a>
</g>
</g>
<!-- Node1&#45;&gt;Node8 -->
<g id="edge7_Node000001_Node000008" class="edge">
<title>Node1&#45;&gt;Node8</title>
<g id="a_edge7_Node000001_Node000008"><a xlink:title=" ">
<path fill="none" stroke="#63b8ff" d="M267,-123.61C289.09,-114.57 323.37,-100.46 353,-88 353.93,-87.61 354.88,-87.21 355.84,-86.8"/>
<polygon fill="#63b8ff" stroke="#63b8ff" points="356.95,-90.13 364.78,-83 354.21,-83.69 356.95,-90.13"/>
</a>
</g>
</g>
<!-- Node9 -->
<g id="Node000009" class="node">
<title>Node9</title>
<g id="a_Node000009"><a xlink:title=" ">
<polygon fill="#e0e0e0" stroke="#999999" points="496,-82 432,-82 432,-62 496,-62 496,-82"/>
<text xml:space="preserve" text-anchor="middle" x="464" y="-68.5" font-family="Helvetica,sans-Serif" font-size="10.00">vfwmsgs.h</text>
</a>
</g>
</g>
<!-- Node1&#45;&gt;Node9 -->
<g id="edge9_Node000001_Node000009" class="edge">
<title>Node1&#45;&gt;Node9</title>
<g id="a_edge9_Node000001_Node000009"><a xlink:title=" ">
<path fill="none" stroke="#63b8ff" d="M287.02,-123.51C323.5,-115.16 377.06,-102.14 423,-88 424.84,-87.43 426.72,-86.83 428.62,-86.21"/>
<polygon fill="#63b8ff" stroke="#63b8ff" points="429.69,-89.54 438,-82.96 427.4,-82.92 429.69,-89.54"/>
</a>
</g>
</g>
<!-- Node3 -->
<g id="Node000003" class="node">
<title>Node3</title>
<g id="a_Node000003"><a xlink:title=" ">
<polygon fill="#e0e0e0" stroke="#999999" points="67,-20 27,-20 27,0 67,0 67,-20"/>
<text xml:space="preserve" text-anchor="middle" x="47" y="-6.5" font-family="Helvetica,sans-Serif" font-size="10.00">string</text>
</a>
</g>
</g>
<!-- Node2&#45;&gt;Node3 -->
<g id="edge2_Node000002_Node000003" class="edge">
<title>Node2&#45;&gt;Node3</title>
<g id="a_edge2_Node000002_Node000003"><a xlink:title=" ">
<path fill="none" stroke="#63b8ff" d="M47,-55.55C47,-48.34 47,-39.66 47,-31.88"/>
<polygon fill="#63b8ff" stroke="#63b8ff" points="50.5,-31.92 47,-21.92 43.5,-31.92 50.5,-31.92"/>
</a>
</g>
</g>
<!-- Node2&#45;&gt;Node4 -->
<g id="edge3_Node000002_Node000004" class="edge">
<title>Node2&#45;&gt;Node4</title>
<g id="a_edge3_Node000002_Node000004"><a xlink:title=" ">
<path fill="none" stroke="#63b8ff" d="M65.54,-55.55C75.75,-47.04 88.43,-36.48 98.88,-27.77"/>
<polygon fill="#63b8ff" stroke="#63b8ff" points="101.11,-30.47 106.55,-21.38 96.62,-25.09 101.11,-30.47"/>
</a>
</g>
</g>
</g>
</svg>
