<?xml version="1.0" encoding="UTF-8" standalone="no"?>
<!DOCTYPE svg PUBLIC "-//W3C//DTD SVG 1.1//EN"
 "http://www.w3.org/Graphics/SVG/1.1/DTD/svg11.dtd">
<!-- Generated by graphviz version 14.0.2 (20251019.1705)
 -->
<!-- Title: c/error_handling.cpp Pages: 1 -->
<!--zoomable 152 -->

<svg id="main" version="1.1" xmlns="http://www.w3.org/2000/svg" xmlns:xlink="http://www.w3.org/1999/xlink" xml:space="preserve" onload="init(evt)">
<style type="text/css"><![CDATA[
.node, .edge {opacity: 0.7;}
.node.selected, .edge.selected {opacity: 1;}
.edge:hover path { stroke: red; }
.edge:hover polygon { stroke: red; fill: red; }
]]></style>

<defs>
  <circle id="rim" cx="0" cy="0" r="7"/>
  <circle id="rim2" cx="0" cy="0" r="3.5"/>
  <g id="zoomPlus">
    <use xlink:href="#rim" fill="#404040"><set attributeName="fill" to="#808080" begin="zoomplus.mouseover" end="zoomplus.mouseout"/></use>
    <path d="M-4,0h8M0,-4v8" fill="none" stroke="white" stroke-width="1.5" pointer-events="none"/>
  </g>
  <g id="zoomMin">
    <use xlink:href="#rim" fill="#404040"><set attributeName="fill" to="#808080" begin="zoomminus.mouseover" end="zoomminus.mouseout"/></use>
    <path d="M-4,0h8" fill="none" stroke="white" stroke-width="1.5" pointer-events="none"/>
  </g>
  <g id="arrowUp" transform="translate(30 24)">
    <use xlink:href="#rim"/>
    <path pointer-events="none" fill="none" stroke="white" stroke-width="1.5" d="M0,-3.0v7 M-2.5,-0.5L0,-3.0L2.5,-0.5"/>
  </g>
  <g id="arrowRight" transform="rotate(90) translate(36 -43)">
    <use xlink:href="#rim"/>
    <path pointer-events="none" fill="none" stroke="white" stroke-width="1.5" d="M0,-3.0v7 M-2.5,-0.5L0,-3.0L2.5,-0.5"/>
  </g>
  <g id="arrowDown" transform="rotate(180) translate(-30 -48)">
    <use xlink:href="#rim"/>
    <path pointer-events="none" fill="none" stroke="white" stroke-width="1.5" d="M0,-3.0v7 M-2.5,-0.5L0,-3.0L2.5,-0.5"/>
  </g>
  <g id="arrowLeft" transform="rotate(270) translate(-36 17)">
    <use xlink:href="#rim"/>
    <path pointer-events="none" fill="none" stroke="white" stroke-width="1.5" d="M0,-3.0v7 M-2.5,-0.5L0,-3.0L2.5,-0.5"/>
  </g>
  <g id="resetDef">
    <use xlink:href="#rim2" fill="#404040"><set attributeName="fill" to="#808080" begin="reset.mouseover" end="reset.mouseout"/></use>
  </g>
</defs>
<script type="application/ecmascript">
var viewWidth = 1296;
var viewHeight = 152;
var sectionId = 'dynsection-0';
</script>
<script type="application/ecmascript" xlink:href="svg.min.js"/>
<svg id="graph" class="graph">
<g id="viewport">
<title>c/error_handling.cpp</title>
<!-- Node1 -->
<g id="Node000001" class="node">
<title>Node1</title>
<g id="a_Node000001"><a xlink:title="C ABI error handling and diagnostics implementation.">
<polygon fill="#999999" stroke="#666666" points="830,-144 726.25,-144 726.25,-124 830,-124 830,-144"/>
<text xml:space="preserve" text-anchor="middle" x="778.12" y="-130.5" font-family="Helvetica,sans-Serif" font-size="10.00">c/error_handling.cpp</text>
</a>
</g>
</g>
<!-- Node2 -->
<g id="Node000002" class="node">
<title>Node2</title>
<g id="a_Node000002"><a xlink:href="api_8h.html" target="_top" xlink:title="Complete C ABI for duvc&#45;ctl with comprehensive API coverage.">
<polygon fill="white" stroke="#666666" points="133.5,-82 50.75,-82 50.75,-62 133.5,-62 133.5,-82"/>
<text xml:space="preserve" text-anchor="middle" x="92.12" y="-68.5" font-family="Helvetica,sans-Serif" font-size="10.00">duvc&#45;ctl/c/api.h</text>
</a>
</g>
</g>
<!-- Node1&#45;&gt;Node2 -->
<g id="edge1_Node000001_Node000002" class="edge">
<title>Node1&#45;&gt;Node2</title>
<g id="a_edge1_Node000001_Node000002"><a xlink:title=" ">
<path fill="none" stroke="#63b8ff" d="M725.85,-129.29C627.66,-122.2 408.96,-105.84 225.12,-88 198.67,-85.43 169.3,-82.16 144.91,-79.34"/>
<polygon fill="#63b8ff" stroke="#63b8ff" points="145.57,-75.89 135.23,-78.2 144.75,-82.84 145.57,-75.89"/>
</a>
</g>
</g>
<!-- Node5 -->
<g id="Node000005" class="node">
<title>Node5</title>
<g id="a_Node000005"><a xlink:href="result_8h.html" target="_top" xlink:title="Result/Error type system for duvc&#45;ctl.">
<polygon fill="white" stroke="#666666" points="341.88,-82 234.38,-82 234.38,-62 341.88,-62 341.88,-82"/>
<text xml:space="preserve" text-anchor="middle" x="288.12" y="-68.5" font-family="Helvetica,sans-Serif" font-size="10.00">duvc&#45;ctl/core/result.h</text>
</a>
</g>
</g>
<!-- Node1&#45;&gt;Node5 -->
<g id="edge4_Node000001_Node000005" class="edge">
<title>Node1&#45;&gt;Node5</title>
<g id="a_edge4_Node000001_Node000005"><a xlink:title=" ">
<path fill="none" stroke="#63b8ff" d="M725.9,-129.3C645.93,-123.22 488.47,-109.59 356.12,-88 350.45,-87.08 344.54,-85.98 338.68,-84.8"/>
<polygon fill="#63b8ff" stroke="#63b8ff" points="339.52,-81.4 329.02,-82.78 338.09,-88.25 339.52,-81.4"/>
</a>
</g>
</g>
<!-- Node8 -->
<g id="Node000008" class="node">
<title>Node8</title>
<g id="a_Node000008"><a xlink:title=" ">
<polygon fill="#e0e0e0" stroke="#999999" points="469.12,-20 429.12,-20 429.12,0 469.12,0 469.12,-20"/>
<text xml:space="preserve" text-anchor="middle" x="449.12" y="-6.5" font-family="Helvetica,sans-Serif" font-size="10.00">string</text>
</a>
</g>
</g>
<!-- Node1&#45;&gt;Node8 -->
<g id="edge24_Node000001_Node000008" class="edge">
<title>Node1&#45;&gt;Node8</title>
<g id="a_edge24_Node000001_Node000008"><a xlink:title=" ">
<path fill="none" stroke="#63b8ff" d="M725.76,-130.75C624.79,-125.87 411.14,-112.71 389.12,-88 379.66,-77.38 382.76,-68.72 389.12,-56 395.48,-43.3 407.3,-33.25 418.79,-25.9"/>
<polygon fill="#63b8ff" stroke="#63b8ff" points="420.48,-28.97 427.34,-20.91 416.94,-22.93 420.48,-28.97"/>
</a>
</g>
</g>
<!-- Node11 -->
<g id="Node000011" class="node">
<title>Node11</title>
<g id="a_Node000011"><a xlink:href="error__decoder_8h.html" target="_top" xlink:title="HRESULT decoder and diagnostics utilities.">
<polygon fill="white" stroke="#666666" points="624.12,-88 530.12,-88 530.12,-56 624.12,-56 624.12,-88"/>
<text xml:space="preserve" text-anchor="start" x="538.12" y="-74.5" font-family="Helvetica,sans-Serif" font-size="10.00">duvc&#45;ctl/utils/error</text>
<text xml:space="preserve" text-anchor="middle" x="577.12" y="-62.5" font-family="Helvetica,sans-Serif" font-size="10.00">_decoder.h</text>
</a>
</g>
</g>
<!-- Node1&#45;&gt;Node11 -->
<g id="edge10_Node000001_Node000011" class="edge">
<title>Node1&#45;&gt;Node11</title>
<g id="a_edge10_Node000001_Node000011"><a xlink:title=" ">
<path fill="none" stroke="#63b8ff" d="M746.72,-123.62C717,-114.75 671.66,-101.22 635.33,-90.38"/>
<polygon fill="#63b8ff" stroke="#63b8ff" points="636.41,-87.04 625.83,-87.54 634.41,-93.75 636.41,-87.04"/>
</a>
</g>
</g>
<!-- Node12 -->
<g id="Node000012" class="node">
<title>Node12</title>
<g id="a_Node000012"><a xlink:title=" ">
<polygon fill="#e0e0e0" stroke="#999999" points="654.38,-20 591.88,-20 591.88,0 654.38,0 654.38,-20"/>
<text xml:space="preserve" text-anchor="middle" x="623.12" y="-6.5" font-family="Helvetica,sans-Serif" font-size="10.00">windows.h</text>
</a>
</g>
</g>
<!-- Node1&#45;&gt;Node12 -->
<g id="edge18_Node000001_Node000012" class="edge">
<title>Node1&#45;&gt;Node12</title>
<g id="a_edge18_Node000001_Node000012"><a xlink:title=" ">
<path fill="none" stroke="#63b8ff" d="M740.88,-123.54C718.77,-116.5 691.22,-105.12 671.12,-88 652.81,-72.39 639.26,-48 631.31,-30.86"/>
<polygon fill="#63b8ff" stroke="#63b8ff" points="634.54,-29.49 627.32,-21.73 628.12,-32.3 634.54,-29.49"/>
</a>
</g>
</g>
<!-- Node13 -->
<g id="Node000013" class="node">
<title>Node13</title>
<g id="a_Node000013"><a xlink:href="logging_8h.html" target="_top" xlink:title="Structured logging interface for duvc&#45;ctl.">
<polygon fill="white" stroke="#666666" points="511.88,-82 398.38,-82 398.38,-62 511.88,-62 511.88,-82"/>
<text xml:space="preserve" text-anchor="middle" x="455.12" y="-68.5" font-family="Helvetica,sans-Serif" font-size="10.00">duvc&#45;ctl/utils/logging.h</text>
</a>
</g>
</g>
<!-- Node1&#45;&gt;Node13 -->
<g id="edge13_Node000001_Node000013" class="edge">
<title>Node1&#45;&gt;Node13</title>
<g id="a_edge13_Node000001_Node000013"><a xlink:title=" ">
<path fill="none" stroke="#63b8ff" d="M725.81,-124.63C673.77,-116.12 591.73,-102.2 521.12,-88 516.26,-87.02 511.21,-85.96 506.16,-84.87"/>
<polygon fill="#63b8ff" stroke="#63b8ff" points="507.19,-81.51 496.67,-82.77 505.68,-88.34 507.19,-81.51"/>
</a>
</g>
</g>
<!-- Node15 -->
<g id="Node000015" class="node">
<title>Node15</title>
<g id="a_Node000015"><a xlink:title=" ">
<polygon fill="#e0e0e0" stroke="#999999" points="736.38,-82 679.88,-82 679.88,-62 736.38,-62 736.38,-82"/>
<text xml:space="preserve" text-anchor="middle" x="708.12" y="-68.5" font-family="Helvetica,sans-Serif" font-size="10.00">comdef.h</text>
</a>
</g>
</g>
<!-- Node1&#45;&gt;Node15 -->
<g id="edge16_Node000001_Node000015" class="edge">
<title>Node1&#45;&gt;Node15</title>
<g id="a_edge16_Node000001_Node000015"><a xlink:title=" ">
<path fill="none" stroke="#63b8ff" d="M767.19,-123.62C756.54,-114.5 740.14,-100.45 727.33,-89.46"/>
<polygon fill="#63b8ff" stroke="#63b8ff" points="729.78,-86.95 719.91,-83.1 725.22,-92.26 729.78,-86.95"/>
</a>
</g>
</g>
<!-- Node16 -->
<g id="Node000016" class="node">
<title>Node16</title>
<g id="a_Node000016"><a xlink:title=" ">
<polygon fill="#e0e0e0" stroke="#999999" points="801.88,-82 754.38,-82 754.38,-62 801.88,-62 801.88,-82"/>
<text xml:space="preserve" text-anchor="middle" x="778.12" y="-68.5" font-family="Helvetica,sans-Serif" font-size="10.00">psapi.h</text>
</a>
</g>
</g>
<!-- Node1&#45;&gt;Node16 -->
<g id="edge17_Node000001_Node000016" class="edge">
<title>Node1&#45;&gt;Node16</title>
<g id="a_edge17_Node000001_Node000016"><a xlink:title=" ">
<path fill="none" stroke="#63b8ff" d="M778.12,-123.62C778.12,-115.56 778.12,-103.65 778.12,-93.41"/>
<polygon fill="#63b8ff" stroke="#63b8ff" points="781.63,-93.63 778.13,-83.63 774.63,-93.63 781.63,-93.63"/>
</a>
</g>
</g>
<!-- Node17 -->
<g id="Node000017" class="node">
<title>Node17</title>
<g id="a_Node000017"><a xlink:title=" ">
<polygon fill="#e0e0e0" stroke="#999999" points="864.75,-82 819.5,-82 819.5,-62 864.75,-62 864.75,-82"/>
<text xml:space="preserve" text-anchor="middle" x="842.12" y="-68.5" font-family="Helvetica,sans-Serif" font-size="10.00">atomic</text>
</a>
</g>
</g>
<!-- Node1&#45;&gt;Node17 -->
<g id="edge19_Node000001_Node000017" class="edge">
<title>Node1&#45;&gt;Node17</title>
<g id="a_edge19_Node000001_Node000017"><a xlink:title=" ">
<path fill="none" stroke="#63b8ff" d="M788.12,-123.62C797.76,-114.59 812.56,-100.72 824.23,-89.78"/>
<polygon fill="#63b8ff" stroke="#63b8ff" points="826.4,-92.54 831.3,-83.15 821.61,-87.43 826.4,-92.54"/>
</a>
</g>
</g>
<!-- Node18 -->
<g id="Node000018" class="node">
<title>Node18</title>
<g id="a_Node000018"><a xlink:title=" ">
<polygon fill="#e0e0e0" stroke="#999999" points="927.75,-82 882.5,-82 882.5,-62 927.75,-62 927.75,-82"/>
<text xml:space="preserve" text-anchor="middle" x="905.12" y="-68.5" font-family="Helvetica,sans-Serif" font-size="10.00">cstring</text>
</a>
</g>
</g>
<!-- Node1&#45;&gt;Node18 -->
<g id="edge20_Node000001_Node000018" class="edge">
<title>Node1&#45;&gt;Node18</title>
<g id="a_edge20_Node000001_Node000018"><a xlink:title=" ">
<path fill="none" stroke="#63b8ff" d="M798.39,-123.59C817.84,-114.54 848.03,-100.43 874.12,-88 874.6,-87.78 875.07,-87.55 875.55,-87.32"/>
<polygon fill="#63b8ff" stroke="#63b8ff" points="876.93,-90.54 884.43,-83.05 873.9,-84.23 876.93,-90.54"/>
</a>
</g>
</g>
<!-- Node19 -->
<g id="Node000019" class="node">
<title>Node19</title>
<g id="a_Node000019"><a xlink:title=" ">
<polygon fill="#e0e0e0" stroke="#999999" points="996,-82 946.25,-82 946.25,-62 996,-62 996,-82"/>
<text xml:space="preserve" text-anchor="middle" x="971.12" y="-68.5" font-family="Helvetica,sans-Serif" font-size="10.00">iomanip</text>
</a>
</g>
</g>
<!-- Node1&#45;&gt;Node19 -->
<g id="edge21_Node000001_Node000019" class="edge">
<title>Node1&#45;&gt;Node19</title>
<g id="a_edge21_Node000001_Node000019"><a xlink:title=" ">
<path fill="none" stroke="#63b8ff" d="M817.16,-123.58C849.64,-115.35 896.91,-102.48 937.12,-88 938.28,-87.58 939.45,-87.15 940.62,-86.7"/>
<polygon fill="#63b8ff" stroke="#63b8ff" points="941.86,-89.97 949.78,-82.93 939.2,-83.5 941.86,-89.97"/>
</a>
</g>
</g>
<!-- Node20 -->
<g id="Node000020" class="node">
<title>Node20</title>
<g id="a_Node000020"><a xlink:title=" ">
<polygon fill="#e0e0e0" stroke="#999999" points="1056.62,-82 1013.62,-82 1013.62,-62 1056.62,-62 1056.62,-82"/>
<text xml:space="preserve" text-anchor="middle" x="1035.12" y="-68.5" font-family="Helvetica,sans-Serif" font-size="10.00">mutex</text>
</a>
</g>
</g>
<!-- Node1&#45;&gt;Node20 -->
<g id="edge22_Node000001_Node000020" class="edge">
<title>Node1&#45;&gt;Node20</title>
<g id="a_edge22_Node000001_Node000020"><a xlink:title=" ">
<path fill="none" stroke="#63b8ff" d="M830.09,-126.74C876.79,-120.17 946.77,-107.97 1005.12,-88 1006.09,-87.67 1007.06,-87.32 1008.04,-86.94"/>
<polygon fill="#63b8ff" stroke="#63b8ff" points="1009.22,-90.24 1016.95,-83 1006.39,-83.84 1009.22,-90.24"/>
</a>
</g>
</g>
<!-- Node21 -->
<g id="Node000021" class="node">
<title>Node21</title>
<g id="a_Node000021"><a xlink:title=" ">
<polygon fill="#e0e0e0" stroke="#999999" points="1125.75,-82 1074.5,-82 1074.5,-62 1125.75,-62 1125.75,-82"/>
<text xml:space="preserve" text-anchor="middle" x="1100.12" y="-68.5" font-family="Helvetica,sans-Serif" font-size="10.00">sstream</text>
</a>
</g>
</g>
<!-- Node1&#45;&gt;Node21 -->
<g id="edge23_Node000001_Node000021" class="edge">
<title>Node1&#45;&gt;Node21</title>
<g id="a_edge23_Node000001_Node000021"><a xlink:title=" ">
<path fill="none" stroke="#63b8ff" d="M830.26,-128.97C888.64,-123.51 985.63,-111.6 1066.12,-88 1067.52,-87.59 1068.93,-87.14 1070.34,-86.65"/>
<polygon fill="#63b8ff" stroke="#63b8ff" points="1071.59,-89.92 1079.62,-83.01 1069.04,-83.41 1071.59,-89.92"/>
</a>
</g>
</g>
<!-- Node22 -->
<g id="Node000022" class="node">
<title>Node22</title>
<g id="a_Node000022"><a xlink:title=" ">
<polygon fill="#e0e0e0" stroke="#999999" points="1186.62,-82 1143.62,-82 1143.62,-62 1186.62,-62 1186.62,-82"/>
<text xml:space="preserve" text-anchor="middle" x="1165.12" y="-68.5" font-family="Helvetica,sans-Serif" font-size="10.00">thread</text>
</a>
</g>
</g>
<!-- Node1&#45;&gt;Node22 -->
<g id="edge25_Node000001_Node000022" class="edge">
<title>Node1&#45;&gt;Node22</title>
<g id="a_edge25_Node000001_Node000022"><a xlink:title=" ">
<path fill="none" stroke="#63b8ff" d="M830.4,-131.9C901,-129.19 1030.06,-119.87 1135.12,-88 1136.27,-87.65 1137.42,-87.27 1138.57,-86.85"/>
<polygon fill="#63b8ff" stroke="#63b8ff" points="1139.55,-90.24 1147.33,-83.05 1136.76,-83.82 1139.55,-90.24"/>
</a>
</g>
</g>
<!-- Node23 -->
<g id="Node000023" class="node">
<title>Node23</title>
<g id="a_Node000023"><a xlink:title=" ">
<polygon fill="#e0e0e0" stroke="#999999" points="1287.5,-82 1204.75,-82 1204.75,-62 1287.5,-62 1287.5,-82"/>
<text xml:space="preserve" text-anchor="middle" x="1246.12" y="-68.5" font-family="Helvetica,sans-Serif" font-size="10.00">unordered_map</text>
</a>
</g>
</g>
<!-- Node1&#45;&gt;Node23 -->
<g id="edge26_Node000001_Node000023" class="edge">
<title>Node1&#45;&gt;Node23</title>
<g id="a_edge26_Node000001_Node000023"><a xlink:title=" ">
<path fill="none" stroke="#63b8ff" d="M830.4,-130.47C910.01,-125.92 1066.1,-114.27 1196.12,-88 1199.68,-87.28 1203.34,-86.42 1206.99,-85.48"/>
<polygon fill="#63b8ff" stroke="#63b8ff" points="1207.64,-88.94 1216.34,-82.89 1205.77,-82.19 1207.64,-88.94"/>
</a>
</g>
</g>
<!-- Node3 -->
<g id="Node000003" class="node">
<title>Node3</title>
<g id="a_Node000003"><a xlink:title=" ">
<polygon fill="#e0e0e0" stroke="#999999" points="117.75,-20 66.5,-20 66.5,0 117.75,0 117.75,-20"/>
<text xml:space="preserve" text-anchor="middle" x="92.12" y="-6.5" font-family="Helvetica,sans-Serif" font-size="10.00">stddef.h</text>
</a>
</g>
</g>
<!-- Node2&#45;&gt;Node3 -->
<g id="edge2_Node000002_Node000003" class="edge">
<title>Node2&#45;&gt;Node3</title>
<g id="a_edge2_Node000002_Node000003"><a xlink:title=" ">
<path fill="none" stroke="#63b8ff" d="M92.12,-61.62C92.12,-53.56 92.12,-41.65 92.12,-31.41"/>
<polygon fill="#63b8ff" stroke="#63b8ff" points="95.63,-31.63 92.13,-21.63 88.63,-31.63 95.63,-31.63"/>
</a>
</g>
</g>
<!-- Node4 -->
<g id="Node000004" class="node">
<title>Node4</title>
<g id="a_Node000004"><a xlink:title=" ">
<polygon fill="#e0e0e0" stroke="#999999" points="48.25,-20 0,-20 0,0 48.25,0 48.25,-20"/>
<text xml:space="preserve" text-anchor="middle" x="24.12" y="-6.5" font-family="Helvetica,sans-Serif" font-size="10.00">stdint.h</text>
</a>
</g>
</g>
<!-- Node2&#45;&gt;Node4 -->
<g id="edge3_Node000002_Node000004" class="edge">
<title>Node2&#45;&gt;Node4</title>
<g id="a_edge3_Node000002_Node000004"><a xlink:title=" ">
<path fill="none" stroke="#63b8ff" d="M81.5,-61.62C71.16,-52.5 55.23,-38.45 42.78,-27.46"/>
<polygon fill="#63b8ff" stroke="#63b8ff" points="45.4,-25.11 35.59,-21.11 40.77,-30.35 45.4,-25.11"/>
</a>
</g>
</g>
<!-- Node6 -->
<g id="Node000006" class="node">
<title>Node6</title>
<g id="a_Node000006"><a xlink:title=" ">
<polygon fill="#e0e0e0" stroke="#999999" points="251.88,-20 198.38,-20 198.38,0 251.88,0 251.88,-20"/>
<text xml:space="preserve" text-anchor="middle" x="225.12" y="-6.5" font-family="Helvetica,sans-Serif" font-size="10.00">iostream</text>
</a>
</g>
</g>
<!-- Node5&#45;&gt;Node6 -->
<g id="edge5_Node000005_Node000006" class="edge">
<title>Node5&#45;&gt;Node6</title>
<g id="a_edge5_Node000005_Node000006"><a xlink:title=" ">
<path fill="none" stroke="#63b8ff" d="M278.28,-61.62C268.79,-52.59 254.23,-38.72 242.74,-27.78"/>
<polygon fill="#63b8ff" stroke="#63b8ff" points="245.44,-25.52 235.79,-21.16 240.62,-30.59 245.44,-25.52"/>
</a>
</g>
</g>
<!-- Node7 -->
<g id="Node000007" class="node">
<title>Node7</title>
<g id="a_Node000007"><a xlink:title=" ">
<polygon fill="#e0e0e0" stroke="#999999" points="320,-20 270.25,-20 270.25,0 320,0 320,-20"/>
<text xml:space="preserve" text-anchor="middle" x="295.12" y="-6.5" font-family="Helvetica,sans-Serif" font-size="10.00">optional</text>
</a>
</g>
</g>
<!-- Node5&#45;&gt;Node7 -->
<g id="edge6_Node000005_Node000007" class="edge">
<title>Node5&#45;&gt;Node7</title>
<g id="a_edge6_Node000005_Node000007"><a xlink:title=" ">
<path fill="none" stroke="#63b8ff" d="M289.22,-61.62C290.16,-53.56 291.55,-41.65 292.74,-31.41"/>
<polygon fill="#63b8ff" stroke="#63b8ff" points="296.2,-31.95 293.89,-21.62 289.25,-31.14 296.2,-31.95"/>
</a>
</g>
</g>
<!-- Node5&#45;&gt;Node8 -->
<g id="edge7_Node000005_Node000008" class="edge">
<title>Node5&#45;&gt;Node8</title>
<g id="a_edge7_Node000005_Node000008"><a xlink:title=" ">
<path fill="none" stroke="#63b8ff" d="M313.28,-61.62C341.64,-51.06 387.75,-33.87 418.26,-22.5"/>
<polygon fill="#63b8ff" stroke="#63b8ff" points="419.17,-25.9 427.32,-19.13 416.72,-19.34 419.17,-25.9"/>
</a>
</g>
</g>
<!-- Node9 -->
<g id="Node000009" class="node">
<title>Node9</title>
<g id="a_Node000009"><a xlink:title=" ">
<polygon fill="#e0e0e0" stroke="#999999" points="410.62,-20 337.62,-20 337.62,0 410.62,0 410.62,-20"/>
<text xml:space="preserve" text-anchor="middle" x="374.12" y="-6.5" font-family="Helvetica,sans-Serif" font-size="10.00">system_error</text>
</a>
</g>
</g>
<!-- Node5&#45;&gt;Node9 -->
<g id="edge8_Node000005_Node000009" class="edge">
<title>Node5&#45;&gt;Node9</title>
<g id="a_edge8_Node000005_Node000009"><a xlink:title=" ">
<path fill="none" stroke="#63b8ff" d="M301.56,-61.62C314.94,-52.29 335.72,-37.79 351.62,-26.7"/>
<polygon fill="#63b8ff" stroke="#63b8ff" points="353.34,-29.77 359.54,-21.18 349.34,-24.03 353.34,-29.77"/>
</a>
</g>
</g>
<!-- Node10 -->
<g id="Node000010" class="node">
<title>Node10</title>
<g id="a_Node000010"><a xlink:title=" ">
<polygon fill="#e0e0e0" stroke="#999999" points="180.75,-20 135.5,-20 135.5,0 180.75,0 180.75,-20"/>
<text xml:space="preserve" text-anchor="middle" x="158.12" y="-6.5" font-family="Helvetica,sans-Serif" font-size="10.00">variant</text>
</a>
</g>
</g>
<!-- Node5&#45;&gt;Node10 -->
<g id="edge9_Node000005_Node000010" class="edge">
<title>Node5&#45;&gt;Node10</title>
<g id="a_edge9_Node000005_Node000010"><a xlink:title=" ">
<path fill="none" stroke="#63b8ff" d="M267.81,-61.62C246.54,-51.81 212.88,-36.27 188.46,-25"/>
<polygon fill="#63b8ff" stroke="#63b8ff" points="190.22,-21.96 179.67,-20.94 187.28,-28.31 190.22,-21.96"/>
</a>
</g>
</g>
<!-- Node11&#45;&gt;Node8 -->
<g id="edge11_Node000011_Node000008" class="edge">
<title>Node11&#45;&gt;Node8</title>
<g id="a_edge11_Node000011_Node000008"><a xlink:title=" ">
<path fill="none" stroke="#63b8ff" d="M544.16,-55.55C524.25,-46.22 499.06,-34.41 479.62,-25.29"/>
<polygon fill="#63b8ff" stroke="#63b8ff" points="481.11,-22.13 470.57,-21.05 478.13,-28.46 481.11,-22.13"/>
</a>
</g>
</g>
<!-- Node11&#45;&gt;Node12 -->
<g id="edge12_Node000011_Node000012" class="edge">
<title>Node11&#45;&gt;Node12</title>
<g id="a_edge12_Node000011_Node000012"><a xlink:title=" ">
<path fill="none" stroke="#63b8ff" d="M588.97,-55.55C595.09,-47.56 602.61,-37.76 609.03,-29.39"/>
<polygon fill="#63b8ff" stroke="#63b8ff" points="611.68,-31.67 614.99,-21.61 606.13,-27.42 611.68,-31.67"/>
</a>
</g>
</g>
<!-- Node13&#45;&gt;Node8 -->
<g id="edge15_Node000013_Node000008" class="edge">
<title>Node13&#45;&gt;Node8</title>
<g id="a_edge15_Node000013_Node000008"><a xlink:title=" ">
<path fill="none" stroke="#63b8ff" d="M454.19,-61.62C453.38,-53.56 452.19,-41.65 451.17,-31.41"/>
<polygon fill="#63b8ff" stroke="#63b8ff" points="454.66,-31.22 450.19,-21.62 447.7,-31.92 454.66,-31.22"/>
</a>
</g>
</g>
<!-- Node14 -->
<g id="Node000014" class="node">
<title>Node14</title>
<g id="a_Node000014"><a xlink:title=" ">
<polygon fill="#e0e0e0" stroke="#999999" points="545.12,-20 487.12,-20 487.12,0 545.12,0 545.12,-20"/>
<text xml:space="preserve" text-anchor="middle" x="516.12" y="-6.5" font-family="Helvetica,sans-Serif" font-size="10.00">functional</text>
</a>
</g>
</g>
<!-- Node13&#45;&gt;Node14 -->
<g id="edge14_Node000013_Node000014" class="edge">
<title>Node13&#45;&gt;Node14</title>
<g id="a_edge14_Node000013_Node000014"><a xlink:title=" ">
<path fill="none" stroke="#63b8ff" d="M464.66,-61.62C473.75,-52.68 487.67,-38.99 498.74,-28.1"/>
<polygon fill="#63b8ff" stroke="#63b8ff" points="501.11,-30.68 505.78,-21.17 496.2,-25.69 501.11,-30.68"/>
</a>
</g>
</g>
</g>
</svg>

<g id="navigator" transform="translate(0 0)" fill="#404254">
  <rect fill="#f2f5e9" fill-opacity="0.5" stroke="#606060" stroke-width=".5" x="0" y="0" width="60" height="60"/>
  <use id="zoomplus" xlink:href="#zoomPlus" x="17" y="9" onmousedown="handleZoom(evt,'in')"/>
  <use id="zoomminus" xlink:href="#zoomMin" x="42" y="9" onmousedown="handleZoom(evt,'out')"/>
  <use id="reset" xlink:href="#resetDef" x="30" y="36" onmousedown="handleReset()"/>
   <use id="arrowup" xlink:href="#arrowUp" x="0" y="0" onmousedown="handlePan(0,-1)"/>
  <use id="arrowright" xlink:href="#arrowRight" x="0" y="0" onmousedown="handlePan(1,0)"/>
  <use id="arrowdown" xlink:href="#arrowDown" x="0" y="0" onmousedown="handlePan(0,1)"/>
  <use id="arrowleft" xlink:href="#arrowLeft" x="0" y="0" onmousedown="handlePan(-1,0)"/>
</g>
<svg viewBox="0 0 15 15" width="100%" height="30px" preserveAspectRatio="xMaxYMin meet">
 <g id="arrow_out" transform="scale(0.3 0.3)">
  <a xlink:href="error__handling_8cpp__incl_org.svg" target="_base">
   <rect id="button" ry="5" rx="5" y="6" x="6" height="38" width="38"
        fill="#f2f5e9" fill-opacity="0.5" stroke="#606060" stroke-width="1.0"/>
   <path id="arrow"
     d="M 11.500037,31.436501 C 11.940474,20.09759 22.043105,11.32322 32.158766,21.979434 L 37.068811,17.246167 C 37.068811,17.246167 37.088388,32 37.088388,32 L 22.160133,31.978069 C 22.160133,31.978069 26.997745,27.140456 26.997745,27.140456 C 18.528582,18.264221 13.291696,25.230495 11.500037,31.436501 z"
     style="fill:#404040;"/>
  </a>
 </g>
</svg>

<style type='text/css'>
<![CDATA[
[data-mouse-over-selected='false'] { opacity: 0.7; }
[data-mouse-over-selected='true']  { opacity: 1.0; }
]]>
</style>
<script type="application/ecmascript"><![CDATA[
document.addEventListener('DOMContentLoaded', (event) => {
  highlightEdges();
  highlightAdjacentNodes();
});
]]></script>
</svg>
