<?xml version="1.0" encoding="UTF-8" standalone="no"?>
<!DOCTYPE svg PUBLIC "-//W3C//DTD SVG 1.1//EN"
 "http://www.w3.org/Graphics/SVG/1.1/DTD/svg11.dtd">
<!-- Generated by graphviz version 14.0.2 (20251019.1705)
 -->
<!-- Title: platform/factory.cpp Pages: 1 -->
<svg width="633pt" height="220pt"
 viewBox="0.00 0.00 633.00 220.00" xmlns="http://www.w3.org/2000/svg" xmlns:xlink="http://www.w3.org/1999/xlink">
<g id="graph0" class="graph" transform="scale(1 1) rotate(0) translate(4 216)">
<title>platform/factory.cpp</title>
<!-- Node1 -->
<g id="Node000001" class="node">
<title>Node1</title>
<g id="a_Node000001"><a xlink:title="Platform detection and factory implementation.">
<polygon fill="#999999" stroke="#666666" points="254.62,-212 152.38,-212 152.38,-192 254.62,-192 254.62,-212"/>
<text xml:space="preserve" text-anchor="middle" x="203.5" y="-198.5" font-family="Helvetica,sans-Serif" font-size="10.00">platform/factory.cpp</text>
</a>
</g>
</g>
<!-- Node2 -->
<g id="Node000002" class="node">
<title>Node2</title>
<g id="a_Node000002"><a xlink:title=" ">
<polygon fill="#e0e0e0" stroke="#999999" points="127,-156 0,-156 0,-124 127,-124 127,-156"/>
<text xml:space="preserve" text-anchor="start" x="8" y="-142.5" font-family="Helvetica,sans-Serif" font-size="10.00">duvc&#45;ctl/detail/directshow</text>
<text xml:space="preserve" text-anchor="middle" x="63.5" y="-130.5" font-family="Helvetica,sans-Serif" font-size="10.00">_impl.h</text>
</a>
</g>
</g>
<!-- Node1&#45;&gt;Node2 -->
<g id="edge1_Node000001_Node000002" class="edge">
<title>Node1&#45;&gt;Node2</title>
<g id="a_edge1_Node000001_Node000002"><a xlink:title=" ">
<path fill="none" stroke="#63b8ff" d="M181.62,-191.62C162.53,-183.44 134.18,-171.29 110.04,-160.95"/>
<polygon fill="#63b8ff" stroke="#63b8ff" points="111.61,-157.81 101.04,-157.09 108.85,-164.24 111.61,-157.81"/>
</a>
</g>
</g>
<!-- Node3 -->
<g id="Node000003" class="node">
<title>Node3</title>
<g id="a_Node000003"><a xlink:href="interface_8h.html" target="_top" xlink:title="Abstract platform interface for camera control.">
<polygon fill="white" stroke="#666666" points="321.25,-150 183.75,-150 183.75,-130 321.25,-130 321.25,-150"/>
<text xml:space="preserve" text-anchor="middle" x="252.5" y="-136.5" font-family="Helvetica,sans-Serif" font-size="10.00">duvc&#45;ctl/platform/interface.h</text>
</a>
</g>
</g>
<!-- Node1&#45;&gt;Node3 -->
<g id="edge2_Node000001_Node000003" class="edge">
<title>Node1&#45;&gt;Node3</title>
<g id="a_edge2_Node000001_Node000003"><a xlink:title=" ">
<path fill="none" stroke="#63b8ff" d="M211.16,-191.62C218.32,-182.86 229.2,-169.53 238,-158.75"/>
<polygon fill="#63b8ff" stroke="#63b8ff" points="240.49,-161.24 244.1,-151.28 235.06,-156.82 240.49,-161.24"/>
</a>
</g>
</g>
<!-- Node11 -->
<g id="Node000011" class="node">
<title>Node11</title>
<g id="a_Node000011"><a xlink:title=" ">
<polygon fill="#e0e0e0" stroke="#999999" points="127.12,-82 75.88,-82 75.88,-62 127.12,-62 127.12,-82"/>
<text xml:space="preserve" text-anchor="middle" x="101.5" y="-68.5" font-family="Helvetica,sans-Serif" font-size="10.00">memory</text>
</a>
</g>
</g>
<!-- Node1&#45;&gt;Node11 -->
<g id="edge13_Node000001_Node000011" class="edge">
<title>Node1&#45;&gt;Node11</title>
<g id="a_edge13_Node000001_Node000011"><a xlink:title=" ">
<path fill="none" stroke="#63b8ff" d="M196.16,-191.79C179.41,-170.77 138.09,-118.91 115.99,-91.18"/>
<polygon fill="#63b8ff" stroke="#63b8ff" points="118.96,-89.29 109.99,-83.65 113.48,-93.65 118.96,-89.29"/>
</a>
</g>
</g>
<!-- Node13 -->
<g id="Node000013" class="node">
<title>Node13</title>
<g id="a_Node000013"><a xlink:href="directshow_8h.html" target="_top" xlink:title="DirectShow&#45;specific declarations and helpers.">
<polygon fill="white" stroke="#666666" points="488.5,-156 358.5,-156 358.5,-124 488.5,-124 488.5,-156"/>
<text xml:space="preserve" text-anchor="start" x="366.5" y="-142.5" font-family="Helvetica,sans-Serif" font-size="10.00">duvc&#45;ctl/platform/windows</text>
<text xml:space="preserve" text-anchor="middle" x="423.5" y="-130.5" font-family="Helvetica,sans-Serif" font-size="10.00">/directshow.h</text>
</a>
</g>
</g>
<!-- Node1&#45;&gt;Node13 -->
<g id="edge14_Node000001_Node000013" class="edge">
<title>Node1&#45;&gt;Node13</title>
<g id="a_edge14_Node000001_Node000013"><a xlink:title=" ">
<path fill="none" stroke="#63b8ff" d="M237.88,-191.62C269.29,-183.06 316.65,-170.14 355.68,-159.5"/>
<polygon fill="#63b8ff" stroke="#63b8ff" points="356.51,-162.9 365.24,-156.89 354.67,-156.14 356.51,-162.9"/>
</a>
</g>
</g>
<!-- Node4 -->
<g id="Node000004" class="node">
<title>Node4</title>
<g id="a_Node000004"><a xlink:href="result_8h.html" target="_top" xlink:title="Result/Error type system for duvc&#45;ctl.">
<polygon fill="white" stroke="#666666" points="252.25,-82 144.75,-82 144.75,-62 252.25,-62 252.25,-82"/>
<text xml:space="preserve" text-anchor="middle" x="198.5" y="-68.5" font-family="Helvetica,sans-Serif" font-size="10.00">duvc&#45;ctl/core/result.h</text>
</a>
</g>
</g>
<!-- Node3&#45;&gt;Node4 -->
<g id="edge3_Node000003_Node000004" class="edge">
<title>Node3&#45;&gt;Node4</title>
<g id="a_edge3_Node000003_Node000004"><a xlink:title=" ">
<path fill="none" stroke="#63b8ff" d="M244.76,-129.54C236.58,-119.55 223.48,-103.53 213.3,-91.09"/>
<polygon fill="#63b8ff" stroke="#63b8ff" points="216.22,-89.13 207.18,-83.61 210.8,-93.57 216.22,-89.13"/>
</a>
</g>
</g>
<!-- Node10 -->
<g id="Node000010" class="node">
<title>Node10</title>
<g id="a_Node000010"><a xlink:href="types_8h.html" target="_top" xlink:title="Core data types and enumerations for duvc&#45;ctl.">
<polygon fill="white" stroke="#666666" points="438.25,-82 330.75,-82 330.75,-62 438.25,-62 438.25,-82"/>
<text xml:space="preserve" text-anchor="middle" x="384.5" y="-68.5" font-family="Helvetica,sans-Serif" font-size="10.00">duvc&#45;ctl/core/types.h</text>
</a>
</g>
</g>
<!-- Node3&#45;&gt;Node10 -->
<g id="edge9_Node000003_Node000010" class="edge">
<title>Node3&#45;&gt;Node10</title>
<g id="a_edge9_Node000003_Node000010"><a xlink:title=" ">
<path fill="none" stroke="#63b8ff" d="M271.41,-129.54C293.37,-118.57 329.83,-100.33 355.4,-87.55"/>
<polygon fill="#63b8ff" stroke="#63b8ff" points="356.89,-90.72 364.27,-83.12 353.76,-84.46 356.89,-90.72"/>
</a>
</g>
</g>
<!-- Node3&#45;&gt;Node11 -->
<g id="edge11_Node000003_Node000011" class="edge">
<title>Node3&#45;&gt;Node11</title>
<g id="a_edge11_Node000003_Node000011"><a xlink:title=" ">
<path fill="none" stroke="#63b8ff" d="M230.92,-129.63C207.44,-119.42 168.78,-102.59 135.5,-88 134.72,-87.66 133.94,-87.32 133.15,-86.97"/>
<polygon fill="#63b8ff" stroke="#63b8ff" points="134.66,-83.81 124.1,-82.99 131.84,-90.22 134.66,-83.81"/>
</a>
</g>
</g>
<!-- Node12 -->
<g id="Node000012" class="node">
<title>Node12</title>
<g id="a_Node000012"><a xlink:title=" ">
<polygon fill="#e0e0e0" stroke="#999999" points="313,-82 270,-82 270,-62 313,-62 313,-82"/>
<text xml:space="preserve" text-anchor="middle" x="291.5" y="-68.5" font-family="Helvetica,sans-Serif" font-size="10.00">vector</text>
</a>
</g>
</g>
<!-- Node3&#45;&gt;Node12 -->
<g id="edge12_Node000003_Node000012" class="edge">
<title>Node3&#45;&gt;Node12</title>
<g id="a_edge12_Node000003_Node000012"><a xlink:title=" ">
<path fill="none" stroke="#63b8ff" d="M258.09,-129.54C263.82,-119.84 272.91,-104.47 280.15,-92.2"/>
<polygon fill="#63b8ff" stroke="#63b8ff" points="283.08,-94.13 285.15,-83.74 277.05,-90.57 283.08,-94.13"/>
</a>
</g>
</g>
<!-- Node5 -->
<g id="Node000005" class="node">
<title>Node5</title>
<g id="a_Node000005"><a xlink:title=" ">
<polygon fill="#e0e0e0" stroke="#999999" points="88.25,-20 34.75,-20 34.75,0 88.25,0 88.25,-20"/>
<text xml:space="preserve" text-anchor="middle" x="61.5" y="-6.5" font-family="Helvetica,sans-Serif" font-size="10.00">iostream</text>
</a>
</g>
</g>
<!-- Node4&#45;&gt;Node5 -->
<g id="edge4_Node000004_Node000005" class="edge">
<title>Node4&#45;&gt;Node5</title>
<g id="a_edge4_Node000004_Node000005"><a xlink:title=" ">
<path fill="none" stroke="#63b8ff" d="M177.09,-61.62C154.57,-51.76 118.89,-36.13 93.12,-24.85"/>
<polygon fill="#63b8ff" stroke="#63b8ff" points="94.71,-21.72 84.14,-20.92 91.9,-28.13 94.71,-21.72"/>
</a>
</g>
</g>
<!-- Node6 -->
<g id="Node000006" class="node">
<title>Node6</title>
<g id="a_Node000006"><a xlink:title=" ">
<polygon fill="#e0e0e0" stroke="#999999" points="156.38,-20 106.62,-20 106.62,0 156.38,0 156.38,-20"/>
<text xml:space="preserve" text-anchor="middle" x="131.5" y="-6.5" font-family="Helvetica,sans-Serif" font-size="10.00">optional</text>
</a>
</g>
</g>
<!-- Node4&#45;&gt;Node6 -->
<g id="edge5_Node000004_Node000006" class="edge">
<title>Node4&#45;&gt;Node6</title>
<g id="a_edge5_Node000004_Node000006"><a xlink:title=" ">
<path fill="none" stroke="#63b8ff" d="M188.03,-61.62C177.94,-52.59 162.45,-38.72 150.24,-27.78"/>
<polygon fill="#63b8ff" stroke="#63b8ff" points="152.59,-25.19 142.8,-21.12 147.92,-30.4 152.59,-25.19"/>
</a>
</g>
</g>
<!-- Node7 -->
<g id="Node000007" class="node">
<title>Node7</title>
<g id="a_Node000007"><a xlink:title=" ">
<polygon fill="#e0e0e0" stroke="#999999" points="392.5,-20 352.5,-20 352.5,0 392.5,0 392.5,-20"/>
<text xml:space="preserve" text-anchor="middle" x="372.5" y="-6.5" font-family="Helvetica,sans-Serif" font-size="10.00">string</text>
</a>
</g>
</g>
<!-- Node4&#45;&gt;Node7 -->
<g id="edge6_Node000004_Node000007" class="edge">
<title>Node4&#45;&gt;Node7</title>
<g id="a_edge6_Node000004_Node000007"><a xlink:title=" ">
<path fill="none" stroke="#63b8ff" d="M225.69,-61.62C256.98,-50.83 308.28,-33.14 341.21,-21.79"/>
<polygon fill="#63b8ff" stroke="#63b8ff" points="342.28,-25.12 350.6,-18.55 340,-18.5 342.28,-25.12"/>
</a>
</g>
</g>
<!-- Node8 -->
<g id="Node000008" class="node">
<title>Node8</title>
<g id="a_Node000008"><a xlink:title=" ">
<polygon fill="#e0e0e0" stroke="#999999" points="247,-20 174,-20 174,0 247,0 247,-20"/>
<text xml:space="preserve" text-anchor="middle" x="210.5" y="-6.5" font-family="Helvetica,sans-Serif" font-size="10.00">system_error</text>
</a>
</g>
</g>
<!-- Node4&#45;&gt;Node8 -->
<g id="edge7_Node000004_Node000008" class="edge">
<title>Node4&#45;&gt;Node8</title>
<g id="a_edge7_Node000004_Node000008"><a xlink:title=" ">
<path fill="none" stroke="#63b8ff" d="M200.38,-61.62C202,-53.48 204.42,-41.39 206.49,-31.07"/>
<polygon fill="#63b8ff" stroke="#63b8ff" points="209.85,-32.09 208.38,-21.6 202.99,-30.72 209.85,-32.09"/>
</a>
</g>
</g>
<!-- Node9 -->
<g id="Node000009" class="node">
<title>Node9</title>
<g id="a_Node000009"><a xlink:title=" ">
<polygon fill="#e0e0e0" stroke="#999999" points="310.12,-20 264.88,-20 264.88,0 310.12,0 310.12,-20"/>
<text xml:space="preserve" text-anchor="middle" x="287.5" y="-6.5" font-family="Helvetica,sans-Serif" font-size="10.00">variant</text>
</a>
</g>
</g>
<!-- Node4&#45;&gt;Node9 -->
<g id="edge8_Node000004_Node000009" class="edge">
<title>Node4&#45;&gt;Node9</title>
<g id="a_edge8_Node000004_Node000009"><a xlink:title=" ">
<path fill="none" stroke="#63b8ff" d="M212.41,-61.62C226.25,-52.29 247.76,-37.79 264.21,-26.7"/>
<polygon fill="#63b8ff" stroke="#63b8ff" points="266.1,-29.65 272.44,-21.16 262.19,-23.84 266.1,-29.65"/>
</a>
</g>
</g>
<!-- Node10&#45;&gt;Node7 -->
<g id="edge10_Node000010_Node000007" class="edge">
<title>Node10&#45;&gt;Node7</title>
<g id="a_edge10_Node000010_Node000007"><a xlink:title=" ">
<path fill="none" stroke="#63b8ff" d="M382.62,-61.62C381,-53.48 378.58,-41.39 376.51,-31.07"/>
<polygon fill="#63b8ff" stroke="#63b8ff" points="380.01,-30.72 374.62,-21.6 373.15,-32.09 380.01,-30.72"/>
</a>
</g>
</g>
<!-- Node13&#45;&gt;Node10 -->
<g id="edge16_Node000013_Node000010" class="edge">
<title>Node13&#45;&gt;Node10</title>
<g id="a_edge16_Node000013_Node000010"><a xlink:title=" ">
<path fill="none" stroke="#63b8ff" d="M414.45,-123.69C408.9,-114.3 401.74,-102.18 395.82,-92.15"/>
<polygon fill="#63b8ff" stroke="#63b8ff" points="398.88,-90.45 390.78,-83.62 392.85,-94.01 398.88,-90.45"/>
</a>
</g>
</g>
<!-- Node14 -->
<g id="Node000014" class="node">
<title>Node14</title>
<g id="a_Node000014"><a xlink:title=" ">
<polygon fill="#e0e0e0" stroke="#999999" points="508.5,-82 456.5,-82 456.5,-62 508.5,-62 508.5,-82"/>
<text xml:space="preserve" text-anchor="middle" x="482.5" y="-68.5" font-family="Helvetica,sans-Serif" font-size="10.00">dshow.h</text>
</a>
</g>
</g>
<!-- Node13&#45;&gt;Node14 -->
<g id="edge15_Node000013_Node000014" class="edge">
<title>Node13&#45;&gt;Node14</title>
<g id="a_edge15_Node000013_Node000014"><a xlink:title=" ">
<path fill="none" stroke="#63b8ff" d="M437.18,-123.69C445.94,-113.9 457.34,-101.15 466.51,-90.89"/>
<polygon fill="#63b8ff" stroke="#63b8ff" points="469.11,-93.23 473.16,-83.44 463.89,-88.57 469.11,-93.23"/>
</a>
</g>
</g>
<!-- Node15 -->
<g id="Node000015" class="node">
<title>Node15</title>
<g id="a_Node000015"><a xlink:title=" ">
<polygon fill="#e0e0e0" stroke="#999999" points="624.75,-88 526.25,-88 526.25,-56 624.75,-56 624.75,-88"/>
<text xml:space="preserve" text-anchor="start" x="534.25" y="-74.5" font-family="Helvetica,sans-Serif" font-size="10.00">duvc&#45;ctl/detail/com</text>
<text xml:space="preserve" text-anchor="middle" x="575.5" y="-62.5" font-family="Helvetica,sans-Serif" font-size="10.00">_helpers.h</text>
</a>
</g>
</g>
<!-- Node13&#45;&gt;Node15 -->
<g id="edge17_Node000013_Node000015" class="edge">
<title>Node13&#45;&gt;Node15</title>
<g id="a_edge17_Node000013_Node000015"><a xlink:title=" ">
<path fill="none" stroke="#63b8ff" d="M459.14,-123.53C480.12,-114.41 506.89,-102.79 529.46,-92.99"/>
<polygon fill="#63b8ff" stroke="#63b8ff" points="530.66,-96.29 538.43,-89.09 527.87,-89.87 530.66,-96.29"/>
</a>
</g>
</g>
</g>
</svg>
