<?xml version="1.0" encoding="UTF-8" standalone="no"?>
<!DOCTYPE svg PUBLIC "-//W3C//DTD SVG 1.1//EN"
 "http://www.w3.org/Graphics/SVG/1.1/DTD/svg11.dtd">
<!-- Generated by graphviz version 14.0.2 (20251019.1705)
 -->
<!-- Title: duvc::get Pages: 1 -->
<svg width="201pt" height="66pt"
 viewBox="0.00 0.00 201.00 66.00" xmlns="http://www.w3.org/2000/svg" xmlns:xlink="http://www.w3.org/1999/xlink">
<g id="graph0" class="graph" transform="scale(1 1) rotate(0) translate(4 62)">
<title>duvc::get</title>
<!-- Node1 -->
<g id="Node000001" class="node">
<title>Node1</title>
<g id="a_Node000001"><a xlink:title="Get a camera control property value.">
<polygon fill="#999999" stroke="#666666" points="56.5,-39 0,-39 0,-19 56.5,-19 56.5,-39"/>
<text xml:space="preserve" text-anchor="middle" x="28.25" y="-25.5" font-family="Helvetica,sans-Serif" font-size="10.00">duvc::get</text>
</a>
</g>
</g>
<!-- Node2 -->
<g id="Node000002" class="node">
<title>Node2</title>
<g id="a_Node000002"><a xlink:href="classduvc_1_1Result.html#a6a3af8795b3d3090f17993728dbe701f" target="_top" xlink:title="Check if result contains a value (success)">
<polygon fill="white" stroke="#666666" points="193.25,-58 92.5,-58 92.5,-38 193.25,-38 193.25,-58"/>
<text xml:space="preserve" text-anchor="middle" x="142.88" y="-44.5" font-family="Helvetica,sans-Serif" font-size="10.00">duvc::Result::is_ok</text>
</a>
</g>
</g>
<!-- Node1&#45;&gt;Node2 -->
<g id="edge1_Node000001_Node000002" class="edge">
<title>Node1&#45;&gt;Node2</title>
<g id="a_edge1_Node000001_Node000002"><a xlink:title=" ">
<path fill="none" stroke="#63b8ff" d="M56.8,-33.65C64.23,-34.9 72.57,-36.31 81.04,-37.74"/>
<polygon fill="#63b8ff" stroke="#63b8ff" points="80.26,-41.16 90.7,-39.37 81.43,-34.25 80.26,-41.16"/>
</a>
</g>
</g>
<!-- Node3 -->
<g id="Node000003" class="node">
<title>Node3</title>
<g id="a_Node000003"><a xlink:href="classduvc_1_1Result.html#a260a000aca87d38c8f9f22ad80804691" target="_top" xlink:title="Get the value (assumes success)">
<polygon fill="white" stroke="#666666" points="193.25,-20 92.5,-20 92.5,0 193.25,0 193.25,-20"/>
<text xml:space="preserve" text-anchor="middle" x="142.88" y="-6.5" font-family="Helvetica,sans-Serif" font-size="10.00">duvc::Result::value</text>
</a>
</g>
</g>
<!-- Node1&#45;&gt;Node3 -->
<g id="edge2_Node000001_Node000003" class="edge">
<title>Node1&#45;&gt;Node3</title>
<g id="a_edge2_Node000001_Node000003"><a xlink:title=" ">
<path fill="none" stroke="#63b8ff" d="M56.8,-24.35C64.23,-23.1 72.57,-21.69 81.04,-20.26"/>
<polygon fill="#63b8ff" stroke="#63b8ff" points="81.43,-23.75 90.7,-18.63 80.26,-16.84 81.43,-23.75"/>
</a>
</g>
</g>
</g>
</svg>
