<?xml version="1.0" encoding="UTF-8" standalone="no"?>
<!DOCTYPE svg PUBLIC "-//W3C//DTD SVG 1.1//EN"
 "http://www.w3.org/Graphics/SVG/1.1/DTD/svg11.dtd">
<!-- Generated by graphviz version 14.0.2 (20251019.1705)
 -->
<!-- Title: duvc::set Pages: 1 -->
<svg width="180pt" height="66pt"
 viewBox="0.00 0.00 180.00 66.00" xmlns="http://www.w3.org/2000/svg" xmlns:xlink="http://www.w3.org/1999/xlink">
<g id="graph0" class="graph" transform="scale(1 1) rotate(0) translate(4 62)">
<title>duvc::set</title>
<!-- Node1 -->
<g id="Node000001" class="node">
<title>Node1</title>
<g id="a_Node000001"><a xlink:title="Set a camera control property value.">
<polygon fill="#999999" stroke="#666666" points="172.25,-39 115.75,-39 115.75,-19 172.25,-19 172.25,-39"/>
<text xml:space="preserve" text-anchor="middle" x="144" y="-25.5" font-family="Helvetica,sans-Serif" font-size="10.00">duvc::set</text>
</a>
</g>
</g>
<!-- Node2 -->
<g id="Node000002" class="node">
<title>Node2</title>
<g id="a_Node000002"><a xlink:href="bindings_8cpp.html#a58f06af7a7bba166129e38505c2afd4d" target="_top" xlink:title=" ">
<polygon fill="white" stroke="#666666" points="79.75,-58 0,-58 0,-38 79.75,-38 79.75,-58"/>
<text xml:space="preserve" text-anchor="middle" x="39.88" y="-44.5" font-family="Helvetica,sans-Serif" font-size="10.00">duvc_cam_set</text>
</a>
</g>
</g>
<!-- Node1&#45;&gt;Node2 -->
<g id="edge1_Node000001_Node000002" class="edge">
<title>Node1&#45;&gt;Node2</title>
<g id="a_edge1_Node000001_Node000002"><a xlink:title=" ">
<path fill="none" stroke="#63b8ff" d="M104.18,-36.22C96.27,-37.69 87.95,-39.24 80.04,-40.71"/>
<polygon fill="#63b8ff" stroke="#63b8ff" points="104.68,-39.69 113.88,-34.42 103.4,-32.81 104.68,-39.69"/>
</a>
</g>
</g>
<!-- Node3 -->
<g id="Node000003" class="node">
<title>Node3</title>
<g id="a_Node000003"><a xlink:href="bindings_8cpp.html#a2e76b2547f3ee2427b1cf27ad9b358d6" target="_top" xlink:title=" ">
<polygon fill="white" stroke="#666666" points="76.75,-20 3,-20 3,0 76.75,0 76.75,-20"/>
<text xml:space="preserve" text-anchor="middle" x="39.88" y="-6.5" font-family="Helvetica,sans-Serif" font-size="10.00">duvc_vid_set</text>
</a>
</g>
</g>
<!-- Node1&#45;&gt;Node3 -->
<g id="edge2_Node000001_Node000003" class="edge">
<title>Node1&#45;&gt;Node3</title>
<g id="a_edge2_Node000001_Node000003"><a xlink:title=" ">
<path fill="none" stroke="#63b8ff" d="M104.07,-21.76C95.17,-20.1 85.76,-18.35 76.98,-16.72"/>
<polygon fill="#63b8ff" stroke="#63b8ff" points="103.4,-25.19 113.88,-23.58 104.68,-18.31 103.4,-25.19"/>
</a>
</g>
</g>
</g>
</svg>
