<?xml version="1.0" encoding="UTF-8" standalone="no"?>
<!DOCTYPE svg PUBLIC "-//W3C//DTD SVG 1.1//EN"
 "http://www.w3.org/Graphics/SVG/1.1/DTD/svg11.dtd">
<!-- Generated by graphviz version 14.0.2 (20251019.1705)
 -->
<!-- Title: platform/windows/ks_properties.cpp Pages: 1 -->
<svg width="696pt" height="232pt"
 viewBox="0.00 0.00 696.00 232.00" xmlns="http://www.w3.org/2000/svg" xmlns:xlink="http://www.w3.org/1999/xlink">
<g id="graph0" class="graph" transform="scale(1 1) rotate(0) translate(4 228)">
<title>platform/windows/ks_properties.cpp</title>
<!-- Node1 -->
<g id="Node000001" class="node">
<title>Node1</title>
<g id="a_Node000001"><a xlink:title="IKsPropertySet implementation for vendor properties.">
<polygon fill="#999999" stroke="#666666" points="491,-224 385,-224 385,-192 491,-192 491,-224"/>
<text xml:space="preserve" text-anchor="start" x="393" y="-210.5" font-family="Helvetica,sans-Serif" font-size="10.00">platform/windows/ks</text>
<text xml:space="preserve" text-anchor="middle" x="438" y="-198.5" font-family="Helvetica,sans-Serif" font-size="10.00">_properties.cpp</text>
</a>
</g>
</g>
<!-- Node2 -->
<g id="Node000002" class="node">
<title>Node2</title>
<g id="a_Node000002"><a xlink:title=" ">
<polygon fill="#e0e0e0" stroke="#999999" points="132,-150 80,-150 80,-130 132,-130 132,-150"/>
<text xml:space="preserve" text-anchor="middle" x="106" y="-136.5" font-family="Helvetica,sans-Serif" font-size="10.00">dshow.h</text>
</a>
</g>
</g>
<!-- Node1&#45;&gt;Node2 -->
<g id="edge1_Node000001_Node000002" class="edge">
<title>Node1&#45;&gt;Node2</title>
<g id="a_edge1_Node000001_Node000002"><a xlink:title=" ">
<path fill="none" stroke="#63b8ff" d="M384.57,-201.65C324.44,-194.76 224.28,-180.62 141,-156 139.42,-155.53 137.81,-155.01 136.19,-154.45"/>
<polygon fill="#63b8ff" stroke="#63b8ff" points="137.69,-151.28 127.1,-150.94 135.17,-157.81 137.69,-151.28"/>
</a>
</g>
</g>
<!-- Node3 -->
<g id="Node000003" class="node">
<title>Node3</title>
<g id="a_Node000003"><a xlink:href="device_8h.html" target="_top" xlink:title="Device enumeration and management functions.">
<polygon fill="white" stroke="#666666" points="262,-150 150,-150 150,-130 262,-130 262,-150"/>
<text xml:space="preserve" text-anchor="middle" x="206" y="-136.5" font-family="Helvetica,sans-Serif" font-size="10.00">duvc&#45;ctl/core/device.h</text>
</a>
</g>
</g>
<!-- Node1&#45;&gt;Node3 -->
<g id="edge2_Node000001_Node000003" class="edge">
<title>Node1&#45;&gt;Node3</title>
<g id="a_edge2_Node000001_Node000003"><a xlink:title=" ">
<path fill="none" stroke="#63b8ff" d="M384.77,-191.86C343.99,-180.25 288.38,-164.43 250.07,-153.54"/>
<polygon fill="#63b8ff" stroke="#63b8ff" points="251.29,-150.24 240.71,-150.88 249.37,-156.98 251.29,-150.24"/>
</a>
</g>
</g>
<!-- Node8 -->
<g id="Node000008" class="node">
<title>Node8</title>
<g id="a_Node000008"><a xlink:title=" ">
<polygon fill="#e0e0e0" stroke="#999999" points="487.25,-88 388.75,-88 388.75,-56 487.25,-56 487.25,-88"/>
<text xml:space="preserve" text-anchor="start" x="396.75" y="-74.5" font-family="Helvetica,sans-Serif" font-size="10.00">duvc&#45;ctl/detail/com</text>
<text xml:space="preserve" text-anchor="middle" x="438" y="-62.5" font-family="Helvetica,sans-Serif" font-size="10.00">_helpers.h</text>
</a>
</g>
</g>
<!-- Node1&#45;&gt;Node8 -->
<g id="edge7_Node000001_Node000008" class="edge">
<title>Node1&#45;&gt;Node8</title>
<g id="a_edge7_Node000001_Node000008"><a xlink:title=" ">
<path fill="none" stroke="#63b8ff" d="M438,-191.63C438,-169.21 438,-127.24 438,-99.7"/>
<polygon fill="#63b8ff" stroke="#63b8ff" points="441.5,-99.71 438,-89.71 434.5,-99.71 441.5,-99.71"/>
</a>
</g>
</g>
<!-- Node9 -->
<g id="Node000009" class="node">
<title>Node9</title>
<g id="a_Node000009"><a xlink:href="ks__properties_8h.html" target="_top" xlink:title="IKsPropertySet wrapper for vendor properties.">
<polygon fill="white" stroke="#666666" points="410,-156 280,-156 280,-124 410,-124 410,-156"/>
<text xml:space="preserve" text-anchor="start" x="288" y="-142.5" font-family="Helvetica,sans-Serif" font-size="10.00">duvc&#45;ctl/platform/windows</text>
<text xml:space="preserve" text-anchor="middle" x="345" y="-130.5" font-family="Helvetica,sans-Serif" font-size="10.00">/ks_properties.h</text>
</a>
</g>
</g>
<!-- Node1&#45;&gt;Node9 -->
<g id="edge8_Node000001_Node000009" class="edge">
<title>Node1&#45;&gt;Node9</title>
<g id="a_edge8_Node000001_Node000009"><a xlink:title=" ">
<path fill="none" stroke="#63b8ff" d="M416.43,-191.69C404.43,-183.17 389.28,-172.42 376.02,-163.01"/>
<polygon fill="#63b8ff" stroke="#63b8ff" points="378.19,-160.26 368.01,-157.33 374.14,-165.97 378.19,-160.26"/>
</a>
</g>
</g>
<!-- Node16 -->
<g id="Node000016" class="node">
<title>Node16</title>
<g id="a_Node000016"><a xlink:href="error__decoder_8h.html" target="_top" xlink:title="HRESULT decoder and diagnostics utilities.">
<polygon fill="white" stroke="#666666" points="560,-156 466,-156 466,-124 560,-124 560,-156"/>
<text xml:space="preserve" text-anchor="start" x="474" y="-142.5" font-family="Helvetica,sans-Serif" font-size="10.00">duvc&#45;ctl/utils/error</text>
<text xml:space="preserve" text-anchor="middle" x="513" y="-130.5" font-family="Helvetica,sans-Serif" font-size="10.00">_decoder.h</text>
</a>
</g>
</g>
<!-- Node1&#45;&gt;Node16 -->
<g id="edge19_Node000001_Node000016" class="edge">
<title>Node1&#45;&gt;Node16</title>
<g id="a_edge19_Node000001_Node000016"><a xlink:title=" ">
<path fill="none" stroke="#63b8ff" d="M455.4,-191.69C464.79,-183.42 476.58,-173.05 487.05,-163.84"/>
<polygon fill="#63b8ff" stroke="#63b8ff" points="489.11,-166.69 494.3,-157.45 484.48,-161.43 489.11,-166.69"/>
</a>
</g>
</g>
<!-- Node17 -->
<g id="Node000017" class="node">
<title>Node17</title>
<g id="a_Node000017"><a xlink:title=" ">
<polygon fill="#e0e0e0" stroke="#999999" points="612.38,-150 577.62,-150 577.62,-130 612.38,-130 612.38,-150"/>
<text xml:space="preserve" text-anchor="middle" x="595" y="-136.5" font-family="Helvetica,sans-Serif" font-size="10.00">ks.h</text>
</a>
</g>
</g>
<!-- Node1&#45;&gt;Node17 -->
<g id="edge22_Node000001_Node000017" class="edge">
<title>Node1&#45;&gt;Node17</title>
<g id="a_edge22_Node000001_Node000017"><a xlink:title=" ">
<path fill="none" stroke="#63b8ff" d="M482.68,-191.52C508.34,-182.16 540.94,-169.46 569,-156 569.22,-155.9 569.44,-155.79 569.65,-155.68"/>
<polygon fill="#63b8ff" stroke="#63b8ff" points="571.01,-158.93 578.2,-151.15 567.72,-152.75 571.01,-158.93"/>
</a>
</g>
</g>
<!-- Node18 -->
<g id="Node000018" class="node">
<title>Node18</title>
<g id="a_Node000018"><a xlink:title=" ">
<polygon fill="#e0e0e0" stroke="#999999" points="688,-150 630,-150 630,-130 688,-130 688,-150"/>
<text xml:space="preserve" text-anchor="middle" x="659" y="-136.5" font-family="Helvetica,sans-Serif" font-size="10.00">ksproxy.h</text>
</a>
</g>
</g>
<!-- Node1&#45;&gt;Node18 -->
<g id="edge23_Node000001_Node000018" class="edge">
<title>Node1&#45;&gt;Node18</title>
<g id="a_edge23_Node000001_Node000018"><a xlink:title=" ">
<path fill="none" stroke="#63b8ff" d="M491.3,-193.71C528.05,-184.17 577.85,-170.48 621,-156 622.55,-155.48 624.14,-154.93 625.73,-154.36"/>
<polygon fill="#63b8ff" stroke="#63b8ff" points="626.68,-157.74 634.82,-150.96 624.22,-151.19 626.68,-157.74"/>
</a>
</g>
</g>
<!-- Node4 -->
<g id="Node000004" class="node">
<title>Node4</title>
<g id="a_Node000004"><a xlink:href="types_8h.html" target="_top" xlink:title="Core data types and enumerations for duvc&#45;ctl.">
<polygon fill="white" stroke="#666666" points="370.75,-82 263.25,-82 263.25,-62 370.75,-62 370.75,-82"/>
<text xml:space="preserve" text-anchor="middle" x="317" y="-68.5" font-family="Helvetica,sans-Serif" font-size="10.00">duvc&#45;ctl/core/types.h</text>
</a>
</g>
</g>
<!-- Node3&#45;&gt;Node4 -->
<g id="edge3_Node000003_Node000004" class="edge">
<title>Node3&#45;&gt;Node4</title>
<g id="a_edge3_Node000003_Node000004"><a xlink:title=" ">
<path fill="none" stroke="#63b8ff" d="M221.9,-129.54C240.04,-118.76 269.94,-100.98 291.37,-88.24"/>
<polygon fill="#63b8ff" stroke="#63b8ff" points="293.02,-91.33 299.82,-83.21 289.44,-85.31 293.02,-91.33"/>
</a>
</g>
</g>
<!-- Node6 -->
<g id="Node000006" class="node">
<title>Node6</title>
<g id="a_Node000006"><a xlink:title=" ">
<polygon fill="#e0e0e0" stroke="#999999" points="58,-82 0,-82 0,-62 58,-62 58,-82"/>
<text xml:space="preserve" text-anchor="middle" x="29" y="-68.5" font-family="Helvetica,sans-Serif" font-size="10.00">functional</text>
</a>
</g>
</g>
<!-- Node3&#45;&gt;Node6 -->
<g id="edge5_Node000003_Node000006" class="edge">
<title>Node3&#45;&gt;Node6</title>
<g id="a_edge5_Node000003_Node000006"><a xlink:title=" ">
<path fill="none" stroke="#63b8ff" d="M180.02,-129.51C152.25,-119.35 106.96,-102.69 68,-88 66.66,-87.5 65.3,-86.98 63.93,-86.46"/>
<polygon fill="#63b8ff" stroke="#63b8ff" points="65.33,-83.25 54.74,-82.95 62.83,-89.79 65.33,-83.25"/>
</a>
</g>
</g>
<!-- Node7 -->
<g id="Node000007" class="node">
<title>Node7</title>
<g id="a_Node000007"><a xlink:title=" ">
<polygon fill="#e0e0e0" stroke="#999999" points="119.5,-82 76.5,-82 76.5,-62 119.5,-62 119.5,-82"/>
<text xml:space="preserve" text-anchor="middle" x="98" y="-68.5" font-family="Helvetica,sans-Serif" font-size="10.00">vector</text>
</a>
</g>
</g>
<!-- Node3&#45;&gt;Node7 -->
<g id="edge6_Node000003_Node000007" class="edge">
<title>Node3&#45;&gt;Node7</title>
<g id="a_edge6_Node000003_Node000007"><a xlink:title=" ">
<path fill="none" stroke="#63b8ff" d="M190.53,-129.54C172.96,-118.81 144.05,-101.14 123.22,-88.41"/>
<polygon fill="#63b8ff" stroke="#63b8ff" points="125.09,-85.46 114.74,-83.23 121.44,-91.43 125.09,-85.46"/>
</a>
</g>
</g>
<!-- Node5 -->
<g id="Node000005" class="node">
<title>Node5</title>
<g id="a_Node000005"><a xlink:title=" ">
<polygon fill="#e0e0e0" stroke="#999999" points="349,-20 309,-20 309,0 349,0 349,-20"/>
<text xml:space="preserve" text-anchor="middle" x="329" y="-6.5" font-family="Helvetica,sans-Serif" font-size="10.00">string</text>
</a>
</g>
</g>
<!-- Node4&#45;&gt;Node5 -->
<g id="edge4_Node000004_Node000005" class="edge">
<title>Node4&#45;&gt;Node5</title>
<g id="a_edge4_Node000004_Node000005"><a xlink:title=" ">
<path fill="none" stroke="#63b8ff" d="M318.88,-61.62C320.5,-53.48 322.92,-41.39 324.99,-31.07"/>
<polygon fill="#63b8ff" stroke="#63b8ff" points="328.35,-32.09 326.88,-21.6 321.49,-30.72 328.35,-32.09"/>
</a>
</g>
</g>
<!-- Node9&#45;&gt;Node4 -->
<g id="edge15_Node000009_Node000004" class="edge">
<title>Node9&#45;&gt;Node4</title>
<g id="a_edge15_Node000009_Node000004"><a xlink:title=" ">
<path fill="none" stroke="#63b8ff" d="M338.51,-123.69C334.6,-114.5 329.6,-102.7 325.4,-92.8"/>
<polygon fill="#63b8ff" stroke="#63b8ff" points="328.67,-91.55 321.54,-83.71 322.23,-94.28 328.67,-91.55"/>
</a>
</g>
</g>
<!-- Node9&#45;&gt;Node7 -->
<g id="edge17_Node000009_Node000007" class="edge">
<title>Node9&#45;&gt;Node7</title>
<g id="a_edge17_Node000009_Node000007"><a xlink:title=" ">
<path fill="none" stroke="#63b8ff" d="M279.56,-125.37C226.27,-113.95 155.52,-97.96 128,-88 127.2,-87.71 126.39,-87.4 125.58,-87.09"/>
<polygon fill="#63b8ff" stroke="#63b8ff" points="127.09,-83.93 116.53,-83.05 124.24,-90.32 127.09,-83.93"/>
</a>
</g>
</g>
<!-- Node9&#45;&gt;Node8 -->
<g id="edge16_Node000009_Node000008" class="edge">
<title>Node9&#45;&gt;Node8</title>
<g id="a_edge16_Node000009_Node000008"><a xlink:title=" ">
<path fill="none" stroke="#63b8ff" d="M366.57,-123.69C378.57,-115.17 393.72,-104.42 406.98,-95.01"/>
<polygon fill="#63b8ff" stroke="#63b8ff" points="408.86,-97.97 414.99,-89.33 404.81,-92.26 408.86,-97.97"/>
</a>
</g>
</g>
<!-- Node10 -->
<g id="Node000010" class="node">
<title>Node10</title>
<g id="a_Node000010"><a xlink:href="result_8h.html" target="_top" xlink:title="Result/Error type system for duvc&#45;ctl.">
<polygon fill="white" stroke="#666666" points="244.75,-82 137.25,-82 137.25,-62 244.75,-62 244.75,-82"/>
<text xml:space="preserve" text-anchor="middle" x="191" y="-68.5" font-family="Helvetica,sans-Serif" font-size="10.00">duvc&#45;ctl/core/result.h</text>
</a>
</g>
</g>
<!-- Node9&#45;&gt;Node10 -->
<g id="edge9_Node000009_Node000010" class="edge">
<title>Node9&#45;&gt;Node10</title>
<g id="a_edge9_Node000009_Node000010"><a xlink:title=" ">
<path fill="none" stroke="#63b8ff" d="M308.89,-123.53C283.03,-112.44 248.49,-97.64 223.49,-86.92"/>
<polygon fill="#63b8ff" stroke="#63b8ff" points="225.03,-83.78 214.46,-83.06 222.28,-90.21 225.03,-83.78"/>
</a>
</g>
</g>
<!-- Node15 -->
<g id="Node000015" class="node">
<title>Node15</title>
<g id="a_Node000015"><a xlink:title=" ">
<polygon fill="#e0e0e0" stroke="#999999" points="568.25,-82 505.75,-82 505.75,-62 568.25,-62 568.25,-82"/>
<text xml:space="preserve" text-anchor="middle" x="537" y="-68.5" font-family="Helvetica,sans-Serif" font-size="10.00">windows.h</text>
</a>
</g>
</g>
<!-- Node9&#45;&gt;Node15 -->
<g id="edge18_Node000009_Node000015" class="edge">
<title>Node9&#45;&gt;Node15</title>
<g id="a_edge18_Node000009_Node000015"><a xlink:title=" ">
<path fill="none" stroke="#63b8ff" d="M391.7,-123.56C421.59,-113.6 461.15,-100.26 496,-88 497.56,-87.45 499.16,-86.88 500.77,-86.31"/>
<polygon fill="#63b8ff" stroke="#63b8ff" points="501.8,-89.66 510.02,-82.97 499.43,-83.07 501.8,-89.66"/>
</a>
</g>
</g>
<!-- Node10&#45;&gt;Node5 -->
<g id="edge12_Node000010_Node000005" class="edge">
<title>Node10&#45;&gt;Node5</title>
<g id="a_edge12_Node000010_Node000005"><a xlink:title=" ">
<path fill="none" stroke="#63b8ff" d="M212.56,-61.62C235.65,-51.59 272.46,-35.58 298.5,-24.26"/>
<polygon fill="#63b8ff" stroke="#63b8ff" points="299.77,-27.53 307.55,-20.33 296.98,-21.11 299.77,-27.53"/>
</a>
</g>
</g>
<!-- Node11 -->
<g id="Node000011" class="node">
<title>Node11</title>
<g id="a_Node000011"><a xlink:title=" ">
<polygon fill="#e0e0e0" stroke="#999999" points="68.75,-20 15.25,-20 15.25,0 68.75,0 68.75,-20"/>
<text xml:space="preserve" text-anchor="middle" x="42" y="-6.5" font-family="Helvetica,sans-Serif" font-size="10.00">iostream</text>
</a>
</g>
</g>
<!-- Node10&#45;&gt;Node11 -->
<g id="edge10_Node000010_Node000011" class="edge">
<title>Node10&#45;&gt;Node11</title>
<g id="a_edge10_Node000010_Node000011"><a xlink:title=" ">
<path fill="none" stroke="#63b8ff" d="M167.72,-61.62C143.01,-51.67 103.72,-35.85 75.65,-24.55"/>
<polygon fill="#63b8ff" stroke="#63b8ff" points="77.11,-21.36 66.52,-20.87 74.49,-27.86 77.11,-21.36"/>
</a>
</g>
</g>
<!-- Node12 -->
<g id="Node000012" class="node">
<title>Node12</title>
<g id="a_Node000012"><a xlink:title=" ">
<polygon fill="#e0e0e0" stroke="#999999" points="136.88,-20 87.12,-20 87.12,0 136.88,0 136.88,-20"/>
<text xml:space="preserve" text-anchor="middle" x="112" y="-6.5" font-family="Helvetica,sans-Serif" font-size="10.00">optional</text>
</a>
</g>
</g>
<!-- Node10&#45;&gt;Node12 -->
<g id="edge11_Node000010_Node000012" class="edge">
<title>Node10&#45;&gt;Node12</title>
<g id="a_edge11_Node000010_Node000012"><a xlink:title=" ">
<path fill="none" stroke="#63b8ff" d="M178.66,-61.62C166.48,-52.38 147.64,-38.07 133.09,-27.01"/>
<polygon fill="#63b8ff" stroke="#63b8ff" points="135.54,-24.49 125.46,-21.22 131.31,-30.06 135.54,-24.49"/>
</a>
</g>
</g>
<!-- Node13 -->
<g id="Node000013" class="node">
<title>Node13</title>
<g id="a_Node000013"><a xlink:title=" ">
<polygon fill="#e0e0e0" stroke="#999999" points="227.5,-20 154.5,-20 154.5,0 227.5,0 227.5,-20"/>
<text xml:space="preserve" text-anchor="middle" x="191" y="-6.5" font-family="Helvetica,sans-Serif" font-size="10.00">system_error</text>
</a>
</g>
</g>
<!-- Node10&#45;&gt;Node13 -->
<g id="edge13_Node000010_Node000013" class="edge">
<title>Node10&#45;&gt;Node13</title>
<g id="a_edge13_Node000010_Node000013"><a xlink:title=" ">
<path fill="none" stroke="#63b8ff" d="M191,-61.62C191,-53.56 191,-41.65 191,-31.41"/>
<polygon fill="#63b8ff" stroke="#63b8ff" points="194.5,-31.63 191,-21.63 187.5,-31.63 194.5,-31.63"/>
</a>
</g>
</g>
<!-- Node14 -->
<g id="Node000014" class="node">
<title>Node14</title>
<g id="a_Node000014"><a xlink:title=" ">
<polygon fill="#e0e0e0" stroke="#999999" points="290.62,-20 245.38,-20 245.38,0 290.62,0 290.62,-20"/>
<text xml:space="preserve" text-anchor="middle" x="268" y="-6.5" font-family="Helvetica,sans-Serif" font-size="10.00">variant</text>
</a>
</g>
</g>
<!-- Node10&#45;&gt;Node14 -->
<g id="edge14_Node000010_Node000014" class="edge">
<title>Node10&#45;&gt;Node14</title>
<g id="a_edge14_Node000010_Node000014"><a xlink:title=" ">
<path fill="none" stroke="#63b8ff" d="M203.03,-61.62C214.78,-52.47 232.92,-38.34 247.04,-27.33"/>
<polygon fill="#63b8ff" stroke="#63b8ff" points="249.12,-30.15 254.86,-21.24 244.82,-24.63 249.12,-30.15"/>
</a>
</g>
</g>
<!-- Node16&#45;&gt;Node5 -->
<g id="edge20_Node000016_Node000005" class="edge">
<title>Node16&#45;&gt;Node5</title>
<g id="a_edge20_Node000016_Node000005"><a xlink:title=" ">
<path fill="none" stroke="#63b8ff" d="M538.81,-123.73C564.09,-106.87 596.24,-79.05 577,-56 549.78,-23.4 421.24,-14.36 360.69,-11.9"/>
<polygon fill="#63b8ff" stroke="#63b8ff" points="360.83,-8.4 350.71,-11.54 360.58,-15.4 360.83,-8.4"/>
</a>
</g>
</g>
<!-- Node16&#45;&gt;Node15 -->
<g id="edge21_Node000016_Node000015" class="edge">
<title>Node16&#45;&gt;Node15</title>
<g id="a_edge21_Node000016_Node000015"><a xlink:title=" ">
<path fill="none" stroke="#63b8ff" d="M518.57,-123.69C521.87,-114.6 526.11,-102.95 529.68,-93.12"/>
<polygon fill="#63b8ff" stroke="#63b8ff" points="532.97,-94.33 533.1,-83.74 526.39,-91.94 532.97,-94.33"/>
</a>
</g>
</g>
</g>
</svg>
