<?xml version="1.0" encoding="UTF-8" standalone="no"?>
<!DOCTYPE svg PUBLIC "-//W3C//DTD SVG 1.1//EN"
 "http://www.w3.org/Graphics/SVG/1.1/DTD/svg11.dtd">
<!-- Generated by graphviz version 14.0.2 (20251019.1705)
 -->
<!-- Title: platform/windows/ks_properties.h Pages: 1 -->
<svg width="631pt" height="164pt"
 viewBox="0.00 0.00 631.00 164.00" xmlns="http://www.w3.org/2000/svg" xmlns:xlink="http://www.w3.org/1999/xlink">
<g id="graph0" class="graph" transform="scale(1 1) rotate(0) translate(4 160)">
<title>platform/windows/ks_properties.h</title>
<!-- Node1 -->
<g id="Node000001" class="node">
<title>Node1</title>
<g id="a_Node000001"><a xlink:title="IKsPropertySet wrapper for vendor properties.">
<polygon fill="#999999" stroke="#666666" points="484.75,-156 378.75,-156 378.75,-124 484.75,-124 484.75,-156"/>
<text xml:space="preserve" text-anchor="start" x="386.75" y="-142.5" font-family="Helvetica,sans-Serif" font-size="10.00">platform/windows/ks</text>
<text xml:space="preserve" text-anchor="middle" x="431.75" y="-130.5" font-family="Helvetica,sans-Serif" font-size="10.00">_properties.h</text>
</a>
</g>
</g>
<!-- Node2 -->
<g id="Node000002" class="node">
<title>Node2</title>
<g id="a_Node000002"><a xlink:href="result_8h.html" target="_top" xlink:title="Result/Error type system for duvc&#45;ctl.">
<polygon fill="white" stroke="#666666" points="235.5,-82 128,-82 128,-62 235.5,-62 235.5,-82"/>
<text xml:space="preserve" text-anchor="middle" x="181.75" y="-68.5" font-family="Helvetica,sans-Serif" font-size="10.00">duvc&#45;ctl/core/result.h</text>
</a>
</g>
</g>
<!-- Node1&#45;&gt;Node2 -->
<g id="edge1_Node000001_Node000002" class="edge">
<title>Node1&#45;&gt;Node2</title>
<g id="a_edge1_Node000001_Node000002"><a xlink:title=" ">
<path fill="none" stroke="#63b8ff" d="M378.43,-124.92C333.93,-113.18 271.14,-96.6 228.56,-85.36"/>
<polygon fill="#63b8ff" stroke="#63b8ff" points="229.69,-82.04 219.12,-82.87 227.9,-88.8 229.69,-82.04"/>
</a>
</g>
</g>
<!-- Node8 -->
<g id="Node000008" class="node">
<title>Node8</title>
<g id="a_Node000008"><a xlink:href="types_8h.html" target="_top" xlink:title="Core data types and enumerations for duvc&#45;ctl.">
<polygon fill="white" stroke="#666666" points="364.5,-82 257,-82 257,-62 364.5,-62 364.5,-82"/>
<text xml:space="preserve" text-anchor="middle" x="310.75" y="-68.5" font-family="Helvetica,sans-Serif" font-size="10.00">duvc&#45;ctl/core/types.h</text>
</a>
</g>
</g>
<!-- Node1&#45;&gt;Node8 -->
<g id="edge7_Node000001_Node000008" class="edge">
<title>Node1&#45;&gt;Node8</title>
<g id="a_edge7_Node000001_Node000008"><a xlink:title=" ">
<path fill="none" stroke="#63b8ff" d="M403.38,-123.53C383.7,-112.79 357.62,-98.56 338.15,-87.94"/>
<polygon fill="#63b8ff" stroke="#63b8ff" points="339.88,-84.9 329.42,-83.18 336.53,-91.05 339.88,-84.9"/>
</a>
</g>
</g>
<!-- Node9 -->
<g id="Node000009" class="node">
<title>Node9</title>
<g id="a_Node000009"><a xlink:title=" ">
<polygon fill="#e0e0e0" stroke="#999999" points="481,-88 382.5,-88 382.5,-56 481,-56 481,-88"/>
<text xml:space="preserve" text-anchor="start" x="390.5" y="-74.5" font-family="Helvetica,sans-Serif" font-size="10.00">duvc&#45;ctl/detail/com</text>
<text xml:space="preserve" text-anchor="middle" x="431.75" y="-62.5" font-family="Helvetica,sans-Serif" font-size="10.00">_helpers.h</text>
</a>
</g>
</g>
<!-- Node1&#45;&gt;Node9 -->
<g id="edge9_Node000001_Node000009" class="edge">
<title>Node1&#45;&gt;Node9</title>
<g id="a_edge9_Node000001_Node000009"><a xlink:title=" ">
<path fill="none" stroke="#63b8ff" d="M431.75,-123.69C431.75,-116.53 431.75,-107.79 431.75,-99.59"/>
<polygon fill="#63b8ff" stroke="#63b8ff" points="435.25,-99.74 431.75,-89.74 428.25,-99.74 435.25,-99.74"/>
</a>
</g>
</g>
<!-- Node10 -->
<g id="Node000010" class="node">
<title>Node10</title>
<g id="a_Node000010"><a xlink:title=" ">
<polygon fill="#e0e0e0" stroke="#999999" points="542.25,-82 499.25,-82 499.25,-62 542.25,-62 542.25,-82"/>
<text xml:space="preserve" text-anchor="middle" x="520.75" y="-68.5" font-family="Helvetica,sans-Serif" font-size="10.00">vector</text>
</a>
</g>
</g>
<!-- Node1&#45;&gt;Node10 -->
<g id="edge10_Node000001_Node000010" class="edge">
<title>Node1&#45;&gt;Node10</title>
<g id="a_edge10_Node000001_Node000010"><a xlink:title=" ">
<path fill="none" stroke="#63b8ff" d="M452.39,-123.69C466.41,-113.3 484.91,-99.57 499.13,-89.03"/>
<polygon fill="#63b8ff" stroke="#63b8ff" points="501.02,-91.99 506.97,-83.22 496.85,-86.36 501.02,-91.99"/>
</a>
</g>
</g>
<!-- Node11 -->
<g id="Node000011" class="node">
<title>Node11</title>
<g id="a_Node000011"><a xlink:title=" ">
<polygon fill="#e0e0e0" stroke="#999999" points="623,-82 560.5,-82 560.5,-62 623,-62 623,-82"/>
<text xml:space="preserve" text-anchor="middle" x="591.75" y="-68.5" font-family="Helvetica,sans-Serif" font-size="10.00">windows.h</text>
</a>
</g>
</g>
<!-- Node1&#45;&gt;Node11 -->
<g id="edge11_Node000001_Node000011" class="edge">
<title>Node1&#45;&gt;Node11</title>
<g id="a_edge11_Node000001_Node000011"><a xlink:title=" ">
<path fill="none" stroke="#63b8ff" d="M469.26,-123.53C496.26,-112.39 532.34,-97.51 558.35,-86.78"/>
<polygon fill="#63b8ff" stroke="#63b8ff" points="559.51,-90.09 567.42,-83.04 556.84,-83.62 559.51,-90.09"/>
</a>
</g>
</g>
<!-- Node3 -->
<g id="Node000003" class="node">
<title>Node3</title>
<g id="a_Node000003"><a xlink:title=" ">
<polygon fill="#e0e0e0" stroke="#999999" points="53.5,-20 0,-20 0,0 53.5,0 53.5,-20"/>
<text xml:space="preserve" text-anchor="middle" x="26.75" y="-6.5" font-family="Helvetica,sans-Serif" font-size="10.00">iostream</text>
</a>
</g>
</g>
<!-- Node2&#45;&gt;Node3 -->
<g id="edge2_Node000002_Node000003" class="edge">
<title>Node2&#45;&gt;Node3</title>
<g id="a_edge2_Node000002_Node000003"><a xlink:title=" ">
<path fill="none" stroke="#63b8ff" d="M157.53,-61.62C131.79,-51.66 90.84,-35.81 61.62,-24.5"/>
<polygon fill="#63b8ff" stroke="#63b8ff" points="63.05,-21.3 52.47,-20.95 60.53,-27.83 63.05,-21.3"/>
</a>
</g>
</g>
<!-- Node4 -->
<g id="Node000004" class="node">
<title>Node4</title>
<g id="a_Node000004"><a xlink:title=" ">
<polygon fill="#e0e0e0" stroke="#999999" points="121.62,-20 71.88,-20 71.88,0 121.62,0 121.62,-20"/>
<text xml:space="preserve" text-anchor="middle" x="96.75" y="-6.5" font-family="Helvetica,sans-Serif" font-size="10.00">optional</text>
</a>
</g>
</g>
<!-- Node2&#45;&gt;Node4 -->
<g id="edge3_Node000002_Node000004" class="edge">
<title>Node2&#45;&gt;Node4</title>
<g id="a_edge3_Node000002_Node000004"><a xlink:title=" ">
<path fill="none" stroke="#63b8ff" d="M168.47,-61.62C155.24,-52.29 134.71,-37.79 118.99,-26.7"/>
<polygon fill="#63b8ff" stroke="#63b8ff" points="121.36,-24.09 111.17,-21.18 117.33,-29.81 121.36,-24.09"/>
</a>
</g>
</g>
<!-- Node5 -->
<g id="Node000005" class="node">
<title>Node5</title>
<g id="a_Node000005"><a xlink:title=" ">
<polygon fill="#e0e0e0" stroke="#999999" points="333.75,-20 293.75,-20 293.75,0 333.75,0 333.75,-20"/>
<text xml:space="preserve" text-anchor="middle" x="313.75" y="-6.5" font-family="Helvetica,sans-Serif" font-size="10.00">string</text>
</a>
</g>
</g>
<!-- Node2&#45;&gt;Node5 -->
<g id="edge4_Node000002_Node000005" class="edge">
<title>Node2&#45;&gt;Node5</title>
<g id="a_edge4_Node000002_Node000005"><a xlink:title=" ">
<path fill="none" stroke="#63b8ff" d="M202.38,-61.62C223.98,-51.81 258.15,-36.27 282.95,-25"/>
<polygon fill="#63b8ff" stroke="#63b8ff" points="284.24,-28.26 291.89,-20.94 281.34,-21.89 284.24,-28.26"/>
</a>
</g>
</g>
<!-- Node6 -->
<g id="Node000006" class="node">
<title>Node6</title>
<g id="a_Node000006"><a xlink:title=" ">
<polygon fill="#e0e0e0" stroke="#999999" points="212.25,-20 139.25,-20 139.25,0 212.25,0 212.25,-20"/>
<text xml:space="preserve" text-anchor="middle" x="175.75" y="-6.5" font-family="Helvetica,sans-Serif" font-size="10.00">system_error</text>
</a>
</g>
</g>
<!-- Node2&#45;&gt;Node6 -->
<g id="edge5_Node000002_Node000006" class="edge">
<title>Node2&#45;&gt;Node6</title>
<g id="a_edge5_Node000002_Node000006"><a xlink:title=" ">
<path fill="none" stroke="#63b8ff" d="M180.81,-61.62C180.01,-53.56 178.82,-41.65 177.79,-31.41"/>
<polygon fill="#63b8ff" stroke="#63b8ff" points="181.29,-31.22 176.81,-21.62 174.32,-31.92 181.29,-31.22"/>
</a>
</g>
</g>
<!-- Node7 -->
<g id="Node000007" class="node">
<title>Node7</title>
<g id="a_Node000007"><a xlink:title=" ">
<polygon fill="#e0e0e0" stroke="#999999" points="275.38,-20 230.12,-20 230.12,0 275.38,0 275.38,-20"/>
<text xml:space="preserve" text-anchor="middle" x="252.75" y="-6.5" font-family="Helvetica,sans-Serif" font-size="10.00">variant</text>
</a>
</g>
</g>
<!-- Node2&#45;&gt;Node7 -->
<g id="edge6_Node000002_Node000007" class="edge">
<title>Node2&#45;&gt;Node7</title>
<g id="a_edge6_Node000002_Node000007"><a xlink:title=" ">
<path fill="none" stroke="#63b8ff" d="M192.84,-61.62C203.64,-52.5 220.27,-38.45 233.28,-27.46"/>
<polygon fill="#63b8ff" stroke="#63b8ff" points="235.43,-30.22 240.81,-21.09 230.91,-24.87 235.43,-30.22"/>
</a>
</g>
</g>
<!-- Node8&#45;&gt;Node5 -->
<g id="edge8_Node000008_Node000005" class="edge">
<title>Node8&#45;&gt;Node5</title>
<g id="a_edge8_Node000008_Node000005"><a xlink:title=" ">
<path fill="none" stroke="#63b8ff" d="M311.22,-61.62C311.62,-53.56 312.22,-41.65 312.73,-31.41"/>
<polygon fill="#63b8ff" stroke="#63b8ff" points="316.21,-31.79 313.22,-21.62 309.22,-31.44 316.21,-31.79"/>
</a>
</g>
</g>
</g>
</svg>
