<?xml version="1.0" encoding="UTF-8" standalone="no"?>
<!DOCTYPE svg PUBLIC "-//W3C//DTD SVG 1.1//EN"
 "http://www.w3.org/Graphics/SVG/1.1/DTD/svg11.dtd">
<!-- Generated by graphviz version 14.0.2 (20251019.1705)
 -->
<!-- Title: utils/logging.h Pages: 1 -->
<svg width="739pt" height="96pt"
 viewBox="0.00 0.00 739.00 96.00" xmlns="http://www.w3.org/2000/svg" xmlns:xlink="http://www.w3.org/1999/xlink">
<g id="graph0" class="graph" transform="scale(1 1) rotate(0) translate(4 92)">
<title>utils/logging.h</title>
<!-- Node1 -->
<g id="Node000001" class="node">
<title>Node1</title>
<g id="a_Node000001"><a xlink:title="Structured logging interface for duvc&#45;ctl.">
<polygon fill="#999999" stroke="#666666" points="375.88,-88 299.88,-88 299.88,-68 375.88,-68 375.88,-88"/>
<text xml:space="preserve" text-anchor="middle" x="337.88" y="-74.5" font-family="Helvetica,sans-Serif" font-size="10.00">utils/logging.h</text>
</a>
</g>
</g>
<!-- Node2 -->
<g id="Node000002" class="node">
<title>Node2</title>
<g id="a_Node000002"><a xlink:href="api_8cpp.html" target="_top" xlink:title="Complete C ABI implementation for duvc&#45;ctl library.">
<polygon fill="white" stroke="#666666" points="55.75,-26 0,-26 0,-6 55.75,-6 55.75,-26"/>
<text xml:space="preserve" text-anchor="middle" x="27.88" y="-12.5" font-family="Helvetica,sans-Serif" font-size="10.00">c/api.cpp</text>
</a>
</g>
</g>
<!-- Node1&#45;&gt;Node2 -->
<g id="edge1_Node000001_Node000002" class="edge">
<title>Node1&#45;&gt;Node2</title>
<g id="a_edge1_Node000001_Node000002"><a xlink:title=" ">
<path fill="none" stroke="#63b8ff" d="M288.55,-72.2C233.32,-66.06 141.5,-53.56 64.88,-32 59.54,-30.5 53.92,-28.47 48.72,-26.39"/>
<polygon fill="#63b8ff" stroke="#63b8ff" points="287.94,-75.66 298.26,-73.25 288.69,-68.7 287.94,-75.66"/>
</a>
</g>
</g>
<!-- Node3 -->
<g id="Node000003" class="node">
<title>Node3</title>
<g id="a_Node000003"><a xlink:href="error__handling_8cpp.html" target="_top" xlink:title="C ABI error handling and diagnostics implementation.">
<polygon fill="white" stroke="#666666" points="177.75,-26 74,-26 74,-6 177.75,-6 177.75,-26"/>
<text xml:space="preserve" text-anchor="middle" x="125.88" y="-12.5" font-family="Helvetica,sans-Serif" font-size="10.00">c/error_handling.cpp</text>
</a>
</g>
</g>
<!-- Node1&#45;&gt;Node3 -->
<g id="edge2_Node000001_Node000003" class="edge">
<title>Node1&#45;&gt;Node3</title>
<g id="a_edge2_Node000001_Node000003"><a xlink:title=" ">
<path fill="none" stroke="#63b8ff" d="M293.7,-64.5C253.61,-53.15 195.38,-36.67 159.12,-26.41"/>
<polygon fill="#63b8ff" stroke="#63b8ff" points="292.72,-67.86 303.29,-67.21 294.62,-61.12 292.72,-67.86"/>
</a>
</g>
</g>
<!-- Node4 -->
<g id="Node000004" class="node">
<title>Node4</title>
<g id="a_Node000004"><a xlink:href="capability_8cpp.html" target="_top" xlink:title="Device capability detection implementation using Camera API.">
<polygon fill="white" stroke="#666666" points="292.38,-26 195.38,-26 195.38,-6 292.38,-6 292.38,-26"/>
<text xml:space="preserve" text-anchor="middle" x="243.88" y="-12.5" font-family="Helvetica,sans-Serif" font-size="10.00">core/capability.cpp</text>
</a>
</g>
</g>
<!-- Node1&#45;&gt;Node4 -->
<g id="edge3_Node000001_Node000004" class="edge">
<title>Node1&#45;&gt;Node4</title>
<g id="a_edge3_Node000001_Node000004"><a xlink:title=" ">
<path fill="none" stroke="#63b8ff" d="M313.65,-61.54C296.18,-50.39 273.18,-35.71 258.46,-26.31"/>
<polygon fill="#63b8ff" stroke="#63b8ff" points="311.6,-64.38 321.91,-66.81 315.37,-58.48 311.6,-64.38"/>
</a>
</g>
</g>
<!-- Node5 -->
<g id="Node000005" class="node">
<title>Node5</title>
<g id="a_Node000005"><a xlink:href="duvc_8hpp.html" target="_top" xlink:title="Main umbrella header for duvc&#45;ctl library.">
<polygon fill="white" stroke="#666666" points="365.75,-26 310,-26 310,-6 365.75,-6 365.75,-26"/>
<text xml:space="preserve" text-anchor="middle" x="337.88" y="-12.5" font-family="Helvetica,sans-Serif" font-size="10.00">duvc.hpp</text>
</a>
</g>
</g>
<!-- Node1&#45;&gt;Node5 -->
<g id="edge4_Node000001_Node000005" class="edge">
<title>Node1&#45;&gt;Node5</title>
<g id="a_edge4_Node000001_Node000005"><a xlink:title=" ">
<path fill="none" stroke="#63b8ff" d="M337.88,-56.25C337.88,-45.97 337.88,-34.09 337.88,-26.11"/>
<polygon fill="#63b8ff" stroke="#63b8ff" points="334.38,-56.11 337.88,-66.11 341.38,-56.11 334.38,-56.11"/>
</a>
</g>
</g>
<!-- Node6 -->
<g id="Node000006" class="node">
<title>Node6</title>
<g id="a_Node000006"><a xlink:href="device__monitor_8cpp.html" target="_top" xlink:title="Windows device hotplug detection implementation.">
<polygon fill="white" stroke="#666666" points="507.88,-32 383.88,-32 383.88,0 507.88,0 507.88,-32"/>
<text xml:space="preserve" text-anchor="start" x="391.88" y="-18.5" font-family="Helvetica,sans-Serif" font-size="10.00">platform/windows/device</text>
<text xml:space="preserve" text-anchor="middle" x="445.88" y="-6.5" font-family="Helvetica,sans-Serif" font-size="10.00">_monitor.cpp</text>
</a>
</g>
</g>
<!-- Node1&#45;&gt;Node6 -->
<g id="edge5_Node000001_Node000006" class="edge">
<title>Node1&#45;&gt;Node6</title>
<g id="a_edge5_Node000001_Node000006"><a xlink:title=" ">
<path fill="none" stroke="#63b8ff" d="M364.72,-62.08C381.01,-53.03 401.76,-41.51 418.2,-32.37"/>
<polygon fill="#63b8ff" stroke="#63b8ff" points="363.11,-58.97 356.07,-66.89 366.51,-65.09 363.11,-58.97"/>
</a>
</g>
</g>
<!-- Node7 -->
<g id="Node000007" class="node">
<title>Node7</title>
<g id="a_Node000007"><a xlink:href="logging_8cpp.html" target="_top" xlink:title="Logging system implementation.">
<polygon fill="white" stroke="#666666" points="612.12,-26 525.62,-26 525.62,-6 612.12,-6 612.12,-26"/>
<text xml:space="preserve" text-anchor="middle" x="568.88" y="-12.5" font-family="Helvetica,sans-Serif" font-size="10.00">utils/logging.cpp</text>
</a>
</g>
</g>
<!-- Node1&#45;&gt;Node7 -->
<g id="edge6_Node000001_Node000007" class="edge">
<title>Node1&#45;&gt;Node7</title>
<g id="a_edge6_Node000001_Node000007"><a xlink:title=" ">
<path fill="none" stroke="#63b8ff" d="M387.21,-65.08C423.23,-56.26 473.19,-43.79 516.88,-32 523.32,-30.26 530.18,-28.33 536.75,-26.46"/>
<polygon fill="#63b8ff" stroke="#63b8ff" points="386.39,-61.68 377.51,-67.45 388.05,-68.48 386.39,-61.68"/>
</a>
</g>
</g>
<!-- Node8 -->
<g id="Node000008" class="node">
<title>Node8</title>
<g id="a_Node000008"><a xlink:href="logitech_8cpp.html" target="_top" xlink:title="Logitech&#45;specific property implementations.">
<polygon fill="white" stroke="#666666" points="731.25,-26 630.5,-26 630.5,-6 731.25,-6 731.25,-26"/>
<text xml:space="preserve" text-anchor="middle" x="680.88" y="-12.5" font-family="Helvetica,sans-Serif" font-size="10.00">vendor/logitech.cpp</text>
</a>
</g>
</g>
<!-- Node1&#45;&gt;Node8 -->
<g id="edge7_Node000001_Node000008" class="edge">
<title>Node1&#45;&gt;Node8</title>
<g id="a_edge7_Node000001_Node000008"><a xlink:title=" ">
<path fill="none" stroke="#63b8ff" d="M387.19,-70.49C443.85,-62.7 539.47,-48.61 620.88,-32 628.77,-30.39 637.18,-28.44 645.14,-26.48"/>
<polygon fill="#63b8ff" stroke="#63b8ff" points="386.99,-66.98 377.56,-71.8 387.94,-73.92 386.99,-66.98"/>
</a>
</g>
</g>
</g>
</svg>
