<?xml version="1.0" encoding="UTF-8" standalone="no"?>
<!DOCTYPE svg PUBLIC "-//W3C//DTD SVG 1.1//EN"
 "http://www.w3.org/Graphics/SVG/1.1/DTD/svg11.dtd">
<!-- Generated by graphviz version 14.0.2 (20251019.1705)
 -->
<!-- Title: utils/logging.cpp Pages: 1 -->
<svg width="454pt" height="140pt"
 viewBox="0.00 0.00 454.00 140.00" xmlns="http://www.w3.org/2000/svg" xmlns:xlink="http://www.w3.org/1999/xlink">
<g id="graph0" class="graph" transform="scale(1 1) rotate(0) translate(4 136)">
<title>utils/logging.cpp</title>
<!-- Node1 -->
<g id="Node000001" class="node">
<title>Node1</title>
<g id="a_Node000001"><a xlink:title="Logging system implementation.">
<polygon fill="#999999" stroke="#666666" points="297.88,-132 211.38,-132 211.38,-112 297.88,-112 297.88,-132"/>
<text xml:space="preserve" text-anchor="middle" x="254.62" y="-118.5" font-family="Helvetica,sans-Serif" font-size="10.00">utils/logging.cpp</text>
</a>
</g>
</g>
<!-- Node2 -->
<g id="Node000002" class="node">
<title>Node2</title>
<g id="a_Node000002"><a xlink:title=" ">
<polygon fill="#e0e0e0" stroke="#999999" points="45.25,-76 0,-76 0,-56 45.25,-56 45.25,-76"/>
<text xml:space="preserve" text-anchor="middle" x="22.62" y="-62.5" font-family="Helvetica,sans-Serif" font-size="10.00">chrono</text>
</a>
</g>
</g>
<!-- Node1&#45;&gt;Node2 -->
<g id="edge1_Node000001_Node000002" class="edge">
<title>Node1&#45;&gt;Node2</title>
<g id="a_edge1_Node000001_Node000002"><a xlink:title=" ">
<path fill="none" stroke="#63b8ff" d="M210.92,-112.04C172.47,-103.97 114.74,-91.41 56.48,-76.63"/>
<polygon fill="#63b8ff" stroke="#63b8ff" points="57.63,-73.31 47.07,-74.22 55.89,-80.09 57.63,-73.31"/>
</a>
</g>
</g>
<!-- Node3 -->
<g id="Node000003" class="node">
<title>Node3</title>
<g id="a_Node000003"><a xlink:href="logging_8h.html" target="_top" xlink:title="Structured logging interface for duvc&#45;ctl.">
<polygon fill="white" stroke="#666666" points="176.38,-76 62.88,-76 62.88,-56 176.38,-56 176.38,-76"/>
<text xml:space="preserve" text-anchor="middle" x="119.62" y="-62.5" font-family="Helvetica,sans-Serif" font-size="10.00">duvc&#45;ctl/utils/logging.h</text>
</a>
</g>
</g>
<!-- Node1&#45;&gt;Node3 -->
<g id="edge2_Node000001_Node000003" class="edge">
<title>Node1&#45;&gt;Node3</title>
<g id="a_edge2_Node000001_Node000003"><a xlink:title=" ">
<path fill="none" stroke="#63b8ff" d="M231.11,-111.59C209.75,-103.05 177.99,-90.35 153.83,-80.68"/>
<polygon fill="#63b8ff" stroke="#63b8ff" points="155.31,-77.51 144.73,-77.04 152.71,-84.01 155.31,-77.51"/>
</a>
</g>
</g>
<!-- Node6 -->
<g id="Node000006" class="node">
<title>Node6</title>
<g id="a_Node000006"><a xlink:title=" ">
<polygon fill="#e0e0e0" stroke="#999999" points="244.5,-76 194.75,-76 194.75,-56 244.5,-56 244.5,-76"/>
<text xml:space="preserve" text-anchor="middle" x="219.62" y="-62.5" font-family="Helvetica,sans-Serif" font-size="10.00">iomanip</text>
</a>
</g>
</g>
<!-- Node1&#45;&gt;Node6 -->
<g id="edge5_Node000001_Node000006" class="edge">
<title>Node1&#45;&gt;Node6</title>
<g id="a_edge5_Node000001_Node000006"><a xlink:title=" ">
<path fill="none" stroke="#63b8ff" d="M248.53,-111.59C243.91,-104.47 237.42,-94.45 231.76,-85.72"/>
<polygon fill="#63b8ff" stroke="#63b8ff" points="234.85,-84.06 226.47,-77.57 228.98,-87.86 234.85,-84.06"/>
</a>
</g>
</g>
<!-- Node7 -->
<g id="Node000007" class="node">
<title>Node7</title>
<g id="a_Node000007"><a xlink:title=" ">
<polygon fill="#e0e0e0" stroke="#999999" points="316.38,-76 262.88,-76 262.88,-56 316.38,-56 316.38,-76"/>
<text xml:space="preserve" text-anchor="middle" x="289.62" y="-62.5" font-family="Helvetica,sans-Serif" font-size="10.00">iostream</text>
</a>
</g>
</g>
<!-- Node1&#45;&gt;Node7 -->
<g id="edge6_Node000001_Node000007" class="edge">
<title>Node1&#45;&gt;Node7</title>
<g id="a_edge6_Node000001_Node000007"><a xlink:title=" ">
<path fill="none" stroke="#63b8ff" d="M260.72,-111.59C265.34,-104.47 271.83,-94.45 277.49,-85.72"/>
<polygon fill="#63b8ff" stroke="#63b8ff" points="280.27,-87.86 282.78,-77.57 274.4,-84.06 280.27,-87.86"/>
</a>
</g>
</g>
<!-- Node8 -->
<g id="Node000008" class="node">
<title>Node8</title>
<g id="a_Node000008"><a xlink:title=" ">
<polygon fill="#e0e0e0" stroke="#999999" points="377.12,-76 334.12,-76 334.12,-56 377.12,-56 377.12,-76"/>
<text xml:space="preserve" text-anchor="middle" x="355.62" y="-62.5" font-family="Helvetica,sans-Serif" font-size="10.00">mutex</text>
</a>
</g>
</g>
<!-- Node1&#45;&gt;Node8 -->
<g id="edge7_Node000001_Node000008" class="edge">
<title>Node1&#45;&gt;Node8</title>
<g id="a_edge7_Node000001_Node000008"><a xlink:title=" ">
<path fill="none" stroke="#63b8ff" d="M272.22,-111.59C287.55,-103.4 310.04,-91.37 327.81,-81.87"/>
<polygon fill="#63b8ff" stroke="#63b8ff" points="329.39,-84.99 336.56,-77.19 326.09,-78.82 329.39,-84.99"/>
</a>
</g>
</g>
<!-- Node9 -->
<g id="Node000009" class="node">
<title>Node9</title>
<g id="a_Node000009"><a xlink:title=" ">
<polygon fill="#e0e0e0" stroke="#999999" points="446.25,-76 395,-76 395,-56 446.25,-56 446.25,-76"/>
<text xml:space="preserve" text-anchor="middle" x="420.62" y="-62.5" font-family="Helvetica,sans-Serif" font-size="10.00">sstream</text>
</a>
</g>
</g>
<!-- Node1&#45;&gt;Node9 -->
<g id="edge8_Node000001_Node000009" class="edge">
<title>Node1&#45;&gt;Node9</title>
<g id="a_edge8_Node000001_Node000009"><a xlink:title=" ">
<path fill="none" stroke="#63b8ff" d="M283.54,-111.59C311.38,-102.54 353.6,-88.8 383.83,-78.97"/>
<polygon fill="#63b8ff" stroke="#63b8ff" points="384.9,-82.3 393.33,-75.88 382.74,-75.64 384.9,-82.3"/>
</a>
</g>
</g>
<!-- Node4 -->
<g id="Node000004" class="node">
<title>Node4</title>
<g id="a_Node000004"><a xlink:title=" ">
<polygon fill="#e0e0e0" stroke="#999999" points="114.62,-20 56.62,-20 56.62,0 114.62,0 114.62,-20"/>
<text xml:space="preserve" text-anchor="middle" x="85.62" y="-6.5" font-family="Helvetica,sans-Serif" font-size="10.00">functional</text>
</a>
</g>
</g>
<!-- Node3&#45;&gt;Node4 -->
<g id="edge3_Node000003_Node000004" class="edge">
<title>Node3&#45;&gt;Node4</title>
<g id="a_edge3_Node000003_Node000004"><a xlink:title=" ">
<path fill="none" stroke="#63b8ff" d="M113.7,-55.59C109.27,-48.55 103.05,-38.67 97.59,-30"/>
<polygon fill="#63b8ff" stroke="#63b8ff" points="100.58,-28.18 92.29,-21.58 94.65,-31.91 100.58,-28.18"/>
</a>
</g>
</g>
<!-- Node5 -->
<g id="Node000005" class="node">
<title>Node5</title>
<g id="a_Node000005"><a xlink:title=" ">
<polygon fill="#e0e0e0" stroke="#999999" points="172.62,-20 132.62,-20 132.62,0 172.62,0 172.62,-20"/>
<text xml:space="preserve" text-anchor="middle" x="152.62" y="-6.5" font-family="Helvetica,sans-Serif" font-size="10.00">string</text>
</a>
</g>
</g>
<!-- Node3&#45;&gt;Node5 -->
<g id="edge4_Node000003_Node000005" class="edge">
<title>Node3&#45;&gt;Node5</title>
<g id="a_edge4_Node000003_Node000005"><a xlink:title=" ">
<path fill="none" stroke="#63b8ff" d="M125.37,-55.59C129.68,-48.55 135.72,-38.67 141.01,-30"/>
<polygon fill="#63b8ff" stroke="#63b8ff" points="143.93,-31.95 146.15,-21.59 137.95,-28.3 143.93,-31.95"/>
</a>
</g>
</g>
</g>
</svg>
