<?xml version="1.0" encoding="UTF-8" standalone="no"?>
<!DOCTYPE svg PUBLIC "-//W3C//DTD SVG 1.1//EN"
 "http://www.w3.org/Graphics/SVG/1.1/DTD/svg11.dtd">
<!-- Generated by graphviz version 14.0.2 (20251019.1705)
 -->
<!-- Title: vendor/logitech.h Pages: 1 -->
<svg width="182pt" height="84pt"
 viewBox="0.00 0.00 182.00 84.00" xmlns="http://www.w3.org/2000/svg" xmlns:xlink="http://www.w3.org/1999/xlink">
<g id="graph0" class="graph" transform="scale(1 1) rotate(0) translate(4 80)">
<title>vendor/logitech.h</title>
<!-- Node1 -->
<g id="Node000001" class="node">
<title>Node1</title>
<g id="a_Node000001"><a xlink:title="Logitech&#45;specific vendor property definitions and helpers.">
<polygon fill="#999999" stroke="#666666" points="121,-76 30.75,-76 30.75,-56 121,-56 121,-76"/>
<text xml:space="preserve" text-anchor="middle" x="75.88" y="-62.5" font-family="Helvetica,sans-Serif" font-size="10.00">vendor/logitech.h</text>
</a>
</g>
</g>
<!-- Node2 -->
<g id="Node000002" class="node">
<title>Node2</title>
<g id="a_Node000002"><a xlink:href="duvc_8hpp.html" target="_top" xlink:title="Main umbrella header for duvc&#45;ctl library.">
<polygon fill="white" stroke="#666666" points="55.75,-20 0,-20 0,0 55.75,0 55.75,-20"/>
<text xml:space="preserve" text-anchor="middle" x="27.88" y="-6.5" font-family="Helvetica,sans-Serif" font-size="10.00">duvc.hpp</text>
</a>
</g>
</g>
<!-- Node1&#45;&gt;Node2 -->
<g id="edge1_Node000001_Node000002" class="edge">
<title>Node1&#45;&gt;Node2</title>
<g id="a_edge1_Node000001_Node000002"><a xlink:title=" ">
<path fill="none" stroke="#63b8ff" d="M59.88,-47C51.93,-38.06 42.65,-27.62 36.14,-20.3"/>
<polygon fill="#63b8ff" stroke="#63b8ff" points="57.25,-49.31 66.51,-54.46 62.48,-44.66 57.25,-49.31"/>
</a>
</g>
</g>
<!-- Node3 -->
<g id="Node000003" class="node">
<title>Node3</title>
<g id="a_Node000003"><a xlink:href="logitech_8cpp.html" target="_top" xlink:title="Logitech&#45;specific property implementations.">
<polygon fill="white" stroke="#666666" points="174.25,-20 73.5,-20 73.5,0 174.25,0 174.25,-20"/>
<text xml:space="preserve" text-anchor="middle" x="123.88" y="-6.5" font-family="Helvetica,sans-Serif" font-size="10.00">vendor/logitech.cpp</text>
</a>
</g>
</g>
<!-- Node1&#45;&gt;Node3 -->
<g id="edge2_Node000001_Node000003" class="edge">
<title>Node1&#45;&gt;Node3</title>
<g id="a_edge2_Node000001_Node000003"><a xlink:title=" ">
<path fill="none" stroke="#63b8ff" d="M91.87,-47C99.82,-38.06 109.1,-27.62 115.61,-20.3"/>
<polygon fill="#63b8ff" stroke="#63b8ff" points="89.27,-44.66 85.24,-54.46 94.5,-49.31 89.27,-44.66"/>
</a>
</g>
</g>
</g>
</svg>
