<?xml version="1.0" encoding="UTF-8" standalone="no"?>
<!DOCTYPE svg PUBLIC "-//W3C//DTD SVG 1.1//EN"
 "http://www.w3.org/Graphics/SVG/1.1/DTD/svg11.dtd">
<!-- Generated by graphviz version 14.0.2 (20251019.1705)
 -->
<!-- Title: vendor/logitech.cpp Pages: 1 -->
<svg width="822pt" height="220pt"
 viewBox="0.00 0.00 822.00 220.00" xmlns="http://www.w3.org/2000/svg" xmlns:xlink="http://www.w3.org/1999/xlink">
<g id="graph0" class="graph" transform="scale(1 1) rotate(0) translate(4 216)">
<title>vendor/logitech.cpp</title>
<!-- Node1 -->
<g id="Node000001" class="node">
<title>Node1</title>
<g id="a_Node000001"><a xlink:title="Logitech&#45;specific property implementations.">
<polygon fill="#999999" stroke="#666666" points="678.88,-212 578.12,-212 578.12,-192 678.88,-192 678.88,-212"/>
<text xml:space="preserve" text-anchor="middle" x="628.5" y="-198.5" font-family="Helvetica,sans-Serif" font-size="10.00">vendor/logitech.cpp</text>
</a>
</g>
</g>
<!-- Node2 -->
<g id="Node000002" class="node">
<title>Node2</title>
<g id="a_Node000002"><a xlink:href="ks__properties_8h.html" target="_top" xlink:title="IKsPropertySet wrapper for vendor properties.">
<polygon fill="white" stroke="#666666" points="535.5,-156 405.5,-156 405.5,-124 535.5,-124 535.5,-156"/>
<text xml:space="preserve" text-anchor="start" x="413.5" y="-142.5" font-family="Helvetica,sans-Serif" font-size="10.00">duvc&#45;ctl/platform/windows</text>
<text xml:space="preserve" text-anchor="middle" x="470.5" y="-130.5" font-family="Helvetica,sans-Serif" font-size="10.00">/ks_properties.h</text>
</a>
</g>
</g>
<!-- Node1&#45;&gt;Node2 -->
<g id="edge1_Node000001_Node000002" class="edge">
<title>Node1&#45;&gt;Node2</title>
<g id="a_edge1_Node000001_Node000002"><a xlink:title=" ">
<path fill="none" stroke="#63b8ff" d="M603.81,-191.62C581.98,-183.33 549.41,-170.96 521.93,-160.53"/>
<polygon fill="#63b8ff" stroke="#63b8ff" points="523.3,-157.31 512.71,-157.03 520.81,-163.85 523.3,-157.31"/>
</a>
</g>
</g>
<!-- Node13 -->
<g id="Node000013" class="node">
<title>Node13</title>
<g id="a_Node000013"><a xlink:href="logging_8h.html" target="_top" xlink:title="Structured logging interface for duvc&#45;ctl.">
<polygon fill="white" stroke="#666666" points="685.25,-150 571.75,-150 571.75,-130 685.25,-130 685.25,-150"/>
<text xml:space="preserve" text-anchor="middle" x="628.5" y="-136.5" font-family="Helvetica,sans-Serif" font-size="10.00">duvc&#45;ctl/utils/logging.h</text>
</a>
</g>
</g>
<!-- Node1&#45;&gt;Node13 -->
<g id="edge13_Node000001_Node000013" class="edge">
<title>Node1&#45;&gt;Node13</title>
<g id="a_edge13_Node000001_Node000013"><a xlink:title=" ">
<path fill="none" stroke="#63b8ff" d="M628.5,-191.62C628.5,-183.56 628.5,-171.65 628.5,-161.41"/>
<polygon fill="#63b8ff" stroke="#63b8ff" points="632,-161.63 628.5,-151.63 625,-161.63 632,-161.63"/>
</a>
</g>
</g>
<!-- Node15 -->
<g id="Node000015" class="node">
<title>Node15</title>
<g id="a_Node000015"><a xlink:href="logitech_8h.html" target="_top" xlink:title="Logitech&#45;specific vendor property definitions and helpers.">
<polygon fill="white" stroke="#666666" points="387.38,-150 259.62,-150 259.62,-130 387.38,-130 387.38,-150"/>
<text xml:space="preserve" text-anchor="middle" x="323.5" y="-136.5" font-family="Helvetica,sans-Serif" font-size="10.00">duvc&#45;ctl/vendor/logitech.h</text>
</a>
</g>
</g>
<!-- Node1&#45;&gt;Node15 -->
<g id="edge16_Node000001_Node000015" class="edge">
<title>Node1&#45;&gt;Node15</title>
<g id="a_edge16_Node000001_Node000015"><a xlink:title=" ">
<path fill="none" stroke="#63b8ff" d="M578.69,-191.5C531.69,-182.5 459.26,-168.54 396.5,-156 391.23,-154.95 385.74,-153.84 380.25,-152.73"/>
<polygon fill="#63b8ff" stroke="#63b8ff" points="381.03,-149.31 370.53,-150.74 379.63,-156.17 381.03,-149.31"/>
</a>
</g>
</g>
<!-- Node16 -->
<g id="Node000016" class="node">
<title>Node16</title>
<g id="a_Node000016"><a xlink:title=" ">
<polygon fill="#e0e0e0" stroke="#999999" points="737.88,-150 703.12,-150 703.12,-130 737.88,-130 737.88,-150"/>
<text xml:space="preserve" text-anchor="middle" x="720.5" y="-136.5" font-family="Helvetica,sans-Serif" font-size="10.00">ks.h</text>
</a>
</g>
</g>
<!-- Node1&#45;&gt;Node16 -->
<g id="edge21_Node000001_Node000016" class="edge">
<title>Node1&#45;&gt;Node16</title>
<g id="a_edge21_Node000001_Node000016"><a xlink:title=" ">
<path fill="none" stroke="#63b8ff" d="M642.88,-191.62C657.32,-182.2 679.84,-167.52 696.91,-156.39"/>
<polygon fill="#63b8ff" stroke="#63b8ff" points="698.49,-159.53 704.96,-151.14 694.67,-153.67 698.49,-159.53"/>
</a>
</g>
</g>
<!-- Node17 -->
<g id="Node000017" class="node">
<title>Node17</title>
<g id="a_Node000017"><a xlink:title=" ">
<polygon fill="#e0e0e0" stroke="#999999" points="813.5,-150 755.5,-150 755.5,-130 813.5,-130 813.5,-150"/>
<text xml:space="preserve" text-anchor="middle" x="784.5" y="-136.5" font-family="Helvetica,sans-Serif" font-size="10.00">ksproxy.h</text>
</a>
</g>
</g>
<!-- Node1&#45;&gt;Node17 -->
<g id="edge22_Node000001_Node000017" class="edge">
<title>Node1&#45;&gt;Node17</title>
<g id="a_edge22_Node000001_Node000017"><a xlink:title=" ">
<path fill="none" stroke="#63b8ff" d="M653.39,-191.6C677.3,-182.56 714.41,-168.45 746.5,-156 747.8,-155.49 749.13,-154.98 750.47,-154.46"/>
<polygon fill="#63b8ff" stroke="#63b8ff" points="751.36,-157.87 759.39,-150.96 748.8,-151.35 751.36,-157.87"/>
</a>
</g>
</g>
<!-- Node3 -->
<g id="Node000003" class="node">
<title>Node3</title>
<g id="a_Node000003"><a xlink:href="result_8h.html" target="_top" xlink:title="Result/Error type system for duvc&#45;ctl.">
<polygon fill="white" stroke="#666666" points="234.25,-82 126.75,-82 126.75,-62 234.25,-62 234.25,-82"/>
<text xml:space="preserve" text-anchor="middle" x="180.5" y="-68.5" font-family="Helvetica,sans-Serif" font-size="10.00">duvc&#45;ctl/core/result.h</text>
</a>
</g>
</g>
<!-- Node2&#45;&gt;Node3 -->
<g id="edge2_Node000002_Node000003" class="edge">
<title>Node2&#45;&gt;Node3</title>
<g id="a_edge2_Node000002_Node000003"><a xlink:title=" ">
<path fill="none" stroke="#63b8ff" d="M405.38,-124.6C359.97,-114.5 298,-100.61 243.5,-88 239.43,-87.06 235.21,-86.07 230.97,-85.08"/>
<polygon fill="#63b8ff" stroke="#63b8ff" points="231.81,-81.68 221.27,-82.79 230.2,-88.49 231.81,-81.68"/>
</a>
</g>
</g>
<!-- Node9 -->
<g id="Node000009" class="node">
<title>Node9</title>
<g id="a_Node000009"><a xlink:href="types_8h.html" target="_top" xlink:title="Core data types and enumerations for duvc&#45;ctl.">
<polygon fill="white" stroke="#666666" points="360.25,-82 252.75,-82 252.75,-62 360.25,-62 360.25,-82"/>
<text xml:space="preserve" text-anchor="middle" x="306.5" y="-68.5" font-family="Helvetica,sans-Serif" font-size="10.00">duvc&#45;ctl/core/types.h</text>
</a>
</g>
</g>
<!-- Node2&#45;&gt;Node9 -->
<g id="edge8_Node000002_Node000009" class="edge">
<title>Node2&#45;&gt;Node9</title>
<g id="a_edge8_Node000002_Node000009"><a xlink:title=" ">
<path fill="none" stroke="#63b8ff" d="M432.05,-123.53C404.26,-112.34 367.06,-97.37 340.38,-86.64"/>
<polygon fill="#63b8ff" stroke="#63b8ff" points="341.99,-83.51 331.41,-83.03 339.38,-90.01 341.99,-83.51"/>
</a>
</g>
</g>
<!-- Node10 -->
<g id="Node000010" class="node">
<title>Node10</title>
<g id="a_Node000010"><a xlink:title=" ">
<polygon fill="#e0e0e0" stroke="#999999" points="618.75,-88 520.25,-88 520.25,-56 618.75,-56 618.75,-88"/>
<text xml:space="preserve" text-anchor="start" x="528.25" y="-74.5" font-family="Helvetica,sans-Serif" font-size="10.00">duvc&#45;ctl/detail/com</text>
<text xml:space="preserve" text-anchor="middle" x="569.5" y="-62.5" font-family="Helvetica,sans-Serif" font-size="10.00">_helpers.h</text>
</a>
</g>
</g>
<!-- Node2&#45;&gt;Node10 -->
<g id="edge10_Node000002_Node000010" class="edge">
<title>Node2&#45;&gt;Node10</title>
<g id="a_edge10_Node000002_Node000010"><a xlink:title=" ">
<path fill="none" stroke="#63b8ff" d="M493.71,-123.53C506.62,-114.92 522.89,-104.07 537.04,-94.64"/>
<polygon fill="#63b8ff" stroke="#63b8ff" points="538.8,-97.68 545.17,-89.22 534.91,-91.85 538.8,-97.68"/>
</a>
</g>
</g>
<!-- Node11 -->
<g id="Node000011" class="node">
<title>Node11</title>
<g id="a_Node000011"><a xlink:title=" ">
<polygon fill="#e0e0e0" stroke="#999999" points="421,-82 378,-82 378,-62 421,-62 421,-82"/>
<text xml:space="preserve" text-anchor="middle" x="399.5" y="-68.5" font-family="Helvetica,sans-Serif" font-size="10.00">vector</text>
</a>
</g>
</g>
<!-- Node2&#45;&gt;Node11 -->
<g id="edge11_Node000002_Node000011" class="edge">
<title>Node2&#45;&gt;Node11</title>
<g id="a_edge11_Node000002_Node000011"><a xlink:title=" ">
<path fill="none" stroke="#63b8ff" d="M454.03,-123.69C443.17,-113.6 428.94,-100.36 417.73,-89.95"/>
<polygon fill="#63b8ff" stroke="#63b8ff" points="420.34,-87.59 410.63,-83.35 415.57,-92.72 420.34,-87.59"/>
</a>
</g>
</g>
<!-- Node12 -->
<g id="Node000012" class="node">
<title>Node12</title>
<g id="a_Node000012"><a xlink:title=" ">
<polygon fill="#e0e0e0" stroke="#999999" points="501.75,-82 439.25,-82 439.25,-62 501.75,-62 501.75,-82"/>
<text xml:space="preserve" text-anchor="middle" x="470.5" y="-68.5" font-family="Helvetica,sans-Serif" font-size="10.00">windows.h</text>
</a>
</g>
</g>
<!-- Node2&#45;&gt;Node12 -->
<g id="edge12_Node000002_Node000012" class="edge">
<title>Node2&#45;&gt;Node12</title>
<g id="a_edge12_Node000002_Node000012"><a xlink:title=" ">
<path fill="none" stroke="#63b8ff" d="M470.5,-123.69C470.5,-114.8 470.5,-103.46 470.5,-93.77"/>
<polygon fill="#63b8ff" stroke="#63b8ff" points="474,-93.83 470.5,-83.83 467,-93.83 474,-93.83"/>
</a>
</g>
</g>
<!-- Node4 -->
<g id="Node000004" class="node">
<title>Node4</title>
<g id="a_Node000004"><a xlink:title=" ">
<polygon fill="#e0e0e0" stroke="#999999" points="207.25,-20 153.75,-20 153.75,0 207.25,0 207.25,-20"/>
<text xml:space="preserve" text-anchor="middle" x="180.5" y="-6.5" font-family="Helvetica,sans-Serif" font-size="10.00">iostream</text>
</a>
</g>
</g>
<!-- Node3&#45;&gt;Node4 -->
<g id="edge3_Node000003_Node000004" class="edge">
<title>Node3&#45;&gt;Node4</title>
<g id="a_edge3_Node000003_Node000004"><a xlink:title=" ">
<path fill="none" stroke="#63b8ff" d="M180.5,-61.62C180.5,-53.56 180.5,-41.65 180.5,-31.41"/>
<polygon fill="#63b8ff" stroke="#63b8ff" points="184,-31.63 180.5,-21.63 177,-31.63 184,-31.63"/>
</a>
</g>
</g>
<!-- Node5 -->
<g id="Node000005" class="node">
<title>Node5</title>
<g id="a_Node000005"><a xlink:title=" ">
<polygon fill="#e0e0e0" stroke="#999999" points="275.38,-20 225.62,-20 225.62,0 275.38,0 275.38,-20"/>
<text xml:space="preserve" text-anchor="middle" x="250.5" y="-6.5" font-family="Helvetica,sans-Serif" font-size="10.00">optional</text>
</a>
</g>
</g>
<!-- Node3&#45;&gt;Node5 -->
<g id="edge4_Node000003_Node000005" class="edge">
<title>Node3&#45;&gt;Node5</title>
<g id="a_edge4_Node000003_Node000005"><a xlink:title=" ">
<path fill="none" stroke="#63b8ff" d="M191.44,-61.62C202.08,-52.5 218.48,-38.45 231.3,-27.46"/>
<polygon fill="#63b8ff" stroke="#63b8ff" points="233.4,-30.26 238.72,-21.1 228.85,-24.95 233.4,-30.26"/>
</a>
</g>
</g>
<!-- Node6 -->
<g id="Node000006" class="node">
<title>Node6</title>
<g id="a_Node000006"><a xlink:title=" ">
<polygon fill="#e0e0e0" stroke="#999999" points="333.5,-20 293.5,-20 293.5,0 333.5,0 333.5,-20"/>
<text xml:space="preserve" text-anchor="middle" x="313.5" y="-6.5" font-family="Helvetica,sans-Serif" font-size="10.00">string</text>
</a>
</g>
</g>
<!-- Node3&#45;&gt;Node6 -->
<g id="edge5_Node000003_Node000006" class="edge">
<title>Node3&#45;&gt;Node6</title>
<g id="a_edge5_Node000003_Node000006"><a xlink:title=" ">
<path fill="none" stroke="#63b8ff" d="M201.28,-61.62C223.17,-51.75 257.88,-36.09 282.9,-24.8"/>
<polygon fill="#63b8ff" stroke="#63b8ff" points="284.24,-28.04 291.92,-20.74 281.37,-21.66 284.24,-28.04"/>
</a>
</g>
</g>
<!-- Node7 -->
<g id="Node000007" class="node">
<title>Node7</title>
<g id="a_Node000007"><a xlink:title=" ">
<polygon fill="#e0e0e0" stroke="#999999" points="73,-20 0,-20 0,0 73,0 73,-20"/>
<text xml:space="preserve" text-anchor="middle" x="36.5" y="-6.5" font-family="Helvetica,sans-Serif" font-size="10.00">system_error</text>
</a>
</g>
</g>
<!-- Node3&#45;&gt;Node7 -->
<g id="edge6_Node000003_Node000007" class="edge">
<title>Node3&#45;&gt;Node7</title>
<g id="a_edge6_Node000003_Node000007"><a xlink:title=" ">
<path fill="none" stroke="#63b8ff" d="M158,-61.62C134.22,-51.72 96.49,-35.99 69.38,-24.7"/>
<polygon fill="#63b8ff" stroke="#63b8ff" points="70.82,-21.51 60.24,-20.89 68.12,-27.97 70.82,-21.51"/>
</a>
</g>
</g>
<!-- Node8 -->
<g id="Node000008" class="node">
<title>Node8</title>
<g id="a_Node000008"><a xlink:title=" ">
<polygon fill="#e0e0e0" stroke="#999999" points="136.12,-20 90.88,-20 90.88,0 136.12,0 136.12,-20"/>
<text xml:space="preserve" text-anchor="middle" x="113.5" y="-6.5" font-family="Helvetica,sans-Serif" font-size="10.00">variant</text>
</a>
</g>
</g>
<!-- Node3&#45;&gt;Node8 -->
<g id="edge7_Node000003_Node000008" class="edge">
<title>Node3&#45;&gt;Node8</title>
<g id="a_edge7_Node000003_Node000008"><a xlink:title=" ">
<path fill="none" stroke="#63b8ff" d="M170.03,-61.62C159.94,-52.59 144.45,-38.72 132.24,-27.78"/>
<polygon fill="#63b8ff" stroke="#63b8ff" points="134.59,-25.19 124.8,-21.12 129.92,-30.4 134.59,-25.19"/>
</a>
</g>
</g>
<!-- Node9&#45;&gt;Node6 -->
<g id="edge9_Node000009_Node000006" class="edge">
<title>Node9&#45;&gt;Node6</title>
<g id="a_edge9_Node000009_Node000006"><a xlink:title=" ">
<path fill="none" stroke="#63b8ff" d="M307.59,-61.62C308.53,-53.56 309.92,-41.65 311.12,-31.41"/>
<polygon fill="#63b8ff" stroke="#63b8ff" points="314.58,-31.95 312.26,-21.62 307.63,-31.14 314.58,-31.95"/>
</a>
</g>
</g>
<!-- Node13&#45;&gt;Node6 -->
<g id="edge15_Node000013_Node000006" class="edge">
<title>Node13&#45;&gt;Node6</title>
<g id="a_edge15_Node000013_Node000006"><a xlink:title=" ">
<path fill="none" stroke="#63b8ff" d="M631.85,-129.67C637.28,-112.71 645.65,-76.69 627.5,-56 590.93,-14.33 417.64,-10.37 345.32,-10.58"/>
<polygon fill="#63b8ff" stroke="#63b8ff" points="345.32,-7.08 335.34,-10.64 345.36,-14.08 345.32,-7.08"/>
</a>
</g>
</g>
<!-- Node14 -->
<g id="Node000014" class="node">
<title>Node14</title>
<g id="a_Node000014"><a xlink:title=" ">
<polygon fill="#e0e0e0" stroke="#999999" points="732.5,-82 674.5,-82 674.5,-62 732.5,-62 732.5,-82"/>
<text xml:space="preserve" text-anchor="middle" x="703.5" y="-68.5" font-family="Helvetica,sans-Serif" font-size="10.00">functional</text>
</a>
</g>
</g>
<!-- Node13&#45;&gt;Node14 -->
<g id="edge14_Node000013_Node000014" class="edge">
<title>Node13&#45;&gt;Node14</title>
<g id="a_edge14_Node000013_Node000014"><a xlink:title=" ">
<path fill="none" stroke="#63b8ff" d="M639.25,-129.54C650.94,-119.25 669.88,-102.58 684.18,-90.01"/>
<polygon fill="#63b8ff" stroke="#63b8ff" points="686.44,-92.67 691.64,-83.44 681.82,-87.42 686.44,-92.67"/>
</a>
</g>
</g>
<!-- Node15&#45;&gt;Node3 -->
<g id="edge17_Node000015_Node000003" class="edge">
<title>Node15&#45;&gt;Node3</title>
<g id="a_edge17_Node000015_Node000003"><a xlink:title=" ">
<path fill="none" stroke="#63b8ff" d="M303.01,-129.54C279.01,-118.47 239.02,-100.01 211.28,-87.21"/>
<polygon fill="#63b8ff" stroke="#63b8ff" points="212.87,-84.09 202.32,-83.07 209.94,-90.44 212.87,-84.09"/>
</a>
</g>
</g>
<!-- Node15&#45;&gt;Node9 -->
<g id="edge18_Node000015_Node000009" class="edge">
<title>Node15&#45;&gt;Node9</title>
<g id="a_edge18_Node000015_Node000009"><a xlink:title=" ">
<path fill="none" stroke="#63b8ff" d="M321.06,-129.54C318.64,-120.13 314.84,-105.39 311.73,-93.32"/>
<polygon fill="#63b8ff" stroke="#63b8ff" points="315.19,-92.72 309.31,-83.9 308.41,-94.46 315.19,-92.72"/>
</a>
</g>
</g>
<!-- Node15&#45;&gt;Node11 -->
<g id="edge19_Node000015_Node000011" class="edge">
<title>Node15&#45;&gt;Node11</title>
<g id="a_edge19_Node000015_Node000011"><a xlink:title=" ">
<path fill="none" stroke="#63b8ff" d="M334.39,-129.54C346.35,-119.15 365.8,-102.27 380.33,-89.65"/>
<polygon fill="#63b8ff" stroke="#63b8ff" points="382.23,-92.63 387.49,-83.43 377.64,-87.35 382.23,-92.63"/>
</a>
</g>
</g>
<!-- Node15&#45;&gt;Node12 -->
<g id="edge20_Node000015_Node000012" class="edge">
<title>Node15&#45;&gt;Node12</title>
<g id="a_edge20_Node000015_Node000012"><a xlink:title=" ">
<path fill="none" stroke="#63b8ff" d="M344.56,-129.54C369.34,-118.42 410.71,-99.84 439.24,-87.04"/>
<polygon fill="#63b8ff" stroke="#63b8ff" points="440.41,-90.35 448.1,-83.06 437.54,-83.96 440.41,-90.35"/>
</a>
</g>
</g>
</g>
</svg>
