<?xml version="1.0" encoding="UTF-8" standalone="no"?>
<!DOCTYPE svg PUBLIC "-//W3C//DTD SVG 1.1//EN"
 "http://www.w3.org/Graphics/SVG/1.1/DTD/svg11.dtd">
<!-- Generated by graphviz version 14.0.2 (20251019.1705)
 -->
<!-- Title: duvc::log_message Pages: 1 -->
<svg width="420pt" height="66pt"
 viewBox="0.00 0.00 420.00 66.00" xmlns="http://www.w3.org/2000/svg" xmlns:xlink="http://www.w3.org/1999/xlink">
<g id="graph0" class="graph" transform="scale(1 1) rotate(0) translate(4 62)">
<title>duvc::log_message</title>
<!-- Node1 -->
<g id="Node000001" class="node">
<title>Node1</title>
<g id="a_Node000001"><a xlink:title="Log a message.">
<polygon fill="#999999" stroke="#666666" points="100.75,-39 0,-39 0,-19 100.75,-19 100.75,-39"/>
<text xml:space="preserve" text-anchor="middle" x="50.38" y="-25.5" font-family="Helvetica,sans-Serif" font-size="10.00">duvc::log_message</text>
</a>
</g>
</g>
<!-- Node2 -->
<g id="Node000002" class="node">
<title>Node2</title>
<g id="a_Node000002"><a xlink:href="namespaceduvc.html#ababd2cbe9f996df9fb02141b96f1a0da" target="_top" xlink:title="Default logging callback that writes to stderr.">
<polygon fill="white" stroke="#666666" points="268.25,-39 136.75,-39 136.75,-19 268.25,-19 268.25,-39"/>
<text xml:space="preserve" text-anchor="middle" x="202.5" y="-25.5" font-family="Helvetica,sans-Serif" font-size="10.00">duvc::default_log_callback</text>
</a>
</g>
</g>
<!-- Node1&#45;&gt;Node2 -->
<g id="edge1_Node000001_Node000002" class="edge">
<title>Node1&#45;&gt;Node2</title>
<g id="a_edge1_Node000001_Node000002"><a xlink:title=" ">
<path fill="none" stroke="#63b8ff" d="M100.95,-29C108.67,-29 116.8,-29 124.95,-29"/>
<polygon fill="#63b8ff" stroke="#63b8ff" points="124.94,-32.5 134.94,-29 124.94,-25.5 124.94,-32.5"/>
</a>
</g>
</g>
<!-- Node3 -->
<g id="Node000003" class="node">
<title>Node3</title>
<g id="a_Node000003"><a xlink:href="namespaceduvc.html#a621c452d402f42a3c34c68da6f2848f1" target="_top" xlink:title="Get current timestamp as string.">
<polygon fill="white" stroke="#666666" points="411.75,-58 304.25,-58 304.25,-38 411.75,-38 411.75,-58"/>
<text xml:space="preserve" text-anchor="middle" x="358" y="-44.5" font-family="Helvetica,sans-Serif" font-size="10.00">duvc::get_timestamp</text>
</a>
</g>
</g>
<!-- Node2&#45;&gt;Node3 -->
<g id="edge2_Node000002_Node000003" class="edge">
<title>Node2&#45;&gt;Node3</title>
<g id="a_edge2_Node000002_Node000003"><a xlink:title=" ">
<path fill="none" stroke="#63b8ff" d="M268.6,-37.06C276.5,-38.04 284.58,-39.04 292.48,-40.01"/>
<polygon fill="#63b8ff" stroke="#63b8ff" points="292.02,-43.48 302.38,-41.24 292.88,-36.54 292.02,-43.48"/>
</a>
</g>
</g>
<!-- Node4 -->
<g id="Node000004" class="node">
<title>Node4</title>
<g id="a_Node000004"><a xlink:href="namespaceduvc.html#a8556fd02a649101843e7712e638cc0cb" target="_top" xlink:title="Convert camera property enum to string.">
<polygon fill="white" stroke="#666666" points="398.25,-20 317.75,-20 317.75,0 398.25,0 398.25,-20"/>
<text xml:space="preserve" text-anchor="middle" x="358" y="-6.5" font-family="Helvetica,sans-Serif" font-size="10.00">duvc::to_string</text>
</a>
</g>
</g>
<!-- Node2&#45;&gt;Node4 -->
<g id="edge3_Node000002_Node000004" class="edge">
<title>Node2&#45;&gt;Node4</title>
<g id="a_edge3_Node000002_Node000004"><a xlink:title=" ">
<path fill="none" stroke="#63b8ff" d="M268.6,-20.94C281.23,-19.38 294.29,-17.76 306.38,-16.27"/>
<polygon fill="#63b8ff" stroke="#63b8ff" points="306.62,-19.76 316.11,-15.06 305.76,-12.82 306.62,-19.76"/>
</a>
</g>
</g>
</g>
</svg>
