<?xml version="1.0" encoding="UTF-8" standalone="no"?>
<!DOCTYPE svg PUBLIC "-//W3C//DTD SVG 1.1//EN"
 "http://www.w3.org/Graphics/SVG/1.1/DTD/svg11.dtd">
<!-- Generated by graphviz version 14.0.2 (20251019.1705)
 -->
<!-- Title: duvc::list_devices Pages: 1 -->
<svg width="441pt" height="759pt"
 viewBox="0.00 0.00 441.00 759.00" xmlns="http://www.w3.org/2000/svg" xmlns:xlink="http://www.w3.org/1999/xlink">
<g id="graph0" class="graph" transform="scale(1 1) rotate(0) translate(4 755)">
<title>duvc::list_devices</title>
<!-- Node1 -->
<g id="Node000001" class="node">
<title>Node1</title>
<g id="a_Node000001"><a xlink:title="Enumerate all available video input devices.">
<polygon fill="#999999" stroke="#666666" points="432.75,-485 338,-485 338,-465 432.75,-465 432.75,-485"/>
<text xml:space="preserve" text-anchor="middle" x="385.38" y="-471.5" font-family="Helvetica,sans-Serif" font-size="10.00">duvc::list_devices</text>
</a>
</g>
</g>
<!-- Node2 -->
<g id="Node000002" class="node">
<title>Node2</title>
<g id="a_Node000002"><a xlink:href="classduvc_1_1Camera.html#afb78983227d8207306746d433c9fa570" target="_top" xlink:title="Create camera handle by device index.">
<polygon fill="white" stroke="#666666" points="288.88,-751 170.88,-751 170.88,-731 288.88,-731 288.88,-751"/>
<text xml:space="preserve" text-anchor="middle" x="229.88" y="-737.5" font-family="Helvetica,sans-Serif" font-size="10.00">duvc::Camera::Camera</text>
</a>
</g>
</g>
<!-- Node1&#45;&gt;Node2 -->
<g id="edge1_Node000001_Node000002" class="edge">
<title>Node1&#45;&gt;Node2</title>
<g id="a_edge1_Node000001_Node000002"><a xlink:title=" ">
<path fill="none" stroke="#63b8ff" d="M383.71,-496.61C381.04,-544.5 367.74,-660.14 302,-722 298.18,-725.59 293.77,-728.52 289.04,-730.9"/>
<polygon fill="#63b8ff" stroke="#63b8ff" points="387.2,-496.9 384.15,-486.76 380.21,-496.6 387.2,-496.9"/>
</a>
</g>
</g>
<!-- Node3 -->
<g id="Node000003" class="node">
<title>Node3</title>
<g id="a_Node000003"><a xlink:href="bindings_8cpp.html#a2eeaa75b5bece22f8ece44907ed9f569" target="_top" xlink:title=" ">
<polygon fill="white" stroke="#666666" points="269.75,-713 190,-713 190,-693 269.75,-693 269.75,-713"/>
<text xml:space="preserve" text-anchor="middle" x="229.88" y="-699.5" font-family="Helvetica,sans-Serif" font-size="10.00">duvc_cam_get</text>
</a>
</g>
</g>
<!-- Node1&#45;&gt;Node3 -->
<g id="edge2_Node000001_Node000003" class="edge">
<title>Node1&#45;&gt;Node3</title>
<g id="a_edge2_Node000001_Node000003"><a xlink:title=" ">
<path fill="none" stroke="#63b8ff" d="M382.23,-496.42C376.82,-538.77 358.72,-633.43 302,-684 293.22,-691.83 281.57,-696.48 270.24,-699.23"/>
<polygon fill="#63b8ff" stroke="#63b8ff" points="385.7,-496.91 383.36,-486.57 378.74,-496.11 385.7,-496.91"/>
</a>
</g>
</g>
<!-- Node4 -->
<g id="Node000004" class="node">
<title>Node4</title>
<g id="a_Node000004"><a xlink:href="bindings_8cpp.html#a7e5b8b6d1b9f093497e11e827ee56004" target="_top" xlink:title=" ">
<polygon fill="white" stroke="#666666" points="284.38,-675 175.38,-675 175.38,-655 284.38,-655 284.38,-675"/>
<text xml:space="preserve" text-anchor="middle" x="229.88" y="-661.5" font-family="Helvetica,sans-Serif" font-size="10.00">duvc_cam_get_range</text>
</a>
</g>
</g>
<!-- Node1&#45;&gt;Node4 -->
<g id="edge3_Node000001_Node000004" class="edge">
<title>Node1&#45;&gt;Node4</title>
<g id="a_edge3_Node000001_Node000004"><a xlink:title=" ">
<path fill="none" stroke="#63b8ff" d="M380.11,-496.51C371.74,-532.91 349.68,-606.53 302,-646 296.88,-650.24 290.91,-653.54 284.64,-656.11"/>
<polygon fill="#63b8ff" stroke="#63b8ff" points="383.52,-497.3 382.2,-486.78 376.67,-495.83 383.52,-497.3"/>
</a>
</g>
</g>
<!-- Node5 -->
<g id="Node000005" class="node">
<title>Node5</title>
<g id="a_Node000005"><a xlink:href="bindings_8cpp.html#a58f06af7a7bba166129e38505c2afd4d" target="_top" xlink:title=" ">
<polygon fill="white" stroke="#666666" points="269.75,-637 190,-637 190,-617 269.75,-617 269.75,-637"/>
<text xml:space="preserve" text-anchor="middle" x="229.88" y="-623.5" font-family="Helvetica,sans-Serif" font-size="10.00">duvc_cam_set</text>
</a>
</g>
</g>
<!-- Node1&#45;&gt;Node5 -->
<g id="edge4_Node000001_Node000005" class="edge">
<title>Node1&#45;&gt;Node5</title>
<g id="a_edge4_Node000001_Node000005"><a xlink:title=" ">
<path fill="none" stroke="#63b8ff" d="M377.15,-495.85C365.84,-525.36 341.1,-578.97 302,-608 292.76,-614.86 281.23,-619.24 270.16,-622.04"/>
<polygon fill="#63b8ff" stroke="#63b8ff" points="380.4,-497.16 380.55,-486.57 373.82,-494.76 380.4,-497.16"/>
</a>
</g>
</g>
<!-- Node6 -->
<g id="Node000006" class="node">
<title>Node6</title>
<g id="a_Node000006"><a xlink:href="bindings_8cpp.html#a7eae96ab0b9ad48d78466336076360e0" target="_top" xlink:title=" ">
<polygon fill="white" stroke="#666666" points="289.25,-599 170.5,-599 170.5,-579 289.25,-579 289.25,-599"/>
<text xml:space="preserve" text-anchor="middle" x="229.88" y="-585.5" font-family="Helvetica,sans-Serif" font-size="10.00">duvc_get_device_count</text>
</a>
</g>
</g>
<!-- Node1&#45;&gt;Node6 -->
<g id="edge5_Node000001_Node000006" class="edge">
<title>Node1&#45;&gt;Node6</title>
<g id="a_edge5_Node000001_Node000006"><a xlink:title=" ">
<path fill="none" stroke="#63b8ff" d="M372.35,-494.9C358.2,-516.61 332.7,-550.81 302,-570 296.47,-573.46 290.33,-576.29 284.02,-578.61"/>
<polygon fill="#63b8ff" stroke="#63b8ff" points="375.18,-496.98 377.55,-486.65 369.25,-493.24 375.18,-496.98"/>
</a>
</g>
</g>
<!-- Node7 -->
<g id="Node000007" class="node">
<title>Node7</title>
<g id="a_Node000007"><a xlink:href="bindings_8cpp.html#a56e6df6631c2fb647fcb3a8641bc8e49" target="_top" xlink:title=" ">
<polygon fill="white" stroke="#666666" points="289.25,-561 170.5,-561 170.5,-541 289.25,-541 289.25,-561"/>
<text xml:space="preserve" text-anchor="middle" x="229.88" y="-547.5" font-family="Helvetica,sans-Serif" font-size="10.00">duvc_get_device_name</text>
</a>
</g>
</g>
<!-- Node1&#45;&gt;Node7 -->
<g id="edge6_Node000001_Node000007" class="edge">
<title>Node1&#45;&gt;Node7</title>
<g id="a_edge6_Node000001_Node000007"><a xlink:title=" ">
<path fill="none" stroke="#63b8ff" d="M363.4,-492.56C347.45,-505.13 324.48,-521.6 302,-532 294.81,-535.33 286.93,-538.16 279.11,-540.53"/>
<polygon fill="#63b8ff" stroke="#63b8ff" points="365.6,-495.28 371.18,-486.28 361.2,-489.84 365.6,-495.28"/>
</a>
</g>
</g>
<!-- Node8 -->
<g id="Node000008" class="node">
<title>Node8</title>
<g id="a_Node000008"><a xlink:href="bindings_8cpp.html#a96f4ab988208d0f8432d7134f367283b" target="_top" xlink:title=" ">
<polygon fill="white" stroke="#666666" points="286.62,-523 173.12,-523 173.12,-503 286.62,-503 286.62,-523"/>
<text xml:space="preserve" text-anchor="middle" x="229.88" y="-509.5" font-family="Helvetica,sans-Serif" font-size="10.00">duvc_get_device_path</text>
</a>
</g>
</g>
<!-- Node1&#45;&gt;Node8 -->
<g id="edge7_Node000001_Node000008" class="edge">
<title>Node1&#45;&gt;Node8</title>
<g id="a_edge7_Node000001_Node000008"><a xlink:title=" ">
<path fill="none" stroke="#63b8ff" d="M330.86,-488.25C311.94,-492.93 290.94,-498.13 273.09,-502.55"/>
<polygon fill="#63b8ff" stroke="#63b8ff" points="331.69,-491.65 340.55,-485.85 330.01,-484.85 331.69,-491.65"/>
</a>
</g>
</g>
<!-- Node9 -->
<g id="Node000009" class="node">
<title>Node9</title>
<g id="a_Node000009"><a xlink:href="bindings_8cpp.html#ae6c4b34fa8f4bfc8b53488ce2fccad7b" target="_top" xlink:title=" ">
<polygon fill="white" stroke="#666666" points="296.75,-485 163,-485 163,-465 296.75,-465 296.75,-485"/>
<text xml:space="preserve" text-anchor="middle" x="229.88" y="-471.5" font-family="Helvetica,sans-Serif" font-size="10.00">duvc_is_device_connected</text>
</a>
</g>
</g>
<!-- Node1&#45;&gt;Node9 -->
<g id="edge8_Node000001_Node000009" class="edge">
<title>Node1&#45;&gt;Node9</title>
<g id="a_edge8_Node000001_Node000009"><a xlink:title=" ">
<path fill="none" stroke="#63b8ff" d="M326.44,-475C316.83,-475 306.8,-475 297.01,-475"/>
<polygon fill="#63b8ff" stroke="#63b8ff" points="326.39,-478.5 336.39,-475 326.39,-471.5 326.39,-478.5"/>
</a>
</g>
</g>
<!-- Node10 -->
<g id="Node000010" class="node">
<title>Node10</title>
<g id="a_Node000010"><a xlink:href="api_8cpp.html#a4858259a9c4d23ce0d671b52615c3e74" target="_top" xlink:title="List all connected devices.">
<polygon fill="white" stroke="#666666" points="276.88,-447 182.88,-447 182.88,-427 276.88,-427 276.88,-447"/>
<text xml:space="preserve" text-anchor="middle" x="229.88" y="-433.5" font-family="Helvetica,sans-Serif" font-size="10.00">duvc_list_devices</text>
</a>
</g>
</g>
<!-- Node1&#45;&gt;Node10 -->
<g id="edge9_Node000001_Node000010" class="edge">
<title>Node1&#45;&gt;Node10</title>
<g id="a_edge9_Node000001_Node000010"><a xlink:title=" ">
<path fill="none" stroke="#63b8ff" d="M330.86,-461.75C311.94,-457.07 290.94,-451.87 273.09,-447.45"/>
<polygon fill="#63b8ff" stroke="#63b8ff" points="330.01,-465.15 340.55,-464.15 331.69,-458.35 330.01,-465.15"/>
</a>
</g>
</g>
<!-- Node11 -->
<g id="Node000011" class="node">
<title>Node11</title>
<g id="a_Node000011"><a xlink:href="bindings_8cpp.html#a447135500d1651a64fc752ea40d3f2ec" target="_top" xlink:title=" ">
<polygon fill="white" stroke="#666666" points="285.5,-409 174.25,-409 174.25,-389 285.5,-389 285.5,-409"/>
<text xml:space="preserve" text-anchor="middle" x="229.88" y="-395.5" font-family="Helvetica,sans-Serif" font-size="10.00">duvc_refresh_devices</text>
</a>
</g>
</g>
<!-- Node1&#45;&gt;Node11 -->
<g id="edge10_Node000001_Node000011" class="edge">
<title>Node1&#45;&gt;Node11</title>
<g id="a_edge10_Node000001_Node000011"><a xlink:title=" ">
<path fill="none" stroke="#63b8ff" d="M363.4,-457.44C347.45,-444.87 324.48,-428.4 302,-418 294.81,-414.67 286.93,-411.84 279.11,-409.47"/>
<polygon fill="#63b8ff" stroke="#63b8ff" points="361.2,-460.16 371.18,-463.72 365.6,-454.72 361.2,-460.16"/>
</a>
</g>
</g>
<!-- Node12 -->
<g id="Node000012" class="node">
<title>Node12</title>
<g id="a_Node000012"><a xlink:href="bindings_8cpp.html#a2ef0f3ef211dffa60691ec69734cb8ba" target="_top" xlink:title=" ">
<polygon fill="white" stroke="#666666" points="266.75,-371 193,-371 193,-351 266.75,-351 266.75,-371"/>
<text xml:space="preserve" text-anchor="middle" x="229.88" y="-357.5" font-family="Helvetica,sans-Serif" font-size="10.00">duvc_vid_get</text>
</a>
</g>
</g>
<!-- Node1&#45;&gt;Node12 -->
<g id="edge11_Node000001_Node000012" class="edge">
<title>Node1&#45;&gt;Node12</title>
<g id="a_edge11_Node000001_Node000012"><a xlink:title=" ">
<path fill="none" stroke="#63b8ff" d="M372.35,-455.1C358.2,-433.39 332.7,-399.19 302,-380 291.49,-373.43 278.73,-369.11 266.94,-366.28"/>
<polygon fill="#63b8ff" stroke="#63b8ff" points="369.25,-456.76 377.55,-463.35 375.18,-453.02 369.25,-456.76"/>
</a>
</g>
</g>
<!-- Node13 -->
<g id="Node000013" class="node">
<title>Node13</title>
<g id="a_Node000013"><a xlink:href="bindings_8cpp.html#afeb5120c76b876c78b2d47af23770647" target="_top" xlink:title=" ">
<polygon fill="white" stroke="#666666" points="281.38,-333 178.38,-333 178.38,-313 281.38,-313 281.38,-333"/>
<text xml:space="preserve" text-anchor="middle" x="229.88" y="-319.5" font-family="Helvetica,sans-Serif" font-size="10.00">duvc_vid_get_range</text>
</a>
</g>
</g>
<!-- Node1&#45;&gt;Node13 -->
<g id="edge12_Node000001_Node000013" class="edge">
<title>Node1&#45;&gt;Node13</title>
<g id="a_edge12_Node000001_Node000013"><a xlink:title=" ">
<path fill="none" stroke="#63b8ff" d="M377.15,-454.15C365.84,-424.64 341.1,-371.03 302,-342 295.95,-337.5 288.9,-334.07 281.65,-331.45"/>
<polygon fill="#63b8ff" stroke="#63b8ff" points="373.82,-455.24 380.55,-463.43 380.4,-452.84 373.82,-455.24"/>
</a>
</g>
</g>
<!-- Node14 -->
<g id="Node000014" class="node">
<title>Node14</title>
<g id="a_Node000014"><a xlink:href="bindings_8cpp.html#a2e76b2547f3ee2427b1cf27ad9b358d6" target="_top" xlink:title=" ">
<polygon fill="white" stroke="#666666" points="266.75,-295 193,-295 193,-275 266.75,-275 266.75,-295"/>
<text xml:space="preserve" text-anchor="middle" x="229.88" y="-281.5" font-family="Helvetica,sans-Serif" font-size="10.00">duvc_vid_set</text>
</a>
</g>
</g>
<!-- Node1&#45;&gt;Node14 -->
<g id="edge13_Node000001_Node000014" class="edge">
<title>Node1&#45;&gt;Node14</title>
<g id="a_edge13_Node000001_Node000014"><a xlink:title=" ">
<path fill="none" stroke="#63b8ff" d="M380.11,-453.49C371.74,-417.09 349.68,-343.47 302,-304 292.15,-295.85 279.15,-291.17 266.95,-288.49"/>
<polygon fill="#63b8ff" stroke="#63b8ff" points="376.67,-454.17 382.2,-463.22 383.52,-452.7 376.67,-454.17"/>
</a>
</g>
</g>
<!-- Node15 -->
<g id="Node000015" class="node">
<title>Node15</title>
<g id="a_Node000015"><a xlink:href="namespaceduvc.html#a0af4366057ae8014aee4989ab3fd7671" target="_top" xlink:title="Create device capability snapshot by index.">
<polygon fill="white" stroke="#666666" points="302,-257 157.75,-257 157.75,-237 302,-237 302,-257"/>
<text xml:space="preserve" text-anchor="middle" x="229.88" y="-243.5" font-family="Helvetica,sans-Serif" font-size="10.00">duvc::get_device_capabilities</text>
</a>
</g>
</g>
<!-- Node1&#45;&gt;Node15 -->
<g id="edge14_Node000001_Node000015" class="edge">
<title>Node1&#45;&gt;Node15</title>
<g id="a_edge14_Node000001_Node000015"><a xlink:title=" ">
<path fill="none" stroke="#63b8ff" d="M382.23,-453.58C376.82,-411.23 358.72,-316.57 302,-266 298.18,-262.6 293.82,-259.79 289.18,-257.49"/>
<polygon fill="#63b8ff" stroke="#63b8ff" points="378.74,-453.89 383.36,-463.43 385.7,-453.09 378.74,-453.89"/>
</a>
</g>
</g>
<!-- Node16 -->
<g id="Node000016" class="node">
<title>Node16</title>
<g id="a_Node000016"><a xlink:href="namespaceduvc.html#ac682048b44b6b2ee33d99dd460c24f25" target="_top" xlink:title="Create camera from device index.">
<polygon fill="white" stroke="#666666" points="280.62,-201 179.12,-201 179.12,-181 280.62,-181 280.62,-201"/>
<text xml:space="preserve" text-anchor="middle" x="229.88" y="-187.5" font-family="Helvetica,sans-Serif" font-size="10.00">duvc::open_camera</text>
</a>
</g>
</g>
<!-- Node1&#45;&gt;Node16 -->
<g id="edge15_Node000001_Node000016" class="edge">
<title>Node1&#45;&gt;Node16</title>
<g id="a_edge15_Node000001_Node000016"><a xlink:title=" ">
<path fill="none" stroke="#63b8ff" d="M382.58,-453.44C377.67,-407 360.21,-296.2 302,-228 291.7,-215.93 276.47,-207.27 262.74,-201.38"/>
<polygon fill="#63b8ff" stroke="#63b8ff" points="379.08,-453.61 383.51,-463.24 386.05,-452.95 379.08,-453.61"/>
</a>
</g>
</g>
<!-- Node16&#45;&gt;Node16 -->
<g id="edge24_Node000016_Node000016" class="edge">
<title>Node16&#45;&gt;Node16</title>
<g id="a_edge24_Node000016_Node000016"><a xlink:title=" ">
<path fill="none" stroke="#63b8ff" d="M257.36,-212.44C253.82,-216.3 244.66,-219 229.88,-219 202.84,-219 194.61,-209.98 205.17,-201.34"/>
<polygon fill="#63b8ff" stroke="#63b8ff" points="260.77,-211.66 254.95,-202.81 253.98,-213.36 260.77,-211.66"/>
</a>
</g>
</g>
<!-- Node17 -->
<g id="Node000017" class="node">
<title>Node17</title>
<g id="a_Node000017"><a xlink:href="api_8cpp.html#a6c818dfe0ce43fce1ac013dcfcc97ab6" target="_top" xlink:title="Open camera by device handle.">
<polygon fill="white" stroke="#666666" points="111.25,-370 10.5,-370 10.5,-350 111.25,-350 111.25,-370"/>
<text xml:space="preserve" text-anchor="middle" x="60.88" y="-356.5" font-family="Helvetica,sans-Serif" font-size="10.00">duvc_open_camera</text>
</a>
</g>
</g>
<!-- Node16&#45;&gt;Node17 -->
<g id="edge16_Node000016_Node000017" class="edge">
<title>Node16&#45;&gt;Node17</title>
<g id="a_edge16_Node000016_Node000017"><a xlink:title=" ">
<path fill="none" stroke="#63b8ff" d="M186.17,-206.41C175.71,-211.87 165.35,-218.98 157.75,-228 123.8,-268.32 159.04,-303.75 121.75,-341 118.28,-344.47 114.18,-347.3 109.77,-349.62"/>
<polygon fill="#63b8ff" stroke="#63b8ff" points="187.67,-209.57 195.2,-202.12 184.67,-203.24 187.67,-209.57"/>
</a>
</g>
</g>
<!-- Node18 -->
<g id="Node000018" class="node">
<title>Node18</title>
<g id="a_Node000018"><a xlink:href="api_8cpp.html#af3c0339eb2da66e4c693795c1e516a94" target="_top" xlink:title="Open camera by device index.">
<polygon fill="white" stroke="#666666" points="119.12,-332 2.62,-332 2.62,-300 119.12,-300 119.12,-332"/>
<text xml:space="preserve" text-anchor="start" x="10.62" y="-318.5" font-family="Helvetica,sans-Serif" font-size="10.00">duvc_open_camera_by</text>
<text xml:space="preserve" text-anchor="middle" x="60.88" y="-306.5" font-family="Helvetica,sans-Serif" font-size="10.00">_index</text>
</a>
</g>
</g>
<!-- Node16&#45;&gt;Node18 -->
<g id="edge17_Node000016_Node000018" class="edge">
<title>Node16&#45;&gt;Node18</title>
<g id="a_edge17_Node000016_Node000018"><a xlink:title=" ">
<path fill="none" stroke="#63b8ff" d="M190.03,-206.2C178.73,-211.87 166.97,-219.14 157.75,-228 134.5,-250.35 145.92,-269.65 121.75,-291 118.12,-294.21 114.02,-297.04 109.71,-299.54"/>
<polygon fill="#63b8ff" stroke="#63b8ff" points="191.24,-209.49 198.81,-202.07 188.27,-203.15 191.24,-209.49"/>
</a>
</g>
</g>
<!-- Node19 -->
<g id="Node000019" class="node">
<title>Node19</title>
<g id="a_Node000019"><a xlink:href="api_8cpp.html#a3bb63900ee185ff762cb5202213dcb44" target="_top" xlink:title="Quick get camera property (creates temporary connection)">
<polygon fill="white" stroke="#666666" points="121.75,-282 0,-282 0,-250 121.75,-250 121.75,-282"/>
<text xml:space="preserve" text-anchor="start" x="8" y="-268.5" font-family="Helvetica,sans-Serif" font-size="10.00">duvc_quick_get_camera</text>
<text xml:space="preserve" text-anchor="middle" x="60.88" y="-256.5" font-family="Helvetica,sans-Serif" font-size="10.00">_property</text>
</a>
</g>
</g>
<!-- Node16&#45;&gt;Node19 -->
<g id="edge18_Node000016_Node000019" class="edge">
<title>Node16&#45;&gt;Node19</title>
<g id="a_edge18_Node000016_Node000019"><a xlink:title=" ">
<path fill="none" stroke="#63b8ff" d="M196.87,-206.36C175.67,-216.43 147.17,-229.77 121.75,-241 115.36,-243.82 108.56,-246.75 101.91,-249.55"/>
<polygon fill="#63b8ff" stroke="#63b8ff" points="198.36,-209.53 205.88,-202.07 195.35,-203.21 198.36,-209.53"/>
</a>
</g>
</g>
<!-- Node20 -->
<g id="Node000020" class="node">
<title>Node20</title>
<g id="a_Node000020"><a xlink:href="api_8cpp.html#a563caf7299afef6db2be80775ec7045b" target="_top" xlink:title="Quick get camera property range.">
<polygon fill="white" stroke="#666666" points="121.75,-232 0,-232 0,-200 121.75,-200 121.75,-232"/>
<text xml:space="preserve" text-anchor="start" x="8" y="-218.5" font-family="Helvetica,sans-Serif" font-size="10.00">duvc_quick_get_camera</text>
<text xml:space="preserve" text-anchor="middle" x="60.88" y="-206.5" font-family="Helvetica,sans-Serif" font-size="10.00">_property_range</text>
</a>
</g>
</g>
<!-- Node16&#45;&gt;Node20 -->
<g id="edge19_Node000016_Node000020" class="edge">
<title>Node16&#45;&gt;Node20</title>
<g id="a_edge19_Node000016_Node000020"><a xlink:title=" ">
<path fill="none" stroke="#63b8ff" d="M167.61,-200.17C152.72,-202.4 136.8,-204.78 121.96,-207"/>
<polygon fill="#63b8ff" stroke="#63b8ff" points="167.9,-203.67 177.27,-198.72 166.86,-196.74 167.9,-203.67"/>
</a>
</g>
</g>
<!-- Node21 -->
<g id="Node000021" class="node">
<title>Node21</title>
<g id="a_Node000021"><a xlink:href="api_8cpp.html#ac2450ac31290e5083614c732b6586c6d" target="_top" xlink:title="Quick get video property.">
<polygon fill="white" stroke="#666666" points="117.25,-182 4.5,-182 4.5,-150 117.25,-150 117.25,-182"/>
<text xml:space="preserve" text-anchor="start" x="12.5" y="-168.5" font-family="Helvetica,sans-Serif" font-size="10.00">duvc_quick_get_video</text>
<text xml:space="preserve" text-anchor="middle" x="60.88" y="-156.5" font-family="Helvetica,sans-Serif" font-size="10.00">_property</text>
</a>
</g>
</g>
<!-- Node16&#45;&gt;Node21 -->
<g id="edge20_Node000016_Node000021" class="edge">
<title>Node16&#45;&gt;Node21</title>
<g id="a_edge20_Node000016_Node000021"><a xlink:title=" ">
<path fill="none" stroke="#63b8ff" d="M167.64,-181.83C151.23,-179.38 133.58,-176.73 117.49,-174.33"/>
<polygon fill="#63b8ff" stroke="#63b8ff" points="166.86,-185.26 177.27,-183.28 167.9,-178.33 166.86,-185.26"/>
</a>
</g>
</g>
<!-- Node22 -->
<g id="Node000022" class="node">
<title>Node22</title>
<g id="a_Node000022"><a xlink:href="api_8cpp.html#a993684c5701505045bdb13709872300b" target="_top" xlink:title="Quick get video property range.">
<polygon fill="white" stroke="#666666" points="117.25,-132 4.5,-132 4.5,-100 117.25,-100 117.25,-132"/>
<text xml:space="preserve" text-anchor="start" x="12.5" y="-118.5" font-family="Helvetica,sans-Serif" font-size="10.00">duvc_quick_get_video</text>
<text xml:space="preserve" text-anchor="middle" x="60.88" y="-106.5" font-family="Helvetica,sans-Serif" font-size="10.00">_property_range</text>
</a>
</g>
</g>
<!-- Node16&#45;&gt;Node22 -->
<g id="edge21_Node000016_Node000022" class="edge">
<title>Node16&#45;&gt;Node22</title>
<g id="a_edge21_Node000016_Node000022"><a xlink:title=" ">
<path fill="none" stroke="#63b8ff" d="M196.87,-175.64C175.67,-165.57 147.17,-152.23 121.75,-141 115.36,-138.18 108.56,-135.25 101.91,-132.45"/>
<polygon fill="#63b8ff" stroke="#63b8ff" points="195.35,-178.79 205.88,-179.93 198.36,-172.47 195.35,-178.79"/>
</a>
</g>
</g>
<!-- Node23 -->
<g id="Node000023" class="node">
<title>Node23</title>
<g id="a_Node000023"><a xlink:href="api_8cpp.html#ab4d738bc8b5e468bfa9ecd3e27395815" target="_top" xlink:title="Quick set camera property (creates temporary connection)">
<polygon fill="white" stroke="#666666" points="121.75,-82 0,-82 0,-50 121.75,-50 121.75,-82"/>
<text xml:space="preserve" text-anchor="start" x="8" y="-68.5" font-family="Helvetica,sans-Serif" font-size="10.00">duvc_quick_set_camera</text>
<text xml:space="preserve" text-anchor="middle" x="60.88" y="-56.5" font-family="Helvetica,sans-Serif" font-size="10.00">_property</text>
</a>
</g>
</g>
<!-- Node16&#45;&gt;Node23 -->
<g id="edge22_Node000016_Node000023" class="edge">
<title>Node16&#45;&gt;Node23</title>
<g id="a_edge22_Node000016_Node000023"><a xlink:title=" ">
<path fill="none" stroke="#63b8ff" d="M212.64,-172.23C192.94,-150.38 157.85,-114.3 121.75,-91 116.92,-87.88 111.64,-85.02 106.28,-82.42"/>
<polygon fill="#63b8ff" stroke="#63b8ff" points="209.84,-174.36 219.1,-179.52 215.08,-169.71 209.84,-174.36"/>
</a>
</g>
</g>
<!-- Node24 -->
<g id="Node000024" class="node">
<title>Node24</title>
<g id="a_Node000024"><a xlink:href="api_8cpp.html#ac5c65a93003977ce563d8a5c1379745c" target="_top" xlink:title="Quick set video property.">
<polygon fill="white" stroke="#666666" points="117.25,-32 4.5,-32 4.5,0 117.25,0 117.25,-32"/>
<text xml:space="preserve" text-anchor="start" x="12.5" y="-18.5" font-family="Helvetica,sans-Serif" font-size="10.00">duvc_quick_set_video</text>
<text xml:space="preserve" text-anchor="middle" x="60.88" y="-6.5" font-family="Helvetica,sans-Serif" font-size="10.00">_property</text>
</a>
</g>
</g>
<!-- Node16&#45;&gt;Node24 -->
<g id="edge23_Node000016_Node000024" class="edge">
<title>Node16&#45;&gt;Node24</title>
<g id="a_edge23_Node000016_Node000024"><a xlink:title=" ">
<path fill="none" stroke="#63b8ff" d="M219.01,-170.51C202.79,-138.78 167.66,-77.6 121.75,-41 117.7,-37.77 113.17,-34.89 108.47,-32.35"/>
<polygon fill="#63b8ff" stroke="#63b8ff" points="215.85,-172.02 223.44,-179.42 222.11,-168.91 215.85,-172.02"/>
</a>
</g>
</g>
</g>
</svg>
