<?xml version="1.0" encoding="UTF-8" standalone="no"?>
<!DOCTYPE svg PUBLIC "-//W3C//DTD SVG 1.1//EN"
 "http://www.w3.org/Graphics/SVG/1.1/DTD/svg11.dtd">
<!-- Generated by graphviz version 14.0.2 (20251019.1705)
 -->
<!-- Title: duvc::open_device_filter Pages: 1 -->
<svg width="297pt" height="216pt"
 viewBox="0.00 0.00 297.00 216.00" xmlns="http://www.w3.org/2000/svg" xmlns:xlink="http://www.w3.org/1999/xlink">

<svg id="main" version="1.1" xmlns="http://www.w3.org/2000/svg" xmlns:xlink="http://www.w3.org/1999/xlink" xml:space="preserve" onload="init(evt)">
<style type="text/css"><![CDATA[
.node, .edge {opacity: 0.7;}
.node.selected, .edge.selected {opacity: 1;}
.edge:hover path { stroke: red; }
.edge:hover polygon { stroke: red; fill: red; }
]]></style>
<script type="application/ecmascript" xlink:href="svg.min.js"/>
<svg id="graph" class="graph">
<g id="graph0" class="graph" transform="scale(1 1) rotate(0) translate(4 212)">
<title>duvc::open_device_filter</title>
<!-- Node1 -->
<g id="Node000001" class="node">
<title>Node1</title>
<g id="a_Node000001"><a xlink:title="Create DirectShow filter from device.">
<polygon fill="#999999" stroke="#666666" points="289.25,-114 167.5,-114 167.5,-94 289.25,-94 289.25,-114"/>
<text xml:space="preserve" text-anchor="middle" x="228.38" y="-100.5" font-family="Helvetica,sans-Serif" font-size="10.00">duvc::open_device_filter</text>
</a>
</g>
</g>
<!-- Node2 -->
<g id="Node000002" class="node">
<title>Node2</title>
<g id="a_Node000002"><a xlink:href="classduvc_1_1DeviceConnection.html#a4afc9b6ddaeb6ffdcfcda94dd14f6dbc" target="_top" xlink:title=" ">
<polygon fill="white" stroke="#666666" points="127.38,-208 4.12,-208 4.12,-176 127.38,-176 127.38,-208"/>
<text xml:space="preserve" text-anchor="start" x="12.12" y="-194.5" font-family="Helvetica,sans-Serif" font-size="10.00">duvc::DeviceConnection</text>
<text xml:space="preserve" text-anchor="middle" x="65.75" y="-182.5" font-family="Helvetica,sans-Serif" font-size="10.00">::DeviceConnection</text>
</a>
</g>
</g>
<!-- Node1&#45;&gt;Node2 -->
<g id="edge1_Node000001_Node000002" class="edge">
<title>Node1&#45;&gt;Node2</title>
<g id="a_edge1_Node000001_Node000002"><a xlink:title=" ">
<path fill="none" stroke="#63b8ff" d="M204.38,-121.12C185.47,-134.7 157.62,-153.57 131.5,-167 125.61,-170.03 119.26,-172.91 112.92,-175.57"/>
<polygon fill="#63b8ff" stroke="#63b8ff" points="206.4,-123.98 212.43,-115.26 202.28,-118.32 206.4,-123.98"/>
</a>
</g>
</g>
<!-- Node3 -->
<g id="Node000003" class="node">
<title>Node3</title>
<g id="a_Node000003"><a xlink:href="namespaceduvc.html#aa019a1c9788c84f47348db3f03b25d42" target="_top" xlink:title="Get vendor&#45;specific property data from device.">
<polygon fill="white" stroke="#666666" points="131.5,-158 0,-158 0,-138 131.5,-138 131.5,-158"/>
<text xml:space="preserve" text-anchor="middle" x="65.75" y="-144.5" font-family="Helvetica,sans-Serif" font-size="10.00">duvc::get_vendor_property</text>
</a>
</g>
</g>
<!-- Node1&#45;&gt;Node3 -->
<g id="edge2_Node000001_Node000003" class="edge">
<title>Node1&#45;&gt;Node3</title>
<g id="a_edge2_Node000001_Node000003"><a xlink:title=" ">
<path fill="none" stroke="#63b8ff" d="M178.44,-117.4C154.8,-123.88 126.85,-131.54 104.82,-137.57"/>
<polygon fill="#63b8ff" stroke="#63b8ff" points="179.13,-120.84 187.85,-114.83 177.28,-114.09 179.13,-120.84"/>
</a>
</g>
</g>
<!-- Node4 -->
<g id="Node000004" class="node">
<title>Node4</title>
<g id="a_Node000004"><a xlink:href="classduvc_1_1KsPropertySet.html#aac9242599b92d9f1880f63f2256c72e3" target="_top" xlink:title="Create KsPropertySet from device.">
<polygon fill="white" stroke="#666666" points="119.12,-120 12.38,-120 12.38,-88 119.12,-88 119.12,-120"/>
<text xml:space="preserve" text-anchor="start" x="20.38" y="-106.5" font-family="Helvetica,sans-Serif" font-size="10.00">duvc::KsPropertySet</text>
<text xml:space="preserve" text-anchor="middle" x="65.75" y="-94.5" font-family="Helvetica,sans-Serif" font-size="10.00">::KsPropertySet</text>
</a>
</g>
</g>
<!-- Node1&#45;&gt;Node4 -->
<g id="edge3_Node000001_Node000004" class="edge">
<title>Node1&#45;&gt;Node4</title>
<g id="a_edge3_Node000001_Node000004"><a xlink:title=" ">
<path fill="none" stroke="#63b8ff" d="M155.95,-104C143.67,-104 131.11,-104 119.44,-104"/>
<polygon fill="#63b8ff" stroke="#63b8ff" points="155.59,-107.5 165.59,-104 155.59,-100.5 155.59,-107.5"/>
</a>
</g>
</g>
<!-- Node5 -->
<g id="Node000005" class="node">
<title>Node5</title>
<g id="a_Node000005"><a xlink:href="namespaceduvc.html#a5ddd570cc76e8dbdef26ad18660ddb07" target="_top" xlink:title="Query whether device supports a vendor&#45;specific property.">
<polygon fill="white" stroke="#666666" points="116.5,-70 15,-70 15,-38 116.5,-38 116.5,-70"/>
<text xml:space="preserve" text-anchor="start" x="23" y="-56.5" font-family="Helvetica,sans-Serif" font-size="10.00">duvc::query_vendor</text>
<text xml:space="preserve" text-anchor="middle" x="65.75" y="-44.5" font-family="Helvetica,sans-Serif" font-size="10.00">_property_support</text>
</a>
</g>
</g>
<!-- Node1&#45;&gt;Node5 -->
<g id="edge4_Node000001_Node000005" class="edge">
<title>Node1&#45;&gt;Node5</title>
<g id="a_edge4_Node000001_Node000005"><a xlink:title=" ">
<path fill="none" stroke="#63b8ff" d="M182.78,-90.12C162.31,-83.75 137.95,-76.16 116.86,-69.6"/>
<polygon fill="#63b8ff" stroke="#63b8ff" points="181.67,-93.44 192.26,-93.07 183.75,-86.75 181.67,-93.44"/>
</a>
</g>
</g>
<!-- Node6 -->
<g id="Node000006" class="node">
<title>Node6</title>
<g id="a_Node000006"><a xlink:href="namespaceduvc.html#ab333863cefef68546e2e235527fe3b5c" target="_top" xlink:title="Set vendor&#45;specific property data on device.">
<polygon fill="white" stroke="#666666" points="131.5,-20 0,-20 0,0 131.5,0 131.5,-20"/>
<text xml:space="preserve" text-anchor="middle" x="65.75" y="-6.5" font-family="Helvetica,sans-Serif" font-size="10.00">duvc::set_vendor_property</text>
</a>
</g>
</g>
<!-- Node1&#45;&gt;Node6 -->
<g id="edge5_Node000001_Node000006" class="edge">
<title>Node1&#45;&gt;Node6</title>
<g id="a_edge5_Node000001_Node000006"><a xlink:title=" ">
<path fill="none" stroke="#63b8ff" d="M208.83,-85.96C190.54,-69.06 161.09,-44.2 131.5,-29 125.04,-25.68 117.91,-22.85 110.82,-20.48"/>
<polygon fill="#63b8ff" stroke="#63b8ff" points="206.32,-88.4 216,-92.72 211.12,-83.31 206.32,-88.4"/>
</a>
</g>
</g>
</g>
</svg>
</svg>

<style type='text/css'>
<![CDATA[
[data-mouse-over-selected='false'] { opacity: 0.7; }
[data-mouse-over-selected='true']  { opacity: 1.0; }
]]>
</style>
<script type="application/ecmascript"><![CDATA[
document.addEventListener('DOMContentLoaded', (event) => {
  highlightEdges();
  highlightAdjacentNodes();
});
]]></script>
</svg>
