<?xml version="1.0" encoding="UTF-8" standalone="no"?>
<!DOCTYPE svg PUBLIC "-//W3C//DTD SVG 1.1//EN"
 "http://www.w3.org/Graphics/SVG/1.1/DTD/svg11.dtd">
<!-- Generated by graphviz version 14.0.2 (20251019.1705)
 -->
<!-- Title: duvc::get_cached_connection Pages: 1 -->
<!--zoomable 260 -->

<svg id="main" version="1.1" xmlns="http://www.w3.org/2000/svg" xmlns:xlink="http://www.w3.org/1999/xlink" xml:space="preserve" onload="init(evt)">
<style type="text/css"><![CDATA[
.node, .edge {opacity: 0.7;}
.node.selected, .edge.selected {opacity: 1;}
.edge:hover path { stroke: red; }
.edge:hover polygon { stroke: red; fill: red; }
]]></style>

<defs>
  <circle id="rim" cx="0" cy="0" r="7"/>
  <circle id="rim2" cx="0" cy="0" r="3.5"/>
  <g id="zoomPlus">
    <use xlink:href="#rim" fill="#404040"><set attributeName="fill" to="#808080" begin="zoomplus.mouseover" end="zoomplus.mouseout"/></use>
    <path d="M-4,0h8M0,-4v8" fill="none" stroke="white" stroke-width="1.5" pointer-events="none"/>
  </g>
  <g id="zoomMin">
    <use xlink:href="#rim" fill="#404040"><set attributeName="fill" to="#808080" begin="zoomminus.mouseover" end="zoomminus.mouseout"/></use>
    <path d="M-4,0h8" fill="none" stroke="white" stroke-width="1.5" pointer-events="none"/>
  </g>
  <g id="arrowUp" transform="translate(30 24)">
    <use xlink:href="#rim"/>
    <path pointer-events="none" fill="none" stroke="white" stroke-width="1.5" d="M0,-3.0v7 M-2.5,-0.5L0,-3.0L2.5,-0.5"/>
  </g>
  <g id="arrowRight" transform="rotate(90) translate(36 -43)">
    <use xlink:href="#rim"/>
    <path pointer-events="none" fill="none" stroke="white" stroke-width="1.5" d="M0,-3.0v7 M-2.5,-0.5L0,-3.0L2.5,-0.5"/>
  </g>
  <g id="arrowDown" transform="rotate(180) translate(-30 -48)">
    <use xlink:href="#rim"/>
    <path pointer-events="none" fill="none" stroke="white" stroke-width="1.5" d="M0,-3.0v7 M-2.5,-0.5L0,-3.0L2.5,-0.5"/>
  </g>
  <g id="arrowLeft" transform="rotate(270) translate(-36 17)">
    <use xlink:href="#rim"/>
    <path pointer-events="none" fill="none" stroke="white" stroke-width="1.5" d="M0,-3.0v7 M-2.5,-0.5L0,-3.0L2.5,-0.5"/>
  </g>
  <g id="resetDef">
    <use xlink:href="#rim2" fill="#404040"><set attributeName="fill" to="#808080" begin="reset.mouseover" end="reset.mouseout"/></use>
  </g>
</defs>
<script type="application/ecmascript">
var viewWidth = 636;
var viewHeight = 260;
var sectionId = 'dynsection-18';
</script>
<script type="application/ecmascript" xlink:href="svg.min.js"/>
<svg id="graph" class="graph">
<g id="viewport">
<title>duvc::get_cached_connection</title>
<!-- Node1 -->
<g id="Node000001" class="node">
<title>Node1</title>
<g id="a_Node000001"><a xlink:title=" ">
<polygon fill="#999999" stroke="#666666" points="628,-136 482.25,-136 482.25,-116 628,-116 628,-136"/>
<text xml:space="preserve" text-anchor="middle" x="555.12" y="-122.5" font-family="Helvetica,sans-Serif" font-size="10.00">duvc::get_cached_connection</text>
</a>
</g>
</g>
<!-- Node2 -->
<g id="Node000002" class="node">
<title>Node2</title>
<g id="a_Node000002"><a xlink:href="namespaceduvc.html#ab42651167ff39abe9e70713ac6db65b9" target="_top" xlink:title="Check if a device is currently connected and accessible.">
<polygon fill="white" stroke="#666666" points="446.25,-136 311.75,-136 311.75,-116 446.25,-116 446.25,-136"/>
<text xml:space="preserve" text-anchor="middle" x="379" y="-122.5" font-family="Helvetica,sans-Serif" font-size="10.00">duvc::is_device_connected</text>
</a>
</g>
</g>
<!-- Node1&#45;&gt;Node2 -->
<g id="edge1_Node000001_Node000002" class="edge">
<title>Node1&#45;&gt;Node2</title>
<g id="a_edge1_Node000001_Node000002"><a xlink:title=" ">
<path fill="none" stroke="#63b8ff" d="M470.49,-126C462.45,-126 454.37,-126 446.53,-126"/>
<polygon fill="#63b8ff" stroke="#63b8ff" points="470.28,-129.5 480.28,-126 470.28,-122.5 470.28,-129.5"/>
</a>
</g>
</g>
<!-- Node3 -->
<g id="Node000003" class="node">
<title>Node3</title>
<g id="a_Node000003"><a xlink:href="classduvc_1_1DeviceCapabilities.html#a1275f0a40ef3c3462236e21de5feb0ee" target="_top" xlink:title="Create capabilities snapshot for device.">
<polygon fill="white" stroke="#666666" points="271.25,-252 146.5,-252 146.5,-220 271.25,-220 271.25,-252"/>
<text xml:space="preserve" text-anchor="start" x="154.5" y="-238.5" font-family="Helvetica,sans-Serif" font-size="10.00">duvc::DeviceCapabilities</text>
<text xml:space="preserve" text-anchor="middle" x="208.88" y="-226.5" font-family="Helvetica,sans-Serif" font-size="10.00">::DeviceCapabilities</text>
</a>
</g>
</g>
<!-- Node2&#45;&gt;Node3 -->
<g id="edge2_Node000002_Node000003" class="edge">
<title>Node2&#45;&gt;Node3</title>
<g id="a_edge2_Node000002_Node000003"><a xlink:title=" ">
<path fill="none" stroke="#63b8ff" d="M359.89,-144.29C340.48,-163.06 308.08,-192.14 275.75,-211 270.36,-214.14 264.51,-217.03 258.58,-219.63"/>
<polygon fill="#63b8ff" stroke="#63b8ff" points="362.1,-147.03 366.77,-137.52 357.18,-142.04 362.1,-147.03"/>
</a>
</g>
</g>
<!-- Node4 -->
<g id="Node000004" class="node">
<title>Node4</title>
<g id="a_Node000004"><a xlink:href="api_8cpp.html#a2443011d38e904503e646d3da95252a2" target="_top" xlink:title="Check if device is connected.">
<polygon fill="white" stroke="#666666" points="275.75,-202 142,-202 142,-182 275.75,-182 275.75,-202"/>
<text xml:space="preserve" text-anchor="middle" x="208.88" y="-188.5" font-family="Helvetica,sans-Serif" font-size="10.00">duvc_is_device_connected</text>
</a>
</g>
</g>
<!-- Node2&#45;&gt;Node4 -->
<g id="edge3_Node000002_Node000004" class="edge">
<title>Node2&#45;&gt;Node4</title>
<g id="a_edge3_Node000002_Node000004"><a xlink:title=" ">
<path fill="none" stroke="#63b8ff" d="M347.53,-141.46C327.47,-151.29 300.43,-163.83 275.75,-173 267.38,-176.11 258.26,-179.03 249.55,-181.6"/>
<polygon fill="#63b8ff" stroke="#63b8ff" points="348.86,-144.71 356.27,-137.14 345.76,-138.44 348.86,-144.71"/>
</a>
</g>
</g>
<!-- Node5 -->
<g id="Node000005" class="node">
<title>Node5</title>
<g id="a_Node000005"><a xlink:href="bindings_8cpp.html#ae6c4b34fa8f4bfc8b53488ce2fccad7b" target="_top" xlink:title=" ">
<polygon fill="white" stroke="#666666" points="275.75,-164 142,-164 142,-144 275.75,-144 275.75,-164"/>
<text xml:space="preserve" text-anchor="middle" x="208.88" y="-150.5" font-family="Helvetica,sans-Serif" font-size="10.00">duvc_is_device_connected</text>
</a>
</g>
</g>
<!-- Node2&#45;&gt;Node5 -->
<g id="edge4_Node000002_Node000005" class="edge">
<title>Node2&#45;&gt;Node5</title>
<g id="a_edge4_Node000002_Node000005"><a xlink:title=" ">
<path fill="none" stroke="#63b8ff" d="M304.16,-138.3C293.71,-140.04 283.04,-141.82 272.81,-143.52"/>
<polygon fill="#63b8ff" stroke="#63b8ff" points="304.61,-141.77 313.9,-136.67 303.46,-134.87 304.61,-141.77"/>
</a>
</g>
</g>
<!-- Node6 -->
<g id="Node000006" class="node">
<title>Node6</title>
<g id="a_Node000006"><a xlink:href="classduvc_1_1Camera.html#a682f869dcea95cc310c86275872c00d2" target="_top" xlink:title="Check if camera is valid and connected.">
<polygon fill="white" stroke="#666666" points="267.12,-108 150.62,-108 150.62,-88 267.12,-88 267.12,-108"/>
<text xml:space="preserve" text-anchor="middle" x="208.88" y="-94.5" font-family="Helvetica,sans-Serif" font-size="10.00">duvc::Camera::is_valid</text>
</a>
</g>
</g>
<!-- Node2&#45;&gt;Node6 -->
<g id="edge5_Node000002_Node000006" class="edge">
<title>Node2&#45;&gt;Node6</title>
<g id="a_edge5_Node000002_Node000006"><a xlink:title=" ">
<path fill="none" stroke="#63b8ff" d="M304.22,-113.71C291.93,-111.67 279.34,-109.57 267.53,-107.6"/>
<polygon fill="#63b8ff" stroke="#63b8ff" points="303.46,-117.13 313.9,-115.33 304.61,-110.23 303.46,-117.13"/>
</a>
</g>
</g>
<!-- Node7 -->
<g id="Node000007" class="node">
<title>Node7</title>
<g id="a_Node000007"><a xlink:href="namespaceduvc.html#aff098bd345fe014553d8b82c5f58b89f" target="_top" xlink:title="Create camera from device.">
<polygon fill="white" stroke="#666666" points="259.62,-70 158.12,-70 158.12,-50 259.62,-50 259.62,-70"/>
<text xml:space="preserve" text-anchor="middle" x="208.88" y="-56.5" font-family="Helvetica,sans-Serif" font-size="10.00">duvc::open_camera</text>
</a>
</g>
</g>
<!-- Node2&#45;&gt;Node7 -->
<g id="edge7_Node000002_Node000007" class="edge">
<title>Node2&#45;&gt;Node7</title>
<g id="a_edge7_Node000002_Node000007"><a xlink:title=" ">
<path fill="none" stroke="#63b8ff" d="M347.53,-110.54C327.47,-100.71 300.43,-88.17 275.75,-79 267.38,-75.89 258.26,-72.97 249.55,-70.4"/>
<polygon fill="#63b8ff" stroke="#63b8ff" points="345.76,-113.56 356.27,-114.86 348.86,-107.29 345.76,-113.56"/>
</a>
</g>
</g>
<!-- Node8 -->
<g id="Node000008" class="node">
<title>Node8</title>
<g id="a_Node000008"><a xlink:href="classduvc_1_1DeviceCapabilities.html#a736006fec61636a4326e29373d172a44" target="_top" xlink:title="Refresh capability snapshot.">
<polygon fill="white" stroke="#666666" points="271.25,-32 146.5,-32 146.5,0 271.25,0 271.25,-32"/>
<text xml:space="preserve" text-anchor="start" x="154.5" y="-18.5" font-family="Helvetica,sans-Serif" font-size="10.00">duvc::DeviceCapabilities</text>
<text xml:space="preserve" text-anchor="middle" x="208.88" y="-6.5" font-family="Helvetica,sans-Serif" font-size="10.00">::refresh</text>
</a>
</g>
</g>
<!-- Node2&#45;&gt;Node8 -->
<g id="edge8_Node000002_Node000008" class="edge">
<title>Node2&#45;&gt;Node8</title>
<g id="a_edge8_Node000002_Node000008"><a xlink:title=" ">
<path fill="none" stroke="#63b8ff" d="M359.89,-107.71C340.48,-88.94 308.08,-59.86 275.75,-41 270.36,-37.86 264.51,-34.97 258.58,-32.37"/>
<polygon fill="#63b8ff" stroke="#63b8ff" points="357.18,-109.96 366.77,-114.48 362.1,-104.97 357.18,-109.96"/>
</a>
</g>
</g>
<!-- Node6&#45;&gt;Node6 -->
<g id="edge6_Node000006_Node000006" class="edge">
<title>Node6&#45;&gt;Node6</title>
<g id="a_edge6_Node000006_Node000006"><a xlink:title=" ">
<path fill="none" stroke="#63b8ff" d="M236.43,-119.44C232.88,-123.3 223.69,-126 208.88,-126 181.78,-126 173.52,-116.98 184.11,-108.34"/>
<polygon fill="#63b8ff" stroke="#63b8ff" points="239.84,-118.66 234.01,-109.81 233.05,-120.36 239.84,-118.66"/>
</a>
</g>
</g>
<!-- Node9 -->
<g id="Node000009" class="node">
<title>Node9</title>
<g id="a_Node000009"><a xlink:href="api_8cpp.html#a2250e42d04f148b7fc027c026f9a0495" target="_top" xlink:title="Refresh capabilities snapshot.">
<polygon fill="white" stroke="#666666" points="106,-32 0,-32 0,0 106,0 106,-32"/>
<text xml:space="preserve" text-anchor="start" x="8" y="-18.5" font-family="Helvetica,sans-Serif" font-size="10.00">duvc_refresh_device</text>
<text xml:space="preserve" text-anchor="middle" x="53" y="-6.5" font-family="Helvetica,sans-Serif" font-size="10.00">_capabilities</text>
</a>
</g>
</g>
<!-- Node8&#45;&gt;Node9 -->
<g id="edge9_Node000008_Node000009" class="edge">
<title>Node8&#45;&gt;Node9</title>
<g id="a_edge9_Node000008_Node000009"><a xlink:title=" ">
<path fill="none" stroke="#63b8ff" d="M134.92,-16C125.26,-16 115.52,-16 106.31,-16"/>
<polygon fill="#63b8ff" stroke="#63b8ff" points="134.66,-19.5 144.66,-16 134.66,-12.5 134.66,-19.5"/>
</a>
</g>
</g>
</g>
</svg>

<g id="navigator" transform="translate(0 0)" fill="#404254">
  <rect fill="#f2f5e9" fill-opacity="0.5" stroke="#606060" stroke-width=".5" x="0" y="0" width="60" height="60"/>
  <use id="zoomplus" xlink:href="#zoomPlus" x="17" y="9" onmousedown="handleZoom(evt,'in')"/>
  <use id="zoomminus" xlink:href="#zoomMin" x="42" y="9" onmousedown="handleZoom(evt,'out')"/>
  <use id="reset" xlink:href="#resetDef" x="30" y="36" onmousedown="handleReset()"/>
   <use id="arrowup" xlink:href="#arrowUp" x="0" y="0" onmousedown="handlePan(0,-1)"/>
  <use id="arrowright" xlink:href="#arrowRight" x="0" y="0" onmousedown="handlePan(1,0)"/>
  <use id="arrowdown" xlink:href="#arrowDown" x="0" y="0" onmousedown="handlePan(0,1)"/>
  <use id="arrowleft" xlink:href="#arrowLeft" x="0" y="0" onmousedown="handlePan(-1,0)"/>
</g>
<svg viewBox="0 0 15 15" width="100%" height="30px" preserveAspectRatio="xMaxYMin meet">
 <g id="arrow_out" transform="scale(0.3 0.3)">
  <a xlink:href="namespaceduvc_aa743fc7771811366fbd7b192b4f4d5d5_icgraph_org.svg" target="_base">
   <rect id="button" ry="5" rx="5" y="6" x="6" height="38" width="38"
        fill="#f2f5e9" fill-opacity="0.5" stroke="#606060" stroke-width="1.0"/>
   <path id="arrow"
     d="M 11.500037,31.436501 C 11.940474,20.09759 22.043105,11.32322 32.158766,21.979434 L 37.068811,17.246167 C 37.068811,17.246167 37.088388,32 37.088388,32 L 22.160133,31.978069 C 22.160133,31.978069 26.997745,27.140456 26.997745,27.140456 C 18.528582,18.264221 13.291696,25.230495 11.500037,31.436501 z"
     style="fill:#404040;"/>
  </a>
 </g>
</svg>

<style type='text/css'>
<![CDATA[
[data-mouse-over-selected='false'] { opacity: 0.7; }
[data-mouse-over-selected='true']  { opacity: 1.0; }
]]>
</style>
<script type="application/ecmascript"><![CDATA[
document.addEventListener('DOMContentLoaded', (event) => {
  highlightEdges();
  highlightAdjacentNodes();
});
]]></script>
</svg>
