<?xml version="1.0" encoding="UTF-8" standalone="no"?>
<!DOCTYPE svg PUBLIC "-//W3C//DTD SVG 1.1//EN"
 "http://www.w3.org/Graphics/SVG/1.1/DTD/svg11.dtd">
<!-- Generated by graphviz version 14.0.2 (20251019.1705)
 -->
<!-- Title: duvc::Ok Pages: 1 -->
<!--zoomable 838 -->

<svg id="main" version="1.1" xmlns="http://www.w3.org/2000/svg" xmlns:xlink="http://www.w3.org/1999/xlink" xml:space="preserve" onload="init(evt)">
<style type="text/css"><![CDATA[
.node, .edge {opacity: 0.7;}
.node.selected, .edge.selected {opacity: 1;}
.edge:hover path { stroke: red; }
.edge:hover polygon { stroke: red; fill: red; }
]]></style>

<defs>
  <circle id="rim" cx="0" cy="0" r="7"/>
  <circle id="rim2" cx="0" cy="0" r="3.5"/>
  <g id="zoomPlus">
    <use xlink:href="#rim" fill="#404040"><set attributeName="fill" to="#808080" begin="zoomplus.mouseover" end="zoomplus.mouseout"/></use>
    <path d="M-4,0h8M0,-4v8" fill="none" stroke="white" stroke-width="1.5" pointer-events="none"/>
  </g>
  <g id="zoomMin">
    <use xlink:href="#rim" fill="#404040"><set attributeName="fill" to="#808080" begin="zoomminus.mouseover" end="zoomminus.mouseout"/></use>
    <path d="M-4,0h8" fill="none" stroke="white" stroke-width="1.5" pointer-events="none"/>
  </g>
  <g id="arrowUp" transform="translate(30 24)">
    <use xlink:href="#rim"/>
    <path pointer-events="none" fill="none" stroke="white" stroke-width="1.5" d="M0,-3.0v7 M-2.5,-0.5L0,-3.0L2.5,-0.5"/>
  </g>
  <g id="arrowRight" transform="rotate(90) translate(36 -43)">
    <use xlink:href="#rim"/>
    <path pointer-events="none" fill="none" stroke="white" stroke-width="1.5" d="M0,-3.0v7 M-2.5,-0.5L0,-3.0L2.5,-0.5"/>
  </g>
  <g id="arrowDown" transform="rotate(180) translate(-30 -48)">
    <use xlink:href="#rim"/>
    <path pointer-events="none" fill="none" stroke="white" stroke-width="1.5" d="M0,-3.0v7 M-2.5,-0.5L0,-3.0L2.5,-0.5"/>
  </g>
  <g id="arrowLeft" transform="rotate(270) translate(-36 17)">
    <use xlink:href="#rim"/>
    <path pointer-events="none" fill="none" stroke="white" stroke-width="1.5" d="M0,-3.0v7 M-2.5,-0.5L0,-3.0L2.5,-0.5"/>
  </g>
  <g id="resetDef">
    <use xlink:href="#rim2" fill="#404040"><set attributeName="fill" to="#808080" begin="reset.mouseover" end="reset.mouseout"/></use>
  </g>
</defs>
<script type="application/ecmascript">
var viewWidth = 439;
var viewHeight = 838;
var sectionId = 'dynsection-43';
</script>
<script type="application/ecmascript" xlink:href="svg.min.js"/>
<svg id="graph" class="graph">
<g id="viewport">
<title>duvc::Ok</title>
<!-- Node1 -->
<g id="Node000001" class="node">
<title>Node1</title>
<g id="a_Node000001"><a xlink:title="Helper to create successful void Result.">
<polygon fill="#999999" stroke="#666666" points="430.5,-415 374.75,-415 374.75,-395 430.5,-395 430.5,-415"/>
<text xml:space="preserve" text-anchor="middle" x="402.62" y="-401.5" font-family="Helvetica,sans-Serif" font-size="10.00">duvc::Ok</text>
</a>
</g>
</g>
<!-- Node2 -->
<g id="Node000002" class="node">
<title>Node2</title>
<g id="a_Node000002"><a xlink:href="classduvc_1_1WindowsPlatformInterface.html#abc83892be09b0b3bbac4ae6cb0625289" target="_top" xlink:title="Create device connection.">
<polygon fill="white" stroke="#666666" points="338.75,-774 180.25,-774 180.25,-742 338.75,-742 338.75,-774"/>
<text xml:space="preserve" text-anchor="start" x="188.25" y="-760.5" font-family="Helvetica,sans-Serif" font-size="10.00">duvc::WindowsPlatformInterface</text>
<text xml:space="preserve" text-anchor="middle" x="259.5" y="-748.5" font-family="Helvetica,sans-Serif" font-size="10.00">::create_connection</text>
</a>
</g>
</g>
<!-- Node1&#45;&gt;Node2 -->
<g id="edge1_Node000001_Node000002" class="edge">
<title>Node1&#45;&gt;Node2</title>
<g id="a_edge1_Node000001_Node000002"><a xlink:title=" ">
<path fill="none" stroke="#63b8ff" d="M400.3,-426.78C395.87,-492.48 379.5,-687.04 338.75,-733 335.82,-736.31 332.45,-739.18 328.79,-741.68"/>
<polygon fill="#63b8ff" stroke="#63b8ff" points="403.78,-427.15 400.93,-416.95 396.79,-426.7 403.78,-427.15"/>
</a>
</g>
</g>
<!-- Node3 -->
<g id="Node000003" class="node">
<title>Node3</title>
<g id="a_Node000003"><a xlink:href="classduvc_1_1Camera.html#afc3cfc69da7411bb9e28c2dad29ebe6c" target="_top" xlink:title="Get camera property value.">
<polygon fill="white" stroke="#666666" points="308,-724 211,-724 211,-704 308,-704 308,-724"/>
<text xml:space="preserve" text-anchor="middle" x="259.5" y="-710.5" font-family="Helvetica,sans-Serif" font-size="10.00">duvc::Camera::get</text>
</a>
</g>
</g>
<!-- Node1&#45;&gt;Node3 -->
<g id="edge2_Node000001_Node000003" class="edge">
<title>Node1&#45;&gt;Node3</title>
<g id="a_edge2_Node000001_Node000003"><a xlink:title=" ">
<path fill="none" stroke="#63b8ff" d="M399.89,-426.33C394.56,-486.6 376.45,-656.36 338.75,-695 330.65,-703.31 319.57,-708.22 308.31,-711.08"/>
<polygon fill="#63b8ff" stroke="#63b8ff" points="403.35,-426.98 400.71,-416.72 396.37,-426.39 403.35,-426.98"/>
</a>
</g>
</g>
<!-- Node8 -->
<g id="Node000008" class="node">
<title>Node8</title>
<g id="a_Node000008"><a xlink:href="classduvc_1_1Camera.html#a1a00f27c12cc852b8d17f70f48aea8f4" target="_top" xlink:title="Get video processing property value.">
<polygon fill="white" stroke="#666666" points="308,-648 211,-648 211,-628 308,-628 308,-648"/>
<text xml:space="preserve" text-anchor="middle" x="259.5" y="-634.5" font-family="Helvetica,sans-Serif" font-size="10.00">duvc::Camera::get</text>
</a>
</g>
</g>
<!-- Node1&#45;&gt;Node8 -->
<g id="edge7_Node000001_Node000008" class="edge">
<title>Node1&#45;&gt;Node8</title>
<g id="a_edge7_Node000001_Node000008"><a xlink:title=" ">
<path fill="none" stroke="#63b8ff" d="M401.93,-426.61C401.3,-469.74 393.47,-566.82 338.75,-619 330.45,-626.91 319.44,-631.7 308.31,-634.56"/>
<polygon fill="#63b8ff" stroke="#63b8ff" points="405.43,-426.81 401.94,-416.8 398.43,-426.8 405.43,-426.81"/>
</a>
</g>
</g>
<!-- Node9 -->
<g id="Node000009" class="node">
<title>Node9</title>
<g id="a_Node000009"><a xlink:href="namespaceduvc.html#a1d35218e5baaccb7d19f4695396581e8" target="_top" xlink:title="Create device capability snapshot.">
<polygon fill="white" stroke="#666666" points="331.62,-610 187.38,-610 187.38,-590 331.62,-590 331.62,-610"/>
<text xml:space="preserve" text-anchor="middle" x="259.5" y="-596.5" font-family="Helvetica,sans-Serif" font-size="10.00">duvc::get_device_capabilities</text>
</a>
</g>
</g>
<!-- Node1&#45;&gt;Node9 -->
<g id="edge8_Node000001_Node000009" class="edge">
<title>Node1&#45;&gt;Node9</title>
<g id="a_edge8_Node000001_Node000009"><a xlink:title=" ">
<path fill="none" stroke="#63b8ff" d="M400.31,-426.57C396.84,-463.8 384.27,-540.03 338.75,-581 334.91,-584.46 330.54,-587.32 325.88,-589.67"/>
<polygon fill="#63b8ff" stroke="#63b8ff" points="403.8,-426.91 401.08,-416.67 396.82,-426.37 403.8,-426.91"/>
</a>
</g>
</g>
<!-- Node13 -->
<g id="Node000013" class="node">
<title>Node13</title>
<g id="a_Node000013"><a xlink:href="namespaceduvc_1_1logitech.html#a4f494bd801c993f6d3c46b3c37a4b72e" target="_top" xlink:title="Get typed Logitech property value.">
<polygon fill="white" stroke="#666666" points="321.88,-572 197.12,-572 197.12,-540 321.88,-540 321.88,-572"/>
<text xml:space="preserve" text-anchor="start" x="205.12" y="-558.5" font-family="Helvetica,sans-Serif" font-size="10.00">duvc::logitech::get</text>
<text xml:space="preserve" text-anchor="middle" x="259.5" y="-546.5" font-family="Helvetica,sans-Serif" font-size="10.00">_logitech_property_typed</text>
</a>
</g>
</g>
<!-- Node1&#45;&gt;Node13 -->
<g id="edge12_Node000001_Node000013" class="edge">
<title>Node1&#45;&gt;Node13</title>
<g id="a_edge12_Node000001_Node000013"><a xlink:title=" ">
<path fill="none" stroke="#63b8ff" d="M395.78,-426.11C387.36,-452.82 369.38,-498.65 338.75,-526 332.67,-531.43 325.51,-535.91 318.03,-539.61"/>
<polygon fill="#63b8ff" stroke="#63b8ff" points="399.06,-427.34 398.55,-416.76 392.35,-425.35 399.06,-427.34"/>
</a>
</g>
</g>
<!-- Node14 -->
<g id="Node000014" class="node">
<title>Node14</title>
<g id="a_Node000014"><a xlink:href="classduvc_1_1KsPropertySet.html#a8c1795034a9f6851db82a1232cd897eb" target="_top" xlink:title="Get property data.">
<polygon fill="white" stroke="#666666" points="312.88,-484 206.12,-484 206.12,-452 312.88,-452 312.88,-484"/>
<text xml:space="preserve" text-anchor="start" x="214.12" y="-470.5" font-family="Helvetica,sans-Serif" font-size="10.00">duvc::KsPropertySet</text>
<text xml:space="preserve" text-anchor="middle" x="259.5" y="-458.5" font-family="Helvetica,sans-Serif" font-size="10.00">::get_property</text>
</a>
</g>
</g>
<!-- Node1&#45;&gt;Node14 -->
<g id="edge13_Node000001_Node000014" class="edge">
<title>Node1&#45;&gt;Node14</title>
<g id="a_edge13_Node000001_Node000014"><a xlink:title=" ">
<path fill="none" stroke="#63b8ff" d="M377.06,-421.68C365.74,-428.89 351.91,-437.02 338.75,-443 330.7,-446.66 321.96,-450.01 313.33,-452.99"/>
<polygon fill="#63b8ff" stroke="#63b8ff" points="378.94,-424.64 385.4,-416.24 375.12,-418.78 378.94,-424.64"/>
</a>
</g>
</g>
<!-- Node15 -->
<g id="Node000015" class="node">
<title>Node15</title>
<g id="a_Node000015"><a xlink:href="classduvc_1_1KsPropertySet.html#a21e491235b83bacb4fd55e96d2b603f6" target="_top" xlink:title="Get typed property value.">
<polygon fill="white" stroke="#666666" points="125.5,-494 18.75,-494 18.75,-462 125.5,-462 125.5,-494"/>
<text xml:space="preserve" text-anchor="start" x="26.75" y="-480.5" font-family="Helvetica,sans-Serif" font-size="10.00">duvc::KsPropertySet</text>
<text xml:space="preserve" text-anchor="middle" x="72.12" y="-468.5" font-family="Helvetica,sans-Serif" font-size="10.00">::get_property_typed</text>
</a>
</g>
</g>
<!-- Node1&#45;&gt;Node15 -->
<g id="edge15_Node000001_Node000015" class="edge">
<title>Node1&#45;&gt;Node15</title>
<g id="a_edge15_Node000001_Node000015"><a xlink:title=" ">
<path fill="none" stroke="#63b8ff" d="M393.51,-425.92C383.98,-447.21 365.94,-479.01 338.75,-493 269.34,-528.71 175.81,-510.74 120.26,-494.39"/>
<polygon fill="#63b8ff" stroke="#63b8ff" points="396.71,-427.33 397.35,-416.75 390.26,-424.62 396.71,-427.33"/>
</a>
</g>
</g>
<!-- Node16 -->
<g id="Node000016" class="node">
<title>Node16</title>
<g id="a_Node000016"><a xlink:href="classduvc_1_1Camera.html#a58cc117a3611bb6ebb55c9a4d8e36c28" target="_top" xlink:title="Get camera property range.">
<polygon fill="white" stroke="#666666" points="322.62,-434 196.38,-434 196.38,-414 322.62,-414 322.62,-434"/>
<text xml:space="preserve" text-anchor="middle" x="259.5" y="-420.5" font-family="Helvetica,sans-Serif" font-size="10.00">duvc::Camera::get_range</text>
</a>
</g>
</g>
<!-- Node1&#45;&gt;Node16 -->
<g id="edge16_Node000001_Node000016" class="edge">
<title>Node1&#45;&gt;Node16</title>
<g id="a_edge16_Node000001_Node000016"><a xlink:title=" ">
<path fill="none" stroke="#63b8ff" d="M363.12,-410.18C350.73,-411.85 336.66,-413.75 323,-415.59"/>
<polygon fill="#63b8ff" stroke="#63b8ff" points="363.47,-413.67 372.91,-408.87 362.54,-406.73 363.47,-413.67"/>
</a>
</g>
</g>
<!-- Node17 -->
<g id="Node000017" class="node">
<title>Node17</title>
<g id="a_Node000017"><a xlink:href="classduvc_1_1Camera.html#aa124a5ddf0d28cc5921543988393a907" target="_top" xlink:title="Get video processing property range.">
<polygon fill="white" stroke="#666666" points="322.62,-396 196.38,-396 196.38,-376 322.62,-376 322.62,-396"/>
<text xml:space="preserve" text-anchor="middle" x="259.5" y="-382.5" font-family="Helvetica,sans-Serif" font-size="10.00">duvc::Camera::get_range</text>
</a>
</g>
</g>
<!-- Node1&#45;&gt;Node17 -->
<g id="edge17_Node000001_Node000017" class="edge">
<title>Node1&#45;&gt;Node17</title>
<g id="a_edge17_Node000001_Node000017"><a xlink:title=" ">
<path fill="none" stroke="#63b8ff" d="M363.12,-399.82C350.73,-398.15 336.66,-396.25 323,-394.41"/>
<polygon fill="#63b8ff" stroke="#63b8ff" points="362.54,-403.27 372.91,-401.13 363.47,-396.33 362.54,-403.27"/>
</a>
</g>
</g>
<!-- Node18 -->
<g id="Node000018" class="node">
<title>Node18</title>
<g id="a_Node000018"><a xlink:href="classduvc_1_1WindowsPlatformInterface.html#aeebd693d00349fbe4ac98cf5f369381d" target="_top" xlink:title="Check if device is connected.">
<polygon fill="white" stroke="#666666" points="338.75,-358 180.25,-358 180.25,-326 338.75,-326 338.75,-358"/>
<text xml:space="preserve" text-anchor="start" x="188.25" y="-344.5" font-family="Helvetica,sans-Serif" font-size="10.00">duvc::WindowsPlatformInterface</text>
<text xml:space="preserve" text-anchor="middle" x="259.5" y="-332.5" font-family="Helvetica,sans-Serif" font-size="10.00">::is_device_connected</text>
</a>
</g>
</g>
<!-- Node1&#45;&gt;Node18 -->
<g id="edge18_Node000001_Node000018" class="edge">
<title>Node1&#45;&gt;Node18</title>
<g id="a_edge18_Node000001_Node000018"><a xlink:title=" ">
<path fill="none" stroke="#63b8ff" d="M377.06,-388.32C365.74,-381.11 351.91,-372.98 338.75,-367 332,-363.93 324.76,-361.08 317.51,-358.48"/>
<polygon fill="#63b8ff" stroke="#63b8ff" points="375.12,-391.22 385.4,-393.76 378.94,-385.36 375.12,-391.22"/>
</a>
</g>
</g>
<!-- Node19 -->
<g id="Node000019" class="node">
<title>Node19</title>
<g id="a_Node000019"><a xlink:href="classduvc_1_1WindowsPlatformInterface.html#acf5648e9ddb6d90a4635fed847dd03cc" target="_top" xlink:title="Enumerate available devices.">
<polygon fill="white" stroke="#666666" points="338.75,-308 180.25,-308 180.25,-276 338.75,-276 338.75,-308"/>
<text xml:space="preserve" text-anchor="start" x="188.25" y="-294.5" font-family="Helvetica,sans-Serif" font-size="10.00">duvc::WindowsPlatformInterface</text>
<text xml:space="preserve" text-anchor="middle" x="259.5" y="-282.5" font-family="Helvetica,sans-Serif" font-size="10.00">::list_devices</text>
</a>
</g>
</g>
<!-- Node1&#45;&gt;Node19 -->
<g id="edge19_Node000001_Node000019" class="edge">
<title>Node1&#45;&gt;Node19</title>
<g id="a_edge19_Node000001_Node000019"><a xlink:title=" ">
<path fill="none" stroke="#63b8ff" d="M391.89,-384.46C381.42,-364.49 362.96,-334.65 338.75,-317 334.26,-313.72 329.31,-310.87 324.17,-308.37"/>
<polygon fill="#63b8ff" stroke="#63b8ff" points="388.71,-385.93 396.31,-393.31 394.97,-382.8 388.71,-385.93"/>
</a>
</g>
</g>
<!-- Node20 -->
<g id="Node000020" class="node">
<title>Node20</title>
<g id="a_Node000020"><a xlink:href="namespaceduvc.html#aff098bd345fe014553d8b82c5f58b89f" target="_top" xlink:title="Create camera from device.">
<polygon fill="white" stroke="#666666" points="310.25,-258 208.75,-258 208.75,-238 310.25,-238 310.25,-258"/>
<text xml:space="preserve" text-anchor="middle" x="259.5" y="-244.5" font-family="Helvetica,sans-Serif" font-size="10.00">duvc::open_camera</text>
</a>
</g>
</g>
<!-- Node1&#45;&gt;Node20 -->
<g id="edge20_Node000001_Node000020" class="edge">
<title>Node1&#45;&gt;Node20</title>
<g id="a_edge20_Node000001_Node000020"><a xlink:title=" ">
<path fill="none" stroke="#63b8ff" d="M397.97,-383.81C391.55,-353.26 375.31,-297.22 338.75,-267 330.67,-260.32 320.61,-255.92 310.42,-253.05"/>
<polygon fill="#63b8ff" stroke="#63b8ff" points="394.48,-384.2 399.8,-393.36 401.35,-382.88 394.48,-384.2"/>
</a>
</g>
</g>
<!-- Node21 -->
<g id="Node000021" class="node">
<title>Node21</title>
<g id="a_Node000021"><a xlink:href="classduvc_1_1KsPropertySet.html#a251aad5cfe01da2b5e380d4697a94f2e" target="_top" xlink:title="Query property support.">
<polygon fill="white" stroke="#666666" points="312.88,-220 206.12,-220 206.12,-188 312.88,-188 312.88,-220"/>
<text xml:space="preserve" text-anchor="start" x="214.12" y="-206.5" font-family="Helvetica,sans-Serif" font-size="10.00">duvc::KsPropertySet</text>
<text xml:space="preserve" text-anchor="middle" x="259.5" y="-194.5" font-family="Helvetica,sans-Serif" font-size="10.00">::query_support</text>
</a>
</g>
</g>
<!-- Node1&#45;&gt;Node21 -->
<g id="edge21_Node000001_Node000021" class="edge">
<title>Node1&#45;&gt;Node21</title>
<g id="a_edge21_Node000001_Node000021"><a xlink:title=" ">
<path fill="none" stroke="#63b8ff" d="M399.95,-383.23C395.94,-346.32 382.57,-271.36 338.75,-229 331.57,-222.06 322.47,-217.05 313.03,-213.43"/>
<polygon fill="#63b8ff" stroke="#63b8ff" points="396.45,-383.44 400.87,-393.07 403.42,-382.79 396.45,-383.44"/>
</a>
</g>
</g>
<!-- Node22 -->
<g id="Node000022" class="node">
<title>Node22</title>
<g id="a_Node000022"><a xlink:href="classduvc_1_1DeviceCapabilities.html#a736006fec61636a4326e29373d172a44" target="_top" xlink:title="Refresh capability snapshot.">
<polygon fill="white" stroke="#666666" points="321.88,-170 197.12,-170 197.12,-138 321.88,-138 321.88,-170"/>
<text xml:space="preserve" text-anchor="start" x="205.12" y="-156.5" font-family="Helvetica,sans-Serif" font-size="10.00">duvc::DeviceCapabilities</text>
<text xml:space="preserve" text-anchor="middle" x="259.5" y="-144.5" font-family="Helvetica,sans-Serif" font-size="10.00">::refresh</text>
</a>
</g>
</g>
<!-- Node1&#45;&gt;Node22 -->
<g id="edge22_Node000001_Node000022" class="edge">
<title>Node1&#45;&gt;Node22</title>
<g id="a_edge22_Node000001_Node000022"><a xlink:title=" ">
<path fill="none" stroke="#63b8ff" d="M402.01,-383.15C401.57,-338.58 394.15,-236.54 338.75,-179 334,-174.07 328.28,-170.11 322.13,-166.93"/>
<polygon fill="#63b8ff" stroke="#63b8ff" points="398.51,-383.04 401.98,-393.05 405.51,-383.06 398.51,-383.04"/>
</a>
</g>
</g>
<!-- Node24 -->
<g id="Node000024" class="node">
<title>Node24</title>
<g id="a_Node000024"><a xlink:href="classduvc_1_1Camera.html#ac9637793f602425d7e07de6d3ec954cb" target="_top" xlink:title="Set camera property value.">
<polygon fill="white" stroke="#666666" points="308,-686 211,-686 211,-666 308,-666 308,-686"/>
<text xml:space="preserve" text-anchor="middle" x="259.5" y="-672.5" font-family="Helvetica,sans-Serif" font-size="10.00">duvc::Camera::set</text>
</a>
</g>
</g>
<!-- Node1&#45;&gt;Node24 -->
<g id="edge24_Node000001_Node000024" class="edge">
<title>Node1&#45;&gt;Node24</title>
<g id="a_edge24_Node000001_Node000024"><a xlink:title=" ">
<path fill="none" stroke="#63b8ff" d="M399.13,-426.37C392.32,-481.1 371.69,-624.27 338.75,-657 330.52,-665.18 319.4,-670.05 308.13,-672.9"/>
<polygon fill="#63b8ff" stroke="#63b8ff" points="402.57,-427.14 400.29,-416.79 395.62,-426.3 402.57,-427.14"/>
</a>
</g>
</g>
<!-- Node25 -->
<g id="Node000025" class="node">
<title>Node25</title>
<g id="a_Node000025"><a xlink:href="classduvc_1_1Camera.html#a8060e10da1fb02c13376b3d7252a3753" target="_top" xlink:title="Set video processing property value.">
<polygon fill="white" stroke="#666666" points="308,-120 211,-120 211,-100 308,-100 308,-120"/>
<text xml:space="preserve" text-anchor="middle" x="259.5" y="-106.5" font-family="Helvetica,sans-Serif" font-size="10.00">duvc::Camera::set</text>
</a>
</g>
</g>
<!-- Node1&#45;&gt;Node25 -->
<g id="edge27_Node000001_Node000025" class="edge">
<title>Node1&#45;&gt;Node25</title>
<g id="a_edge27_Node000001_Node000025"><a xlink:title=" ">
<path fill="none" stroke="#63b8ff" d="M399.63,-383.55C393.75,-325.19 374.67,-165.44 338.75,-129 330.6,-120.74 319.51,-115.84 308.25,-112.98"/>
<polygon fill="#63b8ff" stroke="#63b8ff" points="396.11,-383.55 400.56,-393.17 403.08,-382.88 396.11,-383.55"/>
</a>
</g>
</g>
<!-- Node26 -->
<g id="Node000026" class="node">
<title>Node26</title>
<g id="a_Node000026"><a xlink:href="classduvc_1_1KsPropertySet.html#a33fa8fc7b6530e4c1c97d5b3bc8053b7" target="_top" xlink:title="Set property data.">
<polygon fill="white" stroke="#666666" points="312.88,-82 206.12,-82 206.12,-50 312.88,-50 312.88,-82"/>
<text xml:space="preserve" text-anchor="start" x="214.12" y="-68.5" font-family="Helvetica,sans-Serif" font-size="10.00">duvc::KsPropertySet</text>
<text xml:space="preserve" text-anchor="middle" x="259.5" y="-56.5" font-family="Helvetica,sans-Serif" font-size="10.00">::set_property</text>
</a>
</g>
</g>
<!-- Node1&#45;&gt;Node26 -->
<g id="edge28_Node000001_Node000026" class="edge">
<title>Node1&#45;&gt;Node26</title>
<g id="a_edge28_Node000001_Node000026"><a xlink:title=" ">
<path fill="none" stroke="#63b8ff" d="M400.1,-383.33C395.2,-319.62 377.84,-134.72 338.75,-91 331.91,-83.35 322.72,-78.02 313.05,-74.32"/>
<polygon fill="#63b8ff" stroke="#63b8ff" points="396.6,-383.46 400.83,-393.17 403.58,-382.94 396.6,-383.46"/>
</a>
</g>
</g>
<!-- Node28 -->
<g id="Node000028" class="node">
<title>Node28</title>
<g id="a_Node000028"><a xlink:href="namespaceduvc_1_1logitech.html#a376caa27f086fe3d1ede2c24201ab9f3" target="_top" xlink:title="Check if device supports Logitech vendor properties.">
<polygon fill="white" stroke="#666666" points="319.62,-32 199.38,-32 199.38,0 319.62,0 319.62,-32"/>
<text xml:space="preserve" text-anchor="start" x="207.38" y="-18.5" font-family="Helvetica,sans-Serif" font-size="10.00">duvc::logitech::supports</text>
<text xml:space="preserve" text-anchor="middle" x="259.5" y="-6.5" font-family="Helvetica,sans-Serif" font-size="10.00">_logitech_properties</text>
</a>
</g>
</g>
<!-- Node1&#45;&gt;Node28 -->
<g id="edge30_Node000001_Node000028" class="edge">
<title>Node1&#45;&gt;Node28</title>
<g id="a_edge30_Node000001_Node000028"><a xlink:title=" ">
<path fill="none" stroke="#63b8ff" d="M400.75,-383.17C397.49,-312.69 383.84,-92.8 338.75,-41 333.6,-35.08 327.05,-30.56 319.94,-27.09"/>
<polygon fill="#63b8ff" stroke="#63b8ff" points="397.25,-383.17 401.18,-393 404.24,-382.86 397.25,-383.17"/>
</a>
</g>
</g>
<!-- Node4 -->
<g id="Node000004" class="node">
<title>Node4</title>
<g id="a_Node000004"><a xlink:href="api_8cpp.html#aad9636d2df56d2f955de2783cc06bbd6" target="_top" xlink:title="Get multiple camera properties.">
<polygon fill="white" stroke="#666666" points="138.25,-830 6,-830 6,-798 138.25,-798 138.25,-830"/>
<text xml:space="preserve" text-anchor="start" x="14" y="-816.5" font-family="Helvetica,sans-Serif" font-size="10.00">duvc_get_multiple_camera</text>
<text xml:space="preserve" text-anchor="middle" x="72.12" y="-804.5" font-family="Helvetica,sans-Serif" font-size="10.00">_properties</text>
</a>
</g>
</g>
<!-- Node3&#45;&gt;Node4 -->
<g id="edge3_Node000003_Node000004" class="edge">
<title>Node3&#45;&gt;Node4</title>
<g id="a_edge3_Node000003_Node000004"><a xlink:title=" ">
<path fill="none" stroke="#63b8ff" d="M200.34,-722.77C193.2,-725.36 186.29,-728.7 180.25,-733 156.15,-750.16 167.47,-770.66 144.25,-789 140.14,-792.25 135.58,-795.09 130.81,-797.57"/>
<polygon fill="#63b8ff" stroke="#63b8ff" points="200.95,-726.25 209.46,-719.95 198.87,-719.56 200.95,-726.25"/>
</a>
</g>
</g>
<!-- Node5 -->
<g id="Node000005" class="node">
<title>Node5</title>
<g id="a_Node000005"><a xlink:href="api_8cpp.html#a01f1d8b5b3d7e96c9477f4e163fe1a7c" target="_top" xlink:title="Get multiple video properties.">
<polygon fill="white" stroke="#666666" points="133.75,-780 10.5,-780 10.5,-748 133.75,-748 133.75,-780"/>
<text xml:space="preserve" text-anchor="start" x="18.5" y="-766.5" font-family="Helvetica,sans-Serif" font-size="10.00">duvc_get_multiple_video</text>
<text xml:space="preserve" text-anchor="middle" x="72.12" y="-754.5" font-family="Helvetica,sans-Serif" font-size="10.00">_properties</text>
</a>
</g>
</g>
<!-- Node3&#45;&gt;Node5 -->
<g id="edge4_Node000003_Node000005" class="edge">
<title>Node3&#45;&gt;Node5</title>
<g id="a_edge4_Node000003_Node000005"><a xlink:title=" ">
<path fill="none" stroke="#63b8ff" d="M203.03,-727.15C195.37,-729.06 187.6,-731.04 180.25,-733 163.32,-737.5 144.97,-742.7 128.32,-747.53"/>
<polygon fill="#63b8ff" stroke="#63b8ff" points="203.79,-730.57 212.67,-724.78 202.12,-723.77 203.79,-730.57"/>
</a>
</g>
</g>
<!-- Node6 -->
<g id="Node000006" class="node">
<title>Node6</title>
<g id="a_Node000006"><a xlink:href="api_8cpp.html#a1e2fd3b752c6ee2b24afa9ab771aac0c" target="_top" xlink:title="Set multiple camera properties.">
<polygon fill="white" stroke="#666666" points="138.25,-730 6,-730 6,-698 138.25,-698 138.25,-730"/>
<text xml:space="preserve" text-anchor="start" x="14" y="-716.5" font-family="Helvetica,sans-Serif" font-size="10.00">duvc_set_multiple_camera</text>
<text xml:space="preserve" text-anchor="middle" x="72.12" y="-704.5" font-family="Helvetica,sans-Serif" font-size="10.00">_properties</text>
</a>
</g>
</g>
<!-- Node3&#45;&gt;Node6 -->
<g id="edge5_Node000003_Node000006" class="edge">
<title>Node3&#45;&gt;Node6</title>
<g id="a_edge5_Node000003_Node000006"><a xlink:title=" ">
<path fill="none" stroke="#63b8ff" d="M199.34,-714C179.96,-714 158.32,-714 138.52,-714"/>
<polygon fill="#63b8ff" stroke="#63b8ff" points="199.25,-717.5 209.25,-714 199.25,-710.5 199.25,-717.5"/>
</a>
</g>
</g>
<!-- Node7 -->
<g id="Node000007" class="node">
<title>Node7</title>
<g id="a_Node000007"><a xlink:href="api_8cpp.html#a5bc995ad18045408b7f2ba1c3b2033e6" target="_top" xlink:title="Set multiple video properties.">
<polygon fill="white" stroke="#666666" points="133.75,-680 10.5,-680 10.5,-648 133.75,-648 133.75,-680"/>
<text xml:space="preserve" text-anchor="start" x="18.5" y="-666.5" font-family="Helvetica,sans-Serif" font-size="10.00">duvc_set_multiple_video</text>
<text xml:space="preserve" text-anchor="middle" x="72.12" y="-654.5" font-family="Helvetica,sans-Serif" font-size="10.00">_properties</text>
</a>
</g>
</g>
<!-- Node3&#45;&gt;Node7 -->
<g id="edge6_Node000003_Node000007" class="edge">
<title>Node3&#45;&gt;Node7</title>
<g id="a_edge6_Node000003_Node000007"><a xlink:title=" ">
<path fill="none" stroke="#63b8ff" d="M203.03,-700.85C195.37,-698.94 187.6,-696.96 180.25,-695 163.32,-690.5 144.97,-685.3 128.32,-680.47"/>
<polygon fill="#63b8ff" stroke="#63b8ff" points="202.12,-704.23 212.67,-703.22 203.79,-697.43 202.12,-704.23"/>
</a>
</g>
</g>
<!-- Node10 -->
<g id="Node000010" class="node">
<title>Node10</title>
<g id="a_Node000010"><a xlink:href="api_8cpp.html#a1bb7b51ed8284acbb23ca4f7ba351d09" target="_top" xlink:title="Get device capabilities snapshot.">
<polygon fill="white" stroke="#666666" points="143.88,-630 0.38,-630 0.38,-610 143.88,-610 143.88,-630"/>
<text xml:space="preserve" text-anchor="middle" x="72.12" y="-616.5" font-family="Helvetica,sans-Serif" font-size="10.00">duvc_get_device_capabilities</text>
</a>
</g>
</g>
<!-- Node9&#45;&gt;Node10 -->
<g id="edge9_Node000009_Node000010" class="edge">
<title>Node9&#45;&gt;Node10</title>
<g id="a_edge9_Node000009_Node000010"><a xlink:title=" ">
<path fill="none" stroke="#63b8ff" d="M175.76,-608.93C165.22,-610.06 154.52,-611.22 144.19,-612.33"/>
<polygon fill="#63b8ff" stroke="#63b8ff" points="176.02,-612.42 185.59,-607.87 175.27,-605.46 176.02,-612.42"/>
</a>
</g>
</g>
<!-- Node11 -->
<g id="Node000011" class="node">
<title>Node11</title>
<g id="a_Node000011"><a xlink:href="api_8cpp.html#a6377c50e3ae679edc8ce8c040e7fead7" target="_top" xlink:title="Get device capabilities by index.">
<polygon fill="white" stroke="#666666" points="143.88,-592 0.38,-592 0.38,-560 143.88,-560 143.88,-592"/>
<text xml:space="preserve" text-anchor="start" x="8.38" y="-578.5" font-family="Helvetica,sans-Serif" font-size="10.00">duvc_get_device_capabilities</text>
<text xml:space="preserve" text-anchor="middle" x="72.12" y="-566.5" font-family="Helvetica,sans-Serif" font-size="10.00">_by_index</text>
</a>
</g>
</g>
<!-- Node9&#45;&gt;Node11 -->
<g id="edge10_Node000009_Node000011" class="edge">
<title>Node9&#45;&gt;Node11</title>
<g id="a_edge10_Node000009_Node000011"><a xlink:title=" ">
<path fill="none" stroke="#63b8ff" d="M175.76,-589.29C165.22,-587.92 154.52,-586.54 144.19,-585.2"/>
<polygon fill="#63b8ff" stroke="#63b8ff" points="175.23,-592.75 185.59,-590.56 176.13,-585.81 175.23,-592.75"/>
</a>
</g>
</g>
<!-- Node12 -->
<g id="Node000012" class="node">
<title>Node12</title>
<g id="a_Node000012"><a xlink:href="namespaceduvc.html#a0af4366057ae8014aee4989ab3fd7671" target="_top" xlink:title="Create device capability snapshot by index.">
<polygon fill="white" stroke="#666666" points="144.25,-542 0,-542 0,-522 144.25,-522 144.25,-542"/>
<text xml:space="preserve" text-anchor="middle" x="72.12" y="-528.5" font-family="Helvetica,sans-Serif" font-size="10.00">duvc::get_device_capabilities</text>
</a>
</g>
</g>
<!-- Node9&#45;&gt;Node12 -->
<g id="edge11_Node000009_Node000012" class="edge">
<title>Node9&#45;&gt;Node12</title>
<g id="a_edge11_Node000009_Node000012"><a xlink:title=" ">
<path fill="none" stroke="#63b8ff" d="M191.11,-585.8C187.37,-584.35 183.73,-582.75 180.25,-581 161.65,-571.63 162.74,-560.58 144.25,-551 137.67,-547.59 130.42,-544.75 123.14,-542.4"/>
<polygon fill="#63b8ff" stroke="#63b8ff" points="189.8,-589.05 200.39,-589.02 192.1,-582.43 189.8,-589.05"/>
</a>
</g>
</g>
<!-- Node14&#45;&gt;Node15 -->
<g id="edge14_Node000014_Node000015" class="edge">
<title>Node14&#45;&gt;Node15</title>
<g id="a_edge14_Node000014_Node000015"><a xlink:title=" ">
<path fill="none" stroke="#63b8ff" d="M194.43,-471.46C172.06,-472.66 147.23,-474 125.88,-475.15"/>
<polygon fill="#63b8ff" stroke="#63b8ff" points="194.57,-474.95 204.36,-470.92 194.19,-467.96 194.57,-474.95"/>
</a>
</g>
</g>
<!-- Node23 -->
<g id="Node000023" class="node">
<title>Node23</title>
<g id="a_Node000023"><a xlink:href="api_8cpp.html#a2250e42d04f148b7fc027c026f9a0495" target="_top" xlink:title="Refresh capabilities snapshot.">
<polygon fill="white" stroke="#666666" points="125.12,-170 19.12,-170 19.12,-138 125.12,-138 125.12,-170"/>
<text xml:space="preserve" text-anchor="start" x="27.12" y="-156.5" font-family="Helvetica,sans-Serif" font-size="10.00">duvc_refresh_device</text>
<text xml:space="preserve" text-anchor="middle" x="72.12" y="-144.5" font-family="Helvetica,sans-Serif" font-size="10.00">_capabilities</text>
</a>
</g>
</g>
<!-- Node22&#45;&gt;Node23 -->
<g id="edge23_Node000022_Node000023" class="edge">
<title>Node22&#45;&gt;Node23</title>
<g id="a_edge23_Node000022_Node000023"><a xlink:title=" ">
<path fill="none" stroke="#63b8ff" d="M185.5,-154C165.49,-154 144.2,-154 125.6,-154"/>
<polygon fill="#63b8ff" stroke="#63b8ff" points="185.26,-157.5 195.26,-154 185.26,-150.5 185.26,-157.5"/>
</a>
</g>
</g>
<!-- Node24&#45;&gt;Node6 -->
<g id="edge25_Node000024_Node000006" class="edge">
<title>Node24&#45;&gt;Node6</title>
<g id="a_edge25_Node000024_Node000006"><a xlink:title=" ">
<path fill="none" stroke="#63b8ff" d="M199.61,-688.07C180.16,-692.06 158.42,-696.52 138.52,-700.6"/>
<polygon fill="#63b8ff" stroke="#63b8ff" points="200.19,-691.53 209.28,-686.09 198.78,-684.67 200.19,-691.53"/>
</a>
</g>
</g>
<!-- Node24&#45;&gt;Node7 -->
<g id="edge26_Node000024_Node000007" class="edge">
<title>Node24&#45;&gt;Node7</title>
<g id="a_edge26_Node000024_Node000007"><a xlink:title=" ">
<path fill="none" stroke="#63b8ff" d="M199.46,-672.18C178.58,-670.83 155.06,-669.3 134.02,-667.94"/>
<polygon fill="#63b8ff" stroke="#63b8ff" points="199.05,-675.66 209.25,-672.81 199.5,-668.67 199.05,-675.66"/>
</a>
</g>
</g>
<!-- Node27 -->
<g id="Node000027" class="node">
<title>Node27</title>
<g id="a_Node000027"><a xlink:href="classduvc_1_1KsPropertySet.html#a2a59e63375e5b5f0fb37d39e3aa5b30c" target="_top" xlink:title="Set typed property value.">
<polygon fill="white" stroke="#666666" points="125.5,-82 18.75,-82 18.75,-50 125.5,-50 125.5,-82"/>
<text xml:space="preserve" text-anchor="start" x="26.75" y="-68.5" font-family="Helvetica,sans-Serif" font-size="10.00">duvc::KsPropertySet</text>
<text xml:space="preserve" text-anchor="middle" x="72.12" y="-56.5" font-family="Helvetica,sans-Serif" font-size="10.00">::set_property_typed</text>
</a>
</g>
</g>
<!-- Node26&#45;&gt;Node27 -->
<g id="edge29_Node000026_Node000027" class="edge">
<title>Node26&#45;&gt;Node27</title>
<g id="a_edge29_Node000026_Node000027"><a xlink:title=" ">
<path fill="none" stroke="#63b8ff" d="M194.43,-66C172.06,-66 147.23,-66 125.88,-66"/>
<polygon fill="#63b8ff" stroke="#63b8ff" points="194.36,-69.5 204.36,-66 194.36,-62.5 194.36,-69.5"/>
</a>
</g>
</g>
</g>
</svg>

<g id="navigator" transform="translate(0 0)" fill="#404254">
  <rect fill="#f2f5e9" fill-opacity="0.5" stroke="#606060" stroke-width=".5" x="0" y="0" width="60" height="60"/>
  <use id="zoomplus" xlink:href="#zoomPlus" x="17" y="9" onmousedown="handleZoom(evt,'in')"/>
  <use id="zoomminus" xlink:href="#zoomMin" x="42" y="9" onmousedown="handleZoom(evt,'out')"/>
  <use id="reset" xlink:href="#resetDef" x="30" y="36" onmousedown="handleReset()"/>
   <use id="arrowup" xlink:href="#arrowUp" x="0" y="0" onmousedown="handlePan(0,-1)"/>
  <use id="arrowright" xlink:href="#arrowRight" x="0" y="0" onmousedown="handlePan(1,0)"/>
  <use id="arrowdown" xlink:href="#arrowDown" x="0" y="0" onmousedown="handlePan(0,1)"/>
  <use id="arrowleft" xlink:href="#arrowLeft" x="0" y="0" onmousedown="handlePan(-1,0)"/>
</g>
<svg viewBox="0 0 15 15" width="100%" height="30px" preserveAspectRatio="xMaxYMin meet">
 <g id="arrow_out" transform="scale(0.3 0.3)">
  <a xlink:href="namespaceduvc_afc6e96946d632ab859aa1aef741646f6_icgraph_org.svg" target="_base">
   <rect id="button" ry="5" rx="5" y="6" x="6" height="38" width="38"
        fill="#f2f5e9" fill-opacity="0.5" stroke="#606060" stroke-width="1.0"/>
   <path id="arrow"
     d="M 11.500037,31.436501 C 11.940474,20.09759 22.043105,11.32322 32.158766,21.979434 L 37.068811,17.246167 C 37.068811,17.246167 37.088388,32 37.088388,32 L 22.160133,31.978069 C 22.160133,31.978069 26.997745,27.140456 26.997745,27.140456 C 18.528582,18.264221 13.291696,25.230495 11.500037,31.436501 z"
     style="fill:#404040;"/>
  </a>
 </g>
</svg>

<style type='text/css'>
<![CDATA[
[data-mouse-over-selected='false'] { opacity: 0.7; }
[data-mouse-over-selected='true']  { opacity: 1.0; }
]]>
</style>
<script type="application/ecmascript"><![CDATA[
document.addEventListener('DOMContentLoaded', (event) => {
  highlightEdges();
  highlightAdjacentNodes();
});
]]></script>
</svg>
