<?xml version="1.0" encoding="UTF-8" standalone="no"?>
<!DOCTYPE svg PUBLIC "-//W3C//DTD SVG 1.1//EN"
 "http://www.w3.org/Graphics/SVG/1.1/DTD/svg11.dtd">
<!-- Generated by graphviz version 14.0.2 (20251019.1705)
 -->
<!-- Title: duvc::open_camera Pages: 1 -->
<svg width="740pt" height="218pt"
 viewBox="0.00 0.00 740.00 218.00" xmlns="http://www.w3.org/2000/svg" xmlns:xlink="http://www.w3.org/1999/xlink">
<g id="graph0" class="graph" transform="scale(1 1) rotate(0) translate(4 214)">
<title>duvc::open_camera</title>
<!-- Node1 -->
<g id="Node000001" class="node">
<title>Node1</title>
<g id="a_Node000001"><a xlink:title="Create camera from device.">
<polygon fill="#999999" stroke="#666666" points="101.5,-77 0,-77 0,-57 101.5,-57 101.5,-77"/>
<text xml:space="preserve" text-anchor="middle" x="50.75" y="-63.5" font-family="Helvetica,sans-Serif" font-size="10.00">duvc::open_camera</text>
</a>
</g>
</g>
<!-- Node2 -->
<g id="Node000002" class="node">
<title>Node2</title>
<g id="a_Node000002"><a xlink:href="namespaceduvc.html#ab42651167ff39abe9e70713ac6db65b9" target="_top" xlink:title="Check if a device is currently connected and accessible.">
<polygon fill="white" stroke="#666666" points="272,-115 137.5,-115 137.5,-95 272,-95 272,-115"/>
<text xml:space="preserve" text-anchor="middle" x="204.75" y="-101.5" font-family="Helvetica,sans-Serif" font-size="10.00">duvc::is_device_connected</text>
</a>
</g>
</g>
<!-- Node1&#45;&gt;Node2 -->
<g id="edge1_Node000001_Node000002" class="edge">
<title>Node1&#45;&gt;Node2</title>
<g id="a_edge1_Node000001_Node000002"><a xlink:title=" ">
<path fill="none" stroke="#63b8ff" d="M93.69,-77.48C111.38,-81.91 132.18,-87.11 150.91,-91.79"/>
<polygon fill="#63b8ff" stroke="#63b8ff" points="149.93,-95.15 160.48,-94.18 151.63,-88.36 149.93,-95.15"/>
</a>
</g>
</g>
<!-- Node12 -->
<g id="Node000012" class="node">
<title>Node12</title>
<g id="a_Node000012"><a xlink:href="structduvc_1_1Device.html#ad3e80d9ad1a9da04ede1424ff8765050" target="_top" xlink:title="Check if device has valid identifying information.">
<polygon fill="white" stroke="#666666" points="261.12,-77 148.38,-77 148.38,-57 261.12,-57 261.12,-77"/>
<text xml:space="preserve" text-anchor="middle" x="204.75" y="-63.5" font-family="Helvetica,sans-Serif" font-size="10.00">duvc::Device::is_valid</text>
</a>
</g>
</g>
<!-- Node1&#45;&gt;Node12 -->
<g id="edge13_Node000001_Node000012" class="edge">
<title>Node1&#45;&gt;Node12</title>
<g id="a_edge13_Node000001_Node000012"><a xlink:title=" ">
<path fill="none" stroke="#63b8ff" d="M101.94,-67C113.03,-67 124.95,-67 136.6,-67"/>
<polygon fill="#63b8ff" stroke="#63b8ff" points="136.59,-70.5 146.59,-67 136.59,-63.5 136.59,-70.5"/>
</a>
</g>
</g>
<!-- Node13 -->
<g id="Node000013" class="node">
<title>Node13</title>
<g id="a_Node000013"><a xlink:href="namespaceduvc.html#afc6e96946d632ab859aa1aef741646f6" target="_top" xlink:title="Helper to create successful void Result.">
<polygon fill="white" stroke="#666666" points="232.62,-39 176.88,-39 176.88,-19 232.62,-19 232.62,-39"/>
<text xml:space="preserve" text-anchor="middle" x="204.75" y="-25.5" font-family="Helvetica,sans-Serif" font-size="10.00">duvc::Ok</text>
</a>
</g>
</g>
<!-- Node1&#45;&gt;Node13 -->
<g id="edge14_Node000001_Node000013" class="edge">
<title>Node1&#45;&gt;Node13</title>
<g id="a_edge14_Node000001_Node000013"><a xlink:title=" ">
<path fill="none" stroke="#63b8ff" d="M93.69,-56.52C116.29,-50.87 143.95,-43.95 165.89,-38.46"/>
<polygon fill="#63b8ff" stroke="#63b8ff" points="166.46,-41.93 175.32,-36.11 164.77,-35.14 166.46,-41.93"/>
</a>
</g>
</g>
<!-- Node3 -->
<g id="Node000003" class="node">
<title>Node3</title>
<g id="a_Node000003"><a xlink:href="namespaceduvc.html#ab7299b8597bf14b18b8351278c209188" target="_top" xlink:title="Create DirectShow device enumerator.">
<polygon fill="white" stroke="#666666" points="441,-210 320.75,-210 320.75,-190 441,-190 441,-210"/>
<text xml:space="preserve" text-anchor="middle" x="380.88" y="-196.5" font-family="Helvetica,sans-Serif" font-size="10.00">duvc::create_dev_enum</text>
</a>
</g>
</g>
<!-- Node2&#45;&gt;Node3 -->
<g id="edge2_Node000002_Node000003" class="edge">
<title>Node2&#45;&gt;Node3</title>
<g id="a_edge2_Node000002_Node000003"><a xlink:title=" ">
<path fill="none" stroke="#63b8ff" d="M216.76,-115.46C234.55,-131.81 271.33,-163.34 308,-181 311.71,-182.79 315.6,-184.42 319.59,-185.92"/>
<polygon fill="#63b8ff" stroke="#63b8ff" points="318.24,-189.15 328.83,-189.06 320.49,-182.53 318.24,-189.15"/>
</a>
</g>
</g>
<!-- Node6 -->
<g id="Node000006" class="node">
<title>Node6</title>
<g id="a_Node000006"><a xlink:href="namespaceduvc.html#a1a577c6cd7e4b3106d6f95c15bbceeed" target="_top" xlink:title="Enumerate video input devices.">
<polygon fill="white" stroke="#666666" points="448.12,-172 313.62,-172 313.62,-152 448.12,-152 448.12,-172"/>
<text xml:space="preserve" text-anchor="middle" x="380.88" y="-158.5" font-family="Helvetica,sans-Serif" font-size="10.00">duvc::enum_video_devices</text>
</a>
</g>
</g>
<!-- Node2&#45;&gt;Node6 -->
<g id="edge5_Node000002_Node000006" class="edge">
<title>Node2&#45;&gt;Node6</title>
<g id="a_edge5_Node000002_Node000006"><a xlink:title=" ">
<path fill="none" stroke="#63b8ff" d="M231.56,-115.39C252.09,-123.46 281.64,-134.64 308,-143 314.07,-144.92 320.47,-146.81 326.84,-148.61"/>
<polygon fill="#63b8ff" stroke="#63b8ff" points="325.46,-151.86 336.03,-151.13 327.31,-145.11 325.46,-151.86"/>
</a>
</g>
</g>
<!-- Node7 -->
<g id="Node000007" class="node">
<title>Node7</title>
<g id="a_Node000007"><a xlink:href="namespaceduvc.html#aa743fc7771811366fbd7b192b4f4d5d5" target="_top" xlink:title=" ">
<polygon fill="white" stroke="#666666" points="453.75,-134 308,-134 308,-114 453.75,-114 453.75,-134"/>
<text xml:space="preserve" text-anchor="middle" x="380.88" y="-120.5" font-family="Helvetica,sans-Serif" font-size="10.00">duvc::get_cached_connection</text>
</a>
</g>
</g>
<!-- Node2&#45;&gt;Node7 -->
<g id="edge7_Node000002_Node000007" class="edge">
<title>Node2&#45;&gt;Node7</title>
<g id="a_edge7_Node000002_Node000007"><a xlink:title=" ">
<path fill="none" stroke="#63b8ff" d="M272.08,-112.24C279.98,-113.1 288.13,-113.99 296.23,-114.87"/>
<polygon fill="#63b8ff" stroke="#63b8ff" points="295.81,-118.35 306.13,-115.95 296.57,-111.39 295.81,-118.35"/>
</a>
</g>
</g>
<!-- Node8 -->
<g id="Node000008" class="node">
<title>Node8</title>
<g id="a_Node000008"><a xlink:href="namespaceduvc.html#a16607a28a7df86e823edf3abd371af92" target="_top" xlink:title="Check if two device identifiers refer to same device.">
<polygon fill="white" stroke="#666666" points="437.62,-96 324.12,-96 324.12,-76 437.62,-76 437.62,-96"/>
<text xml:space="preserve" text-anchor="middle" x="380.88" y="-82.5" font-family="Helvetica,sans-Serif" font-size="10.00">duvc::is_same_device</text>
</a>
</g>
</g>
<!-- Node2&#45;&gt;Node8 -->
<g id="edge8_Node000002_Node000008" class="edge">
<title>Node2&#45;&gt;Node8</title>
<g id="a_edge8_Node000002_Node000008"><a xlink:title=" ">
<path fill="none" stroke="#63b8ff" d="M272.08,-97.76C285.23,-96.33 299.06,-94.82 312.26,-93.38"/>
<polygon fill="#63b8ff" stroke="#63b8ff" points="312.6,-96.86 322.16,-92.3 311.84,-89.9 312.6,-96.86"/>
</a>
</g>
</g>
<!-- Node9 -->
<g id="Node000009" class="node">
<title>Node9</title>
<g id="a_Node000009"><a xlink:href="namespaceduvc.html#a2c2b6f32c6871ad36ae0bf98d9374fd0" target="_top" xlink:title="Read device path from moniker.">
<polygon fill="white" stroke="#666666" points="440.62,-58 321.12,-58 321.12,-38 440.62,-38 440.62,-58"/>
<text xml:space="preserve" text-anchor="middle" x="380.88" y="-44.5" font-family="Helvetica,sans-Serif" font-size="10.00">duvc::read_device_path</text>
</a>
</g>
</g>
<!-- Node2&#45;&gt;Node9 -->
<g id="edge9_Node000002_Node000009" class="edge">
<title>Node2&#45;&gt;Node9</title>
<g id="a_edge9_Node000002_Node000009"><a xlink:title=" ">
<path fill="none" stroke="#63b8ff" d="M247.19,-94.54C255.51,-92.04 264.12,-89.17 272,-86 288.78,-79.25 291.15,-73.58 308,-67 312.93,-65.08 318.12,-63.28 323.36,-61.63"/>
<polygon fill="#63b8ff" stroke="#63b8ff" points="324.09,-65.06 332.68,-58.85 322.1,-58.35 324.09,-65.06"/>
</a>
</g>
</g>
<!-- Node11 -->
<g id="Node000011" class="node">
<title>Node11</title>
<g id="a_Node000011"><a xlink:href="namespaceduvc.html#a019644436e5f0add38b6242843b79fef" target="_top" xlink:title="Read friendly name from device moniker.">
<polygon fill="white" stroke="#666666" points="444.75,-20 317,-20 317,0 444.75,0 444.75,-20"/>
<text xml:space="preserve" text-anchor="middle" x="380.88" y="-6.5" font-family="Helvetica,sans-Serif" font-size="10.00">duvc::read_friendly_name</text>
</a>
</g>
</g>
<!-- Node2&#45;&gt;Node11 -->
<g id="edge11_Node000002_Node000011" class="edge">
<title>Node2&#45;&gt;Node11</title>
<g id="a_edge11_Node000002_Node000011"><a xlink:title=" ">
<path fill="none" stroke="#63b8ff" d="M256.79,-94.58C262.2,-92.27 267.4,-89.45 272,-86 295.97,-68.02 283.84,-46.72 308,-29 309.76,-27.71 311.59,-26.51 313.49,-25.39"/>
<polygon fill="#63b8ff" stroke="#63b8ff" points="314.68,-28.71 322.07,-21.12 311.56,-22.44 314.68,-28.71"/>
</a>
</g>
</g>
<!-- Node4 -->
<g id="Node000004" class="node">
<title>Node4</title>
<g id="a_Node000004"><a xlink:href="namespaceduvc.html#a21b444574354018097d4489a9ff0ff9e" target="_top" xlink:title=" ">
<polygon fill="white" stroke="#666666" points="583.75,-191 503.25,-191 503.25,-171 583.75,-171 583.75,-191"/>
<text xml:space="preserve" text-anchor="middle" x="543.5" y="-177.5" font-family="Helvetica,sans-Serif" font-size="10.00">duvc::throw_hr</text>
</a>
</g>
</g>
<!-- Node3&#45;&gt;Node4 -->
<g id="edge3_Node000003_Node000004" class="edge">
<title>Node3&#45;&gt;Node4</title>
<g id="a_edge3_Node000003_Node000004"><a xlink:title=" ">
<path fill="none" stroke="#63b8ff" d="M441.23,-192.98C457.77,-191.02 475.58,-188.92 491.59,-187.02"/>
<polygon fill="#63b8ff" stroke="#63b8ff" points="491.86,-190.51 501.38,-185.86 491.04,-183.56 491.86,-190.51"/>
</a>
</g>
</g>
<!-- Node5 -->
<g id="Node000005" class="node">
<title>Node5</title>
<g id="a_Node000005"><a xlink:href="namespaceduvc.html#a02d5c5b2e56515cee2cad9057af0467d" target="_top" xlink:title=" ">
<polygon fill="white" stroke="#666666" points="731.75,-191 633.25,-191 633.25,-171 731.75,-171 731.75,-191"/>
<text xml:space="preserve" text-anchor="middle" x="682.5" y="-177.5" font-family="Helvetica,sans-Serif" font-size="10.00">duvc::wide_to_utf8</text>
</a>
</g>
</g>
<!-- Node4&#45;&gt;Node5 -->
<g id="edge4_Node000004_Node000005" class="edge">
<title>Node4&#45;&gt;Node5</title>
<g id="a_edge4_Node000004_Node000005"><a xlink:title=" ">
<path fill="none" stroke="#63b8ff" d="M584.13,-181C595.86,-181 608.99,-181 621.7,-181"/>
<polygon fill="#63b8ff" stroke="#63b8ff" points="621.7,-184.5 631.7,-181 621.7,-177.5 621.7,-184.5"/>
</a>
</g>
</g>
<!-- Node6&#45;&gt;Node4 -->
<g id="edge6_Node000006_Node000004" class="edge">
<title>Node6&#45;&gt;Node4</title>
<g id="a_edge6_Node000006_Node000004"><a xlink:title=" ">
<path fill="none" stroke="#63b8ff" d="M448.6,-169.89C463.01,-171.6 478.02,-173.37 491.71,-174.99"/>
<polygon fill="#63b8ff" stroke="#63b8ff" points="491,-178.43 501.34,-176.13 491.82,-171.48 491,-178.43"/>
</a>
</g>
</g>
<!-- Node10 -->
<g id="Node000010" class="node">
<title>Node10</title>
<g id="a_Node000010"><a xlink:href="namespaceduvc.html#a0dbd37821c1cae29fa72d44e3dbd0583" target="_top" xlink:title=" ">
<polygon fill="white" stroke="#666666" points="597.25,-39 489.75,-39 489.75,-19 597.25,-19 597.25,-39"/>
<text xml:space="preserve" text-anchor="middle" x="543.5" y="-25.5" font-family="Helvetica,sans-Serif" font-size="10.00">duvc::read_prop_bstr</text>
</a>
</g>
</g>
<!-- Node9&#45;&gt;Node10 -->
<g id="edge10_Node000009_Node000010" class="edge">
<title>Node9&#45;&gt;Node10</title>
<g id="a_edge10_Node000009_Node000010"><a xlink:title=" ">
<path fill="none" stroke="#63b8ff" d="M440.77,-41.03C452.98,-39.59 465.89,-38.06 478.27,-36.6"/>
<polygon fill="#63b8ff" stroke="#63b8ff" points="478.43,-40.1 487.95,-35.45 477.61,-33.15 478.43,-40.1"/>
</a>
</g>
</g>
<!-- Node11&#45;&gt;Node10 -->
<g id="edge12_Node000011_Node000010" class="edge">
<title>Node11&#45;&gt;Node10</title>
<g id="a_edge12_Node000011_Node000010"><a xlink:title=" ">
<path fill="none" stroke="#63b8ff" d="M444.9,-17.45C455.79,-18.74 467.13,-20.08 478.06,-21.38"/>
<polygon fill="#63b8ff" stroke="#63b8ff" points="477.42,-24.83 487.76,-22.53 478.25,-17.87 477.42,-24.83"/>
</a>
</g>
</g>
</g>
</svg>
