<?xml version="1.0" encoding="UTF-8" standalone="no"?>
<!DOCTYPE svg PUBLIC "-//W3C//DTD SVG 1.1//EN"
 "http://www.w3.org/Graphics/SVG/1.1/DTD/svg11.dtd">
<!-- Generated by graphviz version 14.0.2 (20251019.1705)
 -->
<!-- Title: duvc::to_string Pages: 1 -->
<!--zoomable 351 -->

<svg id="main" version="1.1" xmlns="http://www.w3.org/2000/svg" xmlns:xlink="http://www.w3.org/1999/xlink" xml:space="preserve" onload="init(evt)">
<style type="text/css"><![CDATA[
.node, .edge {opacity: 0.7;}
.node.selected, .edge.selected {opacity: 1;}
.edge:hover path { stroke: red; }
.edge:hover polygon { stroke: red; fill: red; }
]]></style>

<defs>
  <circle id="rim" cx="0" cy="0" r="7"/>
  <circle id="rim2" cx="0" cy="0" r="3.5"/>
  <g id="zoomPlus">
    <use xlink:href="#rim" fill="#404040"><set attributeName="fill" to="#808080" begin="zoomplus.mouseover" end="zoomplus.mouseout"/></use>
    <path d="M-4,0h8M0,-4v8" fill="none" stroke="white" stroke-width="1.5" pointer-events="none"/>
  </g>
  <g id="zoomMin">
    <use xlink:href="#rim" fill="#404040"><set attributeName="fill" to="#808080" begin="zoomminus.mouseover" end="zoomminus.mouseout"/></use>
    <path d="M-4,0h8" fill="none" stroke="white" stroke-width="1.5" pointer-events="none"/>
  </g>
  <g id="arrowUp" transform="translate(30 24)">
    <use xlink:href="#rim"/>
    <path pointer-events="none" fill="none" stroke="white" stroke-width="1.5" d="M0,-3.0v7 M-2.5,-0.5L0,-3.0L2.5,-0.5"/>
  </g>
  <g id="arrowRight" transform="rotate(90) translate(36 -43)">
    <use xlink:href="#rim"/>
    <path pointer-events="none" fill="none" stroke="white" stroke-width="1.5" d="M0,-3.0v7 M-2.5,-0.5L0,-3.0L2.5,-0.5"/>
  </g>
  <g id="arrowDown" transform="rotate(180) translate(-30 -48)">
    <use xlink:href="#rim"/>
    <path pointer-events="none" fill="none" stroke="white" stroke-width="1.5" d="M0,-3.0v7 M-2.5,-0.5L0,-3.0L2.5,-0.5"/>
  </g>
  <g id="arrowLeft" transform="rotate(270) translate(-36 17)">
    <use xlink:href="#rim"/>
    <path pointer-events="none" fill="none" stroke="white" stroke-width="1.5" d="M0,-3.0v7 M-2.5,-0.5L0,-3.0L2.5,-0.5"/>
  </g>
  <g id="resetDef">
    <use xlink:href="#rim2" fill="#404040"><set attributeName="fill" to="#808080" begin="reset.mouseover" end="reset.mouseout"/></use>
  </g>
</defs>
<script type="application/ecmascript">
var viewWidth = 660;
var viewHeight = 351;
var sectionId = 'dynsection-65';
</script>
<script type="application/ecmascript" xlink:href="svg.min.js"/>
<svg id="graph" class="graph">
<g id="viewport">
<title>duvc::to_string</title>
<!-- Node1 -->
<g id="Node000001" class="node">
<title>Node1</title>
<g id="a_Node000001"><a xlink:title="Convert camera property enum to string.">
<polygon fill="#999999" stroke="#666666" points="652.25,-96 571.75,-96 571.75,-76 652.25,-76 652.25,-96"/>
<text xml:space="preserve" text-anchor="middle" x="612" y="-82.5" font-family="Helvetica,sans-Serif" font-size="10.00">duvc::to_string</text>
</a>
</g>
</g>
<!-- Node2 -->
<g id="Node000002" class="node">
<title>Node2</title>
<g id="a_Node000002"><a xlink:href="namespaceduvc.html#ababd2cbe9f996df9fb02141b96f1a0da" target="_top" xlink:title="Default logging callback that writes to stderr.">
<polygon fill="white" stroke="#666666" points="535,-172 403.5,-172 403.5,-152 535,-152 535,-172"/>
<text xml:space="preserve" text-anchor="middle" x="469.25" y="-158.5" font-family="Helvetica,sans-Serif" font-size="10.00">duvc::default_log_callback</text>
</a>
</g>
</g>
<!-- Node1&#45;&gt;Node2 -->
<g id="edge1_Node000001_Node000002" class="edge">
<title>Node1&#45;&gt;Node2</title>
<g id="a_edge1_Node000001_Node000002"><a xlink:title=" ">
<path fill="none" stroke="#63b8ff" d="M591.62,-103.87C577.16,-116.37 556.42,-132.62 535.75,-143 529.08,-146.35 521.73,-149.2 514.43,-151.59"/>
<polygon fill="#63b8ff" stroke="#63b8ff" points="593.86,-106.56 599.02,-97.3 589.21,-101.32 593.86,-106.56"/>
</a>
</g>
</g>
<!-- Node16 -->
<g id="Node000016" class="node">
<title>Node16</title>
<g id="a_Node000016"><a xlink:href="classduvc_1_1Error.html#ad21ca3bbb067caeaf2fbb94146b6c517" target="_top" xlink:title="Get full error description.">
<polygon fill="white" stroke="#666666" points="527.88,-134 410.62,-134 410.62,-114 527.88,-114 527.88,-134"/>
<text xml:space="preserve" text-anchor="middle" x="469.25" y="-120.5" font-family="Helvetica,sans-Serif" font-size="10.00">duvc::Error::description</text>
</a>
</g>
</g>
<!-- Node1&#45;&gt;Node16 -->
<g id="edge15_Node000001_Node000016" class="edge">
<title>Node1&#45;&gt;Node16</title>
<g id="a_edge15_Node000001_Node000016"><a xlink:title=" ">
<path fill="none" stroke="#63b8ff" d="M561.2,-99.45C544.04,-104.08 525.09,-109.19 508.96,-113.55"/>
<polygon fill="#63b8ff" stroke="#63b8ff" points="561.96,-102.86 570.71,-96.88 560.14,-96.11 561.96,-102.86"/>
</a>
</g>
</g>
<!-- Node17 -->
<g id="Node000017" class="node">
<title>Node17</title>
<g id="a_Node000017"><a xlink:href="api_8cpp.html#a68675eb2d53f173bd282b1ed4a03bd4c" target="_top" xlink:title="Convert camera mode to string.">
<polygon fill="white" stroke="#666666" points="535.75,-96 402.75,-96 402.75,-76 535.75,-76 535.75,-96"/>
<text xml:space="preserve" text-anchor="middle" x="469.25" y="-82.5" font-family="Helvetica,sans-Serif" font-size="10.00">duvc_cam_mode_to_string</text>
</a>
</g>
</g>
<!-- Node1&#45;&gt;Node17 -->
<g id="edge16_Node000001_Node000017" class="edge">
<title>Node1&#45;&gt;Node17</title>
<g id="a_edge16_Node000001_Node000017"><a xlink:title=" ">
<path fill="none" stroke="#63b8ff" d="M559.99,-86C552.25,-86 544.17,-86 536.17,-86"/>
<polygon fill="#63b8ff" stroke="#63b8ff" points="559.91,-89.5 569.91,-86 559.91,-82.5 559.91,-89.5"/>
</a>
</g>
</g>
<!-- Node18 -->
<g id="Node000018" class="node">
<title>Node18</title>
<g id="a_Node000018"><a xlink:href="api_8cpp.html#a060da1a749db06dc7aefe358bf7b0c4b" target="_top" xlink:title="Convert camera property to string.">
<polygon fill="white" stroke="#666666" points="533.12,-58 405.38,-58 405.38,-38 533.12,-38 533.12,-58"/>
<text xml:space="preserve" text-anchor="middle" x="469.25" y="-44.5" font-family="Helvetica,sans-Serif" font-size="10.00">duvc_cam_prop_to_string</text>
</a>
</g>
</g>
<!-- Node1&#45;&gt;Node18 -->
<g id="edge17_Node000001_Node000018" class="edge">
<title>Node1&#45;&gt;Node18</title>
<g id="a_edge17_Node000001_Node000018"><a xlink:title=" ">
<path fill="none" stroke="#63b8ff" d="M561.2,-72.55C544.04,-67.92 525.09,-62.81 508.96,-58.45"/>
<polygon fill="#63b8ff" stroke="#63b8ff" points="560.14,-75.89 570.71,-75.12 561.96,-69.14 560.14,-75.89"/>
</a>
</g>
</g>
<!-- Node19 -->
<g id="Node000019" class="node">
<title>Node19</title>
<g id="a_Node000019"><a xlink:href="api_8cpp.html#acc5cc708a37860d425e3f1f8b5630aa1" target="_top" xlink:title="Convert video property to string.">
<polygon fill="white" stroke="#666666" points="530.12,-20 408.38,-20 408.38,0 530.12,0 530.12,-20"/>
<text xml:space="preserve" text-anchor="middle" x="469.25" y="-6.5" font-family="Helvetica,sans-Serif" font-size="10.00">duvc_vid_prop_to_string</text>
</a>
</g>
</g>
<!-- Node1&#45;&gt;Node19 -->
<g id="edge18_Node000001_Node000019" class="edge">
<title>Node1&#45;&gt;Node19</title>
<g id="a_edge18_Node000001_Node000019"><a xlink:title=" ">
<path fill="none" stroke="#63b8ff" d="M591.62,-68.13C577.16,-55.63 556.42,-39.38 535.75,-29 529.08,-25.65 521.73,-22.8 514.43,-20.41"/>
<polygon fill="#63b8ff" stroke="#63b8ff" points="589.21,-70.68 599.02,-74.7 593.86,-65.44 589.21,-70.68"/>
</a>
</g>
</g>
<!-- Node3 -->
<g id="Node000003" class="node">
<title>Node3</title>
<g id="a_Node000003"><a xlink:href="namespaceduvc.html#a92c11bbcc4c659a542bd48d477f60876" target="_top" xlink:title="Log a message.">
<polygon fill="white" stroke="#666666" points="366.75,-172 266,-172 266,-152 366.75,-152 366.75,-172"/>
<text xml:space="preserve" text-anchor="middle" x="316.38" y="-158.5" font-family="Helvetica,sans-Serif" font-size="10.00">duvc::log_message</text>
</a>
</g>
</g>
<!-- Node2&#45;&gt;Node3 -->
<g id="edge2_Node000002_Node000003" class="edge">
<title>Node2&#45;&gt;Node3</title>
<g id="a_edge2_Node000002_Node000003"><a xlink:title=" ">
<path fill="none" stroke="#63b8ff" d="M391.94,-162C383.52,-162 375.11,-162 367.14,-162"/>
<polygon fill="#63b8ff" stroke="#63b8ff" points="391.88,-165.5 401.88,-162 391.88,-158.5 391.88,-165.5"/>
</a>
</g>
</g>
<!-- Node4 -->
<g id="Node000004" class="node">
<title>Node4</title>
<g id="a_Node000004"><a xlink:href="api_8cpp.html#a663fa0c39548b58bcdeb34c0dd5210fa" target="_top" xlink:title="Log message at specific level.">
<polygon fill="white" stroke="#666666" points="230,-267 130,-267 130,-247 230,-247 230,-267"/>
<text xml:space="preserve" text-anchor="middle" x="180" y="-253.5" font-family="Helvetica,sans-Serif" font-size="10.00">duvc_log_message</text>
</a>
</g>
</g>
<!-- Node3&#45;&gt;Node4 -->
<g id="edge3_Node000003_Node000004" class="edge">
<title>Node3&#45;&gt;Node4</title>
<g id="a_edge3_Node000003_Node000004"><a xlink:title=" ">
<path fill="none" stroke="#63b8ff" d="M298.51,-180.39C282.28,-197.22 256.39,-221.87 230,-238 224.71,-241.24 218.77,-244.09 212.9,-246.54"/>
<polygon fill="#63b8ff" stroke="#63b8ff" points="300.7,-183.17 305.03,-173.5 295.62,-178.36 300.7,-183.17"/>
</a>
</g>
</g>
<!-- Node10 -->
<g id="Node000010" class="node">
<title>Node10</title>
<g id="a_Node000010"><a xlink:href="namespaceduvc.html#ac5d8f544093e30b59e63a5d25bd0367c" target="_top" xlink:title="Log critical message.">
<polygon fill="white" stroke="#666666" points="224.75,-229 135.25,-229 135.25,-209 224.75,-209 224.75,-229"/>
<text xml:space="preserve" text-anchor="middle" x="180" y="-215.5" font-family="Helvetica,sans-Serif" font-size="10.00">duvc::log_critical</text>
</a>
</g>
</g>
<!-- Node3&#45;&gt;Node10 -->
<g id="edge9_Node000003_Node000010" class="edge">
<title>Node3&#45;&gt;Node10</title>
<g id="a_edge9_Node000003_Node000010"><a xlink:title=" ">
<path fill="none" stroke="#63b8ff" d="M282.37,-177.14C266.6,-184.26 247.4,-192.76 230,-200 223.09,-202.87 215.58,-205.86 208.57,-208.58"/>
<polygon fill="#63b8ff" stroke="#63b8ff" points="283.64,-180.41 291.3,-173.09 280.75,-174.03 283.64,-180.41"/>
</a>
</g>
</g>
<!-- Node11 -->
<g id="Node000011" class="node">
<title>Node11</title>
<g id="a_Node000011"><a xlink:href="namespaceduvc.html#a47cac7feb74ff2f865d074b6cfb463f1" target="_top" xlink:title="Log debug message.">
<polygon fill="white" stroke="#666666" points="223.62,-191 136.38,-191 136.38,-171 223.62,-171 223.62,-191"/>
<text xml:space="preserve" text-anchor="middle" x="180" y="-177.5" font-family="Helvetica,sans-Serif" font-size="10.00">duvc::log_debug</text>
</a>
</g>
</g>
<!-- Node3&#45;&gt;Node11 -->
<g id="edge10_Node000003_Node000011" class="edge">
<title>Node3&#45;&gt;Node11</title>
<g id="a_edge10_Node000003_Node000011"><a xlink:title=" ">
<path fill="none" stroke="#63b8ff" d="M254.58,-170.6C244.2,-172.06 233.61,-173.56 223.82,-174.95"/>
<polygon fill="#63b8ff" stroke="#63b8ff" points="254.81,-174.1 264.22,-169.23 253.83,-167.17 254.81,-174.1"/>
</a>
</g>
</g>
<!-- Node12 -->
<g id="Node000012" class="node">
<title>Node12</title>
<g id="a_Node000012"><a xlink:href="namespaceduvc.html#a6d8fe15d04c800f69816c89557ca25d5" target="_top" xlink:title="Log error message.">
<polygon fill="white" stroke="#666666" points="220.25,-153 139.75,-153 139.75,-133 220.25,-133 220.25,-153"/>
<text xml:space="preserve" text-anchor="middle" x="180" y="-139.5" font-family="Helvetica,sans-Serif" font-size="10.00">duvc::log_error</text>
</a>
</g>
</g>
<!-- Node3&#45;&gt;Node12 -->
<g id="edge11_Node000003_Node000012" class="edge">
<title>Node3&#45;&gt;Node12</title>
<g id="a_edge11_Node000003_Node000012"><a xlink:title=" ">
<path fill="none" stroke="#63b8ff" d="M254.32,-153.37C242.79,-151.74 231.02,-150.07 220.38,-148.57"/>
<polygon fill="#63b8ff" stroke="#63b8ff" points="253.83,-156.83 264.22,-154.77 254.81,-149.9 253.83,-156.83"/>
</a>
</g>
</g>
<!-- Node13 -->
<g id="Node000013" class="node">
<title>Node13</title>
<g id="a_Node000013"><a xlink:href="namespaceduvc.html#a03a6e81316de0517ea31cd6dcca560d4" target="_top" xlink:title="Log info message.">
<polygon fill="white" stroke="#666666" points="218.38,-115 141.62,-115 141.62,-95 218.38,-95 218.38,-115"/>
<text xml:space="preserve" text-anchor="middle" x="180" y="-101.5" font-family="Helvetica,sans-Serif" font-size="10.00">duvc::log_info</text>
</a>
</g>
</g>
<!-- Node3&#45;&gt;Node13 -->
<g id="edge12_Node000003_Node000013" class="edge">
<title>Node3&#45;&gt;Node13</title>
<g id="a_edge12_Node000003_Node000013"><a xlink:title=" ">
<path fill="none" stroke="#63b8ff" d="M282.37,-146.86C266.6,-139.74 247.4,-131.24 230,-124 223.09,-121.13 215.58,-118.14 208.57,-115.42"/>
<polygon fill="#63b8ff" stroke="#63b8ff" points="280.75,-149.97 291.3,-150.91 283.64,-143.59 280.75,-149.97"/>
</a>
</g>
</g>
<!-- Node15 -->
<g id="Node000015" class="node">
<title>Node15</title>
<g id="a_Node000015"><a xlink:href="namespaceduvc.html#a9de34d5fa98fc93f94e593e4b07cca6e" target="_top" xlink:title="Log warning message.">
<polygon fill="white" stroke="#666666" points="227.38,-77 132.62,-77 132.62,-57 227.38,-57 227.38,-77"/>
<text xml:space="preserve" text-anchor="middle" x="180" y="-63.5" font-family="Helvetica,sans-Serif" font-size="10.00">duvc::log_warning</text>
</a>
</g>
</g>
<!-- Node3&#45;&gt;Node15 -->
<g id="edge14_Node000003_Node000015" class="edge">
<title>Node3&#45;&gt;Node15</title>
<g id="a_edge14_Node000003_Node000015"><a xlink:title=" ">
<path fill="none" stroke="#63b8ff" d="M298.51,-143.61C282.28,-126.78 256.39,-102.13 230,-86 224.71,-82.76 218.77,-79.91 212.9,-77.46"/>
<polygon fill="#63b8ff" stroke="#63b8ff" points="295.62,-145.64 305.03,-150.5 300.7,-140.83 295.62,-145.64"/>
</a>
</g>
</g>
<!-- Node5 -->
<g id="Node000005" class="node">
<title>Node5</title>
<g id="a_Node000005"><a xlink:href="api_8cpp.html#ad59f4c0cac89a553a88e826f63aad25e" target="_top" xlink:title="Log critical message.">
<polygon fill="white" stroke="#666666" points="91.38,-343 2.63,-343 2.63,-323 91.38,-323 91.38,-343"/>
<text xml:space="preserve" text-anchor="middle" x="47" y="-329.5" font-family="Helvetica,sans-Serif" font-size="10.00">duvc_log_critical</text>
</a>
</g>
</g>
<!-- Node4&#45;&gt;Node5 -->
<g id="edge4_Node000004_Node000005" class="edge">
<title>Node4&#45;&gt;Node5</title>
<g id="a_edge4_Node000004_Node000005"><a xlink:title=" ">
<path fill="none" stroke="#63b8ff" d="M156.42,-273.95C139.72,-286.03 116.13,-302.16 94,-314 88.21,-317.1 81.8,-320.03 75.66,-322.62"/>
<polygon fill="#63b8ff" stroke="#63b8ff" points="158.18,-277 164.18,-268.26 154.04,-271.36 158.18,-277"/>
</a>
</g>
</g>
<!-- Node6 -->
<g id="Node000006" class="node">
<title>Node6</title>
<g id="a_Node000006"><a xlink:href="api_8cpp.html#a8eb2a7c27c88acb2ad87386c3d703493" target="_top" xlink:title="Log debug message.">
<polygon fill="white" stroke="#666666" points="90.25,-305 3.75,-305 3.75,-285 90.25,-285 90.25,-305"/>
<text xml:space="preserve" text-anchor="middle" x="47" y="-291.5" font-family="Helvetica,sans-Serif" font-size="10.00">duvc_log_debug</text>
</a>
</g>
</g>
<!-- Node4&#45;&gt;Node6 -->
<g id="edge5_Node000004_Node000006" class="edge">
<title>Node4&#45;&gt;Node6</title>
<g id="a_edge5_Node000004_Node000006"><a xlink:title=" ">
<path fill="none" stroke="#63b8ff" d="M132.19,-270.58C116.34,-275.18 98.9,-280.23 84.03,-284.55"/>
<polygon fill="#63b8ff" stroke="#63b8ff" points="132.77,-274.05 141.4,-267.91 130.82,-267.33 132.77,-274.05"/>
</a>
</g>
</g>
<!-- Node7 -->
<g id="Node000007" class="node">
<title>Node7</title>
<g id="a_Node000007"><a xlink:href="api_8cpp.html#a55a558025dd21137648e66f746bf1863" target="_top" xlink:title="Log error message.">
<polygon fill="white" stroke="#666666" points="86.88,-267 7.13,-267 7.13,-247 86.88,-247 86.88,-267"/>
<text xml:space="preserve" text-anchor="middle" x="47" y="-253.5" font-family="Helvetica,sans-Serif" font-size="10.00">duvc_log_error</text>
</a>
</g>
</g>
<!-- Node4&#45;&gt;Node7 -->
<g id="edge6_Node000004_Node000007" class="edge">
<title>Node4&#45;&gt;Node7</title>
<g id="a_edge6_Node000004_Node000007"><a xlink:title=" ">
<path fill="none" stroke="#63b8ff" d="M118.45,-257C107.83,-257 97.04,-257 87.2,-257"/>
<polygon fill="#63b8ff" stroke="#63b8ff" points="118.33,-260.5 128.33,-257 118.33,-253.5 118.33,-260.5"/>
</a>
</g>
</g>
<!-- Node8 -->
<g id="Node000008" class="node">
<title>Node8</title>
<g id="a_Node000008"><a xlink:href="api_8cpp.html#a69eb1c2eff849b8249b84ed3c7e820a1" target="_top" xlink:title="Log info message.">
<polygon fill="white" stroke="#666666" points="85,-229 9,-229 9,-209 85,-209 85,-229"/>
<text xml:space="preserve" text-anchor="middle" x="47" y="-215.5" font-family="Helvetica,sans-Serif" font-size="10.00">duvc_log_info</text>
</a>
</g>
</g>
<!-- Node4&#45;&gt;Node8 -->
<g id="edge7_Node000004_Node000008" class="edge">
<title>Node4&#45;&gt;Node8</title>
<g id="a_edge7_Node000004_Node000008"><a xlink:title=" ">
<path fill="none" stroke="#63b8ff" d="M132.19,-243.42C116.34,-238.82 98.9,-233.77 84.03,-229.45"/>
<polygon fill="#63b8ff" stroke="#63b8ff" points="130.82,-246.67 141.4,-246.09 132.77,-239.95 130.82,-246.67"/>
</a>
</g>
</g>
<!-- Node9 -->
<g id="Node000009" class="node">
<title>Node9</title>
<g id="a_Node000009"><a xlink:href="api_8cpp.html#ac25cfc7d64eaa972aabc2040a2be8c14" target="_top" xlink:title="Log warning message.">
<polygon fill="white" stroke="#666666" points="94,-191 0,-191 0,-171 94,-171 94,-191"/>
<text xml:space="preserve" text-anchor="middle" x="47" y="-177.5" font-family="Helvetica,sans-Serif" font-size="10.00">duvc_log_warning</text>
</a>
</g>
</g>
<!-- Node4&#45;&gt;Node9 -->
<g id="edge8_Node000004_Node000009" class="edge">
<title>Node4&#45;&gt;Node9</title>
<g id="a_edge8_Node000004_Node000009"><a xlink:title=" ">
<path fill="none" stroke="#63b8ff" d="M135.78,-241.53C133.79,-240.42 131.85,-239.24 130,-238 110.68,-225.03 113.17,-213.18 94,-200 89.16,-196.67 83.64,-193.77 78.15,-191.31"/>
<polygon fill="#63b8ff" stroke="#63b8ff" points="134.22,-244.66 144.74,-245.91 137.29,-238.37 134.22,-244.66"/>
</a>
</g>
</g>
<!-- Node14 -->
<g id="Node000014" class="node">
<title>Node14</title>
<g id="a_Node000014"><a xlink:href="api_8cpp.html#a25beb5fbe1559b1e26296077bf0990e8" target="_top" xlink:title="Initialize library.">
<polygon fill="white" stroke="#666666" points="85.75,-115 8.25,-115 8.25,-95 85.75,-95 85.75,-115"/>
<text xml:space="preserve" text-anchor="middle" x="47" y="-101.5" font-family="Helvetica,sans-Serif" font-size="10.00">duvc_initialize</text>
</a>
</g>
</g>
<!-- Node13&#45;&gt;Node14 -->
<g id="edge13_Node000013_Node000014" class="edge">
<title>Node13&#45;&gt;Node14</title>
<g id="a_edge13_Node000013_Node000014"><a xlink:title=" ">
<path fill="none" stroke="#63b8ff" d="M130.08,-105C115.51,-105 99.77,-105 86,-105"/>
<polygon fill="#63b8ff" stroke="#63b8ff" points="129.95,-108.5 139.95,-105 129.95,-101.5 129.95,-108.5"/>
</a>
</g>
</g>
</g>
</svg>

<g id="navigator" transform="translate(0 0)" fill="#404254">
  <rect fill="#f2f5e9" fill-opacity="0.5" stroke="#606060" stroke-width=".5" x="0" y="0" width="60" height="60"/>
  <use id="zoomplus" xlink:href="#zoomPlus" x="17" y="9" onmousedown="handleZoom(evt,'in')"/>
  <use id="zoomminus" xlink:href="#zoomMin" x="42" y="9" onmousedown="handleZoom(evt,'out')"/>
  <use id="reset" xlink:href="#resetDef" x="30" y="36" onmousedown="handleReset()"/>
   <use id="arrowup" xlink:href="#arrowUp" x="0" y="0" onmousedown="handlePan(0,-1)"/>
  <use id="arrowright" xlink:href="#arrowRight" x="0" y="0" onmousedown="handlePan(1,0)"/>
  <use id="arrowdown" xlink:href="#arrowDown" x="0" y="0" onmousedown="handlePan(0,1)"/>
  <use id="arrowleft" xlink:href="#arrowLeft" x="0" y="0" onmousedown="handlePan(-1,0)"/>
</g>
<svg viewBox="0 0 15 15" width="100%" height="30px" preserveAspectRatio="xMaxYMin meet">
 <g id="arrow_out" transform="scale(0.3 0.3)">
  <a xlink:href="namespaceduvc_a8556fd02a649101843e7712e638cc0cb_icgraph_org.svg" target="_base">
   <rect id="button" ry="5" rx="5" y="6" x="6" height="38" width="38"
        fill="#f2f5e9" fill-opacity="0.5" stroke="#606060" stroke-width="1.0"/>
   <path id="arrow"
     d="M 11.500037,31.436501 C 11.940474,20.09759 22.043105,11.32322 32.158766,21.979434 L 37.068811,17.246167 C 37.068811,17.246167 37.088388,32 37.088388,32 L 22.160133,31.978069 C 22.160133,31.978069 26.997745,27.140456 26.997745,27.140456 C 18.528582,18.264221 13.291696,25.230495 11.500037,31.436501 z"
     style="fill:#404040;"/>
  </a>
 </g>
</svg>

<style type='text/css'>
<![CDATA[
[data-mouse-over-selected='false'] { opacity: 0.7; }
[data-mouse-over-selected='true']  { opacity: 1.0; }
]]>
</style>
<script type="application/ecmascript"><![CDATA[
document.addEventListener('DOMContentLoaded', (event) => {
  highlightEdges();
  highlightAdjacentNodes();
});
]]></script>
</svg>
