<?xml version="1.0" encoding="UTF-8" standalone="no"?>
<!DOCTYPE svg PUBLIC "-//W3C//DTD SVG 1.1//EN"
 "http://www.w3.org/Graphics/SVG/1.1/DTD/svg11.dtd">
<!-- Generated by graphviz version 14.0.2 (20251019.1705)
 -->
<!-- Title: duvc::unregister_device_change_callback Pages: 1 -->
<svg width="403pt" height="40pt"
 viewBox="0.00 0.00 403.00 40.00" xmlns="http://www.w3.org/2000/svg" xmlns:xlink="http://www.w3.org/1999/xlink">
<g id="graph0" class="graph" transform="scale(1 1) rotate(0) translate(4 36)">
<title>duvc::unregister_device_change_callback</title>
<!-- Node1 -->
<g id="Node000001" class="node">
<title>Node1</title>
<g id="a_Node000001"><a xlink:title="Unregister device change callback.">
<polygon fill="#999999" stroke="#666666" points="394.5,-32 275,-32 275,0 394.5,0 394.5,-32"/>
<text xml:space="preserve" text-anchor="start" x="283" y="-18.5" font-family="Helvetica,sans-Serif" font-size="10.00">duvc::unregister_device</text>
<text xml:space="preserve" text-anchor="middle" x="334.75" y="-6.5" font-family="Helvetica,sans-Serif" font-size="10.00">_change_callback</text>
</a>
</g>
</g>
<!-- Node2 -->
<g id="Node000002" class="node">
<title>Node2</title>
<g id="a_Node000002"><a xlink:href="api_8cpp.html#a4961e02c4ed3ad0dced1ca69ebfabd34" target="_top" xlink:title="Unregister device change callback.">
<polygon fill="white" stroke="#666666" points="239,-32 120.25,-32 120.25,0 239,0 239,-32"/>
<text xml:space="preserve" text-anchor="start" x="128.25" y="-18.5" font-family="Helvetica,sans-Serif" font-size="10.00">duvc_unregister_device</text>
<text xml:space="preserve" text-anchor="middle" x="179.62" y="-6.5" font-family="Helvetica,sans-Serif" font-size="10.00">_change_callback</text>
</a>
</g>
</g>
<!-- Node1&#45;&gt;Node2 -->
<g id="edge1_Node000001_Node000002" class="edge">
<title>Node1&#45;&gt;Node2</title>
<g id="a_edge1_Node000001_Node000002"><a xlink:title=" ">
<path fill="none" stroke="#63b8ff" d="M263.06,-16C255.15,-16 247.16,-16 239.42,-16"/>
<polygon fill="#63b8ff" stroke="#63b8ff" points="263.03,-19.5 273.03,-16 263.03,-12.5 263.03,-19.5"/>
</a>
</g>
</g>
<!-- Node3 -->
<g id="Node000003" class="node">
<title>Node3</title>
<g id="a_Node000003"><a xlink:href="api_8cpp.html#aba9a96bde8eb046a53402e47d1f763e2" target="_top" xlink:title="Shutdown library.">
<polygon fill="white" stroke="#666666" points="84.25,-26 0,-26 0,-6 84.25,-6 84.25,-26"/>
<text xml:space="preserve" text-anchor="middle" x="42.12" y="-12.5" font-family="Helvetica,sans-Serif" font-size="10.00">duvc_shutdown</text>
</a>
</g>
</g>
<!-- Node2&#45;&gt;Node3 -->
<g id="edge2_Node000002_Node000003" class="edge">
<title>Node2&#45;&gt;Node3</title>
<g id="a_edge2_Node000002_Node000003"><a xlink:title=" ">
<path fill="none" stroke="#63b8ff" d="M108.5,-16C100.37,-16 92.29,-16 84.72,-16"/>
<polygon fill="#63b8ff" stroke="#63b8ff" points="108.47,-19.5 118.47,-16 108.47,-12.5 108.47,-19.5"/>
</a>
</g>
</g>
</g>
</svg>
