<?xml version="1.0" encoding="UTF-8" standalone="no"?>
<!DOCTYPE svg PUBLIC "-//W3C//DTD SVG 1.1//EN"
 "http://www.w3.org/Graphics/SVG/1.1/DTD/svg11.dtd">
<!-- Generated by graphviz version 14.0.2 (20251019.1705)
 -->
<!-- Title: duvc::get_device_capabilities Pages: 1 -->
<svg width="313pt" height="116pt"
 viewBox="0.00 0.00 313.00 116.00" xmlns="http://www.w3.org/2000/svg" xmlns:xlink="http://www.w3.org/1999/xlink">
<g id="graph0" class="graph" transform="scale(1 1) rotate(0) translate(4 112)">
<title>duvc::get_device_capabilities</title>
<!-- Node1 -->
<g id="Node000001" class="node">
<title>Node1</title>
<g id="a_Node000001"><a xlink:title="Create device capability snapshot.">
<polygon fill="#999999" stroke="#666666" points="144.25,-58 0,-58 0,-38 144.25,-38 144.25,-58"/>
<text xml:space="preserve" text-anchor="middle" x="72.12" y="-44.5" font-family="Helvetica,sans-Serif" font-size="10.00">duvc::get_device_capabilities</text>
</a>
</g>
</g>
<!-- Node2 -->
<g id="Node000002" class="node">
<title>Node2</title>
<g id="a_Node000002"><a xlink:href="classduvc_1_1DeviceCapabilities.html#ac5d276e943fa0b7ed0c581ffe0309851" target="_top" xlink:title="Check if device is connected and accessible.">
<polygon fill="white" stroke="#666666" points="305,-108 180.25,-108 180.25,-76 305,-76 305,-108"/>
<text xml:space="preserve" text-anchor="start" x="188.25" y="-94.5" font-family="Helvetica,sans-Serif" font-size="10.00">duvc::DeviceCapabilities</text>
<text xml:space="preserve" text-anchor="middle" x="242.62" y="-82.5" font-family="Helvetica,sans-Serif" font-size="10.00">::is_device_accessible</text>
</a>
</g>
</g>
<!-- Node1&#45;&gt;Node2 -->
<g id="edge1_Node000001_Node000002" class="edge">
<title>Node1&#45;&gt;Node2</title>
<g id="a_edge1_Node000001_Node000002"><a xlink:title=" ">
<path fill="none" stroke="#63b8ff" d="M113.06,-58.43C129.73,-62.78 149.65,-67.98 168.77,-72.98"/>
<polygon fill="#63b8ff" stroke="#63b8ff" points="167.88,-76.36 178.44,-75.5 169.65,-69.59 167.88,-76.36"/>
</a>
</g>
</g>
<!-- Node3 -->
<g id="Node000003" class="node">
<title>Node3</title>
<g id="a_Node000003"><a xlink:href="structduvc_1_1Device.html#ad3e80d9ad1a9da04ede1424ff8765050" target="_top" xlink:title="Check if device has valid identifying information.">
<polygon fill="white" stroke="#666666" points="299,-58 186.25,-58 186.25,-38 299,-38 299,-58"/>
<text xml:space="preserve" text-anchor="middle" x="242.62" y="-44.5" font-family="Helvetica,sans-Serif" font-size="10.00">duvc::Device::is_valid</text>
</a>
</g>
</g>
<!-- Node1&#45;&gt;Node3 -->
<g id="edge2_Node000001_Node000003" class="edge">
<title>Node1&#45;&gt;Node3</title>
<g id="a_edge2_Node000001_Node000003"><a xlink:title=" ">
<path fill="none" stroke="#63b8ff" d="M144.58,-48C154.51,-48 164.68,-48 174.53,-48"/>
<polygon fill="#63b8ff" stroke="#63b8ff" points="174.39,-51.5 184.39,-48 174.39,-44.5 174.39,-51.5"/>
</a>
</g>
</g>
<!-- Node4 -->
<g id="Node000004" class="node">
<title>Node4</title>
<g id="a_Node000004"><a xlink:href="namespaceduvc.html#afc6e96946d632ab859aa1aef741646f6" target="_top" xlink:title="Helper to create successful void Result.">
<polygon fill="white" stroke="#666666" points="270.5,-20 214.75,-20 214.75,0 270.5,0 270.5,-20"/>
<text xml:space="preserve" text-anchor="middle" x="242.62" y="-6.5" font-family="Helvetica,sans-Serif" font-size="10.00">duvc::Ok</text>
</a>
</g>
</g>
<!-- Node1&#45;&gt;Node4 -->
<g id="edge3_Node000001_Node000004" class="edge">
<title>Node1&#45;&gt;Node4</title>
<g id="a_edge3_Node000001_Node000004"><a xlink:title=" ">
<path fill="none" stroke="#63b8ff" d="M119.61,-37.52C146.02,-31.56 178.67,-24.2 203.54,-18.59"/>
<polygon fill="#63b8ff" stroke="#63b8ff" points="204.26,-22.01 213.24,-16.4 202.72,-15.19 204.26,-22.01"/>
</a>
</g>
</g>
</g>
</svg>
