<?xml version="1.0" encoding="UTF-8" standalone="no"?>
<!DOCTYPE svg PUBLIC "-//W3C//DTD SVG 1.1//EN"
 "http://www.w3.org/Graphics/SVG/1.1/DTD/svg11.dtd">
<!-- Generated by graphviz version 14.0.2 (20251019.1705)
 -->
<!-- Title: duvc::is_same_device Pages: 1 -->
<svg width="604pt" height="486pt"
 viewBox="0.00 0.00 604.00 486.00" xmlns="http://www.w3.org/2000/svg" xmlns:xlink="http://www.w3.org/1999/xlink">
<g id="graph0" class="graph" transform="scale(1 1) rotate(0) translate(4 482)">
<title>duvc::is_same_device</title>
<!-- Node1 -->
<g id="Node000001" class="node">
<title>Node1</title>
<g id="a_Node000001"><a xlink:title="Check if two device identifiers refer to same device.">
<polygon fill="#999999" stroke="#666666" points="595.75,-224 482.25,-224 482.25,-204 595.75,-204 595.75,-224"/>
<text xml:space="preserve" text-anchor="middle" x="539" y="-210.5" font-family="Helvetica,sans-Serif" font-size="10.00">duvc::is_same_device</text>
</a>
</g>
</g>
<!-- Node2 -->
<g id="Node000002" class="node">
<title>Node2</title>
<g id="a_Node000002"><a xlink:href="namespaceduvc.html#ab42651167ff39abe9e70713ac6db65b9" target="_top" xlink:title="Check if a device is currently connected and accessible.">
<polygon fill="white" stroke="#666666" points="446.25,-334 311.75,-334 311.75,-314 446.25,-314 446.25,-334"/>
<text xml:space="preserve" text-anchor="middle" x="379" y="-320.5" font-family="Helvetica,sans-Serif" font-size="10.00">duvc::is_device_connected</text>
</a>
</g>
</g>
<!-- Node1&#45;&gt;Node2 -->
<g id="edge1_Node000001_Node000002" class="edge">
<title>Node1&#45;&gt;Node2</title>
<g id="a_edge1_Node000001_Node000002"><a xlink:title=" ">
<path fill="none" stroke="#63b8ff" d="M513.73,-230.9C480.62,-253.95 422.29,-294.56 394.94,-313.6"/>
<polygon fill="#63b8ff" stroke="#63b8ff" points="515.69,-233.8 521.89,-225.21 511.69,-228.05 515.69,-233.8"/>
</a>
</g>
</g>
<!-- Node10 -->
<g id="Node000010" class="node">
<title>Node10</title>
<g id="a_Node000010"><a xlink:href="namespaceduvc.html#a1345df0af198d75f16c54e38d54c7e63" target="_top" xlink:title="Create DirectShow filter from device.">
<polygon fill="white" stroke="#666666" points="439.88,-136 318.12,-136 318.12,-116 439.88,-116 439.88,-136"/>
<text xml:space="preserve" text-anchor="middle" x="379" y="-122.5" font-family="Helvetica,sans-Serif" font-size="10.00">duvc::open_device_filter</text>
</a>
</g>
</g>
<!-- Node1&#45;&gt;Node10 -->
<g id="edge10_Node000001_Node000010" class="edge">
<title>Node1&#45;&gt;Node10</title>
<g id="a_edge10_Node000001_Node000010"><a xlink:title=" ">
<path fill="none" stroke="#63b8ff" d="M509.56,-198.16C477.46,-180.28 426.15,-151.7 398.72,-136.43"/>
<polygon fill="#63b8ff" stroke="#63b8ff" points="507.49,-201.02 517.93,-202.82 510.9,-194.9 507.49,-201.02"/>
</a>
</g>
</g>
<!-- Node3 -->
<g id="Node000003" class="node">
<title>Node3</title>
<g id="a_Node000003"><a xlink:href="classduvc_1_1DeviceCapabilities.html#a1275f0a40ef3c3462236e21de5feb0ee" target="_top" xlink:title="Create capabilities snapshot for device.">
<polygon fill="white" stroke="#666666" points="271.25,-478 146.5,-478 146.5,-446 271.25,-446 271.25,-478"/>
<text xml:space="preserve" text-anchor="start" x="154.5" y="-464.5" font-family="Helvetica,sans-Serif" font-size="10.00">duvc::DeviceCapabilities</text>
<text xml:space="preserve" text-anchor="middle" x="208.88" y="-452.5" font-family="Helvetica,sans-Serif" font-size="10.00">::DeviceCapabilities</text>
</a>
</g>
</g>
<!-- Node2&#45;&gt;Node3 -->
<g id="edge2_Node000002_Node000003" class="edge">
<title>Node2&#45;&gt;Node3</title>
<g id="a_edge2_Node000002_Node000003"><a xlink:title=" ">
<path fill="none" stroke="#63b8ff" d="M364.96,-343.35C347.35,-368.16 313.78,-411.04 275.75,-437 271.1,-440.17 266,-443.01 260.75,-445.54"/>
<polygon fill="#63b8ff" stroke="#63b8ff" points="367.61,-345.68 370.43,-335.47 361.85,-341.69 367.61,-345.68"/>
</a>
</g>
</g>
<!-- Node4 -->
<g id="Node000004" class="node">
<title>Node4</title>
<g id="a_Node000004"><a xlink:href="api_8cpp.html#a2443011d38e904503e646d3da95252a2" target="_top" xlink:title="Check if device is connected.">
<polygon fill="white" stroke="#666666" points="275.75,-428 142,-428 142,-408 275.75,-408 275.75,-428"/>
<text xml:space="preserve" text-anchor="middle" x="208.88" y="-414.5" font-family="Helvetica,sans-Serif" font-size="10.00">duvc_is_device_connected</text>
</a>
</g>
</g>
<!-- Node2&#45;&gt;Node4 -->
<g id="edge3_Node000002_Node000004" class="edge">
<title>Node2&#45;&gt;Node4</title>
<g id="a_edge3_Node000002_Node000004"><a xlink:title=" ">
<path fill="none" stroke="#63b8ff" d="M357.97,-342.05C338.31,-358.92 306.82,-383.73 275.75,-399 269.02,-402.31 261.61,-405.14 254.27,-407.53"/>
<polygon fill="#63b8ff" stroke="#63b8ff" points="360.26,-344.7 365.48,-335.48 355.65,-339.43 360.26,-344.7"/>
</a>
</g>
</g>
<!-- Node5 -->
<g id="Node000005" class="node">
<title>Node5</title>
<g id="a_Node000005"><a xlink:href="bindings_8cpp.html#ae6c4b34fa8f4bfc8b53488ce2fccad7b" target="_top" xlink:title=" ">
<polygon fill="white" stroke="#666666" points="275.75,-390 142,-390 142,-370 275.75,-370 275.75,-390"/>
<text xml:space="preserve" text-anchor="middle" x="208.88" y="-376.5" font-family="Helvetica,sans-Serif" font-size="10.00">duvc_is_device_connected</text>
</a>
</g>
</g>
<!-- Node2&#45;&gt;Node5 -->
<g id="edge4_Node000002_Node000005" class="edge">
<title>Node2&#45;&gt;Node5</title>
<g id="a_edge4_Node000002_Node000005"><a xlink:title=" ">
<path fill="none" stroke="#63b8ff" d="M340.11,-338.39C320.93,-345.5 297.21,-354.03 275.75,-361 266.69,-363.94 256.86,-366.9 247.63,-369.58"/>
<polygon fill="#63b8ff" stroke="#63b8ff" points="341.27,-341.69 349.41,-334.92 338.82,-335.14 341.27,-341.69"/>
</a>
</g>
</g>
<!-- Node6 -->
<g id="Node000006" class="node">
<title>Node6</title>
<g id="a_Node000006"><a xlink:href="classduvc_1_1Camera.html#a682f869dcea95cc310c86275872c00d2" target="_top" xlink:title="Check if camera is valid and connected.">
<polygon fill="white" stroke="#666666" points="267.12,-334 150.62,-334 150.62,-314 267.12,-314 267.12,-334"/>
<text xml:space="preserve" text-anchor="middle" x="208.88" y="-320.5" font-family="Helvetica,sans-Serif" font-size="10.00">duvc::Camera::is_valid</text>
</a>
</g>
</g>
<!-- Node2&#45;&gt;Node6 -->
<g id="edge5_Node000002_Node000006" class="edge">
<title>Node2&#45;&gt;Node6</title>
<g id="a_edge5_Node000002_Node000006"><a xlink:title=" ">
<path fill="none" stroke="#63b8ff" d="M300.15,-324C289.13,-324 277.96,-324 267.41,-324"/>
<polygon fill="#63b8ff" stroke="#63b8ff" points="300.04,-327.5 310.04,-324 300.04,-320.5 300.04,-327.5"/>
</a>
</g>
</g>
<!-- Node7 -->
<g id="Node000007" class="node">
<title>Node7</title>
<g id="a_Node000007"><a xlink:href="namespaceduvc.html#aff098bd345fe014553d8b82c5f58b89f" target="_top" xlink:title="Create camera from device.">
<polygon fill="white" stroke="#666666" points="259.62,-296 158.12,-296 158.12,-276 259.62,-276 259.62,-296"/>
<text xml:space="preserve" text-anchor="middle" x="208.88" y="-282.5" font-family="Helvetica,sans-Serif" font-size="10.00">duvc::open_camera</text>
</a>
</g>
</g>
<!-- Node2&#45;&gt;Node7 -->
<g id="edge7_Node000002_Node000007" class="edge">
<title>Node2&#45;&gt;Node7</title>
<g id="a_edge7_Node000002_Node000007"><a xlink:title=" ">
<path fill="none" stroke="#63b8ff" d="M320.55,-311.02C299.53,-306.26 276.03,-300.95 256.11,-296.45"/>
<polygon fill="#63b8ff" stroke="#63b8ff" points="319.61,-314.39 330.14,-313.18 321.16,-307.56 319.61,-314.39"/>
</a>
</g>
</g>
<!-- Node8 -->
<g id="Node000008" class="node">
<title>Node8</title>
<g id="a_Node000008"><a xlink:href="classduvc_1_1DeviceCapabilities.html#a736006fec61636a4326e29373d172a44" target="_top" xlink:title="Refresh capability snapshot.">
<polygon fill="white" stroke="#666666" points="271.25,-258 146.5,-258 146.5,-226 271.25,-226 271.25,-258"/>
<text xml:space="preserve" text-anchor="start" x="154.5" y="-244.5" font-family="Helvetica,sans-Serif" font-size="10.00">duvc::DeviceCapabilities</text>
<text xml:space="preserve" text-anchor="middle" x="208.88" y="-232.5" font-family="Helvetica,sans-Serif" font-size="10.00">::refresh</text>
</a>
</g>
</g>
<!-- Node2&#45;&gt;Node8 -->
<g id="edge8_Node000002_Node000008" class="edge">
<title>Node2&#45;&gt;Node8</title>
<g id="a_edge8_Node000002_Node000008"><a xlink:title=" ">
<path fill="none" stroke="#63b8ff" d="M351.25,-307.67C330.94,-295.63 302.11,-279.27 275.75,-267 269.43,-264.06 262.66,-261.19 255.95,-258.5"/>
<polygon fill="#63b8ff" stroke="#63b8ff" points="349.36,-310.62 359.73,-312.75 352.95,-304.61 349.36,-310.62"/>
</a>
</g>
</g>
<!-- Node6&#45;&gt;Node6 -->
<g id="edge6_Node000006_Node000006" class="edge">
<title>Node6&#45;&gt;Node6</title>
<g id="a_edge6_Node000006_Node000006"><a xlink:title=" ">
<path fill="none" stroke="#63b8ff" d="M236.43,-345.44C232.88,-349.3 223.69,-352 208.88,-352 181.78,-352 173.52,-342.98 184.11,-334.34"/>
<polygon fill="#63b8ff" stroke="#63b8ff" points="239.84,-344.66 234.01,-335.81 233.05,-346.36 239.84,-344.66"/>
</a>
</g>
</g>
<!-- Node9 -->
<g id="Node000009" class="node">
<title>Node9</title>
<g id="a_Node000009"><a xlink:href="api_8cpp.html#a2250e42d04f148b7fc027c026f9a0495" target="_top" xlink:title="Refresh capabilities snapshot.">
<polygon fill="white" stroke="#666666" points="106,-258 0,-258 0,-226 106,-226 106,-258"/>
<text xml:space="preserve" text-anchor="start" x="8" y="-244.5" font-family="Helvetica,sans-Serif" font-size="10.00">duvc_refresh_device</text>
<text xml:space="preserve" text-anchor="middle" x="53" y="-232.5" font-family="Helvetica,sans-Serif" font-size="10.00">_capabilities</text>
</a>
</g>
</g>
<!-- Node8&#45;&gt;Node9 -->
<g id="edge9_Node000008_Node000009" class="edge">
<title>Node8&#45;&gt;Node9</title>
<g id="a_edge9_Node000008_Node000009"><a xlink:title=" ">
<path fill="none" stroke="#63b8ff" d="M134.92,-242C125.26,-242 115.52,-242 106.31,-242"/>
<polygon fill="#63b8ff" stroke="#63b8ff" points="134.66,-245.5 144.66,-242 134.66,-238.5 134.66,-245.5"/>
</a>
</g>
</g>
<!-- Node11 -->
<g id="Node000011" class="node">
<title>Node11</title>
<g id="a_Node000011"><a xlink:href="classduvc_1_1DeviceConnection.html#a4afc9b6ddaeb6ffdcfcda94dd14f6dbc" target="_top" xlink:title=" ">
<polygon fill="white" stroke="#666666" points="270.5,-208 147.25,-208 147.25,-176 270.5,-176 270.5,-208"/>
<text xml:space="preserve" text-anchor="start" x="155.25" y="-194.5" font-family="Helvetica,sans-Serif" font-size="10.00">duvc::DeviceConnection</text>
<text xml:space="preserve" text-anchor="middle" x="208.88" y="-182.5" font-family="Helvetica,sans-Serif" font-size="10.00">::DeviceConnection</text>
</a>
</g>
</g>
<!-- Node10&#45;&gt;Node11 -->
<g id="edge11_Node000010_Node000011" class="edge">
<title>Node10&#45;&gt;Node11</title>
<g id="a_edge11_Node000010_Node000011"><a xlink:title=" ">
<path fill="none" stroke="#63b8ff" d="M341.84,-140.69C322.31,-148.58 297.75,-158.42 275.75,-167 268.57,-169.8 260.94,-172.74 253.5,-175.57"/>
<polygon fill="#63b8ff" stroke="#63b8ff" points="343.06,-143.97 351.02,-136.98 340.43,-137.48 343.06,-143.97"/>
</a>
</g>
</g>
<!-- Node12 -->
<g id="Node000012" class="node">
<title>Node12</title>
<g id="a_Node000012"><a xlink:href="namespaceduvc.html#aa019a1c9788c84f47348db3f03b25d42" target="_top" xlink:title="Get vendor&#45;specific property data from device.">
<polygon fill="white" stroke="#666666" points="274.62,-158 143.12,-158 143.12,-138 274.62,-138 274.62,-158"/>
<text xml:space="preserve" text-anchor="middle" x="208.88" y="-144.5" font-family="Helvetica,sans-Serif" font-size="10.00">duvc::get_vendor_property</text>
</a>
</g>
</g>
<!-- Node10&#45;&gt;Node12 -->
<g id="edge12_Node000010_Node000012" class="edge">
<title>Node10&#45;&gt;Node12</title>
<g id="a_edge12_Node000010_Node000012"><a xlink:title=" ">
<path fill="none" stroke="#63b8ff" d="M306.57,-135.35C296.12,-136.71 285.4,-138.12 275.08,-139.47"/>
<polygon fill="#63b8ff" stroke="#63b8ff" points="306.82,-138.84 316.28,-134.08 305.91,-131.9 306.82,-138.84"/>
</a>
</g>
</g>
<!-- Node13 -->
<g id="Node000013" class="node">
<title>Node13</title>
<g id="a_Node000013"><a xlink:href="classduvc_1_1KsPropertySet.html#aac9242599b92d9f1880f63f2256c72e3" target="_top" xlink:title="Create KsPropertySet from device.">
<polygon fill="white" stroke="#666666" points="262.25,-120 155.5,-120 155.5,-88 262.25,-88 262.25,-120"/>
<text xml:space="preserve" text-anchor="start" x="163.5" y="-106.5" font-family="Helvetica,sans-Serif" font-size="10.00">duvc::KsPropertySet</text>
<text xml:space="preserve" text-anchor="middle" x="208.88" y="-94.5" font-family="Helvetica,sans-Serif" font-size="10.00">::KsPropertySet</text>
</a>
</g>
</g>
<!-- Node10&#45;&gt;Node13 -->
<g id="edge13_Node000010_Node000013" class="edge">
<title>Node10&#45;&gt;Node13</title>
<g id="a_edge13_Node000010_Node000013"><a xlink:title=" ">
<path fill="none" stroke="#63b8ff" d="M306.65,-116.66C291.91,-114.73 276.64,-112.74 262.71,-110.91"/>
<polygon fill="#63b8ff" stroke="#63b8ff" points="305.91,-120.1 316.28,-117.92 306.82,-113.16 305.91,-120.1"/>
</a>
</g>
</g>
<!-- Node14 -->
<g id="Node000014" class="node">
<title>Node14</title>
<g id="a_Node000014"><a xlink:href="namespaceduvc.html#a5ddd570cc76e8dbdef26ad18660ddb07" target="_top" xlink:title="Query whether device supports a vendor&#45;specific property.">
<polygon fill="white" stroke="#666666" points="259.62,-70 158.12,-70 158.12,-38 259.62,-38 259.62,-70"/>
<text xml:space="preserve" text-anchor="start" x="166.12" y="-56.5" font-family="Helvetica,sans-Serif" font-size="10.00">duvc::query_vendor</text>
<text xml:space="preserve" text-anchor="middle" x="208.88" y="-44.5" font-family="Helvetica,sans-Serif" font-size="10.00">_property_support</text>
</a>
</g>
</g>
<!-- Node10&#45;&gt;Node14 -->
<g id="edge14_Node000010_Node000014" class="edge">
<title>Node10&#45;&gt;Node14</title>
<g id="a_edge14_Node000010_Node000014"><a xlink:title=" ">
<path fill="none" stroke="#63b8ff" d="M346.5,-110.85C326.41,-101.35 299.73,-89.05 275.75,-79 268.87,-76.12 261.53,-73.19 254.33,-70.4"/>
<polygon fill="#63b8ff" stroke="#63b8ff" points="344.74,-113.89 355.28,-115.02 347.75,-107.56 344.74,-113.89"/>
</a>
</g>
</g>
<!-- Node15 -->
<g id="Node000015" class="node">
<title>Node15</title>
<g id="a_Node000015"><a xlink:href="namespaceduvc.html#ab333863cefef68546e2e235527fe3b5c" target="_top" xlink:title="Set vendor&#45;specific property data on device.">
<polygon fill="white" stroke="#666666" points="274.62,-20 143.12,-20 143.12,0 274.62,0 274.62,-20"/>
<text xml:space="preserve" text-anchor="middle" x="208.88" y="-6.5" font-family="Helvetica,sans-Serif" font-size="10.00">duvc::set_vendor_property</text>
</a>
</g>
</g>
<!-- Node10&#45;&gt;Node15 -->
<g id="edge15_Node000010_Node000015" class="edge">
<title>Node10&#45;&gt;Node15</title>
<g id="a_edge15_Node000010_Node000015"><a xlink:title=" ">
<path fill="none" stroke="#63b8ff" d="M362.75,-106.78C344.36,-84.87 311.45,-49.44 275.75,-29 269.86,-25.63 263.33,-22.82 256.73,-20.48"/>
<polygon fill="#63b8ff" stroke="#63b8ff" points="359.91,-108.84 368.96,-114.36 365.33,-104.41 359.91,-108.84"/>
</a>
</g>
</g>
</g>
</svg>
