<?xml version="1.0" encoding="UTF-8" standalone="no"?>
<!DOCTYPE svg PUBLIC "-//W3C//DTD SVG 1.1//EN"
 "http://www.w3.org/Graphics/SVG/1.1/DTD/svg11.dtd">
<!-- Generated by graphviz version 14.0.2 (20251019.1705)
 -->
<!-- Title: duvc::log_critical Pages: 1 -->
<svg width="545pt" height="66pt"
 viewBox="0.00 0.00 545.00 66.00" xmlns="http://www.w3.org/2000/svg" xmlns:xlink="http://www.w3.org/1999/xlink">
<g id="graph0" class="graph" transform="scale(1 1) rotate(0) translate(4 62)">
<title>duvc::log_critical</title>
<!-- Node1 -->
<g id="Node000001" class="node">
<title>Node1</title>
<g id="a_Node000001"><a xlink:title="Log critical message.">
<polygon fill="#999999" stroke="#666666" points="89.5,-39 0,-39 0,-19 89.5,-19 89.5,-39"/>
<text xml:space="preserve" text-anchor="middle" x="44.75" y="-25.5" font-family="Helvetica,sans-Serif" font-size="10.00">duvc::log_critical</text>
</a>
</g>
</g>
<!-- Node2 -->
<g id="Node000002" class="node">
<title>Node2</title>
<g id="a_Node000002"><a xlink:href="namespaceduvc.html#a92c11bbcc4c659a542bd48d477f60876" target="_top" xlink:title="Log a message.">
<polygon fill="white" stroke="#666666" points="226.25,-39 125.5,-39 125.5,-19 226.25,-19 226.25,-39"/>
<text xml:space="preserve" text-anchor="middle" x="175.88" y="-25.5" font-family="Helvetica,sans-Serif" font-size="10.00">duvc::log_message</text>
</a>
</g>
</g>
<!-- Node1&#45;&gt;Node2 -->
<g id="edge1_Node000001_Node000002" class="edge">
<title>Node1&#45;&gt;Node2</title>
<g id="a_edge1_Node000001_Node000002"><a xlink:title=" ">
<path fill="none" stroke="#63b8ff" d="M89.83,-29C97.57,-29 105.76,-29 113.87,-29"/>
<polygon fill="#63b8ff" stroke="#63b8ff" points="113.72,-32.5 123.72,-29 113.72,-25.5 113.72,-32.5"/>
</a>
</g>
</g>
<!-- Node3 -->
<g id="Node000003" class="node">
<title>Node3</title>
<g id="a_Node000003"><a xlink:href="namespaceduvc.html#ababd2cbe9f996df9fb02141b96f1a0da" target="_top" xlink:title="Default logging callback that writes to stderr.">
<polygon fill="white" stroke="#666666" points="393.75,-39 262.25,-39 262.25,-19 393.75,-19 393.75,-39"/>
<text xml:space="preserve" text-anchor="middle" x="328" y="-25.5" font-family="Helvetica,sans-Serif" font-size="10.00">duvc::default_log_callback</text>
</a>
</g>
</g>
<!-- Node2&#45;&gt;Node3 -->
<g id="edge2_Node000002_Node000003" class="edge">
<title>Node2&#45;&gt;Node3</title>
<g id="a_edge2_Node000002_Node000003"><a xlink:title=" ">
<path fill="none" stroke="#63b8ff" d="M226.45,-29C234.17,-29 242.3,-29 250.45,-29"/>
<polygon fill="#63b8ff" stroke="#63b8ff" points="250.44,-32.5 260.44,-29 250.44,-25.5 250.44,-32.5"/>
</a>
</g>
</g>
<!-- Node4 -->
<g id="Node000004" class="node">
<title>Node4</title>
<g id="a_Node000004"><a xlink:href="namespaceduvc.html#a621c452d402f42a3c34c68da6f2848f1" target="_top" xlink:title="Get current timestamp as string.">
<polygon fill="white" stroke="#666666" points="537.25,-58 429.75,-58 429.75,-38 537.25,-38 537.25,-58"/>
<text xml:space="preserve" text-anchor="middle" x="483.5" y="-44.5" font-family="Helvetica,sans-Serif" font-size="10.00">duvc::get_timestamp</text>
</a>
</g>
</g>
<!-- Node3&#45;&gt;Node4 -->
<g id="edge3_Node000003_Node000004" class="edge">
<title>Node3&#45;&gt;Node4</title>
<g id="a_edge3_Node000003_Node000004"><a xlink:title=" ">
<path fill="none" stroke="#63b8ff" d="M394.1,-37.06C402,-38.04 410.08,-39.04 417.98,-40.01"/>
<polygon fill="#63b8ff" stroke="#63b8ff" points="417.52,-43.48 427.88,-41.24 418.38,-36.54 417.52,-43.48"/>
</a>
</g>
</g>
<!-- Node5 -->
<g id="Node000005" class="node">
<title>Node5</title>
<g id="a_Node000005"><a xlink:href="namespaceduvc.html#a8556fd02a649101843e7712e638cc0cb" target="_top" xlink:title="Convert camera property enum to string.">
<polygon fill="white" stroke="#666666" points="523.75,-20 443.25,-20 443.25,0 523.75,0 523.75,-20"/>
<text xml:space="preserve" text-anchor="middle" x="483.5" y="-6.5" font-family="Helvetica,sans-Serif" font-size="10.00">duvc::to_string</text>
</a>
</g>
</g>
<!-- Node3&#45;&gt;Node5 -->
<g id="edge4_Node000003_Node000005" class="edge">
<title>Node3&#45;&gt;Node5</title>
<g id="a_edge4_Node000003_Node000005"><a xlink:title=" ">
<path fill="none" stroke="#63b8ff" d="M394.1,-20.94C406.73,-19.38 419.79,-17.76 431.88,-16.27"/>
<polygon fill="#63b8ff" stroke="#63b8ff" points="432.12,-19.76 441.61,-15.06 431.26,-12.82 432.12,-19.76"/>
</a>
</g>
</g>
</g>
</svg>
