<?xml version="1.0" encoding="UTF-8" standalone="no"?>
<!DOCTYPE svg PUBLIC "-//W3C//DTD SVG 1.1//EN"
 "http://www.w3.org/Graphics/SVG/1.1/DTD/svg11.dtd">
<!-- Generated by graphviz version 14.0.2 (20251019.1705)
 -->
<!-- Title: duvc::enum_video_devices Pages: 1 -->
<svg width="651pt" height="1036pt"
 viewBox="0.00 0.00 651.00 1036.00" xmlns="http://www.w3.org/2000/svg" xmlns:xlink="http://www.w3.org/1999/xlink">
<g id="graph0" class="graph" transform="scale(1 1) rotate(0) translate(4 1032)">
<title>duvc::enum_video_devices</title>
<!-- Node1 -->
<g id="Node000001" class="node">
<title>Node1</title>
<g id="a_Node000001"><a xlink:title="Enumerate video input devices.">
<polygon fill="#999999" stroke="#666666" points="643,-530 508.5,-530 508.5,-510 643,-510 643,-530"/>
<text xml:space="preserve" text-anchor="middle" x="575.75" y="-516.5" font-family="Helvetica,sans-Serif" font-size="10.00">duvc::enum_video_devices</text>
</a>
</g>
</g>
<!-- Node2 -->
<g id="Node000002" class="node">
<title>Node2</title>
<g id="a_Node000002"><a xlink:href="namespaceduvc.html#ab42651167ff39abe9e70713ac6db65b9" target="_top" xlink:title="Check if a device is currently connected and accessible.">
<polygon fill="white" stroke="#666666" points="472.5,-884 338,-884 338,-864 472.5,-864 472.5,-884"/>
<text xml:space="preserve" text-anchor="middle" x="405.25" y="-870.5" font-family="Helvetica,sans-Serif" font-size="10.00">duvc::is_device_connected</text>
</a>
</g>
</g>
<!-- Node1&#45;&gt;Node2 -->
<g id="edge1_Node000001_Node000002" class="edge">
<title>Node1&#45;&gt;Node2</title>
<g id="a_edge1_Node000001_Node000002"><a xlink:title=" ">
<path fill="none" stroke="#63b8ff" d="M565.13,-540.2C533.65,-606.36 434.33,-815 411.13,-863.75"/>
<polygon fill="#63b8ff" stroke="#63b8ff" points="568.1,-542.11 569.24,-531.58 561.78,-539.1 568.1,-542.11"/>
</a>
</g>
</g>
<!-- Node10 -->
<g id="Node000010" class="node">
<title>Node10</title>
<g id="a_Node000010"><a xlink:href="namespaceduvc.html#a2c254074ce671320e3e57c56a9389ac1" target="_top" xlink:title="Enumerate all available video input devices.">
<polygon fill="white" stroke="#666666" points="452.62,-530 357.88,-530 357.88,-510 452.62,-510 452.62,-530"/>
<text xml:space="preserve" text-anchor="middle" x="405.25" y="-516.5" font-family="Helvetica,sans-Serif" font-size="10.00">duvc::list_devices</text>
</a>
</g>
</g>
<!-- Node1&#45;&gt;Node10 -->
<g id="edge10_Node000001_Node000010" class="edge">
<title>Node1&#45;&gt;Node10</title>
<g id="a_edge10_Node000001_Node000010"><a xlink:title=" ">
<path fill="none" stroke="#63b8ff" d="M496.77,-520C481.78,-520 466.52,-520 452.9,-520"/>
<polygon fill="#63b8ff" stroke="#63b8ff" points="496.64,-523.5 506.64,-520 496.64,-516.5 496.64,-523.5"/>
</a>
</g>
</g>
<!-- Node33 -->
<g id="Node000033" class="node">
<title>Node33</title>
<g id="a_Node000033"><a xlink:href="namespaceduvc.html#a1345df0af198d75f16c54e38d54c7e63" target="_top" xlink:title="Create DirectShow filter from device.">
<polygon fill="white" stroke="#666666" points="466.12,-136 344.38,-136 344.38,-116 466.12,-116 466.12,-136"/>
<text xml:space="preserve" text-anchor="middle" x="405.25" y="-122.5" font-family="Helvetica,sans-Serif" font-size="10.00">duvc::open_device_filter</text>
</a>
</g>
</g>
<!-- Node1&#45;&gt;Node33 -->
<g id="edge35_Node000001_Node000033" class="edge">
<title>Node1&#45;&gt;Node33</title>
<g id="a_edge35_Node000001_Node000033"><a xlink:title=" ">
<path fill="none" stroke="#63b8ff" d="M565.98,-499.49C535.28,-427.7 433.31,-189.27 410.71,-136.43"/>
<polygon fill="#63b8ff" stroke="#63b8ff" points="562.67,-500.65 569.82,-508.47 569.11,-497.9 562.67,-500.65"/>
</a>
</g>
</g>
<!-- Node3 -->
<g id="Node000003" class="node">
<title>Node3</title>
<g id="a_Node000003"><a xlink:href="classduvc_1_1DeviceCapabilities.html#a1275f0a40ef3c3462236e21de5feb0ee" target="_top" xlink:title="Create capabilities snapshot for device.">
<polygon fill="white" stroke="#666666" points="292.25,-1028 167.5,-1028 167.5,-996 292.25,-996 292.25,-1028"/>
<text xml:space="preserve" text-anchor="start" x="175.5" y="-1014.5" font-family="Helvetica,sans-Serif" font-size="10.00">duvc::DeviceCapabilities</text>
<text xml:space="preserve" text-anchor="middle" x="229.88" y="-1002.5" font-family="Helvetica,sans-Serif" font-size="10.00">::DeviceCapabilities</text>
</a>
</g>
</g>
<!-- Node2&#45;&gt;Node3 -->
<g id="edge2_Node000002_Node000003" class="edge">
<title>Node2&#45;&gt;Node3</title>
<g id="a_edge2_Node000002_Node000003"><a xlink:title=" ">
<path fill="none" stroke="#63b8ff" d="M391.31,-893.5C373.81,-918.46 340.34,-961.51 302,-987 297.2,-990.19 291.96,-993.02 286.55,-995.52"/>
<polygon fill="#63b8ff" stroke="#63b8ff" points="393.98,-895.78 396.75,-885.56 388.21,-891.83 393.98,-895.78"/>
</a>
</g>
</g>
<!-- Node4 -->
<g id="Node000004" class="node">
<title>Node4</title>
<g id="a_Node000004"><a xlink:href="api_8cpp.html#a2443011d38e904503e646d3da95252a2" target="_top" xlink:title="Check if device is connected.">
<polygon fill="white" stroke="#666666" points="296.75,-978 163,-978 163,-958 296.75,-958 296.75,-978"/>
<text xml:space="preserve" text-anchor="middle" x="229.88" y="-964.5" font-family="Helvetica,sans-Serif" font-size="10.00">duvc_is_device_connected</text>
</a>
</g>
</g>
<!-- Node2&#45;&gt;Node4 -->
<g id="edge3_Node000002_Node000004" class="edge">
<title>Node2&#45;&gt;Node4</title>
<g id="a_edge3_Node000002_Node000004"><a xlink:title=" ">
<path fill="none" stroke="#63b8ff" d="M384.61,-891.91C365.01,-908.88 333.39,-933.95 302,-949 294.97,-952.37 287.25,-955.21 279.57,-957.59"/>
<polygon fill="#63b8ff" stroke="#63b8ff" points="386.9,-894.55 392.07,-885.31 382.26,-889.31 386.9,-894.55"/>
</a>
</g>
</g>
<!-- Node5 -->
<g id="Node000005" class="node">
<title>Node5</title>
<g id="a_Node000005"><a xlink:href="bindings_8cpp.html#ae6c4b34fa8f4bfc8b53488ce2fccad7b" target="_top" xlink:title=" ">
<polygon fill="white" stroke="#666666" points="296.75,-796 163,-796 163,-776 296.75,-776 296.75,-796"/>
<text xml:space="preserve" text-anchor="middle" x="229.88" y="-782.5" font-family="Helvetica,sans-Serif" font-size="10.00">duvc_is_device_connected</text>
</a>
</g>
</g>
<!-- Node2&#45;&gt;Node5 -->
<g id="edge4_Node000002_Node000005" class="edge">
<title>Node2&#45;&gt;Node5</title>
<g id="a_edge4_Node000002_Node000005"><a xlink:title=" ">
<path fill="none" stroke="#63b8ff" d="M383.05,-856.58C363.2,-841.06 332.15,-818.73 302,-805 294.67,-801.66 286.64,-798.82 278.7,-796.42"/>
<polygon fill="#63b8ff" stroke="#63b8ff" points="380.66,-859.15 390.66,-862.65 385.02,-853.68 380.66,-859.15"/>
</a>
</g>
</g>
<!-- Node6 -->
<g id="Node000006" class="node">
<title>Node6</title>
<g id="a_Node000006"><a xlink:href="classduvc_1_1Camera.html#a682f869dcea95cc310c86275872c00d2" target="_top" xlink:title="Check if camera is valid and connected.">
<polygon fill="white" stroke="#666666" points="288.12,-922 171.62,-922 171.62,-902 288.12,-902 288.12,-922"/>
<text xml:space="preserve" text-anchor="middle" x="229.88" y="-908.5" font-family="Helvetica,sans-Serif" font-size="10.00">duvc::Camera::is_valid</text>
</a>
</g>
</g>
<!-- Node2&#45;&gt;Node6 -->
<g id="edge5_Node000002_Node000006" class="edge">
<title>Node2&#45;&gt;Node6</title>
<g id="a_edge5_Node000002_Node000006"><a xlink:title=" ">
<path fill="none" stroke="#63b8ff" d="M345.31,-886.92C323.55,-891.69 299.19,-897.03 278.55,-901.55"/>
<polygon fill="#63b8ff" stroke="#63b8ff" points="345.92,-890.37 354.94,-884.81 344.42,-883.53 345.92,-890.37"/>
</a>
</g>
</g>
<!-- Node7 -->
<g id="Node000007" class="node">
<title>Node7</title>
<g id="a_Node000007"><a xlink:href="namespaceduvc.html#aff098bd345fe014553d8b82c5f58b89f" target="_top" xlink:title="Create camera from device.">
<polygon fill="white" stroke="#666666" points="280.62,-884 179.12,-884 179.12,-864 280.62,-864 280.62,-884"/>
<text xml:space="preserve" text-anchor="middle" x="229.88" y="-870.5" font-family="Helvetica,sans-Serif" font-size="10.00">duvc::open_camera</text>
</a>
</g>
</g>
<!-- Node2&#45;&gt;Node7 -->
<g id="edge7_Node000002_Node000007" class="edge">
<title>Node2&#45;&gt;Node7</title>
<g id="a_edge7_Node000002_Node000007"><a xlink:title=" ">
<path fill="none" stroke="#63b8ff" d="M326.57,-874C311.12,-874 295.3,-874 281.07,-874"/>
<polygon fill="#63b8ff" stroke="#63b8ff" points="326.2,-877.5 336.2,-874 326.2,-870.5 326.2,-877.5"/>
</a>
</g>
</g>
<!-- Node8 -->
<g id="Node000008" class="node">
<title>Node8</title>
<g id="a_Node000008"><a xlink:href="classduvc_1_1DeviceCapabilities.html#a736006fec61636a4326e29373d172a44" target="_top" xlink:title="Refresh capability snapshot.">
<polygon fill="white" stroke="#666666" points="292.25,-846 167.5,-846 167.5,-814 292.25,-814 292.25,-846"/>
<text xml:space="preserve" text-anchor="start" x="175.5" y="-832.5" font-family="Helvetica,sans-Serif" font-size="10.00">duvc::DeviceCapabilities</text>
<text xml:space="preserve" text-anchor="middle" x="229.88" y="-820.5" font-family="Helvetica,sans-Serif" font-size="10.00">::refresh</text>
</a>
</g>
</g>
<!-- Node2&#45;&gt;Node8 -->
<g id="edge8_Node000002_Node000008" class="edge">
<title>Node2&#45;&gt;Node8</title>
<g id="a_edge8_Node000002_Node000008"><a xlink:title=" ">
<path fill="none" stroke="#63b8ff" d="M352.18,-860.79C333.46,-856.04 312.17,-850.63 292.71,-845.69"/>
<polygon fill="#63b8ff" stroke="#63b8ff" points="351.14,-864.13 361.7,-863.2 352.86,-857.35 351.14,-864.13"/>
</a>
</g>
</g>
<!-- Node6&#45;&gt;Node6 -->
<g id="edge6_Node000006_Node000006" class="edge">
<title>Node6&#45;&gt;Node6</title>
<g id="a_edge6_Node000006_Node000006"><a xlink:title=" ">
<path fill="none" stroke="#63b8ff" d="M259.74,-933.44C255.9,-937.3 245.94,-940 229.88,-940 200.5,-940 191.55,-930.98 203.02,-922.34"/>
<polygon fill="#63b8ff" stroke="#63b8ff" points="263.12,-932.53 257.12,-923.8 256.37,-934.37 263.12,-932.53"/>
</a>
</g>
</g>
<!-- Node9 -->
<g id="Node000009" class="node">
<title>Node9</title>
<g id="a_Node000009"><a xlink:href="api_8cpp.html#a2250e42d04f148b7fc027c026f9a0495" target="_top" xlink:title="Refresh capabilities snapshot.">
<polygon fill="white" stroke="#666666" points="113.88,-846 7.88,-846 7.88,-814 113.88,-814 113.88,-846"/>
<text xml:space="preserve" text-anchor="start" x="15.88" y="-832.5" font-family="Helvetica,sans-Serif" font-size="10.00">duvc_refresh_device</text>
<text xml:space="preserve" text-anchor="middle" x="60.88" y="-820.5" font-family="Helvetica,sans-Serif" font-size="10.00">_capabilities</text>
</a>
</g>
</g>
<!-- Node8&#45;&gt;Node9 -->
<g id="edge9_Node000008_Node000009" class="edge">
<title>Node8&#45;&gt;Node9</title>
<g id="a_edge9_Node000008_Node000009"><a xlink:title=" ">
<path fill="none" stroke="#63b8ff" d="M156.02,-830C141.98,-830 127.52,-830 114.29,-830"/>
<polygon fill="#63b8ff" stroke="#63b8ff" points="155.65,-833.5 165.65,-830 155.65,-826.5 155.65,-833.5"/>
</a>
</g>
</g>
<!-- Node10&#45;&gt;Node5 -->
<g id="edge18_Node000010_Node000005" class="edge">
<title>Node10&#45;&gt;Node5</title>
<g id="a_edge18_Node000010_Node000005"><a xlink:title=" ">
<path fill="none" stroke="#63b8ff" d="M401.74,-541.42C394.97,-589.34 371.85,-705.78 302,-767 298.06,-770.45 293.56,-773.29 288.77,-775.61"/>
<polygon fill="#63b8ff" stroke="#63b8ff" points="405.18,-542.17 402.99,-531.8 398.23,-541.27 405.18,-542.17"/>
</a>
</g>
</g>
<!-- Node11 -->
<g id="Node000011" class="node">
<title>Node11</title>
<g id="a_Node000011"><a xlink:href="classduvc_1_1Camera.html#afb78983227d8207306746d433c9fa570" target="_top" xlink:title="Create camera handle by device index.">
<polygon fill="white" stroke="#666666" points="288.88,-758 170.88,-758 170.88,-738 288.88,-738 288.88,-758"/>
<text xml:space="preserve" text-anchor="middle" x="229.88" y="-744.5" font-family="Helvetica,sans-Serif" font-size="10.00">duvc::Camera::Camera</text>
</a>
</g>
</g>
<!-- Node10&#45;&gt;Node11 -->
<g id="edge11_Node000010_Node000011" class="edge">
<title>Node10&#45;&gt;Node11</title>
<g id="a_edge11_Node000010_Node000011"><a xlink:title=" ">
<path fill="none" stroke="#63b8ff" d="M400,-541.25C390.39,-583.63 362.91,-678.89 302,-729 297.85,-732.41 293.15,-735.21 288.19,-737.52"/>
<polygon fill="#63b8ff" stroke="#63b8ff" points="403.4,-542.11 402.07,-531.6 396.55,-540.65 403.4,-542.11"/>
</a>
</g>
</g>
<!-- Node12 -->
<g id="Node000012" class="node">
<title>Node12</title>
<g id="a_Node000012"><a xlink:href="bindings_8cpp.html#a2eeaa75b5bece22f8ece44907ed9f569" target="_top" xlink:title=" ">
<polygon fill="white" stroke="#666666" points="269.75,-720 190,-720 190,-700 269.75,-700 269.75,-720"/>
<text xml:space="preserve" text-anchor="middle" x="229.88" y="-706.5" font-family="Helvetica,sans-Serif" font-size="10.00">duvc_cam_get</text>
</a>
</g>
</g>
<!-- Node10&#45;&gt;Node12 -->
<g id="edge12_Node000010_Node000012" class="edge">
<title>Node10&#45;&gt;Node12</title>
<g id="a_edge12_Node000010_Node000012"><a xlink:title=" ">
<path fill="none" stroke="#63b8ff" d="M397.56,-541.1C384.94,-577.44 354.09,-651.69 302,-691 292.82,-697.93 281.3,-702.33 270.23,-705.13"/>
<polygon fill="#63b8ff" stroke="#63b8ff" points="400.83,-542.37 400.67,-531.78 394.19,-540.16 400.83,-542.37"/>
</a>
</g>
</g>
<!-- Node13 -->
<g id="Node000013" class="node">
<title>Node13</title>
<g id="a_Node000013"><a xlink:href="bindings_8cpp.html#a7e5b8b6d1b9f093497e11e827ee56004" target="_top" xlink:title=" ">
<polygon fill="white" stroke="#666666" points="284.38,-682 175.38,-682 175.38,-662 284.38,-662 284.38,-682"/>
<text xml:space="preserve" text-anchor="middle" x="229.88" y="-668.5" font-family="Helvetica,sans-Serif" font-size="10.00">duvc_cam_get_range</text>
</a>
</g>
</g>
<!-- Node10&#45;&gt;Node13 -->
<g id="edge13_Node000010_Node000013" class="edge">
<title>Node10&#45;&gt;Node13</title>
<g id="a_edge13_Node000010_Node000013"><a xlink:title=" ">
<path fill="none" stroke="#63b8ff" d="M394.33,-540.08C378.77,-569.44 345.83,-623.77 302,-653 296.68,-656.55 290.73,-659.43 284.59,-661.78"/>
<polygon fill="#63b8ff" stroke="#63b8ff" points="397.28,-541.99 398.73,-531.5 391.05,-538.8 397.28,-541.99"/>
</a>
</g>
</g>
<!-- Node14 -->
<g id="Node000014" class="node">
<title>Node14</title>
<g id="a_Node000014"><a xlink:href="bindings_8cpp.html#a58f06af7a7bba166129e38505c2afd4d" target="_top" xlink:title=" ">
<polygon fill="white" stroke="#666666" points="269.75,-644 190,-644 190,-624 269.75,-624 269.75,-644"/>
<text xml:space="preserve" text-anchor="middle" x="229.88" y="-630.5" font-family="Helvetica,sans-Serif" font-size="10.00">duvc_cam_set</text>
</a>
</g>
</g>
<!-- Node10&#45;&gt;Node14 -->
<g id="edge14_Node000010_Node000014" class="edge">
<title>Node10&#45;&gt;Node14</title>
<g id="a_edge14_Node000010_Node000014"><a xlink:title=" ">
<path fill="none" stroke="#63b8ff" d="M388.98,-538.93C370.58,-560.5 337.66,-595.3 302,-615 292.27,-620.38 280.94,-624.3 270.22,-627.12"/>
<polygon fill="#63b8ff" stroke="#63b8ff" points="391.48,-541.4 395.19,-531.48 386.1,-536.92 391.48,-541.4"/>
</a>
</g>
</g>
<!-- Node15 -->
<g id="Node000015" class="node">
<title>Node15</title>
<g id="a_Node000015"><a xlink:href="bindings_8cpp.html#a7eae96ab0b9ad48d78466336076360e0" target="_top" xlink:title=" ">
<polygon fill="white" stroke="#666666" points="289.25,-606 170.5,-606 170.5,-586 289.25,-586 289.25,-606"/>
<text xml:space="preserve" text-anchor="middle" x="229.88" y="-592.5" font-family="Helvetica,sans-Serif" font-size="10.00">duvc_get_device_count</text>
</a>
</g>
</g>
<!-- Node10&#45;&gt;Node15 -->
<g id="edge15_Node000010_Node000015" class="edge">
<title>Node10&#45;&gt;Node15</title>
<g id="a_edge15_Node000010_Node000015"><a xlink:title=" ">
<path fill="none" stroke="#63b8ff" d="M378.91,-536.46C358.74,-548.98 329.43,-565.89 302,-577 293.94,-580.26 285.15,-583.13 276.58,-585.59"/>
<polygon fill="#63b8ff" stroke="#63b8ff" points="380.7,-539.47 387.29,-531.17 376.97,-533.55 380.7,-539.47"/>
</a>
</g>
</g>
<!-- Node16 -->
<g id="Node000016" class="node">
<title>Node16</title>
<g id="a_Node000016"><a xlink:href="bindings_8cpp.html#a56e6df6631c2fb647fcb3a8641bc8e49" target="_top" xlink:title=" ">
<polygon fill="white" stroke="#666666" points="289.25,-568 170.5,-568 170.5,-548 289.25,-548 289.25,-568"/>
<text xml:space="preserve" text-anchor="middle" x="229.88" y="-554.5" font-family="Helvetica,sans-Serif" font-size="10.00">duvc_get_device_name</text>
</a>
</g>
</g>
<!-- Node10&#45;&gt;Node16 -->
<g id="edge16_Node000010_Node000016" class="edge">
<title>Node10&#45;&gt;Node16</title>
<g id="a_edge16_Node000010_Node000016"><a xlink:title=" ">
<path fill="none" stroke="#63b8ff" d="M346.56,-532.64C324.53,-537.47 299.68,-542.92 278.67,-547.52"/>
<polygon fill="#63b8ff" stroke="#63b8ff" points="347.29,-536.07 356.31,-530.51 345.79,-529.23 347.29,-536.07"/>
</a>
</g>
</g>
<!-- Node17 -->
<g id="Node000017" class="node">
<title>Node17</title>
<g id="a_Node000017"><a xlink:href="bindings_8cpp.html#a96f4ab988208d0f8432d7134f367283b" target="_top" xlink:title=" ">
<polygon fill="white" stroke="#666666" points="286.62,-530 173.12,-530 173.12,-510 286.62,-510 286.62,-530"/>
<text xml:space="preserve" text-anchor="middle" x="229.88" y="-516.5" font-family="Helvetica,sans-Serif" font-size="10.00">duvc_get_device_path</text>
</a>
</g>
</g>
<!-- Node10&#45;&gt;Node17 -->
<g id="edge17_Node000010_Node000017" class="edge">
<title>Node10&#45;&gt;Node17</title>
<g id="a_edge17_Node000010_Node000017"><a xlink:title=" ">
<path fill="none" stroke="#63b8ff" d="M346.49,-520C327.34,-520 306.07,-520 287.04,-520"/>
<polygon fill="#63b8ff" stroke="#63b8ff" points="346.28,-523.5 356.28,-520 346.28,-516.5 346.28,-523.5"/>
</a>
</g>
</g>
<!-- Node18 -->
<g id="Node000018" class="node">
<title>Node18</title>
<g id="a_Node000018"><a xlink:href="api_8cpp.html#a4858259a9c4d23ce0d671b52615c3e74" target="_top" xlink:title="List all connected devices.">
<polygon fill="white" stroke="#666666" points="276.88,-492 182.88,-492 182.88,-472 276.88,-472 276.88,-492"/>
<text xml:space="preserve" text-anchor="middle" x="229.88" y="-478.5" font-family="Helvetica,sans-Serif" font-size="10.00">duvc_list_devices</text>
</a>
</g>
</g>
<!-- Node10&#45;&gt;Node18 -->
<g id="edge19_Node000010_Node000018" class="edge">
<title>Node10&#45;&gt;Node18</title>
<g id="a_edge19_Node000010_Node000018"><a xlink:title=" ">
<path fill="none" stroke="#63b8ff" d="M346.64,-507.37C324.06,-502.42 298.51,-496.82 277.16,-492.15"/>
<polygon fill="#63b8ff" stroke="#63b8ff" points="345.79,-510.77 356.31,-509.49 347.29,-503.93 345.79,-510.77"/>
</a>
</g>
</g>
<!-- Node19 -->
<g id="Node000019" class="node">
<title>Node19</title>
<g id="a_Node000019"><a xlink:href="bindings_8cpp.html#a447135500d1651a64fc752ea40d3f2ec" target="_top" xlink:title=" ">
<polygon fill="white" stroke="#666666" points="285.5,-454 174.25,-454 174.25,-434 285.5,-434 285.5,-454"/>
<text xml:space="preserve" text-anchor="middle" x="229.88" y="-440.5" font-family="Helvetica,sans-Serif" font-size="10.00">duvc_refresh_devices</text>
</a>
</g>
</g>
<!-- Node10&#45;&gt;Node19 -->
<g id="edge20_Node000010_Node000019" class="edge">
<title>Node10&#45;&gt;Node19</title>
<g id="a_edge20_Node000010_Node000019"><a xlink:title=" ">
<path fill="none" stroke="#63b8ff" d="M378.91,-503.54C358.74,-491.02 329.43,-474.11 302,-463 293.94,-459.74 285.15,-456.87 276.58,-454.41"/>
<polygon fill="#63b8ff" stroke="#63b8ff" points="376.97,-506.45 387.29,-508.83 380.7,-500.53 376.97,-506.45"/>
</a>
</g>
</g>
<!-- Node20 -->
<g id="Node000020" class="node">
<title>Node20</title>
<g id="a_Node000020"><a xlink:href="bindings_8cpp.html#a2ef0f3ef211dffa60691ec69734cb8ba" target="_top" xlink:title=" ">
<polygon fill="white" stroke="#666666" points="266.75,-416 193,-416 193,-396 266.75,-396 266.75,-416"/>
<text xml:space="preserve" text-anchor="middle" x="229.88" y="-402.5" font-family="Helvetica,sans-Serif" font-size="10.00">duvc_vid_get</text>
</a>
</g>
</g>
<!-- Node10&#45;&gt;Node20 -->
<g id="edge21_Node000010_Node000020" class="edge">
<title>Node10&#45;&gt;Node20</title>
<g id="a_edge21_Node000010_Node000020"><a xlink:title=" ">
<path fill="none" stroke="#63b8ff" d="M388.98,-501.07C370.58,-479.5 337.66,-444.7 302,-425 291.26,-419.07 278.57,-414.91 266.91,-412.03"/>
<polygon fill="#63b8ff" stroke="#63b8ff" points="386.1,-503.08 395.19,-508.52 391.48,-498.6 386.1,-503.08"/>
</a>
</g>
</g>
<!-- Node21 -->
<g id="Node000021" class="node">
<title>Node21</title>
<g id="a_Node000021"><a xlink:href="bindings_8cpp.html#afeb5120c76b876c78b2d47af23770647" target="_top" xlink:title=" ">
<polygon fill="white" stroke="#666666" points="281.38,-378 178.38,-378 178.38,-358 281.38,-358 281.38,-378"/>
<text xml:space="preserve" text-anchor="middle" x="229.88" y="-364.5" font-family="Helvetica,sans-Serif" font-size="10.00">duvc_vid_get_range</text>
</a>
</g>
</g>
<!-- Node10&#45;&gt;Node21 -->
<g id="edge22_Node000010_Node000021" class="edge">
<title>Node10&#45;&gt;Node21</title>
<g id="a_edge22_Node000010_Node000021"><a xlink:title=" ">
<path fill="none" stroke="#63b8ff" d="M394.33,-499.92C378.77,-470.56 345.83,-416.23 302,-387 295.83,-382.89 288.81,-379.66 281.63,-377.13"/>
<polygon fill="#63b8ff" stroke="#63b8ff" points="391.05,-501.2 398.73,-508.5 397.28,-498.01 391.05,-501.2"/>
</a>
</g>
</g>
<!-- Node22 -->
<g id="Node000022" class="node">
<title>Node22</title>
<g id="a_Node000022"><a xlink:href="bindings_8cpp.html#a2e76b2547f3ee2427b1cf27ad9b358d6" target="_top" xlink:title=" ">
<polygon fill="white" stroke="#666666" points="266.75,-340 193,-340 193,-320 266.75,-320 266.75,-340"/>
<text xml:space="preserve" text-anchor="middle" x="229.88" y="-326.5" font-family="Helvetica,sans-Serif" font-size="10.00">duvc_vid_set</text>
</a>
</g>
</g>
<!-- Node10&#45;&gt;Node22 -->
<g id="edge23_Node000010_Node000022" class="edge">
<title>Node10&#45;&gt;Node22</title>
<g id="a_edge23_Node000010_Node000022"><a xlink:title=" ">
<path fill="none" stroke="#63b8ff" d="M397.56,-498.9C384.94,-462.56 354.09,-388.31 302,-349 291.9,-341.38 278.97,-336.81 266.92,-334.07"/>
<polygon fill="#63b8ff" stroke="#63b8ff" points="394.19,-499.84 400.67,-508.22 400.83,-497.63 394.19,-499.84"/>
</a>
</g>
</g>
<!-- Node23 -->
<g id="Node000023" class="node">
<title>Node23</title>
<g id="a_Node000023"><a xlink:href="namespaceduvc.html#a0af4366057ae8014aee4989ab3fd7671" target="_top" xlink:title="Create device capability snapshot by index.">
<polygon fill="white" stroke="#666666" points="302,-302 157.75,-302 157.75,-282 302,-282 302,-302"/>
<text xml:space="preserve" text-anchor="middle" x="229.88" y="-288.5" font-family="Helvetica,sans-Serif" font-size="10.00">duvc::get_device_capabilities</text>
</a>
</g>
</g>
<!-- Node10&#45;&gt;Node23 -->
<g id="edge24_Node000010_Node000023" class="edge">
<title>Node10&#45;&gt;Node23</title>
<g id="a_edge24_Node000010_Node000023"><a xlink:title=" ">
<path fill="none" stroke="#63b8ff" d="M400,-498.75C390.39,-456.37 362.91,-361.11 302,-311 297.85,-307.59 293.15,-304.79 288.19,-302.48"/>
<polygon fill="#63b8ff" stroke="#63b8ff" points="396.55,-499.35 402.07,-508.4 403.4,-497.89 396.55,-499.35"/>
</a>
</g>
</g>
<!-- Node24 -->
<g id="Node000024" class="node">
<title>Node24</title>
<g id="a_Node000024"><a xlink:href="namespaceduvc.html#ac682048b44b6b2ee33d99dd460c24f25" target="_top" xlink:title="Create camera from device index.">
<polygon fill="white" stroke="#666666" points="280.62,-246 179.12,-246 179.12,-226 280.62,-226 280.62,-246"/>
<text xml:space="preserve" text-anchor="middle" x="229.88" y="-232.5" font-family="Helvetica,sans-Serif" font-size="10.00">duvc::open_camera</text>
</a>
</g>
</g>
<!-- Node10&#45;&gt;Node24 -->
<g id="edge25_Node000010_Node000024" class="edge">
<title>Node10&#45;&gt;Node24</title>
<g id="a_edge25_Node000010_Node000024"><a xlink:title=" ">
<path fill="none" stroke="#63b8ff" d="M400.55,-498.69C391.51,-452.32 364.33,-341.01 302,-273 291.09,-261.1 275.47,-252.38 261.64,-246.41"/>
<polygon fill="#63b8ff" stroke="#63b8ff" points="397.05,-499.03 402.32,-508.23 403.94,-497.76 397.05,-499.03"/>
</a>
</g>
</g>
<!-- Node24&#45;&gt;Node24 -->
<g id="edge34_Node000024_Node000024" class="edge">
<title>Node24&#45;&gt;Node24</title>
<g id="a_edge34_Node000024_Node000024"><a xlink:title=" ">
<path fill="none" stroke="#63b8ff" d="M259.74,-257.44C255.9,-261.3 245.94,-264 229.88,-264 200.5,-264 191.55,-254.98 203.02,-246.34"/>
<polygon fill="#63b8ff" stroke="#63b8ff" points="263.12,-256.53 257.12,-247.8 256.37,-258.37 263.12,-256.53"/>
</a>
</g>
</g>
<!-- Node25 -->
<g id="Node000025" class="node">
<title>Node25</title>
<g id="a_Node000025"><a xlink:href="api_8cpp.html#a6c818dfe0ce43fce1ac013dcfcc97ab6" target="_top" xlink:title="Open camera by device handle.">
<polygon fill="white" stroke="#666666" points="111.25,-415 10.5,-415 10.5,-395 111.25,-395 111.25,-415"/>
<text xml:space="preserve" text-anchor="middle" x="60.88" y="-401.5" font-family="Helvetica,sans-Serif" font-size="10.00">duvc_open_camera</text>
</a>
</g>
</g>
<!-- Node24&#45;&gt;Node25 -->
<g id="edge26_Node000024_Node000025" class="edge">
<title>Node24&#45;&gt;Node25</title>
<g id="a_edge26_Node000024_Node000025"><a xlink:title=" ">
<path fill="none" stroke="#63b8ff" d="M186.17,-251.41C175.71,-256.87 165.35,-263.98 157.75,-273 123.8,-313.32 159.04,-348.75 121.75,-386 118.28,-389.47 114.18,-392.3 109.77,-394.62"/>
<polygon fill="#63b8ff" stroke="#63b8ff" points="187.67,-254.57 195.2,-247.12 184.67,-248.24 187.67,-254.57"/>
</a>
</g>
</g>
<!-- Node26 -->
<g id="Node000026" class="node">
<title>Node26</title>
<g id="a_Node000026"><a xlink:href="api_8cpp.html#af3c0339eb2da66e4c693795c1e516a94" target="_top" xlink:title="Open camera by device index.">
<polygon fill="white" stroke="#666666" points="119.12,-377 2.62,-377 2.62,-345 119.12,-345 119.12,-377"/>
<text xml:space="preserve" text-anchor="start" x="10.62" y="-363.5" font-family="Helvetica,sans-Serif" font-size="10.00">duvc_open_camera_by</text>
<text xml:space="preserve" text-anchor="middle" x="60.88" y="-351.5" font-family="Helvetica,sans-Serif" font-size="10.00">_index</text>
</a>
</g>
</g>
<!-- Node24&#45;&gt;Node26 -->
<g id="edge27_Node000024_Node000026" class="edge">
<title>Node24&#45;&gt;Node26</title>
<g id="a_edge27_Node000024_Node000026"><a xlink:title=" ">
<path fill="none" stroke="#63b8ff" d="M190.03,-251.2C178.73,-256.87 166.97,-264.14 157.75,-273 134.5,-295.35 145.92,-314.65 121.75,-336 118.12,-339.21 114.02,-342.04 109.71,-344.54"/>
<polygon fill="#63b8ff" stroke="#63b8ff" points="191.24,-254.49 198.81,-247.07 188.27,-248.15 191.24,-254.49"/>
</a>
</g>
</g>
<!-- Node27 -->
<g id="Node000027" class="node">
<title>Node27</title>
<g id="a_Node000027"><a xlink:href="api_8cpp.html#a3bb63900ee185ff762cb5202213dcb44" target="_top" xlink:title="Quick get camera property (creates temporary connection)">
<polygon fill="white" stroke="#666666" points="121.75,-327 0,-327 0,-295 121.75,-295 121.75,-327"/>
<text xml:space="preserve" text-anchor="start" x="8" y="-313.5" font-family="Helvetica,sans-Serif" font-size="10.00">duvc_quick_get_camera</text>
<text xml:space="preserve" text-anchor="middle" x="60.88" y="-301.5" font-family="Helvetica,sans-Serif" font-size="10.00">_property</text>
</a>
</g>
</g>
<!-- Node24&#45;&gt;Node27 -->
<g id="edge28_Node000024_Node000027" class="edge">
<title>Node24&#45;&gt;Node27</title>
<g id="a_edge28_Node000024_Node000027"><a xlink:title=" ">
<path fill="none" stroke="#63b8ff" d="M196.87,-251.36C175.67,-261.43 147.17,-274.77 121.75,-286 115.36,-288.82 108.56,-291.75 101.91,-294.55"/>
<polygon fill="#63b8ff" stroke="#63b8ff" points="198.36,-254.53 205.88,-247.07 195.35,-248.21 198.36,-254.53"/>
</a>
</g>
</g>
<!-- Node28 -->
<g id="Node000028" class="node">
<title>Node28</title>
<g id="a_Node000028"><a xlink:href="api_8cpp.html#a563caf7299afef6db2be80775ec7045b" target="_top" xlink:title="Quick get camera property range.">
<polygon fill="white" stroke="#666666" points="121.75,-277 0,-277 0,-245 121.75,-245 121.75,-277"/>
<text xml:space="preserve" text-anchor="start" x="8" y="-263.5" font-family="Helvetica,sans-Serif" font-size="10.00">duvc_quick_get_camera</text>
<text xml:space="preserve" text-anchor="middle" x="60.88" y="-251.5" font-family="Helvetica,sans-Serif" font-size="10.00">_property_range</text>
</a>
</g>
</g>
<!-- Node24&#45;&gt;Node28 -->
<g id="edge29_Node000024_Node000028" class="edge">
<title>Node24&#45;&gt;Node28</title>
<g id="a_edge29_Node000024_Node000028"><a xlink:title=" ">
<path fill="none" stroke="#63b8ff" d="M167.61,-245.17C152.72,-247.4 136.8,-249.78 121.96,-252"/>
<polygon fill="#63b8ff" stroke="#63b8ff" points="167.9,-248.67 177.27,-243.72 166.86,-241.74 167.9,-248.67"/>
</a>
</g>
</g>
<!-- Node29 -->
<g id="Node000029" class="node">
<title>Node29</title>
<g id="a_Node000029"><a xlink:href="api_8cpp.html#ac2450ac31290e5083614c732b6586c6d" target="_top" xlink:title="Quick get video property.">
<polygon fill="white" stroke="#666666" points="117.25,-227 4.5,-227 4.5,-195 117.25,-195 117.25,-227"/>
<text xml:space="preserve" text-anchor="start" x="12.5" y="-213.5" font-family="Helvetica,sans-Serif" font-size="10.00">duvc_quick_get_video</text>
<text xml:space="preserve" text-anchor="middle" x="60.88" y="-201.5" font-family="Helvetica,sans-Serif" font-size="10.00">_property</text>
</a>
</g>
</g>
<!-- Node24&#45;&gt;Node29 -->
<g id="edge30_Node000024_Node000029" class="edge">
<title>Node24&#45;&gt;Node29</title>
<g id="a_edge30_Node000024_Node000029"><a xlink:title=" ">
<path fill="none" stroke="#63b8ff" d="M167.64,-226.83C151.23,-224.38 133.58,-221.73 117.49,-219.33"/>
<polygon fill="#63b8ff" stroke="#63b8ff" points="166.86,-230.26 177.27,-228.28 167.9,-223.33 166.86,-230.26"/>
</a>
</g>
</g>
<!-- Node30 -->
<g id="Node000030" class="node">
<title>Node30</title>
<g id="a_Node000030"><a xlink:href="api_8cpp.html#a993684c5701505045bdb13709872300b" target="_top" xlink:title="Quick get video property range.">
<polygon fill="white" stroke="#666666" points="117.25,-177 4.5,-177 4.5,-145 117.25,-145 117.25,-177"/>
<text xml:space="preserve" text-anchor="start" x="12.5" y="-163.5" font-family="Helvetica,sans-Serif" font-size="10.00">duvc_quick_get_video</text>
<text xml:space="preserve" text-anchor="middle" x="60.88" y="-151.5" font-family="Helvetica,sans-Serif" font-size="10.00">_property_range</text>
</a>
</g>
</g>
<!-- Node24&#45;&gt;Node30 -->
<g id="edge31_Node000024_Node000030" class="edge">
<title>Node24&#45;&gt;Node30</title>
<g id="a_edge31_Node000024_Node000030"><a xlink:title=" ">
<path fill="none" stroke="#63b8ff" d="M168.01,-221.76C164.47,-220.31 161.03,-218.73 157.75,-217 139.08,-207.14 139.72,-197.09 121.75,-186 116.77,-182.92 111.34,-180.06 105.85,-177.46"/>
<polygon fill="#63b8ff" stroke="#63b8ff" points="166.8,-225.04 177.39,-225.18 169.19,-218.47 166.8,-225.04"/>
</a>
</g>
</g>
<!-- Node31 -->
<g id="Node000031" class="node">
<title>Node31</title>
<g id="a_Node000031"><a xlink:href="api_8cpp.html#ab4d738bc8b5e468bfa9ecd3e27395815" target="_top" xlink:title="Quick set camera property (creates temporary connection)">
<polygon fill="white" stroke="#666666" points="121.75,-127 0,-127 0,-95 121.75,-95 121.75,-127"/>
<text xml:space="preserve" text-anchor="start" x="8" y="-113.5" font-family="Helvetica,sans-Serif" font-size="10.00">duvc_quick_set_camera</text>
<text xml:space="preserve" text-anchor="middle" x="60.88" y="-101.5" font-family="Helvetica,sans-Serif" font-size="10.00">_property</text>
</a>
</g>
</g>
<!-- Node24&#45;&gt;Node31 -->
<g id="edge32_Node000024_Node000031" class="edge">
<title>Node24&#45;&gt;Node31</title>
<g id="a_edge32_Node000024_Node000031"><a xlink:title=" ">
<path fill="none" stroke="#63b8ff" d="M168.27,-224.09C164.51,-222.08 160.95,-219.73 157.75,-217 127.79,-191.42 149.92,-163.54 121.75,-136 118.45,-132.77 114.67,-129.94 110.65,-127.45"/>
<polygon fill="#63b8ff" stroke="#63b8ff" points="166.68,-227.21 177.24,-228.06 169.51,-220.81 166.68,-227.21"/>
</a>
</g>
</g>
<!-- Node32 -->
<g id="Node000032" class="node">
<title>Node32</title>
<g id="a_Node000032"><a xlink:href="api_8cpp.html#ac5c65a93003977ce563d8a5c1379745c" target="_top" xlink:title="Quick set video property.">
<polygon fill="white" stroke="#666666" points="117.25,-77 4.5,-77 4.5,-45 117.25,-45 117.25,-77"/>
<text xml:space="preserve" text-anchor="start" x="12.5" y="-63.5" font-family="Helvetica,sans-Serif" font-size="10.00">duvc_quick_set_video</text>
<text xml:space="preserve" text-anchor="middle" x="60.88" y="-51.5" font-family="Helvetica,sans-Serif" font-size="10.00">_property</text>
</a>
</g>
</g>
<!-- Node24&#45;&gt;Node32 -->
<g id="edge33_Node000024_Node000032" class="edge">
<title>Node24&#45;&gt;Node32</title>
<g id="a_edge33_Node000024_Node000032"><a xlink:title=" ">
<path fill="none" stroke="#63b8ff" d="M168.47,-225.02C164.56,-222.8 160.92,-220.15 157.75,-217 114.9,-174.46 161.64,-131.33 121.75,-86 118.85,-82.7 115.44,-79.83 111.75,-77.33"/>
<polygon fill="#63b8ff" stroke="#63b8ff" points="166.74,-228.07 177.28,-229.06 169.66,-221.71 166.74,-228.07"/>
</a>
</g>
</g>
<!-- Node34 -->
<g id="Node000034" class="node">
<title>Node34</title>
<g id="a_Node000034"><a xlink:href="classduvc_1_1DeviceConnection.html#a4afc9b6ddaeb6ffdcfcda94dd14f6dbc" target="_top" xlink:title=" ">
<polygon fill="white" stroke="#666666" points="291.5,-208 168.25,-208 168.25,-176 291.5,-176 291.5,-208"/>
<text xml:space="preserve" text-anchor="start" x="176.25" y="-194.5" font-family="Helvetica,sans-Serif" font-size="10.00">duvc::DeviceConnection</text>
<text xml:space="preserve" text-anchor="middle" x="229.88" y="-182.5" font-family="Helvetica,sans-Serif" font-size="10.00">::DeviceConnection</text>
</a>
</g>
</g>
<!-- Node33&#45;&gt;Node34 -->
<g id="edge36_Node000033_Node000034" class="edge">
<title>Node33&#45;&gt;Node34</title>
<g id="a_edge36_Node000033_Node000034"><a xlink:title=" ">
<path fill="none" stroke="#63b8ff" d="M368.58,-140.75C349,-148.73 324.25,-158.63 302,-167 294.4,-169.86 286.32,-172.8 278.42,-175.61"/>
<polygon fill="#63b8ff" stroke="#63b8ff" points="369.83,-144.02 377.76,-136.99 367.17,-137.54 369.83,-144.02"/>
</a>
</g>
</g>
<!-- Node35 -->
<g id="Node000035" class="node">
<title>Node35</title>
<g id="a_Node000035"><a xlink:href="namespaceduvc.html#aa019a1c9788c84f47348db3f03b25d42" target="_top" xlink:title="Get vendor&#45;specific property data from device.">
<polygon fill="white" stroke="#666666" points="295.62,-158 164.12,-158 164.12,-138 295.62,-138 295.62,-158"/>
<text xml:space="preserve" text-anchor="middle" x="229.88" y="-144.5" font-family="Helvetica,sans-Serif" font-size="10.00">duvc::get_vendor_property</text>
</a>
</g>
</g>
<!-- Node33&#45;&gt;Node35 -->
<g id="edge37_Node000033_Node000035" class="edge">
<title>Node33&#45;&gt;Node35</title>
<g id="a_edge37_Node000033_Node000035"><a xlink:title=" ">
<path fill="none" stroke="#63b8ff" d="M332.99,-135.04C320.72,-136.6 308.04,-138.21 295.95,-139.74"/>
<polygon fill="#63b8ff" stroke="#63b8ff" points="333.12,-138.55 342.6,-133.82 332.24,-131.61 333.12,-138.55"/>
</a>
</g>
</g>
<!-- Node36 -->
<g id="Node000036" class="node">
<title>Node36</title>
<g id="a_Node000036"><a xlink:href="classduvc_1_1KsPropertySet.html#aac9242599b92d9f1880f63f2256c72e3" target="_top" xlink:title="Create KsPropertySet from device.">
<polygon fill="white" stroke="#666666" points="283.25,-120 176.5,-120 176.5,-88 283.25,-88 283.25,-120"/>
<text xml:space="preserve" text-anchor="start" x="184.5" y="-106.5" font-family="Helvetica,sans-Serif" font-size="10.00">duvc::KsPropertySet</text>
<text xml:space="preserve" text-anchor="middle" x="229.88" y="-94.5" font-family="Helvetica,sans-Serif" font-size="10.00">::KsPropertySet</text>
</a>
</g>
</g>
<!-- Node33&#45;&gt;Node36 -->
<g id="edge38_Node000033_Node000036" class="edge">
<title>Node33&#45;&gt;Node36</title>
<g id="a_edge38_Node000033_Node000036"><a xlink:title=" ">
<path fill="none" stroke="#63b8ff" d="M332.86,-116.94C316.4,-114.85 299.19,-112.67 283.69,-110.7"/>
<polygon fill="#63b8ff" stroke="#63b8ff" points="332.24,-120.39 342.6,-118.18 333.12,-113.45 332.24,-120.39"/>
</a>
</g>
</g>
<!-- Node37 -->
<g id="Node000037" class="node">
<title>Node37</title>
<g id="a_Node000037"><a xlink:href="namespaceduvc.html#a5ddd570cc76e8dbdef26ad18660ddb07" target="_top" xlink:title="Query whether device supports a vendor&#45;specific property.">
<polygon fill="white" stroke="#666666" points="280.62,-70 179.12,-70 179.12,-38 280.62,-38 280.62,-70"/>
<text xml:space="preserve" text-anchor="start" x="187.12" y="-56.5" font-family="Helvetica,sans-Serif" font-size="10.00">duvc::query_vendor</text>
<text xml:space="preserve" text-anchor="middle" x="229.88" y="-44.5" font-family="Helvetica,sans-Serif" font-size="10.00">_property_support</text>
</a>
</g>
</g>
<!-- Node33&#45;&gt;Node37 -->
<g id="edge39_Node000033_Node000037" class="edge">
<title>Node33&#45;&gt;Node37</title>
<g id="a_edge39_Node000033_Node000037"><a xlink:title=" ">
<path fill="none" stroke="#63b8ff" d="M372.84,-110.64C352.78,-101.07 326.1,-88.75 302,-79 294.84,-76.1 287.2,-73.21 279.69,-70.48"/>
<polygon fill="#63b8ff" stroke="#63b8ff" points="371.07,-113.67 381.6,-114.85 374.1,-107.37 371.07,-113.67"/>
</a>
</g>
</g>
<!-- Node38 -->
<g id="Node000038" class="node">
<title>Node38</title>
<g id="a_Node000038"><a xlink:href="namespaceduvc.html#ab333863cefef68546e2e235527fe3b5c" target="_top" xlink:title="Set vendor&#45;specific property data on device.">
<polygon fill="white" stroke="#666666" points="295.62,-20 164.12,-20 164.12,0 295.62,0 295.62,-20"/>
<text xml:space="preserve" text-anchor="middle" x="229.88" y="-6.5" font-family="Helvetica,sans-Serif" font-size="10.00">duvc::set_vendor_property</text>
</a>
</g>
</g>
<!-- Node33&#45;&gt;Node38 -->
<g id="edge40_Node000033_Node000038" class="edge">
<title>Node33&#45;&gt;Node38</title>
<g id="a_edge40_Node000033_Node000038"><a xlink:title=" ">
<path fill="none" stroke="#63b8ff" d="M389.35,-107C371.09,-84.99 338.09,-49.19 302,-29 295.87,-25.57 289.08,-22.73 282.22,-20.4"/>
<polygon fill="#63b8ff" stroke="#63b8ff" points="386.49,-109.02 395.5,-114.59 391.93,-104.62 386.49,-109.02"/>
</a>
</g>
</g>
</g>
</svg>
