<?xml version="1.0" encoding="UTF-8" standalone="no"?>
<!DOCTYPE svg PUBLIC "-//W3C//DTD SVG 1.1//EN"
 "http://www.w3.org/Graphics/SVG/1.1/DTD/svg11.dtd">
<!-- Generated by graphviz version 14.0.2 (20251019.1705)
 -->
<!-- Title: duvc::create_notification_window Pages: 1 -->
<svg width="454pt" height="40pt"
 viewBox="0.00 0.00 454.00 40.00" xmlns="http://www.w3.org/2000/svg" xmlns:xlink="http://www.w3.org/1999/xlink">
<g id="graph0" class="graph" transform="scale(1 1) rotate(0) translate(4 36)">
<title>duvc::create_notification_window</title>
<!-- Node1 -->
<g id="Node000001" class="node">
<title>Node1</title>
<g id="a_Node000001"><a xlink:title="Create invisible window for receiving device notifications.">
<polygon fill="#999999" stroke="#666666" points="122.5,-32 0,-32 0,0 122.5,0 122.5,-32"/>
<text xml:space="preserve" text-anchor="start" x="8" y="-18.5" font-family="Helvetica,sans-Serif" font-size="10.00">duvc::create_notification</text>
<text xml:space="preserve" text-anchor="middle" x="61.25" y="-6.5" font-family="Helvetica,sans-Serif" font-size="10.00">_window</text>
</a>
</g>
</g>
<!-- Node2 -->
<g id="Node000002" class="node">
<title>Node2</title>
<g id="a_Node000002"><a xlink:href="namespaceduvc.html#aeb2a8092f10ef646423ec7cae410beb3" target="_top" xlink:title="Register window class for device notifications.">
<polygon fill="white" stroke="#666666" points="286.25,-32 158.5,-32 158.5,0 286.25,0 286.25,-32"/>
<text xml:space="preserve" text-anchor="start" x="166.5" y="-18.5" font-family="Helvetica,sans-Serif" font-size="10.00">duvc::register_notification</text>
<text xml:space="preserve" text-anchor="middle" x="222.38" y="-6.5" font-family="Helvetica,sans-Serif" font-size="10.00">_window_class</text>
</a>
</g>
</g>
<!-- Node1&#45;&gt;Node2 -->
<g id="edge1_Node000001_Node000002" class="edge">
<title>Node1&#45;&gt;Node2</title>
<g id="a_edge1_Node000001_Node000002"><a xlink:title=" ">
<path fill="none" stroke="#63b8ff" d="M122.86,-16C130.68,-16 138.76,-16 146.77,-16"/>
<polygon fill="#63b8ff" stroke="#63b8ff" points="146.51,-19.5 156.51,-16 146.51,-12.5 146.51,-19.5"/>
</a>
</g>
</g>
<!-- Node3 -->
<g id="Node000003" class="node">
<title>Node3</title>
<g id="a_Node000003"><a xlink:href="namespaceduvc.html#ac753d705f1b0eeb62869e0b7528c4876" target="_top" xlink:title="Window procedure for handling device change notifications.">
<polygon fill="white" stroke="#666666" points="446.25,-32 322.25,-32 322.25,0 446.25,0 446.25,-32"/>
<text xml:space="preserve" text-anchor="start" x="330.25" y="-18.5" font-family="Helvetica,sans-Serif" font-size="10.00">duvc::device_notification</text>
<text xml:space="preserve" text-anchor="middle" x="384.25" y="-6.5" font-family="Helvetica,sans-Serif" font-size="10.00">_wndproc</text>
</a>
</g>
</g>
<!-- Node2&#45;&gt;Node3 -->
<g id="edge2_Node000002_Node000003" class="edge">
<title>Node2&#45;&gt;Node3</title>
<g id="a_edge2_Node000002_Node000003"><a xlink:title=" ">
<path fill="none" stroke="#63b8ff" d="M286.56,-16C294.45,-16 302.57,-16 310.59,-16"/>
<polygon fill="#63b8ff" stroke="#63b8ff" points="310.31,-19.5 320.31,-16 310.31,-12.5 310.31,-19.5"/>
</a>
</g>
</g>
</g>
</svg>
