<?xml version="1.0" encoding="UTF-8" standalone="no"?>
<!DOCTYPE svg PUBLIC "-//W3C//DTD SVG 1.1//EN"
 "http://www.w3.org/Graphics/SVG/1.1/DTD/svg11.dtd">
<!-- Generated by graphviz version 14.0.2 (20251019.1705)
 -->
<!-- Title: duvc::open_camera Pages: 1 -->
<svg width="267pt" height="378pt"
 viewBox="0.00 0.00 267.00 378.00" xmlns="http://www.w3.org/2000/svg" xmlns:xlink="http://www.w3.org/1999/xlink">

<svg id="main" version="1.1" xmlns="http://www.w3.org/2000/svg" xmlns:xlink="http://www.w3.org/1999/xlink" xml:space="preserve" onload="init(evt)">
<style type="text/css"><![CDATA[
.node, .edge {opacity: 0.7;}
.node.selected, .edge.selected {opacity: 1;}
.edge:hover path { stroke: red; }
.edge:hover polygon { stroke: red; fill: red; }
]]></style>
<script type="application/ecmascript" xlink:href="svg.min.js"/>
<svg id="graph" class="graph">
<g id="graph0" class="graph" transform="scale(1 1) rotate(0) translate(4 374)">
<title>duvc::open_camera</title>
<!-- Node1 -->
<g id="Node000001" class="node">
<title>Node1</title>
<g id="a_Node000001"><a xlink:title="Create camera from device index.">
<polygon fill="#999999" stroke="#666666" points="259.25,-201 157.75,-201 157.75,-181 259.25,-181 259.25,-201"/>
<text xml:space="preserve" text-anchor="middle" x="208.5" y="-187.5" font-family="Helvetica,sans-Serif" font-size="10.00">duvc::open_camera</text>
</a>
</g>
</g>
<!-- Node1&#45;&gt;Node1 -->
<g id="edge9_Node000001_Node000001" class="edge">
<title>Node1&#45;&gt;Node1</title>
<g id="a_edge9_Node000001_Node000001"><a xlink:title=" ">
<path fill="none" stroke="#63b8ff" d="M234.59,-212.44C231.23,-216.3 222.53,-219 208.5,-219 182.84,-219 175.02,-209.98 185.04,-201.34"/>
<polygon fill="#63b8ff" stroke="#63b8ff" points="238.02,-211.73 232.31,-202.81 231.21,-213.35 238.02,-211.73"/>
</a>
</g>
</g>
<!-- Node2 -->
<g id="Node000002" class="node">
<title>Node2</title>
<g id="a_Node000002"><a xlink:href="api_8cpp.html#a6c818dfe0ce43fce1ac013dcfcc97ab6" target="_top" xlink:title="Open camera by device handle.">
<polygon fill="white" stroke="#666666" points="111.25,-370 10.5,-370 10.5,-350 111.25,-350 111.25,-370"/>
<text xml:space="preserve" text-anchor="middle" x="60.88" y="-356.5" font-family="Helvetica,sans-Serif" font-size="10.00">duvc_open_camera</text>
</a>
</g>
</g>
<!-- Node1&#45;&gt;Node2 -->
<g id="edge1_Node000001_Node000002" class="edge">
<title>Node1&#45;&gt;Node2</title>
<g id="a_edge1_Node000001_Node000002"><a xlink:title=" ">
<path fill="none" stroke="#63b8ff" d="M200.92,-212.4C189.83,-244.91 164.38,-306.57 121.75,-341 117.51,-344.43 112.64,-347.24 107.55,-349.55"/>
<polygon fill="#63b8ff" stroke="#63b8ff" points="204.23,-213.52 204,-202.93 197.58,-211.35 204.23,-213.52"/>
</a>
</g>
</g>
<!-- Node3 -->
<g id="Node000003" class="node">
<title>Node3</title>
<g id="a_Node000003"><a xlink:href="api_8cpp.html#af3c0339eb2da66e4c693795c1e516a94" target="_top" xlink:title="Open camera by device index.">
<polygon fill="white" stroke="#666666" points="119.12,-332 2.62,-332 2.62,-300 119.12,-300 119.12,-332"/>
<text xml:space="preserve" text-anchor="start" x="10.62" y="-318.5" font-family="Helvetica,sans-Serif" font-size="10.00">duvc_open_camera_by</text>
<text xml:space="preserve" text-anchor="middle" x="60.88" y="-306.5" font-family="Helvetica,sans-Serif" font-size="10.00">_index</text>
</a>
</g>
</g>
<!-- Node1&#45;&gt;Node3 -->
<g id="edge2_Node000001_Node000003" class="edge">
<title>Node1&#45;&gt;Node3</title>
<g id="a_edge2_Node000001_Node000003"><a xlink:title=" ">
<path fill="none" stroke="#63b8ff" d="M194.71,-210.86C179.59,-232.99 152.57,-268.59 121.75,-291 117.38,-294.18 112.54,-297.05 107.56,-299.61"/>
<polygon fill="#63b8ff" stroke="#63b8ff" points="197.5,-212.99 200.12,-202.73 191.67,-209.12 197.5,-212.99"/>
</a>
</g>
</g>
<!-- Node4 -->
<g id="Node000004" class="node">
<title>Node4</title>
<g id="a_Node000004"><a xlink:href="api_8cpp.html#a3bb63900ee185ff762cb5202213dcb44" target="_top" xlink:title="Quick get camera property (creates temporary connection)">
<polygon fill="white" stroke="#666666" points="121.75,-282 0,-282 0,-250 121.75,-250 121.75,-282"/>
<text xml:space="preserve" text-anchor="start" x="8" y="-268.5" font-family="Helvetica,sans-Serif" font-size="10.00">duvc_quick_get_camera</text>
<text xml:space="preserve" text-anchor="middle" x="60.88" y="-256.5" font-family="Helvetica,sans-Serif" font-size="10.00">_property</text>
</a>
</g>
</g>
<!-- Node1&#45;&gt;Node4 -->
<g id="edge3_Node000001_Node000004" class="edge">
<title>Node1&#45;&gt;Node4</title>
<g id="a_edge3_Node000001_Node000004"><a xlink:title=" ">
<path fill="none" stroke="#63b8ff" d="M181.47,-207.39C164.72,-217.63 142.32,-230.76 121.75,-241 115.8,-243.96 109.41,-246.88 103.1,-249.63"/>
<polygon fill="#63b8ff" stroke="#63b8ff" points="183.14,-210.47 189.81,-202.24 179.47,-204.51 183.14,-210.47"/>
</a>
</g>
</g>
<!-- Node5 -->
<g id="Node000005" class="node">
<title>Node5</title>
<g id="a_Node000005"><a xlink:href="api_8cpp.html#a563caf7299afef6db2be80775ec7045b" target="_top" xlink:title="Quick get camera property range.">
<polygon fill="white" stroke="#666666" points="121.75,-232 0,-232 0,-200 121.75,-200 121.75,-232"/>
<text xml:space="preserve" text-anchor="start" x="8" y="-218.5" font-family="Helvetica,sans-Serif" font-size="10.00">duvc_quick_get_camera</text>
<text xml:space="preserve" text-anchor="middle" x="60.88" y="-206.5" font-family="Helvetica,sans-Serif" font-size="10.00">_property_range</text>
</a>
</g>
</g>
<!-- Node1&#45;&gt;Node5 -->
<g id="edge4_Node000001_Node000005" class="edge">
<title>Node1&#45;&gt;Node5</title>
<g id="a_edge4_Node000001_Node000005"><a xlink:title=" ">
<path fill="none" stroke="#63b8ff" d="M146.26,-201.51C138.28,-202.88 130.1,-204.29 122.13,-205.66"/>
<polygon fill="#63b8ff" stroke="#63b8ff" points="146.63,-205 155.89,-199.86 145.44,-198.1 146.63,-205"/>
</a>
</g>
</g>
<!-- Node6 -->
<g id="Node000006" class="node">
<title>Node6</title>
<g id="a_Node000006"><a xlink:href="api_8cpp.html#ac2450ac31290e5083614c732b6586c6d" target="_top" xlink:title="Quick get video property.">
<polygon fill="white" stroke="#666666" points="117.25,-182 4.5,-182 4.5,-150 117.25,-150 117.25,-182"/>
<text xml:space="preserve" text-anchor="start" x="12.5" y="-168.5" font-family="Helvetica,sans-Serif" font-size="10.00">duvc_quick_get_video</text>
<text xml:space="preserve" text-anchor="middle" x="60.88" y="-156.5" font-family="Helvetica,sans-Serif" font-size="10.00">_property</text>
</a>
</g>
</g>
<!-- Node1&#45;&gt;Node6 -->
<g id="edge5_Node000001_Node000006" class="edge">
<title>Node1&#45;&gt;Node6</title>
<g id="a_edge5_Node000001_Node000006"><a xlink:title=" ">
<path fill="none" stroke="#63b8ff" d="M146.35,-180.5C136.8,-178.86 126.99,-177.18 117.57,-175.56"/>
<polygon fill="#63b8ff" stroke="#63b8ff" points="145.44,-183.9 155.89,-182.14 146.63,-177 145.44,-183.9"/>
</a>
</g>
</g>
<!-- Node7 -->
<g id="Node000007" class="node">
<title>Node7</title>
<g id="a_Node000007"><a xlink:href="api_8cpp.html#a993684c5701505045bdb13709872300b" target="_top" xlink:title="Quick get video property range.">
<polygon fill="white" stroke="#666666" points="117.25,-132 4.5,-132 4.5,-100 117.25,-100 117.25,-132"/>
<text xml:space="preserve" text-anchor="start" x="12.5" y="-118.5" font-family="Helvetica,sans-Serif" font-size="10.00">duvc_quick_get_video</text>
<text xml:space="preserve" text-anchor="middle" x="60.88" y="-106.5" font-family="Helvetica,sans-Serif" font-size="10.00">_property_range</text>
</a>
</g>
</g>
<!-- Node1&#45;&gt;Node7 -->
<g id="edge6_Node000001_Node000007" class="edge">
<title>Node1&#45;&gt;Node7</title>
<g id="a_edge6_Node000001_Node000007"><a xlink:title=" ">
<path fill="none" stroke="#63b8ff" d="M181.47,-174.61C164.72,-164.37 142.32,-151.24 121.75,-141 115.8,-138.04 109.41,-135.12 103.1,-132.37"/>
<polygon fill="#63b8ff" stroke="#63b8ff" points="179.47,-177.49 189.81,-179.76 183.14,-171.53 179.47,-177.49"/>
</a>
</g>
</g>
<!-- Node8 -->
<g id="Node000008" class="node">
<title>Node8</title>
<g id="a_Node000008"><a xlink:href="api_8cpp.html#ab4d738bc8b5e468bfa9ecd3e27395815" target="_top" xlink:title="Quick set camera property (creates temporary connection)">
<polygon fill="white" stroke="#666666" points="121.75,-82 0,-82 0,-50 121.75,-50 121.75,-82"/>
<text xml:space="preserve" text-anchor="start" x="8" y="-68.5" font-family="Helvetica,sans-Serif" font-size="10.00">duvc_quick_set_camera</text>
<text xml:space="preserve" text-anchor="middle" x="60.88" y="-56.5" font-family="Helvetica,sans-Serif" font-size="10.00">_property</text>
</a>
</g>
</g>
<!-- Node1&#45;&gt;Node8 -->
<g id="edge7_Node000001_Node000008" class="edge">
<title>Node1&#45;&gt;Node8</title>
<g id="a_edge7_Node000001_Node000008"><a xlink:title=" ">
<path fill="none" stroke="#63b8ff" d="M194.71,-171.14C179.59,-149.01 152.57,-113.41 121.75,-91 117.38,-87.82 112.54,-84.95 107.56,-82.39"/>
<polygon fill="#63b8ff" stroke="#63b8ff" points="191.67,-172.88 200.12,-179.27 197.5,-169.01 191.67,-172.88"/>
</a>
</g>
</g>
<!-- Node9 -->
<g id="Node000009" class="node">
<title>Node9</title>
<g id="a_Node000009"><a xlink:href="api_8cpp.html#ac5c65a93003977ce563d8a5c1379745c" target="_top" xlink:title="Quick set video property.">
<polygon fill="white" stroke="#666666" points="117.25,-32 4.5,-32 4.5,0 117.25,0 117.25,-32"/>
<text xml:space="preserve" text-anchor="start" x="12.5" y="-18.5" font-family="Helvetica,sans-Serif" font-size="10.00">duvc_quick_set_video</text>
<text xml:space="preserve" text-anchor="middle" x="60.88" y="-6.5" font-family="Helvetica,sans-Serif" font-size="10.00">_property</text>
</a>
</g>
</g>
<!-- Node1&#45;&gt;Node9 -->
<g id="edge8_Node000001_Node000009" class="edge">
<title>Node1&#45;&gt;Node9</title>
<g id="a_edge8_Node000001_Node000009"><a xlink:title=" ">
<path fill="none" stroke="#63b8ff" d="M200.53,-170.05C188.94,-138.15 162.82,-77.27 121.75,-41 118.12,-37.79 114.02,-34.96 109.71,-32.46"/>
<polygon fill="#63b8ff" stroke="#63b8ff" points="197.17,-171.03 203.77,-179.32 203.77,-168.73 197.17,-171.03"/>
</a>
</g>
</g>
</g>
</svg>
</svg>

<style type='text/css'>
<![CDATA[
[data-mouse-over-selected='false'] { opacity: 0.7; }
[data-mouse-over-selected='true']  { opacity: 1.0; }
]]>
</style>
<script type="application/ecmascript"><![CDATA[
document.addEventListener('DOMContentLoaded', (event) => {
  highlightEdges();
  highlightAdjacentNodes();
});
]]></script>
</svg>
