<?xml version="1.0" encoding="UTF-8" standalone="no"?>
<!DOCTYPE svg PUBLIC "-//W3C//DTD SVG 1.1//EN"
 "http://www.w3.org/Graphics/SVG/1.1/DTD/svg11.dtd">
<!-- Generated by graphviz version 14.0.2 (20251019.1705)
 -->
<!-- Title: duvc::logitech::get_logitech_property_typed Pages: 1 -->
<svg width="270pt" height="192pt"
 viewBox="0.00 0.00 270.00 192.00" xmlns="http://www.w3.org/2000/svg" xmlns:xlink="http://www.w3.org/1999/xlink">
<g id="graph0" class="graph" transform="scale(1 1) rotate(0) translate(4 188)">
<title>duvc::logitech::get_logitech_property_typed</title>
<!-- Node1 -->
<g id="Node000001" class="node">
<title>Node1</title>
<g id="a_Node000001"><a xlink:title="Get typed Logitech property value.">
<polygon fill="#999999" stroke="#666666" points="124.75,-102 0,-102 0,-70 124.75,-70 124.75,-102"/>
<text xml:space="preserve" text-anchor="start" x="8" y="-88.5" font-family="Helvetica,sans-Serif" font-size="10.00">duvc::logitech::get</text>
<text xml:space="preserve" text-anchor="middle" x="62.38" y="-76.5" font-family="Helvetica,sans-Serif" font-size="10.00">_logitech_property_typed</text>
</a>
</g>
</g>
<!-- Node2 -->
<g id="Node000002" class="node">
<title>Node2</title>
<g id="a_Node000002"><a xlink:href="classduvc_1_1Result.html#aeae3d86ec04c3b53caef2e1b51467609" target="_top" xlink:title="Get the error (assumes error)">
<polygon fill="white" stroke="#666666" points="259.62,-184 162.62,-184 162.62,-164 259.62,-164 259.62,-184"/>
<text xml:space="preserve" text-anchor="middle" x="211.12" y="-170.5" font-family="Helvetica,sans-Serif" font-size="10.00">duvc::Result::error</text>
</a>
</g>
</g>
<!-- Node1&#45;&gt;Node2 -->
<g id="edge1_Node000001_Node000002" class="edge">
<title>Node1&#45;&gt;Node2</title>
<g id="a_edge1_Node000001_Node000002"><a xlink:title=" ">
<path fill="none" stroke="#63b8ff" d="M83.3,-102.37C102.33,-117.45 132.26,-139.73 160.75,-155 163.39,-156.42 166.16,-157.78 168.98,-159.08"/>
<polygon fill="#63b8ff" stroke="#63b8ff" points="167.34,-162.18 177.91,-162.91 170.1,-155.75 167.34,-162.18"/>
</a>
</g>
</g>
<!-- Node3 -->
<g id="Node000003" class="node">
<title>Node3</title>
<g id="a_Node000003"><a xlink:href="namespaceduvc_1_1logitech.html#a91bff3336f23441c645a3ae57a858991" target="_top" xlink:title="Get Logitech vendor property as raw byte vector.">
<polygon fill="white" stroke="#666666" points="259.25,-146 163,-146 163,-114 259.25,-114 259.25,-146"/>
<text xml:space="preserve" text-anchor="start" x="171" y="-132.5" font-family="Helvetica,sans-Serif" font-size="10.00">duvc::logitech::get</text>
<text xml:space="preserve" text-anchor="middle" x="211.12" y="-120.5" font-family="Helvetica,sans-Serif" font-size="10.00">_logitech_property</text>
</a>
</g>
</g>
<!-- Node1&#45;&gt;Node3 -->
<g id="edge2_Node000001_Node000003" class="edge">
<title>Node1&#45;&gt;Node3</title>
<g id="a_edge2_Node000001_Node000003"><a xlink:title=" ">
<path fill="none" stroke="#63b8ff" d="M118.02,-102.38C129.02,-105.68 140.62,-109.16 151.75,-112.5"/>
<polygon fill="#63b8ff" stroke="#63b8ff" points="150.64,-115.82 161.22,-115.34 152.65,-109.11 150.64,-115.82"/>
</a>
</g>
</g>
<!-- Node4 -->
<g id="Node000004" class="node">
<title>Node4</title>
<g id="a_Node000004"><a xlink:href="classduvc_1_1Result.html#a6a3af8795b3d3090f17993728dbe701f" target="_top" xlink:title="Check if result contains a value (success)">
<polygon fill="white" stroke="#666666" points="261.5,-96 160.75,-96 160.75,-76 261.5,-76 261.5,-96"/>
<text xml:space="preserve" text-anchor="middle" x="211.12" y="-82.5" font-family="Helvetica,sans-Serif" font-size="10.00">duvc::Result::is_ok</text>
</a>
</g>
</g>
<!-- Node1&#45;&gt;Node4 -->
<g id="edge3_Node000001_Node000004" class="edge">
<title>Node1&#45;&gt;Node4</title>
<g id="a_edge3_Node000001_Node000004"><a xlink:title=" ">
<path fill="none" stroke="#63b8ff" d="M125.18,-86C133.08,-86 141.16,-86 149.04,-86"/>
<polygon fill="#63b8ff" stroke="#63b8ff" points="148.89,-89.5 158.89,-86 148.89,-82.5 148.89,-89.5"/>
</a>
</g>
</g>
<!-- Node5 -->
<g id="Node000005" class="node">
<title>Node5</title>
<g id="a_Node000005"><a xlink:href="namespaceduvc.html#afc6e96946d632ab859aa1aef741646f6" target="_top" xlink:title="Helper to create successful void Result.">
<polygon fill="white" stroke="#666666" points="239,-58 183.25,-58 183.25,-38 239,-38 239,-58"/>
<text xml:space="preserve" text-anchor="middle" x="211.12" y="-44.5" font-family="Helvetica,sans-Serif" font-size="10.00">duvc::Ok</text>
</a>
</g>
</g>
<!-- Node1&#45;&gt;Node5 -->
<g id="edge4_Node000001_Node000005" class="edge">
<title>Node1&#45;&gt;Node5</title>
<g id="a_edge4_Node000001_Node000005"><a xlink:title=" ">
<path fill="none" stroke="#63b8ff" d="M125.18,-69.99C141.13,-65.87 157.83,-61.54 172.15,-57.83"/>
<polygon fill="#63b8ff" stroke="#63b8ff" points="172.81,-61.28 181.61,-55.38 171.05,-54.5 172.81,-61.28"/>
</a>
</g>
</g>
<!-- Node6 -->
<g id="Node000006" class="node">
<title>Node6</title>
<g id="a_Node000006"><a xlink:href="classduvc_1_1Result.html#a260a000aca87d38c8f9f22ad80804691" target="_top" xlink:title="Get the value (assumes success)">
<polygon fill="white" stroke="#666666" points="261.5,-20 160.75,-20 160.75,0 261.5,0 261.5,-20"/>
<text xml:space="preserve" text-anchor="middle" x="211.12" y="-6.5" font-family="Helvetica,sans-Serif" font-size="10.00">duvc::Result::value</text>
</a>
</g>
</g>
<!-- Node1&#45;&gt;Node6 -->
<g id="edge5_Node000001_Node000006" class="edge">
<title>Node1&#45;&gt;Node6</title>
<g id="a_edge5_Node000001_Node000006"><a xlink:title=" ">
<path fill="none" stroke="#63b8ff" d="M88.79,-69.59C108.08,-57.51 135.51,-41.15 160.75,-29 163.7,-27.58 166.78,-26.19 169.91,-24.84"/>
<polygon fill="#63b8ff" stroke="#63b8ff" points="171.22,-28.09 179.15,-21.06 168.57,-21.61 171.22,-28.09"/>
</a>
</g>
</g>
</g>
</svg>
