<?xml version="1.0" encoding="UTF-8" standalone="no"?>
<!DOCTYPE svg PUBLIC "-//W3C//DTD SVG 1.1//EN"
 "http://www.w3.org/Graphics/SVG/1.1/DTD/svg11.dtd">
<!-- Generated by graphviz version 14.0.2 (20251019.1705)
 -->
<!-- Title: duvc::list_devices Pages: 1 -->
<svg width="551pt" height="142pt"
 viewBox="0.00 0.00 551.00 142.00" xmlns="http://www.w3.org/2000/svg" xmlns:xlink="http://www.w3.org/1999/xlink">
<g id="graph0" class="graph" transform="scale(1 1) rotate(0) translate(4 138)">
<title>duvc::list_devices</title>
<!-- Node1 -->
<g id="Node000001" class="node">
<title>Node1</title>
<g id="a_Node000001"><a xlink:title="Enumerate all available video input devices.">
<polygon fill="#999999" stroke="#666666" points="94.75,-77 0,-77 0,-57 94.75,-57 94.75,-77"/>
<text xml:space="preserve" text-anchor="middle" x="47.38" y="-63.5" font-family="Helvetica,sans-Serif" font-size="10.00">duvc::list_devices</text>
</a>
</g>
</g>
<!-- Node2 -->
<g id="Node000002" class="node">
<title>Node2</title>
<g id="a_Node000002"><a xlink:href="namespaceduvc.html#ab7299b8597bf14b18b8351278c209188" target="_top" xlink:title="Create DirectShow device enumerator.">
<polygon fill="white" stroke="#666666" points="258.12,-134 137.88,-134 137.88,-114 258.12,-114 258.12,-134"/>
<text xml:space="preserve" text-anchor="middle" x="198" y="-120.5" font-family="Helvetica,sans-Serif" font-size="10.00">duvc::create_dev_enum</text>
</a>
</g>
</g>
<!-- Node1&#45;&gt;Node2 -->
<g id="edge1_Node000001_Node000002" class="edge">
<title>Node1&#45;&gt;Node2</title>
<g id="a_edge1_Node000001_Node000002"><a xlink:title=" ">
<path fill="none" stroke="#63b8ff" d="M68.66,-77.41C85.11,-85.6 109.05,-96.94 130.75,-105 135.68,-106.83 140.87,-108.59 146.08,-110.26"/>
<polygon fill="#63b8ff" stroke="#63b8ff" points="144.71,-113.5 155.29,-113.08 146.76,-106.8 144.71,-113.5"/>
</a>
</g>
</g>
<!-- Node5 -->
<g id="Node000005" class="node">
<title>Node5</title>
<g id="a_Node000005"><a xlink:href="namespaceduvc.html#a1a577c6cd7e4b3106d6f95c15bbceeed" target="_top" xlink:title="Enumerate video input devices.">
<polygon fill="white" stroke="#666666" points="265.25,-96 130.75,-96 130.75,-76 265.25,-76 265.25,-96"/>
<text xml:space="preserve" text-anchor="middle" x="198" y="-82.5" font-family="Helvetica,sans-Serif" font-size="10.00">duvc::enum_video_devices</text>
</a>
</g>
</g>
<!-- Node1&#45;&gt;Node5 -->
<g id="edge4_Node000001_Node000005" class="edge">
<title>Node1&#45;&gt;Node5</title>
<g id="a_edge4_Node000001_Node000005"><a xlink:title=" ">
<path fill="none" stroke="#63b8ff" d="M94.99,-72.96C102.72,-73.95 110.91,-74.99 119.16,-76.05"/>
<polygon fill="#63b8ff" stroke="#63b8ff" points="118.54,-79.5 128.91,-77.29 119.43,-72.56 118.54,-79.5"/>
</a>
</g>
</g>
<!-- Node6 -->
<g id="Node000006" class="node">
<title>Node6</title>
<g id="a_Node000006"><a xlink:href="namespaceduvc.html#a2c2b6f32c6871ad36ae0bf98d9374fd0" target="_top" xlink:title="Read device path from moniker.">
<polygon fill="white" stroke="#666666" points="257.75,-58 138.25,-58 138.25,-38 257.75,-38 257.75,-58"/>
<text xml:space="preserve" text-anchor="middle" x="198" y="-44.5" font-family="Helvetica,sans-Serif" font-size="10.00">duvc::read_device_path</text>
</a>
</g>
</g>
<!-- Node1&#45;&gt;Node6 -->
<g id="edge6_Node000001_Node000006" class="edge">
<title>Node1&#45;&gt;Node6</title>
<g id="a_edge6_Node000001_Node000006"><a xlink:title=" ">
<path fill="none" stroke="#63b8ff" d="M94.99,-61.04C105.1,-59.75 116.01,-58.35 126.8,-56.97"/>
<polygon fill="#63b8ff" stroke="#63b8ff" points="126.99,-60.48 136.46,-55.74 126.1,-53.54 126.99,-60.48"/>
</a>
</g>
</g>
<!-- Node8 -->
<g id="Node000008" class="node">
<title>Node8</title>
<g id="a_Node000008"><a xlink:href="namespaceduvc.html#a019644436e5f0add38b6242843b79fef" target="_top" xlink:title="Read friendly name from device moniker.">
<polygon fill="white" stroke="#666666" points="261.88,-20 134.12,-20 134.12,0 261.88,0 261.88,-20"/>
<text xml:space="preserve" text-anchor="middle" x="198" y="-6.5" font-family="Helvetica,sans-Serif" font-size="10.00">duvc::read_friendly_name</text>
</a>
</g>
</g>
<!-- Node1&#45;&gt;Node8 -->
<g id="edge8_Node000001_Node000008" class="edge">
<title>Node1&#45;&gt;Node8</title>
<g id="a_edge8_Node000001_Node000008"><a xlink:title=" ">
<path fill="none" stroke="#63b8ff" d="M68.66,-56.59C85.11,-48.4 109.05,-37.06 130.75,-29 135.68,-27.17 140.87,-25.41 146.08,-23.74"/>
<polygon fill="#63b8ff" stroke="#63b8ff" points="146.76,-27.2 155.29,-20.92 144.71,-20.5 146.76,-27.2"/>
</a>
</g>
</g>
<!-- Node3 -->
<g id="Node000003" class="node">
<title>Node3</title>
<g id="a_Node000003"><a xlink:href="namespaceduvc.html#a21b444574354018097d4489a9ff0ff9e" target="_top" xlink:title=" ">
<polygon fill="white" stroke="#666666" points="395.25,-115 314.75,-115 314.75,-95 395.25,-95 395.25,-115"/>
<text xml:space="preserve" text-anchor="middle" x="355" y="-101.5" font-family="Helvetica,sans-Serif" font-size="10.00">duvc::throw_hr</text>
</a>
</g>
</g>
<!-- Node2&#45;&gt;Node3 -->
<g id="edge2_Node000002_Node000003" class="edge">
<title>Node2&#45;&gt;Node3</title>
<g id="a_edge2_Node000002_Node000003"><a xlink:title=" ">
<path fill="none" stroke="#63b8ff" d="M258.48,-116.71C273.3,-114.89 289.05,-112.96 303.4,-111.2"/>
<polygon fill="#63b8ff" stroke="#63b8ff" points="303.56,-114.71 313.06,-110.02 302.71,-107.76 303.56,-114.71"/>
</a>
</g>
</g>
<!-- Node4 -->
<g id="Node000004" class="node">
<title>Node4</title>
<g id="a_Node000004"><a xlink:href="namespaceduvc.html#a02d5c5b2e56515cee2cad9057af0467d" target="_top" xlink:title=" ">
<polygon fill="white" stroke="#666666" points="543.25,-115 444.75,-115 444.75,-95 543.25,-95 543.25,-115"/>
<text xml:space="preserve" text-anchor="middle" x="494" y="-101.5" font-family="Helvetica,sans-Serif" font-size="10.00">duvc::wide_to_utf8</text>
</a>
</g>
</g>
<!-- Node3&#45;&gt;Node4 -->
<g id="edge3_Node000003_Node000004" class="edge">
<title>Node3&#45;&gt;Node4</title>
<g id="a_edge3_Node000003_Node000004"><a xlink:title=" ">
<path fill="none" stroke="#63b8ff" d="M395.63,-105C407.36,-105 420.49,-105 433.2,-105"/>
<polygon fill="#63b8ff" stroke="#63b8ff" points="433.2,-108.5 443.2,-105 433.2,-101.5 433.2,-108.5"/>
</a>
</g>
</g>
<!-- Node5&#45;&gt;Node3 -->
<g id="edge5_Node000005_Node000003" class="edge">
<title>Node5&#45;&gt;Node3</title>
<g id="a_edge5_Node000005_Node000003"><a xlink:title=" ">
<path fill="none" stroke="#63b8ff" d="M265.63,-94.17C278.19,-95.71 291.14,-97.29 303.12,-98.76"/>
<polygon fill="#63b8ff" stroke="#63b8ff" points="302.42,-102.2 312.77,-99.95 303.27,-95.26 302.42,-102.2"/>
</a>
</g>
</g>
<!-- Node7 -->
<g id="Node000007" class="node">
<title>Node7</title>
<g id="a_Node000007"><a xlink:href="namespaceduvc.html#a0dbd37821c1cae29fa72d44e3dbd0583" target="_top" xlink:title=" ">
<polygon fill="white" stroke="#666666" points="408.75,-39 301.25,-39 301.25,-19 408.75,-19 408.75,-39"/>
<text xml:space="preserve" text-anchor="middle" x="355" y="-25.5" font-family="Helvetica,sans-Serif" font-size="10.00">duvc::read_prop_bstr</text>
</a>
</g>
</g>
<!-- Node6&#45;&gt;Node7 -->
<g id="edge7_Node000006_Node000007" class="edge">
<title>Node6&#45;&gt;Node7</title>
<g id="a_edge7_Node000006_Node000007"><a xlink:title=" ">
<path fill="none" stroke="#63b8ff" d="M258.04,-40.76C268.41,-39.49 279.24,-38.16 289.74,-36.88"/>
<polygon fill="#63b8ff" stroke="#63b8ff" points="289.96,-40.38 299.46,-35.68 289.11,-33.43 289.96,-40.38"/>
</a>
</g>
</g>
<!-- Node8&#45;&gt;Node7 -->
<g id="edge9_Node000008_Node000007" class="edge">
<title>Node8&#45;&gt;Node7</title>
<g id="a_edge9_Node000008_Node000007"><a xlink:title=" ">
<path fill="none" stroke="#63b8ff" d="M262.04,-17.73C271.12,-18.84 280.47,-19.99 289.57,-21.1"/>
<polygon fill="#63b8ff" stroke="#63b8ff" points="289.07,-24.57 299.43,-22.31 289.93,-17.62 289.07,-24.57"/>
</a>
</g>
</g>
</g>
</svg>
