<?xml version="1.0" encoding="UTF-8" standalone="no"?>
<!DOCTYPE svg PUBLIC "-//W3C//DTD SVG 1.1//EN"
 "http://www.w3.org/Graphics/SVG/1.1/DTD/svg11.dtd">
<!-- Generated by graphviz version 14.0.2 (20251019.1705)
 -->
<!-- Title: duvc::log_debug Pages: 1 -->
<svg width="543pt" height="66pt"
 viewBox="0.00 0.00 543.00 66.00" xmlns="http://www.w3.org/2000/svg" xmlns:xlink="http://www.w3.org/1999/xlink">
<g id="graph0" class="graph" transform="scale(1 1) rotate(0) translate(4 62)">
<title>duvc::log_debug</title>
<!-- Node1 -->
<g id="Node000001" class="node">
<title>Node1</title>
<g id="a_Node000001"><a xlink:title="Log debug message.">
<polygon fill="#999999" stroke="#666666" points="87.25,-39 0,-39 0,-19 87.25,-19 87.25,-39"/>
<text xml:space="preserve" text-anchor="middle" x="43.62" y="-25.5" font-family="Helvetica,sans-Serif" font-size="10.00">duvc::log_debug</text>
</a>
</g>
</g>
<!-- Node2 -->
<g id="Node000002" class="node">
<title>Node2</title>
<g id="a_Node000002"><a xlink:href="namespaceduvc.html#a92c11bbcc4c659a542bd48d477f60876" target="_top" xlink:title="Log a message.">
<polygon fill="white" stroke="#666666" points="224,-39 123.25,-39 123.25,-19 224,-19 224,-39"/>
<text xml:space="preserve" text-anchor="middle" x="173.62" y="-25.5" font-family="Helvetica,sans-Serif" font-size="10.00">duvc::log_message</text>
</a>
</g>
</g>
<!-- Node1&#45;&gt;Node2 -->
<g id="edge1_Node000001_Node000002" class="edge">
<title>Node1&#45;&gt;Node2</title>
<g id="a_edge1_Node000001_Node000002"><a xlink:title=" ">
<path fill="none" stroke="#63b8ff" d="M87.6,-29C95.3,-29 103.46,-29 111.56,-29"/>
<polygon fill="#63b8ff" stroke="#63b8ff" points="111.39,-32.5 121.39,-29 111.39,-25.5 111.39,-32.5"/>
</a>
</g>
</g>
<!-- Node3 -->
<g id="Node000003" class="node">
<title>Node3</title>
<g id="a_Node000003"><a xlink:href="namespaceduvc.html#ababd2cbe9f996df9fb02141b96f1a0da" target="_top" xlink:title="Default logging callback that writes to stderr.">
<polygon fill="white" stroke="#666666" points="391.5,-39 260,-39 260,-19 391.5,-19 391.5,-39"/>
<text xml:space="preserve" text-anchor="middle" x="325.75" y="-25.5" font-family="Helvetica,sans-Serif" font-size="10.00">duvc::default_log_callback</text>
</a>
</g>
</g>
<!-- Node2&#45;&gt;Node3 -->
<g id="edge2_Node000002_Node000003" class="edge">
<title>Node2&#45;&gt;Node3</title>
<g id="a_edge2_Node000002_Node000003"><a xlink:title=" ">
<path fill="none" stroke="#63b8ff" d="M224.2,-29C231.92,-29 240.05,-29 248.2,-29"/>
<polygon fill="#63b8ff" stroke="#63b8ff" points="248.19,-32.5 258.19,-29 248.19,-25.5 248.19,-32.5"/>
</a>
</g>
</g>
<!-- Node4 -->
<g id="Node000004" class="node">
<title>Node4</title>
<g id="a_Node000004"><a xlink:href="namespaceduvc.html#a621c452d402f42a3c34c68da6f2848f1" target="_top" xlink:title="Get current timestamp as string.">
<polygon fill="white" stroke="#666666" points="535,-58 427.5,-58 427.5,-38 535,-38 535,-58"/>
<text xml:space="preserve" text-anchor="middle" x="481.25" y="-44.5" font-family="Helvetica,sans-Serif" font-size="10.00">duvc::get_timestamp</text>
</a>
</g>
</g>
<!-- Node3&#45;&gt;Node4 -->
<g id="edge3_Node000003_Node000004" class="edge">
<title>Node3&#45;&gt;Node4</title>
<g id="a_edge3_Node000003_Node000004"><a xlink:title=" ">
<path fill="none" stroke="#63b8ff" d="M391.85,-37.06C399.75,-38.04 407.83,-39.04 415.73,-40.01"/>
<polygon fill="#63b8ff" stroke="#63b8ff" points="415.27,-43.48 425.63,-41.24 416.13,-36.54 415.27,-43.48"/>
</a>
</g>
</g>
<!-- Node5 -->
<g id="Node000005" class="node">
<title>Node5</title>
<g id="a_Node000005"><a xlink:href="namespaceduvc.html#a8556fd02a649101843e7712e638cc0cb" target="_top" xlink:title="Convert camera property enum to string.">
<polygon fill="white" stroke="#666666" points="521.5,-20 441,-20 441,0 521.5,0 521.5,-20"/>
<text xml:space="preserve" text-anchor="middle" x="481.25" y="-6.5" font-family="Helvetica,sans-Serif" font-size="10.00">duvc::to_string</text>
</a>
</g>
</g>
<!-- Node3&#45;&gt;Node5 -->
<g id="edge4_Node000003_Node000005" class="edge">
<title>Node3&#45;&gt;Node5</title>
<g id="a_edge4_Node000003_Node000005"><a xlink:title=" ">
<path fill="none" stroke="#63b8ff" d="M391.85,-20.94C404.48,-19.38 417.54,-17.76 429.63,-16.27"/>
<polygon fill="#63b8ff" stroke="#63b8ff" points="429.87,-19.76 439.36,-15.06 429.01,-12.82 429.87,-19.76"/>
</a>
</g>
</g>
</g>
</svg>
