<?xml version="1.0" encoding="UTF-8" standalone="no"?>
<!DOCTYPE svg PUBLIC "-//W3C//DTD SVG 1.1//EN"
 "http://www.w3.org/Graphics/SVG/1.1/DTD/svg11.dtd">
<!-- Generated by graphviz version 14.0.2 (20251019.1705)
 -->
<!-- Title: duvc::open_camera Pages: 1 -->
<svg width="689pt" height="142pt"
 viewBox="0.00 0.00 689.00 142.00" xmlns="http://www.w3.org/2000/svg" xmlns:xlink="http://www.w3.org/1999/xlink">
<g id="graph0" class="graph" transform="scale(1 1) rotate(0) translate(4 138)">
<title>duvc::open_camera</title>
<!-- Node1 -->
<g id="Node000001" class="node">
<title>Node1</title>
<g id="a_Node000001"><a xlink:title="Create camera from device index.">
<polygon fill="#999999" stroke="#666666" points="101.5,-77 0,-77 0,-57 101.5,-57 101.5,-77"/>
<text xml:space="preserve" text-anchor="middle" x="50.75" y="-63.5" font-family="Helvetica,sans-Serif" font-size="10.00">duvc::open_camera</text>
</a>
</g>
</g>
<!-- Node1&#45;&gt;Node1 -->
<g id="edge11_Node000001_Node000001" class="edge">
<title>Node1&#45;&gt;Node1</title>
<g id="a_edge11_Node000001_Node000001"><a xlink:title=" ">
<path fill="none" stroke="#63b8ff" d="M29.44,-77.34C20.33,-85.98 27.44,-95 50.75,-95 63.5,-95 71.4,-92.3 74.46,-88.44"/>
<polygon fill="#63b8ff" stroke="#63b8ff" points="77.91,-87.86 72.38,-78.82 71.07,-89.33 77.91,-87.86"/>
</a>
</g>
</g>
<!-- Node2 -->
<g id="Node000002" class="node">
<title>Node2</title>
<g id="a_Node000002"><a xlink:href="namespaceduvc.html#a2c254074ce671320e3e57c56a9389ac1" target="_top" xlink:title="Enumerate all available video input devices.">
<polygon fill="white" stroke="#666666" points="232.25,-77 137.5,-77 137.5,-57 232.25,-57 232.25,-77"/>
<text xml:space="preserve" text-anchor="middle" x="184.88" y="-63.5" font-family="Helvetica,sans-Serif" font-size="10.00">duvc::list_devices</text>
</a>
</g>
</g>
<!-- Node1&#45;&gt;Node2 -->
<g id="edge1_Node000001_Node000002" class="edge">
<title>Node1&#45;&gt;Node2</title>
<g id="a_edge1_Node000001_Node000002"><a xlink:title=" ">
<path fill="none" stroke="#63b8ff" d="M101.7,-67C109.65,-67 117.93,-67 126.04,-67"/>
<polygon fill="#63b8ff" stroke="#63b8ff" points="125.83,-70.5 135.83,-67 125.83,-63.5 125.83,-70.5"/>
</a>
</g>
</g>
<!-- Node3 -->
<g id="Node000003" class="node">
<title>Node3</title>
<g id="a_Node000003"><a xlink:href="namespaceduvc.html#ab7299b8597bf14b18b8351278c209188" target="_top" xlink:title="Create DirectShow device enumerator.">
<polygon fill="white" stroke="#666666" points="395.62,-134 275.38,-134 275.38,-114 395.62,-114 395.62,-134"/>
<text xml:space="preserve" text-anchor="middle" x="335.5" y="-120.5" font-family="Helvetica,sans-Serif" font-size="10.00">duvc::create_dev_enum</text>
</a>
</g>
</g>
<!-- Node2&#45;&gt;Node3 -->
<g id="edge2_Node000002_Node000003" class="edge">
<title>Node2&#45;&gt;Node3</title>
<g id="a_edge2_Node000002_Node000003"><a xlink:title=" ">
<path fill="none" stroke="#63b8ff" d="M206.16,-77.41C222.61,-85.6 246.55,-96.94 268.25,-105 273.18,-106.83 278.37,-108.59 283.58,-110.26"/>
<polygon fill="#63b8ff" stroke="#63b8ff" points="282.21,-113.5 292.79,-113.08 284.26,-106.8 282.21,-113.5"/>
</a>
</g>
</g>
<!-- Node6 -->
<g id="Node000006" class="node">
<title>Node6</title>
<g id="a_Node000006"><a xlink:href="namespaceduvc.html#a1a577c6cd7e4b3106d6f95c15bbceeed" target="_top" xlink:title="Enumerate video input devices.">
<polygon fill="white" stroke="#666666" points="402.75,-96 268.25,-96 268.25,-76 402.75,-76 402.75,-96"/>
<text xml:space="preserve" text-anchor="middle" x="335.5" y="-82.5" font-family="Helvetica,sans-Serif" font-size="10.00">duvc::enum_video_devices</text>
</a>
</g>
</g>
<!-- Node2&#45;&gt;Node6 -->
<g id="edge5_Node000002_Node000006" class="edge">
<title>Node2&#45;&gt;Node6</title>
<g id="a_edge5_Node000002_Node000006"><a xlink:title=" ">
<path fill="none" stroke="#63b8ff" d="M232.49,-72.96C240.22,-73.95 248.41,-74.99 256.66,-76.05"/>
<polygon fill="#63b8ff" stroke="#63b8ff" points="256.04,-79.5 266.41,-77.29 256.93,-72.56 256.04,-79.5"/>
</a>
</g>
</g>
<!-- Node7 -->
<g id="Node000007" class="node">
<title>Node7</title>
<g id="a_Node000007"><a xlink:href="namespaceduvc.html#a2c2b6f32c6871ad36ae0bf98d9374fd0" target="_top" xlink:title="Read device path from moniker.">
<polygon fill="white" stroke="#666666" points="395.25,-58 275.75,-58 275.75,-38 395.25,-38 395.25,-58"/>
<text xml:space="preserve" text-anchor="middle" x="335.5" y="-44.5" font-family="Helvetica,sans-Serif" font-size="10.00">duvc::read_device_path</text>
</a>
</g>
</g>
<!-- Node2&#45;&gt;Node7 -->
<g id="edge7_Node000002_Node000007" class="edge">
<title>Node2&#45;&gt;Node7</title>
<g id="a_edge7_Node000002_Node000007"><a xlink:title=" ">
<path fill="none" stroke="#63b8ff" d="M232.49,-61.04C242.6,-59.75 253.51,-58.35 264.3,-56.97"/>
<polygon fill="#63b8ff" stroke="#63b8ff" points="264.49,-60.48 273.96,-55.74 263.6,-53.54 264.49,-60.48"/>
</a>
</g>
</g>
<!-- Node9 -->
<g id="Node000009" class="node">
<title>Node9</title>
<g id="a_Node000009"><a xlink:href="namespaceduvc.html#a019644436e5f0add38b6242843b79fef" target="_top" xlink:title="Read friendly name from device moniker.">
<polygon fill="white" stroke="#666666" points="399.38,-20 271.62,-20 271.62,0 399.38,0 399.38,-20"/>
<text xml:space="preserve" text-anchor="middle" x="335.5" y="-6.5" font-family="Helvetica,sans-Serif" font-size="10.00">duvc::read_friendly_name</text>
</a>
</g>
</g>
<!-- Node2&#45;&gt;Node9 -->
<g id="edge9_Node000002_Node000009" class="edge">
<title>Node2&#45;&gt;Node9</title>
<g id="a_edge9_Node000002_Node000009"><a xlink:title=" ">
<path fill="none" stroke="#63b8ff" d="M206.16,-56.59C222.61,-48.4 246.55,-37.06 268.25,-29 273.18,-27.17 278.37,-25.41 283.58,-23.74"/>
<polygon fill="#63b8ff" stroke="#63b8ff" points="284.26,-27.2 292.79,-20.92 282.21,-20.5 284.26,-27.2"/>
</a>
</g>
</g>
<!-- Node4 -->
<g id="Node000004" class="node">
<title>Node4</title>
<g id="a_Node000004"><a xlink:href="namespaceduvc.html#a21b444574354018097d4489a9ff0ff9e" target="_top" xlink:title=" ">
<polygon fill="white" stroke="#666666" points="532.75,-115 452.25,-115 452.25,-95 532.75,-95 532.75,-115"/>
<text xml:space="preserve" text-anchor="middle" x="492.5" y="-101.5" font-family="Helvetica,sans-Serif" font-size="10.00">duvc::throw_hr</text>
</a>
</g>
</g>
<!-- Node3&#45;&gt;Node4 -->
<g id="edge3_Node000003_Node000004" class="edge">
<title>Node3&#45;&gt;Node4</title>
<g id="a_edge3_Node000003_Node000004"><a xlink:title=" ">
<path fill="none" stroke="#63b8ff" d="M395.98,-116.71C410.8,-114.89 426.55,-112.96 440.9,-111.2"/>
<polygon fill="#63b8ff" stroke="#63b8ff" points="441.06,-114.71 450.56,-110.02 440.21,-107.76 441.06,-114.71"/>
</a>
</g>
</g>
<!-- Node5 -->
<g id="Node000005" class="node">
<title>Node5</title>
<g id="a_Node000005"><a xlink:href="namespaceduvc.html#a02d5c5b2e56515cee2cad9057af0467d" target="_top" xlink:title=" ">
<polygon fill="white" stroke="#666666" points="680.75,-115 582.25,-115 582.25,-95 680.75,-95 680.75,-115"/>
<text xml:space="preserve" text-anchor="middle" x="631.5" y="-101.5" font-family="Helvetica,sans-Serif" font-size="10.00">duvc::wide_to_utf8</text>
</a>
</g>
</g>
<!-- Node4&#45;&gt;Node5 -->
<g id="edge4_Node000004_Node000005" class="edge">
<title>Node4&#45;&gt;Node5</title>
<g id="a_edge4_Node000004_Node000005"><a xlink:title=" ">
<path fill="none" stroke="#63b8ff" d="M533.13,-105C544.86,-105 557.99,-105 570.7,-105"/>
<polygon fill="#63b8ff" stroke="#63b8ff" points="570.7,-108.5 580.7,-105 570.7,-101.5 570.7,-108.5"/>
</a>
</g>
</g>
<!-- Node6&#45;&gt;Node4 -->
<g id="edge6_Node000006_Node000004" class="edge">
<title>Node6&#45;&gt;Node4</title>
<g id="a_edge6_Node000006_Node000004"><a xlink:title=" ">
<path fill="none" stroke="#63b8ff" d="M403.13,-94.17C415.69,-95.71 428.64,-97.29 440.62,-98.76"/>
<polygon fill="#63b8ff" stroke="#63b8ff" points="439.92,-102.2 450.27,-99.95 440.77,-95.26 439.92,-102.2"/>
</a>
</g>
</g>
<!-- Node8 -->
<g id="Node000008" class="node">
<title>Node8</title>
<g id="a_Node000008"><a xlink:href="namespaceduvc.html#a0dbd37821c1cae29fa72d44e3dbd0583" target="_top" xlink:title=" ">
<polygon fill="white" stroke="#666666" points="546.25,-39 438.75,-39 438.75,-19 546.25,-19 546.25,-39"/>
<text xml:space="preserve" text-anchor="middle" x="492.5" y="-25.5" font-family="Helvetica,sans-Serif" font-size="10.00">duvc::read_prop_bstr</text>
</a>
</g>
</g>
<!-- Node7&#45;&gt;Node8 -->
<g id="edge8_Node000007_Node000008" class="edge">
<title>Node7&#45;&gt;Node8</title>
<g id="a_edge8_Node000007_Node000008"><a xlink:title=" ">
<path fill="none" stroke="#63b8ff" d="M395.54,-40.76C405.91,-39.49 416.74,-38.16 427.24,-36.88"/>
<polygon fill="#63b8ff" stroke="#63b8ff" points="427.46,-40.38 436.96,-35.68 426.61,-33.43 427.46,-40.38"/>
</a>
</g>
</g>
<!-- Node9&#45;&gt;Node8 -->
<g id="edge10_Node000009_Node000008" class="edge">
<title>Node9&#45;&gt;Node8</title>
<g id="a_edge10_Node000009_Node000008"><a xlink:title=" ">
<path fill="none" stroke="#63b8ff" d="M399.54,-17.73C408.62,-18.84 417.97,-19.99 427.07,-21.1"/>
<polygon fill="#63b8ff" stroke="#63b8ff" points="426.57,-24.57 436.93,-22.31 427.43,-17.62 426.57,-24.57"/>
</a>
</g>
</g>
</g>
</svg>
