<?xml version="1.0" encoding="UTF-8" standalone="no"?>
<!DOCTYPE svg PUBLIC "-//W3C//DTD SVG 1.1//EN"
 "http://www.w3.org/Graphics/SVG/1.1/DTD/svg11.dtd">
<!-- Generated by graphviz version 14.0.2 (20251019.1705)
 -->
<!-- Title: duvc::set_log_level Pages: 1 -->
<svg width="243pt" height="66pt"
 viewBox="0.00 0.00 243.00 66.00" xmlns="http://www.w3.org/2000/svg" xmlns:xlink="http://www.w3.org/1999/xlink">
<g id="graph0" class="graph" transform="scale(1 1) rotate(0) translate(4 62)">
<title>duvc::set_log_level</title>
<!-- Node1 -->
<g id="Node000001" class="node">
<title>Node1</title>
<g id="a_Node000001"><a xlink:title="Set minimum log level.">
<polygon fill="#999999" stroke="#666666" points="235.25,-39 135.25,-39 135.25,-19 235.25,-19 235.25,-39"/>
<text xml:space="preserve" text-anchor="middle" x="185.25" y="-25.5" font-family="Helvetica,sans-Serif" font-size="10.00">duvc::set_log_level</text>
</a>
</g>
</g>
<!-- Node2 -->
<g id="Node000002" class="node">
<title>Node2</title>
<g id="a_Node000002"><a xlink:href="api_8cpp.html#a25beb5fbe1559b1e26296077bf0990e8" target="_top" xlink:title="Initialize library.">
<polygon fill="white" stroke="#666666" points="88.38,-58 10.88,-58 10.88,-38 88.38,-38 88.38,-58"/>
<text xml:space="preserve" text-anchor="middle" x="49.62" y="-44.5" font-family="Helvetica,sans-Serif" font-size="10.00">duvc_initialize</text>
</a>
</g>
</g>
<!-- Node1&#45;&gt;Node2 -->
<g id="edge1_Node000001_Node000002" class="edge">
<title>Node1&#45;&gt;Node2</title>
<g id="a_edge1_Node000001_Node000002"><a xlink:title=" ">
<path fill="none" stroke="#63b8ff" d="M123.56,-37.63C111.63,-39.33 99.44,-41.06 88.52,-42.61"/>
<polygon fill="#63b8ff" stroke="#63b8ff" points="123.97,-41.11 133.37,-36.23 122.98,-34.18 123.97,-41.11"/>
</a>
</g>
</g>
<!-- Node3 -->
<g id="Node000003" class="node">
<title>Node3</title>
<g id="a_Node000003"><a xlink:href="api_8cpp.html#a26fe300558fa86a716e7d4c4faf0ad7c" target="_top" xlink:title="Set minimum log level.">
<polygon fill="white" stroke="#666666" points="99.25,-20 0,-20 0,0 99.25,0 99.25,-20"/>
<text xml:space="preserve" text-anchor="middle" x="49.62" y="-6.5" font-family="Helvetica,sans-Serif" font-size="10.00">duvc_set_log_level</text>
</a>
</g>
</g>
<!-- Node1&#45;&gt;Node3 -->
<g id="edge2_Node000001_Node000003" class="edge">
<title>Node1&#45;&gt;Node3</title>
<g id="a_edge2_Node000001_Node000003"><a xlink:title=" ">
<path fill="none" stroke="#63b8ff" d="M123.55,-20.37C115.44,-19.22 107.22,-18.05 99.35,-16.93"/>
<polygon fill="#63b8ff" stroke="#63b8ff" points="122.98,-23.82 133.37,-21.77 123.97,-16.89 122.98,-23.82"/>
</a>
</g>
</g>
</g>
</svg>
