<?xml version="1.0" encoding="UTF-8" standalone="no"?>
<!DOCTYPE svg PUBLIC "-//W3C//DTD SVG 1.1//EN"
 "http://www.w3.org/Graphics/SVG/1.1/DTD/svg11.dtd">
<!-- Generated by graphviz version 14.0.2 (20251019.1705)
 -->
<!-- Title: duvc::query_vendor_property_support Pages: 1 -->
<svg width="716pt" height="218pt"
 viewBox="0.00 0.00 716.00 218.00" xmlns="http://www.w3.org/2000/svg" xmlns:xlink="http://www.w3.org/1999/xlink">
<g id="graph0" class="graph" transform="scale(1 1) rotate(0) translate(4 214)">
<title>duvc::query_vendor_property_support</title>
<!-- Node1 -->
<g id="Node000001" class="node">
<title>Node1</title>
<g id="a_Node000001"><a xlink:title="Query whether device supports a vendor&#45;specific property.">
<polygon fill="#999999" stroke="#666666" points="101.5,-140 0,-140 0,-108 101.5,-108 101.5,-140"/>
<text xml:space="preserve" text-anchor="start" x="8" y="-126.5" font-family="Helvetica,sans-Serif" font-size="10.00">duvc::query_vendor</text>
<text xml:space="preserve" text-anchor="middle" x="50.75" y="-114.5" font-family="Helvetica,sans-Serif" font-size="10.00">_property_support</text>
</a>
</g>
</g>
<!-- Node2 -->
<g id="Node000002" class="node">
<title>Node2</title>
<g id="a_Node000002"><a xlink:href="namespaceduvc.html#a7d09140b9c0c7a63aa21bac0d2c4484d" target="_top" xlink:title=" ">
<polygon fill="white" stroke="#666666" points="256.25,-153 140.5,-153 140.5,-133 256.25,-133 256.25,-153"/>
<text xml:space="preserve" text-anchor="middle" x="198.38" y="-139.5" font-family="Helvetica,sans-Serif" font-size="10.00">duvc::get_property_set</text>
</a>
</g>
</g>
<!-- Node1&#45;&gt;Node2 -->
<g id="edge1_Node000001_Node000002" class="edge">
<title>Node1&#45;&gt;Node2</title>
<g id="a_edge1_Node000001_Node000002"><a xlink:title=" ">
<path fill="none" stroke="#63b8ff" d="M101.87,-130.54C110.54,-131.67 119.7,-132.87 128.77,-134.05"/>
<polygon fill="#63b8ff" stroke="#63b8ff" points="128.29,-137.52 138.66,-135.34 129.2,-130.58 128.29,-137.52"/>
</a>
</g>
</g>
<!-- Node3 -->
<g id="Node000003" class="node">
<title>Node3</title>
<g id="a_Node000003"><a xlink:href="namespaceduvc.html#a1345df0af198d75f16c54e38d54c7e63" target="_top" xlink:title="Create DirectShow filter from device.">
<polygon fill="white" stroke="#666666" points="259.25,-115 137.5,-115 137.5,-95 259.25,-95 259.25,-115"/>
<text xml:space="preserve" text-anchor="middle" x="198.38" y="-101.5" font-family="Helvetica,sans-Serif" font-size="10.00">duvc::open_device_filter</text>
</a>
</g>
</g>
<!-- Node1&#45;&gt;Node3 -->
<g id="edge2_Node000001_Node000003" class="edge">
<title>Node1&#45;&gt;Node3</title>
<g id="a_edge2_Node000001_Node000003"><a xlink:title=" ">
<path fill="none" stroke="#63b8ff" d="M101.87,-117.46C109.58,-116.45 117.68,-115.4 125.75,-114.34"/>
<polygon fill="#63b8ff" stroke="#63b8ff" points="126.15,-117.82 135.61,-113.06 125.25,-110.88 126.15,-117.82"/>
</a>
</g>
</g>
<!-- Node4 -->
<g id="Node000004" class="node">
<title>Node4</title>
<g id="a_Node000004"><a xlink:href="namespaceduvc.html#a72f92cd80ed6f3c59c814fae59e8ba26" target="_top" xlink:title=" ">
<polygon fill="white" stroke="#666666" points="411.75,-210 313.25,-210 313.25,-190 411.75,-190 411.75,-210"/>
<text xml:space="preserve" text-anchor="middle" x="362.5" y="-196.5" font-family="Helvetica,sans-Serif" font-size="10.00">duvc::bind_to_filter</text>
</a>
</g>
</g>
<!-- Node3&#45;&gt;Node4 -->
<g id="edge3_Node000003_Node000004" class="edge">
<title>Node3&#45;&gt;Node4</title>
<g id="a_edge3_Node000003_Node000004"><a xlink:title=" ">
<path fill="none" stroke="#63b8ff" d="M244.29,-115.37C249.62,-117.69 254.76,-120.53 259.25,-124 282.97,-142.31 271.28,-163.02 295.25,-181 297.55,-182.73 300.01,-184.3 302.57,-185.73"/>
<polygon fill="#63b8ff" stroke="#63b8ff" points="300.94,-188.83 311.48,-189.91 303.92,-182.49 300.94,-188.83"/>
</a>
</g>
</g>
<!-- Node7 -->
<g id="Node000007" class="node">
<title>Node7</title>
<g id="a_Node000007"><a xlink:href="namespaceduvc.html#ab7299b8597bf14b18b8351278c209188" target="_top" xlink:title="Create DirectShow device enumerator.">
<polygon fill="white" stroke="#666666" points="422.62,-172 302.38,-172 302.38,-152 422.62,-152 422.62,-172"/>
<text xml:space="preserve" text-anchor="middle" x="362.5" y="-158.5" font-family="Helvetica,sans-Serif" font-size="10.00">duvc::create_dev_enum</text>
</a>
</g>
</g>
<!-- Node3&#45;&gt;Node7 -->
<g id="edge6_Node000003_Node000007" class="edge">
<title>Node3&#45;&gt;Node7</title>
<g id="a_edge6_Node000003_Node000007"><a xlink:title=" ">
<path fill="none" stroke="#63b8ff" d="M235.85,-115.43C243.66,-117.98 251.81,-120.88 259.25,-124 275.94,-130.99 278.47,-136.25 295.25,-143 299.81,-144.83 304.61,-146.57 309.45,-148.19"/>
<polygon fill="#63b8ff" stroke="#63b8ff" points="308.03,-151.41 318.62,-151.08 310.14,-144.73 308.03,-151.41"/>
</a>
</g>
</g>
<!-- Node8 -->
<g id="Node000008" class="node">
<title>Node8</title>
<g id="a_Node000008"><a xlink:href="namespaceduvc.html#a1a577c6cd7e4b3106d6f95c15bbceeed" target="_top" xlink:title="Enumerate video input devices.">
<polygon fill="white" stroke="#666666" points="429.75,-134 295.25,-134 295.25,-114 429.75,-114 429.75,-134"/>
<text xml:space="preserve" text-anchor="middle" x="362.5" y="-120.5" font-family="Helvetica,sans-Serif" font-size="10.00">duvc::enum_video_devices</text>
</a>
</g>
</g>
<!-- Node3&#45;&gt;Node8 -->
<g id="edge8_Node000003_Node000008" class="edge">
<title>Node3&#45;&gt;Node8</title>
<g id="a_edge8_Node000003_Node000008"><a xlink:title=" ">
<path fill="none" stroke="#63b8ff" d="M259.74,-112.07C267.52,-112.99 275.56,-113.93 283.56,-114.87"/>
<polygon fill="#63b8ff" stroke="#63b8ff" points="282.97,-118.32 293.31,-116.01 283.79,-111.37 282.97,-118.32"/>
</a>
</g>
</g>
<!-- Node9 -->
<g id="Node000009" class="node">
<title>Node9</title>
<g id="a_Node000009"><a xlink:href="namespaceduvc.html#a16607a28a7df86e823edf3abd371af92" target="_top" xlink:title="Check if two device identifiers refer to same device.">
<polygon fill="white" stroke="#666666" points="419.25,-96 305.75,-96 305.75,-76 419.25,-76 419.25,-96"/>
<text xml:space="preserve" text-anchor="middle" x="362.5" y="-82.5" font-family="Helvetica,sans-Serif" font-size="10.00">duvc::is_same_device</text>
</a>
</g>
</g>
<!-- Node3&#45;&gt;Node9 -->
<g id="edge10_Node000003_Node000009" class="edge">
<title>Node3&#45;&gt;Node9</title>
<g id="a_edge10_Node000003_Node000009"><a xlink:title=" ">
<path fill="none" stroke="#63b8ff" d="M259.74,-97.93C270.95,-96.61 282.73,-95.23 294.13,-93.9"/>
<polygon fill="#63b8ff" stroke="#63b8ff" points="294.34,-97.39 303.87,-92.75 293.53,-90.44 294.34,-97.39"/>
</a>
</g>
</g>
<!-- Node10 -->
<g id="Node000010" class="node">
<title>Node10</title>
<g id="a_Node000010"><a xlink:href="namespaceduvc.html#a2c2b6f32c6871ad36ae0bf98d9374fd0" target="_top" xlink:title="Read device path from moniker.">
<polygon fill="white" stroke="#666666" points="422.25,-58 302.75,-58 302.75,-38 422.25,-38 422.25,-58"/>
<text xml:space="preserve" text-anchor="middle" x="362.5" y="-44.5" font-family="Helvetica,sans-Serif" font-size="10.00">duvc::read_device_path</text>
</a>
</g>
</g>
<!-- Node3&#45;&gt;Node10 -->
<g id="edge11_Node000003_Node000010" class="edge">
<title>Node3&#45;&gt;Node10</title>
<g id="a_edge11_Node000003_Node000010"><a xlink:title=" ">
<path fill="none" stroke="#63b8ff" d="M223.56,-94.65C242.8,-86.6 270.51,-75.43 295.25,-67 300.63,-65.17 306.3,-63.36 311.96,-61.63"/>
<polygon fill="#63b8ff" stroke="#63b8ff" points="312.73,-65.05 321.32,-58.85 310.73,-58.34 312.73,-65.05"/>
</a>
</g>
</g>
<!-- Node12 -->
<g id="Node000012" class="node">
<title>Node12</title>
<g id="a_Node000012"><a xlink:href="namespaceduvc.html#a019644436e5f0add38b6242843b79fef" target="_top" xlink:title="Read friendly name from device moniker.">
<polygon fill="white" stroke="#666666" points="426.38,-20 298.62,-20 298.62,0 426.38,0 426.38,-20"/>
<text xml:space="preserve" text-anchor="middle" x="362.5" y="-6.5" font-family="Helvetica,sans-Serif" font-size="10.00">duvc::read_friendly_name</text>
</a>
</g>
</g>
<!-- Node3&#45;&gt;Node12 -->
<g id="edge13_Node000003_Node000012" class="edge">
<title>Node3&#45;&gt;Node12</title>
<g id="a_edge13_Node000003_Node000012"><a xlink:title=" ">
<path fill="none" stroke="#63b8ff" d="M209.61,-94.59C226.17,-78.31 260.49,-46.87 295.25,-29 298.5,-27.33 301.91,-25.79 305.4,-24.37"/>
<polygon fill="#63b8ff" stroke="#63b8ff" points="306.44,-27.72 314.62,-20.99 304.03,-21.15 306.44,-27.72"/>
</a>
</g>
</g>
<!-- Node5 -->
<g id="Node000005" class="node">
<title>Node5</title>
<g id="a_Node000005"><a xlink:href="namespaceduvc.html#a21b444574354018097d4489a9ff0ff9e" target="_top" xlink:title=" ">
<polygon fill="white" stroke="#666666" points="559.75,-172 479.25,-172 479.25,-152 559.75,-152 559.75,-172"/>
<text xml:space="preserve" text-anchor="middle" x="519.5" y="-158.5" font-family="Helvetica,sans-Serif" font-size="10.00">duvc::throw_hr</text>
</a>
</g>
</g>
<!-- Node4&#45;&gt;Node5 -->
<g id="edge4_Node000004_Node000005" class="edge">
<title>Node4&#45;&gt;Node5</title>
<g id="a_edge4_Node000004_Node000005"><a xlink:title=" ">
<path fill="none" stroke="#63b8ff" d="M406.26,-189.52C425.3,-184.85 447.87,-179.32 467.76,-174.44"/>
<polygon fill="#63b8ff" stroke="#63b8ff" points="468.45,-177.87 477.33,-172.09 466.78,-171.08 468.45,-177.87"/>
</a>
</g>
</g>
<!-- Node6 -->
<g id="Node000006" class="node">
<title>Node6</title>
<g id="a_Node000006"><a xlink:href="namespaceduvc.html#a02d5c5b2e56515cee2cad9057af0467d" target="_top" xlink:title=" ">
<polygon fill="white" stroke="#666666" points="707.75,-172 609.25,-172 609.25,-152 707.75,-152 707.75,-172"/>
<text xml:space="preserve" text-anchor="middle" x="658.5" y="-158.5" font-family="Helvetica,sans-Serif" font-size="10.00">duvc::wide_to_utf8</text>
</a>
</g>
</g>
<!-- Node5&#45;&gt;Node6 -->
<g id="edge5_Node000005_Node000006" class="edge">
<title>Node5&#45;&gt;Node6</title>
<g id="a_edge5_Node000005_Node000006"><a xlink:title=" ">
<path fill="none" stroke="#63b8ff" d="M560.13,-162C571.86,-162 584.99,-162 597.7,-162"/>
<polygon fill="#63b8ff" stroke="#63b8ff" points="597.7,-165.5 607.7,-162 597.7,-158.5 597.7,-165.5"/>
</a>
</g>
</g>
<!-- Node7&#45;&gt;Node5 -->
<g id="edge7_Node000007_Node000005" class="edge">
<title>Node7&#45;&gt;Node5</title>
<g id="a_edge7_Node000007_Node000005"><a xlink:title=" ">
<path fill="none" stroke="#63b8ff" d="M422.98,-162C437.8,-162 453.55,-162 467.9,-162"/>
<polygon fill="#63b8ff" stroke="#63b8ff" points="467.55,-165.5 477.55,-162 467.55,-158.5 467.55,-165.5"/>
</a>
</g>
</g>
<!-- Node8&#45;&gt;Node5 -->
<g id="edge9_Node000008_Node000005" class="edge">
<title>Node8&#45;&gt;Node5</title>
<g id="a_edge9_Node000008_Node000005"><a xlink:title=" ">
<path fill="none" stroke="#63b8ff" d="M406.26,-134.48C425.3,-139.15 447.87,-144.68 467.76,-149.56"/>
<polygon fill="#63b8ff" stroke="#63b8ff" points="466.78,-152.92 477.33,-151.91 468.45,-146.13 466.78,-152.92"/>
</a>
</g>
</g>
<!-- Node11 -->
<g id="Node000011" class="node">
<title>Node11</title>
<g id="a_Node000011"><a xlink:href="namespaceduvc.html#a0dbd37821c1cae29fa72d44e3dbd0583" target="_top" xlink:title=" ">
<polygon fill="white" stroke="#666666" points="573.25,-39 465.75,-39 465.75,-19 573.25,-19 573.25,-39"/>
<text xml:space="preserve" text-anchor="middle" x="519.5" y="-25.5" font-family="Helvetica,sans-Serif" font-size="10.00">duvc::read_prop_bstr</text>
</a>
</g>
</g>
<!-- Node10&#45;&gt;Node11 -->
<g id="edge12_Node000010_Node000011" class="edge">
<title>Node10&#45;&gt;Node11</title>
<g id="a_edge12_Node000010_Node000011"><a xlink:title=" ">
<path fill="none" stroke="#63b8ff" d="M422.54,-40.76C432.91,-39.49 443.74,-38.16 454.24,-36.88"/>
<polygon fill="#63b8ff" stroke="#63b8ff" points="454.46,-40.38 463.96,-35.68 453.61,-33.43 454.46,-40.38"/>
</a>
</g>
</g>
<!-- Node12&#45;&gt;Node11 -->
<g id="edge14_Node000012_Node000011" class="edge">
<title>Node12&#45;&gt;Node11</title>
<g id="a_edge14_Node000012_Node000011"><a xlink:title=" ">
<path fill="none" stroke="#63b8ff" d="M426.54,-17.73C435.62,-18.84 444.97,-19.99 454.07,-21.1"/>
<polygon fill="#63b8ff" stroke="#63b8ff" points="453.57,-24.57 463.93,-22.31 454.43,-17.62 453.57,-24.57"/>
</a>
</g>
</g>
</g>
</svg>
