<?xml version="1.0" encoding="UTF-8" standalone="no"?>
<!DOCTYPE svg PUBLIC "-//W3C//DTD SVG 1.1//EN"
 "http://www.w3.org/Graphics/SVG/1.1/DTD/svg11.dtd">
<!-- Generated by graphviz version 14.0.2 (20251019.1705)
 -->
<!-- Title: duvc::decode_hresult Pages: 1 -->
<svg width="423pt" height="216pt"
 viewBox="0.00 0.00 423.00 216.00" xmlns="http://www.w3.org/2000/svg" xmlns:xlink="http://www.w3.org/1999/xlink">

<svg id="main" version="1.1" xmlns="http://www.w3.org/2000/svg" xmlns:xlink="http://www.w3.org/1999/xlink" xml:space="preserve" onload="init(evt)">
<style type="text/css"><![CDATA[
.node, .edge {opacity: 0.7;}
.node.selected, .edge.selected {opacity: 1;}
.edge:hover path { stroke: red; }
.edge:hover polygon { stroke: red; fill: red; }
]]></style>
<script type="application/ecmascript" xlink:href="svg.min.js"/>
<svg id="graph" class="graph">
<g id="graph0" class="graph" transform="scale(1 1) rotate(0) translate(4 212)">
<title>duvc::decode_hresult</title>
<!-- Node1 -->
<g id="Node000001" class="node">
<title>Node1</title>
<g id="a_Node000001"><a xlink:title="Decode HRESULT to human&#45;readable string.">
<polygon fill="#999999" stroke="#666666" points="414.75,-126 305.75,-126 305.75,-106 414.75,-106 414.75,-126"/>
<text xml:space="preserve" text-anchor="middle" x="360.25" y="-112.5" font-family="Helvetica,sans-Serif" font-size="10.00">duvc::decode_hresult</text>
</a>
</g>
</g>
<!-- Node2 -->
<g id="Node000002" class="node">
<title>Node2</title>
<g id="a_Node000002"><a xlink:href="namespaceduvc.html#a604f5ad9649c2fa6d6edc5d9d147abcf" target="_top" xlink:title="Get diagnostic information for troubleshooting.">
<polygon fill="white" stroke="#666666" points="269.75,-208 142.75,-208 142.75,-188 269.75,-188 269.75,-208"/>
<text xml:space="preserve" text-anchor="middle" x="206.25" y="-194.5" font-family="Helvetica,sans-Serif" font-size="10.00">duvc::get_diagnostic_info</text>
</a>
</g>
</g>
<!-- Node1&#45;&gt;Node2 -->
<g id="edge1_Node000001_Node000002" class="edge">
<title>Node1&#45;&gt;Node2</title>
<g id="a_edge1_Node000001_Node000002"><a xlink:title=" ">
<path fill="none" stroke="#63b8ff" d="M338.57,-133.45C321.16,-147.4 295.11,-166.62 269.75,-179 263.02,-182.28 255.61,-185.14 248.31,-187.56"/>
<polygon fill="#63b8ff" stroke="#63b8ff" points="340.6,-136.31 346.12,-127.27 336.17,-130.89 340.6,-136.31"/>
</a>
</g>
</g>
<!-- Node3 -->
<g id="Node000003" class="node">
<title>Node3</title>
<g id="a_Node000003"><a xlink:href="namespaceduvc.html#a4bab49b846ca4cd2b2fca893f2192b3a" target="_top" xlink:title="Get detailed HRESULT information.">
<polygon fill="white" stroke="#666666" points="268.62,-170 143.88,-170 143.88,-150 268.62,-150 268.62,-170"/>
<text xml:space="preserve" text-anchor="middle" x="206.25" y="-156.5" font-family="Helvetica,sans-Serif" font-size="10.00">duvc::get_hresult_details</text>
</a>
</g>
</g>
<!-- Node1&#45;&gt;Node3 -->
<g id="edge2_Node000001_Node000003" class="edge">
<title>Node1&#45;&gt;Node3</title>
<g id="a_edge2_Node000001_Node000003"><a xlink:title=" ">
<path fill="none" stroke="#63b8ff" d="M312.33,-129.58C290.09,-136.02 263.93,-143.59 243.28,-149.57"/>
<polygon fill="#63b8ff" stroke="#63b8ff" points="313.14,-132.99 321.77,-126.85 311.2,-126.27 313.14,-132.99"/>
</a>
</g>
</g>
<!-- Node4 -->
<g id="Node000004" class="node">
<title>Node4</title>
<g id="a_Node000004"><a xlink:href="classduvc_1_1KsPropertySet.html#a8c1795034a9f6851db82a1232cd897eb" target="_top" xlink:title="Get property data.">
<polygon fill="white" stroke="#666666" points="259.62,-132 152.88,-132 152.88,-100 259.62,-100 259.62,-132"/>
<text xml:space="preserve" text-anchor="start" x="160.88" y="-118.5" font-family="Helvetica,sans-Serif" font-size="10.00">duvc::KsPropertySet</text>
<text xml:space="preserve" text-anchor="middle" x="206.25" y="-106.5" font-family="Helvetica,sans-Serif" font-size="10.00">::get_property</text>
</a>
</g>
</g>
<!-- Node1&#45;&gt;Node4 -->
<g id="edge3_Node000001_Node000004" class="edge">
<title>Node1&#45;&gt;Node4</title>
<g id="a_edge3_Node000001_Node000004"><a xlink:title=" ">
<path fill="none" stroke="#63b8ff" d="M294.38,-116C282.94,-116 271.16,-116 260.1,-116"/>
<polygon fill="#63b8ff" stroke="#63b8ff" points="294.15,-119.5 304.15,-116 294.15,-112.5 294.15,-119.5"/>
</a>
</g>
</g>
<!-- Node6 -->
<g id="Node000006" class="node">
<title>Node6</title>
<g id="a_Node000006"><a xlink:href="classduvc_1_1KsPropertySet.html#a251aad5cfe01da2b5e380d4697a94f2e" target="_top" xlink:title="Query property support.">
<polygon fill="white" stroke="#666666" points="259.62,-82 152.88,-82 152.88,-50 259.62,-50 259.62,-82"/>
<text xml:space="preserve" text-anchor="start" x="160.88" y="-68.5" font-family="Helvetica,sans-Serif" font-size="10.00">duvc::KsPropertySet</text>
<text xml:space="preserve" text-anchor="middle" x="206.25" y="-56.5" font-family="Helvetica,sans-Serif" font-size="10.00">::query_support</text>
</a>
</g>
</g>
<!-- Node1&#45;&gt;Node6 -->
<g id="edge5_Node000001_Node000006" class="edge">
<title>Node1&#45;&gt;Node6</title>
<g id="a_edge5_Node000001_Node000006"><a xlink:title=" ">
<path fill="none" stroke="#63b8ff" d="M316.67,-101.99C298.23,-95.93 276.52,-88.79 257.32,-82.47"/>
<polygon fill="#63b8ff" stroke="#63b8ff" points="315.36,-105.25 325.95,-105.05 317.54,-98.6 315.36,-105.25"/>
</a>
</g>
</g>
<!-- Node7 -->
<g id="Node000007" class="node">
<title>Node7</title>
<g id="a_Node000007"><a xlink:href="classduvc_1_1KsPropertySet.html#a33fa8fc7b6530e4c1c97d5b3bc8053b7" target="_top" xlink:title="Set property data.">
<polygon fill="white" stroke="#666666" points="259.62,-32 152.88,-32 152.88,0 259.62,0 259.62,-32"/>
<text xml:space="preserve" text-anchor="start" x="160.88" y="-18.5" font-family="Helvetica,sans-Serif" font-size="10.00">duvc::KsPropertySet</text>
<text xml:space="preserve" text-anchor="middle" x="206.25" y="-6.5" font-family="Helvetica,sans-Serif" font-size="10.00">::set_property</text>
</a>
</g>
</g>
<!-- Node1&#45;&gt;Node7 -->
<g id="edge6_Node000001_Node000007" class="edge">
<title>Node1&#45;&gt;Node7</title>
<g id="a_edge6_Node000001_Node000007"><a xlink:title=" ">
<path fill="none" stroke="#63b8ff" d="M341.04,-97.72C323.83,-81.22 296.71,-57.13 269.75,-41 264.53,-37.88 258.86,-35 253.13,-32.38"/>
<polygon fill="#63b8ff" stroke="#63b8ff" points="338.39,-100.03 347.99,-104.51 343.29,-95.02 338.39,-100.03"/>
</a>
</g>
</g>
<!-- Node5 -->
<g id="Node000005" class="node">
<title>Node5</title>
<g id="a_Node000005"><a xlink:href="classduvc_1_1KsPropertySet.html#a21e491235b83bacb4fd55e96d2b603f6" target="_top" xlink:title="Get typed property value.">
<polygon fill="white" stroke="#666666" points="106.75,-132 0,-132 0,-100 106.75,-100 106.75,-132"/>
<text xml:space="preserve" text-anchor="start" x="8" y="-118.5" font-family="Helvetica,sans-Serif" font-size="10.00">duvc::KsPropertySet</text>
<text xml:space="preserve" text-anchor="middle" x="53.38" y="-106.5" font-family="Helvetica,sans-Serif" font-size="10.00">::get_property_typed</text>
</a>
</g>
</g>
<!-- Node4&#45;&gt;Node5 -->
<g id="edge4_Node000004_Node000005" class="edge">
<title>Node4&#45;&gt;Node5</title>
<g id="a_edge4_Node000004_Node000005"><a xlink:title=" ">
<path fill="none" stroke="#63b8ff" d="M141.26,-116C129.88,-116 118.14,-116 107.11,-116"/>
<polygon fill="#63b8ff" stroke="#63b8ff" points="140.97,-119.5 150.97,-116 140.97,-112.5 140.97,-119.5"/>
</a>
</g>
</g>
<!-- Node8 -->
<g id="Node000008" class="node">
<title>Node8</title>
<g id="a_Node000008"><a xlink:href="classduvc_1_1KsPropertySet.html#a2a59e63375e5b5f0fb37d39e3aa5b30c" target="_top" xlink:title="Set typed property value.">
<polygon fill="white" stroke="#666666" points="106.75,-32 0,-32 0,0 106.75,0 106.75,-32"/>
<text xml:space="preserve" text-anchor="start" x="8" y="-18.5" font-family="Helvetica,sans-Serif" font-size="10.00">duvc::KsPropertySet</text>
<text xml:space="preserve" text-anchor="middle" x="53.38" y="-6.5" font-family="Helvetica,sans-Serif" font-size="10.00">::set_property_typed</text>
</a>
</g>
</g>
<!-- Node7&#45;&gt;Node8 -->
<g id="edge7_Node000007_Node000008" class="edge">
<title>Node7&#45;&gt;Node8</title>
<g id="a_edge7_Node000007_Node000008"><a xlink:title=" ">
<path fill="none" stroke="#63b8ff" d="M141.26,-16C129.88,-16 118.14,-16 107.11,-16"/>
<polygon fill="#63b8ff" stroke="#63b8ff" points="140.97,-19.5 150.97,-16 140.97,-12.5 140.97,-19.5"/>
</a>
</g>
</g>
</g>
</svg>
</svg>

<style type='text/css'>
<![CDATA[
[data-mouse-over-selected='false'] { opacity: 0.7; }
[data-mouse-over-selected='true']  { opacity: 1.0; }
]]>
</style>
<script type="application/ecmascript"><![CDATA[
document.addEventListener('DOMContentLoaded', (event) => {
  highlightEdges();
  highlightAdjacentNodes();
});
]]></script>
</svg>
