<?xml version="1.0" encoding="UTF-8" standalone="no"?>
<!DOCTYPE svg PUBLIC "-//W3C//DTD SVG 1.1//EN"
 "http://www.w3.org/Graphics/SVG/1.1/DTD/svg11.dtd">
<!-- Generated by graphviz version 14.0.2 (20251019.1705)
 -->
<!-- Title: duvc::get_timestamp Pages: 1 -->
<svg width="686pt" height="294pt"
 viewBox="0.00 0.00 686.00 294.00" xmlns="http://www.w3.org/2000/svg" xmlns:xlink="http://www.w3.org/1999/xlink">
<g id="graph0" class="graph" transform="scale(1 1) rotate(0) translate(4 290)">
<title>duvc::get_timestamp</title>
<!-- Node1 -->
<g id="Node000001" class="node">
<title>Node1</title>
<g id="a_Node000001"><a xlink:title="Get current timestamp as string.">
<polygon fill="#999999" stroke="#666666" points="677.75,-115 570.25,-115 570.25,-95 677.75,-95 677.75,-115"/>
<text xml:space="preserve" text-anchor="middle" x="624" y="-101.5" font-family="Helvetica,sans-Serif" font-size="10.00">duvc::get_timestamp</text>
</a>
</g>
</g>
<!-- Node2 -->
<g id="Node000002" class="node">
<title>Node2</title>
<g id="a_Node000002"><a xlink:href="namespaceduvc.html#ababd2cbe9f996df9fb02141b96f1a0da" target="_top" xlink:title="Default logging callback that writes to stderr.">
<polygon fill="white" stroke="#666666" points="534.25,-115 402.75,-115 402.75,-95 534.25,-95 534.25,-115"/>
<text xml:space="preserve" text-anchor="middle" x="468.5" y="-101.5" font-family="Helvetica,sans-Serif" font-size="10.00">duvc::default_log_callback</text>
</a>
</g>
</g>
<!-- Node1&#45;&gt;Node2 -->
<g id="edge1_Node000001_Node000002" class="edge">
<title>Node1&#45;&gt;Node2</title>
<g id="a_edge1_Node000001_Node000002"><a xlink:title=" ">
<path fill="none" stroke="#63b8ff" d="M558.69,-105C550.74,-105 542.6,-105 534.63,-105"/>
<polygon fill="#63b8ff" stroke="#63b8ff" points="558.66,-108.5 568.66,-105 558.66,-101.5 558.66,-108.5"/>
</a>
</g>
</g>
<!-- Node3 -->
<g id="Node000003" class="node">
<title>Node3</title>
<g id="a_Node000003"><a xlink:href="namespaceduvc.html#a92c11bbcc4c659a542bd48d477f60876" target="_top" xlink:title="Log a message.">
<polygon fill="white" stroke="#666666" points="366.75,-115 266,-115 266,-95 366.75,-95 366.75,-115"/>
<text xml:space="preserve" text-anchor="middle" x="316.38" y="-101.5" font-family="Helvetica,sans-Serif" font-size="10.00">duvc::log_message</text>
</a>
</g>
</g>
<!-- Node2&#45;&gt;Node3 -->
<g id="edge2_Node000002_Node000003" class="edge">
<title>Node2&#45;&gt;Node3</title>
<g id="a_edge2_Node000002_Node000003"><a xlink:title=" ">
<path fill="none" stroke="#63b8ff" d="M391.04,-105C382.89,-105 374.77,-105 367.06,-105"/>
<polygon fill="#63b8ff" stroke="#63b8ff" points="391.01,-108.5 401.01,-105 391.01,-101.5 391.01,-108.5"/>
</a>
</g>
</g>
<!-- Node4 -->
<g id="Node000004" class="node">
<title>Node4</title>
<g id="a_Node000004"><a xlink:href="api_8cpp.html#a663fa0c39548b58bcdeb34c0dd5210fa" target="_top" xlink:title="Log message at specific level.">
<polygon fill="white" stroke="#666666" points="230,-210 130,-210 130,-190 230,-190 230,-210"/>
<text xml:space="preserve" text-anchor="middle" x="180" y="-196.5" font-family="Helvetica,sans-Serif" font-size="10.00">duvc_log_message</text>
</a>
</g>
</g>
<!-- Node3&#45;&gt;Node4 -->
<g id="edge3_Node000003_Node000004" class="edge">
<title>Node3&#45;&gt;Node4</title>
<g id="a_edge3_Node000003_Node000004"><a xlink:title=" ">
<path fill="none" stroke="#63b8ff" d="M298.51,-123.39C282.28,-140.22 256.39,-164.87 230,-181 224.71,-184.24 218.77,-187.09 212.9,-189.54"/>
<polygon fill="#63b8ff" stroke="#63b8ff" points="300.7,-126.17 305.03,-116.5 295.62,-121.36 300.7,-126.17"/>
</a>
</g>
</g>
<!-- Node10 -->
<g id="Node000010" class="node">
<title>Node10</title>
<g id="a_Node000010"><a xlink:href="namespaceduvc.html#ac5d8f544093e30b59e63a5d25bd0367c" target="_top" xlink:title="Log critical message.">
<polygon fill="white" stroke="#666666" points="224.75,-172 135.25,-172 135.25,-152 224.75,-152 224.75,-172"/>
<text xml:space="preserve" text-anchor="middle" x="180" y="-158.5" font-family="Helvetica,sans-Serif" font-size="10.00">duvc::log_critical</text>
</a>
</g>
</g>
<!-- Node3&#45;&gt;Node10 -->
<g id="edge9_Node000003_Node000010" class="edge">
<title>Node3&#45;&gt;Node10</title>
<g id="a_edge9_Node000003_Node000010"><a xlink:title=" ">
<path fill="none" stroke="#63b8ff" d="M282.37,-120.14C266.6,-127.26 247.4,-135.76 230,-143 223.09,-145.87 215.58,-148.86 208.57,-151.58"/>
<polygon fill="#63b8ff" stroke="#63b8ff" points="283.64,-123.41 291.3,-116.09 280.75,-117.03 283.64,-123.41"/>
</a>
</g>
</g>
<!-- Node11 -->
<g id="Node000011" class="node">
<title>Node11</title>
<g id="a_Node000011"><a xlink:href="namespaceduvc.html#a47cac7feb74ff2f865d074b6cfb463f1" target="_top" xlink:title="Log debug message.">
<polygon fill="white" stroke="#666666" points="223.62,-134 136.38,-134 136.38,-114 223.62,-114 223.62,-134"/>
<text xml:space="preserve" text-anchor="middle" x="180" y="-120.5" font-family="Helvetica,sans-Serif" font-size="10.00">duvc::log_debug</text>
</a>
</g>
</g>
<!-- Node3&#45;&gt;Node11 -->
<g id="edge10_Node000003_Node000011" class="edge">
<title>Node3&#45;&gt;Node11</title>
<g id="a_edge10_Node000003_Node000011"><a xlink:title=" ">
<path fill="none" stroke="#63b8ff" d="M254.58,-113.6C244.2,-115.06 233.61,-116.56 223.82,-117.95"/>
<polygon fill="#63b8ff" stroke="#63b8ff" points="254.81,-117.1 264.22,-112.23 253.83,-110.17 254.81,-117.1"/>
</a>
</g>
</g>
<!-- Node12 -->
<g id="Node000012" class="node">
<title>Node12</title>
<g id="a_Node000012"><a xlink:href="namespaceduvc.html#a6d8fe15d04c800f69816c89557ca25d5" target="_top" xlink:title="Log error message.">
<polygon fill="white" stroke="#666666" points="220.25,-96 139.75,-96 139.75,-76 220.25,-76 220.25,-96"/>
<text xml:space="preserve" text-anchor="middle" x="180" y="-82.5" font-family="Helvetica,sans-Serif" font-size="10.00">duvc::log_error</text>
</a>
</g>
</g>
<!-- Node3&#45;&gt;Node12 -->
<g id="edge11_Node000003_Node000012" class="edge">
<title>Node3&#45;&gt;Node12</title>
<g id="a_edge11_Node000003_Node000012"><a xlink:title=" ">
<path fill="none" stroke="#63b8ff" d="M254.32,-96.37C242.79,-94.74 231.02,-93.07 220.38,-91.57"/>
<polygon fill="#63b8ff" stroke="#63b8ff" points="253.83,-99.83 264.22,-97.77 254.81,-92.9 253.83,-99.83"/>
</a>
</g>
</g>
<!-- Node13 -->
<g id="Node000013" class="node">
<title>Node13</title>
<g id="a_Node000013"><a xlink:href="namespaceduvc.html#a03a6e81316de0517ea31cd6dcca560d4" target="_top" xlink:title="Log info message.">
<polygon fill="white" stroke="#666666" points="218.38,-58 141.62,-58 141.62,-38 218.38,-38 218.38,-58"/>
<text xml:space="preserve" text-anchor="middle" x="180" y="-44.5" font-family="Helvetica,sans-Serif" font-size="10.00">duvc::log_info</text>
</a>
</g>
</g>
<!-- Node3&#45;&gt;Node13 -->
<g id="edge12_Node000003_Node000013" class="edge">
<title>Node3&#45;&gt;Node13</title>
<g id="a_edge12_Node000003_Node000013"><a xlink:title=" ">
<path fill="none" stroke="#63b8ff" d="M282.37,-89.86C266.6,-82.74 247.4,-74.24 230,-67 223.09,-64.13 215.58,-61.14 208.57,-58.42"/>
<polygon fill="#63b8ff" stroke="#63b8ff" points="280.75,-92.97 291.3,-93.91 283.64,-86.59 280.75,-92.97"/>
</a>
</g>
</g>
<!-- Node15 -->
<g id="Node000015" class="node">
<title>Node15</title>
<g id="a_Node000015"><a xlink:href="namespaceduvc.html#a9de34d5fa98fc93f94e593e4b07cca6e" target="_top" xlink:title="Log warning message.">
<polygon fill="white" stroke="#666666" points="227.38,-20 132.62,-20 132.62,0 227.38,0 227.38,-20"/>
<text xml:space="preserve" text-anchor="middle" x="180" y="-6.5" font-family="Helvetica,sans-Serif" font-size="10.00">duvc::log_warning</text>
</a>
</g>
</g>
<!-- Node3&#45;&gt;Node15 -->
<g id="edge14_Node000003_Node000015" class="edge">
<title>Node3&#45;&gt;Node15</title>
<g id="a_edge14_Node000003_Node000015"><a xlink:title=" ">
<path fill="none" stroke="#63b8ff" d="M298.51,-86.61C282.28,-69.78 256.39,-45.13 230,-29 224.71,-25.76 218.77,-22.91 212.9,-20.46"/>
<polygon fill="#63b8ff" stroke="#63b8ff" points="295.62,-88.64 305.03,-93.5 300.7,-83.83 295.62,-88.64"/>
</a>
</g>
</g>
<!-- Node5 -->
<g id="Node000005" class="node">
<title>Node5</title>
<g id="a_Node000005"><a xlink:href="api_8cpp.html#ad59f4c0cac89a553a88e826f63aad25e" target="_top" xlink:title="Log critical message.">
<polygon fill="white" stroke="#666666" points="91.38,-286 2.63,-286 2.63,-266 91.38,-266 91.38,-286"/>
<text xml:space="preserve" text-anchor="middle" x="47" y="-272.5" font-family="Helvetica,sans-Serif" font-size="10.00">duvc_log_critical</text>
</a>
</g>
</g>
<!-- Node4&#45;&gt;Node5 -->
<g id="edge4_Node000004_Node000005" class="edge">
<title>Node4&#45;&gt;Node5</title>
<g id="a_edge4_Node000004_Node000005"><a xlink:title=" ">
<path fill="none" stroke="#63b8ff" d="M156.42,-216.95C139.72,-229.03 116.13,-245.16 94,-257 88.21,-260.1 81.8,-263.03 75.66,-265.62"/>
<polygon fill="#63b8ff" stroke="#63b8ff" points="158.18,-220 164.18,-211.26 154.04,-214.36 158.18,-220"/>
</a>
</g>
</g>
<!-- Node6 -->
<g id="Node000006" class="node">
<title>Node6</title>
<g id="a_Node000006"><a xlink:href="api_8cpp.html#a8eb2a7c27c88acb2ad87386c3d703493" target="_top" xlink:title="Log debug message.">
<polygon fill="white" stroke="#666666" points="90.25,-248 3.75,-248 3.75,-228 90.25,-228 90.25,-248"/>
<text xml:space="preserve" text-anchor="middle" x="47" y="-234.5" font-family="Helvetica,sans-Serif" font-size="10.00">duvc_log_debug</text>
</a>
</g>
</g>
<!-- Node4&#45;&gt;Node6 -->
<g id="edge5_Node000004_Node000006" class="edge">
<title>Node4&#45;&gt;Node6</title>
<g id="a_edge5_Node000004_Node000006"><a xlink:title=" ">
<path fill="none" stroke="#63b8ff" d="M132.19,-213.58C116.34,-218.18 98.9,-223.23 84.03,-227.55"/>
<polygon fill="#63b8ff" stroke="#63b8ff" points="132.77,-217.05 141.4,-210.91 130.82,-210.33 132.77,-217.05"/>
</a>
</g>
</g>
<!-- Node7 -->
<g id="Node000007" class="node">
<title>Node7</title>
<g id="a_Node000007"><a xlink:href="api_8cpp.html#a55a558025dd21137648e66f746bf1863" target="_top" xlink:title="Log error message.">
<polygon fill="white" stroke="#666666" points="86.88,-210 7.13,-210 7.13,-190 86.88,-190 86.88,-210"/>
<text xml:space="preserve" text-anchor="middle" x="47" y="-196.5" font-family="Helvetica,sans-Serif" font-size="10.00">duvc_log_error</text>
</a>
</g>
</g>
<!-- Node4&#45;&gt;Node7 -->
<g id="edge6_Node000004_Node000007" class="edge">
<title>Node4&#45;&gt;Node7</title>
<g id="a_edge6_Node000004_Node000007"><a xlink:title=" ">
<path fill="none" stroke="#63b8ff" d="M118.45,-200C107.83,-200 97.04,-200 87.2,-200"/>
<polygon fill="#63b8ff" stroke="#63b8ff" points="118.33,-203.5 128.33,-200 118.33,-196.5 118.33,-203.5"/>
</a>
</g>
</g>
<!-- Node8 -->
<g id="Node000008" class="node">
<title>Node8</title>
<g id="a_Node000008"><a xlink:href="api_8cpp.html#a69eb1c2eff849b8249b84ed3c7e820a1" target="_top" xlink:title="Log info message.">
<polygon fill="white" stroke="#666666" points="85,-172 9,-172 9,-152 85,-152 85,-172"/>
<text xml:space="preserve" text-anchor="middle" x="47" y="-158.5" font-family="Helvetica,sans-Serif" font-size="10.00">duvc_log_info</text>
</a>
</g>
</g>
<!-- Node4&#45;&gt;Node8 -->
<g id="edge7_Node000004_Node000008" class="edge">
<title>Node4&#45;&gt;Node8</title>
<g id="a_edge7_Node000004_Node000008"><a xlink:title=" ">
<path fill="none" stroke="#63b8ff" d="M132.19,-186.42C116.34,-181.82 98.9,-176.77 84.03,-172.45"/>
<polygon fill="#63b8ff" stroke="#63b8ff" points="130.82,-189.67 141.4,-189.09 132.77,-182.95 130.82,-189.67"/>
</a>
</g>
</g>
<!-- Node9 -->
<g id="Node000009" class="node">
<title>Node9</title>
<g id="a_Node000009"><a xlink:href="api_8cpp.html#ac25cfc7d64eaa972aabc2040a2be8c14" target="_top" xlink:title="Log warning message.">
<polygon fill="white" stroke="#666666" points="94,-134 0,-134 0,-114 94,-114 94,-134"/>
<text xml:space="preserve" text-anchor="middle" x="47" y="-120.5" font-family="Helvetica,sans-Serif" font-size="10.00">duvc_log_warning</text>
</a>
</g>
</g>
<!-- Node4&#45;&gt;Node9 -->
<g id="edge8_Node000004_Node000009" class="edge">
<title>Node4&#45;&gt;Node9</title>
<g id="a_edge8_Node000004_Node000009"><a xlink:title=" ">
<path fill="none" stroke="#63b8ff" d="M135.78,-184.53C133.79,-183.42 131.85,-182.24 130,-181 110.68,-168.03 113.17,-156.18 94,-143 89.16,-139.67 83.64,-136.77 78.15,-134.31"/>
<polygon fill="#63b8ff" stroke="#63b8ff" points="134.22,-187.66 144.74,-188.91 137.29,-181.37 134.22,-187.66"/>
</a>
</g>
</g>
<!-- Node14 -->
<g id="Node000014" class="node">
<title>Node14</title>
<g id="a_Node000014"><a xlink:href="api_8cpp.html#a25beb5fbe1559b1e26296077bf0990e8" target="_top" xlink:title="Initialize library.">
<polygon fill="white" stroke="#666666" points="85.75,-58 8.25,-58 8.25,-38 85.75,-38 85.75,-58"/>
<text xml:space="preserve" text-anchor="middle" x="47" y="-44.5" font-family="Helvetica,sans-Serif" font-size="10.00">duvc_initialize</text>
</a>
</g>
</g>
<!-- Node13&#45;&gt;Node14 -->
<g id="edge13_Node000013_Node000014" class="edge">
<title>Node13&#45;&gt;Node14</title>
<g id="a_edge13_Node000013_Node000014"><a xlink:title=" ">
<path fill="none" stroke="#63b8ff" d="M130.08,-48C115.51,-48 99.77,-48 86,-48"/>
<polygon fill="#63b8ff" stroke="#63b8ff" points="129.95,-51.5 139.95,-48 129.95,-44.5 129.95,-51.5"/>
</a>
</g>
</g>
</g>
</svg>
