<?xml version="1.0" encoding="UTF-8" standalone="no"?>
<!DOCTYPE svg PUBLIC "-//W3C//DTD SVG 1.1//EN"
 "http://www.w3.org/Graphics/SVG/1.1/DTD/svg11.dtd">
<!-- Generated by graphviz version 14.0.2 (20251019.1705)
 -->
<!-- Title: duvc::camprop_to_dshow Pages: 1 -->
<svg width="315pt" height="116pt"
 viewBox="0.00 0.00 315.00 116.00" xmlns="http://www.w3.org/2000/svg" xmlns:xlink="http://www.w3.org/1999/xlink">
<g id="graph0" class="graph" transform="scale(1 1) rotate(0) translate(4 112)">
<title>duvc::camprop_to_dshow</title>
<!-- Node1 -->
<g id="Node000001" class="node">
<title>Node1</title>
<g id="a_Node000001"><a xlink:title=" ">
<polygon fill="#999999" stroke="#666666" points="306.5,-64 178.75,-64 178.75,-44 306.5,-44 306.5,-64"/>
<text xml:space="preserve" text-anchor="middle" x="242.62" y="-50.5" font-family="Helvetica,sans-Serif" font-size="10.00">duvc::camprop_to_dshow</text>
</a>
</g>
</g>
<!-- Node2 -->
<g id="Node000002" class="node">
<title>Node2</title>
<g id="a_Node000002"><a xlink:href="classduvc_1_1DeviceConnection.html#aac59736bb276c7c518f9dc2da0f0fa42" target="_top" xlink:title=" ">
<polygon fill="white" stroke="#666666" points="142.75,-108 0,-108 0,-88 142.75,-88 142.75,-108"/>
<text xml:space="preserve" text-anchor="middle" x="71.38" y="-94.5" font-family="Helvetica,sans-Serif" font-size="10.00">duvc::DeviceConnection::get</text>
</a>
</g>
</g>
<!-- Node1&#45;&gt;Node2 -->
<g id="edge1_Node000001_Node000002" class="edge">
<title>Node1&#45;&gt;Node2</title>
<g id="a_edge1_Node000001_Node000002"><a xlink:title=" ">
<path fill="none" stroke="#63b8ff" d="M190.4,-67.32C165.41,-73.81 135.8,-81.51 112.49,-87.57"/>
<polygon fill="#63b8ff" stroke="#63b8ff" points="191.25,-70.71 200.05,-64.81 189.49,-63.94 191.25,-70.71"/>
</a>
</g>
</g>
<!-- Node3 -->
<g id="Node000003" class="node">
<title>Node3</title>
<g id="a_Node000003"><a xlink:href="classduvc_1_1DeviceConnection.html#ad0564ed2561d7358c549d50c80a635e5" target="_top" xlink:title=" ">
<polygon fill="white" stroke="#666666" points="133,-70 9.75,-70 9.75,-38 133,-38 133,-70"/>
<text xml:space="preserve" text-anchor="start" x="17.75" y="-56.5" font-family="Helvetica,sans-Serif" font-size="10.00">duvc::DeviceConnection</text>
<text xml:space="preserve" text-anchor="middle" x="71.38" y="-44.5" font-family="Helvetica,sans-Serif" font-size="10.00">::get_range</text>
</a>
</g>
</g>
<!-- Node1&#45;&gt;Node3 -->
<g id="edge2_Node000001_Node000003" class="edge">
<title>Node1&#45;&gt;Node3</title>
<g id="a_edge2_Node000001_Node000003"><a xlink:title=" ">
<path fill="none" stroke="#63b8ff" d="M167.39,-54C156.06,-54 144.48,-54 133.48,-54"/>
<polygon fill="#63b8ff" stroke="#63b8ff" points="167.09,-57.5 177.09,-54 167.09,-50.5 167.09,-57.5"/>
</a>
</g>
</g>
<!-- Node4 -->
<g id="Node000004" class="node">
<title>Node4</title>
<g id="a_Node000004"><a xlink:href="classduvc_1_1DeviceConnection.html#aaf856b49cae449d542431bd30ba5d931" target="_top" xlink:title=" ">
<polygon fill="white" stroke="#666666" points="142.75,-20 0,-20 0,0 142.75,0 142.75,-20"/>
<text xml:space="preserve" text-anchor="middle" x="71.38" y="-6.5" font-family="Helvetica,sans-Serif" font-size="10.00">duvc::DeviceConnection::set</text>
</a>
</g>
</g>
<!-- Node1&#45;&gt;Node4 -->
<g id="edge3_Node000001_Node000004" class="edge">
<title>Node1&#45;&gt;Node4</title>
<g id="a_edge3_Node000001_Node000004"><a xlink:title=" ">
<path fill="none" stroke="#63b8ff" d="M190.4,-40.68C165.41,-34.19 135.8,-26.49 112.49,-20.43"/>
<polygon fill="#63b8ff" stroke="#63b8ff" points="189.49,-44.06 200.05,-43.19 191.25,-37.29 189.49,-44.06"/>
</a>
</g>
</g>
</g>
</svg>
