<?xml version="1.0" encoding="UTF-8" standalone="no"?>
<!DOCTYPE svg PUBLIC "-//W3C//DTD SVG 1.1//EN"
 "http://www.w3.org/Graphics/SVG/1.1/DTD/svg11.dtd">
<!-- Generated by graphviz version 14.0.2 (20251019.1705)
 -->
<!-- Title: duvc::read_prop_bstr Pages: 1 -->
<svg width="788pt" height="1038pt"
 viewBox="0.00 0.00 788.00 1038.00" xmlns="http://www.w3.org/2000/svg" xmlns:xlink="http://www.w3.org/1999/xlink">
<g id="graph0" class="graph" transform="scale(1 1) rotate(0) translate(4 1034)">
<title>duvc::read_prop_bstr</title>
<!-- Node1 -->
<g id="Node000001" class="node">
<title>Node1</title>
<g id="a_Node000001"><a xlink:title=" ">
<polygon fill="#999999" stroke="#666666" points="779.75,-362 672.25,-362 672.25,-342 779.75,-342 779.75,-362"/>
<text xml:space="preserve" text-anchor="middle" x="726" y="-348.5" font-family="Helvetica,sans-Serif" font-size="10.00">duvc::read_prop_bstr</text>
</a>
</g>
</g>
<!-- Node2 -->
<g id="Node000002" class="node">
<title>Node2</title>
<g id="a_Node000002"><a xlink:href="namespaceduvc.html#a2c2b6f32c6871ad36ae0bf98d9374fd0" target="_top" xlink:title="Read device path from moniker.">
<polygon fill="white" stroke="#666666" points="632.12,-381 512.62,-381 512.62,-361 632.12,-361 632.12,-381"/>
<text xml:space="preserve" text-anchor="middle" x="572.38" y="-367.5" font-family="Helvetica,sans-Serif" font-size="10.00">duvc::read_device_path</text>
</a>
</g>
</g>
<!-- Node1&#45;&gt;Node2 -->
<g id="edge1_Node000001_Node000002" class="edge">
<title>Node1&#45;&gt;Node2</title>
<g id="a_edge1_Node000001_Node000002"><a xlink:title=" ">
<path fill="none" stroke="#63b8ff" d="M660.74,-360.05C651.4,-361.22 641.82,-362.42 632.59,-363.58"/>
<polygon fill="#63b8ff" stroke="#63b8ff" points="660.98,-363.55 670.47,-358.83 660.11,-356.6 660.98,-363.55"/>
</a>
</g>
</g>
<!-- Node40 -->
<g id="Node000040" class="node">
<title>Node40</title>
<g id="a_Node000040"><a xlink:href="namespaceduvc.html#a019644436e5f0add38b6242843b79fef" target="_top" xlink:title="Read friendly name from device moniker.">
<polygon fill="white" stroke="#666666" points="636.25,-343 508.5,-343 508.5,-323 636.25,-323 636.25,-343"/>
<text xml:space="preserve" text-anchor="middle" x="572.38" y="-329.5" font-family="Helvetica,sans-Serif" font-size="10.00">duvc::read_friendly_name</text>
</a>
</g>
</g>
<!-- Node1&#45;&gt;Node40 -->
<g id="edge42_Node000001_Node000040" class="edge">
<title>Node1&#45;&gt;Node40</title>
<g id="a_edge42_Node000001_Node000040"><a xlink:title=" ">
<path fill="none" stroke="#63b8ff" d="M660.78,-343.95C652.75,-342.95 644.54,-341.92 636.53,-340.91"/>
<polygon fill="#63b8ff" stroke="#63b8ff" points="660.11,-347.4 670.47,-345.17 660.98,-340.45 660.11,-347.4"/>
</a>
</g>
</g>
<!-- Node3 -->
<g id="Node000003" class="node">
<title>Node3</title>
<g id="a_Node000003"><a xlink:href="namespaceduvc.html#ab42651167ff39abe9e70713ac6db65b9" target="_top" xlink:title="Check if a device is currently connected and accessible.">
<polygon fill="white" stroke="#666666" points="472.5,-362 338,-362 338,-342 472.5,-342 472.5,-362"/>
<text xml:space="preserve" text-anchor="middle" x="405.25" y="-348.5" font-family="Helvetica,sans-Serif" font-size="10.00">duvc::is_device_connected</text>
</a>
</g>
</g>
<!-- Node2&#45;&gt;Node3 -->
<g id="edge2_Node000002_Node000003" class="edge">
<title>Node2&#45;&gt;Node3</title>
<g id="a_edge2_Node000002_Node000003"><a xlink:title=" ">
<path fill="none" stroke="#63b8ff" d="M500.98,-362.9C491.65,-361.83 482.1,-360.73 472.84,-359.66"/>
<polygon fill="#63b8ff" stroke="#63b8ff" points="500.39,-366.36 510.72,-364.02 501.19,-359.4 500.39,-366.36"/>
</a>
</g>
</g>
<!-- Node11 -->
<g id="Node000011" class="node">
<title>Node11</title>
<g id="a_Node000011"><a xlink:href="namespaceduvc.html#a2c254074ce671320e3e57c56a9389ac1" target="_top" xlink:title="Enumerate all available video input devices.">
<polygon fill="white" stroke="#666666" points="452.62,-706 357.88,-706 357.88,-686 452.62,-686 452.62,-706"/>
<text xml:space="preserve" text-anchor="middle" x="405.25" y="-692.5" font-family="Helvetica,sans-Serif" font-size="10.00">duvc::list_devices</text>
</a>
</g>
</g>
<!-- Node2&#45;&gt;Node11 -->
<g id="edge11_Node000002_Node000011" class="edge">
<title>Node2&#45;&gt;Node11</title>
<g id="a_edge11_Node000002_Node000011"><a xlink:title=" ">
<path fill="none" stroke="#63b8ff" d="M560.9,-391.62C529.14,-454.13 434.68,-640.03 411.45,-685.76"/>
<polygon fill="#63b8ff" stroke="#63b8ff" points="563.97,-393.3 565.38,-382.79 557.73,-390.12 563.97,-393.3"/>
</a>
</g>
</g>
<!-- Node34 -->
<g id="Node000034" class="node">
<title>Node34</title>
<g id="a_Node000034"><a xlink:href="namespaceduvc.html#a1345df0af198d75f16c54e38d54c7e63" target="_top" xlink:title="Create DirectShow filter from device.">
<polygon fill="white" stroke="#666666" points="466.12,-158 344.38,-158 344.38,-138 466.12,-138 466.12,-158"/>
<text xml:space="preserve" text-anchor="middle" x="405.25" y="-144.5" font-family="Helvetica,sans-Serif" font-size="10.00">duvc::open_device_filter</text>
</a>
</g>
</g>
<!-- Node2&#45;&gt;Node34 -->
<g id="edge36_Node000002_Node000034" class="edge">
<title>Node2&#45;&gt;Node34</title>
<g id="a_edge36_Node000002_Node000034"><a xlink:title=" ">
<path fill="none" stroke="#63b8ff" d="M512.51,-355.06C511.12,-354.1 509.78,-353.08 508.5,-352 443.65,-297.4 415.77,-191.53 408.37,-158.26"/>
<polygon fill="#63b8ff" stroke="#63b8ff" points="510.53,-357.96 520.96,-359.84 513.99,-351.87 510.53,-357.96"/>
</a>
</g>
</g>
<!-- Node4 -->
<g id="Node000004" class="node">
<title>Node4</title>
<g id="a_Node000004"><a xlink:href="classduvc_1_1DeviceCapabilities.html#a1275f0a40ef3c3462236e21de5feb0ee" target="_top" xlink:title="Create capabilities snapshot for device.">
<polygon fill="white" stroke="#666666" points="292.25,-440 167.5,-440 167.5,-408 292.25,-408 292.25,-440"/>
<text xml:space="preserve" text-anchor="start" x="175.5" y="-426.5" font-family="Helvetica,sans-Serif" font-size="10.00">duvc::DeviceCapabilities</text>
<text xml:space="preserve" text-anchor="middle" x="229.88" y="-414.5" font-family="Helvetica,sans-Serif" font-size="10.00">::DeviceCapabilities</text>
</a>
</g>
</g>
<!-- Node3&#45;&gt;Node4 -->
<g id="edge3_Node000003_Node000004" class="edge">
<title>Node3&#45;&gt;Node4</title>
<g id="a_edge3_Node000003_Node000004"><a xlink:title=" ">
<path fill="none" stroke="#63b8ff" d="M372.84,-367.36C352.78,-376.93 326.1,-389.25 302,-399 294.84,-401.9 287.2,-404.79 279.69,-407.52"/>
<polygon fill="#63b8ff" stroke="#63b8ff" points="374.1,-370.63 381.6,-363.15 371.07,-364.33 374.1,-370.63"/>
</a>
</g>
</g>
<!-- Node5 -->
<g id="Node000005" class="node">
<title>Node5</title>
<g id="a_Node000005"><a xlink:href="api_8cpp.html#a2443011d38e904503e646d3da95252a2" target="_top" xlink:title="Check if device is connected.">
<polygon fill="white" stroke="#666666" points="296.75,-390 163,-390 163,-370 296.75,-370 296.75,-390"/>
<text xml:space="preserve" text-anchor="middle" x="229.88" y="-376.5" font-family="Helvetica,sans-Serif" font-size="10.00">duvc_is_device_connected</text>
</a>
</g>
</g>
<!-- Node3&#45;&gt;Node5 -->
<g id="edge4_Node000003_Node000005" class="edge">
<title>Node3&#45;&gt;Node5</title>
<g id="a_edge4_Node000003_Node000005"><a xlink:title=" ">
<path fill="none" stroke="#63b8ff" d="M328.45,-364.24C317.56,-366 306.43,-367.8 295.78,-369.52"/>
<polygon fill="#63b8ff" stroke="#63b8ff" points="328.88,-367.72 338.2,-362.67 327.77,-360.81 328.88,-367.72"/>
</a>
</g>
</g>
<!-- Node6 -->
<g id="Node000006" class="node">
<title>Node6</title>
<g id="a_Node000006"><a xlink:href="bindings_8cpp.html#ae6c4b34fa8f4bfc8b53488ce2fccad7b" target="_top" xlink:title=" ">
<polygon fill="white" stroke="#666666" points="296.75,-478 163,-478 163,-458 296.75,-458 296.75,-478"/>
<text xml:space="preserve" text-anchor="middle" x="229.88" y="-464.5" font-family="Helvetica,sans-Serif" font-size="10.00">duvc_is_device_connected</text>
</a>
</g>
</g>
<!-- Node3&#45;&gt;Node6 -->
<g id="edge5_Node000003_Node000006" class="edge">
<title>Node3&#45;&gt;Node6</title>
<g id="a_edge5_Node000003_Node000006"><a xlink:title=" ">
<path fill="none" stroke="#63b8ff" d="M389.35,-371C371.09,-393.01 338.09,-428.81 302,-449 295.87,-452.43 289.08,-455.27 282.22,-457.6"/>
<polygon fill="#63b8ff" stroke="#63b8ff" points="391.93,-373.38 395.5,-363.41 386.49,-368.98 391.93,-373.38"/>
</a>
</g>
</g>
<!-- Node7 -->
<g id="Node000007" class="node">
<title>Node7</title>
<g id="a_Node000007"><a xlink:href="classduvc_1_1Camera.html#a682f869dcea95cc310c86275872c00d2" target="_top" xlink:title="Check if camera is valid and connected.">
<polygon fill="white" stroke="#666666" points="288.12,-334 171.62,-334 171.62,-314 288.12,-314 288.12,-334"/>
<text xml:space="preserve" text-anchor="middle" x="229.88" y="-320.5" font-family="Helvetica,sans-Serif" font-size="10.00">duvc::Camera::is_valid</text>
</a>
</g>
</g>
<!-- Node3&#45;&gt;Node7 -->
<g id="edge6_Node000003_Node000007" class="edge">
<title>Node3&#45;&gt;Node7</title>
<g id="a_edge6_Node000003_Node000007"><a xlink:title=" ">
<path fill="none" stroke="#63b8ff" d="M328.49,-339.77C315.03,-337.59 301.2,-335.36 288.35,-333.28"/>
<polygon fill="#63b8ff" stroke="#63b8ff" points="327.77,-343.19 338.2,-341.33 328.88,-336.28 327.77,-343.19"/>
</a>
</g>
</g>
<!-- Node8 -->
<g id="Node000008" class="node">
<title>Node8</title>
<g id="a_Node000008"><a xlink:href="namespaceduvc.html#aff098bd345fe014553d8b82c5f58b89f" target="_top" xlink:title="Create camera from device.">
<polygon fill="white" stroke="#666666" points="280.62,-296 179.12,-296 179.12,-276 280.62,-276 280.62,-296"/>
<text xml:space="preserve" text-anchor="middle" x="229.88" y="-282.5" font-family="Helvetica,sans-Serif" font-size="10.00">duvc::open_camera</text>
</a>
</g>
</g>
<!-- Node3&#45;&gt;Node8 -->
<g id="edge8_Node000003_Node000008" class="edge">
<title>Node3&#45;&gt;Node8</title>
<g id="a_edge8_Node000003_Node000008"><a xlink:title=" ">
<path fill="none" stroke="#63b8ff" d="M374.22,-336.56C354.14,-326.64 326.93,-313.98 302,-305 293.22,-301.84 283.67,-298.93 274.49,-296.4"/>
<polygon fill="#63b8ff" stroke="#63b8ff" points="372.44,-339.58 382.95,-340.92 375.57,-333.32 372.44,-339.58"/>
</a>
</g>
</g>
<!-- Node9 -->
<g id="Node000009" class="node">
<title>Node9</title>
<g id="a_Node000009"><a xlink:href="classduvc_1_1DeviceCapabilities.html#a736006fec61636a4326e29373d172a44" target="_top" xlink:title="Refresh capability snapshot.">
<polygon fill="white" stroke="#666666" points="292.25,-258 167.5,-258 167.5,-226 292.25,-226 292.25,-258"/>
<text xml:space="preserve" text-anchor="start" x="175.5" y="-244.5" font-family="Helvetica,sans-Serif" font-size="10.00">duvc::DeviceCapabilities</text>
<text xml:space="preserve" text-anchor="middle" x="229.88" y="-232.5" font-family="Helvetica,sans-Serif" font-size="10.00">::refresh</text>
</a>
</g>
</g>
<!-- Node3&#45;&gt;Node9 -->
<g id="edge9_Node000003_Node000009" class="edge">
<title>Node3&#45;&gt;Node9</title>
<g id="a_edge9_Node000003_Node000009"><a xlink:title=" ">
<path fill="none" stroke="#63b8ff" d="M386.28,-333.6C366.96,-314.69 334.59,-285.48 302,-267 296.42,-263.84 290.37,-260.97 284.24,-258.4"/>
<polygon fill="#63b8ff" stroke="#63b8ff" points="383.81,-336.07 393.36,-340.66 388.75,-331.12 383.81,-336.07"/>
</a>
</g>
</g>
<!-- Node7&#45;&gt;Node7 -->
<g id="edge7_Node000007_Node000007" class="edge">
<title>Node7&#45;&gt;Node7</title>
<g id="a_edge7_Node000007_Node000007"><a xlink:title=" ">
<path fill="none" stroke="#63b8ff" d="M259.74,-345.44C255.9,-349.3 245.94,-352 229.88,-352 200.5,-352 191.55,-342.98 203.02,-334.34"/>
<polygon fill="#63b8ff" stroke="#63b8ff" points="263.12,-344.53 257.12,-335.8 256.37,-346.37 263.12,-344.53"/>
</a>
</g>
</g>
<!-- Node10 -->
<g id="Node000010" class="node">
<title>Node10</title>
<g id="a_Node000010"><a xlink:href="api_8cpp.html#a2250e42d04f148b7fc027c026f9a0495" target="_top" xlink:title="Refresh capabilities snapshot.">
<polygon fill="white" stroke="#666666" points="113.88,-258 7.88,-258 7.88,-226 113.88,-226 113.88,-258"/>
<text xml:space="preserve" text-anchor="start" x="15.88" y="-244.5" font-family="Helvetica,sans-Serif" font-size="10.00">duvc_refresh_device</text>
<text xml:space="preserve" text-anchor="middle" x="60.88" y="-232.5" font-family="Helvetica,sans-Serif" font-size="10.00">_capabilities</text>
</a>
</g>
</g>
<!-- Node9&#45;&gt;Node10 -->
<g id="edge10_Node000009_Node000010" class="edge">
<title>Node9&#45;&gt;Node10</title>
<g id="a_edge10_Node000009_Node000010"><a xlink:title=" ">
<path fill="none" stroke="#63b8ff" d="M156.02,-242C141.98,-242 127.52,-242 114.29,-242"/>
<polygon fill="#63b8ff" stroke="#63b8ff" points="155.65,-245.5 165.65,-242 155.65,-238.5 155.65,-245.5"/>
</a>
</g>
</g>
<!-- Node11&#45;&gt;Node6 -->
<g id="edge19_Node000011_Node000006" class="edge">
<title>Node11&#45;&gt;Node6</title>
<g id="a_edge19_Node000011_Node000006"><a xlink:title=" ">
<path fill="none" stroke="#63b8ff" d="M400,-674.75C390.39,-632.37 362.91,-537.11 302,-487 297.85,-483.59 293.15,-480.79 288.19,-478.48"/>
<polygon fill="#63b8ff" stroke="#63b8ff" points="396.55,-675.35 402.07,-684.4 403.4,-673.89 396.55,-675.35"/>
</a>
</g>
</g>
<!-- Node12 -->
<g id="Node000012" class="node">
<title>Node12</title>
<g id="a_Node000012"><a xlink:href="classduvc_1_1Camera.html#afb78983227d8207306746d433c9fa570" target="_top" xlink:title="Create camera handle by device index.">
<polygon fill="white" stroke="#666666" points="288.88,-820 170.88,-820 170.88,-800 288.88,-800 288.88,-820"/>
<text xml:space="preserve" text-anchor="middle" x="229.88" y="-806.5" font-family="Helvetica,sans-Serif" font-size="10.00">duvc::Camera::Camera</text>
</a>
</g>
</g>
<!-- Node11&#45;&gt;Node12 -->
<g id="edge12_Node000011_Node000012" class="edge">
<title>Node11&#45;&gt;Node12</title>
<g id="a_edge12_Node000011_Node000012"><a xlink:title=" ">
<path fill="none" stroke="#63b8ff" d="M388.98,-714.93C370.58,-736.5 337.66,-771.3 302,-791 295.85,-794.4 289.06,-797.22 282.18,-799.54"/>
<polygon fill="#63b8ff" stroke="#63b8ff" points="391.48,-717.4 395.19,-707.48 386.1,-712.92 391.48,-717.4"/>
</a>
</g>
</g>
<!-- Node13 -->
<g id="Node000013" class="node">
<title>Node13</title>
<g id="a_Node000013"><a xlink:href="bindings_8cpp.html#a2eeaa75b5bece22f8ece44907ed9f569" target="_top" xlink:title=" ">
<polygon fill="white" stroke="#666666" points="269.75,-782 190,-782 190,-762 269.75,-762 269.75,-782"/>
<text xml:space="preserve" text-anchor="middle" x="229.88" y="-768.5" font-family="Helvetica,sans-Serif" font-size="10.00">duvc_cam_get</text>
</a>
</g>
</g>
<!-- Node11&#45;&gt;Node13 -->
<g id="edge13_Node000011_Node000013" class="edge">
<title>Node11&#45;&gt;Node13</title>
<g id="a_edge13_Node000011_Node000013"><a xlink:title=" ">
<path fill="none" stroke="#63b8ff" d="M378.91,-712.46C358.74,-724.98 329.43,-741.89 302,-753 291.93,-757.08 280.71,-760.54 270.21,-763.35"/>
<polygon fill="#63b8ff" stroke="#63b8ff" points="380.7,-715.47 387.29,-707.17 376.97,-709.55 380.7,-715.47"/>
</a>
</g>
</g>
<!-- Node14 -->
<g id="Node000014" class="node">
<title>Node14</title>
<g id="a_Node000014"><a xlink:href="bindings_8cpp.html#a7e5b8b6d1b9f093497e11e827ee56004" target="_top" xlink:title=" ">
<polygon fill="white" stroke="#666666" points="284.38,-744 175.38,-744 175.38,-724 284.38,-724 284.38,-744"/>
<text xml:space="preserve" text-anchor="middle" x="229.88" y="-730.5" font-family="Helvetica,sans-Serif" font-size="10.00">duvc_cam_get_range</text>
</a>
</g>
</g>
<!-- Node11&#45;&gt;Node14 -->
<g id="edge14_Node000011_Node000014" class="edge">
<title>Node11&#45;&gt;Node14</title>
<g id="a_edge14_Node000011_Node000014"><a xlink:title=" ">
<path fill="none" stroke="#63b8ff" d="M346.56,-708.64C324.53,-713.47 299.68,-718.92 278.67,-723.52"/>
<polygon fill="#63b8ff" stroke="#63b8ff" points="347.29,-712.07 356.31,-706.51 345.79,-705.23 347.29,-712.07"/>
</a>
</g>
</g>
<!-- Node15 -->
<g id="Node000015" class="node">
<title>Node15</title>
<g id="a_Node000015"><a xlink:href="bindings_8cpp.html#a58f06af7a7bba166129e38505c2afd4d" target="_top" xlink:title=" ">
<polygon fill="white" stroke="#666666" points="269.75,-706 190,-706 190,-686 269.75,-686 269.75,-706"/>
<text xml:space="preserve" text-anchor="middle" x="229.88" y="-692.5" font-family="Helvetica,sans-Serif" font-size="10.00">duvc_cam_set</text>
</a>
</g>
</g>
<!-- Node11&#45;&gt;Node15 -->
<g id="edge15_Node000011_Node000015" class="edge">
<title>Node11&#45;&gt;Node15</title>
<g id="a_edge15_Node000011_Node000015"><a xlink:title=" ">
<path fill="none" stroke="#63b8ff" d="M346.55,-696C321.45,-696 292.69,-696 270.12,-696"/>
<polygon fill="#63b8ff" stroke="#63b8ff" points="346.28,-699.5 356.28,-696 346.28,-692.5 346.28,-699.5"/>
</a>
</g>
</g>
<!-- Node16 -->
<g id="Node000016" class="node">
<title>Node16</title>
<g id="a_Node000016"><a xlink:href="bindings_8cpp.html#a7eae96ab0b9ad48d78466336076360e0" target="_top" xlink:title=" ">
<polygon fill="white" stroke="#666666" points="289.25,-668 170.5,-668 170.5,-648 289.25,-648 289.25,-668"/>
<text xml:space="preserve" text-anchor="middle" x="229.88" y="-654.5" font-family="Helvetica,sans-Serif" font-size="10.00">duvc_get_device_count</text>
</a>
</g>
</g>
<!-- Node11&#45;&gt;Node16 -->
<g id="edge16_Node000011_Node000016" class="edge">
<title>Node11&#45;&gt;Node16</title>
<g id="a_edge16_Node000011_Node000016"><a xlink:title=" ">
<path fill="none" stroke="#63b8ff" d="M346.56,-683.36C324.53,-678.53 299.68,-673.08 278.67,-668.48"/>
<polygon fill="#63b8ff" stroke="#63b8ff" points="345.79,-686.77 356.31,-685.49 347.29,-679.93 345.79,-686.77"/>
</a>
</g>
</g>
<!-- Node17 -->
<g id="Node000017" class="node">
<title>Node17</title>
<g id="a_Node000017"><a xlink:href="bindings_8cpp.html#a56e6df6631c2fb647fcb3a8641bc8e49" target="_top" xlink:title=" ">
<polygon fill="white" stroke="#666666" points="289.25,-630 170.5,-630 170.5,-610 289.25,-610 289.25,-630"/>
<text xml:space="preserve" text-anchor="middle" x="229.88" y="-616.5" font-family="Helvetica,sans-Serif" font-size="10.00">duvc_get_device_name</text>
</a>
</g>
</g>
<!-- Node11&#45;&gt;Node17 -->
<g id="edge17_Node000011_Node000017" class="edge">
<title>Node11&#45;&gt;Node17</title>
<g id="a_edge17_Node000011_Node000017"><a xlink:title=" ">
<path fill="none" stroke="#63b8ff" d="M378.91,-679.54C358.74,-667.02 329.43,-650.11 302,-639 293.94,-635.74 285.15,-632.87 276.58,-630.41"/>
<polygon fill="#63b8ff" stroke="#63b8ff" points="376.97,-682.45 387.29,-684.83 380.7,-676.53 376.97,-682.45"/>
</a>
</g>
</g>
<!-- Node18 -->
<g id="Node000018" class="node">
<title>Node18</title>
<g id="a_Node000018"><a xlink:href="bindings_8cpp.html#a96f4ab988208d0f8432d7134f367283b" target="_top" xlink:title=" ">
<polygon fill="white" stroke="#666666" points="286.62,-592 173.12,-592 173.12,-572 286.62,-572 286.62,-592"/>
<text xml:space="preserve" text-anchor="middle" x="229.88" y="-578.5" font-family="Helvetica,sans-Serif" font-size="10.00">duvc_get_device_path</text>
</a>
</g>
</g>
<!-- Node11&#45;&gt;Node18 -->
<g id="edge18_Node000011_Node000018" class="edge">
<title>Node11&#45;&gt;Node18</title>
<g id="a_edge18_Node000011_Node000018"><a xlink:title=" ">
<path fill="none" stroke="#63b8ff" d="M388.98,-677.07C370.58,-655.5 337.66,-620.7 302,-601 295.85,-597.6 289.06,-594.78 282.18,-592.46"/>
<polygon fill="#63b8ff" stroke="#63b8ff" points="386.1,-679.08 395.19,-684.52 391.48,-674.6 386.1,-679.08"/>
</a>
</g>
</g>
<!-- Node19 -->
<g id="Node000019" class="node">
<title>Node19</title>
<g id="a_Node000019"><a xlink:href="api_8cpp.html#a4858259a9c4d23ce0d671b52615c3e74" target="_top" xlink:title="List all connected devices.">
<polygon fill="white" stroke="#666666" points="276.88,-554 182.88,-554 182.88,-534 276.88,-534 276.88,-554"/>
<text xml:space="preserve" text-anchor="middle" x="229.88" y="-540.5" font-family="Helvetica,sans-Serif" font-size="10.00">duvc_list_devices</text>
</a>
</g>
</g>
<!-- Node11&#45;&gt;Node19 -->
<g id="edge20_Node000011_Node000019" class="edge">
<title>Node11&#45;&gt;Node19</title>
<g id="a_edge20_Node000011_Node000019"><a xlink:title=" ">
<path fill="none" stroke="#63b8ff" d="M394.33,-675.92C378.77,-646.56 345.83,-592.23 302,-563 294.56,-558.04 285.87,-554.37 277.17,-551.65"/>
<polygon fill="#63b8ff" stroke="#63b8ff" points="391.05,-677.2 398.73,-684.5 397.28,-674.01 391.05,-677.2"/>
</a>
</g>
</g>
<!-- Node20 -->
<g id="Node000020" class="node">
<title>Node20</title>
<g id="a_Node000020"><a xlink:href="bindings_8cpp.html#a447135500d1651a64fc752ea40d3f2ec" target="_top" xlink:title=" ">
<polygon fill="white" stroke="#666666" points="285.5,-516 174.25,-516 174.25,-496 285.5,-496 285.5,-516"/>
<text xml:space="preserve" text-anchor="middle" x="229.88" y="-502.5" font-family="Helvetica,sans-Serif" font-size="10.00">duvc_refresh_devices</text>
</a>
</g>
</g>
<!-- Node11&#45;&gt;Node20 -->
<g id="edge21_Node000011_Node000020" class="edge">
<title>Node11&#45;&gt;Node20</title>
<g id="a_edge21_Node000011_Node000020"><a xlink:title=" ">
<path fill="none" stroke="#63b8ff" d="M397.56,-674.9C384.94,-638.56 354.09,-564.31 302,-525 297.1,-521.3 291.54,-518.33 285.74,-515.93"/>
<polygon fill="#63b8ff" stroke="#63b8ff" points="394.19,-675.84 400.67,-684.22 400.83,-673.63 394.19,-675.84"/>
</a>
</g>
</g>
<!-- Node21 -->
<g id="Node000021" class="node">
<title>Node21</title>
<g id="a_Node000021"><a xlink:href="bindings_8cpp.html#a2ef0f3ef211dffa60691ec69734cb8ba" target="_top" xlink:title=" ">
<polygon fill="white" stroke="#666666" points="266.75,-1028 193,-1028 193,-1008 266.75,-1008 266.75,-1028"/>
<text xml:space="preserve" text-anchor="middle" x="229.88" y="-1014.5" font-family="Helvetica,sans-Serif" font-size="10.00">duvc_vid_get</text>
</a>
</g>
</g>
<!-- Node11&#45;&gt;Node21 -->
<g id="edge22_Node000011_Node000021" class="edge">
<title>Node11&#45;&gt;Node21</title>
<g id="a_edge22_Node000011_Node000021"><a xlink:title=" ">
<path fill="none" stroke="#63b8ff" d="M403.6,-717.62C400.72,-772.97 385.23,-920.97 302,-999 292.58,-1007.83 279.53,-1012.65 267.17,-1015.25"/>
<polygon fill="#63b8ff" stroke="#63b8ff" points="407.08,-718.09 404,-707.96 400.09,-717.8 407.08,-718.09"/>
</a>
</g>
</g>
<!-- Node22 -->
<g id="Node000022" class="node">
<title>Node22</title>
<g id="a_Node000022"><a xlink:href="bindings_8cpp.html#afeb5120c76b876c78b2d47af23770647" target="_top" xlink:title=" ">
<polygon fill="white" stroke="#666666" points="281.38,-990 178.38,-990 178.38,-970 281.38,-970 281.38,-990"/>
<text xml:space="preserve" text-anchor="middle" x="229.88" y="-976.5" font-family="Helvetica,sans-Serif" font-size="10.00">duvc_vid_get_range</text>
</a>
</g>
</g>
<!-- Node11&#45;&gt;Node22 -->
<g id="edge23_Node000011_Node000022" class="edge">
<title>Node11&#45;&gt;Node22</title>
<g id="a_edge23_Node000011_Node000022"><a xlink:title=" ">
<path fill="none" stroke="#63b8ff" d="M402.37,-717.92C396.82,-768.6 375.91,-894.62 302,-961 296.2,-966.21 289.13,-970.02 281.71,-972.79"/>
<polygon fill="#63b8ff" stroke="#63b8ff" points="405.85,-718.29 403.35,-707.99 398.88,-717.6 405.85,-718.29"/>
</a>
</g>
</g>
<!-- Node23 -->
<g id="Node000023" class="node">
<title>Node23</title>
<g id="a_Node000023"><a xlink:href="bindings_8cpp.html#a2e76b2547f3ee2427b1cf27ad9b358d6" target="_top" xlink:title=" ">
<polygon fill="white" stroke="#666666" points="266.75,-952 193,-952 193,-932 266.75,-932 266.75,-952"/>
<text xml:space="preserve" text-anchor="middle" x="229.88" y="-938.5" font-family="Helvetica,sans-Serif" font-size="10.00">duvc_vid_set</text>
</a>
</g>
</g>
<!-- Node11&#45;&gt;Node23 -->
<g id="edge24_Node000011_Node000023" class="edge">
<title>Node11&#45;&gt;Node23</title>
<g id="a_edge24_Node000011_Node000023"><a xlink:title=" ">
<path fill="none" stroke="#63b8ff" d="M400.86,-717.53C392.57,-762.7 367.03,-867.74 302,-923 292.26,-931.28 279.28,-935.99 267.07,-938.65"/>
<polygon fill="#63b8ff" stroke="#63b8ff" points="404.26,-718.41 402.5,-707.96 397.36,-717.22 404.26,-718.41"/>
</a>
</g>
</g>
<!-- Node24 -->
<g id="Node000024" class="node">
<title>Node24</title>
<g id="a_Node000024"><a xlink:href="namespaceduvc.html#a0af4366057ae8014aee4989ab3fd7671" target="_top" xlink:title="Create device capability snapshot by index.">
<polygon fill="white" stroke="#666666" points="302,-914 157.75,-914 157.75,-894 302,-894 302,-914"/>
<text xml:space="preserve" text-anchor="middle" x="229.88" y="-900.5" font-family="Helvetica,sans-Serif" font-size="10.00">duvc::get_device_capabilities</text>
</a>
</g>
</g>
<!-- Node11&#45;&gt;Node24 -->
<g id="edge25_Node000011_Node000024" class="edge">
<title>Node11&#45;&gt;Node24</title>
<g id="a_edge25_Node000011_Node000024"><a xlink:title=" ">
<path fill="none" stroke="#63b8ff" d="M398.77,-717.39C387.54,-756.76 358.15,-840.7 302,-885 297.58,-888.48 292.59,-891.33 287.34,-893.66"/>
<polygon fill="#63b8ff" stroke="#63b8ff" points="402.09,-718.52 401.33,-707.95 395.33,-716.68 402.09,-718.52"/>
</a>
</g>
</g>
<!-- Node25 -->
<g id="Node000025" class="node">
<title>Node25</title>
<g id="a_Node000025"><a xlink:href="namespaceduvc.html#ac682048b44b6b2ee33d99dd460c24f25" target="_top" xlink:title="Create camera from device index.">
<polygon fill="white" stroke="#666666" points="280.62,-858 179.12,-858 179.12,-838 280.62,-838 280.62,-858"/>
<text xml:space="preserve" text-anchor="middle" x="229.88" y="-844.5" font-family="Helvetica,sans-Serif" font-size="10.00">duvc::open_camera</text>
</a>
</g>
</g>
<!-- Node11&#45;&gt;Node25 -->
<g id="edge26_Node000011_Node000025" class="edge">
<title>Node11&#45;&gt;Node25</title>
<g id="a_edge26_Node000011_Node000025"><a xlink:title=" ">
<path fill="none" stroke="#63b8ff" d="M394.33,-716.08C378.77,-745.44 345.83,-799.77 302,-829 295.62,-833.26 288.32,-836.56 280.89,-839.12"/>
<polygon fill="#63b8ff" stroke="#63b8ff" points="397.28,-717.99 398.73,-707.5 391.05,-714.8 397.28,-717.99"/>
</a>
</g>
</g>
<!-- Node25&#45;&gt;Node25 -->
<g id="edge35_Node000025_Node000025" class="edge">
<title>Node25&#45;&gt;Node25</title>
<g id="a_edge35_Node000025_Node000025"><a xlink:title=" ">
<path fill="none" stroke="#63b8ff" d="M259.74,-869.44C255.9,-873.3 245.94,-876 229.88,-876 200.5,-876 191.55,-866.98 203.02,-858.34"/>
<polygon fill="#63b8ff" stroke="#63b8ff" points="263.12,-868.53 257.12,-859.8 256.37,-870.37 263.12,-868.53"/>
</a>
</g>
</g>
<!-- Node26 -->
<g id="Node000026" class="node">
<title>Node26</title>
<g id="a_Node000026"><a xlink:href="api_8cpp.html#a6c818dfe0ce43fce1ac013dcfcc97ab6" target="_top" xlink:title="Open camera by device handle.">
<polygon fill="white" stroke="#666666" points="111.25,-880 10.5,-880 10.5,-860 111.25,-860 111.25,-880"/>
<text xml:space="preserve" text-anchor="middle" x="60.88" y="-866.5" font-family="Helvetica,sans-Serif" font-size="10.00">duvc_open_camera</text>
</a>
</g>
</g>
<!-- Node25&#45;&gt;Node26 -->
<g id="edge27_Node000025_Node000026" class="edge">
<title>Node25&#45;&gt;Node26</title>
<g id="a_edge27_Node000025_Node000026"><a xlink:title=" ">
<path fill="none" stroke="#63b8ff" d="M167.55,-856.08C149.16,-858.5 129.21,-861.13 111.66,-863.44"/>
<polygon fill="#63b8ff" stroke="#63b8ff" points="167.81,-859.57 177.27,-854.8 166.9,-852.63 167.81,-859.57"/>
</a>
</g>
</g>
<!-- Node27 -->
<g id="Node000027" class="node">
<title>Node27</title>
<g id="a_Node000027"><a xlink:href="api_8cpp.html#af3c0339eb2da66e4c693795c1e516a94" target="_top" xlink:title="Open camera by device index.">
<polygon fill="white" stroke="#666666" points="119.12,-842 2.62,-842 2.62,-810 119.12,-810 119.12,-842"/>
<text xml:space="preserve" text-anchor="start" x="10.62" y="-828.5" font-family="Helvetica,sans-Serif" font-size="10.00">duvc_open_camera_by</text>
<text xml:space="preserve" text-anchor="middle" x="60.88" y="-816.5" font-family="Helvetica,sans-Serif" font-size="10.00">_index</text>
</a>
</g>
</g>
<!-- Node25&#45;&gt;Node27 -->
<g id="edge28_Node000025_Node000027" class="edge">
<title>Node25&#45;&gt;Node27</title>
<g id="a_edge28_Node000025_Node000027"><a xlink:title=" ">
<path fill="none" stroke="#63b8ff" d="M167.58,-839.93C151.89,-837.86 135.07,-835.64 119.57,-833.6"/>
<polygon fill="#63b8ff" stroke="#63b8ff" points="166.9,-843.37 177.27,-841.2 167.81,-836.43 166.9,-843.37"/>
</a>
</g>
</g>
<!-- Node28 -->
<g id="Node000028" class="node">
<title>Node28</title>
<g id="a_Node000028"><a xlink:href="api_8cpp.html#a3bb63900ee185ff762cb5202213dcb44" target="_top" xlink:title="Quick get camera property (creates temporary connection)">
<polygon fill="white" stroke="#666666" points="121.75,-792 0,-792 0,-760 121.75,-760 121.75,-792"/>
<text xml:space="preserve" text-anchor="start" x="8" y="-778.5" font-family="Helvetica,sans-Serif" font-size="10.00">duvc_quick_get_camera</text>
<text xml:space="preserve" text-anchor="middle" x="60.88" y="-766.5" font-family="Helvetica,sans-Serif" font-size="10.00">_property</text>
</a>
</g>
</g>
<!-- Node25&#45;&gt;Node28 -->
<g id="edge29_Node000025_Node000028" class="edge">
<title>Node25&#45;&gt;Node28</title>
<g id="a_edge29_Node000025_Node000028"><a xlink:title=" ">
<path fill="none" stroke="#63b8ff" d="M168.64,-833.77C164.89,-832.32 161.23,-830.73 157.75,-829 139.6,-819.98 139.26,-811.22 121.75,-801 116.5,-797.93 110.79,-795.05 105.07,-792.41"/>
<polygon fill="#63b8ff" stroke="#63b8ff" points="167.32,-837.02 177.91,-837.02 169.63,-830.41 167.32,-837.02"/>
</a>
</g>
</g>
<!-- Node29 -->
<g id="Node000029" class="node">
<title>Node29</title>
<g id="a_Node000029"><a xlink:href="api_8cpp.html#a563caf7299afef6db2be80775ec7045b" target="_top" xlink:title="Quick get camera property range.">
<polygon fill="white" stroke="#666666" points="121.75,-742 0,-742 0,-710 121.75,-710 121.75,-742"/>
<text xml:space="preserve" text-anchor="start" x="8" y="-728.5" font-family="Helvetica,sans-Serif" font-size="10.00">duvc_quick_get_camera</text>
<text xml:space="preserve" text-anchor="middle" x="60.88" y="-716.5" font-family="Helvetica,sans-Serif" font-size="10.00">_property_range</text>
</a>
</g>
</g>
<!-- Node25&#45;&gt;Node29 -->
<g id="edge30_Node000025_Node000029" class="edge">
<title>Node25&#45;&gt;Node29</title>
<g id="a_edge30_Node000025_Node000029"><a xlink:title=" ">
<path fill="none" stroke="#63b8ff" d="M168.31,-836.04C164.54,-834.04 160.97,-831.71 157.75,-829 128.54,-804.41 149.24,-777.5 121.75,-751 118.42,-747.79 114.63,-744.98 110.6,-742.5"/>
<polygon fill="#63b8ff" stroke="#63b8ff" points="166.74,-839.17 177.3,-839.99 169.56,-832.76 166.74,-839.17"/>
</a>
</g>
</g>
<!-- Node30 -->
<g id="Node000030" class="node">
<title>Node30</title>
<g id="a_Node000030"><a xlink:href="api_8cpp.html#ac2450ac31290e5083614c732b6586c6d" target="_top" xlink:title="Quick get video property.">
<polygon fill="white" stroke="#666666" points="117.25,-692 4.5,-692 4.5,-660 117.25,-660 117.25,-692"/>
<text xml:space="preserve" text-anchor="start" x="12.5" y="-678.5" font-family="Helvetica,sans-Serif" font-size="10.00">duvc_quick_get_video</text>
<text xml:space="preserve" text-anchor="middle" x="60.88" y="-666.5" font-family="Helvetica,sans-Serif" font-size="10.00">_property</text>
</a>
</g>
</g>
<!-- Node25&#45;&gt;Node30 -->
<g id="edge31_Node000025_Node000030" class="edge">
<title>Node25&#45;&gt;Node30</title>
<g id="a_edge31_Node000025_Node000030"><a xlink:title=" ">
<path fill="none" stroke="#63b8ff" d="M168.49,-836.99C164.58,-834.78 160.93,-832.14 157.75,-829 115.69,-787.49 160.93,-745.24 121.75,-701 118.84,-697.71 115.42,-694.84 111.73,-692.35"/>
<polygon fill="#63b8ff" stroke="#63b8ff" points="166.76,-840.05 177.31,-841.03 169.68,-833.69 166.76,-840.05"/>
</a>
</g>
</g>
<!-- Node31 -->
<g id="Node000031" class="node">
<title>Node31</title>
<g id="a_Node000031"><a xlink:href="api_8cpp.html#a993684c5701505045bdb13709872300b" target="_top" xlink:title="Quick get video property range.">
<polygon fill="white" stroke="#666666" points="117.25,-1030 4.5,-1030 4.5,-998 117.25,-998 117.25,-1030"/>
<text xml:space="preserve" text-anchor="start" x="12.5" y="-1016.5" font-family="Helvetica,sans-Serif" font-size="10.00">duvc_quick_get_video</text>
<text xml:space="preserve" text-anchor="middle" x="60.88" y="-1004.5" font-family="Helvetica,sans-Serif" font-size="10.00">_property_range</text>
</a>
</g>
</g>
<!-- Node25&#45;&gt;Node31 -->
<g id="edge32_Node000025_Node000031" class="edge">
<title>Node25&#45;&gt;Node31</title>
<g id="a_edge32_Node000025_Node000031"><a xlink:title=" ">
<path fill="none" stroke="#63b8ff" d="M186.93,-863.22C176.26,-868.73 165.61,-875.9 157.75,-885 125.79,-922.02 155.24,-953.35 121.75,-989 118.66,-992.28 115.08,-995.15 111.23,-997.65"/>
<polygon fill="#63b8ff" stroke="#63b8ff" points="188.15,-866.51 195.7,-859.08 185.17,-860.18 188.15,-866.51"/>
</a>
</g>
</g>
<!-- Node32 -->
<g id="Node000032" class="node">
<title>Node32</title>
<g id="a_Node000032"><a xlink:href="api_8cpp.html#ab4d738bc8b5e468bfa9ecd3e27395815" target="_top" xlink:title="Quick set camera property (creates temporary connection)">
<polygon fill="white" stroke="#666666" points="121.75,-980 0,-980 0,-948 121.75,-948 121.75,-980"/>
<text xml:space="preserve" text-anchor="start" x="8" y="-966.5" font-family="Helvetica,sans-Serif" font-size="10.00">duvc_quick_set_camera</text>
<text xml:space="preserve" text-anchor="middle" x="60.88" y="-954.5" font-family="Helvetica,sans-Serif" font-size="10.00">_property</text>
</a>
</g>
</g>
<!-- Node25&#45;&gt;Node32 -->
<g id="edge33_Node000025_Node000032" class="edge">
<title>Node25&#45;&gt;Node32</title>
<g id="a_edge33_Node000025_Node000032"><a xlink:title=" ">
<path fill="none" stroke="#63b8ff" d="M190.96,-863.31C179.51,-869.05 167.43,-876.32 157.75,-885 136.28,-904.26 144.01,-920.66 121.75,-939 117.84,-942.22 113.45,-945.09 108.88,-947.62"/>
<polygon fill="#63b8ff" stroke="#63b8ff" points="192.28,-866.56 199.83,-859.12 189.3,-860.22 192.28,-866.56"/>
</a>
</g>
</g>
<!-- Node33 -->
<g id="Node000033" class="node">
<title>Node33</title>
<g id="a_Node000033"><a xlink:href="api_8cpp.html#ac5c65a93003977ce563d8a5c1379745c" target="_top" xlink:title="Quick set video property.">
<polygon fill="white" stroke="#666666" points="117.25,-930 4.5,-930 4.5,-898 117.25,-898 117.25,-930"/>
<text xml:space="preserve" text-anchor="start" x="12.5" y="-916.5" font-family="Helvetica,sans-Serif" font-size="10.00">duvc_quick_set_video</text>
<text xml:space="preserve" text-anchor="middle" x="60.88" y="-904.5" font-family="Helvetica,sans-Serif" font-size="10.00">_property</text>
</a>
</g>
</g>
<!-- Node25&#45;&gt;Node33 -->
<g id="edge34_Node000025_Node000033" class="edge">
<title>Node25&#45;&gt;Node33</title>
<g id="a_edge34_Node000025_Node000033"><a xlink:title=" ">
<path fill="none" stroke="#63b8ff" d="M191.8,-862.65C165.66,-872.98 130.61,-886.83 103.51,-897.55"/>
<polygon fill="#63b8ff" stroke="#63b8ff" points="192.99,-865.94 201.01,-859.01 190.42,-859.43 192.99,-865.94"/>
</a>
</g>
</g>
<!-- Node35 -->
<g id="Node000035" class="node">
<title>Node35</title>
<g id="a_Node000035"><a xlink:href="classduvc_1_1DeviceConnection.html#a4afc9b6ddaeb6ffdcfcda94dd14f6dbc" target="_top" xlink:title=" ">
<polygon fill="white" stroke="#666666" points="291.5,-208 168.25,-208 168.25,-176 291.5,-176 291.5,-208"/>
<text xml:space="preserve" text-anchor="start" x="176.25" y="-194.5" font-family="Helvetica,sans-Serif" font-size="10.00">duvc::DeviceConnection</text>
<text xml:space="preserve" text-anchor="middle" x="229.88" y="-182.5" font-family="Helvetica,sans-Serif" font-size="10.00">::DeviceConnection</text>
</a>
</g>
</g>
<!-- Node34&#45;&gt;Node35 -->
<g id="edge37_Node000034_Node000035" class="edge">
<title>Node34&#45;&gt;Node35</title>
<g id="a_edge37_Node000034_Node000035"><a xlink:title=" ">
<path fill="none" stroke="#63b8ff" d="M352.02,-161.26C333.02,-166.08 311.38,-171.57 291.71,-176.56"/>
<polygon fill="#63b8ff" stroke="#63b8ff" points="352.86,-164.65 361.7,-158.8 351.14,-157.87 352.86,-164.65"/>
</a>
</g>
</g>
<!-- Node36 -->
<g id="Node000036" class="node">
<title>Node36</title>
<g id="a_Node000036"><a xlink:href="namespaceduvc.html#aa019a1c9788c84f47348db3f03b25d42" target="_top" xlink:title="Get vendor&#45;specific property data from device.">
<polygon fill="white" stroke="#666666" points="295.62,-158 164.12,-158 164.12,-138 295.62,-138 295.62,-158"/>
<text xml:space="preserve" text-anchor="middle" x="229.88" y="-144.5" font-family="Helvetica,sans-Serif" font-size="10.00">duvc::get_vendor_property</text>
</a>
</g>
</g>
<!-- Node34&#45;&gt;Node36 -->
<g id="edge38_Node000034_Node000036" class="edge">
<title>Node34&#45;&gt;Node36</title>
<g id="a_edge38_Node000034_Node000036"><a xlink:title=" ">
<path fill="none" stroke="#63b8ff" d="M332.61,-148C320.46,-148 307.91,-148 295.95,-148"/>
<polygon fill="#63b8ff" stroke="#63b8ff" points="332.58,-151.5 342.58,-148 332.58,-144.5 332.58,-151.5"/>
</a>
</g>
</g>
<!-- Node37 -->
<g id="Node000037" class="node">
<title>Node37</title>
<g id="a_Node000037"><a xlink:href="classduvc_1_1KsPropertySet.html#aac9242599b92d9f1880f63f2256c72e3" target="_top" xlink:title="Create KsPropertySet from device.">
<polygon fill="white" stroke="#666666" points="283.25,-120 176.5,-120 176.5,-88 283.25,-88 283.25,-120"/>
<text xml:space="preserve" text-anchor="start" x="184.5" y="-106.5" font-family="Helvetica,sans-Serif" font-size="10.00">duvc::KsPropertySet</text>
<text xml:space="preserve" text-anchor="middle" x="229.88" y="-94.5" font-family="Helvetica,sans-Serif" font-size="10.00">::KsPropertySet</text>
</a>
</g>
</g>
<!-- Node34&#45;&gt;Node37 -->
<g id="edge39_Node000034_Node000037" class="edge">
<title>Node34&#45;&gt;Node37</title>
<g id="a_edge39_Node000034_Node000037"><a xlink:title=" ">
<path fill="none" stroke="#63b8ff" d="M352.16,-134.78C330.45,-129.27 305.28,-122.88 283.51,-117.36"/>
<polygon fill="#63b8ff" stroke="#63b8ff" points="351.14,-138.13 361.7,-137.2 352.86,-131.35 351.14,-138.13"/>
</a>
</g>
</g>
<!-- Node38 -->
<g id="Node000038" class="node">
<title>Node38</title>
<g id="a_Node000038"><a xlink:href="namespaceduvc.html#a5ddd570cc76e8dbdef26ad18660ddb07" target="_top" xlink:title="Query whether device supports a vendor&#45;specific property.">
<polygon fill="white" stroke="#666666" points="280.62,-70 179.12,-70 179.12,-38 280.62,-38 280.62,-70"/>
<text xml:space="preserve" text-anchor="start" x="187.12" y="-56.5" font-family="Helvetica,sans-Serif" font-size="10.00">duvc::query_vendor</text>
<text xml:space="preserve" text-anchor="middle" x="229.88" y="-44.5" font-family="Helvetica,sans-Serif" font-size="10.00">_property_support</text>
</a>
</g>
</g>
<!-- Node34&#45;&gt;Node38 -->
<g id="edge40_Node000034_Node000038" class="edge">
<title>Node34&#45;&gt;Node38</title>
<g id="a_edge40_Node000034_Node000038"><a xlink:title=" ">
<path fill="none" stroke="#63b8ff" d="M382.45,-130.87C362.41,-115.72 331.43,-93.8 302,-79 295.33,-75.65 288.11,-72.55 280.91,-69.76"/>
<polygon fill="#63b8ff" stroke="#63b8ff" points="380.09,-133.47 390.16,-136.78 384.35,-127.92 380.09,-133.47"/>
</a>
</g>
</g>
<!-- Node39 -->
<g id="Node000039" class="node">
<title>Node39</title>
<g id="a_Node000039"><a xlink:href="namespaceduvc.html#ab333863cefef68546e2e235527fe3b5c" target="_top" xlink:title="Set vendor&#45;specific property data on device.">
<polygon fill="white" stroke="#666666" points="295.62,-20 164.12,-20 164.12,0 295.62,0 295.62,-20"/>
<text xml:space="preserve" text-anchor="middle" x="229.88" y="-6.5" font-family="Helvetica,sans-Serif" font-size="10.00">duvc::set_vendor_property</text>
</a>
</g>
</g>
<!-- Node34&#45;&gt;Node39 -->
<g id="edge41_Node000034_Node000039" class="edge">
<title>Node34&#45;&gt;Node39</title>
<g id="a_edge41_Node000034_Node000039"><a xlink:title=" ">
<path fill="none" stroke="#63b8ff" d="M392.36,-127.77C375.62,-101.07 342.54,-54.47 302,-29 296.48,-25.53 290.34,-22.69 284.04,-20.37"/>
<polygon fill="#63b8ff" stroke="#63b8ff" points="389.35,-129.56 397.55,-136.28 395.33,-125.92 389.35,-129.56"/>
</a>
</g>
</g>
<!-- Node40&#45;&gt;Node3 -->
<g id="edge43_Node000040_Node000003" class="edge">
<title>Node40&#45;&gt;Node3</title>
<g id="a_edge43_Node000040_Node000003"><a xlink:title=" ">
<path fill="none" stroke="#63b8ff" d="M496.77,-341.58C488.76,-342.51 480.65,-343.44 472.74,-344.35"/>
<polygon fill="#63b8ff" stroke="#63b8ff" points="496.97,-345.08 506.5,-340.46 496.17,-338.13 496.97,-345.08"/>
</a>
</g>
</g>
<!-- Node40&#45;&gt;Node11 -->
<g id="edge44_Node000040_Node000011" class="edge">
<title>Node40&#45;&gt;Node11</title>
<g id="a_edge44_Node000040_Node000011"><a xlink:title=" ">
<path fill="none" stroke="#63b8ff" d="M511.2,-349.51C510.27,-350.3 509.36,-351.13 508.5,-352 410.26,-450.69 405.62,-639.26 406.03,-685.55"/>
<polygon fill="#63b8ff" stroke="#63b8ff" points="512.78,-352.66 519.15,-344.2 508.89,-346.84 512.78,-352.66"/>
</a>
</g>
</g>
<!-- Node40&#45;&gt;Node34 -->
<g id="edge45_Node000040_Node000034" class="edge">
<title>Node40&#45;&gt;Node34</title>
<g id="a_edge45_Node000040_Node000034"><a xlink:title=" ">
<path fill="none" stroke="#63b8ff" d="M554.62,-314.23C520.15,-275.61 442.28,-188.36 415.5,-158.36"/>
<polygon fill="#63b8ff" stroke="#63b8ff" points="551.75,-316.26 561.02,-321.39 556.97,-311.6 551.75,-316.26"/>
</a>
</g>
</g>
</g>
</svg>
