<?xml version="1.0" encoding="UTF-8" standalone="no"?>
<!DOCTYPE svg PUBLIC "-//W3C//DTD SVG 1.1//EN"
 "http://www.w3.org/Graphics/SVG/1.1/DTD/svg11.dtd">
<!-- Generated by graphviz version 14.0.2 (20251019.1705)
 -->
<!-- Title: duvc::wide_to_utf8 Pages: 1 -->
<svg width="931pt" height="1036pt"
 viewBox="0.00 0.00 931.00 1036.00" xmlns="http://www.w3.org/2000/svg" xmlns:xlink="http://www.w3.org/1999/xlink">
<g id="graph0" class="graph" transform="scale(1 1) rotate(0) translate(4 1032)">
<title>duvc::wide_to_utf8</title>
<!-- Node1 -->
<g id="Node000001" class="node">
<title>Node1</title>
<g id="a_Node000001"><a xlink:title=" ">
<polygon fill="#999999" stroke="#666666" points="922.5,-696 824,-696 824,-676 922.5,-676 922.5,-696"/>
<text xml:space="preserve" text-anchor="middle" x="873.25" y="-682.5" font-family="Helvetica,sans-Serif" font-size="10.00">duvc::wide_to_utf8</text>
</a>
</g>
</g>
<!-- Node2 -->
<g id="Node000002" class="node">
<title>Node2</title>
<g id="a_Node000002"><a xlink:href="namespaceduvc.html#a21b444574354018097d4489a9ff0ff9e" target="_top" xlink:title=" ">
<polygon fill="white" stroke="#666666" points="788,-696 707.5,-696 707.5,-676 788,-676 788,-696"/>
<text xml:space="preserve" text-anchor="middle" x="747.75" y="-682.5" font-family="Helvetica,sans-Serif" font-size="10.00">duvc::throw_hr</text>
</a>
</g>
</g>
<!-- Node1&#45;&gt;Node2 -->
<g id="edge1_Node000001_Node000002" class="edge">
<title>Node1&#45;&gt;Node2</title>
<g id="a_edge1_Node000001_Node000002"><a xlink:title=" ">
<path fill="none" stroke="#63b8ff" d="M812.35,-686C804.19,-686 795.99,-686 788.31,-686"/>
<polygon fill="#63b8ff" stroke="#63b8ff" points="812.28,-689.5 822.28,-686 812.28,-682.5 812.28,-689.5"/>
</a>
</g>
</g>
<!-- Node3 -->
<g id="Node000003" class="node">
<title>Node3</title>
<g id="a_Node000003"><a xlink:href="namespaceduvc.html#a72f92cd80ed6f3c59c814fae59e8ba26" target="_top" xlink:title=" ">
<polygon fill="white" stroke="#666666" points="639.25,-817 540.75,-817 540.75,-797 639.25,-797 639.25,-817"/>
<text xml:space="preserve" text-anchor="middle" x="590" y="-803.5" font-family="Helvetica,sans-Serif" font-size="10.00">duvc::bind_to_filter</text>
</a>
</g>
</g>
<!-- Node2&#45;&gt;Node3 -->
<g id="edge2_Node000002_Node000003" class="edge">
<title>Node2&#45;&gt;Node3</title>
<g id="a_edge2_Node000002_Node000003"><a xlink:title=" ">
<path fill="none" stroke="#63b8ff" d="M724.61,-703.2C691.73,-728.75 631,-775.93 604.25,-796.71"/>
<polygon fill="#63b8ff" stroke="#63b8ff" points="726.53,-706.14 732.28,-697.24 722.23,-700.62 726.53,-706.14"/>
</a>
</g>
</g>
<!-- Node10 -->
<g id="Node000010" class="node">
<title>Node10</title>
<g id="a_Node000010"><a xlink:href="classduvc_1_1com__apartment.html#a838699180177b67967fc82d3602ba122" target="_top" xlink:title=" ">
<polygon fill="white" stroke="#666666" points="645.25,-658 534.75,-658 534.75,-626 645.25,-626 645.25,-658"/>
<text xml:space="preserve" text-anchor="start" x="542.75" y="-644.5" font-family="Helvetica,sans-Serif" font-size="10.00">duvc::com_apartment</text>
<text xml:space="preserve" text-anchor="middle" x="590" y="-632.5" font-family="Helvetica,sans-Serif" font-size="10.00">::com_apartment</text>
</a>
</g>
</g>
<!-- Node2&#45;&gt;Node10 -->
<g id="edge9_Node000002_Node000010" class="edge">
<title>Node2&#45;&gt;Node10</title>
<g id="a_edge9_Node000002_Node000010"><a xlink:title=" ">
<path fill="none" stroke="#63b8ff" d="M699.1,-672.54C682.21,-667.77 663.08,-662.36 645.65,-657.44"/>
<polygon fill="#63b8ff" stroke="#63b8ff" points="697.81,-675.81 708.38,-675.16 699.71,-669.07 697.81,-675.81"/>
</a>
</g>
</g>
<!-- Node11 -->
<g id="Node000011" class="node">
<title>Node11</title>
<g id="a_Node000011"><a xlink:href="classduvc_1_1DeviceConnection_1_1com__apartment.html#a2c27b488e37ce32f0ecaef9f81328126" target="_top" xlink:title=" ">
<polygon fill="white" stroke="#666666" points="671.5,-608 508.5,-608 508.5,-576 671.5,-576 671.5,-608"/>
<text xml:space="preserve" text-anchor="start" x="516.5" y="-594.5" font-family="Helvetica,sans-Serif" font-size="10.00">duvc::DeviceConnection</text>
<text xml:space="preserve" text-anchor="middle" x="590" y="-582.5" font-family="Helvetica,sans-Serif" font-size="10.00">::com_apartment::com_apartment</text>
</a>
</g>
</g>
<!-- Node2&#45;&gt;Node11 -->
<g id="edge10_Node000002_Node000011" class="edge">
<title>Node2&#45;&gt;Node11</title>
<g id="a_edge10_Node000002_Node000011"><a xlink:title=" ">
<path fill="none" stroke="#63b8ff" d="M730.72,-667.27C716.56,-651.79 694.62,-630.29 671.5,-617 665.92,-613.79 659.88,-610.95 653.7,-608.44"/>
<polygon fill="#63b8ff" stroke="#63b8ff" points="727.84,-669.29 737.1,-674.44 733.07,-664.64 727.84,-669.29"/>
</a>
</g>
</g>
<!-- Node12 -->
<g id="Node000012" class="node">
<title>Node12</title>
<g id="a_Node000012"><a xlink:href="namespaceduvc.html#ab7299b8597bf14b18b8351278c209188" target="_top" xlink:title="Create DirectShow device enumerator.">
<polygon fill="white" stroke="#666666" points="650.12,-696 529.88,-696 529.88,-676 650.12,-676 650.12,-696"/>
<text xml:space="preserve" text-anchor="middle" x="590" y="-682.5" font-family="Helvetica,sans-Serif" font-size="10.00">duvc::create_dev_enum</text>
</a>
</g>
</g>
<!-- Node2&#45;&gt;Node12 -->
<g id="edge11_Node000002_Node000012" class="edge">
<title>Node2&#45;&gt;Node12</title>
<g id="a_edge11_Node000002_Node000012"><a xlink:title=" ">
<path fill="none" stroke="#63b8ff" d="M695.76,-686C681.24,-686 665.31,-686 650.35,-686"/>
<polygon fill="#63b8ff" stroke="#63b8ff" points="695.53,-689.5 705.53,-686 695.53,-682.5 695.53,-689.5"/>
</a>
</g>
</g>
<!-- Node44 -->
<g id="Node000044" class="node">
<title>Node44</title>
<g id="a_Node000044"><a xlink:href="namespaceduvc.html#a1a577c6cd7e4b3106d6f95c15bbceeed" target="_top" xlink:title="Enumerate video input devices.">
<polygon fill="white" stroke="#666666" points="657.25,-734 522.75,-734 522.75,-714 657.25,-714 657.25,-734"/>
<text xml:space="preserve" text-anchor="middle" x="590" y="-720.5" font-family="Helvetica,sans-Serif" font-size="10.00">duvc::enum_video_devices</text>
</a>
</g>
</g>
<!-- Node2&#45;&gt;Node44 -->
<g id="edge47_Node000002_Node000044" class="edge">
<title>Node2&#45;&gt;Node44</title>
<g id="a_edge47_Node000002_Node000044"><a xlink:title=" ">
<path fill="none" stroke="#63b8ff" d="M696.26,-698.86C687.99,-700.94 679.51,-703.04 671.5,-705 659.92,-707.83 647.39,-710.82 635.74,-713.57"/>
<polygon fill="#63b8ff" stroke="#63b8ff" points="697.02,-702.28 705.87,-696.44 695.31,-695.49 697.02,-702.28"/>
</a>
</g>
</g>
<!-- Node4 -->
<g id="Node000004" class="node">
<title>Node4</title>
<g id="a_Node000004"><a xlink:href="namespaceduvc.html#a1345df0af198d75f16c54e38d54c7e63" target="_top" xlink:title="Create DirectShow filter from device.">
<polygon fill="white" stroke="#666666" points="466.12,-862 344.38,-862 344.38,-842 466.12,-842 466.12,-862"/>
<text xml:space="preserve" text-anchor="middle" x="405.25" y="-848.5" font-family="Helvetica,sans-Serif" font-size="10.00">duvc::open_device_filter</text>
</a>
</g>
</g>
<!-- Node3&#45;&gt;Node4 -->
<g id="edge3_Node000003_Node000004" class="edge">
<title>Node3&#45;&gt;Node4</title>
<g id="a_edge3_Node000003_Node000004"><a xlink:title=" ">
<path fill="none" stroke="#63b8ff" d="M535.54,-820.16C507.88,-826.97 474.59,-835.17 448.72,-841.54"/>
<polygon fill="#63b8ff" stroke="#63b8ff" points="536.27,-823.59 545.14,-817.8 534.6,-816.79 536.27,-823.59"/>
</a>
</g>
</g>
<!-- Node5 -->
<g id="Node000005" class="node">
<title>Node5</title>
<g id="a_Node000005"><a xlink:href="classduvc_1_1DeviceConnection.html#a4afc9b6ddaeb6ffdcfcda94dd14f6dbc" target="_top" xlink:title=" ">
<polygon fill="white" stroke="#666666" points="291.5,-1028 168.25,-1028 168.25,-996 291.5,-996 291.5,-1028"/>
<text xml:space="preserve" text-anchor="start" x="176.25" y="-1014.5" font-family="Helvetica,sans-Serif" font-size="10.00">duvc::DeviceConnection</text>
<text xml:space="preserve" text-anchor="middle" x="229.88" y="-1002.5" font-family="Helvetica,sans-Serif" font-size="10.00">::DeviceConnection</text>
</a>
</g>
</g>
<!-- Node4&#45;&gt;Node5 -->
<g id="edge4_Node000004_Node000005" class="edge">
<title>Node4&#45;&gt;Node5</title>
<g id="a_edge4_Node000004_Node000005"><a xlink:title=" ">
<path fill="none" stroke="#63b8ff" d="M393.87,-872.38C377.94,-901.74 344.75,-955.81 302,-987 297.56,-990.24 292.66,-993.09 287.57,-995.59"/>
<polygon fill="#63b8ff" stroke="#63b8ff" points="396.84,-874.26 398.41,-863.78 390.65,-870.99 396.84,-874.26"/>
</a>
</g>
</g>
<!-- Node6 -->
<g id="Node000006" class="node">
<title>Node6</title>
<g id="a_Node000006"><a xlink:href="namespaceduvc.html#aa019a1c9788c84f47348db3f03b25d42" target="_top" xlink:title="Get vendor&#45;specific property data from device.">
<polygon fill="white" stroke="#666666" points="295.62,-978 164.12,-978 164.12,-958 295.62,-958 295.62,-978"/>
<text xml:space="preserve" text-anchor="middle" x="229.88" y="-964.5" font-family="Helvetica,sans-Serif" font-size="10.00">duvc::get_vendor_property</text>
</a>
</g>
</g>
<!-- Node4&#45;&gt;Node6 -->
<g id="edge5_Node000004_Node000006" class="edge">
<title>Node4&#45;&gt;Node6</title>
<g id="a_edge5_Node000004_Node000006"><a xlink:title=" ">
<path fill="none" stroke="#63b8ff" d="M389.35,-871C371.09,-893.01 338.09,-928.81 302,-949 295.87,-952.43 289.08,-955.27 282.22,-957.6"/>
<polygon fill="#63b8ff" stroke="#63b8ff" points="391.93,-873.38 395.5,-863.41 386.49,-868.98 391.93,-873.38"/>
</a>
</g>
</g>
<!-- Node7 -->
<g id="Node000007" class="node">
<title>Node7</title>
<g id="a_Node000007"><a xlink:href="classduvc_1_1KsPropertySet.html#aac9242599b92d9f1880f63f2256c72e3" target="_top" xlink:title="Create KsPropertySet from device.">
<polygon fill="white" stroke="#666666" points="283.25,-940 176.5,-940 176.5,-908 283.25,-908 283.25,-940"/>
<text xml:space="preserve" text-anchor="start" x="184.5" y="-926.5" font-family="Helvetica,sans-Serif" font-size="10.00">duvc::KsPropertySet</text>
<text xml:space="preserve" text-anchor="middle" x="229.88" y="-914.5" font-family="Helvetica,sans-Serif" font-size="10.00">::KsPropertySet</text>
</a>
</g>
</g>
<!-- Node4&#45;&gt;Node7 -->
<g id="edge6_Node000004_Node000007" class="edge">
<title>Node4&#45;&gt;Node7</title>
<g id="a_edge6_Node000004_Node000007"><a xlink:title=" ">
<path fill="none" stroke="#63b8ff" d="M372.84,-867.36C352.78,-876.93 326.1,-889.25 302,-899 294.84,-901.9 287.2,-904.79 279.69,-907.52"/>
<polygon fill="#63b8ff" stroke="#63b8ff" points="374.1,-870.63 381.6,-863.15 371.07,-864.33 374.1,-870.63"/>
</a>
</g>
</g>
<!-- Node8 -->
<g id="Node000008" class="node">
<title>Node8</title>
<g id="a_Node000008"><a xlink:href="namespaceduvc.html#a5ddd570cc76e8dbdef26ad18660ddb07" target="_top" xlink:title="Query whether device supports a vendor&#45;specific property.">
<polygon fill="white" stroke="#666666" points="280.62,-890 179.12,-890 179.12,-858 280.62,-858 280.62,-890"/>
<text xml:space="preserve" text-anchor="start" x="187.12" y="-876.5" font-family="Helvetica,sans-Serif" font-size="10.00">duvc::query_vendor</text>
<text xml:space="preserve" text-anchor="middle" x="229.88" y="-864.5" font-family="Helvetica,sans-Serif" font-size="10.00">_property_support</text>
</a>
</g>
</g>
<!-- Node4&#45;&gt;Node8 -->
<g id="edge7_Node000004_Node000008" class="edge">
<title>Node4&#45;&gt;Node8</title>
<g id="a_edge7_Node000004_Node000008"><a xlink:title=" ">
<path fill="none" stroke="#63b8ff" d="M332.79,-861.07C315.35,-863.28 297.06,-865.6 280.86,-867.66"/>
<polygon fill="#63b8ff" stroke="#63b8ff" points="333.12,-864.55 342.6,-859.82 332.24,-857.61 333.12,-864.55"/>
</a>
</g>
</g>
<!-- Node9 -->
<g id="Node000009" class="node">
<title>Node9</title>
<g id="a_Node000009"><a xlink:href="namespaceduvc.html#ab333863cefef68546e2e235527fe3b5c" target="_top" xlink:title="Set vendor&#45;specific property data on device.">
<polygon fill="white" stroke="#666666" points="295.62,-840 164.12,-840 164.12,-820 295.62,-820 295.62,-840"/>
<text xml:space="preserve" text-anchor="middle" x="229.88" y="-826.5" font-family="Helvetica,sans-Serif" font-size="10.00">duvc::set_vendor_property</text>
</a>
</g>
</g>
<!-- Node4&#45;&gt;Node9 -->
<g id="edge8_Node000004_Node000009" class="edge">
<title>Node4&#45;&gt;Node9</title>
<g id="a_edge8_Node000004_Node000009"><a xlink:title=" ">
<path fill="none" stroke="#63b8ff" d="M332.99,-842.96C320.72,-841.4 308.04,-839.79 295.95,-838.26"/>
<polygon fill="#63b8ff" stroke="#63b8ff" points="332.24,-846.39 342.6,-844.18 333.12,-839.45 332.24,-846.39"/>
</a>
</g>
</g>
<!-- Node12&#45;&gt;Node4 -->
<g id="edge46_Node000012_Node000004" class="edge">
<title>Node12&#45;&gt;Node4</title>
<g id="a_edge46_Node000012_Node000004"><a xlink:title=" ">
<path fill="none" stroke="#63b8ff" d="M519.36,-698.86C515.56,-700.65 511.91,-702.68 508.5,-705 455.29,-741.2 421.28,-814.97 410.21,-841.88"/>
<polygon fill="#63b8ff" stroke="#63b8ff" points="520.35,-702.23 528.31,-695.24 517.72,-695.74 520.35,-702.23"/>
</a>
</g>
</g>
<!-- Node13 -->
<g id="Node000013" class="node">
<title>Node13</title>
<g id="a_Node000013"><a xlink:href="namespaceduvc.html#ab42651167ff39abe9e70713ac6db65b9" target="_top" xlink:title="Check if a device is currently connected and accessible.">
<polygon fill="white" stroke="#666666" points="472.5,-696 338,-696 338,-676 472.5,-676 472.5,-696"/>
<text xml:space="preserve" text-anchor="middle" x="405.25" y="-682.5" font-family="Helvetica,sans-Serif" font-size="10.00">duvc::is_device_connected</text>
</a>
</g>
</g>
<!-- Node12&#45;&gt;Node13 -->
<g id="edge12_Node000012_Node000013" class="edge">
<title>Node12&#45;&gt;Node13</title>
<g id="a_edge12_Node000012_Node000013"><a xlink:title=" ">
<path fill="none" stroke="#63b8ff" d="M518.16,-686C503.21,-686 487.49,-686 472.71,-686"/>
<polygon fill="#63b8ff" stroke="#63b8ff" points="517.9,-689.5 527.9,-686 517.9,-682.5 517.9,-689.5"/>
</a>
</g>
</g>
<!-- Node21 -->
<g id="Node000021" class="node">
<title>Node21</title>
<g id="a_Node000021"><a xlink:href="namespaceduvc.html#a2c254074ce671320e3e57c56a9389ac1" target="_top" xlink:title="Enumerate all available video input devices.">
<polygon fill="white" stroke="#666666" points="452.62,-342 357.88,-342 357.88,-322 452.62,-322 452.62,-342"/>
<text xml:space="preserve" text-anchor="middle" x="405.25" y="-328.5" font-family="Helvetica,sans-Serif" font-size="10.00">duvc::list_devices</text>
</a>
</g>
</g>
<!-- Node12&#45;&gt;Node21 -->
<g id="edge21_Node000012_Node000021" class="edge">
<title>Node12&#45;&gt;Node21</title>
<g id="a_edge21_Node000012_Node000021"><a xlink:title=" ">
<path fill="none" stroke="#63b8ff" d="M519.35,-674.86C515.43,-672.66 511.77,-670.06 508.5,-667 409.35,-574.05 405.39,-388.06 405.98,-342.33"/>
<polygon fill="#63b8ff" stroke="#63b8ff" points="517.6,-677.91 528.15,-678.92 520.53,-671.55 517.6,-677.91"/>
</a>
</g>
</g>
<!-- Node14 -->
<g id="Node000014" class="node">
<title>Node14</title>
<g id="a_Node000014"><a xlink:href="classduvc_1_1DeviceCapabilities.html#a1275f0a40ef3c3462236e21de5feb0ee" target="_top" xlink:title="Create capabilities snapshot for device.">
<polygon fill="white" stroke="#666666" points="292.25,-802 167.5,-802 167.5,-770 292.25,-770 292.25,-802"/>
<text xml:space="preserve" text-anchor="start" x="175.5" y="-788.5" font-family="Helvetica,sans-Serif" font-size="10.00">duvc::DeviceCapabilities</text>
<text xml:space="preserve" text-anchor="middle" x="229.88" y="-776.5" font-family="Helvetica,sans-Serif" font-size="10.00">::DeviceCapabilities</text>
</a>
</g>
</g>
<!-- Node13&#45;&gt;Node14 -->
<g id="edge13_Node000013_Node000014" class="edge">
<title>Node13&#45;&gt;Node14</title>
<g id="a_edge13_Node000013_Node000014"><a xlink:title=" ">
<path fill="none" stroke="#63b8ff" d="M383.69,-703.93C363.86,-720.5 332.46,-744.93 302,-761 296.1,-764.11 289.72,-766.98 283.3,-769.57"/>
<polygon fill="#63b8ff" stroke="#63b8ff" points="385.94,-706.61 391.29,-697.47 381.4,-701.28 385.94,-706.61"/>
</a>
</g>
</g>
<!-- Node15 -->
<g id="Node000015" class="node">
<title>Node15</title>
<g id="a_Node000015"><a xlink:href="api_8cpp.html#a2443011d38e904503e646d3da95252a2" target="_top" xlink:title="Check if device is connected.">
<polygon fill="white" stroke="#666666" points="296.75,-752 163,-752 163,-732 296.75,-732 296.75,-752"/>
<text xml:space="preserve" text-anchor="middle" x="229.88" y="-738.5" font-family="Helvetica,sans-Serif" font-size="10.00">duvc_is_device_connected</text>
</a>
</g>
</g>
<!-- Node13&#45;&gt;Node15 -->
<g id="edge14_Node000013_Node000015" class="edge">
<title>Node13&#45;&gt;Node15</title>
<g id="a_edge14_Node000013_Node000015"><a xlink:title=" ">
<path fill="none" stroke="#63b8ff" d="M366.82,-700.42C347.58,-707.61 323.68,-716.2 302,-723 292.49,-725.99 282.17,-728.92 272.42,-731.55"/>
<polygon fill="#63b8ff" stroke="#63b8ff" points="368.02,-703.71 376.14,-696.91 365.55,-697.16 368.02,-703.71"/>
</a>
</g>
</g>
<!-- Node16 -->
<g id="Node000016" class="node">
<title>Node16</title>
<g id="a_Node000016"><a xlink:href="bindings_8cpp.html#ae6c4b34fa8f4bfc8b53488ce2fccad7b" target="_top" xlink:title=" ">
<polygon fill="white" stroke="#666666" points="296.75,-570 163,-570 163,-550 296.75,-550 296.75,-570"/>
<text xml:space="preserve" text-anchor="middle" x="229.88" y="-556.5" font-family="Helvetica,sans-Serif" font-size="10.00">duvc_is_device_connected</text>
</a>
</g>
</g>
<!-- Node13&#45;&gt;Node16 -->
<g id="edge15_Node000013_Node000016" class="edge">
<title>Node13&#45;&gt;Node16</title>
<g id="a_edge15_Node000013_Node000016"><a xlink:title=" ">
<path fill="none" stroke="#63b8ff" d="M390.85,-666.43C373.26,-642.25 340.11,-601.56 302,-579 296.17,-575.55 289.71,-572.71 283.12,-570.38"/>
<polygon fill="#63b8ff" stroke="#63b8ff" points="387.89,-668.31 396.53,-674.44 393.6,-664.26 387.89,-668.31"/>
</a>
</g>
</g>
<!-- Node17 -->
<g id="Node000017" class="node">
<title>Node17</title>
<g id="a_Node000017"><a xlink:href="classduvc_1_1Camera.html#a682f869dcea95cc310c86275872c00d2" target="_top" xlink:title="Check if camera is valid and connected.">
<polygon fill="white" stroke="#666666" points="288.12,-696 171.62,-696 171.62,-676 288.12,-676 288.12,-696"/>
<text xml:space="preserve" text-anchor="middle" x="229.88" y="-682.5" font-family="Helvetica,sans-Serif" font-size="10.00">duvc::Camera::is_valid</text>
</a>
</g>
</g>
<!-- Node13&#45;&gt;Node17 -->
<g id="edge16_Node000013_Node000017" class="edge">
<title>Node13&#45;&gt;Node17</title>
<g id="a_edge16_Node000013_Node000017"><a xlink:title=" ">
<path fill="none" stroke="#63b8ff" d="M326.56,-686C313.75,-686 300.67,-686 288.47,-686"/>
<polygon fill="#63b8ff" stroke="#63b8ff" points="326.2,-689.5 336.2,-686 326.2,-682.5 326.2,-689.5"/>
</a>
</g>
</g>
<!-- Node18 -->
<g id="Node000018" class="node">
<title>Node18</title>
<g id="a_Node000018"><a xlink:href="namespaceduvc.html#aff098bd345fe014553d8b82c5f58b89f" target="_top" xlink:title="Create camera from device.">
<polygon fill="white" stroke="#666666" points="280.62,-658 179.12,-658 179.12,-638 280.62,-638 280.62,-658"/>
<text xml:space="preserve" text-anchor="middle" x="229.88" y="-644.5" font-family="Helvetica,sans-Serif" font-size="10.00">duvc::open_camera</text>
</a>
</g>
</g>
<!-- Node13&#45;&gt;Node18 -->
<g id="edge18_Node000013_Node000018" class="edge">
<title>Node13&#45;&gt;Node18</title>
<g id="a_edge18_Node000013_Node000018"><a xlink:title=" ">
<path fill="none" stroke="#63b8ff" d="M345.31,-673.08C323.55,-668.31 299.19,-662.97 278.55,-658.45"/>
<polygon fill="#63b8ff" stroke="#63b8ff" points="344.42,-676.47 354.94,-675.19 345.92,-669.63 344.42,-676.47"/>
</a>
</g>
</g>
<!-- Node19 -->
<g id="Node000019" class="node">
<title>Node19</title>
<g id="a_Node000019"><a xlink:href="classduvc_1_1DeviceCapabilities.html#a736006fec61636a4326e29373d172a44" target="_top" xlink:title="Refresh capability snapshot.">
<polygon fill="white" stroke="#666666" points="292.25,-620 167.5,-620 167.5,-588 292.25,-588 292.25,-620"/>
<text xml:space="preserve" text-anchor="start" x="175.5" y="-606.5" font-family="Helvetica,sans-Serif" font-size="10.00">duvc::DeviceCapabilities</text>
<text xml:space="preserve" text-anchor="middle" x="229.88" y="-594.5" font-family="Helvetica,sans-Serif" font-size="10.00">::refresh</text>
</a>
</g>
</g>
<!-- Node13&#45;&gt;Node19 -->
<g id="edge19_Node000013_Node000019" class="edge">
<title>Node13&#45;&gt;Node19</title>
<g id="a_edge19_Node000013_Node000019"><a xlink:title=" ">
<path fill="none" stroke="#63b8ff" d="M377.95,-669.7C357.67,-657.53 328.67,-641.01 302,-629 295.32,-625.99 288.15,-623.1 281.04,-620.42"/>
<polygon fill="#63b8ff" stroke="#63b8ff" points="376.04,-672.63 386.41,-674.83 379.67,-666.65 376.04,-672.63"/>
</a>
</g>
</g>
<!-- Node17&#45;&gt;Node17 -->
<g id="edge17_Node000017_Node000017" class="edge">
<title>Node17&#45;&gt;Node17</title>
<g id="a_edge17_Node000017_Node000017"><a xlink:title=" ">
<path fill="none" stroke="#63b8ff" d="M259.74,-707.44C255.9,-711.3 245.94,-714 229.88,-714 200.5,-714 191.55,-704.98 203.02,-696.34"/>
<polygon fill="#63b8ff" stroke="#63b8ff" points="263.12,-706.53 257.12,-697.8 256.37,-708.37 263.12,-706.53"/>
</a>
</g>
</g>
<!-- Node20 -->
<g id="Node000020" class="node">
<title>Node20</title>
<g id="a_Node000020"><a xlink:href="api_8cpp.html#a2250e42d04f148b7fc027c026f9a0495" target="_top" xlink:title="Refresh capabilities snapshot.">
<polygon fill="white" stroke="#666666" points="113.88,-620 7.88,-620 7.88,-588 113.88,-588 113.88,-620"/>
<text xml:space="preserve" text-anchor="start" x="15.88" y="-606.5" font-family="Helvetica,sans-Serif" font-size="10.00">duvc_refresh_device</text>
<text xml:space="preserve" text-anchor="middle" x="60.88" y="-594.5" font-family="Helvetica,sans-Serif" font-size="10.00">_capabilities</text>
</a>
</g>
</g>
<!-- Node19&#45;&gt;Node20 -->
<g id="edge20_Node000019_Node000020" class="edge">
<title>Node19&#45;&gt;Node20</title>
<g id="a_edge20_Node000019_Node000020"><a xlink:title=" ">
<path fill="none" stroke="#63b8ff" d="M156.02,-604C141.98,-604 127.52,-604 114.29,-604"/>
<polygon fill="#63b8ff" stroke="#63b8ff" points="155.65,-607.5 165.65,-604 155.65,-600.5 155.65,-607.5"/>
</a>
</g>
</g>
<!-- Node21&#45;&gt;Node16 -->
<g id="edge29_Node000021_Node000016" class="edge">
<title>Node21&#45;&gt;Node16</title>
<g id="a_edge29_Node000021_Node000016"><a xlink:title=" ">
<path fill="none" stroke="#63b8ff" d="M400,-353.25C390.39,-395.63 362.91,-490.89 302,-541 297.85,-544.41 293.15,-547.21 288.19,-549.52"/>
<polygon fill="#63b8ff" stroke="#63b8ff" points="403.4,-354.11 402.07,-343.6 396.55,-352.65 403.4,-354.11"/>
</a>
</g>
</g>
<!-- Node22 -->
<g id="Node000022" class="node">
<title>Node22</title>
<g id="a_Node000022"><a xlink:href="classduvc_1_1Camera.html#afb78983227d8207306746d433c9fa570" target="_top" xlink:title="Create camera handle by device index.">
<polygon fill="white" stroke="#666666" points="288.88,-248 170.88,-248 170.88,-228 288.88,-228 288.88,-248"/>
<text xml:space="preserve" text-anchor="middle" x="229.88" y="-234.5" font-family="Helvetica,sans-Serif" font-size="10.00">duvc::Camera::Camera</text>
</a>
</g>
</g>
<!-- Node21&#45;&gt;Node22 -->
<g id="edge22_Node000021_Node000022" class="edge">
<title>Node21&#45;&gt;Node22</title>
<g id="a_edge22_Node000021_Node000022"><a xlink:title=" ">
<path fill="none" stroke="#63b8ff" d="M384.61,-314.09C365.01,-297.12 333.39,-272.05 302,-257 294.97,-253.63 287.25,-250.79 279.57,-248.41"/>
<polygon fill="#63b8ff" stroke="#63b8ff" points="382.26,-316.69 392.07,-320.69 386.9,-311.45 382.26,-316.69"/>
</a>
</g>
</g>
<!-- Node23 -->
<g id="Node000023" class="node">
<title>Node23</title>
<g id="a_Node000023"><a xlink:href="bindings_8cpp.html#a2eeaa75b5bece22f8ece44907ed9f569" target="_top" xlink:title=" ">
<polygon fill="white" stroke="#666666" points="269.75,-210 190,-210 190,-190 269.75,-190 269.75,-210"/>
<text xml:space="preserve" text-anchor="middle" x="229.88" y="-196.5" font-family="Helvetica,sans-Serif" font-size="10.00">duvc_cam_get</text>
</a>
</g>
</g>
<!-- Node21&#45;&gt;Node23 -->
<g id="edge23_Node000021_Node000023" class="edge">
<title>Node21&#45;&gt;Node23</title>
<g id="a_edge23_Node000021_Node000023"><a xlink:title=" ">
<path fill="none" stroke="#63b8ff" d="M391.86,-312.42C374.75,-287.02 341.49,-243.11 302,-219 292.4,-213.14 281,-209.06 270.16,-206.24"/>
<polygon fill="#63b8ff" stroke="#63b8ff" points="388.74,-314.06 397.15,-320.5 394.6,-310.22 388.74,-314.06"/>
</a>
</g>
</g>
<!-- Node24 -->
<g id="Node000024" class="node">
<title>Node24</title>
<g id="a_Node000024"><a xlink:href="bindings_8cpp.html#a7e5b8b6d1b9f093497e11e827ee56004" target="_top" xlink:title=" ">
<polygon fill="white" stroke="#666666" points="284.38,-172 175.38,-172 175.38,-152 284.38,-152 284.38,-172"/>
<text xml:space="preserve" text-anchor="middle" x="229.88" y="-158.5" font-family="Helvetica,sans-Serif" font-size="10.00">duvc_cam_get_range</text>
</a>
</g>
</g>
<!-- Node21&#45;&gt;Node24 -->
<g id="edge24_Node000021_Node000024" class="edge">
<title>Node21&#45;&gt;Node24</title>
<g id="a_edge24_Node000021_Node000024"><a xlink:title=" ">
<path fill="none" stroke="#63b8ff" d="M395.88,-311.09C381.65,-278.25 349.56,-214.83 302,-181 296.79,-177.3 290.91,-174.31 284.8,-171.91"/>
<polygon fill="#63b8ff" stroke="#63b8ff" points="392.65,-312.42 399.73,-320.3 399.11,-309.72 392.65,-312.42"/>
</a>
</g>
</g>
<!-- Node25 -->
<g id="Node000025" class="node">
<title>Node25</title>
<g id="a_Node000025"><a xlink:href="bindings_8cpp.html#a58f06af7a7bba166129e38505c2afd4d" target="_top" xlink:title=" ">
<polygon fill="white" stroke="#666666" points="269.75,-134 190,-134 190,-114 269.75,-114 269.75,-134"/>
<text xml:space="preserve" text-anchor="middle" x="229.88" y="-120.5" font-family="Helvetica,sans-Serif" font-size="10.00">duvc_cam_set</text>
</a>
</g>
</g>
<!-- Node21&#45;&gt;Node25 -->
<g id="edge25_Node000021_Node000025" class="edge">
<title>Node21&#45;&gt;Node25</title>
<g id="a_edge25_Node000021_Node000025"><a xlink:title=" ">
<path fill="none" stroke="#63b8ff" d="M398.77,-310.61C387.54,-271.24 358.15,-187.3 302,-143 292.87,-135.8 281.24,-131.31 270.05,-128.53"/>
<polygon fill="#63b8ff" stroke="#63b8ff" points="395.33,-311.32 401.33,-320.05 402.09,-309.48 395.33,-311.32"/>
</a>
</g>
</g>
<!-- Node26 -->
<g id="Node000026" class="node">
<title>Node26</title>
<g id="a_Node000026"><a xlink:href="bindings_8cpp.html#a7eae96ab0b9ad48d78466336076360e0" target="_top" xlink:title=" ">
<polygon fill="white" stroke="#666666" points="289.25,-96 170.5,-96 170.5,-76 289.25,-76 289.25,-96"/>
<text xml:space="preserve" text-anchor="middle" x="229.88" y="-82.5" font-family="Helvetica,sans-Serif" font-size="10.00">duvc_get_device_count</text>
</a>
</g>
</g>
<!-- Node21&#45;&gt;Node26 -->
<g id="edge26_Node000021_Node000026" class="edge">
<title>Node21&#45;&gt;Node26</title>
<g id="a_edge26_Node000021_Node000026"><a xlink:title=" ">
<path fill="none" stroke="#63b8ff" d="M400.86,-310.47C392.57,-265.3 367.03,-160.26 302,-105 297.91,-101.52 293.25,-98.68 288.31,-96.35"/>
<polygon fill="#63b8ff" stroke="#63b8ff" points="397.36,-310.78 402.5,-320.04 404.26,-309.59 397.36,-310.78"/>
</a>
</g>
</g>
<!-- Node27 -->
<g id="Node000027" class="node">
<title>Node27</title>
<g id="a_Node000027"><a xlink:href="bindings_8cpp.html#a56e6df6631c2fb647fcb3a8641bc8e49" target="_top" xlink:title=" ">
<polygon fill="white" stroke="#666666" points="289.25,-58 170.5,-58 170.5,-38 289.25,-38 289.25,-58"/>
<text xml:space="preserve" text-anchor="middle" x="229.88" y="-44.5" font-family="Helvetica,sans-Serif" font-size="10.00">duvc_get_device_name</text>
</a>
</g>
</g>
<!-- Node21&#45;&gt;Node27 -->
<g id="edge27_Node000021_Node000027" class="edge">
<title>Node21&#45;&gt;Node27</title>
<g id="a_edge27_Node000021_Node000027"><a xlink:title=" ">
<path fill="none" stroke="#63b8ff" d="M402.37,-310.08C396.82,-259.4 375.91,-133.38 302,-67 298.2,-63.58 293.85,-60.77 289.21,-58.46"/>
<polygon fill="#63b8ff" stroke="#63b8ff" points="398.88,-310.4 403.35,-320.01 405.85,-309.71 398.88,-310.4"/>
</a>
</g>
</g>
<!-- Node28 -->
<g id="Node000028" class="node">
<title>Node28</title>
<g id="a_Node000028"><a xlink:href="bindings_8cpp.html#a96f4ab988208d0f8432d7134f367283b" target="_top" xlink:title=" ">
<polygon fill="white" stroke="#666666" points="286.62,-20 173.12,-20 173.12,0 286.62,0 286.62,-20"/>
<text xml:space="preserve" text-anchor="middle" x="229.88" y="-6.5" font-family="Helvetica,sans-Serif" font-size="10.00">duvc_get_device_path</text>
</a>
</g>
</g>
<!-- Node21&#45;&gt;Node28 -->
<g id="edge28_Node000021_Node000028" class="edge">
<title>Node21&#45;&gt;Node28</title>
<g id="a_edge28_Node000021_Node000028"><a xlink:title=" ">
<path fill="none" stroke="#63b8ff" d="M403.6,-310.38C400.72,-255.03 385.23,-107.03 302,-29 297.62,-24.89 292.45,-21.65 286.93,-19.1"/>
<polygon fill="#63b8ff" stroke="#63b8ff" points="400.09,-310.2 404,-320.04 407.08,-309.91 400.09,-310.2"/>
</a>
</g>
</g>
<!-- Node29 -->
<g id="Node000029" class="node">
<title>Node29</title>
<g id="a_Node000029"><a xlink:href="api_8cpp.html#a4858259a9c4d23ce0d671b52615c3e74" target="_top" xlink:title="List all connected devices.">
<polygon fill="white" stroke="#666666" points="276.88,-532 182.88,-532 182.88,-512 276.88,-512 276.88,-532"/>
<text xml:space="preserve" text-anchor="middle" x="229.88" y="-518.5" font-family="Helvetica,sans-Serif" font-size="10.00">duvc_list_devices</text>
</a>
</g>
</g>
<!-- Node21&#45;&gt;Node29 -->
<g id="edge30_Node000021_Node000029" class="edge">
<title>Node21&#45;&gt;Node29</title>
<g id="a_edge30_Node000021_Node000029"><a xlink:title=" ">
<path fill="none" stroke="#63b8ff" d="M397.56,-353.1C384.94,-389.44 354.09,-463.69 302,-503 294.76,-508.47 286.06,-512.36 277.27,-515.14"/>
<polygon fill="#63b8ff" stroke="#63b8ff" points="400.83,-354.37 400.67,-343.78 394.19,-352.16 400.83,-354.37"/>
</a>
</g>
</g>
<!-- Node30 -->
<g id="Node000030" class="node">
<title>Node30</title>
<g id="a_Node000030"><a xlink:href="bindings_8cpp.html#a447135500d1651a64fc752ea40d3f2ec" target="_top" xlink:title=" ">
<polygon fill="white" stroke="#666666" points="285.5,-494 174.25,-494 174.25,-474 285.5,-474 285.5,-494"/>
<text xml:space="preserve" text-anchor="middle" x="229.88" y="-480.5" font-family="Helvetica,sans-Serif" font-size="10.00">duvc_refresh_devices</text>
</a>
</g>
</g>
<!-- Node21&#45;&gt;Node30 -->
<g id="edge31_Node000021_Node000030" class="edge">
<title>Node21&#45;&gt;Node30</title>
<g id="a_edge31_Node000021_Node000030"><a xlink:title=" ">
<path fill="none" stroke="#63b8ff" d="M394.33,-352.08C378.77,-381.44 345.83,-435.77 302,-465 296.79,-468.48 290.97,-471.32 284.96,-473.64"/>
<polygon fill="#63b8ff" stroke="#63b8ff" points="397.28,-353.99 398.73,-343.5 391.05,-350.8 397.28,-353.99"/>
</a>
</g>
</g>
<!-- Node31 -->
<g id="Node000031" class="node">
<title>Node31</title>
<g id="a_Node000031"><a xlink:href="bindings_8cpp.html#a2ef0f3ef211dffa60691ec69734cb8ba" target="_top" xlink:title=" ">
<polygon fill="white" stroke="#666666" points="266.75,-456 193,-456 193,-436 266.75,-436 266.75,-456"/>
<text xml:space="preserve" text-anchor="middle" x="229.88" y="-442.5" font-family="Helvetica,sans-Serif" font-size="10.00">duvc_vid_get</text>
</a>
</g>
</g>
<!-- Node21&#45;&gt;Node31 -->
<g id="edge32_Node000021_Node000031" class="edge">
<title>Node21&#45;&gt;Node31</title>
<g id="a_edge32_Node000021_Node000031"><a xlink:title=" ">
<path fill="none" stroke="#63b8ff" d="M388.98,-350.93C370.58,-372.5 337.66,-407.3 302,-427 291.26,-432.93 278.57,-437.09 266.91,-439.97"/>
<polygon fill="#63b8ff" stroke="#63b8ff" points="391.48,-353.4 395.19,-343.48 386.1,-348.92 391.48,-353.4"/>
</a>
</g>
</g>
<!-- Node32 -->
<g id="Node000032" class="node">
<title>Node32</title>
<g id="a_Node000032"><a xlink:href="bindings_8cpp.html#afeb5120c76b876c78b2d47af23770647" target="_top" xlink:title=" ">
<polygon fill="white" stroke="#666666" points="281.38,-418 178.38,-418 178.38,-398 281.38,-398 281.38,-418"/>
<text xml:space="preserve" text-anchor="middle" x="229.88" y="-404.5" font-family="Helvetica,sans-Serif" font-size="10.00">duvc_vid_get_range</text>
</a>
</g>
</g>
<!-- Node21&#45;&gt;Node32 -->
<g id="edge33_Node000021_Node000032" class="edge">
<title>Node21&#45;&gt;Node32</title>
<g id="a_edge33_Node000021_Node000032"><a xlink:title=" ">
<path fill="none" stroke="#63b8ff" d="M378.91,-348.46C358.74,-360.98 329.43,-377.89 302,-389 293.94,-392.26 285.15,-395.13 276.58,-397.59"/>
<polygon fill="#63b8ff" stroke="#63b8ff" points="380.7,-351.47 387.29,-343.17 376.97,-345.55 380.7,-351.47"/>
</a>
</g>
</g>
<!-- Node33 -->
<g id="Node000033" class="node">
<title>Node33</title>
<g id="a_Node000033"><a xlink:href="bindings_8cpp.html#a2e76b2547f3ee2427b1cf27ad9b358d6" target="_top" xlink:title=" ">
<polygon fill="white" stroke="#666666" points="266.75,-380 193,-380 193,-360 266.75,-360 266.75,-380"/>
<text xml:space="preserve" text-anchor="middle" x="229.88" y="-366.5" font-family="Helvetica,sans-Serif" font-size="10.00">duvc_vid_set</text>
</a>
</g>
</g>
<!-- Node21&#45;&gt;Node33 -->
<g id="edge34_Node000021_Node000033" class="edge">
<title>Node21&#45;&gt;Node33</title>
<g id="a_edge34_Node000021_Node000033"><a xlink:title=" ">
<path fill="none" stroke="#63b8ff" d="M346.79,-344.59C320.47,-350.36 290.08,-357.02 267.02,-362.08"/>
<polygon fill="#63b8ff" stroke="#63b8ff" points="347.29,-348.07 356.31,-342.51 345.79,-341.23 347.29,-348.07"/>
</a>
</g>
</g>
<!-- Node34 -->
<g id="Node000034" class="node">
<title>Node34</title>
<g id="a_Node000034"><a xlink:href="namespaceduvc.html#a0af4366057ae8014aee4989ab3fd7671" target="_top" xlink:title="Create device capability snapshot by index.">
<polygon fill="white" stroke="#666666" points="302,-342 157.75,-342 157.75,-322 302,-322 302,-342"/>
<text xml:space="preserve" text-anchor="middle" x="229.88" y="-328.5" font-family="Helvetica,sans-Serif" font-size="10.00">duvc::get_device_capabilities</text>
</a>
</g>
</g>
<!-- Node21&#45;&gt;Node34 -->
<g id="edge35_Node000021_Node000034" class="edge">
<title>Node21&#45;&gt;Node34</title>
<g id="a_edge35_Node000021_Node000034"><a xlink:title=" ">
<path fill="none" stroke="#63b8ff" d="M346.68,-332C332.46,-332 317.06,-332 302.28,-332"/>
<polygon fill="#63b8ff" stroke="#63b8ff" points="346.28,-335.5 356.28,-332 346.28,-328.5 346.28,-335.5"/>
</a>
</g>
</g>
<!-- Node35 -->
<g id="Node000035" class="node">
<title>Node35</title>
<g id="a_Node000035"><a xlink:href="namespaceduvc.html#ac682048b44b6b2ee33d99dd460c24f25" target="_top" xlink:title="Create camera from device index.">
<polygon fill="white" stroke="#666666" points="280.62,-286 179.12,-286 179.12,-266 280.62,-266 280.62,-286"/>
<text xml:space="preserve" text-anchor="middle" x="229.88" y="-272.5" font-family="Helvetica,sans-Serif" font-size="10.00">duvc::open_camera</text>
</a>
</g>
</g>
<!-- Node21&#45;&gt;Node35 -->
<g id="edge36_Node000021_Node000035" class="edge">
<title>Node21&#45;&gt;Node35</title>
<g id="a_edge36_Node000021_Node000035"><a xlink:title=" ">
<path fill="none" stroke="#63b8ff" d="M361.34,-318.14C330.97,-308.33 290.88,-295.38 263.2,-286.44"/>
<polygon fill="#63b8ff" stroke="#63b8ff" points="360.01,-321.39 370.61,-321.13 362.17,-314.73 360.01,-321.39"/>
</a>
</g>
</g>
<!-- Node35&#45;&gt;Node35 -->
<g id="edge45_Node000035_Node000035" class="edge">
<title>Node35&#45;&gt;Node35</title>
<g id="a_edge45_Node000035_Node000035"><a xlink:title=" ">
<path fill="none" stroke="#63b8ff" d="M259.74,-297.44C255.9,-301.3 245.94,-304 229.88,-304 200.5,-304 191.55,-294.98 203.02,-286.34"/>
<polygon fill="#63b8ff" stroke="#63b8ff" points="263.12,-296.53 257.12,-287.8 256.37,-298.37 263.12,-296.53"/>
</a>
</g>
</g>
<!-- Node36 -->
<g id="Node000036" class="node">
<title>Node36</title>
<g id="a_Node000036"><a xlink:href="api_8cpp.html#a6c818dfe0ce43fce1ac013dcfcc97ab6" target="_top" xlink:title="Open camera by device handle.">
<polygon fill="white" stroke="#666666" points="111.25,-405 10.5,-405 10.5,-385 111.25,-385 111.25,-405"/>
<text xml:space="preserve" text-anchor="middle" x="60.88" y="-391.5" font-family="Helvetica,sans-Serif" font-size="10.00">duvc_open_camera</text>
</a>
</g>
</g>
<!-- Node35&#45;&gt;Node36 -->
<g id="edge37_Node000035_Node000036" class="edge">
<title>Node35&#45;&gt;Node36</title>
<g id="a_edge37_Node000035_Node000036"><a xlink:title=" ">
<path fill="none" stroke="#63b8ff" d="M190.03,-291.2C178.73,-296.87 166.97,-304.14 157.75,-313 134.5,-335.35 146.84,-355.74 121.75,-376 117.51,-379.43 112.64,-382.24 107.55,-384.55"/>
<polygon fill="#63b8ff" stroke="#63b8ff" points="191.24,-294.49 198.81,-287.07 188.27,-288.15 191.24,-294.49"/>
</a>
</g>
</g>
<!-- Node37 -->
<g id="Node000037" class="node">
<title>Node37</title>
<g id="a_Node000037"><a xlink:href="api_8cpp.html#af3c0339eb2da66e4c693795c1e516a94" target="_top" xlink:title="Open camera by device index.">
<polygon fill="white" stroke="#666666" points="119.12,-367 2.62,-367 2.62,-335 119.12,-335 119.12,-367"/>
<text xml:space="preserve" text-anchor="start" x="10.62" y="-353.5" font-family="Helvetica,sans-Serif" font-size="10.00">duvc_open_camera_by</text>
<text xml:space="preserve" text-anchor="middle" x="60.88" y="-341.5" font-family="Helvetica,sans-Serif" font-size="10.00">_index</text>
</a>
</g>
</g>
<!-- Node35&#45;&gt;Node37 -->
<g id="edge38_Node000035_Node000037" class="edge">
<title>Node35&#45;&gt;Node37</title>
<g id="a_edge38_Node000035_Node000037"><a xlink:title=" ">
<path fill="none" stroke="#63b8ff" d="M196.87,-291.36C175.67,-301.43 147.17,-314.77 121.75,-326 115.36,-328.82 108.56,-331.75 101.91,-334.55"/>
<polygon fill="#63b8ff" stroke="#63b8ff" points="198.36,-294.53 205.88,-287.07 195.35,-288.21 198.36,-294.53"/>
</a>
</g>
</g>
<!-- Node38 -->
<g id="Node000038" class="node">
<title>Node38</title>
<g id="a_Node000038"><a xlink:href="api_8cpp.html#a3bb63900ee185ff762cb5202213dcb44" target="_top" xlink:title="Quick get camera property (creates temporary connection)">
<polygon fill="white" stroke="#666666" points="121.75,-317 0,-317 0,-285 121.75,-285 121.75,-317"/>
<text xml:space="preserve" text-anchor="start" x="8" y="-303.5" font-family="Helvetica,sans-Serif" font-size="10.00">duvc_quick_get_camera</text>
<text xml:space="preserve" text-anchor="middle" x="60.88" y="-291.5" font-family="Helvetica,sans-Serif" font-size="10.00">_property</text>
</a>
</g>
</g>
<!-- Node35&#45;&gt;Node38 -->
<g id="edge39_Node000035_Node000038" class="edge">
<title>Node35&#45;&gt;Node38</title>
<g id="a_edge39_Node000035_Node000038"><a xlink:title=" ">
<path fill="none" stroke="#63b8ff" d="M167.61,-285.17C152.72,-287.4 136.8,-289.78 121.96,-292"/>
<polygon fill="#63b8ff" stroke="#63b8ff" points="167.9,-288.67 177.27,-283.72 166.86,-281.74 167.9,-288.67"/>
</a>
</g>
</g>
<!-- Node39 -->
<g id="Node000039" class="node">
<title>Node39</title>
<g id="a_Node000039"><a xlink:href="api_8cpp.html#a563caf7299afef6db2be80775ec7045b" target="_top" xlink:title="Quick get camera property range.">
<polygon fill="white" stroke="#666666" points="121.75,-267 0,-267 0,-235 121.75,-235 121.75,-267"/>
<text xml:space="preserve" text-anchor="start" x="8" y="-253.5" font-family="Helvetica,sans-Serif" font-size="10.00">duvc_quick_get_camera</text>
<text xml:space="preserve" text-anchor="middle" x="60.88" y="-241.5" font-family="Helvetica,sans-Serif" font-size="10.00">_property_range</text>
</a>
</g>
</g>
<!-- Node35&#45;&gt;Node39 -->
<g id="edge40_Node000035_Node000039" class="edge">
<title>Node35&#45;&gt;Node39</title>
<g id="a_edge40_Node000035_Node000039"><a xlink:title=" ">
<path fill="none" stroke="#63b8ff" d="M167.61,-266.83C152.72,-264.6 136.8,-262.22 121.96,-260"/>
<polygon fill="#63b8ff" stroke="#63b8ff" points="166.86,-270.26 177.27,-268.28 167.9,-263.33 166.86,-270.26"/>
</a>
</g>
</g>
<!-- Node40 -->
<g id="Node000040" class="node">
<title>Node40</title>
<g id="a_Node000040"><a xlink:href="api_8cpp.html#ac2450ac31290e5083614c732b6586c6d" target="_top" xlink:title="Quick get video property.">
<polygon fill="white" stroke="#666666" points="117.25,-217 4.5,-217 4.5,-185 117.25,-185 117.25,-217"/>
<text xml:space="preserve" text-anchor="start" x="12.5" y="-203.5" font-family="Helvetica,sans-Serif" font-size="10.00">duvc_quick_get_video</text>
<text xml:space="preserve" text-anchor="middle" x="60.88" y="-191.5" font-family="Helvetica,sans-Serif" font-size="10.00">_property</text>
</a>
</g>
</g>
<!-- Node35&#45;&gt;Node40 -->
<g id="edge41_Node000035_Node000040" class="edge">
<title>Node35&#45;&gt;Node40</title>
<g id="a_edge41_Node000035_Node000040"><a xlink:title=" ">
<path fill="none" stroke="#63b8ff" d="M168.01,-261.76C164.47,-260.31 161.03,-258.73 157.75,-257 139.08,-247.14 139.72,-237.09 121.75,-226 116.77,-222.92 111.34,-220.06 105.85,-217.46"/>
<polygon fill="#63b8ff" stroke="#63b8ff" points="166.8,-265.04 177.39,-265.18 169.19,-258.47 166.8,-265.04"/>
</a>
</g>
</g>
<!-- Node41 -->
<g id="Node000041" class="node">
<title>Node41</title>
<g id="a_Node000041"><a xlink:href="api_8cpp.html#a993684c5701505045bdb13709872300b" target="_top" xlink:title="Quick get video property range.">
<polygon fill="white" stroke="#666666" points="117.25,-167 4.5,-167 4.5,-135 117.25,-135 117.25,-167"/>
<text xml:space="preserve" text-anchor="start" x="12.5" y="-153.5" font-family="Helvetica,sans-Serif" font-size="10.00">duvc_quick_get_video</text>
<text xml:space="preserve" text-anchor="middle" x="60.88" y="-141.5" font-family="Helvetica,sans-Serif" font-size="10.00">_property_range</text>
</a>
</g>
</g>
<!-- Node35&#45;&gt;Node41 -->
<g id="edge42_Node000035_Node000041" class="edge">
<title>Node35&#45;&gt;Node41</title>
<g id="a_edge42_Node000035_Node000041"><a xlink:title=" ">
<path fill="none" stroke="#63b8ff" d="M168.27,-264.09C164.51,-262.08 160.95,-259.73 157.75,-257 127.79,-231.42 149.92,-203.54 121.75,-176 118.45,-172.77 114.67,-169.94 110.65,-167.45"/>
<polygon fill="#63b8ff" stroke="#63b8ff" points="166.68,-267.21 177.24,-268.06 169.51,-260.81 166.68,-267.21"/>
</a>
</g>
</g>
<!-- Node42 -->
<g id="Node000042" class="node">
<title>Node42</title>
<g id="a_Node000042"><a xlink:href="api_8cpp.html#ab4d738bc8b5e468bfa9ecd3e27395815" target="_top" xlink:title="Quick set camera property (creates temporary connection)">
<polygon fill="white" stroke="#666666" points="121.75,-117 0,-117 0,-85 121.75,-85 121.75,-117"/>
<text xml:space="preserve" text-anchor="start" x="8" y="-103.5" font-family="Helvetica,sans-Serif" font-size="10.00">duvc_quick_set_camera</text>
<text xml:space="preserve" text-anchor="middle" x="60.88" y="-91.5" font-family="Helvetica,sans-Serif" font-size="10.00">_property</text>
</a>
</g>
</g>
<!-- Node35&#45;&gt;Node42 -->
<g id="edge43_Node000035_Node000042" class="edge">
<title>Node35&#45;&gt;Node42</title>
<g id="a_edge43_Node000035_Node000042"><a xlink:title=" ">
<path fill="none" stroke="#63b8ff" d="M168.47,-265.02C164.56,-262.8 160.92,-260.15 157.75,-257 114.9,-214.46 161.64,-171.33 121.75,-126 118.85,-122.7 115.44,-119.83 111.75,-117.33"/>
<polygon fill="#63b8ff" stroke="#63b8ff" points="166.74,-268.07 177.28,-269.06 169.66,-261.71 166.74,-268.07"/>
</a>
</g>
</g>
<!-- Node43 -->
<g id="Node000043" class="node">
<title>Node43</title>
<g id="a_Node000043"><a xlink:href="api_8cpp.html#ac5c65a93003977ce563d8a5c1379745c" target="_top" xlink:title="Quick set video property.">
<polygon fill="white" stroke="#666666" points="117.25,-455 4.5,-455 4.5,-423 117.25,-423 117.25,-455"/>
<text xml:space="preserve" text-anchor="start" x="12.5" y="-441.5" font-family="Helvetica,sans-Serif" font-size="10.00">duvc_quick_set_video</text>
<text xml:space="preserve" text-anchor="middle" x="60.88" y="-429.5" font-family="Helvetica,sans-Serif" font-size="10.00">_property</text>
</a>
</g>
</g>
<!-- Node35&#45;&gt;Node43 -->
<g id="edge44_Node000035_Node000043" class="edge">
<title>Node35&#45;&gt;Node43</title>
<g id="a_edge44_Node000035_Node000043"><a xlink:title=" ">
<path fill="none" stroke="#63b8ff" d="M186.99,-291.26C176.32,-296.77 165.65,-303.93 157.75,-313 126.44,-348.93 154.54,-379.42 121.75,-414 118.65,-417.27 115.06,-420.13 111.2,-422.62"/>
<polygon fill="#63b8ff" stroke="#63b8ff" points="188.2,-294.56 195.75,-287.13 185.22,-288.23 188.2,-294.56"/>
</a>
</g>
</g>
<!-- Node44&#45;&gt;Node4 -->
<g id="edge50_Node000044_Node000004" class="edge">
<title>Node44&#45;&gt;Node4</title>
<g id="a_edge50_Node000044_Node000004"><a xlink:title=" ">
<path fill="none" stroke="#63b8ff" d="M564.64,-741.06C526.21,-767.98 452.65,-819.5 421.16,-841.56"/>
<polygon fill="#63b8ff" stroke="#63b8ff" points="566.62,-743.95 572.81,-735.34 562.61,-738.21 566.62,-743.95"/>
</a>
</g>
</g>
<!-- Node44&#45;&gt;Node13 -->
<g id="edge48_Node000044_Node000013" class="edge">
<title>Node44&#45;&gt;Node13</title>
<g id="a_edge48_Node000044_Node000013"><a xlink:title=" ">
<path fill="none" stroke="#63b8ff" d="M527.5,-711.21C504.41,-706.41 478.46,-701.01 456.51,-696.45"/>
<polygon fill="#63b8ff" stroke="#63b8ff" points="526.59,-714.6 537.1,-713.21 528.02,-707.75 526.59,-714.6"/>
</a>
</g>
</g>
<!-- Node44&#45;&gt;Node21 -->
<g id="edge49_Node000044_Node000021" class="edge">
<title>Node44&#45;&gt;Node21</title>
<g id="a_edge49_Node000044_Node000021"><a xlink:title=" ">
<path fill="none" stroke="#63b8ff" d="M512.99,-708.84C511.42,-707.65 509.92,-706.37 508.5,-705 453.29,-651.73 415.18,-396.39 407.63,-342.14"/>
<polygon fill="#63b8ff" stroke="#63b8ff" points="510.97,-711.71 521.32,-713.97 514.64,-705.75 510.97,-711.71"/>
</a>
</g>
</g>
</g>
</svg>
