<?xml version="1.0" encoding="UTF-8" standalone="no"?>
<!DOCTYPE svg PUBLIC "-//W3C//DTD SVG 1.1//EN"
 "http://www.w3.org/Graphics/SVG/1.1/DTD/svg11.dtd">
<!-- Generated by graphviz version 14.0.2 (20251019.1705)
 -->
<!-- Title: duvc::from_flag Pages: 1 -->
<svg width="270pt" height="166pt"
 viewBox="0.00 0.00 270.00 166.00" xmlns="http://www.w3.org/2000/svg" xmlns:xlink="http://www.w3.org/1999/xlink">

<svg id="main" version="1.1" xmlns="http://www.w3.org/2000/svg" xmlns:xlink="http://www.w3.org/1999/xlink" xml:space="preserve" onload="init(evt)">
<style type="text/css"><![CDATA[
.node, .edge {opacity: 0.7;}
.node.selected, .edge.selected {opacity: 1;}
.edge:hover path { stroke: red; }
.edge:hover polygon { stroke: red; fill: red; }
]]></style>
<script type="application/ecmascript" xlink:href="svg.min.js"/>
<svg id="graph" class="graph">
<g id="graph0" class="graph" transform="scale(1 1) rotate(0) translate(4 162)">
<title>duvc::from_flag</title>
<!-- Node1 -->
<g id="Node000001" class="node">
<title>Node1</title>
<g id="a_Node000001"><a xlink:title=" ">
<polygon fill="#999999" stroke="#666666" points="262.25,-98 178.75,-98 178.75,-78 262.25,-78 262.25,-98"/>
<text xml:space="preserve" text-anchor="middle" x="220.5" y="-84.5" font-family="Helvetica,sans-Serif" font-size="10.00">duvc::from_flag</text>
</a>
</g>
</g>
<!-- Node2 -->
<g id="Node000002" class="node">
<title>Node2</title>
<g id="a_Node000002"><a xlink:href="classduvc_1_1DeviceConnection.html#aac59736bb276c7c518f9dc2da0f0fa42" target="_top" xlink:title=" ">
<polygon fill="white" stroke="#666666" points="142.75,-158 0,-158 0,-138 142.75,-138 142.75,-158"/>
<text xml:space="preserve" text-anchor="middle" x="71.38" y="-144.5" font-family="Helvetica,sans-Serif" font-size="10.00">duvc::DeviceConnection::get</text>
</a>
</g>
</g>
<!-- Node1&#45;&gt;Node2 -->
<g id="edge1_Node000001_Node000002" class="edge">
<title>Node1&#45;&gt;Node2</title>
<g id="a_edge1_Node000001_Node000002"><a xlink:title=" ">
<path fill="none" stroke="#63b8ff" d="M192.91,-104.14C178.45,-112.41 160.04,-122.15 142.75,-129 134.63,-132.22 125.78,-135.08 117.17,-137.54"/>
<polygon fill="#63b8ff" stroke="#63b8ff" points="194.49,-107.27 201.35,-99.2 190.95,-101.22 194.49,-107.27"/>
</a>
</g>
</g>
<!-- Node3 -->
<g id="Node000003" class="node">
<title>Node3</title>
<g id="a_Node000003"><a xlink:href="classduvc_1_1DeviceConnection.html#ae2f8eee0fcac533247cd79b5e148cbf3" target="_top" xlink:title=" ">
<polygon fill="white" stroke="#666666" points="142.75,-120 0,-120 0,-100 142.75,-100 142.75,-120"/>
<text xml:space="preserve" text-anchor="middle" x="71.38" y="-106.5" font-family="Helvetica,sans-Serif" font-size="10.00">duvc::DeviceConnection::get</text>
</a>
</g>
</g>
<!-- Node1&#45;&gt;Node3 -->
<g id="edge2_Node000001_Node000003" class="edge">
<title>Node1&#45;&gt;Node3</title>
<g id="a_edge2_Node000001_Node000003"><a xlink:title=" ">
<path fill="none" stroke="#63b8ff" d="M167.39,-95.79C159.31,-97 150.84,-98.27 142.44,-99.52"/>
<polygon fill="#63b8ff" stroke="#63b8ff" points="167.65,-99.29 177.02,-94.35 166.61,-92.37 167.65,-99.29"/>
</a>
</g>
</g>
<!-- Node4 -->
<g id="Node000004" class="node">
<title>Node4</title>
<g id="a_Node000004"><a xlink:href="classduvc_1_1DeviceConnection.html#ad0564ed2561d7358c549d50c80a635e5" target="_top" xlink:title=" ">
<polygon fill="white" stroke="#666666" points="133,-82 9.75,-82 9.75,-50 133,-50 133,-82"/>
<text xml:space="preserve" text-anchor="start" x="17.75" y="-68.5" font-family="Helvetica,sans-Serif" font-size="10.00">duvc::DeviceConnection</text>
<text xml:space="preserve" text-anchor="middle" x="71.38" y="-56.5" font-family="Helvetica,sans-Serif" font-size="10.00">::get_range</text>
</a>
</g>
</g>
<!-- Node1&#45;&gt;Node4 -->
<g id="edge3_Node000001_Node000004" class="edge">
<title>Node1&#45;&gt;Node4</title>
<g id="a_edge3_Node000001_Node000004"><a xlink:title=" ">
<path fill="none" stroke="#63b8ff" d="M167.39,-80.21C156.42,-78.57 144.76,-76.82 133.5,-75.14"/>
<polygon fill="#63b8ff" stroke="#63b8ff" points="166.61,-83.63 177.02,-81.65 167.65,-76.71 166.61,-83.63"/>
</a>
</g>
</g>
<!-- Node5 -->
<g id="Node000005" class="node">
<title>Node5</title>
<g id="a_Node000005"><a xlink:href="classduvc_1_1DeviceConnection.html#a3a30a60f3b5ea51c1621300704f8c10d" target="_top" xlink:title=" ">
<polygon fill="white" stroke="#666666" points="133,-32 9.75,-32 9.75,0 133,0 133,-32"/>
<text xml:space="preserve" text-anchor="start" x="17.75" y="-18.5" font-family="Helvetica,sans-Serif" font-size="10.00">duvc::DeviceConnection</text>
<text xml:space="preserve" text-anchor="middle" x="71.38" y="-6.5" font-family="Helvetica,sans-Serif" font-size="10.00">::get_range</text>
</a>
</g>
</g>
<!-- Node1&#45;&gt;Node5 -->
<g id="edge4_Node000001_Node000005" class="edge">
<title>Node1&#45;&gt;Node5</title>
<g id="a_edge4_Node000001_Node000005"><a xlink:title=" ">
<path fill="none" stroke="#63b8ff" d="M195.35,-71.41C180.59,-61.73 161.08,-49.75 142.75,-41 136.43,-37.98 129.65,-35.13 122.88,-32.5"/>
<polygon fill="#63b8ff" stroke="#63b8ff" points="193.21,-74.19 203.47,-76.83 197.1,-68.37 193.21,-74.19"/>
</a>
</g>
</g>
</g>
</svg>
</svg>

<style type='text/css'>
<![CDATA[
[data-mouse-over-selected='false'] { opacity: 0.7; }
[data-mouse-over-selected='true']  { opacity: 1.0; }
]]>
</style>
<script type="application/ecmascript"><![CDATA[
document.addEventListener('DOMContentLoaded', (event) => {
  highlightEdges();
  highlightAdjacentNodes();
});
]]></script>
</svg>
