<?xml version="1.0" encoding="UTF-8" standalone="no"?>
<!DOCTYPE svg PUBLIC "-//W3C//DTD SVG 1.1//EN"
 "http://www.w3.org/Graphics/SVG/1.1/DTD/svg11.dtd">
<!-- Generated by graphviz version 14.0.2 (20251019.1705)
 -->
<!-- Title: duvc::set_vendor_property Pages: 1 -->
<!--zoomable 218 -->

<svg id="main" version="1.1" xmlns="http://www.w3.org/2000/svg" xmlns:xlink="http://www.w3.org/1999/xlink" xml:space="preserve" onload="init(evt)">
<style type="text/css"><![CDATA[
.node, .edge {opacity: 0.7;}
.node.selected, .edge.selected {opacity: 1;}
.edge:hover path { stroke: red; }
.edge:hover polygon { stroke: red; fill: red; }
]]></style>

<defs>
  <circle id="rim" cx="0" cy="0" r="7"/>
  <circle id="rim2" cx="0" cy="0" r="3.5"/>
  <g id="zoomPlus">
    <use xlink:href="#rim" fill="#404040"><set attributeName="fill" to="#808080" begin="zoomplus.mouseover" end="zoomplus.mouseout"/></use>
    <path d="M-4,0h8M0,-4v8" fill="none" stroke="white" stroke-width="1.5" pointer-events="none"/>
  </g>
  <g id="zoomMin">
    <use xlink:href="#rim" fill="#404040"><set attributeName="fill" to="#808080" begin="zoomminus.mouseover" end="zoomminus.mouseout"/></use>
    <path d="M-4,0h8" fill="none" stroke="white" stroke-width="1.5" pointer-events="none"/>
  </g>
  <g id="arrowUp" transform="translate(30 24)">
    <use xlink:href="#rim"/>
    <path pointer-events="none" fill="none" stroke="white" stroke-width="1.5" d="M0,-3.0v7 M-2.5,-0.5L0,-3.0L2.5,-0.5"/>
  </g>
  <g id="arrowRight" transform="rotate(90) translate(36 -43)">
    <use xlink:href="#rim"/>
    <path pointer-events="none" fill="none" stroke="white" stroke-width="1.5" d="M0,-3.0v7 M-2.5,-0.5L0,-3.0L2.5,-0.5"/>
  </g>
  <g id="arrowDown" transform="rotate(180) translate(-30 -48)">
    <use xlink:href="#rim"/>
    <path pointer-events="none" fill="none" stroke="white" stroke-width="1.5" d="M0,-3.0v7 M-2.5,-0.5L0,-3.0L2.5,-0.5"/>
  </g>
  <g id="arrowLeft" transform="rotate(270) translate(-36 17)">
    <use xlink:href="#rim"/>
    <path pointer-events="none" fill="none" stroke="white" stroke-width="1.5" d="M0,-3.0v7 M-2.5,-0.5L0,-3.0L2.5,-0.5"/>
  </g>
  <g id="resetDef">
    <use xlink:href="#rim2" fill="#404040"><set attributeName="fill" to="#808080" begin="reset.mouseover" end="reset.mouseout"/></use>
  </g>
</defs>
<script type="application/ecmascript">
var viewWidth = 746;
var viewHeight = 218;
var sectionId = 'dynsection-61';
</script>
<script type="application/ecmascript" xlink:href="svg.min.js"/>
<svg id="graph" class="graph">
<g id="viewport">
<title>duvc::set_vendor_property</title>
<!-- Node1 -->
<g id="Node000001" class="node">
<title>Node1</title>
<g id="a_Node000001"><a xlink:title="Set vendor&#45;specific property data on device.">
<polygon fill="#999999" stroke="#666666" points="131.5,-134 0,-134 0,-114 131.5,-114 131.5,-134"/>
<text xml:space="preserve" text-anchor="middle" x="65.75" y="-120.5" font-family="Helvetica,sans-Serif" font-size="10.00">duvc::set_vendor_property</text>
</a>
</g>
</g>
<!-- Node2 -->
<g id="Node000002" class="node">
<title>Node2</title>
<g id="a_Node000002"><a xlink:href="namespaceduvc.html#a7d09140b9c0c7a63aa21bac0d2c4484d" target="_top" xlink:title=" ">
<polygon fill="white" stroke="#666666" points="286.25,-153 170.5,-153 170.5,-133 286.25,-133 286.25,-153"/>
<text xml:space="preserve" text-anchor="middle" x="228.38" y="-139.5" font-family="Helvetica,sans-Serif" font-size="10.00">duvc::get_property_set</text>
</a>
</g>
</g>
<!-- Node1&#45;&gt;Node2 -->
<g id="edge1_Node000001_Node000002" class="edge">
<title>Node1&#45;&gt;Node2</title>
<g id="a_edge1_Node000001_Node000002"><a xlink:title=" ">
<path fill="none" stroke="#63b8ff" d="M131.62,-131.67C140.56,-132.73 149.76,-133.82 158.76,-134.88"/>
<polygon fill="#63b8ff" stroke="#63b8ff" points="158.18,-138.34 168.52,-136.04 159,-131.39 158.18,-138.34"/>
</a>
</g>
</g>
<!-- Node3 -->
<g id="Node000003" class="node">
<title>Node3</title>
<g id="a_Node000003"><a xlink:href="namespaceduvc.html#a1345df0af198d75f16c54e38d54c7e63" target="_top" xlink:title="Create DirectShow filter from device.">
<polygon fill="white" stroke="#666666" points="289.25,-115 167.5,-115 167.5,-95 289.25,-95 289.25,-115"/>
<text xml:space="preserve" text-anchor="middle" x="228.38" y="-101.5" font-family="Helvetica,sans-Serif" font-size="10.00">duvc::open_device_filter</text>
</a>
</g>
</g>
<!-- Node1&#45;&gt;Node3 -->
<g id="edge2_Node000001_Node000003" class="edge">
<title>Node1&#45;&gt;Node3</title>
<g id="a_edge2_Node000001_Node000003"><a xlink:title=" ">
<path fill="none" stroke="#63b8ff" d="M131.62,-116.33C139.61,-115.38 147.81,-114.41 155.89,-113.46"/>
<polygon fill="#63b8ff" stroke="#63b8ff" points="156.18,-116.95 165.7,-112.3 155.35,-109.99 156.18,-116.95"/>
</a>
</g>
</g>
<!-- Node4 -->
<g id="Node000004" class="node">
<title>Node4</title>
<g id="a_Node000004"><a xlink:href="namespaceduvc.html#a72f92cd80ed6f3c59c814fae59e8ba26" target="_top" xlink:title=" ">
<polygon fill="white" stroke="#666666" points="441.75,-210 343.25,-210 343.25,-190 441.75,-190 441.75,-210"/>
<text xml:space="preserve" text-anchor="middle" x="392.5" y="-196.5" font-family="Helvetica,sans-Serif" font-size="10.00">duvc::bind_to_filter</text>
</a>
</g>
</g>
<!-- Node3&#45;&gt;Node4 -->
<g id="edge3_Node000003_Node000004" class="edge">
<title>Node3&#45;&gt;Node4</title>
<g id="a_edge3_Node000003_Node000004"><a xlink:title=" ">
<path fill="none" stroke="#63b8ff" d="M274.29,-115.37C279.62,-117.69 284.76,-120.53 289.25,-124 312.97,-142.31 301.28,-163.02 325.25,-181 327.55,-182.73 330.01,-184.3 332.57,-185.73"/>
<polygon fill="#63b8ff" stroke="#63b8ff" points="330.94,-188.83 341.48,-189.91 333.92,-182.49 330.94,-188.83"/>
</a>
</g>
</g>
<!-- Node7 -->
<g id="Node000007" class="node">
<title>Node7</title>
<g id="a_Node000007"><a xlink:href="namespaceduvc.html#ab7299b8597bf14b18b8351278c209188" target="_top" xlink:title="Create DirectShow device enumerator.">
<polygon fill="white" stroke="#666666" points="452.62,-172 332.38,-172 332.38,-152 452.62,-152 452.62,-172"/>
<text xml:space="preserve" text-anchor="middle" x="392.5" y="-158.5" font-family="Helvetica,sans-Serif" font-size="10.00">duvc::create_dev_enum</text>
</a>
</g>
</g>
<!-- Node3&#45;&gt;Node7 -->
<g id="edge6_Node000003_Node000007" class="edge">
<title>Node3&#45;&gt;Node7</title>
<g id="a_edge6_Node000003_Node000007"><a xlink:title=" ">
<path fill="none" stroke="#63b8ff" d="M265.85,-115.43C273.66,-117.98 281.81,-120.88 289.25,-124 305.94,-130.99 308.47,-136.25 325.25,-143 329.81,-144.83 334.61,-146.57 339.45,-148.19"/>
<polygon fill="#63b8ff" stroke="#63b8ff" points="338.03,-151.41 348.62,-151.08 340.14,-144.73 338.03,-151.41"/>
</a>
</g>
</g>
<!-- Node8 -->
<g id="Node000008" class="node">
<title>Node8</title>
<g id="a_Node000008"><a xlink:href="namespaceduvc.html#a1a577c6cd7e4b3106d6f95c15bbceeed" target="_top" xlink:title="Enumerate video input devices.">
<polygon fill="white" stroke="#666666" points="459.75,-134 325.25,-134 325.25,-114 459.75,-114 459.75,-134"/>
<text xml:space="preserve" text-anchor="middle" x="392.5" y="-120.5" font-family="Helvetica,sans-Serif" font-size="10.00">duvc::enum_video_devices</text>
</a>
</g>
</g>
<!-- Node3&#45;&gt;Node8 -->
<g id="edge8_Node000003_Node000008" class="edge">
<title>Node3&#45;&gt;Node8</title>
<g id="a_edge8_Node000003_Node000008"><a xlink:title=" ">
<path fill="none" stroke="#63b8ff" d="M289.74,-112.07C297.52,-112.99 305.56,-113.93 313.56,-114.87"/>
<polygon fill="#63b8ff" stroke="#63b8ff" points="312.97,-118.32 323.31,-116.01 313.79,-111.37 312.97,-118.32"/>
</a>
</g>
</g>
<!-- Node9 -->
<g id="Node000009" class="node">
<title>Node9</title>
<g id="a_Node000009"><a xlink:href="namespaceduvc.html#a16607a28a7df86e823edf3abd371af92" target="_top" xlink:title="Check if two device identifiers refer to same device.">
<polygon fill="white" stroke="#666666" points="449.25,-96 335.75,-96 335.75,-76 449.25,-76 449.25,-96"/>
<text xml:space="preserve" text-anchor="middle" x="392.5" y="-82.5" font-family="Helvetica,sans-Serif" font-size="10.00">duvc::is_same_device</text>
</a>
</g>
</g>
<!-- Node3&#45;&gt;Node9 -->
<g id="edge10_Node000003_Node000009" class="edge">
<title>Node3&#45;&gt;Node9</title>
<g id="a_edge10_Node000003_Node000009"><a xlink:title=" ">
<path fill="none" stroke="#63b8ff" d="M289.74,-97.93C300.95,-96.61 312.73,-95.23 324.13,-93.9"/>
<polygon fill="#63b8ff" stroke="#63b8ff" points="324.34,-97.39 333.87,-92.75 323.53,-90.44 324.34,-97.39"/>
</a>
</g>
</g>
<!-- Node10 -->
<g id="Node000010" class="node">
<title>Node10</title>
<g id="a_Node000010"><a xlink:href="namespaceduvc.html#a2c2b6f32c6871ad36ae0bf98d9374fd0" target="_top" xlink:title="Read device path from moniker.">
<polygon fill="white" stroke="#666666" points="452.25,-58 332.75,-58 332.75,-38 452.25,-38 452.25,-58"/>
<text xml:space="preserve" text-anchor="middle" x="392.5" y="-44.5" font-family="Helvetica,sans-Serif" font-size="10.00">duvc::read_device_path</text>
</a>
</g>
</g>
<!-- Node3&#45;&gt;Node10 -->
<g id="edge11_Node000003_Node000010" class="edge">
<title>Node3&#45;&gt;Node10</title>
<g id="a_edge11_Node000003_Node000010"><a xlink:title=" ">
<path fill="none" stroke="#63b8ff" d="M253.56,-94.65C272.8,-86.6 300.51,-75.43 325.25,-67 330.63,-65.17 336.3,-63.36 341.96,-61.63"/>
<polygon fill="#63b8ff" stroke="#63b8ff" points="342.73,-65.05 351.32,-58.85 340.73,-58.34 342.73,-65.05"/>
</a>
</g>
</g>
<!-- Node12 -->
<g id="Node000012" class="node">
<title>Node12</title>
<g id="a_Node000012"><a xlink:href="namespaceduvc.html#a019644436e5f0add38b6242843b79fef" target="_top" xlink:title="Read friendly name from device moniker.">
<polygon fill="white" stroke="#666666" points="456.38,-20 328.62,-20 328.62,0 456.38,0 456.38,-20"/>
<text xml:space="preserve" text-anchor="middle" x="392.5" y="-6.5" font-family="Helvetica,sans-Serif" font-size="10.00">duvc::read_friendly_name</text>
</a>
</g>
</g>
<!-- Node3&#45;&gt;Node12 -->
<g id="edge13_Node000003_Node000012" class="edge">
<title>Node3&#45;&gt;Node12</title>
<g id="a_edge13_Node000003_Node000012"><a xlink:title=" ">
<path fill="none" stroke="#63b8ff" d="M239.61,-94.59C256.17,-78.31 290.49,-46.87 325.25,-29 328.5,-27.33 331.91,-25.79 335.4,-24.37"/>
<polygon fill="#63b8ff" stroke="#63b8ff" points="336.44,-27.72 344.62,-20.99 334.03,-21.15 336.44,-27.72"/>
</a>
</g>
</g>
<!-- Node5 -->
<g id="Node000005" class="node">
<title>Node5</title>
<g id="a_Node000005"><a xlink:href="namespaceduvc.html#a21b444574354018097d4489a9ff0ff9e" target="_top" xlink:title=" ">
<polygon fill="white" stroke="#666666" points="589.75,-172 509.25,-172 509.25,-152 589.75,-152 589.75,-172"/>
<text xml:space="preserve" text-anchor="middle" x="549.5" y="-158.5" font-family="Helvetica,sans-Serif" font-size="10.00">duvc::throw_hr</text>
</a>
</g>
</g>
<!-- Node4&#45;&gt;Node5 -->
<g id="edge4_Node000004_Node000005" class="edge">
<title>Node4&#45;&gt;Node5</title>
<g id="a_edge4_Node000004_Node000005"><a xlink:title=" ">
<path fill="none" stroke="#63b8ff" d="M436.26,-189.52C455.3,-184.85 477.87,-179.32 497.76,-174.44"/>
<polygon fill="#63b8ff" stroke="#63b8ff" points="498.45,-177.87 507.33,-172.09 496.78,-171.08 498.45,-177.87"/>
</a>
</g>
</g>
<!-- Node6 -->
<g id="Node000006" class="node">
<title>Node6</title>
<g id="a_Node000006"><a xlink:href="namespaceduvc.html#a02d5c5b2e56515cee2cad9057af0467d" target="_top" xlink:title=" ">
<polygon fill="white" stroke="#666666" points="737.75,-172 639.25,-172 639.25,-152 737.75,-152 737.75,-172"/>
<text xml:space="preserve" text-anchor="middle" x="688.5" y="-158.5" font-family="Helvetica,sans-Serif" font-size="10.00">duvc::wide_to_utf8</text>
</a>
</g>
</g>
<!-- Node5&#45;&gt;Node6 -->
<g id="edge5_Node000005_Node000006" class="edge">
<title>Node5&#45;&gt;Node6</title>
<g id="a_edge5_Node000005_Node000006"><a xlink:title=" ">
<path fill="none" stroke="#63b8ff" d="M590.13,-162C601.86,-162 614.99,-162 627.7,-162"/>
<polygon fill="#63b8ff" stroke="#63b8ff" points="627.7,-165.5 637.7,-162 627.7,-158.5 627.7,-165.5"/>
</a>
</g>
</g>
<!-- Node7&#45;&gt;Node5 -->
<g id="edge7_Node000007_Node000005" class="edge">
<title>Node7&#45;&gt;Node5</title>
<g id="a_edge7_Node000007_Node000005"><a xlink:title=" ">
<path fill="none" stroke="#63b8ff" d="M452.98,-162C467.8,-162 483.55,-162 497.9,-162"/>
<polygon fill="#63b8ff" stroke="#63b8ff" points="497.55,-165.5 507.55,-162 497.55,-158.5 497.55,-165.5"/>
</a>
</g>
</g>
<!-- Node8&#45;&gt;Node5 -->
<g id="edge9_Node000008_Node000005" class="edge">
<title>Node8&#45;&gt;Node5</title>
<g id="a_edge9_Node000008_Node000005"><a xlink:title=" ">
<path fill="none" stroke="#63b8ff" d="M436.26,-134.48C455.3,-139.15 477.87,-144.68 497.76,-149.56"/>
<polygon fill="#63b8ff" stroke="#63b8ff" points="496.78,-152.92 507.33,-151.91 498.45,-146.13 496.78,-152.92"/>
</a>
</g>
</g>
<!-- Node11 -->
<g id="Node000011" class="node">
<title>Node11</title>
<g id="a_Node000011"><a xlink:href="namespaceduvc.html#a0dbd37821c1cae29fa72d44e3dbd0583" target="_top" xlink:title=" ">
<polygon fill="white" stroke="#666666" points="603.25,-39 495.75,-39 495.75,-19 603.25,-19 603.25,-39"/>
<text xml:space="preserve" text-anchor="middle" x="549.5" y="-25.5" font-family="Helvetica,sans-Serif" font-size="10.00">duvc::read_prop_bstr</text>
</a>
</g>
</g>
<!-- Node10&#45;&gt;Node11 -->
<g id="edge12_Node000010_Node000011" class="edge">
<title>Node10&#45;&gt;Node11</title>
<g id="a_edge12_Node000010_Node000011"><a xlink:title=" ">
<path fill="none" stroke="#63b8ff" d="M452.54,-40.76C462.91,-39.49 473.74,-38.16 484.24,-36.88"/>
<polygon fill="#63b8ff" stroke="#63b8ff" points="484.46,-40.38 493.96,-35.68 483.61,-33.43 484.46,-40.38"/>
</a>
</g>
</g>
<!-- Node12&#45;&gt;Node11 -->
<g id="edge14_Node000012_Node000011" class="edge">
<title>Node12&#45;&gt;Node11</title>
<g id="a_edge14_Node000012_Node000011"><a xlink:title=" ">
<path fill="none" stroke="#63b8ff" d="M456.54,-17.73C465.62,-18.84 474.97,-19.99 484.07,-21.1"/>
<polygon fill="#63b8ff" stroke="#63b8ff" points="483.57,-24.57 493.93,-22.31 484.43,-17.62 483.57,-24.57"/>
</a>
</g>
</g>
</g>
</svg>

<g id="navigator" transform="translate(0 0)" fill="#404254">
  <rect fill="#f2f5e9" fill-opacity="0.5" stroke="#606060" stroke-width=".5" x="0" y="0" width="60" height="60"/>
  <use id="zoomplus" xlink:href="#zoomPlus" x="17" y="9" onmousedown="handleZoom(evt,'in')"/>
  <use id="zoomminus" xlink:href="#zoomMin" x="42" y="9" onmousedown="handleZoom(evt,'out')"/>
  <use id="reset" xlink:href="#resetDef" x="30" y="36" onmousedown="handleReset()"/>
   <use id="arrowup" xlink:href="#arrowUp" x="0" y="0" onmousedown="handlePan(0,-1)"/>
  <use id="arrowright" xlink:href="#arrowRight" x="0" y="0" onmousedown="handlePan(1,0)"/>
  <use id="arrowdown" xlink:href="#arrowDown" x="0" y="0" onmousedown="handlePan(0,1)"/>
  <use id="arrowleft" xlink:href="#arrowLeft" x="0" y="0" onmousedown="handlePan(-1,0)"/>
</g>
<svg viewBox="0 0 15 15" width="100%" height="30px" preserveAspectRatio="xMaxYMin meet">
 <g id="arrow_out" transform="scale(0.3 0.3)">
  <a xlink:href="namespaceduvc_ab333863cefef68546e2e235527fe3b5c_cgraph_org.svg" target="_base">
   <rect id="button" ry="5" rx="5" y="6" x="6" height="38" width="38"
        fill="#f2f5e9" fill-opacity="0.5" stroke="#606060" stroke-width="1.0"/>
   <path id="arrow"
     d="M 11.500037,31.436501 C 11.940474,20.09759 22.043105,11.32322 32.158766,21.979434 L 37.068811,17.246167 C 37.068811,17.246167 37.088388,32 37.088388,32 L 22.160133,31.978069 C 22.160133,31.978069 26.997745,27.140456 26.997745,27.140456 C 18.528582,18.264221 13.291696,25.230495 11.500037,31.436501 z"
     style="fill:#404040;"/>
  </a>
 </g>
</svg>

<style type='text/css'>
<![CDATA[
[data-mouse-over-selected='false'] { opacity: 0.7; }
[data-mouse-over-selected='true']  { opacity: 1.0; }
]]>
</style>
<script type="application/ecmascript"><![CDATA[
document.addEventListener('DOMContentLoaded', (event) => {
  highlightEdges();
  highlightAdjacentNodes();
});
]]></script>
</svg>
