<?xml version="1.0" encoding="UTF-8" standalone="no"?>
<!DOCTYPE svg PUBLIC "-//W3C//DTD SVG 1.1//EN"
 "http://www.w3.org/Graphics/SVG/1.1/DTD/svg11.dtd">
<!-- Generated by graphviz version 14.0.2 (20251019.1705)
 -->
<!-- Title: core/result.h Pages: 1 -->
<!--zoomable 220 -->

<svg id="main" version="1.1" xmlns="http://www.w3.org/2000/svg" xmlns:xlink="http://www.w3.org/1999/xlink" xml:space="preserve" onload="init(evt)">
<style type="text/css"><![CDATA[
.node, .edge {opacity: 0.7;}
.node.selected, .edge.selected {opacity: 1;}
.edge:hover path { stroke: red; }
.edge:hover polygon { stroke: red; fill: red; }
]]></style>

<defs>
  <circle id="rim" cx="0" cy="0" r="7"/>
  <circle id="rim2" cx="0" cy="0" r="3.5"/>
  <g id="zoomPlus">
    <use xlink:href="#rim" fill="#404040"><set attributeName="fill" to="#808080" begin="zoomplus.mouseover" end="zoomplus.mouseout"/></use>
    <path d="M-4,0h8M0,-4v8" fill="none" stroke="white" stroke-width="1.5" pointer-events="none"/>
  </g>
  <g id="zoomMin">
    <use xlink:href="#rim" fill="#404040"><set attributeName="fill" to="#808080" begin="zoomminus.mouseover" end="zoomminus.mouseout"/></use>
    <path d="M-4,0h8" fill="none" stroke="white" stroke-width="1.5" pointer-events="none"/>
  </g>
  <g id="arrowUp" transform="translate(30 24)">
    <use xlink:href="#rim"/>
    <path pointer-events="none" fill="none" stroke="white" stroke-width="1.5" d="M0,-3.0v7 M-2.5,-0.5L0,-3.0L2.5,-0.5"/>
  </g>
  <g id="arrowRight" transform="rotate(90) translate(36 -43)">
    <use xlink:href="#rim"/>
    <path pointer-events="none" fill="none" stroke="white" stroke-width="1.5" d="M0,-3.0v7 M-2.5,-0.5L0,-3.0L2.5,-0.5"/>
  </g>
  <g id="arrowDown" transform="rotate(180) translate(-30 -48)">
    <use xlink:href="#rim"/>
    <path pointer-events="none" fill="none" stroke="white" stroke-width="1.5" d="M0,-3.0v7 M-2.5,-0.5L0,-3.0L2.5,-0.5"/>
  </g>
  <g id="arrowLeft" transform="rotate(270) translate(-36 17)">
    <use xlink:href="#rim"/>
    <path pointer-events="none" fill="none" stroke="white" stroke-width="1.5" d="M0,-3.0v7 M-2.5,-0.5L0,-3.0L2.5,-0.5"/>
  </g>
  <g id="resetDef">
    <use xlink:href="#rim2" fill="#404040"><set attributeName="fill" to="#808080" begin="reset.mouseover" end="reset.mouseout"/></use>
  </g>
</defs>
<script type="application/ecmascript">
var viewWidth = 978;
var viewHeight = 220;
var sectionId = 'dynsection-1';
</script>
<script type="application/ecmascript" xlink:href="svg.min.js"/>
<svg id="graph" class="graph">
<g id="viewport">
<title>core/result.h</title>
<!-- Node1 -->
<g id="Node000001" class="node">
<title>Node1</title>
<g id="a_Node000001"><a xlink:title="Result/Error type system for duvc&#45;ctl.">
<polygon fill="#999999" stroke="#666666" points="463.88,-212 393.88,-212 393.88,-192 463.88,-192 463.88,-212"/>
<text xml:space="preserve" text-anchor="middle" x="428.88" y="-198.5" font-family="Helvetica,sans-Serif" font-size="10.00">core/result.h</text>
</a>
</g>
</g>
<!-- Node2 -->
<g id="Node000002" class="node">
<title>Node2</title>
<g id="a_Node000002"><a xlink:href="api_8cpp.html" target="_top" xlink:title="Complete C ABI implementation for duvc&#45;ctl library.">
<polygon fill="white" stroke="#666666" points="55.75,-20 0,-20 0,0 55.75,0 55.75,-20"/>
<text xml:space="preserve" text-anchor="middle" x="27.88" y="-6.5" font-family="Helvetica,sans-Serif" font-size="10.00">c/api.cpp</text>
</a>
</g>
</g>
<!-- Node1&#45;&gt;Node2 -->
<g id="edge1_Node000001_Node000002" class="edge">
<title>Node1&#45;&gt;Node2</title>
<g id="a_edge1_Node000001_Node000002"><a xlink:title=" ">
<path fill="none" stroke="#63b8ff" d="M382.29,-197.61C327.8,-192.64 235.44,-181.1 159.88,-156 97.25,-135.2 62.23,-144.35 27.88,-88 14.93,-66.77 20.8,-35.74 24.97,-20.36"/>
<polygon fill="#63b8ff" stroke="#63b8ff" points="381.87,-201.08 392.14,-198.47 382.48,-194.11 381.87,-201.08"/>
</a>
</g>
</g>
<!-- Node3 -->
<g id="Node000003" class="node">
<title>Node3</title>
<g id="a_Node000003"><a xlink:href="error__handling_8cpp.html" target="_top" xlink:title="C ABI error handling and diagnostics implementation.">
<polygon fill="white" stroke="#666666" points="871.75,-150 768,-150 768,-130 871.75,-130 871.75,-150"/>
<text xml:space="preserve" text-anchor="middle" x="819.88" y="-136.5" font-family="Helvetica,sans-Serif" font-size="10.00">c/error_handling.cpp</text>
</a>
</g>
</g>
<!-- Node1&#45;&gt;Node3 -->
<g id="edge2_Node000001_Node000003" class="edge">
<title>Node1&#45;&gt;Node3</title>
<g id="a_edge2_Node000001_Node000003"><a xlink:title=" ">
<path fill="none" stroke="#63b8ff" d="M475.56,-196.21C539.73,-189.26 658.62,-175.11 758.88,-156 767.12,-154.43 775.93,-152.44 784.21,-150.44"/>
<polygon fill="#63b8ff" stroke="#63b8ff" points="475.31,-192.71 465.74,-197.26 476.06,-199.67 475.31,-192.71"/>
</a>
</g>
</g>
<!-- Node4 -->
<g id="Node000004" class="node">
<title>Node4</title>
<g id="a_Node000004"><a xlink:href="camera_8h.html" target="_top" xlink:title="RAII camera handle for simplified device management.">
<polygon fill="white" stroke="#666666" points="247,-150 168.75,-150 168.75,-130 247,-130 247,-150"/>
<text xml:space="preserve" text-anchor="middle" x="207.88" y="-136.5" font-family="Helvetica,sans-Serif" font-size="10.00">core/camera.h</text>
</a>
</g>
</g>
<!-- Node1&#45;&gt;Node4 -->
<g id="edge3_Node000001_Node000004" class="edge">
<title>Node1&#45;&gt;Node4</title>
<g id="a_edge3_Node000001_Node000004"><a xlink:title=" ">
<path fill="none" stroke="#63b8ff" d="M383.36,-188.64C341.56,-177.29 280.5,-160.72 242.53,-150.41"/>
<polygon fill="#63b8ff" stroke="#63b8ff" points="382.32,-191.99 392.88,-191.23 384.15,-185.23 382.32,-191.99"/>
</a>
</g>
</g>
<!-- Node6 -->
<g id="Node000006" class="node">
<title>Node6</title>
<g id="a_Node000006"><a xlink:href="capability_8cpp.html" target="_top" xlink:title="Device capability detection implementation using Camera API.">
<polygon fill="white" stroke="#666666" points="291.38,-20 194.38,-20 194.38,0 291.38,0 291.38,-20"/>
<text xml:space="preserve" text-anchor="middle" x="242.88" y="-6.5" font-family="Helvetica,sans-Serif" font-size="10.00">core/capability.cpp</text>
</a>
</g>
</g>
<!-- Node1&#45;&gt;Node6 -->
<g id="edge12_Node000001_Node000006" class="edge">
<title>Node1&#45;&gt;Node6</title>
<g id="a_edge12_Node000001_Node000006"><a xlink:title=" ">
<path fill="none" stroke="#63b8ff" d="M413.51,-183.12C389.21,-155.15 340.02,-99.69 294.88,-56 281.49,-43.05 265.11,-29.17 254.35,-20.31"/>
<polygon fill="#63b8ff" stroke="#63b8ff" points="410.58,-185.08 419.76,-190.36 415.87,-180.5 410.58,-185.08"/>
</a>
</g>
</g>
<!-- Node7 -->
<g id="Node000007" class="node">
<title>Node7</title>
<g id="a_Node000007"><a xlink:href="capability_8h.html" target="_top" xlink:title="Device capability detection and snapshots using Camera API.">
<polygon fill="white" stroke="#666666" points="286.12,-82 199.62,-82 199.62,-62 286.12,-62 286.12,-82"/>
<text xml:space="preserve" text-anchor="middle" x="242.88" y="-68.5" font-family="Helvetica,sans-Serif" font-size="10.00">core/capability.h</text>
</a>
</g>
</g>
<!-- Node1&#45;&gt;Node7 -->
<g id="edge13_Node000001_Node000007" class="edge">
<title>Node1&#45;&gt;Node7</title>
<g id="a_edge13_Node000001_Node000007"><a xlink:title=" ">
<path fill="none" stroke="#63b8ff" d="M395.48,-187.01C377.75,-178.96 355.96,-168.08 337.88,-156 303.45,-133.02 268.07,-98.73 251.92,-82.36"/>
<polygon fill="#63b8ff" stroke="#63b8ff" points="393.97,-190.17 404.53,-191.02 396.81,-183.77 393.97,-190.17"/>
</a>
</g>
</g>
<!-- Node8 -->
<g id="Node000008" class="node">
<title>Node8</title>
<g id="a_Node000008"><a xlink:href="duvc_8hpp.html" target="_top" xlink:title="Main umbrella header for duvc&#45;ctl library.">
<polygon fill="white" stroke="#666666" points="417.75,-20 362,-20 362,0 417.75,0 417.75,-20"/>
<text xml:space="preserve" text-anchor="middle" x="389.88" y="-6.5" font-family="Helvetica,sans-Serif" font-size="10.00">duvc.hpp</text>
</a>
</g>
</g>
<!-- Node1&#45;&gt;Node8 -->
<g id="edge15_Node000001_Node000008" class="edge">
<title>Node1&#45;&gt;Node8</title>
<g id="a_edge15_Node000001_Node000008"><a xlink:title=" ">
<path fill="none" stroke="#63b8ff" d="M418.73,-181.48C415.09,-173.73 411.3,-164.63 408.88,-156 394.85,-106.14 391.11,-43.67 390.17,-20.35"/>
<polygon fill="#63b8ff" stroke="#63b8ff" points="415.51,-182.88 423.09,-190.29 421.79,-179.77 415.51,-182.88"/>
</a>
</g>
</g>
<!-- Node9 -->
<g id="Node000009" class="node">
<title>Node9</title>
<g id="a_Node000009"><a xlink:href="result_8cpp.html" target="_top" xlink:title="Result/Error type implementations.">
<polygon fill="white" stroke="#666666" points="970.12,-150 889.62,-150 889.62,-130 970.12,-130 970.12,-150"/>
<text xml:space="preserve" text-anchor="middle" x="929.88" y="-136.5" font-family="Helvetica,sans-Serif" font-size="10.00">core/result.cpp</text>
</a>
</g>
</g>
<!-- Node1&#45;&gt;Node9 -->
<g id="edge14_Node000001_Node000009" class="edge">
<title>Node1&#45;&gt;Node9</title>
<g id="a_edge14_Node000001_Node000009"><a xlink:title=" ">
<path fill="none" stroke="#63b8ff" d="M475.58,-199.39C558.1,-195.88 734.78,-185.33 880.88,-156 887.94,-154.58 895.44,-152.56 902.39,-150.46"/>
<polygon fill="#63b8ff" stroke="#63b8ff" points="475.46,-195.89 465.61,-199.8 475.75,-202.89 475.46,-195.89"/>
</a>
</g>
</g>
<!-- Node10 -->
<g id="Node000010" class="node">
<title>Node10</title>
<g id="a_Node000010"><a xlink:href="interface_8h.html" target="_top" xlink:title="Abstract platform interface for camera control.">
<polygon fill="white" stroke="#666666" points="517.88,-150 417.88,-150 417.88,-130 517.88,-130 517.88,-150"/>
<text xml:space="preserve" text-anchor="middle" x="467.88" y="-136.5" font-family="Helvetica,sans-Serif" font-size="10.00">platform/interface.h</text>
</a>
</g>
</g>
<!-- Node1&#45;&gt;Node10 -->
<g id="edge16_Node000001_Node000010" class="edge">
<title>Node1&#45;&gt;Node10</title>
<g id="a_edge16_Node000001_Node000010"><a xlink:title=" ">
<path fill="none" stroke="#63b8ff" d="M441.05,-182.26C448.01,-171.56 456.43,-158.61 461.95,-150.11"/>
<polygon fill="#63b8ff" stroke="#63b8ff" points="438.31,-180.06 435.79,-190.36 444.18,-183.88 438.31,-180.06"/>
</a>
</g>
</g>
<!-- Node12 -->
<g id="Node000012" class="node">
<title>Node12</title>
<g id="a_Node000012"><a xlink:href="ks__properties_8h.html" target="_top" xlink:title="IKsPropertySet wrapper for vendor properties.">
<polygon fill="white" stroke="#666666" points="749.88,-156 643.88,-156 643.88,-124 749.88,-124 749.88,-156"/>
<text xml:space="preserve" text-anchor="start" x="651.88" y="-142.5" font-family="Helvetica,sans-Serif" font-size="10.00">platform/windows/ks</text>
<text xml:space="preserve" text-anchor="middle" x="696.88" y="-130.5" font-family="Helvetica,sans-Serif" font-size="10.00">_properties.h</text>
</a>
</g>
</g>
<!-- Node1&#45;&gt;Node12 -->
<g id="edge19_Node000001_Node000012" class="edge">
<title>Node1&#45;&gt;Node12</title>
<g id="a_edge19_Node000001_Node000012"><a xlink:title=" ">
<path fill="none" stroke="#63b8ff" d="M475.49,-191.13C517.29,-182.2 580.26,-168.57 634.88,-156 637.68,-155.35 640.56,-154.68 643.46,-154"/>
<polygon fill="#63b8ff" stroke="#63b8ff" points="474.82,-187.69 465.77,-193.2 476.28,-194.54 474.82,-187.69"/>
</a>
</g>
</g>
<!-- Node15 -->
<g id="Node000015" class="node">
<title>Node15</title>
<g id="a_Node000015"><a xlink:href="logitech_8h.html" target="_top" xlink:title="Logitech&#45;specific vendor property definitions and helpers.">
<polygon fill="white" stroke="#666666" points="626,-150 535.75,-150 535.75,-130 626,-130 626,-150"/>
<text xml:space="preserve" text-anchor="middle" x="580.88" y="-136.5" font-family="Helvetica,sans-Serif" font-size="10.00">vendor/logitech.h</text>
</a>
</g>
</g>
<!-- Node1&#45;&gt;Node15 -->
<g id="edge22_Node000001_Node000015" class="edge">
<title>Node1&#45;&gt;Node15</title>
<g id="a_edge22_Node000001_Node000015"><a xlink:title=" ">
<path fill="none" stroke="#63b8ff" d="M462.98,-187.54C491.6,-176.24 531.76,-160.39 557.04,-150.41"/>
<polygon fill="#63b8ff" stroke="#63b8ff" points="462.05,-184.14 454.03,-191.07 464.62,-190.65 462.05,-184.14"/>
</a>
</g>
</g>
<!-- Node4&#45;&gt;Node2 -->
<g id="edge4_Node000004_Node000002" class="edge">
<title>Node4&#45;&gt;Node2</title>
<g id="a_edge4_Node000004_Node000002"><a xlink:title=" ">
<path fill="none" stroke="#63b8ff" d="M157.22,-135.7C121.55,-130.69 75.28,-118.31 46.88,-88 29.17,-69.11 27.22,-36.44 27.44,-20.41"/>
<polygon fill="#63b8ff" stroke="#63b8ff" points="156.53,-139.15 166.88,-136.9 157.39,-132.2 156.53,-139.15"/>
</a>
</g>
</g>
<!-- Node5 -->
<g id="Node000005" class="node">
<title>Node5</title>
<g id="a_Node000005"><a xlink:href="camera_8cpp.html" target="_top" xlink:title="RAII camera handle implementation.">
<polygon fill="white" stroke="#666666" points="144.25,-82 55.5,-82 55.5,-62 144.25,-62 144.25,-82"/>
<text xml:space="preserve" text-anchor="middle" x="99.88" y="-68.5" font-family="Helvetica,sans-Serif" font-size="10.00">core/camera.cpp</text>
</a>
</g>
</g>
<!-- Node4&#45;&gt;Node5 -->
<g id="edge5_Node000004_Node000005" class="edge">
<title>Node4&#45;&gt;Node5</title>
<g id="a_edge5_Node000004_Node000005"><a xlink:title=" ">
<path fill="none" stroke="#63b8ff" d="M182.62,-123.57C161.78,-110.83 132.87,-93.16 115.32,-82.44"/>
<polygon fill="#63b8ff" stroke="#63b8ff" points="180.75,-126.53 191.11,-128.75 184.4,-120.55 180.75,-126.53"/>
</a>
</g>
</g>
<!-- Node4&#45;&gt;Node6 -->
<g id="edge6_Node000004_Node000006" class="edge">
<title>Node4&#45;&gt;Node6</title>
<g id="a_edge6_Node000004_Node000006"><a xlink:title=" ">
<path fill="none" stroke="#63b8ff" d="M197.35,-119.58C189.46,-102.25 181.5,-76.52 190.88,-56 197.97,-40.47 213.37,-28.25 225.57,-20.49"/>
<polygon fill="#63b8ff" stroke="#63b8ff" points="194.08,-120.86 201.67,-128.26 200.35,-117.75 194.08,-120.86"/>
</a>
</g>
</g>
<!-- Node4&#45;&gt;Node7 -->
<g id="edge7_Node000004_Node000007" class="edge">
<title>Node4&#45;&gt;Node7</title>
<g id="a_edge7_Node000004_Node000007"><a xlink:title=" ">
<path fill="none" stroke="#63b8ff" d="M218.27,-119.4C224.74,-107.2 232.78,-92.04 237.87,-82.44"/>
<polygon fill="#63b8ff" stroke="#63b8ff" points="215.19,-117.73 213.6,-128.21 221.38,-121.01 215.19,-117.73"/>
</a>
</g>
</g>
<!-- Node4&#45;&gt;Node8 -->
<g id="edge11_Node000004_Node000008" class="edge">
<title>Node4&#45;&gt;Node8</title>
<g id="a_edge11_Node000004_Node000008"><a xlink:title=" ">
<path fill="none" stroke="#63b8ff" d="M235.77,-124.07C253.17,-114.4 275.8,-101.21 294.88,-88 327.16,-65.64 362.4,-35.39 379.46,-20.32"/>
<polygon fill="#63b8ff" stroke="#63b8ff" points="234.1,-120.99 227.01,-128.86 237.47,-127.13 234.1,-120.99"/>
</a>
</g>
</g>
<!-- Node7&#45;&gt;Node2 -->
<g id="edge8_Node000007_Node000002" class="edge">
<title>Node7&#45;&gt;Node2</title>
<g id="a_edge8_Node000007_Node000002"><a xlink:title=" ">
<path fill="none" stroke="#63b8ff" d="M198.35,-58.57C155.59,-46.64 92.32,-28.98 56.09,-18.87"/>
<polygon fill="#63b8ff" stroke="#63b8ff" points="197.25,-61.9 207.82,-61.22 199.13,-55.16 197.25,-61.9"/>
</a>
</g>
</g>
<!-- Node7&#45;&gt;Node6 -->
<g id="edge9_Node000007_Node000006" class="edge">
<title>Node7&#45;&gt;Node6</title>
<g id="a_edge9_Node000007_Node000006"><a xlink:title=" ">
<path fill="none" stroke="#63b8ff" d="M242.88,-50.25C242.88,-39.97 242.88,-28.09 242.88,-20.11"/>
<polygon fill="#63b8ff" stroke="#63b8ff" points="239.38,-50.11 242.88,-60.11 246.38,-50.11 239.38,-50.11"/>
</a>
</g>
</g>
<!-- Node7&#45;&gt;Node8 -->
<g id="edge10_Node000007_Node000008" class="edge">
<title>Node7&#45;&gt;Node8</title>
<g id="a_edge10_Node000007_Node000008"><a xlink:title=" ">
<path fill="none" stroke="#63b8ff" d="M276.25,-57.38C304,-46.05 342.75,-30.23 367.07,-20.31"/>
<polygon fill="#63b8ff" stroke="#63b8ff" points="275.18,-54.03 267.25,-61.05 277.83,-60.51 275.18,-54.03"/>
</a>
</g>
</g>
<!-- Node10&#45;&gt;Node8 -->
<g id="edge17_Node000010_Node000008" class="edge">
<title>Node10&#45;&gt;Node8</title>
<g id="a_edge17_Node000010_Node000008"><a xlink:title=" ">
<path fill="none" stroke="#63b8ff" d="M456.34,-120.07C439.4,-92.28 408.44,-41.47 395.64,-20.47"/>
<polygon fill="#63b8ff" stroke="#63b8ff" points="453.29,-121.78 461.48,-128.5 459.26,-118.14 453.29,-121.78"/>
</a>
</g>
</g>
<!-- Node11 -->
<g id="Node000011" class="node">
<title>Node11</title>
<g id="a_Node000011"><a xlink:href="factory_8cpp.html" target="_top" xlink:title="Platform detection and factory implementation.">
<polygon fill="white" stroke="#666666" points="558,-82 455.75,-82 455.75,-62 558,-62 558,-82"/>
<text xml:space="preserve" text-anchor="middle" x="506.88" y="-68.5" font-family="Helvetica,sans-Serif" font-size="10.00">platform/factory.cpp</text>
</a>
</g>
</g>
<!-- Node10&#45;&gt;Node11 -->
<g id="edge18_Node000010_Node000011" class="edge">
<title>Node10&#45;&gt;Node11</title>
<g id="a_edge18_Node000010_Node000011"><a xlink:title=" ">
<path fill="none" stroke="#63b8ff" d="M479.23,-119.78C486.49,-107.51 495.57,-92.14 501.3,-82.44"/>
<polygon fill="#63b8ff" stroke="#63b8ff" points="476.31,-117.85 474.23,-128.24 482.33,-121.41 476.31,-117.85"/>
</a>
</g>
</g>
<!-- Node13 -->
<g id="Node000013" class="node">
<title>Node13</title>
<g id="a_Node000013"><a xlink:href="ks__properties_8cpp.html" target="_top" xlink:title="IKsPropertySet implementation for vendor properties.">
<polygon fill="white" stroke="#666666" points="837.88,-88 731.88,-88 731.88,-56 837.88,-56 837.88,-88"/>
<text xml:space="preserve" text-anchor="start" x="739.88" y="-74.5" font-family="Helvetica,sans-Serif" font-size="10.00">platform/windows/ks</text>
<text xml:space="preserve" text-anchor="middle" x="784.88" y="-62.5" font-family="Helvetica,sans-Serif" font-size="10.00">_properties.cpp</text>
</a>
</g>
</g>
<!-- Node12&#45;&gt;Node13 -->
<g id="edge20_Node000012_Node000013" class="edge">
<title>Node12&#45;&gt;Node13</title>
<g id="a_edge20_Node000012_Node000013"><a xlink:title=" ">
<path fill="none" stroke="#63b8ff" d="M726.38,-116.87C738.81,-107.55 752.99,-96.91 764.27,-88.45"/>
<polygon fill="#63b8ff" stroke="#63b8ff" points="724.4,-113.98 718.5,-122.78 728.6,-119.58 724.4,-113.98"/>
</a>
</g>
</g>
<!-- Node14 -->
<g id="Node000014" class="node">
<title>Node14</title>
<g id="a_Node000014"><a xlink:href="logitech_8cpp.html" target="_top" xlink:title="Logitech&#45;specific property implementations.">
<polygon fill="white" stroke="#666666" points="714.25,-82 613.5,-82 613.5,-62 714.25,-62 714.25,-82"/>
<text xml:space="preserve" text-anchor="middle" x="663.88" y="-68.5" font-family="Helvetica,sans-Serif" font-size="10.00">vendor/logitech.cpp</text>
</a>
</g>
</g>
<!-- Node12&#45;&gt;Node14 -->
<g id="edge21_Node000012_Node000014" class="edge">
<title>Node12&#45;&gt;Node14</title>
<g id="a_edge21_Node000012_Node000014"><a xlink:title=" ">
<path fill="none" stroke="#63b8ff" d="M684.22,-113.68C678.71,-102.68 672.61,-90.46 668.53,-82.32"/>
<polygon fill="#63b8ff" stroke="#63b8ff" points="680.94,-114.96 688.54,-122.34 687.2,-111.83 680.94,-114.96"/>
</a>
</g>
</g>
<!-- Node15&#45;&gt;Node8 -->
<g id="edge23_Node000015_Node000008" class="edge">
<title>Node15&#45;&gt;Node8</title>
<g id="a_edge23_Node000015_Node000008"><a xlink:title=" ">
<path fill="none" stroke="#63b8ff" d="M583.22,-118.28C584.12,-99.64 582.24,-72.68 566.88,-56 546.95,-34.37 462.96,-20.46 418.22,-14.44"/>
<polygon fill="#63b8ff" stroke="#63b8ff" points="579.74,-117.87 582.41,-128.13 586.72,-118.45 579.74,-117.87"/>
</a>
</g>
</g>
<!-- Node15&#45;&gt;Node14 -->
<g id="edge24_Node000015_Node000014" class="edge">
<title>Node15&#45;&gt;Node14</title>
<g id="a_edge24_Node000015_Node000014"><a xlink:title=" ">
<path fill="none" stroke="#63b8ff" d="M601.39,-122.69C617.31,-110.03 638.82,-92.92 652.01,-82.44"/>
<polygon fill="#63b8ff" stroke="#63b8ff" points="599.6,-119.64 593.95,-128.6 603.96,-125.12 599.6,-119.64"/>
</a>
</g>
</g>
</g>
</svg>

<g id="navigator" transform="translate(0 0)" fill="#404254">
  <rect fill="#f2f5e9" fill-opacity="0.5" stroke="#606060" stroke-width=".5" x="0" y="0" width="60" height="60"/>
  <use id="zoomplus" xlink:href="#zoomPlus" x="17" y="9" onmousedown="handleZoom(evt,'in')"/>
  <use id="zoomminus" xlink:href="#zoomMin" x="42" y="9" onmousedown="handleZoom(evt,'out')"/>
  <use id="reset" xlink:href="#resetDef" x="30" y="36" onmousedown="handleReset()"/>
   <use id="arrowup" xlink:href="#arrowUp" x="0" y="0" onmousedown="handlePan(0,-1)"/>
  <use id="arrowright" xlink:href="#arrowRight" x="0" y="0" onmousedown="handlePan(1,0)"/>
  <use id="arrowdown" xlink:href="#arrowDown" x="0" y="0" onmousedown="handlePan(0,1)"/>
  <use id="arrowleft" xlink:href="#arrowLeft" x="0" y="0" onmousedown="handlePan(-1,0)"/>
</g>
<svg viewBox="0 0 15 15" width="100%" height="30px" preserveAspectRatio="xMaxYMin meet">
 <g id="arrow_out" transform="scale(0.3 0.3)">
  <a xlink:href="result_8h__dep__incl_org.svg" target="_base">
   <rect id="button" ry="5" rx="5" y="6" x="6" height="38" width="38"
        fill="#f2f5e9" fill-opacity="0.5" stroke="#606060" stroke-width="1.0"/>
   <path id="arrow"
     d="M 11.500037,31.436501 C 11.940474,20.09759 22.043105,11.32322 32.158766,21.979434 L 37.068811,17.246167 C 37.068811,17.246167 37.088388,32 37.088388,32 L 22.160133,31.978069 C 22.160133,31.978069 26.997745,27.140456 26.997745,27.140456 C 18.528582,18.264221 13.291696,25.230495 11.500037,31.436501 z"
     style="fill:#404040;"/>
  </a>
 </g>
</svg>

<style type='text/css'>
<![CDATA[
[data-mouse-over-selected='false'] { opacity: 0.7; }
[data-mouse-over-selected='true']  { opacity: 1.0; }
]]>
</style>
<script type="application/ecmascript"><![CDATA[
document.addEventListener('DOMContentLoaded', (event) => {
  highlightEdges();
  highlightAdjacentNodes();
});
]]></script>
</svg>
