<?xml version="1.0" encoding="UTF-8" standalone="no"?>
<!DOCTYPE svg PUBLIC "-//W3C//DTD SVG 1.1//EN"
 "http://www.w3.org/Graphics/SVG/1.1/DTD/svg11.dtd">
<!-- Generated by graphviz version 14.0.2 (20251019.1705)
 -->
<!-- Title: utils/string_conversion.h Pages: 1 -->
<svg width="402pt" height="84pt"
 viewBox="0.00 0.00 402.00 84.00" xmlns="http://www.w3.org/2000/svg" xmlns:xlink="http://www.w3.org/1999/xlink">
<g id="graph0" class="graph" transform="scale(1 1) rotate(0) translate(4 80)">
<title>utils/string_conversion.h</title>
<!-- Node1 -->
<g id="Node000001" class="node">
<title>Node1</title>
<g id="a_Node000001"><a xlink:title="String conversion utilities for enums and types.">
<polygon fill="#999999" stroke="#666666" points="229.75,-76 108,-76 108,-56 229.75,-56 229.75,-76"/>
<text xml:space="preserve" text-anchor="middle" x="168.88" y="-62.5" font-family="Helvetica,sans-Serif" font-size="10.00">utils/string_conversion.h</text>
</a>
</g>
</g>
<!-- Node2 -->
<g id="Node000002" class="node">
<title>Node2</title>
<g id="a_Node000002"><a xlink:href="api_8cpp.html" target="_top" xlink:title="Complete C ABI implementation for duvc&#45;ctl library.">
<polygon fill="white" stroke="#666666" points="55.75,-20 0,-20 0,0 55.75,0 55.75,-20"/>
<text xml:space="preserve" text-anchor="middle" x="27.88" y="-6.5" font-family="Helvetica,sans-Serif" font-size="10.00">c/api.cpp</text>
</a>
</g>
</g>
<!-- Node1&#45;&gt;Node2 -->
<g id="edge1_Node000001_Node000002" class="edge">
<title>Node1&#45;&gt;Node2</title>
<g id="a_edge1_Node000001_Node000002"><a xlink:title=" ">
<path fill="none" stroke="#63b8ff" d="M133.71,-51.53C108.47,-41.87 75.1,-29.08 52.63,-20.48"/>
<polygon fill="#63b8ff" stroke="#63b8ff" points="132.31,-54.74 142.9,-55.05 134.81,-48.21 132.31,-54.74"/>
</a>
</g>
</g>
<!-- Node3 -->
<g id="Node000003" class="node">
<title>Node3</title>
<g id="a_Node000003"><a xlink:href="capability_8cpp.html" target="_top" xlink:title="Device capability detection implementation using Camera API.">
<polygon fill="white" stroke="#666666" points="170.38,-20 73.38,-20 73.38,0 170.38,0 170.38,-20"/>
<text xml:space="preserve" text-anchor="middle" x="121.88" y="-6.5" font-family="Helvetica,sans-Serif" font-size="10.00">core/capability.cpp</text>
</a>
</g>
</g>
<!-- Node1&#45;&gt;Node3 -->
<g id="edge2_Node000001_Node000003" class="edge">
<title>Node1&#45;&gt;Node3</title>
<g id="a_edge2_Node000001_Node000003"><a xlink:title=" ">
<path fill="none" stroke="#63b8ff" d="M153.21,-47C145.43,-38.06 136.34,-27.62 129.97,-20.3"/>
<polygon fill="#63b8ff" stroke="#63b8ff" points="150.49,-49.21 159.69,-54.45 155.77,-44.61 150.49,-49.21"/>
</a>
</g>
</g>
<!-- Node4 -->
<g id="Node000004" class="node">
<title>Node4</title>
<g id="a_Node000004"><a xlink:href="duvc_8hpp.html" target="_top" xlink:title="Main umbrella header for duvc&#45;ctl library.">
<polygon fill="white" stroke="#666666" points="243.75,-20 188,-20 188,0 243.75,0 243.75,-20"/>
<text xml:space="preserve" text-anchor="middle" x="215.88" y="-6.5" font-family="Helvetica,sans-Serif" font-size="10.00">duvc.hpp</text>
</a>
</g>
</g>
<!-- Node1&#45;&gt;Node4 -->
<g id="edge3_Node000001_Node000004" class="edge">
<title>Node1&#45;&gt;Node4</title>
<g id="a_edge3_Node000001_Node000004"><a xlink:title=" ">
<path fill="none" stroke="#63b8ff" d="M184.54,-47C192.32,-38.06 201.41,-27.62 207.78,-20.3"/>
<polygon fill="#63b8ff" stroke="#63b8ff" points="181.98,-44.61 178.06,-54.45 187.26,-49.21 181.98,-44.61"/>
</a>
</g>
</g>
<!-- Node5 -->
<g id="Node000005" class="node">
<title>Node5</title>
<g id="a_Node000005"><a xlink:href="string__conversion_8cpp.html" target="_top" xlink:title="String conversion utilities implementation.">
<polygon fill="white" stroke="#666666" points="394,-20 261.75,-20 261.75,0 394,0 394,-20"/>
<text xml:space="preserve" text-anchor="middle" x="327.88" y="-6.5" font-family="Helvetica,sans-Serif" font-size="10.00">utils/string_conversion.cpp</text>
</a>
</g>
</g>
<!-- Node1&#45;&gt;Node5 -->
<g id="edge4_Node000001_Node000005" class="edge">
<title>Node1&#45;&gt;Node5</title>
<g id="a_edge4_Node000001_Node000005"><a xlink:title=" ">
<path fill="none" stroke="#63b8ff" d="M207.39,-51.92C235.97,-42.21 274.29,-29.2 299.96,-20.48"/>
<polygon fill="#63b8ff" stroke="#63b8ff" points="206.35,-48.58 198,-55.11 208.6,-55.21 206.35,-48.58"/>
</a>
</g>
</g>
</g>
</svg>
