<?xml version="1.0" encoding="UTF-8" standalone="no"?>
<!DOCTYPE svg PUBLIC "-//W3C//DTD SVG 1.1//EN"
 "http://www.w3.org/Graphics/SVG/1.1/DTD/svg11.dtd">
<!-- Generated by graphviz version 14.0.2 (20251019.1705)
 -->
<!-- Title: utils/string_conversion.cpp Pages: 1 -->
<svg width="349pt" height="208pt"
 viewBox="0.00 0.00 349.00 208.00" xmlns="http://www.w3.org/2000/svg" xmlns:xlink="http://www.w3.org/1999/xlink">
<g id="graph0" class="graph" transform="scale(1 1) rotate(0) translate(4 204)">
<title>utils/string_conversion.cpp</title>
<!-- Node1 -->
<g id="Node000001" class="node">
<title>Node1</title>
<g id="a_Node000001"><a xlink:title="String conversion utilities implementation.">
<polygon fill="#999999" stroke="#666666" points="267.88,-200 135.62,-200 135.62,-180 267.88,-180 267.88,-200"/>
<text xml:space="preserve" text-anchor="middle" x="201.75" y="-186.5" font-family="Helvetica,sans-Serif" font-size="10.00">utils/string_conversion.cpp</text>
</a>
</g>
</g>
<!-- Node2 -->
<g id="Node000002" class="node">
<title>Node2</title>
<g id="a_Node000002"><a xlink:href="string__conversion_8h.html" target="_top" xlink:title="String conversion utilities for enums and types.">
<polygon fill="white" stroke="#666666" points="146,-144 47.5,-144 47.5,-112 146,-112 146,-144"/>
<text xml:space="preserve" text-anchor="start" x="55.5" y="-130.5" font-family="Helvetica,sans-Serif" font-size="10.00">duvc&#45;ctl/utils/string</text>
<text xml:space="preserve" text-anchor="middle" x="96.75" y="-118.5" font-family="Helvetica,sans-Serif" font-size="10.00">_conversion.h</text>
</a>
</g>
</g>
<!-- Node1&#45;&gt;Node2 -->
<g id="edge1_Node000001_Node000002" class="edge">
<title>Node1&#45;&gt;Node2</title>
<g id="a_edge1_Node000001_Node000002"><a xlink:title=" ">
<path fill="none" stroke="#63b8ff" d="M185.34,-179.62C171.43,-171.67 150.95,-159.97 133.18,-149.82"/>
<polygon fill="#63b8ff" stroke="#63b8ff" points="135.39,-147.05 124.97,-145.12 131.91,-153.12 135.39,-147.05"/>
</a>
</g>
</g>
<!-- Node4 -->
<g id="Node000004" class="node">
<title>Node4</title>
<g id="a_Node000004"><a xlink:title=" ">
<polygon fill="#e0e0e0" stroke="#999999" points="155.75,-20 115.75,-20 115.75,0 155.75,0 155.75,-20"/>
<text xml:space="preserve" text-anchor="middle" x="135.75" y="-6.5" font-family="Helvetica,sans-Serif" font-size="10.00">string</text>
</a>
</g>
</g>
<!-- Node1&#45;&gt;Node4 -->
<g id="edge6_Node000001_Node000004" class="edge">
<title>Node1&#45;&gt;Node4</title>
<g id="a_edge6_Node000001_Node000004"><a xlink:title=" ">
<path fill="none" stroke="#63b8ff" d="M198.39,-179.93C188.17,-152.38 157.34,-69.24 143.11,-30.84"/>
<polygon fill="#63b8ff" stroke="#63b8ff" points="146.47,-29.85 139.71,-21.69 139.91,-32.28 146.47,-29.85"/>
</a>
</g>
</g>
<!-- Node5 -->
<g id="Node000005" class="node">
<title>Node5</title>
<g id="a_Node000005"><a xlink:title=" ">
<polygon fill="#e0e0e0" stroke="#999999" points="260.12,-138 201.38,-138 201.38,-118 260.12,-118 260.12,-138"/>
<text xml:space="preserve" text-anchor="middle" x="230.75" y="-124.5" font-family="Helvetica,sans-Serif" font-size="10.00">stdexcept</text>
</a>
</g>
</g>
<!-- Node1&#45;&gt;Node5 -->
<g id="edge5_Node000001_Node000005" class="edge">
<title>Node1&#45;&gt;Node5</title>
<g id="a_edge5_Node000001_Node000005"><a xlink:title=" ">
<path fill="none" stroke="#63b8ff" d="M206.28,-179.62C210.31,-171.3 216.32,-158.86 221.37,-148.4"/>
<polygon fill="#63b8ff" stroke="#63b8ff" points="224.49,-150 225.69,-139.48 218.18,-146.96 224.49,-150"/>
</a>
</g>
</g>
<!-- Node6 -->
<g id="Node000006" class="node">
<title>Node6</title>
<g id="a_Node000006"><a xlink:title=" ">
<polygon fill="#e0e0e0" stroke="#999999" points="341,-138 278.5,-138 278.5,-118 341,-118 341,-138"/>
<text xml:space="preserve" text-anchor="middle" x="309.75" y="-124.5" font-family="Helvetica,sans-Serif" font-size="10.00">windows.h</text>
</a>
</g>
</g>
<!-- Node1&#45;&gt;Node6 -->
<g id="edge7_Node000001_Node000006" class="edge">
<title>Node1&#45;&gt;Node6</title>
<g id="a_edge7_Node000001_Node000006"><a xlink:title=" ">
<path fill="none" stroke="#63b8ff" d="M218.62,-179.62C235.9,-170.03 263.01,-154.97 283.17,-143.77"/>
<polygon fill="#63b8ff" stroke="#63b8ff" points="284.63,-146.96 291.67,-139.04 281.23,-140.84 284.63,-146.96"/>
</a>
</g>
</g>
<!-- Node3 -->
<g id="Node000003" class="node">
<title>Node3</title>
<g id="a_Node000003"><a xlink:href="types_8h.html" target="_top" xlink:title="Core data types and enumerations for duvc&#45;ctl.">
<polygon fill="white" stroke="#666666" points="107.5,-76 0,-76 0,-56 107.5,-56 107.5,-76"/>
<text xml:space="preserve" text-anchor="middle" x="53.75" y="-62.5" font-family="Helvetica,sans-Serif" font-size="10.00">duvc&#45;ctl/core/types.h</text>
</a>
</g>
</g>
<!-- Node2&#45;&gt;Node3 -->
<g id="edge2_Node000002_Node000003" class="edge">
<title>Node2&#45;&gt;Node3</title>
<g id="a_edge2_Node000002_Node000003"><a xlink:title=" ">
<path fill="none" stroke="#63b8ff" d="M85.68,-111.55C80.02,-103.65 73.08,-93.97 67.12,-85.66"/>
<polygon fill="#63b8ff" stroke="#63b8ff" points="70.04,-83.73 61.37,-77.64 64.35,-87.81 70.04,-83.73"/>
</a>
</g>
</g>
<!-- Node2&#45;&gt;Node4 -->
<g id="edge4_Node000002_Node000004" class="edge">
<title>Node2&#45;&gt;Node4</title>
<g id="a_edge4_Node000002_Node000004"><a xlink:title=" ">
<path fill="none" stroke="#63b8ff" d="M103.24,-111.51C107.34,-101.47 112.63,-88.06 116.75,-76 121.82,-61.16 126.76,-44.14 130.34,-31.24"/>
<polygon fill="#63b8ff" stroke="#63b8ff" points="133.66,-32.37 132.9,-21.8 126.9,-30.53 133.66,-32.37"/>
</a>
</g>
</g>
<!-- Node3&#45;&gt;Node4 -->
<g id="edge3_Node000003_Node000004" class="edge">
<title>Node3&#45;&gt;Node4</title>
<g id="a_edge3_Node000003_Node000004"><a xlink:title=" ">
<path fill="none" stroke="#63b8ff" d="M68.03,-55.59C80.19,-47.59 97.89,-35.93 112.15,-26.54"/>
<polygon fill="#63b8ff" stroke="#63b8ff" points="113.66,-29.73 120.09,-21.31 109.81,-23.89 113.66,-29.73"/>
</a>
</g>
</g>
</g>
</svg>
