<?xml version="1.0" encoding="UTF-8" standalone="no"?>
<!DOCTYPE svg PUBLIC "-//W3C//DTD SVG 1.1//EN"
 "http://www.w3.org/Graphics/SVG/1.1/DTD/svg11.dtd">
<!-- Generated by graphviz version 14.0.2 (20251019.1705)
 -->
<!-- Title: utils/string_conversion.h Pages: 1 -->
<svg width="164pt" height="140pt"
 viewBox="0.00 0.00 164.00 140.00" xmlns="http://www.w3.org/2000/svg" xmlns:xlink="http://www.w3.org/1999/xlink">
<g id="graph0" class="graph" transform="scale(1 1) rotate(0) translate(4 136)">
<title>utils/string_conversion.h</title>
<!-- Node1 -->
<g id="Node000001" class="node">
<title>Node1</title>
<g id="a_Node000001"><a xlink:title="String conversion utilities for enums and types.">
<polygon fill="#999999" stroke="#666666" points="155.62,-132 33.87,-132 33.87,-112 155.62,-112 155.62,-132"/>
<text xml:space="preserve" text-anchor="middle" x="94.75" y="-118.5" font-family="Helvetica,sans-Serif" font-size="10.00">utils/string_conversion.h</text>
</a>
</g>
</g>
<!-- Node2 -->
<g id="Node000002" class="node">
<title>Node2</title>
<g id="a_Node000002"><a xlink:href="types_8h.html" target="_top" xlink:title="Core data types and enumerations for duvc&#45;ctl.">
<polygon fill="white" stroke="#666666" points="107.5,-76 0,-76 0,-56 107.5,-56 107.5,-76"/>
<text xml:space="preserve" text-anchor="middle" x="53.75" y="-62.5" font-family="Helvetica,sans-Serif" font-size="10.00">duvc&#45;ctl/core/types.h</text>
</a>
</g>
</g>
<!-- Node1&#45;&gt;Node2 -->
<g id="edge1_Node000001_Node000002" class="edge">
<title>Node1&#45;&gt;Node2</title>
<g id="a_edge1_Node000001_Node000002"><a xlink:title=" ">
<path fill="none" stroke="#63b8ff" d="M87.61,-111.59C82.14,-104.39 74.43,-94.23 67.74,-85.43"/>
<polygon fill="#63b8ff" stroke="#63b8ff" points="70.56,-83.35 61.73,-77.5 64.98,-87.58 70.56,-83.35"/>
</a>
</g>
</g>
<!-- Node3 -->
<g id="Node000003" class="node">
<title>Node3</title>
<g id="a_Node000003"><a xlink:title=" ">
<polygon fill="#e0e0e0" stroke="#999999" points="114.75,-20 74.75,-20 74.75,0 114.75,0 114.75,-20"/>
<text xml:space="preserve" text-anchor="middle" x="94.75" y="-6.5" font-family="Helvetica,sans-Serif" font-size="10.00">string</text>
</a>
</g>
</g>
<!-- Node1&#45;&gt;Node3 -->
<g id="edge3_Node000001_Node000003" class="edge">
<title>Node1&#45;&gt;Node3</title>
<g id="a_edge3_Node000001_Node000003"><a xlink:title=" ">
<path fill="none" stroke="#63b8ff" d="M100.8,-111.82C106.19,-103.04 113.69,-89.22 116.75,-76 120.44,-60.04 113.82,-42.47 106.9,-29.63"/>
<polygon fill="#63b8ff" stroke="#63b8ff" points="110.13,-28.2 102.01,-21.39 104.11,-31.78 110.13,-28.2"/>
</a>
</g>
</g>
<!-- Node2&#45;&gt;Node3 -->
<g id="edge2_Node000002_Node000003" class="edge">
<title>Node2&#45;&gt;Node3</title>
<g id="a_edge2_Node000002_Node000003"><a xlink:title=" ">
<path fill="none" stroke="#63b8ff" d="M60.89,-55.59C66.36,-48.39 74.07,-38.23 80.76,-29.43"/>
<polygon fill="#63b8ff" stroke="#63b8ff" points="83.52,-31.58 86.77,-21.5 77.94,-27.35 83.52,-31.58"/>
</a>
</g>
</g>
</g>
</svg>
