<?xml version="1.0" encoding="UTF-8" standalone="no"?>
<!DOCTYPE svg PUBLIC "-//W3C//DTD SVG 1.1//EN"
 "http://www.w3.org/Graphics/SVG/1.1/DTD/svg11.dtd">
<!-- Generated by graphviz version 14.0.2 (20251019.1705)
 -->
<!-- Title: duvc::VendorProperty Pages: 1 -->
<svg width="110pt" height="192pt"
 viewBox="0.00 0.00 110.00 192.00" xmlns="http://www.w3.org/2000/svg" xmlns:xlink="http://www.w3.org/1999/xlink">

<svg id="main" version="1.1" xmlns="http://www.w3.org/2000/svg" xmlns:xlink="http://www.w3.org/1999/xlink" xml:space="preserve" onload="init(evt)">
<style type="text/css"><![CDATA[
.node, .edge {opacity: 0.7;}
.node.selected, .edge.selected {opacity: 1;}
.edge:hover path { stroke: red; }
.edge:hover polygon { stroke: red; fill: red; }
]]></style>
<script type="application/ecmascript" xlink:href="svg.min.js"/>
<svg id="graph" class="graph">
<g id="graph0" class="graph" transform="scale(1 1) rotate(0) translate(4 188)">
<title>duvc::VendorProperty</title>
<!-- Node1 -->
<g id="Node000001" class="node">
<title>Node1</title>
<g id="a_Node000001"><a xlink:title="Vendor&#45;specific property data container.">
<polygon fill="#999999" stroke="none" points="101.75,-84 0,-84 0,0 101.75,0 101.75,-84"/>
<text xml:space="preserve" text-anchor="start" x="4" y="-70.5" font-family="Helvetica,sans-Serif" font-size="10.00">duvc::VendorProperty</text>
<text xml:space="preserve" text-anchor="start" x="6.75" y="-54.5" font-family="Helvetica,sans-Serif" font-size="10.00">+</text>
<text xml:space="preserve" text-anchor="start" x="19.5" y="-54.5" font-family="Helvetica,sans-Serif" font-size="10.00">property_set</text>
<text xml:space="preserve" text-anchor="start" x="6.75" y="-38.5" font-family="Helvetica,sans-Serif" font-size="10.00">+</text>
<text xml:space="preserve" text-anchor="start" x="19.5" y="-38.5" font-family="Helvetica,sans-Serif" font-size="10.00">property_id</text>
<text xml:space="preserve" text-anchor="start" x="6.75" y="-22.5" font-family="Helvetica,sans-Serif" font-size="10.00">+</text>
<text xml:space="preserve" text-anchor="start" x="19.5" y="-22.5" font-family="Helvetica,sans-Serif" font-size="10.00">VendorProperty()</text>
<text xml:space="preserve" text-anchor="start" x="6.75" y="-6.5" font-family="Helvetica,sans-Serif" font-size="10.00">+</text>
<text xml:space="preserve" text-anchor="start" x="19.5" y="-6.5" font-family="Helvetica,sans-Serif" font-size="10.00">VendorProperty()</text>
<polygon fill="#666666" stroke="#666666" points="0,-66 0,-66 101.75,-66 101.75,-66 0,-66"/>
<polygon fill="#666666" stroke="#666666" points="0,-34 0,-34 17.5,-34 17.5,-34 0,-34"/>
<polygon fill="#666666" stroke="#666666" points="17.5,-34 17.5,-34 101.75,-34 101.75,-34 17.5,-34"/>
<polygon fill="none" stroke="#666666" points="0,0 0,-84 101.75,-84 101.75,0 0,0"/>
</a>
</g>
</g>
<!-- Node2 -->
<g id="Node000002" class="node">
<title>Node2</title>
<g id="a_Node000002"><a xlink:title=" ">
<polygon fill="white" stroke="none" points="101.75,-184 0,-184 0,-132 101.75,-132 101.75,-184"/>
<text xml:space="preserve" text-anchor="start" x="4" y="-170.5" font-family="Helvetica,sans-Serif" font-size="10.00">std::vector&lt; uint8_t &gt;</text>
<text xml:space="preserve" text-anchor="start" x="15" y="-154.5" font-family="Helvetica,sans-Serif" font-size="10.00">+</text>
<text xml:space="preserve" text-anchor="start" x="36" y="-154.5" font-family="Helvetica,sans-Serif" font-size="10.00">elements</text>
<text xml:space="preserve" text-anchor="start" x="49.38" y="-138.5" font-family="Helvetica,sans-Serif" font-size="10.00"> </text>
<polygon fill="#666666" stroke="#666666" points="0,-166 0,-166 101.75,-166 101.75,-166 0,-166"/>
<polygon fill="#666666" stroke="#666666" points="0,-150 0,-150 34,-150 34,-150 0,-150"/>
<polygon fill="#666666" stroke="#666666" points="34,-150 34,-150 101.75,-150 101.75,-150 34,-150"/>
<polygon fill="none" stroke="#666666" points="0,-132 0,-184 101.75,-184 101.75,-132 0,-132"/>
</a>
</g>
</g>
<!-- Node2&#45;&gt;Node1 -->
<g id="edge1_Node000001_Node000002" class="edge">
<title>Node2&#45;&gt;Node1</title>
<g id="a_edge1_Node000001_Node000002"><a xlink:title=" ">
<path fill="none" stroke="#63b8ff" d="M50.88,-132.26C50.88,-121.77 50.88,-109.09 50.88,-96.63"/>
<polygon fill="none" stroke="#63b8ff" points="50.88,-96.73 46.88,-90.73 50.88,-84.73 54.88,-90.73 50.88,-96.73"/>
</a>
</g>
<text xml:space="preserve" text-anchor="middle" x="64.75" y="-104.5" font-family="Helvetica,sans-Serif" font-size="10.00" fill="grey"> +data</text>
</g>
</g>
</svg>
</svg>

<style type='text/css'>
<![CDATA[
[data-mouse-over-selected='false'] { opacity: 0.7; }
[data-mouse-over-selected='true']  { opacity: 1.0; }
]]>
</style>
<script type="application/ecmascript"><![CDATA[
document.addEventListener('DOMContentLoaded', (event) => {
  highlightEdges();
  highlightAdjacentNodes();
});
]]></script>
</svg>
