<?xml version="1.0" encoding="UTF-8" standalone="no"?>
<!DOCTYPE svg PUBLIC "-//W3C//DTD SVG 1.1//EN"
 "http://www.w3.org/Graphics/SVG/1.1/DTD/svg11.dtd">
<!-- Generated by graphviz version 14.0.2 (20251019.1705)
 -->
<!-- Title: duvc::Device::is_valid Pages: 1 -->
<svg width="481pt" height="116pt"
 viewBox="0.00 0.00 481.00 116.00" xmlns="http://www.w3.org/2000/svg" xmlns:xlink="http://www.w3.org/1999/xlink">

<svg id="main" version="1.1" xmlns="http://www.w3.org/2000/svg" xmlns:xlink="http://www.w3.org/1999/xlink" xml:space="preserve" onload="init(evt)">
<style type="text/css"><![CDATA[
.node, .edge {opacity: 0.7;}
.node.selected, .edge.selected {opacity: 1;}
.edge:hover path { stroke: red; }
.edge:hover polygon { stroke: red; fill: red; }
]]></style>
<script type="application/ecmascript" xlink:href="svg.min.js"/>
<svg id="graph" class="graph">
<g id="graph0" class="graph" transform="scale(1 1) rotate(0) translate(4 112)">
<title>duvc::Device::is_valid</title>
<!-- Node1 -->
<g id="Node000001" class="node">
<title>Node1</title>
<g id="a_Node000001"><a xlink:title="Check if device has valid identifying information.">
<polygon fill="#999999" stroke="#666666" points="473.25,-64 360.5,-64 360.5,-44 473.25,-44 473.25,-64"/>
<text xml:space="preserve" text-anchor="middle" x="416.88" y="-50.5" font-family="Helvetica,sans-Serif" font-size="10.00">duvc::Device::is_valid</text>
</a>
</g>
</g>
<!-- Node2 -->
<g id="Node000002" class="node">
<title>Node2</title>
<g id="a_Node000002"><a xlink:href="api_8cpp.html#a3787547f23b0553ba7e7256d40cae203" target="_top" xlink:title="Check if device is valid.">
<polygon fill="white" stroke="#666666" points="306.88,-102 197.88,-102 197.88,-82 306.88,-82 306.88,-102"/>
<text xml:space="preserve" text-anchor="middle" x="252.38" y="-88.5" font-family="Helvetica,sans-Serif" font-size="10.00">duvc_device_is_valid</text>
</a>
</g>
</g>
<!-- Node1&#45;&gt;Node2 -->
<g id="edge1_Node000001_Node000002" class="edge">
<title>Node1&#45;&gt;Node2</title>
<g id="a_edge1_Node000001_Node000002"><a xlink:title=" ">
<path fill="none" stroke="#63b8ff" d="M360.07,-67.05C339.82,-71.78 317.23,-77.07 298.06,-81.55"/>
<polygon fill="#63b8ff" stroke="#63b8ff" points="360.63,-70.51 369.57,-64.83 359.03,-63.7 360.63,-70.51"/>
</a>
</g>
</g>
<!-- Node3 -->
<g id="Node000003" class="node">
<title>Node3</title>
<g id="a_Node000003"><a xlink:href="namespaceduvc.html#a1d35218e5baaccb7d19f4695396581e8" target="_top" xlink:title="Create device capability snapshot.">
<polygon fill="white" stroke="#666666" points="324.5,-64 180.25,-64 180.25,-44 324.5,-44 324.5,-64"/>
<text xml:space="preserve" text-anchor="middle" x="252.38" y="-50.5" font-family="Helvetica,sans-Serif" font-size="10.00">duvc::get_device_capabilities</text>
</a>
</g>
</g>
<!-- Node1&#45;&gt;Node3 -->
<g id="edge2_Node000001_Node000003" class="edge">
<title>Node1&#45;&gt;Node3</title>
<g id="a_edge2_Node000001_Node000003"><a xlink:title=" ">
<path fill="none" stroke="#63b8ff" d="M348.98,-54C341.06,-54 332.95,-54 324.97,-54"/>
<polygon fill="#63b8ff" stroke="#63b8ff" points="348.89,-57.5 358.89,-54 348.89,-50.5 348.89,-57.5"/>
</a>
</g>
</g>
<!-- Node7 -->
<g id="Node000007" class="node">
<title>Node7</title>
<g id="a_Node000007"><a xlink:href="namespaceduvc.html#aff098bd345fe014553d8b82c5f58b89f" target="_top" xlink:title="Create camera from device.">
<polygon fill="white" stroke="#666666" points="303.12,-26 201.62,-26 201.62,-6 303.12,-6 303.12,-26"/>
<text xml:space="preserve" text-anchor="middle" x="252.38" y="-12.5" font-family="Helvetica,sans-Serif" font-size="10.00">duvc::open_camera</text>
</a>
</g>
</g>
<!-- Node1&#45;&gt;Node7 -->
<g id="edge6_Node000001_Node000007" class="edge">
<title>Node1&#45;&gt;Node7</title>
<g id="a_edge6_Node000001_Node000007"><a xlink:title=" ">
<path fill="none" stroke="#63b8ff" d="M360.07,-40.95C339.82,-36.22 317.23,-30.93 298.06,-26.45"/>
<polygon fill="#63b8ff" stroke="#63b8ff" points="359.03,-44.3 369.57,-43.17 360.63,-37.49 359.03,-44.3"/>
</a>
</g>
</g>
<!-- Node4 -->
<g id="Node000004" class="node">
<title>Node4</title>
<g id="a_Node000004"><a xlink:href="api_8cpp.html#a1bb7b51ed8284acbb23ca4f7ba351d09" target="_top" xlink:title="Get device capabilities snapshot.">
<polygon fill="white" stroke="#666666" points="143.88,-108 0.38,-108 0.38,-88 143.88,-88 143.88,-108"/>
<text xml:space="preserve" text-anchor="middle" x="72.12" y="-94.5" font-family="Helvetica,sans-Serif" font-size="10.00">duvc_get_device_capabilities</text>
</a>
</g>
</g>
<!-- Node3&#45;&gt;Node4 -->
<g id="edge3_Node000003_Node000004" class="edge">
<title>Node3&#45;&gt;Node4</title>
<g id="a_edge3_Node000003_Node000004"><a xlink:title=" ">
<path fill="none" stroke="#63b8ff" d="M198.14,-67.14C171.67,-73.67 140.15,-81.46 115.37,-87.57"/>
<polygon fill="#63b8ff" stroke="#63b8ff" points="198.79,-70.58 207.66,-64.79 197.12,-63.79 198.79,-70.58"/>
</a>
</g>
</g>
<!-- Node5 -->
<g id="Node000005" class="node">
<title>Node5</title>
<g id="a_Node000005"><a xlink:href="api_8cpp.html#a6377c50e3ae679edc8ce8c040e7fead7" target="_top" xlink:title="Get device capabilities by index.">
<polygon fill="white" stroke="#666666" points="143.88,-70 0.38,-70 0.38,-38 143.88,-38 143.88,-70"/>
<text xml:space="preserve" text-anchor="start" x="8.38" y="-56.5" font-family="Helvetica,sans-Serif" font-size="10.00">duvc_get_device_capabilities</text>
<text xml:space="preserve" text-anchor="middle" x="72.12" y="-44.5" font-family="Helvetica,sans-Serif" font-size="10.00">_by_index</text>
</a>
</g>
</g>
<!-- Node3&#45;&gt;Node5 -->
<g id="edge4_Node000003_Node000005" class="edge">
<title>Node3&#45;&gt;Node5</title>
<g id="a_edge4_Node000003_Node000005"><a xlink:title=" ">
<path fill="none" stroke="#63b8ff" d="M168.54,-54C160.45,-54 152.29,-54 144.32,-54"/>
<polygon fill="#63b8ff" stroke="#63b8ff" points="168.39,-57.5 178.39,-54 168.39,-50.5 168.39,-57.5"/>
</a>
</g>
</g>
<!-- Node6 -->
<g id="Node000006" class="node">
<title>Node6</title>
<g id="a_Node000006"><a xlink:href="namespaceduvc.html#a0af4366057ae8014aee4989ab3fd7671" target="_top" xlink:title="Create device capability snapshot by index.">
<polygon fill="white" stroke="#666666" points="144.25,-20 0,-20 0,0 144.25,0 144.25,-20"/>
<text xml:space="preserve" text-anchor="middle" x="72.12" y="-6.5" font-family="Helvetica,sans-Serif" font-size="10.00">duvc::get_device_capabilities</text>
</a>
</g>
</g>
<!-- Node3&#45;&gt;Node6 -->
<g id="edge5_Node000003_Node000006" class="edge">
<title>Node3&#45;&gt;Node6</title>
<g id="a_edge5_Node000003_Node000006"><a xlink:title=" ">
<path fill="none" stroke="#63b8ff" d="M198.14,-40.86C171.67,-34.33 140.15,-26.54 115.37,-20.43"/>
<polygon fill="#63b8ff" stroke="#63b8ff" points="197.12,-44.21 207.66,-43.21 198.79,-37.42 197.12,-44.21"/>
</a>
</g>
</g>
</g>
</svg>
</svg>

<style type='text/css'>
<![CDATA[
[data-mouse-over-selected='false'] { opacity: 0.7; }
[data-mouse-over-selected='true']  { opacity: 1.0; }
]]>
</style>
<script type="application/ecmascript"><![CDATA[
document.addEventListener('DOMContentLoaded', (event) => {
  highlightEdges();
  highlightAdjacentNodes();
});
]]></script>
</svg>
