<?xml version="1.0" encoding="UTF-8" standalone="no"?>
<!DOCTYPE svg PUBLIC "-//W3C//DTD SVG 1.1//EN"
 "http://www.w3.org/Graphics/SVG/1.1/DTD/svg11.dtd">
<!-- Generated by graphviz version 14.0.2 (20251019.1705)
 -->
<!-- Title: duvc::Device Pages: 1 -->
<svg width="94pt" height="321pt"
 viewBox="0.00 0.00 94.00 321.00" xmlns="http://www.w3.org/2000/svg" xmlns:xlink="http://www.w3.org/1999/xlink">

<svg id="main" version="1.1" xmlns="http://www.w3.org/2000/svg" xmlns:xlink="http://www.w3.org/1999/xlink" xml:space="preserve" onload="init(evt)">
<style type="text/css"><![CDATA[
.node, .edge {opacity: 0.7;}
.node.selected, .edge.selected {opacity: 1;}
.edge:hover path { stroke: red; }
.edge:hover polygon { stroke: red; fill: red; }
]]></style>
<script type="application/ecmascript" xlink:href="svg.min.js"/>
<svg id="graph" class="graph">
<g id="graph0" class="graph" transform="scale(1 1) rotate(0) translate(4 317)">
<title>duvc::Device</title>
<!-- Node1 -->
<g id="Node000001" class="node">
<title>Node1</title>
<g id="a_Node000001"><a xlink:title="Represents a camera device.">
<polygon fill="#999999" stroke="none" points="75.88,-100 10.12,-100 10.12,0 75.88,0 75.88,-100"/>
<text xml:space="preserve" text-anchor="start" x="14.12" y="-86.5" font-family="Helvetica,sans-Serif" font-size="10.00">duvc::Device</text>
<text xml:space="preserve" text-anchor="start" x="41.5" y="-70.5" font-family="Helvetica,sans-Serif" font-size="10.00"> </text>
<text xml:space="preserve" text-anchor="start" x="16.31" y="-54.5" font-family="Helvetica,sans-Serif" font-size="10.00">+</text>
<text xml:space="preserve" text-anchor="start" x="28.5" y="-54.5" font-family="Helvetica,sans-Serif" font-size="10.00">Device()</text>
<text xml:space="preserve" text-anchor="start" x="16.31" y="-38.5" font-family="Helvetica,sans-Serif" font-size="10.00">+</text>
<text xml:space="preserve" text-anchor="start" x="28.5" y="-38.5" font-family="Helvetica,sans-Serif" font-size="10.00">Device()</text>
<text xml:space="preserve" text-anchor="start" x="16.31" y="-22.5" font-family="Helvetica,sans-Serif" font-size="10.00">+</text>
<text xml:space="preserve" text-anchor="start" x="28.5" y="-22.5" font-family="Helvetica,sans-Serif" font-size="10.00">is_valid()</text>
<text xml:space="preserve" text-anchor="start" x="16.31" y="-6.5" font-family="Helvetica,sans-Serif" font-size="10.00">+</text>
<text xml:space="preserve" text-anchor="start" x="28.5" y="-6.5" font-family="Helvetica,sans-Serif" font-size="10.00">get_id()</text>
<polygon fill="#666666" stroke="#666666" points="10.12,-82 10.12,-82 75.88,-82 75.88,-82 10.12,-82"/>
<polygon fill="#666666" stroke="#666666" points="10.12,-66 10.12,-66 75.88,-66 75.88,-66 10.12,-66"/>
<polygon fill="none" stroke="#666666" points="10.12,0 10.12,-100 75.88,-100 75.88,0 10.12,0"/>
</a>
</g>
</g>
<!-- Node2 -->
<g id="Node000002" class="node">
<title>Node2</title>
<g id="a_Node000002"><a xlink:title=" ">
<polygon fill="white" stroke="none" points="72.5,-212 13.5,-212 13.5,-160 72.5,-160 72.5,-212"/>
<text xml:space="preserve" text-anchor="start" x="17.5" y="-198.5" font-family="Helvetica,sans-Serif" font-size="10.00">std::wstring</text>
<text xml:space="preserve" text-anchor="start" x="41.5" y="-182.5" font-family="Helvetica,sans-Serif" font-size="10.00"> </text>
<text xml:space="preserve" text-anchor="start" x="41.5" y="-166.5" font-family="Helvetica,sans-Serif" font-size="10.00"> </text>
<polygon fill="#666666" stroke="#666666" points="13.5,-194 13.5,-194 72.5,-194 72.5,-194 13.5,-194"/>
<polygon fill="#666666" stroke="#666666" points="13.5,-178 13.5,-178 72.5,-178 72.5,-178 13.5,-178"/>
<polygon fill="none" stroke="#666666" points="13.5,-160 13.5,-212 72.5,-212 72.5,-160 13.5,-160"/>
</a>
</g>
</g>
<!-- Node2&#45;&gt;Node1 -->
<g id="edge1_Node000001_Node000002" class="edge">
<title>Node2&#45;&gt;Node1</title>
<g id="a_edge1_Node000001_Node000002"><a xlink:title=" ">
<path fill="none" stroke="#63b8ff" d="M43,-160.11C43,-146.66 43,-129.4 43,-112.6"/>
<polygon fill="none" stroke="#63b8ff" points="43,-112.81 39,-106.81 43,-100.81 47,-106.81 43,-112.81"/>
</a>
</g>
<text xml:space="preserve" text-anchor="middle" x="59.5" y="-132.5" font-family="Helvetica,sans-Serif" font-size="10.00" fill="grey"> +name</text>
<text xml:space="preserve" text-anchor="middle" x="59.5" y="-120.5" font-family="Helvetica,sans-Serif" font-size="10.00" fill="grey">+path</text>
</g>
<!-- Node3 -->
<g id="Node000003" class="node">
<title>Node3</title>
<g id="a_Node000003"><a xlink:title=" ">
<polygon fill="white" stroke="none" points="86,-313 0,-313 0,-249 86,-249 86,-313"/>
<text xml:space="preserve" text-anchor="start" x="4" y="-299.5" font-family="Helvetica,sans-Serif" font-size="10.00">std::basic_string&lt;</text>
<text xml:space="preserve" text-anchor="start" x="26.5" y="-287.5" font-family="Helvetica,sans-Serif" font-size="10.00"> Char &gt;</text>
<text xml:space="preserve" text-anchor="start" x="41.5" y="-271.5" font-family="Helvetica,sans-Serif" font-size="10.00"> </text>
<text xml:space="preserve" text-anchor="start" x="41.5" y="-255.5" font-family="Helvetica,sans-Serif" font-size="10.00"> </text>
<polygon fill="#666666" stroke="#666666" points="0,-283 0,-283 86,-283 86,-283 0,-283"/>
<polygon fill="#666666" stroke="#666666" points="0,-267 0,-267 86,-267 86,-267 0,-267"/>
<polygon fill="none" stroke="#666666" points="0,-249 0,-313 86,-313 86,-249 0,-249"/>
</a>
</g>
</g>
<!-- Node3&#45;&gt;Node2 -->
<g id="edge2_Node000002_Node000003" class="edge">
<title>Node3&#45;&gt;Node2</title>
<g id="a_edge2_Node000002_Node000003"><a xlink:title=" ">
<path fill="none" stroke="#63b8ff" d="M43,-237.69C43,-228.89 43,-219.89 43,-211.96"/>
<polygon fill="none" stroke="#63b8ff" points="39.5,-237.52 43,-247.52 46.5,-237.52 39.5,-237.52"/>
</a>
</g>
</g>
</g>
</svg>
</svg>

<style type='text/css'>
<![CDATA[
[data-mouse-over-selected='false'] { opacity: 0.7; }
[data-mouse-over-selected='true']  { opacity: 1.0; }
]]>
</style>
<script type="application/ecmascript"><![CDATA[
document.addEventListener('DOMContentLoaded', (event) => {
  highlightEdges();
  highlightAdjacentNodes();
});
]]></script>
</svg>
