<?xml version="1.0" encoding="UTF-8" standalone="no"?>
<!DOCTYPE svg PUBLIC "-//W3C//DTD SVG 1.1//EN"
 "http://www.w3.org/Graphics/SVG/1.1/DTD/svg11.dtd">
<!-- Generated by graphviz version 14.0.2 (20251019.1705)
 -->
<!-- Title: duvc::PropertyCapability Pages: 1 -->
<svg width="196pt" height="256pt"
 viewBox="0.00 0.00 196.00 256.00" xmlns="http://www.w3.org/2000/svg" xmlns:xlink="http://www.w3.org/1999/xlink">
<g id="graph0" class="graph" transform="scale(1 1) rotate(0) translate(4 252)">
<title>duvc::PropertyCapability</title>
<!-- Node1 -->
<g id="Node000001" class="node">
<title>Node1</title>
<g id="a_Node000001"><a xlink:title="Property capability information.">
<polygon fill="#999999" stroke="none" points="150.5,-52 35.25,-52 35.25,0 150.5,0 150.5,-52"/>
<text xml:space="preserve" text-anchor="start" x="39.25" y="-38.5" font-family="Helvetica,sans-Serif" font-size="10.00">duvc::PropertyCapability</text>
<text xml:space="preserve" text-anchor="start" x="46.69" y="-22.5" font-family="Helvetica,sans-Serif" font-size="10.00">+</text>
<text xml:space="preserve" text-anchor="start" x="64.12" y="-22.5" font-family="Helvetica,sans-Serif" font-size="10.00">supported</text>
<text xml:space="preserve" text-anchor="start" x="46.69" y="-6.5" font-family="Helvetica,sans-Serif" font-size="10.00">+</text>
<text xml:space="preserve" text-anchor="start" x="64.12" y="-6.5" font-family="Helvetica,sans-Serif" font-size="10.00">supports_auto()</text>
<polygon fill="#666666" stroke="#666666" points="35.25,-34 35.25,-34 150.5,-34 150.5,-34 35.25,-34"/>
<polygon fill="#666666" stroke="#666666" points="35.25,-18 35.25,-18 62.12,-18 62.12,-18 35.25,-18"/>
<polygon fill="#666666" stroke="#666666" points="62.12,-18 62.12,-18 150.5,-18 150.5,-18 62.12,-18"/>
<polygon fill="none" stroke="#666666" points="35.25,0 35.25,-52 150.5,-52 150.5,0 35.25,0"/>
</a>
</g>
</g>
<!-- Node2 -->
<g id="Node000002" class="node">
<title>Node2</title>
<g id="a_Node000002"><a xlink:href="structduvc_1_1PropRange.html" target="_top" xlink:title="Property range and default information.">
<polygon fill="white" stroke="none" points="83.75,-248 0,-248 0,-100 83.75,-100 83.75,-248"/>
<text xml:space="preserve" text-anchor="start" x="4" y="-234.5" font-family="Helvetica,sans-Serif" font-size="10.00">duvc::PropRange</text>
<text xml:space="preserve" text-anchor="start" x="5.81" y="-218.5" font-family="Helvetica,sans-Serif" font-size="10.00">+</text>
<text xml:space="preserve" text-anchor="start" x="17.62" y="-218.5" font-family="Helvetica,sans-Serif" font-size="10.00">min</text>
<text xml:space="preserve" text-anchor="start" x="5.81" y="-202.5" font-family="Helvetica,sans-Serif" font-size="10.00">+</text>
<text xml:space="preserve" text-anchor="start" x="17.62" y="-202.5" font-family="Helvetica,sans-Serif" font-size="10.00">max</text>
<text xml:space="preserve" text-anchor="start" x="5.81" y="-186.5" font-family="Helvetica,sans-Serif" font-size="10.00">+</text>
<text xml:space="preserve" text-anchor="start" x="17.62" y="-186.5" font-family="Helvetica,sans-Serif" font-size="10.00">step</text>
<text xml:space="preserve" text-anchor="start" x="5.81" y="-170.5" font-family="Helvetica,sans-Serif" font-size="10.00">+</text>
<text xml:space="preserve" text-anchor="start" x="17.62" y="-170.5" font-family="Helvetica,sans-Serif" font-size="10.00">default_val</text>
<text xml:space="preserve" text-anchor="start" x="5.81" y="-154.5" font-family="Helvetica,sans-Serif" font-size="10.00">+</text>
<text xml:space="preserve" text-anchor="start" x="17.62" y="-154.5" font-family="Helvetica,sans-Serif" font-size="10.00">default_mode</text>
<text xml:space="preserve" text-anchor="start" x="5.81" y="-138.5" font-family="Helvetica,sans-Serif" font-size="10.00">+</text>
<text xml:space="preserve" text-anchor="start" x="17.62" y="-138.5" font-family="Helvetica,sans-Serif" font-size="10.00">PropRange()</text>
<text xml:space="preserve" text-anchor="start" x="5.81" y="-122.5" font-family="Helvetica,sans-Serif" font-size="10.00">+</text>
<text xml:space="preserve" text-anchor="start" x="17.62" y="-122.5" font-family="Helvetica,sans-Serif" font-size="10.00">is_valid()</text>
<text xml:space="preserve" text-anchor="start" x="5.81" y="-106.5" font-family="Helvetica,sans-Serif" font-size="10.00">+</text>
<text xml:space="preserve" text-anchor="start" x="17.62" y="-106.5" font-family="Helvetica,sans-Serif" font-size="10.00">clamp()</text>
<polygon fill="#666666" stroke="#666666" points="0,-230 0,-230 83.75,-230 83.75,-230 0,-230"/>
<polygon fill="#666666" stroke="#666666" points="0,-150 0,-150 15.62,-150 15.62,-150 0,-150"/>
<polygon fill="#666666" stroke="#666666" points="15.62,-150 15.62,-150 83.75,-150 83.75,-150 15.62,-150"/>
<polygon fill="none" stroke="#666666" points="0,-100 0,-248 83.75,-248 83.75,-100 0,-100"/>
</a>
</g>
</g>
<!-- Node2&#45;&gt;Node1 -->
<g id="edge1_Node000001_Node000002" class="edge">
<title>Node2&#45;&gt;Node1</title>
<g id="a_edge1_Node000001_Node000002"><a xlink:title=" ">
<path fill="none" stroke="#63b8ff" d="M67.38,-100C71.74,-87.5 76.11,-75 79.96,-63.96"/>
<polygon fill="none" stroke="#63b8ff" points="79.97,-63.95 78.17,-56.96 83.93,-52.62 85.72,-59.6 79.97,-63.95"/>
</a>
</g>
<text xml:space="preserve" text-anchor="middle" x="94.31" y="-72.5" font-family="Helvetica,sans-Serif" font-size="10.00" fill="grey"> +range</text>
</g>
<!-- Node3 -->
<g id="Node000003" class="node">
<title>Node3</title>
<g id="a_Node000003"><a xlink:href="structduvc_1_1PropSetting.html" target="_top" xlink:title="Property setting with value and control mode.">
<polygon fill="white" stroke="none" points="187.88,-216 101.88,-216 101.88,-132 187.88,-132 187.88,-216"/>
<text xml:space="preserve" text-anchor="start" x="105.88" y="-202.5" font-family="Helvetica,sans-Serif" font-size="10.00">duvc::PropSetting</text>
<text xml:space="preserve" text-anchor="start" x="108.62" y="-186.5" font-family="Helvetica,sans-Serif" font-size="10.00">+</text>
<text xml:space="preserve" text-anchor="start" x="121.38" y="-186.5" font-family="Helvetica,sans-Serif" font-size="10.00">value</text>
<text xml:space="preserve" text-anchor="start" x="108.62" y="-170.5" font-family="Helvetica,sans-Serif" font-size="10.00">+</text>
<text xml:space="preserve" text-anchor="start" x="121.38" y="-170.5" font-family="Helvetica,sans-Serif" font-size="10.00">mode</text>
<text xml:space="preserve" text-anchor="start" x="108.62" y="-154.5" font-family="Helvetica,sans-Serif" font-size="10.00">+</text>
<text xml:space="preserve" text-anchor="start" x="121.38" y="-154.5" font-family="Helvetica,sans-Serif" font-size="10.00">PropSetting()</text>
<text xml:space="preserve" text-anchor="start" x="108.62" y="-138.5" font-family="Helvetica,sans-Serif" font-size="10.00">+</text>
<text xml:space="preserve" text-anchor="start" x="121.38" y="-138.5" font-family="Helvetica,sans-Serif" font-size="10.00">PropSetting()</text>
<polygon fill="#666666" stroke="#666666" points="101.88,-198 101.88,-198 187.88,-198 187.88,-198 101.88,-198"/>
<polygon fill="#666666" stroke="#666666" points="101.88,-166 101.88,-166 119.38,-166 119.38,-166 101.88,-166"/>
<polygon fill="#666666" stroke="#666666" points="119.38,-166 119.38,-166 187.88,-166 187.88,-166 119.38,-166"/>
<polygon fill="none" stroke="#666666" points="101.88,-132 101.88,-216 187.88,-216 187.88,-132 101.88,-132"/>
</a>
</g>
</g>
<!-- Node3&#45;&gt;Node1 -->
<g id="edge2_Node000001_Node000003" class="edge">
<title>Node3&#45;&gt;Node1</title>
<g id="a_edge2_Node000001_Node000003"><a xlink:title=" ">
<path fill="none" stroke="#63b8ff" d="M134.93,-132.29C129.76,-113.11 122.85,-90.08 114.88,-70 114.01,-67.82 113.07,-65.59 112.08,-63.37"/>
<polygon fill="none" stroke="#63b8ff" points="112.04,-63.29 105.85,-59.59 106.88,-52.45 113.07,-56.15 112.04,-63.29"/>
</a>
</g>
<text xml:space="preserve" text-anchor="middle" x="138.5" y="-72.5" font-family="Helvetica,sans-Serif" font-size="10.00" fill="grey"> +current</text>
</g>
</g>
</svg>
