<?xml version="1.0" encoding="UTF-8" standalone="no"?>
<!DOCTYPE svg PUBLIC "-//W3C//DTD SVG 1.1//EN"
 "http://www.w3.org/Graphics/SVG/1.1/DTD/svg11.dtd">
<!-- Generated by graphviz version 14.0.2 (20251019.1705)
 -->
<!-- Title: duvc_vendor_property_t Pages: 1 -->
<svg width="120pt" height="108pt"
 viewBox="0.00 0.00 120.00 108.00" xmlns="http://www.w3.org/2000/svg" xmlns:xlink="http://www.w3.org/1999/xlink">
<g id="graph0" class="graph" transform="scale(1 1) rotate(0) translate(4 104)">
<title>duvc_vendor_property_t</title>
<!-- Node1 -->
<g id="Node000001" class="node">
<title>Node1</title>
<g id="a_Node000001"><a xlink:title="Vendor property container.">
<polygon fill="#999999" stroke="none" points="112.25,-100 0,-100 0,0 112.25,0 112.25,-100"/>
<text xml:space="preserve" text-anchor="start" x="4" y="-86.5" font-family="Helvetica,sans-Serif" font-size="10.00">duvc_vendor_property_t</text>
<text xml:space="preserve" text-anchor="start" x="8.25" y="-70.5" font-family="Helvetica,sans-Serif" font-size="10.00">+</text>
<text xml:space="preserve" text-anchor="start" x="22.5" y="-70.5" font-family="Helvetica,sans-Serif" font-size="10.00">property_set_guid</text>
<text xml:space="preserve" text-anchor="start" x="8.25" y="-54.5" font-family="Helvetica,sans-Serif" font-size="10.00">+</text>
<text xml:space="preserve" text-anchor="start" x="22.5" y="-54.5" font-family="Helvetica,sans-Serif" font-size="10.00">property_id</text>
<text xml:space="preserve" text-anchor="start" x="8.25" y="-38.5" font-family="Helvetica,sans-Serif" font-size="10.00">+</text>
<text xml:space="preserve" text-anchor="start" x="22.5" y="-38.5" font-family="Helvetica,sans-Serif" font-size="10.00">data</text>
<text xml:space="preserve" text-anchor="start" x="8.25" y="-22.5" font-family="Helvetica,sans-Serif" font-size="10.00">+</text>
<text xml:space="preserve" text-anchor="start" x="22.5" y="-22.5" font-family="Helvetica,sans-Serif" font-size="10.00">data_size</text>
<text xml:space="preserve" text-anchor="start" x="54.62" y="-6.5" font-family="Helvetica,sans-Serif" font-size="10.00"> </text>
<polygon fill="#666666" stroke="#666666" points="0,-82 0,-82 112.25,-82 112.25,-82 0,-82"/>
<polygon fill="#666666" stroke="#666666" points="0,-18 0,-18 20.5,-18 20.5,-18 0,-18"/>
<polygon fill="#666666" stroke="#666666" points="20.5,-18 20.5,-18 112.25,-18 112.25,-18 20.5,-18"/>
<polygon fill="none" stroke="#666666" points="0,0 0,-100 112.25,-100 112.25,0 0,0"/>
</a>
</g>
</g>
</g>
</svg>
