<?xml version="1.0" encoding="UTF-8" standalone="no"?>
<!DOCTYPE svg PUBLIC "-//W3C//DTD SVG 1.1//EN"
 "http://www.w3.org/Graphics/SVG/1.1/DTD/svg11.dtd">
<!-- Generated by graphviz version 14.0.2 (20251019.1705)
 -->
<!-- Title: core/types.h Pages: 1 -->
<svg width="1781pt" height="220pt"
 viewBox="0.00 0.00 1781.00 220.00" xmlns="http://www.w3.org/2000/svg" xmlns:xlink="http://www.w3.org/1999/xlink">
<g id="graph0" class="graph" transform="scale(1 1) rotate(0) translate(4 216)">
<title>core/types.h</title>
<!-- Node1 -->
<g id="Node000001" class="node">
<title>Node1</title>
<g id="a_Node000001"><a xlink:title="Core data types and enumerations for duvc&#45;ctl.">
<polygon fill="#999999" stroke="#666666" points="1102.91,-212 1032.91,-212 1032.91,-192 1102.91,-192 1102.91,-212"/>
<text xml:space="preserve" text-anchor="middle" x="1067.91" y="-198.5" font-family="Helvetica,sans-Serif" font-size="10.00">core/types.h</text>
</a>
</g>
</g>
<!-- Node2 -->
<g id="Node000002" class="node">
<title>Node2</title>
<g id="a_Node000002"><a xlink:href="api_8cpp.html" target="_top" xlink:title="Complete C ABI implementation for duvc&#45;ctl library.">
<polygon fill="white" stroke="#666666" points="173.78,-20 118.03,-20 118.03,0 173.78,0 173.78,-20"/>
<text xml:space="preserve" text-anchor="middle" x="145.91" y="-6.5" font-family="Helvetica,sans-Serif" font-size="10.00">c/api.cpp</text>
</a>
</g>
</g>
<!-- Node1&#45;&gt;Node2 -->
<g id="edge1_Node000001_Node000002" class="edge">
<title>Node1&#45;&gt;Node2</title>
<g id="a_edge1_Node000001_Node000002"><a xlink:title=" ">
<path fill="none" stroke="#63b8ff" d="M1021.21,-200.62C838.38,-198.89 177,-190.31 89.91,-156 36.95,-135.14 -23.42,-102.14 9.91,-56 34.45,-22.03 85.6,-13.28 117.71,-11.27"/>
<polygon fill="#63b8ff" stroke="#63b8ff" points="1021,-204.12 1031.03,-200.71 1021.07,-197.12 1021,-204.12"/>
</a>
</g>
</g>
<!-- Node3 -->
<g id="Node000003" class="node">
<title>Node3</title>
<g id="a_Node000003"><a xlink:href="camera_8h.html" target="_top" xlink:title="RAII camera handle for simplified device management.">
<polygon fill="white" stroke="#666666" points="210.03,-150 131.78,-150 131.78,-130 210.03,-130 210.03,-150"/>
<text xml:space="preserve" text-anchor="middle" x="170.91" y="-136.5" font-family="Helvetica,sans-Serif" font-size="10.00">core/camera.h</text>
</a>
</g>
</g>
<!-- Node1&#45;&gt;Node3 -->
<g id="edge2_Node000001_Node000003" class="edge">
<title>Node1&#45;&gt;Node3</title>
<g id="a_edge2_Node000001_Node000003"><a xlink:title=" ">
<path fill="none" stroke="#63b8ff" d="M1021.18,-198.91C902.97,-193.46 582.46,-177.75 315.91,-156 280.09,-153.08 239.39,-148.78 210.25,-145.54"/>
<polygon fill="#63b8ff" stroke="#63b8ff" points="1020.97,-202.4 1031.12,-199.36 1021.29,-195.41 1020.97,-202.4"/>
</a>
</g>
</g>
<!-- Node6 -->
<g id="Node000006" class="node">
<title>Node6</title>
<g id="a_Node000006"><a xlink:href="capability_8h.html" target="_top" xlink:title="Device capability detection and snapshots using Camera API.">
<polygon fill="white" stroke="#666666" points="115.16,-82 28.66,-82 28.66,-62 115.16,-62 115.16,-82"/>
<text xml:space="preserve" text-anchor="middle" x="71.91" y="-68.5" font-family="Helvetica,sans-Serif" font-size="10.00">core/capability.h</text>
</a>
</g>
</g>
<!-- Node1&#45;&gt;Node6 -->
<g id="edge11_Node000001_Node000006" class="edge">
<title>Node1&#45;&gt;Node6</title>
<g id="a_edge11_Node000001_Node000006"><a xlink:title=" ">
<path fill="none" stroke="#63b8ff" d="M1021.25,-201.31C841.59,-202.16 200.62,-201.92 122.91,-156 94.66,-139.31 79.94,-100.25 74.46,-82.31"/>
<polygon fill="#63b8ff" stroke="#63b8ff" points="1021.16,-204.81 1031.14,-201.26 1021.12,-197.81 1021.16,-204.81"/>
</a>
</g>
</g>
<!-- Node7 -->
<g id="Node000007" class="node">
<title>Node7</title>
<g id="a_Node000007"><a xlink:href="duvc_8hpp.html" target="_top" xlink:title="Main umbrella header for duvc&#45;ctl library.">
<polygon fill="white" stroke="#666666" points="1163.78,-20 1108.03,-20 1108.03,0 1163.78,0 1163.78,-20"/>
<text xml:space="preserve" text-anchor="middle" x="1135.91" y="-6.5" font-family="Helvetica,sans-Serif" font-size="10.00">duvc.hpp</text>
</a>
</g>
</g>
<!-- Node1&#45;&gt;Node7 -->
<g id="edge22_Node000001_Node000007" class="edge">
<title>Node1&#45;&gt;Node7</title>
<g id="a_edge22_Node000001_Node000007"><a xlink:title=" ">
<path fill="none" stroke="#63b8ff" d="M1114.57,-200.7C1153.16,-197.96 1206.95,-188.03 1240.91,-156 1264.02,-134.2 1257.96,-119.38 1262.91,-88 1265.12,-73.95 1271.12,-67.62 1262.91,-56 1240.64,-24.48 1194.32,-14.9 1164.2,-12.07"/>
<polygon fill="#63b8ff" stroke="#63b8ff" points="1114.43,-197.2 1104.64,-201.25 1114.81,-204.19 1114.43,-197.2"/>
</a>
</g>
</g>
<!-- Node8 -->
<g id="Node000008" class="node">
<title>Node8</title>
<g id="a_Node000008"><a xlink:href="device_8h.html" target="_top" xlink:title="Device enumeration and management functions.">
<polygon fill="white" stroke="#666666" points="806.16,-150 731.66,-150 731.66,-130 806.16,-130 806.16,-150"/>
<text xml:space="preserve" text-anchor="middle" x="768.91" y="-136.5" font-family="Helvetica,sans-Serif" font-size="10.00">core/device.h</text>
</a>
</g>
</g>
<!-- Node1&#45;&gt;Node8 -->
<g id="edge12_Node000001_Node000008" class="edge">
<title>Node1&#45;&gt;Node8</title>
<g id="a_edge12_Node000001_Node000008"><a xlink:title=" ">
<path fill="none" stroke="#63b8ff" d="M1021.15,-191.62C961.81,-179.71 860.65,-159.41 806.21,-148.49"/>
<polygon fill="#63b8ff" stroke="#63b8ff" points="1020.46,-195.05 1030.95,-193.58 1021.84,-188.18 1020.46,-195.05"/>
</a>
</g>
</g>
<!-- Node13 -->
<g id="Node000013" class="node">
<title>Node13</title>
<g id="a_Node000013"><a xlink:href="types_8cpp.html" target="_top" xlink:title="Core type implementations.">
<polygon fill="white" stroke="#666666" points="1773.16,-150 1692.66,-150 1692.66,-130 1773.16,-130 1773.16,-150"/>
<text xml:space="preserve" text-anchor="middle" x="1732.91" y="-136.5" font-family="Helvetica,sans-Serif" font-size="10.00">core/types.cpp</text>
</a>
</g>
</g>
<!-- Node1&#45;&gt;Node13 -->
<g id="edge21_Node000001_Node000013" class="edge">
<title>Node1&#45;&gt;Node13</title>
<g id="a_edge21_Node000001_Node000013"><a xlink:title=" ">
<path fill="none" stroke="#63b8ff" d="M1114.61,-201.14C1218.08,-200.67 1474.08,-195.27 1683.91,-156 1691.17,-154.64 1698.87,-152.59 1705.96,-150.43"/>
<polygon fill="#63b8ff" stroke="#63b8ff" points="1114.84,-197.64 1104.85,-201.17 1114.86,-204.64 1114.84,-197.64"/>
</a>
</g>
</g>
<!-- Node14 -->
<g id="Node000014" class="node">
<title>Node14</title>
<g id="a_Node000014"><a xlink:href="interface_8h.html" target="_top" xlink:title="Abstract platform interface for camera control.">
<polygon fill="white" stroke="#666666" points="1388.91,-150 1288.91,-150 1288.91,-130 1388.91,-130 1388.91,-150"/>
<text xml:space="preserve" text-anchor="middle" x="1338.91" y="-136.5" font-family="Helvetica,sans-Serif" font-size="10.00">platform/interface.h</text>
</a>
</g>
</g>
<!-- Node1&#45;&gt;Node14 -->
<g id="edge23_Node000001_Node000014" class="edge">
<title>Node1&#45;&gt;Node14</title>
<g id="a_edge23_Node000001_Node000014"><a xlink:title=" ">
<path fill="none" stroke="#63b8ff" d="M1114.35,-191.13C1156.34,-182.15 1219.82,-168.44 1274.91,-156 1282.7,-154.24 1291.02,-152.32 1298.99,-150.46"/>
<polygon fill="#63b8ff" stroke="#63b8ff" points="1113.64,-187.7 1104.59,-193.21 1115.1,-194.55 1113.64,-187.7"/>
</a>
</g>
</g>
<!-- Node16 -->
<g id="Node000016" class="node">
<title>Node16</title>
<g id="a_Node000016"><a xlink:href="connection__pool_8h.html" target="_top" xlink:title="Windows&#45;specific device connection pooling.">
<polygon fill="white" stroke="#666666" points="467.28,-156 324.53,-156 324.53,-124 467.28,-124 467.28,-156"/>
<text xml:space="preserve" text-anchor="start" x="332.53" y="-142.5" font-family="Helvetica,sans-Serif" font-size="10.00">platform/windows/connection</text>
<text xml:space="preserve" text-anchor="middle" x="395.91" y="-130.5" font-family="Helvetica,sans-Serif" font-size="10.00">_pool.h</text>
</a>
</g>
</g>
<!-- Node1&#45;&gt;Node16 -->
<g id="edge26_Node000001_Node000016" class="edge">
<title>Node1&#45;&gt;Node16</title>
<g id="a_edge26_Node000001_Node000016"><a xlink:title=" ">
<path fill="none" stroke="#63b8ff" d="M1021.51,-196.86C906.18,-186.56 605.87,-159.75 467.56,-147.4"/>
<polygon fill="#63b8ff" stroke="#63b8ff" points="1020.95,-200.32 1031.22,-197.72 1021.57,-193.35 1020.95,-200.32"/>
</a>
</g>
</g>
<!-- Node17 -->
<g id="Node000017" class="node">
<title>Node17</title>
<g id="a_Node000017"><a xlink:href="directshow_8h.html" target="_top" xlink:title="DirectShow&#45;specific declarations and helpers.">
<polygon fill="white" stroke="#666666" points="1557.03,-150 1406.78,-150 1406.78,-130 1557.03,-130 1557.03,-150"/>
<text xml:space="preserve" text-anchor="middle" x="1481.91" y="-136.5" font-family="Helvetica,sans-Serif" font-size="10.00">platform/windows/directshow.h</text>
</a>
</g>
</g>
<!-- Node1&#45;&gt;Node17 -->
<g id="edge31_Node000001_Node000017" class="edge">
<title>Node1&#45;&gt;Node17</title>
<g id="a_edge31_Node000001_Node000017"><a xlink:title=" ">
<path fill="none" stroke="#63b8ff" d="M1114.43,-195.27C1178.41,-187.25 1297.09,-171.87 1397.91,-156 1408.59,-154.32 1420.01,-152.38 1430.88,-150.46"/>
<polygon fill="#63b8ff" stroke="#63b8ff" points="1114.13,-191.78 1104.64,-196.49 1115,-198.73 1114.13,-191.78"/>
</a>
</g>
</g>
<!-- Node18 -->
<g id="Node000018" class="node">
<title>Node18</title>
<g id="a_Node000018"><a xlink:href="ks__properties_8h.html" target="_top" xlink:title="IKsPropertySet wrapper for vendor properties.">
<polygon fill="white" stroke="#666666" points="1120.91,-156 1014.91,-156 1014.91,-124 1120.91,-124 1120.91,-156"/>
<text xml:space="preserve" text-anchor="start" x="1022.91" y="-142.5" font-family="Helvetica,sans-Serif" font-size="10.00">platform/windows/ks</text>
<text xml:space="preserve" text-anchor="middle" x="1067.91" y="-130.5" font-family="Helvetica,sans-Serif" font-size="10.00">_properties.h</text>
</a>
</g>
</g>
<!-- Node1&#45;&gt;Node18 -->
<g id="edge33_Node000001_Node000018" class="edge">
<title>Node1&#45;&gt;Node18</title>
<g id="a_edge33_Node000001_Node000018"><a xlink:title=" ">
<path fill="none" stroke="#63b8ff" d="M1067.91,-180.31C1067.91,-172.37 1067.91,-163.46 1067.91,-156.14"/>
<polygon fill="#63b8ff" stroke="#63b8ff" points="1064.41,-180.11 1067.91,-190.11 1071.41,-180.11 1064.41,-180.11"/>
</a>
</g>
</g>
<!-- Node20 -->
<g id="Node000020" class="node">
<title>Node20</title>
<g id="a_Node000020"><a xlink:href="string__conversion_8h.html" target="_top" xlink:title="String conversion utilities for enums and types.">
<polygon fill="white" stroke="#666666" points="956.78,-82 835.03,-82 835.03,-62 956.78,-62 956.78,-82"/>
<text xml:space="preserve" text-anchor="middle" x="895.91" y="-68.5" font-family="Helvetica,sans-Serif" font-size="10.00">utils/string_conversion.h</text>
</a>
</g>
</g>
<!-- Node1&#45;&gt;Node20 -->
<g id="edge36_Node000001_Node000020" class="edge">
<title>Node1&#45;&gt;Node20</title>
<g id="a_edge36_Node000001_Node000020"><a xlink:title=" ">
<path fill="none" stroke="#63b8ff" d="M1045.87,-185.15C1033.99,-176.58 1019.11,-165.77 1005.91,-156 970.14,-129.53 928.28,-97.71 908.06,-82.29"/>
<polygon fill="#63b8ff" stroke="#63b8ff" points="1043.65,-187.87 1053.81,-190.88 1047.74,-182.19 1043.65,-187.87"/>
</a>
</g>
</g>
<!-- Node22 -->
<g id="Node000022" class="node">
<title>Node22</title>
<g id="a_Node000022"><a xlink:href="constants_8h.html" target="_top" xlink:title="Vendor&#45;specific property constants and definitions.">
<polygon fill="white" stroke="#666666" points="1674.53,-150 1575.28,-150 1575.28,-130 1674.53,-130 1674.53,-150"/>
<text xml:space="preserve" text-anchor="middle" x="1624.91" y="-136.5" font-family="Helvetica,sans-Serif" font-size="10.00">vendor/constants.h</text>
</a>
</g>
</g>
<!-- Node1&#45;&gt;Node22 -->
<g id="edge41_Node000001_Node000022" class="edge">
<title>Node1&#45;&gt;Node22</title>
<g id="a_edge41_Node000001_Node000022"><a xlink:title=" ">
<path fill="none" stroke="#63b8ff" d="M1114.41,-199.26C1202.89,-195.42 1401.31,-184.18 1565.91,-156 1574.24,-154.57 1583.13,-152.57 1591.41,-150.5"/>
<polygon fill="#63b8ff" stroke="#63b8ff" points="1114.53,-195.76 1104.69,-199.67 1114.83,-202.75 1114.53,-195.76"/>
</a>
</g>
</g>
<!-- Node24 -->
<g id="Node000024" class="node">
<title>Node24</title>
<g id="a_Node000024"><a xlink:href="logitech_8h.html" target="_top" xlink:title="Logitech&#45;specific vendor property definitions and helpers.">
<polygon fill="white" stroke="#666666" points="1232.03,-150 1141.78,-150 1141.78,-130 1232.03,-130 1232.03,-150"/>
<text xml:space="preserve" text-anchor="middle" x="1186.91" y="-136.5" font-family="Helvetica,sans-Serif" font-size="10.00">vendor/logitech.h</text>
</a>
</g>
</g>
<!-- Node1&#45;&gt;Node24 -->
<g id="edge44_Node000001_Node000024" class="edge">
<title>Node1&#45;&gt;Node24</title>
<g id="a_edge44_Node000001_Node000024"><a xlink:title=" ">
<path fill="none" stroke="#63b8ff" d="M1096.74,-186.46C1119.05,-175.21 1149.28,-159.97 1168.45,-150.31"/>
<polygon fill="#63b8ff" stroke="#63b8ff" points="1095.21,-183.32 1087.85,-190.94 1098.36,-189.57 1095.21,-183.32"/>
</a>
</g>
</g>
<!-- Node3&#45;&gt;Node2 -->
<g id="edge3_Node000003_Node000002" class="edge">
<title>Node3&#45;&gt;Node2</title>
<g id="a_edge3_Node000003_Node000002"><a xlink:title=" ">
<path fill="none" stroke="#63b8ff" d="M120.02,-136.48C85.64,-131.8 42.52,-119.51 19.91,-88 11.62,-76.45 11.72,-67.63 19.91,-56 41.92,-24.77 87.67,-15.09 117.56,-12.17"/>
<polygon fill="#63b8ff" stroke="#63b8ff" points="119.47,-139.94 129.81,-137.61 120.28,-132.98 119.47,-139.94"/>
</a>
</g>
</g>
<!-- Node4 -->
<g id="Node000004" class="node">
<title>Node4</title>
<g id="a_Node000004"><a xlink:href="camera_8cpp.html" target="_top" xlink:title="RAII camera handle implementation.">
<polygon fill="white" stroke="#666666" points="335.28,-82 246.53,-82 246.53,-62 335.28,-62 335.28,-82"/>
<text xml:space="preserve" text-anchor="middle" x="290.91" y="-68.5" font-family="Helvetica,sans-Serif" font-size="10.00">core/camera.cpp</text>
</a>
</g>
</g>
<!-- Node3&#45;&gt;Node4 -->
<g id="edge4_Node000003_Node000004" class="edge">
<title>Node3&#45;&gt;Node4</title>
<g id="a_edge4_Node000003_Node000004"><a xlink:title=" ">
<path fill="none" stroke="#63b8ff" d="M198.02,-124.09C221.24,-111.32 253.98,-93.31 273.75,-82.44"/>
<polygon fill="#63b8ff" stroke="#63b8ff" points="196.5,-120.93 189.43,-128.81 199.88,-127.06 196.5,-120.93"/>
</a>
</g>
</g>
<!-- Node5 -->
<g id="Node000005" class="node">
<title>Node5</title>
<g id="a_Node000005"><a xlink:href="capability_8cpp.html" target="_top" xlink:title="Device capability detection implementation using Camera API.">
<polygon fill="white" stroke="#666666" points="550.41,-20 453.41,-20 453.41,0 550.41,0 550.41,-20"/>
<text xml:space="preserve" text-anchor="middle" x="501.91" y="-6.5" font-family="Helvetica,sans-Serif" font-size="10.00">core/capability.cpp</text>
</a>
</g>
</g>
<!-- Node3&#45;&gt;Node5 -->
<g id="edge5_Node000003_Node000005" class="edge">
<title>Node3&#45;&gt;Node5</title>
<g id="a_edge5_Node000003_Node000005"><a xlink:title=" ">
<path fill="none" stroke="#63b8ff" d="M162.85,-118.9C156.86,-100.29 152.03,-73.01 166.91,-56 203.47,-14.2 369.05,-9.61 452.92,-10.06"/>
<polygon fill="#63b8ff" stroke="#63b8ff" points="159.54,-120.04 166.24,-128.25 166.12,-117.66 159.54,-120.04"/>
</a>
</g>
</g>
<!-- Node3&#45;&gt;Node6 -->
<g id="edge6_Node000003_Node000006" class="edge">
<title>Node3&#45;&gt;Node6</title>
<g id="a_edge6_Node000003_Node000006"><a xlink:title=" ">
<path fill="none" stroke="#63b8ff" d="M147.23,-123.22C128.17,-110.51 102.01,-93.07 86.07,-82.44"/>
<polygon fill="#63b8ff" stroke="#63b8ff" points="145.2,-126.07 155.46,-128.7 149.09,-120.25 145.2,-126.07"/>
</a>
</g>
</g>
<!-- Node3&#45;&gt;Node7 -->
<g id="edge10_Node000003_Node000007" class="edge">
<title>Node3&#45;&gt;Node7</title>
<g id="a_edge10_Node000003_Node000007"><a xlink:title=" ">
<path fill="none" stroke="#63b8ff" d="M180.37,-119.49C191.21,-99.56 211.01,-69.67 237.91,-56 310.6,-19.04 889.48,-24.22 970.91,-20 1018.9,-17.51 1074.73,-14.43 1107.59,-12.59"/>
<polygon fill="#63b8ff" stroke="#63b8ff" points="177.31,-117.78 175.85,-128.27 183.54,-120.98 177.31,-117.78"/>
</a>
</g>
</g>
<!-- Node6&#45;&gt;Node2 -->
<g id="edge7_Node000006_Node000002" class="edge">
<title>Node6&#45;&gt;Node2</title>
<g id="a_edge7_Node000006_Node000002"><a xlink:title=" ">
<path fill="none" stroke="#63b8ff" d="M92.2,-54.55C105.89,-43.45 123.43,-29.23 134.67,-20.11"/>
<polygon fill="#63b8ff" stroke="#63b8ff" points="90.21,-51.66 84.65,-60.67 94.62,-57.09 90.21,-51.66"/>
</a>
</g>
</g>
<!-- Node6&#45;&gt;Node5 -->
<g id="edge8_Node000006_Node000005" class="edge">
<title>Node6&#45;&gt;Node5</title>
<g id="a_edge8_Node000006_Node000005"><a xlink:title=" ">
<path fill="none" stroke="#63b8ff" d="M115.76,-58.82C120.18,-57.78 124.62,-56.82 128.91,-56 244.07,-34.01 381.41,-20.71 453,-14.75"/>
<polygon fill="#63b8ff" stroke="#63b8ff" points="115.23,-55.34 106.36,-61.14 116.9,-62.14 115.23,-55.34"/>
</a>
</g>
</g>
<!-- Node6&#45;&gt;Node7 -->
<g id="edge9_Node000006_Node000007" class="edge">
<title>Node6&#45;&gt;Node7</title>
<g id="a_edge9_Node000006_Node000007"><a xlink:title=" ">
<path fill="none" stroke="#63b8ff" d="M126.58,-61.3C139.75,-59.26 153.8,-57.32 166.91,-56 522.79,-20.05 613.66,-37.74 970.91,-20 1018.9,-17.62 1074.73,-14.5 1107.59,-12.63"/>
<polygon fill="#63b8ff" stroke="#63b8ff" points="126.1,-57.83 116.78,-62.87 127.21,-64.74 126.1,-57.83"/>
</a>
</g>
</g>
<!-- Node8&#45;&gt;Node2 -->
<g id="edge13_Node000008_Node000002" class="edge">
<title>Node8&#45;&gt;Node2</title>
<g id="a_edge13_Node000008_Node000002"><a xlink:title=" ">
<path fill="none" stroke="#63b8ff" d="M770.48,-118.06C770.66,-98.83 767.48,-71.11 749.91,-56 727.81,-37 290.8,-17.15 174.26,-12.18"/>
<polygon fill="#63b8ff" stroke="#63b8ff" points="766.98,-117.84 770.04,-127.99 773.98,-118.15 766.98,-117.84"/>
</a>
</g>
</g>
<!-- Node8&#45;&gt;Node4 -->
<g id="edge14_Node000008_Node000004" class="edge">
<title>Node8&#45;&gt;Node4</title>
<g id="a_edge14_Node000008_Node000004"><a xlink:title=" ">
<path fill="none" stroke="#63b8ff" d="M720.09,-135.54C640.81,-129.39 479.39,-114.61 344.91,-88 337.37,-86.51 329.34,-84.51 321.84,-82.46"/>
<polygon fill="#63b8ff" stroke="#63b8ff" points="719.43,-139 729.67,-136.27 719.96,-132.02 719.43,-139"/>
</a>
</g>
</g>
<!-- Node8&#45;&gt;Node5 -->
<g id="edge15_Node000008_Node000005" class="edge">
<title>Node8&#45;&gt;Node5</title>
<g id="a_edge15_Node000008_Node000005"><a xlink:title=" ">
<path fill="none" stroke="#63b8ff" d="M780.06,-119.58C789.04,-101.1 797.9,-73.58 782.91,-56 753.66,-21.69 623.3,-13.43 550.86,-11.51"/>
<polygon fill="#63b8ff" stroke="#63b8ff" points="777.1,-117.69 775.52,-128.17 783.29,-120.97 777.1,-117.69"/>
</a>
</g>
</g>
<!-- Node8&#45;&gt;Node7 -->
<g id="edge17_Node000008_Node000007" class="edge">
<title>Node8&#45;&gt;Node7</title>
<g id="a_edge17_Node000008_Node000007"><a xlink:title=" ">
<path fill="none" stroke="#63b8ff" d="M817.75,-132.56C858.99,-125.71 918.71,-112.37 965.91,-88 985.53,-77.87 984.68,-66.86 1003.91,-56 1037.32,-37.12 1079.96,-24.37 1107.59,-17.4"/>
<polygon fill="#63b8ff" stroke="#63b8ff" points="817.45,-129.07 808.12,-134.09 818.55,-135.98 817.45,-129.07"/>
</a>
</g>
</g>
<!-- Node9 -->
<g id="Node000009" class="node">
<title>Node9</title>
<g id="a_Node000009"><a xlink:href="device_8cpp.html" target="_top" xlink:title="Device enumeration and management implementation.">
<polygon fill="white" stroke="#666666" points="438.41,-82 353.41,-82 353.41,-62 438.41,-62 438.41,-82"/>
<text xml:space="preserve" text-anchor="middle" x="395.91" y="-68.5" font-family="Helvetica,sans-Serif" font-size="10.00">core/device.cpp</text>
</a>
</g>
</g>
<!-- Node8&#45;&gt;Node9 -->
<g id="edge16_Node000008_Node000009" class="edge">
<title>Node8&#45;&gt;Node9</title>
<g id="a_edge16_Node000008_Node000009"><a xlink:title=" ">
<path fill="none" stroke="#63b8ff" d="M720.36,-133.18C657.19,-125.18 543.57,-109.31 447.91,-88 440.85,-86.43 433.33,-84.44 426.27,-82.44"/>
<polygon fill="#63b8ff" stroke="#63b8ff" points="719.7,-136.63 730.05,-134.4 720.57,-129.68 719.7,-136.63"/>
</a>
</g>
</g>
<!-- Node10 -->
<g id="Node000010" class="node">
<title>Node10</title>
<g id="a_Node000010"><a xlink:href="connection__pool_8cpp.html" target="_top" xlink:title="Windows DirectShow connection pooling implementation.">
<polygon fill="white" stroke="#666666" points="599.28,-88 456.53,-88 456.53,-56 599.28,-56 599.28,-88"/>
<text xml:space="preserve" text-anchor="start" x="464.53" y="-74.5" font-family="Helvetica,sans-Serif" font-size="10.00">platform/windows/connection</text>
<text xml:space="preserve" text-anchor="middle" x="527.91" y="-62.5" font-family="Helvetica,sans-Serif" font-size="10.00">_pool.cpp</text>
</a>
</g>
</g>
<!-- Node8&#45;&gt;Node10 -->
<g id="edge18_Node000008_Node000010" class="edge">
<title>Node8&#45;&gt;Node10</title>
<g id="a_edge18_Node000008_Node000010"><a xlink:title=" ">
<path fill="none" stroke="#63b8ff" d="M723.49,-126.56C684.01,-115.75 626.64,-100.04 584.24,-88.43"/>
<polygon fill="#63b8ff" stroke="#63b8ff" points="722.35,-129.88 732.92,-129.14 724.2,-123.13 722.35,-129.88"/>
</a>
</g>
</g>
<!-- Node11 -->
<g id="Node000011" class="node">
<title>Node11</title>
<g id="a_Node000011"><a xlink:href="device__monitor_8cpp.html" target="_top" xlink:title="Windows device hotplug detection implementation.">
<polygon fill="white" stroke="#666666" points="740.91,-88 616.91,-88 616.91,-56 740.91,-56 740.91,-88"/>
<text xml:space="preserve" text-anchor="start" x="624.91" y="-74.5" font-family="Helvetica,sans-Serif" font-size="10.00">platform/windows/device</text>
<text xml:space="preserve" text-anchor="middle" x="678.91" y="-62.5" font-family="Helvetica,sans-Serif" font-size="10.00">_monitor.cpp</text>
</a>
</g>
</g>
<!-- Node8&#45;&gt;Node11 -->
<g id="edge19_Node000008_Node000011" class="edge">
<title>Node8&#45;&gt;Node11</title>
<g id="a_edge19_Node000008_Node000011"><a xlink:title=" ">
<path fill="none" stroke="#63b8ff" d="M746.86,-122.83C732.5,-112.3 713.89,-98.65 699.77,-88.3"/>
<polygon fill="#63b8ff" stroke="#63b8ff" points="744.66,-125.56 754.79,-128.65 748.8,-119.91 744.66,-125.56"/>
</a>
</g>
</g>
<!-- Node12 -->
<g id="Node000012" class="node">
<title>Node12</title>
<g id="a_Node000012"><a xlink:href="ks__properties_8cpp.html" target="_top" xlink:title="IKsPropertySet implementation for vendor properties.">
<polygon fill="white" stroke="#666666" points="1118.91,-88 1012.91,-88 1012.91,-56 1118.91,-56 1118.91,-88"/>
<text xml:space="preserve" text-anchor="start" x="1020.91" y="-74.5" font-family="Helvetica,sans-Serif" font-size="10.00">platform/windows/ks</text>
<text xml:space="preserve" text-anchor="middle" x="1065.91" y="-62.5" font-family="Helvetica,sans-Serif" font-size="10.00">_properties.cpp</text>
</a>
</g>
</g>
<!-- Node8&#45;&gt;Node12 -->
<g id="edge20_Node000008_Node000012" class="edge">
<title>Node8&#45;&gt;Node12</title>
<g id="a_edge20_Node000008_Node000012"><a xlink:title=" ">
<path fill="none" stroke="#63b8ff" d="M817.33,-128.29C863.88,-117.99 936.21,-101.97 998.91,-88 1003.33,-87.01 1007.91,-85.99 1012.52,-84.96"/>
<polygon fill="#63b8ff" stroke="#63b8ff" points="816.85,-124.82 807.84,-130.39 818.36,-131.65 816.85,-124.82"/>
</a>
</g>
</g>
<!-- Node14&#45;&gt;Node7 -->
<g id="edge24_Node000014_Node000007" class="edge">
<title>Node14&#45;&gt;Node7</title>
<g id="a_edge24_Node000014_Node000007"><a xlink:title=" ">
<path fill="none" stroke="#63b8ff" d="M1339.03,-118.07C1337.98,-99.28 1333.39,-72.23 1316.91,-56 1295.39,-34.81 1209.16,-20.61 1163.93,-14.46"/>
<polygon fill="#63b8ff" stroke="#63b8ff" points="1335.53,-118.1 1339.26,-128.02 1342.53,-117.94 1335.53,-118.1"/>
</a>
</g>
</g>
<!-- Node15 -->
<g id="Node000015" class="node">
<title>Node15</title>
<g id="a_Node000015"><a xlink:href="factory_8cpp.html" target="_top" xlink:title="Platform detection and factory implementation.">
<polygon fill="white" stroke="#666666" points="1471.03,-82 1368.78,-82 1368.78,-62 1471.03,-62 1471.03,-82"/>
<text xml:space="preserve" text-anchor="middle" x="1419.91" y="-68.5" font-family="Helvetica,sans-Serif" font-size="10.00">platform/factory.cpp</text>
</a>
</g>
</g>
<!-- Node14&#45;&gt;Node15 -->
<g id="edge25_Node000014_Node000015" class="edge">
<title>Node14&#45;&gt;Node15</title>
<g id="a_edge25_Node000014_Node000015"><a xlink:title=" ">
<path fill="none" stroke="#63b8ff" d="M1359.37,-122.33C1374.86,-109.71 1395.58,-92.82 1408.32,-82.44"/>
<polygon fill="#63b8ff" stroke="#63b8ff" points="1357.23,-119.56 1351.69,-128.59 1361.65,-124.98 1357.23,-119.56"/>
</a>
</g>
</g>
<!-- Node16&#45;&gt;Node2 -->
<g id="edge27_Node000016_Node000002" class="edge">
<title>Node16&#45;&gt;Node2</title>
<g id="a_edge27_Node000016_Node000002"><a xlink:title=" ">
<path fill="none" stroke="#63b8ff" d="M318.25,-120.41C291.84,-112.42 262.75,-101.72 237.91,-88 203.63,-69.07 170.08,-36.42 154.68,-20.41"/>
<polygon fill="#63b8ff" stroke="#63b8ff" points="316.97,-123.68 327.55,-123.13 318.93,-116.96 316.97,-123.68"/>
</a>
</g>
</g>
<!-- Node16&#45;&gt;Node4 -->
<g id="edge28_Node000016_Node000004" class="edge">
<title>Node16&#45;&gt;Node4</title>
<g id="a_edge28_Node000016_Node000004"><a xlink:title=" ">
<path fill="none" stroke="#63b8ff" d="M361.56,-117.41C342.76,-105.59 320.41,-91.54 305.96,-82.46"/>
<polygon fill="#63b8ff" stroke="#63b8ff" points="359.68,-120.36 370.01,-122.72 363.41,-114.44 359.68,-120.36"/>
</a>
</g>
</g>
<!-- Node16&#45;&gt;Node9 -->
<g id="edge29_Node000016_Node000009" class="edge">
<title>Node16&#45;&gt;Node9</title>
<g id="a_edge29_Node000016_Node000009"><a xlink:title=" ">
<path fill="none" stroke="#63b8ff" d="M395.91,-112.31C395.91,-101.67 395.91,-90.13 395.91,-82.32"/>
<polygon fill="#63b8ff" stroke="#63b8ff" points="392.41,-112.18 395.91,-122.18 399.41,-112.18 392.41,-112.18"/>
</a>
</g>
</g>
<!-- Node16&#45;&gt;Node10 -->
<g id="edge30_Node000016_Node000010" class="edge">
<title>Node16&#45;&gt;Node10</title>
<g id="a_edge30_Node000016_Node000010"><a xlink:title=" ">
<path fill="none" stroke="#63b8ff" d="M436.96,-118.47C456.4,-108.75 479.23,-97.34 497.15,-88.38"/>
<polygon fill="#63b8ff" stroke="#63b8ff" points="435.59,-115.25 428.21,-122.85 438.72,-121.51 435.59,-115.25"/>
</a>
</g>
</g>
<!-- Node17&#45;&gt;Node15 -->
<g id="edge32_Node000017_Node000015" class="edge">
<title>Node17&#45;&gt;Node15</title>
<g id="a_edge32_Node000017_Node000015"><a xlink:title=" ">
<path fill="none" stroke="#63b8ff" d="M1465.23,-121.25C1453.5,-108.76 1438.25,-92.53 1428.78,-82.44"/>
<polygon fill="#63b8ff" stroke="#63b8ff" points="1462.59,-123.55 1471.99,-128.44 1467.69,-118.76 1462.59,-123.55"/>
</a>
</g>
</g>
<!-- Node18&#45;&gt;Node12 -->
<g id="edge34_Node000018_Node000012" class="edge">
<title>Node18&#45;&gt;Node12</title>
<g id="a_edge34_Node000018_Node000012"><a xlink:title=" ">
<path fill="none" stroke="#63b8ff" d="M1067.1,-112.31C1066.85,-104.12 1066.59,-95.38 1066.37,-88.22"/>
<polygon fill="#63b8ff" stroke="#63b8ff" points="1063.6,-112.29 1067.4,-122.18 1070.59,-112.08 1063.6,-112.29"/>
</a>
</g>
</g>
<!-- Node19 -->
<g id="Node000019" class="node">
<title>Node19</title>
<g id="a_Node000019"><a xlink:href="logitech_8cpp.html" target="_top" xlink:title="Logitech&#45;specific property implementations.">
<polygon fill="white" stroke="#666666" points="1237.28,-82 1136.53,-82 1136.53,-62 1237.28,-62 1237.28,-82"/>
<text xml:space="preserve" text-anchor="middle" x="1186.91" y="-68.5" font-family="Helvetica,sans-Serif" font-size="10.00">vendor/logitech.cpp</text>
</a>
</g>
</g>
<!-- Node18&#45;&gt;Node19 -->
<g id="edge35_Node000018_Node000019" class="edge">
<title>Node18&#45;&gt;Node19</title>
<g id="a_edge35_Node000018_Node000019"><a xlink:title=" ">
<path fill="none" stroke="#63b8ff" d="M1105.66,-118.06C1127.21,-106.11 1153.17,-91.71 1169.85,-82.46"/>
<polygon fill="#63b8ff" stroke="#63b8ff" points="1104.18,-114.88 1097.13,-122.79 1107.58,-121 1104.18,-114.88"/>
</a>
</g>
</g>
<!-- Node20&#45;&gt;Node2 -->
<g id="edge37_Node000020_Node000002" class="edge">
<title>Node20&#45;&gt;Node2</title>
<g id="a_edge37_Node000020_Node000002"><a xlink:title=" ">
<path fill="none" stroke="#63b8ff" d="M823.52,-60.72C810.04,-59 796.06,-57.34 782.91,-56 548.25,-32.16 263.67,-16.87 174.22,-12.38"/>
<polygon fill="#63b8ff" stroke="#63b8ff" points="822.83,-64.16 833.2,-61.98 823.74,-57.22 822.83,-64.16"/>
</a>
</g>
</g>
<!-- Node20&#45;&gt;Node5 -->
<g id="edge38_Node000020_Node000005" class="edge">
<title>Node20&#45;&gt;Node5</title>
<g id="a_edge38_Node000020_Node000005"><a xlink:title=" ">
<path fill="none" stroke="#63b8ff" d="M839.56,-59.37C833.28,-58.18 826.96,-57.03 820.91,-56 725.52,-39.75 613.38,-24.91 550.68,-17"/>
<polygon fill="#63b8ff" stroke="#63b8ff" points="838.81,-62.79 849.29,-61.25 840.13,-55.92 838.81,-62.79"/>
</a>
</g>
</g>
<!-- Node20&#45;&gt;Node7 -->
<g id="edge39_Node000020_Node000007" class="edge">
<title>Node20&#45;&gt;Node7</title>
<g id="a_edge39_Node000020_Node000007"><a xlink:title=" ">
<path fill="none" stroke="#63b8ff" d="M944.66,-58.81C993.72,-46.55 1067.69,-28.05 1107.74,-18.04"/>
<polygon fill="#63b8ff" stroke="#63b8ff" points="943.99,-55.37 935.14,-61.19 945.69,-62.16 943.99,-55.37"/>
</a>
</g>
</g>
<!-- Node21 -->
<g id="Node000021" class="node">
<title>Node21</title>
<g id="a_Node000021"><a xlink:href="string__conversion_8cpp.html" target="_top" xlink:title="String conversion utilities implementation.">
<polygon fill="white" stroke="#666666" points="962.03,-20 829.78,-20 829.78,0 962.03,0 962.03,-20"/>
<text xml:space="preserve" text-anchor="middle" x="895.91" y="-6.5" font-family="Helvetica,sans-Serif" font-size="10.00">utils/string_conversion.cpp</text>
</a>
</g>
</g>
<!-- Node20&#45;&gt;Node21 -->
<g id="edge40_Node000020_Node000021" class="edge">
<title>Node20&#45;&gt;Node21</title>
<g id="a_edge40_Node000020_Node000021"><a xlink:title=" ">
<path fill="none" stroke="#63b8ff" d="M895.91,-50.25C895.91,-39.97 895.91,-28.09 895.91,-20.11"/>
<polygon fill="#63b8ff" stroke="#63b8ff" points="892.41,-50.11 895.91,-60.11 899.41,-50.11 892.41,-50.11"/>
</a>
</g>
</g>
<!-- Node22&#45;&gt;Node7 -->
<g id="edge42_Node000022_Node000007" class="edge">
<title>Node22&#45;&gt;Node7</title>
<g id="a_edge42_Node000022_Node000007"><a xlink:title=" ">
<path fill="none" stroke="#63b8ff" d="M1626.96,-118.19C1627.58,-99.07 1625.06,-71.41 1607.91,-56 1574.8,-26.26 1260.83,-14.65 1164.12,-11.77"/>
<polygon fill="#63b8ff" stroke="#63b8ff" points="1623.47,-117.85 1626.29,-128.06 1630.46,-118.32 1623.47,-117.85"/>
</a>
</g>
</g>
<!-- Node23 -->
<g id="Node000023" class="node">
<title>Node23</title>
<g id="a_Node000023"><a xlink:href="constants_8cpp.html" target="_top" xlink:title="Vendor&#45;specific property implementation.">
<polygon fill="white" stroke="#666666" points="1598.78,-82 1489.03,-82 1489.03,-62 1598.78,-62 1598.78,-82"/>
<text xml:space="preserve" text-anchor="middle" x="1543.91" y="-68.5" font-family="Helvetica,sans-Serif" font-size="10.00">vendor/constants.cpp</text>
</a>
</g>
</g>
<!-- Node22&#45;&gt;Node23 -->
<g id="edge43_Node000022_Node000023" class="edge">
<title>Node22&#45;&gt;Node23</title>
<g id="a_edge43_Node000022_Node000023"><a xlink:title=" ">
<path fill="none" stroke="#63b8ff" d="M1604.45,-122.33C1588.96,-109.71 1568.23,-92.82 1555.49,-82.44"/>
<polygon fill="#63b8ff" stroke="#63b8ff" points="1602.17,-124.98 1612.13,-128.59 1606.59,-119.56 1602.17,-124.98"/>
</a>
</g>
</g>
<!-- Node24&#45;&gt;Node7 -->
<g id="edge45_Node000024_Node000007" class="edge">
<title>Node24&#45;&gt;Node7</title>
<g id="a_edge45_Node000024_Node000007"><a xlink:title=" ">
<path fill="none" stroke="#63b8ff" d="M1213.95,-123.26C1226.13,-114.57 1239.24,-102.57 1245.91,-88 1251.82,-75.07 1253.84,-67.81 1245.91,-56 1227.74,-28.93 1190.09,-18.14 1163.94,-13.84"/>
<polygon fill="#63b8ff" stroke="#63b8ff" points="1212.2,-120.23 1205.79,-128.67 1216.06,-126.06 1212.2,-120.23"/>
</a>
</g>
</g>
<!-- Node24&#45;&gt;Node19 -->
<g id="edge46_Node000024_Node000019" class="edge">
<title>Node24&#45;&gt;Node19</title>
<g id="a_edge46_Node000024_Node000019"><a xlink:title=" ">
<path fill="none" stroke="#63b8ff" d="M1186.91,-118.28C1186.91,-106.27 1186.91,-91.74 1186.91,-82.44"/>
<polygon fill="#63b8ff" stroke="#63b8ff" points="1183.41,-118.03 1186.91,-128.03 1190.41,-118.03 1183.41,-118.03"/>
</a>
</g>
</g>
</g>
</svg>
